%TF.GenerationSoftware,KiCad,Pcbnew,9.0.9-9.0.9~ubuntu22.04.1*%
%TF.CreationDate,2026-09-02T08:00:35-04:00*%
%TF.ProjectId,psc_daughter_brd,7073635f-6461-4756-9768-7465725f6272,rev?*%
%TF.SameCoordinates,Original*%
%TF.FileFunction,Paste,Top*%
%TF.FilePolarity,Positive*%
%FSLAX46Y46*%
G04 Gerber Fmt 4.6, Leading zero omitted, Abs format (unit mm)*
G04 Created by KiCad (PCBNEW 9.0.9-9.0.9~ubuntu22.04.1) date 2026-09-02 08:00:35*
%MOMM*%
%LPD*%
G01*
G04 APERTURE LIST*
G04 Aperture macros list*
%AMRoundRect*
0 Rectangle with rounded corners*
0 $1 Rounding radius*
0 $2 $3 $4 $5 $6 $7 $8 $9 X,Y pos of 4 corners*
0 Add a 4 corners polygon primitive as box body*
4,1,4,$2,$3,$4,$5,$6,$7,$8,$9,$2,$3,0*
0 Add four circle primitives for the rounded corners*
1,1,$1+$1,$2,$3*
1,1,$1+$1,$4,$5*
1,1,$1+$1,$6,$7*
1,1,$1+$1,$8,$9*
0 Add four rect primitives between the rounded corners*
20,1,$1+$1,$2,$3,$4,$5,0*
20,1,$1+$1,$4,$5,$6,$7,0*
20,1,$1+$1,$6,$7,$8,$9,0*
20,1,$1+$1,$8,$9,$2,$3,0*%
G04 Aperture macros list end*
%ADD10C,0.010000*%
%ADD11C,0.000000*%
%ADD12RoundRect,0.140000X0.140000X0.170000X-0.140000X0.170000X-0.140000X-0.170000X0.140000X-0.170000X0*%
%ADD13RoundRect,0.135000X0.185000X-0.135000X0.185000X0.135000X-0.185000X0.135000X-0.185000X-0.135000X0*%
%ADD14RoundRect,0.127000X0.228600X0.127000X-0.228600X0.127000X-0.228600X-0.127000X0.228600X-0.127000X0*%
%ADD15RoundRect,0.190500X0.190500X0.571500X-0.190500X0.571500X-0.190500X-0.571500X0.190500X-0.571500X0*%
%ADD16RoundRect,0.200000X0.200000X0.275000X-0.200000X0.275000X-0.200000X-0.275000X0.200000X-0.275000X0*%
%ADD17R,0.558800X1.981200*%
%ADD18RoundRect,0.200000X-0.200000X-0.275000X0.200000X-0.275000X0.200000X0.275000X-0.200000X0.275000X0*%
%ADD19RoundRect,0.140000X-0.140000X-0.170000X0.140000X-0.170000X0.140000X0.170000X-0.140000X0.170000X0*%
%ADD20RoundRect,0.190500X-0.190500X-0.571500X0.190500X-0.571500X0.190500X0.571500X-0.190500X0.571500X0*%
%ADD21RoundRect,0.127000X-0.228600X-0.127000X0.228600X-0.127000X0.228600X0.127000X-0.228600X0.127000X0*%
%ADD22R,0.600000X1.970000*%
%ADD23RoundRect,0.150000X-0.150000X0.825000X-0.150000X-0.825000X0.150000X-0.825000X0.150000X0.825000X0*%
%ADD24RoundRect,0.200000X0.275000X-0.200000X0.275000X0.200000X-0.275000X0.200000X-0.275000X-0.200000X0*%
%ADD25RoundRect,0.135000X0.135000X0.185000X-0.135000X0.185000X-0.135000X-0.185000X0.135000X-0.185000X0*%
%ADD26RoundRect,0.225000X0.250000X-0.225000X0.250000X0.225000X-0.250000X0.225000X-0.250000X-0.225000X0*%
%ADD27RoundRect,0.200000X-0.275000X0.200000X-0.275000X-0.200000X0.275000X-0.200000X0.275000X0.200000X0*%
%ADD28RoundRect,0.150000X-0.825000X-0.150000X0.825000X-0.150000X0.825000X0.150000X-0.825000X0.150000X0*%
%ADD29RoundRect,0.140000X0.170000X-0.140000X0.170000X0.140000X-0.170000X0.140000X-0.170000X-0.140000X0*%
%ADD30RoundRect,0.222222X0.577778X-1.552778X0.577778X1.552778X-0.577778X1.552778X-0.577778X-1.552778X0*%
%ADD31RoundRect,0.135000X-0.185000X0.135000X-0.185000X-0.135000X0.185000X-0.135000X0.185000X0.135000X0*%
%ADD32R,0.203200X0.863600*%
%ADD33R,0.863600X0.203200*%
%ADD34RoundRect,0.225000X-0.225000X-0.250000X0.225000X-0.250000X0.225000X0.250000X-0.225000X0.250000X0*%
%ADD35RoundRect,0.100000X-0.637500X-0.100000X0.637500X-0.100000X0.637500X0.100000X-0.637500X0.100000X0*%
%ADD36R,0.609600X0.228600*%
%ADD37RoundRect,0.140000X-0.170000X0.140000X-0.170000X-0.140000X0.170000X-0.140000X0.170000X0.140000X0*%
%ADD38RoundRect,0.135000X-0.135000X-0.185000X0.135000X-0.185000X0.135000X0.185000X-0.135000X0.185000X0*%
%ADD39RoundRect,0.150000X0.150000X-0.825000X0.150000X0.825000X-0.150000X0.825000X-0.150000X-0.825000X0*%
%ADD40R,1.219200X0.457200*%
%ADD41O,1.219200X0.457200*%
%ADD42R,0.685800X2.717800*%
%ADD43R,0.685800X1.701800*%
%ADD44R,1.701800X0.685800*%
%ADD45RoundRect,0.225000X0.225000X0.250000X-0.225000X0.250000X-0.225000X-0.250000X0.225000X-0.250000X0*%
%ADD46RoundRect,0.170000X0.210000X-0.170000X0.210000X0.170000X-0.210000X0.170000X-0.210000X-0.170000X0*%
%ADD47RoundRect,0.075000X0.075000X-0.650000X0.075000X0.650000X-0.075000X0.650000X-0.075000X-0.650000X0*%
%ADD48RoundRect,0.035000X-0.750000X-0.105000X0.750000X-0.105000X0.750000X0.105000X-0.750000X0.105000X0*%
%ADD49RoundRect,0.035000X-0.105000X-0.750000X0.105000X-0.750000X0.105000X0.750000X-0.105000X0.750000X0*%
%ADD50R,8.000000X8.000000*%
%ADD51RoundRect,0.218750X0.256250X-0.218750X0.256250X0.218750X-0.256250X0.218750X-0.256250X-0.218750X0*%
%ADD52RoundRect,0.222222X-1.552778X-0.577778X1.552778X-0.577778X1.552778X0.577778X-1.552778X0.577778X0*%
%ADD53RoundRect,0.225000X-0.250000X0.225000X-0.250000X-0.225000X0.250000X-0.225000X0.250000X0.225000X0*%
%ADD54R,1.524000X0.457200*%
%ADD55R,0.229200X0.804800*%
%ADD56R,3.400001X1.800000*%
%ADD57R,1.549400X0.609600*%
%ADD58R,0.700000X1.500000*%
%ADD59R,1.500000X0.700000*%
%ADD60R,2.500000X0.700000*%
%ADD61R,2.387600X1.498600*%
%ADD62R,1.244600X1.498600*%
%ADD63R,0.457200X1.219200*%
%ADD64O,0.457200X1.219200*%
G04 APERTURE END LIST*
D10*
%TO.C,D4*%
X147043049Y-53941800D02*
X146743049Y-53941800D01*
X146743049Y-53341800D01*
X147043049Y-53341800D01*
X147043049Y-53941800D01*
G36*
X147043049Y-53941800D02*
G01*
X146743049Y-53941800D01*
X146743049Y-53341800D01*
X147043049Y-53341800D01*
X147043049Y-53941800D01*
G37*
X146343049Y-53941800D02*
X146043049Y-53941800D01*
X146043049Y-53341800D01*
X146343049Y-53341800D01*
X146343049Y-53941800D01*
G36*
X146343049Y-53941800D02*
G01*
X146043049Y-53941800D01*
X146043049Y-53341800D01*
X146343049Y-53341800D01*
X146343049Y-53941800D01*
G37*
D11*
%TO.C,U37*%
G36*
X146723550Y-96163501D02*
G01*
X145223549Y-96163501D01*
X145223549Y-94563501D01*
X146723550Y-94563501D01*
X146723550Y-96163501D01*
G37*
G36*
X148423551Y-96163501D02*
G01*
X146923550Y-96163501D01*
X146923550Y-94563501D01*
X148423551Y-94563501D01*
X148423551Y-96163501D01*
G37*
%TO.C,U31*%
G36*
X156969001Y-96145000D02*
G01*
X155469000Y-96145000D01*
X155469000Y-94545000D01*
X156969001Y-94545000D01*
X156969001Y-96145000D01*
G37*
G36*
X158669002Y-96145000D02*
G01*
X157169001Y-96145000D01*
X157169001Y-94545000D01*
X158669002Y-94545000D01*
X158669002Y-96145000D01*
G37*
D10*
%TO.C,D7*%
X154655000Y-119583150D02*
X154355000Y-119583150D01*
X154355000Y-118983150D01*
X154655000Y-118983150D01*
X154655000Y-119583150D01*
G36*
X154655000Y-119583150D02*
G01*
X154355000Y-119583150D01*
X154355000Y-118983150D01*
X154655000Y-118983150D01*
X154655000Y-119583150D01*
G37*
X155355000Y-119583150D02*
X155055000Y-119583150D01*
X155055000Y-118983150D01*
X155355000Y-118983150D01*
X155355000Y-119583150D01*
G36*
X155355000Y-119583150D02*
G01*
X155055000Y-119583150D01*
X155055000Y-118983150D01*
X155355000Y-118983150D01*
X155355000Y-119583150D01*
G37*
%TO.C,D2*%
X168555000Y-119700000D02*
X168255000Y-119700000D01*
X168255000Y-119100000D01*
X168555000Y-119100000D01*
X168555000Y-119700000D01*
G36*
X168555000Y-119700000D02*
G01*
X168255000Y-119700000D01*
X168255000Y-119100000D01*
X168555000Y-119100000D01*
X168555000Y-119700000D01*
G37*
X169255000Y-119700000D02*
X168955000Y-119700000D01*
X168955000Y-119100000D01*
X169255000Y-119100000D01*
X169255000Y-119700000D01*
G36*
X169255000Y-119700000D02*
G01*
X168955000Y-119700000D01*
X168955000Y-119100000D01*
X169255000Y-119100000D01*
X169255000Y-119700000D01*
G37*
%TO.C,D3*%
X175485000Y-119715000D02*
X175185000Y-119715000D01*
X175185000Y-119115000D01*
X175485000Y-119115000D01*
X175485000Y-119715000D01*
G36*
X175485000Y-119715000D02*
G01*
X175185000Y-119715000D01*
X175185000Y-119115000D01*
X175485000Y-119115000D01*
X175485000Y-119715000D01*
G37*
X176185000Y-119715000D02*
X175885000Y-119715000D01*
X175885000Y-119115000D01*
X176185000Y-119115000D01*
X176185000Y-119715000D01*
G36*
X176185000Y-119715000D02*
G01*
X175885000Y-119715000D01*
X175885000Y-119115000D01*
X176185000Y-119115000D01*
X176185000Y-119715000D01*
G37*
%TO.C,D5*%
X156588500Y-53920395D02*
X156288500Y-53920395D01*
X156288500Y-53320395D01*
X156588500Y-53320395D01*
X156588500Y-53920395D01*
G36*
X156588500Y-53920395D02*
G01*
X156288500Y-53920395D01*
X156288500Y-53320395D01*
X156588500Y-53320395D01*
X156588500Y-53920395D01*
G37*
X157288500Y-53920395D02*
X156988500Y-53920395D01*
X156988500Y-53320395D01*
X157288500Y-53320395D01*
X157288500Y-53920395D01*
G36*
X157288500Y-53920395D02*
G01*
X156988500Y-53920395D01*
X156988500Y-53320395D01*
X157288500Y-53320395D01*
X157288500Y-53920395D01*
G37*
%TO.C,D6*%
X161620000Y-119658150D02*
X161320000Y-119658150D01*
X161320000Y-119058150D01*
X161620000Y-119058150D01*
X161620000Y-119658150D01*
G36*
X161620000Y-119658150D02*
G01*
X161320000Y-119658150D01*
X161320000Y-119058150D01*
X161620000Y-119058150D01*
X161620000Y-119658150D01*
G37*
X162320000Y-119658150D02*
X162020000Y-119658150D01*
X162020000Y-119058150D01*
X162320000Y-119058150D01*
X162320000Y-119658150D01*
G36*
X162320000Y-119658150D02*
G01*
X162020000Y-119658150D01*
X162020000Y-119058150D01*
X162320000Y-119058150D01*
X162320000Y-119658150D01*
G37*
%TD*%
D12*
%TO.C,C116*%
X156303500Y-57761000D03*
X157263500Y-57761000D03*
%TD*%
D13*
%TO.C,R55*%
X145207000Y-53246299D03*
X145207000Y-54266299D03*
%TD*%
D12*
%TO.C,C151*%
X146058049Y-57761000D03*
X147018049Y-57761000D03*
%TD*%
D14*
%TO.C,C35*%
X146518049Y-56541800D03*
X146518049Y-55170200D03*
D15*
X145502049Y-55856000D03*
X147534049Y-55856000D03*
%TD*%
D13*
%TO.C,R54*%
X147874000Y-53221800D03*
X147874000Y-54241800D03*
%TD*%
D16*
%TO.C,R86*%
X157653000Y-59158000D03*
X156003000Y-59158000D03*
%TD*%
%TO.C,R85*%
X147366000Y-59158000D03*
X145716000Y-59158000D03*
%TD*%
D17*
%TO.C,U39*%
X143240000Y-166063800D03*
X144510000Y-166063800D03*
X145780000Y-166063800D03*
X147050000Y-166063800D03*
X147050000Y-161136200D03*
X145780000Y-161136200D03*
X144510000Y-161136200D03*
X143240000Y-161136200D03*
%TD*%
D18*
%TO.C,R60*%
X144890000Y-109704000D03*
X146540000Y-109704000D03*
%TD*%
D19*
%TO.C,C78*%
X161295000Y-120458150D03*
X162255000Y-120458150D03*
%TD*%
D20*
%TO.C,C107*%
X153830000Y-122183150D03*
X155862000Y-122183150D03*
D21*
X154846000Y-122868950D03*
X154846000Y-121497350D03*
%TD*%
D13*
%TO.C,R23*%
X163275000Y-120468150D03*
X163275000Y-119448150D03*
%TD*%
D16*
%TO.C,R36*%
X157613500Y-60659000D03*
X155963500Y-60659000D03*
%TD*%
D22*
%TO.C,U14*%
X177745000Y-126015000D03*
X176475000Y-126015000D03*
X175205000Y-126015000D03*
X173935000Y-126015000D03*
X173935000Y-130965000D03*
X175205000Y-130965000D03*
X176475000Y-130965000D03*
X177745000Y-130965000D03*
%TD*%
D23*
%TO.C,U19*%
X156805000Y-136848150D03*
X155535000Y-136848150D03*
X154265000Y-136848150D03*
X152995000Y-136848150D03*
X152995000Y-141798150D03*
X154265000Y-141798150D03*
X155535000Y-141798150D03*
X156805000Y-141798150D03*
%TD*%
D24*
%TO.C,R41*%
X161209000Y-72294000D03*
X161209000Y-70644000D03*
%TD*%
D25*
%TO.C,R27*%
X162330000Y-144173150D03*
X161310000Y-144173150D03*
%TD*%
D12*
%TO.C,C141*%
X157490500Y-91289000D03*
X156530500Y-91289000D03*
%TD*%
D26*
%TO.C,C60*%
X170650000Y-150930000D03*
X170650000Y-149380000D03*
%TD*%
D25*
%TO.C,R72*%
X151150000Y-157250000D03*
X150130000Y-157250000D03*
%TD*%
D13*
%TO.C,R4*%
X169385000Y-134535000D03*
X169385000Y-133515000D03*
%TD*%
D25*
%TO.C,R21*%
X176345000Y-144365000D03*
X175325000Y-144365000D03*
%TD*%
D27*
%TO.C,R44*%
X158161000Y-70644000D03*
X158161000Y-72294000D03*
%TD*%
%TO.C,R37*%
X143343549Y-70662501D03*
X143343549Y-72312501D03*
%TD*%
D12*
%TO.C,C176*%
X147245049Y-91307501D03*
X146285049Y-91307501D03*
%TD*%
D26*
%TO.C,C62*%
X159340000Y-157835000D03*
X159340000Y-156285000D03*
%TD*%
D25*
%TO.C,R33*%
X155365000Y-144098150D03*
X154345000Y-144098150D03*
%TD*%
%TO.C,R71*%
X151209100Y-147750001D03*
X150189100Y-147750001D03*
%TD*%
D18*
%TO.C,R59*%
X148001000Y-109704000D03*
X149651000Y-109704000D03*
%TD*%
D28*
%TO.C,U4*%
X144170549Y-74408501D03*
X144170549Y-75678501D03*
X144170549Y-76948501D03*
X144170549Y-78218501D03*
X149120549Y-78218501D03*
X149120549Y-76948501D03*
X149120549Y-75678501D03*
X149120549Y-74408501D03*
%TD*%
D29*
%TO.C,C85*%
X160830000Y-134473150D03*
X160830000Y-133513150D03*
%TD*%
D19*
%TO.C,C50*%
X170321000Y-103125000D03*
X171281000Y-103125000D03*
%TD*%
D30*
%TO.C,TP2*%
X143600000Y-45100000D03*
%TD*%
D31*
%TO.C,R12*%
X164781000Y-109380000D03*
X164781000Y-110400000D03*
%TD*%
%TO.C,R5*%
X168385000Y-133515000D03*
X168385000Y-134535000D03*
%TD*%
D32*
%TO.C,U41*%
X152863801Y-169741200D03*
X152463799Y-169741200D03*
X152063800Y-169741200D03*
X151663801Y-169741200D03*
X151263799Y-169741200D03*
D33*
X151136700Y-170515900D03*
D32*
X151263799Y-171290600D03*
X151663801Y-171290600D03*
X152063800Y-171290600D03*
X152463799Y-171290600D03*
X152863801Y-171290600D03*
D33*
X152990900Y-170515900D03*
%TD*%
D28*
%TO.C,U3*%
X168401000Y-94720000D03*
X168401000Y-95990000D03*
X168401000Y-97260000D03*
X168401000Y-98530000D03*
X173351000Y-98530000D03*
X173351000Y-97260000D03*
X173351000Y-95990000D03*
X173351000Y-94720000D03*
%TD*%
D19*
%TO.C,C88*%
X154330000Y-120383150D03*
X155290000Y-120383150D03*
%TD*%
D29*
%TO.C,C120*%
X150455549Y-81774501D03*
X150455549Y-80814501D03*
%TD*%
D31*
%TO.C,R32*%
X154865000Y-133398150D03*
X154865000Y-134418150D03*
%TD*%
D25*
%TO.C,R3*%
X169275000Y-124025000D03*
X168255000Y-124025000D03*
%TD*%
D34*
%TO.C,C188*%
X143100000Y-143750000D03*
X144650000Y-143750000D03*
%TD*%
D26*
%TO.C,C112*%
X159685000Y-72244000D03*
X159685000Y-70694000D03*
%TD*%
%TO.C,C109*%
X144867549Y-72262501D03*
X144867549Y-70712501D03*
%TD*%
D24*
%TO.C,R78*%
X154478000Y-104496000D03*
X154478000Y-102846000D03*
%TD*%
D35*
%TO.C,U5*%
X167918500Y-86200000D03*
X167918500Y-86850000D03*
X167918500Y-87500000D03*
X167918500Y-88150000D03*
X167918500Y-88800000D03*
X167918500Y-89450000D03*
X167918500Y-90100000D03*
X167918500Y-90750000D03*
X167918500Y-91400000D03*
X167918500Y-92050000D03*
X173643500Y-92050000D03*
X173643500Y-91400000D03*
X173643500Y-90750000D03*
X173643500Y-90100000D03*
X173643500Y-89450000D03*
X173643500Y-88800000D03*
X173643500Y-88150000D03*
X173643500Y-87500000D03*
X173643500Y-86850000D03*
X173643500Y-86200000D03*
%TD*%
D12*
%TO.C,C131*%
X155085000Y-111355000D03*
X154125000Y-111355000D03*
%TD*%
%TO.C,C140*%
X159453500Y-91289000D03*
X158493500Y-91289000D03*
%TD*%
D17*
%TO.C,U40*%
X143240000Y-154913800D03*
X144510000Y-154913800D03*
X145780000Y-154913800D03*
X147050000Y-154913800D03*
X147050000Y-149986200D03*
X145780000Y-149986200D03*
X144510000Y-149986200D03*
X143240000Y-149986200D03*
%TD*%
D24*
%TO.C,R10*%
X173700997Y-54790000D03*
X173700997Y-53140000D03*
%TD*%
D31*
%TO.C,R79*%
X153970000Y-100175000D03*
X153970000Y-101195000D03*
%TD*%
D23*
%TO.C,U2*%
X170705000Y-136965000D03*
X169435000Y-136965000D03*
X168165000Y-136965000D03*
X166895000Y-136965000D03*
X166895000Y-141915000D03*
X168165000Y-141915000D03*
X169435000Y-141915000D03*
X170705000Y-141915000D03*
%TD*%
D13*
%TO.C,R11*%
X170800000Y-116200000D03*
X170800000Y-115180000D03*
%TD*%
D25*
%TO.C,R50*%
X157147000Y-111357000D03*
X156127000Y-111357000D03*
%TD*%
D27*
%TO.C,R63*%
X154859000Y-80106000D03*
X154859000Y-81756000D03*
%TD*%
D22*
%TO.C,U27*%
X158673494Y-63279000D03*
X157403494Y-63279000D03*
X156133494Y-63279000D03*
X154863494Y-63279000D03*
X154863494Y-68229000D03*
X156133494Y-68229000D03*
X157403494Y-68229000D03*
X158673494Y-68229000D03*
%TD*%
D24*
%TO.C,R51*%
X146137549Y-81774501D03*
X146137549Y-80124501D03*
%TD*%
D25*
%TO.C,R66*%
X144220000Y-158450000D03*
X143200000Y-158450000D03*
%TD*%
D27*
%TO.C,R38*%
X153589000Y-70644000D03*
X153589000Y-72294000D03*
%TD*%
D36*
%TO.C,CR6*%
X146198200Y-146550000D03*
X146198200Y-147049999D03*
X146198200Y-147549998D03*
X147900000Y-147549998D03*
X147900000Y-147049999D03*
X147900000Y-146550000D03*
%TD*%
D37*
%TO.C,C168*%
X162987000Y-101195000D03*
X162987000Y-102155000D03*
%TD*%
D20*
%TO.C,C105*%
X160795000Y-122258150D03*
X162827000Y-122258150D03*
D21*
X161811000Y-122943950D03*
X161811000Y-121572350D03*
%TD*%
D27*
%TO.C,R47*%
X149185549Y-80124501D03*
X149185549Y-81774501D03*
%TD*%
D25*
%TO.C,R30*%
X155375000Y-123908150D03*
X154355000Y-123908150D03*
%TD*%
D26*
%TO.C,C110*%
X155113000Y-72244000D03*
X155113000Y-70694000D03*
%TD*%
D12*
%TO.C,C177*%
X145245049Y-91307501D03*
X144285049Y-91307501D03*
%TD*%
D24*
%TO.C,R77*%
X146434549Y-72302501D03*
X146434549Y-70652501D03*
%TD*%
D25*
%TO.C,R6*%
X169265000Y-144215000D03*
X168245000Y-144215000D03*
%TD*%
D29*
%TO.C,C8*%
X167385000Y-134515000D03*
X167385000Y-133555000D03*
%TD*%
D13*
%TO.C,R1*%
X167210000Y-120520000D03*
X167210000Y-119500000D03*
%TD*%
D37*
%TO.C,C122*%
X143343549Y-80814501D03*
X143343549Y-81774501D03*
%TD*%
D32*
%TO.C,U38*%
X144700000Y-171400000D03*
X145100002Y-171400000D03*
X145500001Y-171400000D03*
X145900000Y-171400000D03*
X146300002Y-171400000D03*
D33*
X146427101Y-170625300D03*
D32*
X146300002Y-169850600D03*
X145900000Y-169850600D03*
X145500001Y-169850600D03*
X145100002Y-169850600D03*
X144700000Y-169850600D03*
D33*
X144572901Y-170625300D03*
%TD*%
D13*
%TO.C,R29*%
X156310000Y-120393150D03*
X156310000Y-119373150D03*
%TD*%
D25*
%TO.C,R64*%
X148300549Y-90273801D03*
X147280549Y-90273801D03*
%TD*%
D29*
%TO.C,C75*%
X174585000Y-134525000D03*
X174585000Y-133565000D03*
%TD*%
D38*
%TO.C,R61*%
X145790000Y-103850000D03*
X146810000Y-103850000D03*
%TD*%
D25*
%TO.C,R75*%
X158544000Y-107672000D03*
X157524000Y-107672000D03*
%TD*%
D39*
%TO.C,U10*%
X172890997Y-62415000D03*
X174160997Y-62415000D03*
X175430997Y-62415000D03*
X176700997Y-62415000D03*
X176700997Y-57465000D03*
X175430997Y-57465000D03*
X174160997Y-57465000D03*
X172890997Y-57465000D03*
%TD*%
D24*
%TO.C,R39*%
X150963549Y-72312501D03*
X150963549Y-70662501D03*
%TD*%
D25*
%TO.C,R67*%
X144239100Y-147834100D03*
X143219100Y-147834100D03*
%TD*%
D13*
%TO.C,R19*%
X176585000Y-134555000D03*
X176585000Y-133535000D03*
%TD*%
D25*
%TO.C,R68*%
X144230000Y-157200000D03*
X143210000Y-157200000D03*
%TD*%
D40*
%TO.C,U35*%
X146660000Y-105649998D03*
D41*
X146660000Y-106599999D03*
X146660000Y-107550000D03*
X149280000Y-107550000D03*
X149280000Y-105649998D03*
%TD*%
D29*
%TO.C,C128*%
X160701000Y-81756000D03*
X160701000Y-80796000D03*
%TD*%
D25*
%TO.C,R76*%
X158544000Y-109704000D03*
X157524000Y-109704000D03*
%TD*%
D39*
%TO.C,U11*%
X166770997Y-62465000D03*
X168040997Y-62465000D03*
X169310997Y-62465000D03*
X170580997Y-62465000D03*
X170580997Y-57515000D03*
X169310997Y-57515000D03*
X168040997Y-57515000D03*
X166770997Y-57515000D03*
%TD*%
D34*
%TO.C,C100*%
X149150000Y-125400000D03*
X150700000Y-125400000D03*
%TD*%
D13*
%TO.C,R31*%
X155865000Y-134418150D03*
X155865000Y-133398150D03*
%TD*%
%TO.C,R22*%
X160275000Y-120478150D03*
X160275000Y-119458150D03*
%TD*%
D36*
%TO.C,CR7*%
X153279100Y-157765900D03*
X153279100Y-158265899D03*
X153279100Y-158765898D03*
X154980900Y-158765898D03*
X154980900Y-158265899D03*
X154980900Y-157765900D03*
%TD*%
D24*
%TO.C,R46*%
X157907000Y-81756000D03*
X157907000Y-80106000D03*
%TD*%
%TO.C,R35*%
X156680000Y-72284000D03*
X156680000Y-70634000D03*
%TD*%
D31*
%TO.C,R26*%
X161830000Y-133473150D03*
X161830000Y-134493150D03*
%TD*%
D42*
%TO.C,U12*%
X170781000Y-112617500D03*
D43*
X172051000Y-113125500D03*
X173321000Y-113125500D03*
D44*
X174781500Y-111665000D03*
X174781500Y-110395000D03*
X174781500Y-109125000D03*
X174781500Y-107855000D03*
X174781500Y-106585000D03*
D43*
X173321000Y-105124500D03*
X172051000Y-105124500D03*
X170781000Y-105124500D03*
X169511000Y-105124500D03*
X168241000Y-105124500D03*
D44*
X166780500Y-106585000D03*
X166780500Y-107855000D03*
X166780500Y-109125000D03*
X166780500Y-110395000D03*
X166780500Y-111665000D03*
D43*
X168241000Y-113125500D03*
X169511000Y-113125500D03*
%TD*%
D26*
%TO.C,C61*%
X164150000Y-150905000D03*
X164150000Y-149355000D03*
%TD*%
D31*
%TO.C,R80*%
X161844000Y-101193000D03*
X161844000Y-102213000D03*
%TD*%
D27*
%TO.C,R84*%
X166797000Y-184952000D03*
X166797000Y-186602000D03*
%TD*%
D19*
%TO.C,C1*%
X168230000Y-120500000D03*
X169190000Y-120500000D03*
%TD*%
D31*
%TO.C,R82*%
X163749000Y-98143000D03*
X163749000Y-99163000D03*
%TD*%
D12*
%TO.C,C132*%
X158514000Y-108688000D03*
X157554000Y-108688000D03*
%TD*%
D19*
%TO.C,C170*%
X145790000Y-102650003D03*
X146750000Y-102650003D03*
%TD*%
D30*
%TO.C,TP3*%
X177000000Y-45000000D03*
%TD*%
D15*
%TO.C,C38*%
X157779500Y-55834595D03*
X155747500Y-55834595D03*
D14*
X156763500Y-55148795D03*
X156763500Y-56520395D03*
%TD*%
D12*
%TO.C,C51*%
X169261000Y-103125000D03*
X168301000Y-103125000D03*
%TD*%
D27*
%TO.C,R48*%
X159431000Y-80106000D03*
X159431000Y-81756000D03*
%TD*%
D24*
%TO.C,R81*%
X156002000Y-104497000D03*
X156002000Y-102847000D03*
%TD*%
D39*
%TO.C,U6*%
X169158497Y-82100000D03*
X170428497Y-82100000D03*
X171698497Y-82100000D03*
X172968497Y-82100000D03*
X172968497Y-77150000D03*
X171698497Y-77150000D03*
X170428497Y-77150000D03*
X169158497Y-77150000D03*
%TD*%
D13*
%TO.C,R13*%
X173375000Y-116235000D03*
X173375000Y-115215000D03*
%TD*%
D45*
%TO.C,C153*%
X146510000Y-113006000D03*
X144960000Y-113006000D03*
%TD*%
D39*
%TO.C,U7*%
X172941500Y-70940000D03*
X174211500Y-70940000D03*
X175481500Y-70940000D03*
X176751500Y-70940000D03*
X176751500Y-65990000D03*
X175481500Y-65990000D03*
X174211500Y-65990000D03*
X172941500Y-65990000D03*
%TD*%
D46*
%TO.C,U20*%
X145810000Y-128090000D03*
X146750000Y-128090000D03*
X145810000Y-127250000D03*
X146750000Y-127250000D03*
D47*
X145280000Y-129820000D03*
X145780000Y-129820000D03*
X146280000Y-129820000D03*
X146780000Y-129820000D03*
X147280000Y-129820000D03*
X147280000Y-125520000D03*
X146780000Y-125520000D03*
X146280000Y-125520000D03*
X145780000Y-125520000D03*
X145280000Y-125520000D03*
%TD*%
D17*
%TO.C,U43*%
X150160000Y-154913800D03*
X151430000Y-154913800D03*
X152700000Y-154913800D03*
X153970000Y-154913800D03*
X153970000Y-149986200D03*
X152700000Y-149986200D03*
X151430000Y-149986200D03*
X150160000Y-149986200D03*
%TD*%
D48*
%TO.C,U13*%
X161730000Y-155380000D03*
X161730000Y-155880000D03*
X161730000Y-156380000D03*
X161730000Y-156880000D03*
X161730000Y-157380000D03*
X161730000Y-157880000D03*
X161730000Y-158380000D03*
X161730000Y-158880000D03*
X161730000Y-159380000D03*
X161730000Y-159880000D03*
X161730000Y-160380000D03*
X161730000Y-160880000D03*
X161730000Y-161380000D03*
X161730000Y-161880000D03*
X161730000Y-162380000D03*
X161730000Y-162880000D03*
D49*
X163650000Y-164800000D03*
X164150000Y-164800000D03*
X164650000Y-164800000D03*
X165150000Y-164800000D03*
X165650000Y-164800000D03*
X166150000Y-164800000D03*
X166650000Y-164800000D03*
X167150000Y-164800000D03*
X167650000Y-164800000D03*
X168150000Y-164800000D03*
X168650000Y-164800000D03*
X169150000Y-164800000D03*
X169650000Y-164800000D03*
X170150000Y-164800000D03*
X170650000Y-164800000D03*
X171150000Y-164800000D03*
D48*
X173070000Y-162880000D03*
X173070000Y-162380000D03*
X173070000Y-161880000D03*
X173070000Y-161380000D03*
X173070000Y-160880000D03*
X173070000Y-160380000D03*
X173070000Y-159880000D03*
X173070000Y-159380000D03*
X173070000Y-158880000D03*
X173070000Y-158380000D03*
X173070000Y-157880000D03*
X173070000Y-157380000D03*
X173070000Y-156880000D03*
X173070000Y-156380000D03*
X173070000Y-155880000D03*
X173070000Y-155380000D03*
D49*
X171150000Y-153460000D03*
X170650000Y-153460000D03*
X170150000Y-153460000D03*
X169650000Y-153460000D03*
X169150000Y-153460000D03*
X168650000Y-153460000D03*
X168150000Y-153460000D03*
X167650000Y-153460000D03*
X167150000Y-153460000D03*
X166650000Y-153460000D03*
X166150000Y-153460000D03*
X165650000Y-153460000D03*
X165150000Y-153460000D03*
X164650000Y-153460000D03*
X164150000Y-153460000D03*
X163650000Y-153460000D03*
D50*
X167400000Y-159130000D03*
%TD*%
D31*
%TO.C,R20*%
X175585000Y-133545000D03*
X175585000Y-134565000D03*
%TD*%
D51*
%TO.C,D10*%
X164892000Y-189866500D03*
X164892000Y-188291500D03*
%TD*%
D24*
%TO.C,R45*%
X147661549Y-81774501D03*
X147661549Y-80124501D03*
%TD*%
D34*
%TO.C,C195*%
X150300000Y-143800000D03*
X151850000Y-143800000D03*
%TD*%
D16*
%TO.C,R56*%
X147368049Y-60677501D03*
X145718049Y-60677501D03*
%TD*%
D36*
%TO.C,CR5*%
X146550000Y-157750002D03*
X146550000Y-158250001D03*
X146550000Y-158750000D03*
X148251800Y-158750000D03*
X148251800Y-158250001D03*
X148251800Y-157750002D03*
%TD*%
D25*
%TO.C,R70*%
X151150000Y-158500000D03*
X150130000Y-158500000D03*
%TD*%
D27*
%TO.C,R62*%
X144613549Y-80124501D03*
X144613549Y-81774501D03*
%TD*%
D52*
%TO.C,TP4*%
X155748000Y-187050000D03*
%TD*%
D53*
%TO.C,C167*%
X164511000Y-101309000D03*
X164511000Y-102859000D03*
%TD*%
D13*
%TO.C,R28*%
X153310000Y-120403150D03*
X153310000Y-119383150D03*
%TD*%
D19*
%TO.C,C27*%
X169291000Y-73625000D03*
X170251000Y-73625000D03*
%TD*%
D24*
%TO.C,R9*%
X171700997Y-54790000D03*
X171700997Y-53140000D03*
%TD*%
D37*
%TO.C,C129*%
X153589000Y-80796000D03*
X153589000Y-81756000D03*
%TD*%
D20*
%TO.C,C103*%
X174685000Y-122300800D03*
X176717000Y-122300800D03*
D21*
X175701000Y-122986600D03*
X175701000Y-121615000D03*
%TD*%
D45*
%TO.C,C160*%
X146510000Y-111355000D03*
X144960000Y-111355000D03*
%TD*%
D13*
%TO.C,R42*%
X158161000Y-54220395D03*
X158161000Y-53200395D03*
%TD*%
D54*
%TO.C,U23*%
X156916400Y-114996999D03*
X156916400Y-114347001D03*
X156916400Y-113696999D03*
X156916400Y-113047001D03*
X152573000Y-113047001D03*
X152573000Y-113696999D03*
X152573000Y-114347001D03*
X152573000Y-114996999D03*
%TD*%
D31*
%TO.C,R83*%
X154986000Y-100177000D03*
X154986000Y-101197000D03*
%TD*%
D28*
%TO.C,U8*%
X154416000Y-74390000D03*
X154416000Y-75660000D03*
X154416000Y-76930000D03*
X154416000Y-78200000D03*
X159366000Y-78200000D03*
X159366000Y-76930000D03*
X159366000Y-75660000D03*
X159366000Y-74390000D03*
%TD*%
D17*
%TO.C,U42*%
X150160000Y-166063800D03*
X151430000Y-166063800D03*
X152700000Y-166063800D03*
X153970000Y-166063800D03*
X153970000Y-161136200D03*
X152700000Y-161136200D03*
X151430000Y-161136200D03*
X150160000Y-161136200D03*
%TD*%
D31*
%TO.C,R15*%
X164781000Y-111625000D03*
X164781000Y-112645000D03*
%TD*%
D19*
%TO.C,C186*%
X143120000Y-145250000D03*
X144080000Y-145250000D03*
%TD*%
D40*
%TO.C,U24*%
X155915000Y-109765001D03*
D41*
X155915000Y-108815000D03*
X155915000Y-107864999D03*
X153295000Y-107864999D03*
X153295000Y-109765001D03*
%TD*%
D25*
%TO.C,R34*%
X150010000Y-124075000D03*
X148990000Y-124075000D03*
%TD*%
D22*
%TO.C,U1*%
X170670000Y-126050000D03*
X169400000Y-126050000D03*
X168130000Y-126050000D03*
X166860000Y-126050000D03*
X166860000Y-131000000D03*
X168130000Y-131000000D03*
X169400000Y-131000000D03*
X170670000Y-131000000D03*
%TD*%
D12*
%TO.C,C21*%
X171143500Y-84565200D03*
X170183500Y-84565200D03*
%TD*%
D55*
%TO.C,U37*%
X148398551Y-93911101D03*
X147948552Y-93911101D03*
X147498550Y-93911101D03*
X147048551Y-93911101D03*
X146598549Y-93911101D03*
X146148550Y-93911101D03*
X145698551Y-93911101D03*
X145248549Y-93911101D03*
X145248549Y-96815901D03*
X145698548Y-96815901D03*
X146148550Y-96815901D03*
X146598549Y-96815901D03*
X147048551Y-96815901D03*
X147498550Y-96815901D03*
X147948549Y-96815901D03*
X148398551Y-96815901D03*
D56*
X146823550Y-95363501D03*
%TD*%
D25*
%TO.C,R52*%
X158546000Y-90255300D03*
X157526000Y-90255300D03*
%TD*%
D38*
%TO.C,R53*%
X155496000Y-90255300D03*
X156516000Y-90255300D03*
%TD*%
D19*
%TO.C,C26*%
X171281000Y-73625000D03*
X172241000Y-73625000D03*
%TD*%
D57*
%TO.C,U26*%
X154399500Y-84177000D03*
X154399500Y-85447000D03*
X154399500Y-86717000D03*
X154399500Y-87987000D03*
X159733500Y-87987000D03*
X159733500Y-86717000D03*
X159733500Y-85447000D03*
X159733500Y-84177000D03*
%TD*%
D45*
%TO.C,C52*%
X169056000Y-101625000D03*
X167506000Y-101625000D03*
%TD*%
D12*
%TO.C,C142*%
X155490500Y-91289000D03*
X154530500Y-91289000D03*
%TD*%
D27*
%TO.C,R57*%
X164892000Y-184952000D03*
X164892000Y-186602000D03*
%TD*%
D25*
%TO.C,R69*%
X144189100Y-146584100D03*
X143169100Y-146584100D03*
%TD*%
D13*
%TO.C,R2*%
X170210000Y-120510000D03*
X170210000Y-119490000D03*
%TD*%
D55*
%TO.C,U31*%
X158644002Y-93892600D03*
X158194003Y-93892600D03*
X157744001Y-93892600D03*
X157294002Y-93892600D03*
X156844000Y-93892600D03*
X156394001Y-93892600D03*
X155944002Y-93892600D03*
X155494000Y-93892600D03*
X155494000Y-96797400D03*
X155943999Y-96797400D03*
X156394001Y-96797400D03*
X156844000Y-96797400D03*
X157294002Y-96797400D03*
X157744001Y-96797400D03*
X158194000Y-96797400D03*
X158644002Y-96797400D03*
D56*
X157069001Y-95345000D03*
%TD*%
D58*
%TO.C,U32*%
X145870000Y-119850000D03*
X147140000Y-119850000D03*
X148410000Y-119850000D03*
D59*
X149290000Y-117700000D03*
D58*
X148410000Y-115550000D03*
X147140000Y-115550000D03*
X145870000Y-115550000D03*
D60*
X145390000Y-117700000D03*
%TD*%
D25*
%TO.C,R73*%
X151209100Y-146500001D03*
X150189100Y-146500001D03*
%TD*%
D13*
%TO.C,R25*%
X162830000Y-134493150D03*
X162830000Y-133473150D03*
%TD*%
D19*
%TO.C,C148*%
X145320000Y-123575000D03*
X146280000Y-123575000D03*
%TD*%
D22*
%TO.C,U16*%
X163735000Y-126008150D03*
X162465000Y-126008150D03*
X161195000Y-126008150D03*
X159925000Y-126008150D03*
X159925000Y-130958150D03*
X161195000Y-130958150D03*
X162465000Y-130958150D03*
X163735000Y-130958150D03*
%TD*%
D29*
%TO.C,C95*%
X153865000Y-134398150D03*
X153865000Y-133438150D03*
%TD*%
D34*
%TO.C,C147*%
X145325000Y-122275000D03*
X146875000Y-122275000D03*
%TD*%
D36*
%TO.C,CR8*%
X153150000Y-146500002D03*
X153150000Y-147000001D03*
X153150000Y-147500000D03*
X154851800Y-147500000D03*
X154851800Y-147000001D03*
X154851800Y-146500002D03*
%TD*%
D25*
%TO.C,R18*%
X176345000Y-124065000D03*
X175325000Y-124065000D03*
%TD*%
D34*
%TO.C,C155*%
X148128000Y-113006000D03*
X149678000Y-113006000D03*
%TD*%
D25*
%TO.C,R24*%
X162340000Y-123983150D03*
X161320000Y-123983150D03*
%TD*%
D24*
%TO.C,R58*%
X156383000Y-81756000D03*
X156383000Y-80106000D03*
%TD*%
D13*
%TO.C,R17*%
X177185000Y-120535000D03*
X177185000Y-119515000D03*
%TD*%
D38*
%TO.C,R65*%
X145250549Y-90273801D03*
X146270549Y-90273801D03*
%TD*%
D26*
%TO.C,C63*%
X167650000Y-150905000D03*
X167650000Y-149355000D03*
%TD*%
D61*
%TO.C,D1*%
X175930900Y-101500000D03*
D62*
X173069100Y-101500000D03*
%TD*%
D31*
%TO.C,R49*%
X164935000Y-98107000D03*
X164935000Y-99127000D03*
%TD*%
D12*
%TO.C,C138*%
X149208049Y-91307501D03*
X148248049Y-91307501D03*
%TD*%
D13*
%TO.C,R43*%
X155367000Y-54220395D03*
X155367000Y-53200395D03*
%TD*%
D34*
%TO.C,C166*%
X146015000Y-101250001D03*
X147565000Y-101250001D03*
%TD*%
D22*
%TO.C,U18*%
X156770000Y-125933150D03*
X155500000Y-125933150D03*
X154230000Y-125933150D03*
X152960000Y-125933150D03*
X152960000Y-130883150D03*
X154230000Y-130883150D03*
X155500000Y-130883150D03*
X156770000Y-130883150D03*
%TD*%
D25*
%TO.C,R8*%
X170301000Y-74625000D03*
X169281000Y-74625000D03*
%TD*%
D20*
%TO.C,C101*%
X167730000Y-122300000D03*
X169762000Y-122300000D03*
D21*
X168746000Y-122985800D03*
X168746000Y-121614200D03*
%TD*%
D63*
%TO.C,U22*%
X159939000Y-101750000D03*
D64*
X158988999Y-101750000D03*
X158038998Y-101750000D03*
X158038998Y-104370000D03*
X159939000Y-104370000D03*
%TD*%
D25*
%TO.C,R14*%
X175525000Y-115250000D03*
X174505000Y-115250000D03*
%TD*%
%TO.C,R74*%
X158542000Y-106656000D03*
X157522000Y-106656000D03*
%TD*%
D22*
%TO.C,U33*%
X148428043Y-63297501D03*
X147158043Y-63297501D03*
X145888043Y-63297501D03*
X144618043Y-63297501D03*
X144618043Y-68247501D03*
X145888043Y-68247501D03*
X147158043Y-68247501D03*
X148428043Y-68247501D03*
%TD*%
D23*
%TO.C,U15*%
X177890000Y-136965000D03*
X176620000Y-136965000D03*
X175350000Y-136965000D03*
X174080000Y-136965000D03*
X174080000Y-141915000D03*
X175350000Y-141915000D03*
X176620000Y-141915000D03*
X177890000Y-141915000D03*
%TD*%
D19*
%TO.C,C193*%
X150240000Y-145250000D03*
X151200000Y-145250000D03*
%TD*%
D26*
%TO.C,C111*%
X149439549Y-72262501D03*
X149439549Y-70712501D03*
%TD*%
D34*
%TO.C,C157*%
X148102000Y-111355000D03*
X149652000Y-111355000D03*
%TD*%
D39*
%TO.C,U9*%
X166770997Y-71075000D03*
X168040997Y-71075000D03*
X169310997Y-71075000D03*
X170580997Y-71075000D03*
X170580997Y-66125000D03*
X169310997Y-66125000D03*
X168040997Y-66125000D03*
X166770997Y-66125000D03*
%TD*%
D52*
%TO.C,TP5*%
X161971000Y-115673000D03*
%TD*%
D23*
%TO.C,U17*%
X163770000Y-136923150D03*
X162500000Y-136923150D03*
X161230000Y-136923150D03*
X159960000Y-136923150D03*
X159960000Y-141873150D03*
X161230000Y-141873150D03*
X162500000Y-141873150D03*
X163770000Y-141873150D03*
%TD*%
D13*
%TO.C,R16*%
X174185000Y-120535000D03*
X174185000Y-119515000D03*
%TD*%
D34*
%TO.C,C59*%
X175700000Y-157930000D03*
X177250000Y-157930000D03*
%TD*%
D57*
%TO.C,U21*%
X144154049Y-84195501D03*
X144154049Y-85465501D03*
X144154049Y-86735501D03*
X144154049Y-88005501D03*
X149488049Y-88005501D03*
X149488049Y-86735501D03*
X149488049Y-85465501D03*
X149488049Y-84195501D03*
%TD*%
D25*
%TO.C,R7*%
X172291000Y-74625000D03*
X171271000Y-74625000D03*
%TD*%
D51*
%TO.C,D11*%
X166797000Y-189866500D03*
X166797000Y-188291500D03*
%TD*%
D12*
%TO.C,C124*%
X155085000Y-116647999D03*
X154125000Y-116647999D03*
%TD*%
D27*
%TO.C,R40*%
X147915549Y-70662501D03*
X147915549Y-72312501D03*
%TD*%
D19*
%TO.C,C68*%
X175205000Y-120515000D03*
X176165000Y-120515000D03*
%TD*%
M02*
