M48
; DRILL file {KiCad 9.0.9-9.0.9~ubuntu22.04.1} date 2026-09-02T08:00:32-0400
; FORMAT={-:-/ absolute / metric / decimal}
; #@! TF.CreationDate,2026-09-02T08:00:32-04:00
; #@! TF.GenerationSoftware,Kicad,Pcbnew,9.0.9-9.0.9~ubuntu22.04.1
; #@! TF.FileFunction,Plated,1,10,PTH
FMAT,2
METRIC
; #@! TA.AperFunction,Plated,PTH,ViaDrill
T1C0.300
; #@! TA.AperFunction,Plated,PTH,ComponentDrill
T2C0.300
; #@! TA.AperFunction,Plated,PTH,ComponentDrill
T3C3.200
%
G90
G05
T1
X141.05Y-162.45
X141.4Y-166.7
X141.6Y-137.9
X141.8Y-45.1
X141.8Y-135.85
X141.85Y-163.7
X142.2Y-159.8
X142.2Y-169.0
X142.2Y-172.3
X142.3Y-132.9
X142.709Y-88.76
X142.794Y-78.219
X142.879Y-67.097
X142.921Y-95.861
X143.048Y-64.238
X143.217Y-62.725
X143.24Y-159.4
X143.25Y-167.85
X143.3Y-170.65
X143.344Y-69.583
X143.375Y-117.7
X143.55Y-132.95
X143.683Y-109.831
X143.8Y-111.229
X143.85Y-112.854
X143.9Y-152.0
X143.9Y-169.85
X143.9Y-171.55
X143.936Y-156.399
X143.979Y-90.538
X144.191Y-95.099
X144.45Y-153.2
X144.65Y-136.1
X144.65Y-142.65
X144.657Y-66.335
X144.77Y-147.6
X144.8Y-145.25
X144.925Y-172.75
X144.995Y-89.014
X145.06Y-159.35
X145.2Y-106.575
X145.3Y-131.125
X145.3Y-138.65
X145.461Y-86.736
X145.461Y-92.686
X145.503Y-77.711
X145.6Y-157.25
X145.65Y-173.3
X145.673Y-76.687
X145.75Y-128.075
X145.75Y-153.05
X145.757Y-78.473
X145.775Y-127.275
X145.8Y-133.35
X145.842Y-84.939
X146.181Y-66.589
X146.198Y-145.498
X146.2Y-131.2
X146.223Y-98.147
X146.25Y-124.3
X146.25Y-172.55
X146.28Y-127.67
X146.392Y-78.981
X146.518Y-55.855
X146.55Y-168.5
X146.576Y-83.062
X146.646Y-76.822
X146.773Y-84.823
X146.8Y-128.1
X146.825Y-127.275
X147.05Y-152.75
X147.08Y-156.58
X147.1Y-132.8
X147.154Y-66.281
X147.175Y-123.5
X147.2Y-145.4
X147.25Y-169.3
X147.28Y-131.17
X147.4Y-171.5
X147.535Y-74.282
X147.55Y-167.9
X147.575Y-100.125
X147.65Y-170.65
X147.675Y-102.65
X147.747Y-98.401
X147.789Y-85.585
X147.8Y-104.0
X148.0Y-125.55
X148.001Y-92.782
X148.05Y-161.4
X148.11Y-129.19
X148.128Y-86.736
X148.175Y-134.15
X148.25Y-160.6
X148.4Y-47.1
X148.4Y-121.6
X148.4Y-180.95
X148.467Y-66.081
X148.6Y-152.4
X148.65Y-154.9
X148.7Y-150.0
X148.75Y-137.076
X148.833Y-159.6
X148.95Y-163.6
X149.017Y-97.893
X149.1Y-135.65
X149.2Y-167.55
X149.2Y-177.6
X149.25Y-47.1
X149.313Y-90.538
X149.35Y-116.775
X149.398Y-115.292
X149.5Y-103.1
X149.567Y-73.52
X149.652Y-114.022
X149.694Y-93.84
X149.821Y-62.725
X149.821Y-69.583
X150.0Y-47.1
X150.0Y-123.2
X150.0Y-181.1
X150.05Y-170.55
X150.1Y-169.0
X150.15Y-167.8
X150.16Y-98.892
X150.16Y-159.53
X150.245Y-67.097
X150.3Y-126.6
X150.541Y-111.355
X150.583Y-75.679
X150.596Y-93.446
X150.761Y-78.219
X150.795Y-97.004
X150.795Y-99.417
X150.8Y-181.15
X150.85Y-47.1
X150.922Y-88.495
X150.964Y-69.583
X151.0Y-168.3
X151.007Y-65.319
X151.4Y-153.05
X151.6Y-42.7
X151.6Y-181.0
X151.627Y-47.729
X151.79Y-148.44
X151.85Y-142.55
X151.85Y-163.3
X151.875Y-176.425
X151.95Y-145.0
X152.065Y-84.558
X152.108Y-65.3
X152.15Y-157.25
X152.2Y-146.2
X152.319Y-104.243
X152.35Y-172.9
X152.374Y-47.443
X152.4Y-42.75
X152.4Y-181.05
X152.573Y-93.702
X152.7Y-78.2
X152.75Y-153.2
X152.865Y-135.248
X152.865Y-140.098
X152.93Y-132.483
X152.954Y-88.741
X153.124Y-67.078
X153.15Y-181.65
X153.175Y-47.65
X153.2Y-42.75
X153.25Y-176.25
X153.335Y-94.337
X153.335Y-101.83
X153.462Y-62.706
X153.589Y-69.564
X153.7Y-169.75
X153.7Y-171.3
X153.945Y-135.268
X153.97Y-114.276
X153.97Y-152.73
X153.975Y-47.678
X154.0Y-42.75
X154.0Y-180.85
X154.05Y-162.75
X154.05Y-170.55
X154.097Y-117.578
X154.1Y-177.6
X154.224Y-90.519
X154.224Y-106.783
X154.23Y-128.583
X154.23Y-132.433
X154.351Y-109.704
X154.478Y-102.084
X154.5Y-167.9
X154.775Y-47.725
X154.8Y-173.25
X154.8Y-180.7
X154.825Y-46.6
X154.846Y-122.219
X154.902Y-66.316
X155.24Y-88.995
X155.367Y-117.811
X155.45Y-169.05
X155.45Y-170.65
X155.494Y-93.041
X155.494Y-99.18
X155.55Y-148.15
X155.562Y-159.65
X155.565Y-143.198
X155.6Y-43.0
X155.6Y-172.275
X155.6Y-180.75
X155.621Y-101.197
X155.675Y-128.625
X155.748Y-77.692
X155.918Y-76.668
X156.002Y-78.454
X156.002Y-86.582
X156.129Y-84.939
X156.35Y-181.6
X156.4Y-43.075
X156.426Y-66.57
X156.45Y-143.23
X156.45Y-171.45
X156.5Y-170.475
X156.637Y-78.962
X156.665Y-139.398
X156.763Y-55.833
X156.764Y-108.815
X156.83Y-132.483
X156.891Y-76.803
X156.916Y-112.244
X157.018Y-83.034
X157.018Y-84.804
X157.13Y-135.08
X157.15Y-181.55
X157.175Y-43.05
X157.175Y-172.625
X157.2Y-47.65
X157.399Y-66.262
X157.399Y-98.655
X157.78Y-74.263
X157.95Y-181.65
X158.0Y-43.075
X158.0Y-173.25
X158.034Y-85.566
X158.034Y-86.709
X158.161Y-99.163
X158.288Y-92.805
X158.288Y-97.758
X158.348Y-187.1
X158.712Y-66.062
X158.8Y-46.4
X158.85Y-180.75
X158.9Y-169.125
X159.05Y-100.56
X159.34Y-155.12
X159.525Y-172.475
X159.558Y-90.519
X159.6Y-47.55
X159.6Y-180.8
X159.625Y-46.512
X159.71Y-161.37
X159.75Y-168.975
X159.784Y-97.921
X159.812Y-73.501
X159.83Y-135.323
X159.83Y-140.173
X159.895Y-132.558
X159.9Y-153.525
X159.939Y-93.821
X160.066Y-62.706
X160.066Y-69.564
X160.11Y-118.633
X160.275Y-159.875
X160.29Y-156.93
X160.343Y-159.128
X160.36Y-162.0
X160.37Y-156.15
X160.37Y-160.68
X160.375Y-43.05
X160.4Y-180.75
X160.49Y-67.078
X160.525Y-168.35
X160.574Y-172.95
X160.714Y-96.89
X160.75Y-154.725
X160.828Y-75.66
X160.841Y-93.427
X160.91Y-135.343
X160.955Y-88.36
X161.006Y-78.2
X161.082Y-104.37
X161.175Y-43.05
X161.195Y-128.658
X161.195Y-132.508
X161.2Y-180.7
X161.209Y-69.564
X161.209Y-106.783
X161.209Y-110.999
X161.25Y-167.775
X161.252Y-65.3
X161.3Y-163.88
X161.725Y-154.725
X161.811Y-122.294
X161.971Y-111.101
X161.971Y-115.673
X161.975Y-47.325
X162.0Y-46.3
X162.0Y-180.7
X162.53Y-143.273
X162.775Y-47.475
X162.8Y-46.275
X162.8Y-180.85
X163.175Y-166.35
X163.368Y-102.846
X163.368Y-107.225
X163.41Y-143.41
X163.51Y-118.633
X163.6Y-43.025
X163.6Y-51.075
X163.6Y-173.1
X163.6Y-180.8
X163.63Y-139.473
X163.795Y-132.558
X164.15Y-148.525
X164.175Y-166.475
X164.25Y-156.0
X164.25Y-157.5
X164.25Y-159.0
X164.25Y-160.5
X164.25Y-162.0
X164.275Y-168.975
X164.35Y-181.25
X164.4Y-43.0
X164.4Y-51.05
X164.75Y-108.625
X164.781Y-113.594
X164.845Y-130.708
X164.881Y-106.625
X164.892Y-190.984
X164.981Y-107.825
X165.019Y-183.745
X165.045Y-128.708
X165.075Y-166.75
X165.15Y-152.1
X165.15Y-181.3
X165.16Y-149.37
X165.175Y-47.625
X165.225Y-46.325
X165.225Y-170.125
X165.481Y-58.225
X165.514Y-102.859
X165.582Y-66.825
X165.95Y-168.475
X165.95Y-181.35
X166.0Y-46.35
X166.0Y-47.725
X166.075Y-167.0
X166.25Y-156.0
X166.25Y-157.5
X166.25Y-159.0
X166.25Y-160.5
X166.25Y-162.0
X166.32Y-149.39
X166.381Y-101.625
X166.51Y-167.775
X166.625Y-169.725
X166.65Y-98.525
X166.65Y-151.97
X166.65Y-166.2
X166.67Y-93.448
X166.725Y-90.75
X166.765Y-135.365
X166.765Y-140.215
X166.775Y-42.775
X166.797Y-183.872
X166.797Y-190.984
X166.8Y-180.75
X166.825Y-47.625
X166.83Y-132.6
X166.925Y-99.65
X167.045Y-118.675
X167.082Y-55.925
X167.082Y-64.525
X167.082Y-105.025
X167.381Y-103.125
X167.432Y-113.006
X167.575Y-42.8
X167.65Y-47.7
X167.65Y-148.535
X167.65Y-180.8
X167.675Y-166.275
X167.845Y-135.385
X167.981Y-78.025
X168.031Y-64.475
X168.061Y-55.845
X168.13Y-128.7
X168.13Y-132.55
X168.241Y-115.041
X168.25Y-156.0
X168.25Y-157.5
X168.25Y-159.0
X168.25Y-160.5
X168.25Y-162.0
X168.38Y-109.1
X168.4Y-173.15
X168.4Y-180.8
X168.425Y-47.175
X168.448Y-92.686
X168.45Y-46.35
X168.6Y-152.15
X168.67Y-166.21
X168.746Y-122.336
X169.175Y-47.575
X169.175Y-90.125
X169.181Y-69.225
X169.2Y-88.75
X169.2Y-176.65
X169.2Y-180.7
X169.225Y-46.375
X169.281Y-75.525
X169.464Y-111.609
X169.465Y-143.315
X169.481Y-60.625
X169.5Y-149.39
X169.65Y-152.075
X169.975Y-42.775
X169.981Y-64.125
X170.0Y-47.625
X170.0Y-173.15
X170.0Y-181.2
X170.082Y-72.725
X170.15Y-166.3
X170.25Y-156.0
X170.25Y-157.5
X170.25Y-159.0
X170.25Y-160.5
X170.25Y-162.0
X170.36Y-143.42
X170.381Y-75.725
X170.445Y-118.675
X170.48Y-167.73
X170.565Y-139.515
X170.675Y-148.535
X170.73Y-132.6
X170.775Y-42.775
X170.781Y-64.125
X170.8Y-117.05
X170.8Y-181.2
X170.85Y-50.925
X170.85Y-99.85
X170.885Y-90.935
X170.95Y-93.05
X170.981Y-72.625
X171.45Y-86.325
X171.5Y-101.5
X171.55Y-47.6
X171.575Y-42.725
X171.6Y-181.2
X171.78Y-130.75
X171.781Y-66.725
X171.881Y-56.825
X171.98Y-128.75
X172.004Y-108.688
X172.082Y-106.825
X172.181Y-72.825
X172.582Y-59.225
X172.85Y-139.5
X173.05Y-154.675
X173.281Y-64.425
X173.835Y-132.615
X173.981Y-82.125
X174.1Y-135.35
X174.15Y-116.25
X174.161Y-55.845
X174.181Y-64.425
X174.51Y-155.88
X174.52Y-156.88
X174.62Y-162.88
X174.675Y-161.375
X174.825Y-153.825
X175.0Y-94.75
X175.056Y-86.85
X175.056Y-90.75
X175.135Y-128.665
X175.175Y-87.7
X175.179Y-173.077
X175.18Y-89.45
X175.235Y-132.565
X175.275Y-135.4
X175.281Y-69.125
X175.375Y-98.525
X175.375Y-159.475
X175.381Y-91.625
X175.625Y-152.425
X175.625Y-162.0
X175.681Y-60.525
X175.685Y-122.29
X175.781Y-72.525
X175.96Y-90.1
X176.0Y-99.5
X176.181Y-63.925
X176.275Y-172.475
X176.375Y-85.2
X176.481Y-82.125
X176.635Y-143.465
X176.665Y-106.585
X176.675Y-128.65
X176.781Y-72.525
X177.082Y-63.925
X177.125Y-156.9
X177.185Y-118.665
X177.25Y-158.8
X177.281Y-80.825
X177.5Y-97.325
X177.675Y-170.175
X177.685Y-139.565
X177.685Y-143.465
X177.75Y-132.525
X177.825Y-94.75
X177.825Y-135.225
X177.95Y-85.225
X178.125Y-87.625
X178.4Y-168.925
X178.7Y-45.0
X179.2Y-167.375
T2
X145.824Y-94.964
X145.824Y-95.764
X146.824Y-95.364
X147.824Y-94.964
X147.824Y-95.764
X156.069Y-94.945
X156.069Y-95.745
X157.069Y-95.345
X158.069Y-94.945
X158.069Y-95.745
T3
X145.0Y-37.0
X145.0Y-187.0
X175.0Y-37.0
X175.0Y-187.0
M30
