%TF.GenerationSoftware,KiCad,Pcbnew,9.0.9-9.0.9~ubuntu22.04.1*%
%TF.CreationDate,2026-08-31T08:44:57-04:00*%
%TF.ProjectId,psc_daughter_brd,7073635f-6461-4756-9768-7465725f6272,rev?*%
%TF.SameCoordinates,Original*%
%TF.FileFunction,Paste,Top*%
%TF.FilePolarity,Positive*%
%FSLAX46Y46*%
G04 Gerber Fmt 4.6, Leading zero omitted, Abs format (unit mm)*
G04 Created by KiCad (PCBNEW 9.0.9-9.0.9~ubuntu22.04.1) date 2026-08-31 08:44:57*
%MOMM*%
%LPD*%
G01*
G04 APERTURE LIST*
G04 Aperture macros list*
%AMRoundRect*
0 Rectangle with rounded corners*
0 $1 Rounding radius*
0 $2 $3 $4 $5 $6 $7 $8 $9 X,Y pos of 4 corners*
0 Add a 4 corners polygon primitive as box body*
4,1,4,$2,$3,$4,$5,$6,$7,$8,$9,$2,$3,0*
0 Add four circle primitives for the rounded corners*
1,1,$1+$1,$2,$3*
1,1,$1+$1,$4,$5*
1,1,$1+$1,$6,$7*
1,1,$1+$1,$8,$9*
0 Add four rect primitives between the rounded corners*
20,1,$1+$1,$2,$3,$4,$5,0*
20,1,$1+$1,$4,$5,$6,$7,0*
20,1,$1+$1,$6,$7,$8,$9,0*
20,1,$1+$1,$8,$9,$2,$3,0*%
G04 Aperture macros list end*
%ADD10C,0.100000*%
%ADD11C,0.150000*%
%ADD12C,0.300000*%
%ADD13C,0.400000*%
%ADD14C,0.010000*%
%ADD15C,0.000000*%
%ADD16R,0.558800X1.981200*%
%ADD17RoundRect,0.200000X-0.200000X-0.275000X0.200000X-0.275000X0.200000X0.275000X-0.200000X0.275000X0*%
%ADD18RoundRect,0.140000X-0.140000X-0.170000X0.140000X-0.170000X0.140000X0.170000X-0.140000X0.170000X0*%
%ADD19RoundRect,0.190500X-0.190500X-0.571500X0.190500X-0.571500X0.190500X0.571500X-0.190500X0.571500X0*%
%ADD20RoundRect,0.127000X-0.228600X-0.127000X0.228600X-0.127000X0.228600X0.127000X-0.228600X0.127000X0*%
%ADD21RoundRect,0.135000X0.185000X-0.135000X0.185000X0.135000X-0.185000X0.135000X-0.185000X-0.135000X0*%
%ADD22RoundRect,0.200000X0.200000X0.275000X-0.200000X0.275000X-0.200000X-0.275000X0.200000X-0.275000X0*%
%ADD23R,0.600000X1.970000*%
%ADD24RoundRect,0.150000X-0.150000X0.825000X-0.150000X-0.825000X0.150000X-0.825000X0.150000X0.825000X0*%
%ADD25RoundRect,0.200000X0.275000X-0.200000X0.275000X0.200000X-0.275000X0.200000X-0.275000X-0.200000X0*%
%ADD26RoundRect,0.135000X0.135000X0.185000X-0.135000X0.185000X-0.135000X-0.185000X0.135000X-0.185000X0*%
%ADD27RoundRect,0.140000X0.140000X0.170000X-0.140000X0.170000X-0.140000X-0.170000X0.140000X-0.170000X0*%
%ADD28RoundRect,0.225000X0.250000X-0.225000X0.250000X0.225000X-0.250000X0.225000X-0.250000X-0.225000X0*%
%ADD29RoundRect,0.200000X-0.275000X0.200000X-0.275000X-0.200000X0.275000X-0.200000X0.275000X0.200000X0*%
%ADD30RoundRect,0.150000X-0.825000X-0.150000X0.825000X-0.150000X0.825000X0.150000X-0.825000X0.150000X0*%
%ADD31RoundRect,0.140000X0.170000X-0.140000X0.170000X0.140000X-0.170000X0.140000X-0.170000X-0.140000X0*%
%ADD32RoundRect,0.222222X0.577778X-1.552778X0.577778X1.552778X-0.577778X1.552778X-0.577778X-1.552778X0*%
%ADD33RoundRect,0.135000X-0.185000X0.135000X-0.185000X-0.135000X0.185000X-0.135000X0.185000X0.135000X0*%
%ADD34R,0.203200X0.863600*%
%ADD35R,0.863600X0.203200*%
%ADD36RoundRect,0.225000X-0.225000X-0.250000X0.225000X-0.250000X0.225000X0.250000X-0.225000X0.250000X0*%
%ADD37RoundRect,0.100000X-0.637500X-0.100000X0.637500X-0.100000X0.637500X0.100000X-0.637500X0.100000X0*%
%ADD38R,0.609600X0.228600*%
%ADD39RoundRect,0.140000X-0.170000X0.140000X-0.170000X-0.140000X0.170000X-0.140000X0.170000X0.140000X0*%
%ADD40RoundRect,0.135000X-0.135000X-0.185000X0.135000X-0.185000X0.135000X0.185000X-0.135000X0.185000X0*%
%ADD41RoundRect,0.150000X0.150000X-0.825000X0.150000X0.825000X-0.150000X0.825000X-0.150000X-0.825000X0*%
%ADD42R,1.219200X0.457200*%
%ADD43O,1.219200X0.457200*%
%ADD44R,0.685800X2.717800*%
%ADD45R,0.685800X1.701800*%
%ADD46R,1.701800X0.685800*%
%ADD47RoundRect,0.190500X0.190500X0.571500X-0.190500X0.571500X-0.190500X-0.571500X0.190500X-0.571500X0*%
%ADD48RoundRect,0.127000X0.228600X0.127000X-0.228600X0.127000X-0.228600X-0.127000X0.228600X-0.127000X0*%
%ADD49RoundRect,0.225000X0.225000X0.250000X-0.225000X0.250000X-0.225000X-0.250000X0.225000X-0.250000X0*%
%ADD50RoundRect,0.170000X0.210000X-0.170000X0.210000X0.170000X-0.210000X0.170000X-0.210000X-0.170000X0*%
%ADD51RoundRect,0.075000X0.075000X-0.650000X0.075000X0.650000X-0.075000X0.650000X-0.075000X-0.650000X0*%
%ADD52RoundRect,0.035000X-0.750000X-0.105000X0.750000X-0.105000X0.750000X0.105000X-0.750000X0.105000X0*%
%ADD53RoundRect,0.035000X-0.105000X-0.750000X0.105000X-0.750000X0.105000X0.750000X-0.105000X0.750000X0*%
%ADD54R,8.000000X8.000000*%
%ADD55RoundRect,0.218750X0.256250X-0.218750X0.256250X0.218750X-0.256250X0.218750X-0.256250X-0.218750X0*%
%ADD56RoundRect,0.222222X-1.552778X-0.577778X1.552778X-0.577778X1.552778X0.577778X-1.552778X0.577778X0*%
%ADD57RoundRect,0.225000X-0.250000X0.225000X-0.250000X-0.225000X0.250000X-0.225000X0.250000X0.225000X0*%
%ADD58R,1.524000X0.457200*%
%ADD59R,0.229200X0.804800*%
%ADD60R,3.400001X1.800000*%
%ADD61R,1.549400X0.609600*%
%ADD62R,0.700000X1.500000*%
%ADD63R,1.500000X0.700000*%
%ADD64R,2.500000X0.700000*%
%ADD65R,2.387600X1.498600*%
%ADD66R,1.244600X1.498600*%
%ADD67R,0.457200X1.219200*%
%ADD68O,0.457200X1.219200*%
G04 APERTURE END LIST*
D10*
D11*
X311800000Y-235400000D02*
X419800000Y-235400000D01*
X419800000Y-267400000D01*
X311800000Y-267400000D01*
X311800000Y-235400000D01*
D10*
D11*
X10000000Y-10000000D02*
X421800000Y-10000000D01*
X421800000Y-269400000D01*
X10000000Y-269400000D01*
X10000000Y-10000000D01*
D10*
D11*
X12000000Y-12000000D02*
X419800000Y-12000000D01*
X419800000Y-267400000D01*
X12000000Y-267400000D01*
X12000000Y-12000000D01*
D10*
D11*
X60000000Y-12000000D02*
X60000000Y-10000000D01*
D10*
D11*
X110000000Y-12000000D02*
X110000000Y-10000000D01*
D10*
D11*
X160000000Y-12000000D02*
X160000000Y-10000000D01*
D10*
D11*
X210000000Y-12000000D02*
X210000000Y-10000000D01*
D10*
D11*
X260000000Y-12000000D02*
X260000000Y-10000000D01*
D10*
D11*
X310000000Y-12000000D02*
X310000000Y-10000000D01*
D10*
D11*
X360000000Y-12000000D02*
X360000000Y-10000000D01*
D10*
D11*
X410000000Y-12000000D02*
X410000000Y-10000000D01*
D10*
D11*
X36089160Y-11593604D02*
X35346303Y-11593604D01*
X35717731Y-11593604D02*
X35717731Y-10293604D01*
X35717731Y-10293604D02*
X35593922Y-10479319D01*
X35593922Y-10479319D02*
X35470112Y-10603128D01*
X35470112Y-10603128D02*
X35346303Y-10665033D01*
D10*
D11*
X85346303Y-10417414D02*
X85408207Y-10355509D01*
X85408207Y-10355509D02*
X85532017Y-10293604D01*
X85532017Y-10293604D02*
X85841541Y-10293604D01*
X85841541Y-10293604D02*
X85965350Y-10355509D01*
X85965350Y-10355509D02*
X86027255Y-10417414D01*
X86027255Y-10417414D02*
X86089160Y-10541223D01*
X86089160Y-10541223D02*
X86089160Y-10665033D01*
X86089160Y-10665033D02*
X86027255Y-10850747D01*
X86027255Y-10850747D02*
X85284398Y-11593604D01*
X85284398Y-11593604D02*
X86089160Y-11593604D01*
D10*
D11*
X135284398Y-10293604D02*
X136089160Y-10293604D01*
X136089160Y-10293604D02*
X135655826Y-10788842D01*
X135655826Y-10788842D02*
X135841541Y-10788842D01*
X135841541Y-10788842D02*
X135965350Y-10850747D01*
X135965350Y-10850747D02*
X136027255Y-10912652D01*
X136027255Y-10912652D02*
X136089160Y-11036461D01*
X136089160Y-11036461D02*
X136089160Y-11345985D01*
X136089160Y-11345985D02*
X136027255Y-11469795D01*
X136027255Y-11469795D02*
X135965350Y-11531700D01*
X135965350Y-11531700D02*
X135841541Y-11593604D01*
X135841541Y-11593604D02*
X135470112Y-11593604D01*
X135470112Y-11593604D02*
X135346303Y-11531700D01*
X135346303Y-11531700D02*
X135284398Y-11469795D01*
D10*
D11*
X185965350Y-10726938D02*
X185965350Y-11593604D01*
X185655826Y-10231700D02*
X185346303Y-11160271D01*
X185346303Y-11160271D02*
X186151064Y-11160271D01*
D10*
D11*
X236027255Y-10293604D02*
X235408207Y-10293604D01*
X235408207Y-10293604D02*
X235346303Y-10912652D01*
X235346303Y-10912652D02*
X235408207Y-10850747D01*
X235408207Y-10850747D02*
X235532017Y-10788842D01*
X235532017Y-10788842D02*
X235841541Y-10788842D01*
X235841541Y-10788842D02*
X235965350Y-10850747D01*
X235965350Y-10850747D02*
X236027255Y-10912652D01*
X236027255Y-10912652D02*
X236089160Y-11036461D01*
X236089160Y-11036461D02*
X236089160Y-11345985D01*
X236089160Y-11345985D02*
X236027255Y-11469795D01*
X236027255Y-11469795D02*
X235965350Y-11531700D01*
X235965350Y-11531700D02*
X235841541Y-11593604D01*
X235841541Y-11593604D02*
X235532017Y-11593604D01*
X235532017Y-11593604D02*
X235408207Y-11531700D01*
X235408207Y-11531700D02*
X235346303Y-11469795D01*
D10*
D11*
X285965350Y-10293604D02*
X285717731Y-10293604D01*
X285717731Y-10293604D02*
X285593922Y-10355509D01*
X285593922Y-10355509D02*
X285532017Y-10417414D01*
X285532017Y-10417414D02*
X285408207Y-10603128D01*
X285408207Y-10603128D02*
X285346303Y-10850747D01*
X285346303Y-10850747D02*
X285346303Y-11345985D01*
X285346303Y-11345985D02*
X285408207Y-11469795D01*
X285408207Y-11469795D02*
X285470112Y-11531700D01*
X285470112Y-11531700D02*
X285593922Y-11593604D01*
X285593922Y-11593604D02*
X285841541Y-11593604D01*
X285841541Y-11593604D02*
X285965350Y-11531700D01*
X285965350Y-11531700D02*
X286027255Y-11469795D01*
X286027255Y-11469795D02*
X286089160Y-11345985D01*
X286089160Y-11345985D02*
X286089160Y-11036461D01*
X286089160Y-11036461D02*
X286027255Y-10912652D01*
X286027255Y-10912652D02*
X285965350Y-10850747D01*
X285965350Y-10850747D02*
X285841541Y-10788842D01*
X285841541Y-10788842D02*
X285593922Y-10788842D01*
X285593922Y-10788842D02*
X285470112Y-10850747D01*
X285470112Y-10850747D02*
X285408207Y-10912652D01*
X285408207Y-10912652D02*
X285346303Y-11036461D01*
D10*
D11*
X335284398Y-10293604D02*
X336151064Y-10293604D01*
X336151064Y-10293604D02*
X335593922Y-11593604D01*
D10*
D11*
X385593922Y-10850747D02*
X385470112Y-10788842D01*
X385470112Y-10788842D02*
X385408207Y-10726938D01*
X385408207Y-10726938D02*
X385346303Y-10603128D01*
X385346303Y-10603128D02*
X385346303Y-10541223D01*
X385346303Y-10541223D02*
X385408207Y-10417414D01*
X385408207Y-10417414D02*
X385470112Y-10355509D01*
X385470112Y-10355509D02*
X385593922Y-10293604D01*
X385593922Y-10293604D02*
X385841541Y-10293604D01*
X385841541Y-10293604D02*
X385965350Y-10355509D01*
X385965350Y-10355509D02*
X386027255Y-10417414D01*
X386027255Y-10417414D02*
X386089160Y-10541223D01*
X386089160Y-10541223D02*
X386089160Y-10603128D01*
X386089160Y-10603128D02*
X386027255Y-10726938D01*
X386027255Y-10726938D02*
X385965350Y-10788842D01*
X385965350Y-10788842D02*
X385841541Y-10850747D01*
X385841541Y-10850747D02*
X385593922Y-10850747D01*
X385593922Y-10850747D02*
X385470112Y-10912652D01*
X385470112Y-10912652D02*
X385408207Y-10974557D01*
X385408207Y-10974557D02*
X385346303Y-11098366D01*
X385346303Y-11098366D02*
X385346303Y-11345985D01*
X385346303Y-11345985D02*
X385408207Y-11469795D01*
X385408207Y-11469795D02*
X385470112Y-11531700D01*
X385470112Y-11531700D02*
X385593922Y-11593604D01*
X385593922Y-11593604D02*
X385841541Y-11593604D01*
X385841541Y-11593604D02*
X385965350Y-11531700D01*
X385965350Y-11531700D02*
X386027255Y-11469795D01*
X386027255Y-11469795D02*
X386089160Y-11345985D01*
X386089160Y-11345985D02*
X386089160Y-11098366D01*
X386089160Y-11098366D02*
X386027255Y-10974557D01*
X386027255Y-10974557D02*
X385965350Y-10912652D01*
X385965350Y-10912652D02*
X385841541Y-10850747D01*
D10*
D11*
X60000000Y-267400000D02*
X60000000Y-269400000D01*
D10*
D11*
X110000000Y-267400000D02*
X110000000Y-269400000D01*
D10*
D11*
X160000000Y-267400000D02*
X160000000Y-269400000D01*
D10*
D11*
X210000000Y-267400000D02*
X210000000Y-269400000D01*
D10*
D11*
X260000000Y-267400000D02*
X260000000Y-269400000D01*
D10*
D11*
X310000000Y-267400000D02*
X310000000Y-269400000D01*
D10*
D11*
X360000000Y-267400000D02*
X360000000Y-269400000D01*
D10*
D11*
X410000000Y-267400000D02*
X410000000Y-269400000D01*
D10*
D11*
X36089160Y-268993604D02*
X35346303Y-268993604D01*
X35717731Y-268993604D02*
X35717731Y-267693604D01*
X35717731Y-267693604D02*
X35593922Y-267879319D01*
X35593922Y-267879319D02*
X35470112Y-268003128D01*
X35470112Y-268003128D02*
X35346303Y-268065033D01*
D10*
D11*
X85346303Y-267817414D02*
X85408207Y-267755509D01*
X85408207Y-267755509D02*
X85532017Y-267693604D01*
X85532017Y-267693604D02*
X85841541Y-267693604D01*
X85841541Y-267693604D02*
X85965350Y-267755509D01*
X85965350Y-267755509D02*
X86027255Y-267817414D01*
X86027255Y-267817414D02*
X86089160Y-267941223D01*
X86089160Y-267941223D02*
X86089160Y-268065033D01*
X86089160Y-268065033D02*
X86027255Y-268250747D01*
X86027255Y-268250747D02*
X85284398Y-268993604D01*
X85284398Y-268993604D02*
X86089160Y-268993604D01*
D10*
D11*
X135284398Y-267693604D02*
X136089160Y-267693604D01*
X136089160Y-267693604D02*
X135655826Y-268188842D01*
X135655826Y-268188842D02*
X135841541Y-268188842D01*
X135841541Y-268188842D02*
X135965350Y-268250747D01*
X135965350Y-268250747D02*
X136027255Y-268312652D01*
X136027255Y-268312652D02*
X136089160Y-268436461D01*
X136089160Y-268436461D02*
X136089160Y-268745985D01*
X136089160Y-268745985D02*
X136027255Y-268869795D01*
X136027255Y-268869795D02*
X135965350Y-268931700D01*
X135965350Y-268931700D02*
X135841541Y-268993604D01*
X135841541Y-268993604D02*
X135470112Y-268993604D01*
X135470112Y-268993604D02*
X135346303Y-268931700D01*
X135346303Y-268931700D02*
X135284398Y-268869795D01*
D10*
D11*
X185965350Y-268126938D02*
X185965350Y-268993604D01*
X185655826Y-267631700D02*
X185346303Y-268560271D01*
X185346303Y-268560271D02*
X186151064Y-268560271D01*
D10*
D11*
X236027255Y-267693604D02*
X235408207Y-267693604D01*
X235408207Y-267693604D02*
X235346303Y-268312652D01*
X235346303Y-268312652D02*
X235408207Y-268250747D01*
X235408207Y-268250747D02*
X235532017Y-268188842D01*
X235532017Y-268188842D02*
X235841541Y-268188842D01*
X235841541Y-268188842D02*
X235965350Y-268250747D01*
X235965350Y-268250747D02*
X236027255Y-268312652D01*
X236027255Y-268312652D02*
X236089160Y-268436461D01*
X236089160Y-268436461D02*
X236089160Y-268745985D01*
X236089160Y-268745985D02*
X236027255Y-268869795D01*
X236027255Y-268869795D02*
X235965350Y-268931700D01*
X235965350Y-268931700D02*
X235841541Y-268993604D01*
X235841541Y-268993604D02*
X235532017Y-268993604D01*
X235532017Y-268993604D02*
X235408207Y-268931700D01*
X235408207Y-268931700D02*
X235346303Y-268869795D01*
D10*
D11*
X285965350Y-267693604D02*
X285717731Y-267693604D01*
X285717731Y-267693604D02*
X285593922Y-267755509D01*
X285593922Y-267755509D02*
X285532017Y-267817414D01*
X285532017Y-267817414D02*
X285408207Y-268003128D01*
X285408207Y-268003128D02*
X285346303Y-268250747D01*
X285346303Y-268250747D02*
X285346303Y-268745985D01*
X285346303Y-268745985D02*
X285408207Y-268869795D01*
X285408207Y-268869795D02*
X285470112Y-268931700D01*
X285470112Y-268931700D02*
X285593922Y-268993604D01*
X285593922Y-268993604D02*
X285841541Y-268993604D01*
X285841541Y-268993604D02*
X285965350Y-268931700D01*
X285965350Y-268931700D02*
X286027255Y-268869795D01*
X286027255Y-268869795D02*
X286089160Y-268745985D01*
X286089160Y-268745985D02*
X286089160Y-268436461D01*
X286089160Y-268436461D02*
X286027255Y-268312652D01*
X286027255Y-268312652D02*
X285965350Y-268250747D01*
X285965350Y-268250747D02*
X285841541Y-268188842D01*
X285841541Y-268188842D02*
X285593922Y-268188842D01*
X285593922Y-268188842D02*
X285470112Y-268250747D01*
X285470112Y-268250747D02*
X285408207Y-268312652D01*
X285408207Y-268312652D02*
X285346303Y-268436461D01*
D10*
D11*
X335284398Y-267693604D02*
X336151064Y-267693604D01*
X336151064Y-267693604D02*
X335593922Y-268993604D01*
D10*
D11*
X385593922Y-268250747D02*
X385470112Y-268188842D01*
X385470112Y-268188842D02*
X385408207Y-268126938D01*
X385408207Y-268126938D02*
X385346303Y-268003128D01*
X385346303Y-268003128D02*
X385346303Y-267941223D01*
X385346303Y-267941223D02*
X385408207Y-267817414D01*
X385408207Y-267817414D02*
X385470112Y-267755509D01*
X385470112Y-267755509D02*
X385593922Y-267693604D01*
X385593922Y-267693604D02*
X385841541Y-267693604D01*
X385841541Y-267693604D02*
X385965350Y-267755509D01*
X385965350Y-267755509D02*
X386027255Y-267817414D01*
X386027255Y-267817414D02*
X386089160Y-267941223D01*
X386089160Y-267941223D02*
X386089160Y-268003128D01*
X386089160Y-268003128D02*
X386027255Y-268126938D01*
X386027255Y-268126938D02*
X385965350Y-268188842D01*
X385965350Y-268188842D02*
X385841541Y-268250747D01*
X385841541Y-268250747D02*
X385593922Y-268250747D01*
X385593922Y-268250747D02*
X385470112Y-268312652D01*
X385470112Y-268312652D02*
X385408207Y-268374557D01*
X385408207Y-268374557D02*
X385346303Y-268498366D01*
X385346303Y-268498366D02*
X385346303Y-268745985D01*
X385346303Y-268745985D02*
X385408207Y-268869795D01*
X385408207Y-268869795D02*
X385470112Y-268931700D01*
X385470112Y-268931700D02*
X385593922Y-268993604D01*
X385593922Y-268993604D02*
X385841541Y-268993604D01*
X385841541Y-268993604D02*
X385965350Y-268931700D01*
X385965350Y-268931700D02*
X386027255Y-268869795D01*
X386027255Y-268869795D02*
X386089160Y-268745985D01*
X386089160Y-268745985D02*
X386089160Y-268498366D01*
X386089160Y-268498366D02*
X386027255Y-268374557D01*
X386027255Y-268374557D02*
X385965350Y-268312652D01*
X385965350Y-268312652D02*
X385841541Y-268250747D01*
D10*
D11*
X10000000Y-60000000D02*
X12000000Y-60000000D01*
D10*
D11*
X10000000Y-110000000D02*
X12000000Y-110000000D01*
D10*
D11*
X10000000Y-160000000D02*
X12000000Y-160000000D01*
D10*
D11*
X10000000Y-210000000D02*
X12000000Y-210000000D01*
D10*
D11*
X10000000Y-260000000D02*
X12000000Y-260000000D01*
D10*
D11*
X10690476Y-35222176D02*
X11309523Y-35222176D01*
X10566666Y-35593604D02*
X10999999Y-34293604D01*
X10999999Y-34293604D02*
X11433333Y-35593604D01*
D10*
D11*
X11092857Y-84912652D02*
X11278571Y-84974557D01*
X11278571Y-84974557D02*
X11340476Y-85036461D01*
X11340476Y-85036461D02*
X11402380Y-85160271D01*
X11402380Y-85160271D02*
X11402380Y-85345985D01*
X11402380Y-85345985D02*
X11340476Y-85469795D01*
X11340476Y-85469795D02*
X11278571Y-85531700D01*
X11278571Y-85531700D02*
X11154761Y-85593604D01*
X11154761Y-85593604D02*
X10659523Y-85593604D01*
X10659523Y-85593604D02*
X10659523Y-84293604D01*
X10659523Y-84293604D02*
X11092857Y-84293604D01*
X11092857Y-84293604D02*
X11216666Y-84355509D01*
X11216666Y-84355509D02*
X11278571Y-84417414D01*
X11278571Y-84417414D02*
X11340476Y-84541223D01*
X11340476Y-84541223D02*
X11340476Y-84665033D01*
X11340476Y-84665033D02*
X11278571Y-84788842D01*
X11278571Y-84788842D02*
X11216666Y-84850747D01*
X11216666Y-84850747D02*
X11092857Y-84912652D01*
X11092857Y-84912652D02*
X10659523Y-84912652D01*
D10*
D11*
X11402380Y-135469795D02*
X11340476Y-135531700D01*
X11340476Y-135531700D02*
X11154761Y-135593604D01*
X11154761Y-135593604D02*
X11030952Y-135593604D01*
X11030952Y-135593604D02*
X10845238Y-135531700D01*
X10845238Y-135531700D02*
X10721428Y-135407890D01*
X10721428Y-135407890D02*
X10659523Y-135284080D01*
X10659523Y-135284080D02*
X10597619Y-135036461D01*
X10597619Y-135036461D02*
X10597619Y-134850747D01*
X10597619Y-134850747D02*
X10659523Y-134603128D01*
X10659523Y-134603128D02*
X10721428Y-134479319D01*
X10721428Y-134479319D02*
X10845238Y-134355509D01*
X10845238Y-134355509D02*
X11030952Y-134293604D01*
X11030952Y-134293604D02*
X11154761Y-134293604D01*
X11154761Y-134293604D02*
X11340476Y-134355509D01*
X11340476Y-134355509D02*
X11402380Y-134417414D01*
D10*
D11*
X10659523Y-185593604D02*
X10659523Y-184293604D01*
X10659523Y-184293604D02*
X10969047Y-184293604D01*
X10969047Y-184293604D02*
X11154761Y-184355509D01*
X11154761Y-184355509D02*
X11278571Y-184479319D01*
X11278571Y-184479319D02*
X11340476Y-184603128D01*
X11340476Y-184603128D02*
X11402380Y-184850747D01*
X11402380Y-184850747D02*
X11402380Y-185036461D01*
X11402380Y-185036461D02*
X11340476Y-185284080D01*
X11340476Y-185284080D02*
X11278571Y-185407890D01*
X11278571Y-185407890D02*
X11154761Y-185531700D01*
X11154761Y-185531700D02*
X10969047Y-185593604D01*
X10969047Y-185593604D02*
X10659523Y-185593604D01*
D10*
D11*
X10721428Y-234912652D02*
X11154762Y-234912652D01*
X11340476Y-235593604D02*
X10721428Y-235593604D01*
X10721428Y-235593604D02*
X10721428Y-234293604D01*
X10721428Y-234293604D02*
X11340476Y-234293604D01*
D10*
D11*
X421800000Y-60000000D02*
X419800000Y-60000000D01*
D10*
D11*
X421800000Y-110000000D02*
X419800000Y-110000000D01*
D10*
D11*
X421800000Y-160000000D02*
X419800000Y-160000000D01*
D10*
D11*
X421800000Y-210000000D02*
X419800000Y-210000000D01*
D10*
D11*
X421800000Y-260000000D02*
X419800000Y-260000000D01*
D10*
D11*
X420490476Y-35222176D02*
X421109523Y-35222176D01*
X420366666Y-35593604D02*
X420799999Y-34293604D01*
X420799999Y-34293604D02*
X421233333Y-35593604D01*
D10*
D11*
X420892857Y-84912652D02*
X421078571Y-84974557D01*
X421078571Y-84974557D02*
X421140476Y-85036461D01*
X421140476Y-85036461D02*
X421202380Y-85160271D01*
X421202380Y-85160271D02*
X421202380Y-85345985D01*
X421202380Y-85345985D02*
X421140476Y-85469795D01*
X421140476Y-85469795D02*
X421078571Y-85531700D01*
X421078571Y-85531700D02*
X420954761Y-85593604D01*
X420954761Y-85593604D02*
X420459523Y-85593604D01*
X420459523Y-85593604D02*
X420459523Y-84293604D01*
X420459523Y-84293604D02*
X420892857Y-84293604D01*
X420892857Y-84293604D02*
X421016666Y-84355509D01*
X421016666Y-84355509D02*
X421078571Y-84417414D01*
X421078571Y-84417414D02*
X421140476Y-84541223D01*
X421140476Y-84541223D02*
X421140476Y-84665033D01*
X421140476Y-84665033D02*
X421078571Y-84788842D01*
X421078571Y-84788842D02*
X421016666Y-84850747D01*
X421016666Y-84850747D02*
X420892857Y-84912652D01*
X420892857Y-84912652D02*
X420459523Y-84912652D01*
D10*
D11*
X421202380Y-135469795D02*
X421140476Y-135531700D01*
X421140476Y-135531700D02*
X420954761Y-135593604D01*
X420954761Y-135593604D02*
X420830952Y-135593604D01*
X420830952Y-135593604D02*
X420645238Y-135531700D01*
X420645238Y-135531700D02*
X420521428Y-135407890D01*
X420521428Y-135407890D02*
X420459523Y-135284080D01*
X420459523Y-135284080D02*
X420397619Y-135036461D01*
X420397619Y-135036461D02*
X420397619Y-134850747D01*
X420397619Y-134850747D02*
X420459523Y-134603128D01*
X420459523Y-134603128D02*
X420521428Y-134479319D01*
X420521428Y-134479319D02*
X420645238Y-134355509D01*
X420645238Y-134355509D02*
X420830952Y-134293604D01*
X420830952Y-134293604D02*
X420954761Y-134293604D01*
X420954761Y-134293604D02*
X421140476Y-134355509D01*
X421140476Y-134355509D02*
X421202380Y-134417414D01*
D10*
D11*
X420459523Y-185593604D02*
X420459523Y-184293604D01*
X420459523Y-184293604D02*
X420769047Y-184293604D01*
X420769047Y-184293604D02*
X420954761Y-184355509D01*
X420954761Y-184355509D02*
X421078571Y-184479319D01*
X421078571Y-184479319D02*
X421140476Y-184603128D01*
X421140476Y-184603128D02*
X421202380Y-184850747D01*
X421202380Y-184850747D02*
X421202380Y-185036461D01*
X421202380Y-185036461D02*
X421140476Y-185284080D01*
X421140476Y-185284080D02*
X421078571Y-185407890D01*
X421078571Y-185407890D02*
X420954761Y-185531700D01*
X420954761Y-185531700D02*
X420769047Y-185593604D01*
X420769047Y-185593604D02*
X420459523Y-185593604D01*
D10*
D11*
X420521428Y-234912652D02*
X420954762Y-234912652D01*
X421140476Y-235593604D02*
X420521428Y-235593604D01*
X420521428Y-235593604D02*
X420521428Y-234293604D01*
X420521428Y-234293604D02*
X421140476Y-234293604D01*
D10*
D11*
X335255826Y-263186128D02*
X335255826Y-261686128D01*
X335255826Y-261686128D02*
X335612969Y-261686128D01*
X335612969Y-261686128D02*
X335827255Y-261757557D01*
X335827255Y-261757557D02*
X335970112Y-261900414D01*
X335970112Y-261900414D02*
X336041541Y-262043271D01*
X336041541Y-262043271D02*
X336112969Y-262328985D01*
X336112969Y-262328985D02*
X336112969Y-262543271D01*
X336112969Y-262543271D02*
X336041541Y-262828985D01*
X336041541Y-262828985D02*
X335970112Y-262971842D01*
X335970112Y-262971842D02*
X335827255Y-263114700D01*
X335827255Y-263114700D02*
X335612969Y-263186128D01*
X335612969Y-263186128D02*
X335255826Y-263186128D01*
X337398684Y-263186128D02*
X337398684Y-262400414D01*
X337398684Y-262400414D02*
X337327255Y-262257557D01*
X337327255Y-262257557D02*
X337184398Y-262186128D01*
X337184398Y-262186128D02*
X336898684Y-262186128D01*
X336898684Y-262186128D02*
X336755826Y-262257557D01*
X337398684Y-263114700D02*
X337255826Y-263186128D01*
X337255826Y-263186128D02*
X336898684Y-263186128D01*
X336898684Y-263186128D02*
X336755826Y-263114700D01*
X336755826Y-263114700D02*
X336684398Y-262971842D01*
X336684398Y-262971842D02*
X336684398Y-262828985D01*
X336684398Y-262828985D02*
X336755826Y-262686128D01*
X336755826Y-262686128D02*
X336898684Y-262614700D01*
X336898684Y-262614700D02*
X337255826Y-262614700D01*
X337255826Y-262614700D02*
X337398684Y-262543271D01*
X337898684Y-262186128D02*
X338470112Y-262186128D01*
X338112969Y-261686128D02*
X338112969Y-262971842D01*
X338112969Y-262971842D02*
X338184398Y-263114700D01*
X338184398Y-263114700D02*
X338327255Y-263186128D01*
X338327255Y-263186128D02*
X338470112Y-263186128D01*
X339541541Y-263114700D02*
X339398684Y-263186128D01*
X339398684Y-263186128D02*
X339112970Y-263186128D01*
X339112970Y-263186128D02*
X338970112Y-263114700D01*
X338970112Y-263114700D02*
X338898684Y-262971842D01*
X338898684Y-262971842D02*
X338898684Y-262400414D01*
X338898684Y-262400414D02*
X338970112Y-262257557D01*
X338970112Y-262257557D02*
X339112970Y-262186128D01*
X339112970Y-262186128D02*
X339398684Y-262186128D01*
X339398684Y-262186128D02*
X339541541Y-262257557D01*
X339541541Y-262257557D02*
X339612970Y-262400414D01*
X339612970Y-262400414D02*
X339612970Y-262543271D01*
X339612970Y-262543271D02*
X338898684Y-262686128D01*
X340255826Y-263043271D02*
X340327255Y-263114700D01*
X340327255Y-263114700D02*
X340255826Y-263186128D01*
X340255826Y-263186128D02*
X340184398Y-263114700D01*
X340184398Y-263114700D02*
X340255826Y-263043271D01*
X340255826Y-263043271D02*
X340255826Y-263186128D01*
X340255826Y-262257557D02*
X340327255Y-262328985D01*
X340327255Y-262328985D02*
X340255826Y-262400414D01*
X340255826Y-262400414D02*
X340184398Y-262328985D01*
X340184398Y-262328985D02*
X340255826Y-262257557D01*
X340255826Y-262257557D02*
X340255826Y-262400414D01*
D10*
D11*
X311800000Y-263900000D02*
X419800000Y-263900000D01*
D10*
D11*
X313255826Y-265986128D02*
X313255826Y-264486128D01*
X314112969Y-265986128D02*
X313470112Y-265128985D01*
X314112969Y-264486128D02*
X313255826Y-265343271D01*
X314755826Y-265986128D02*
X314755826Y-264986128D01*
X314755826Y-264486128D02*
X314684398Y-264557557D01*
X314684398Y-264557557D02*
X314755826Y-264628985D01*
X314755826Y-264628985D02*
X314827255Y-264557557D01*
X314827255Y-264557557D02*
X314755826Y-264486128D01*
X314755826Y-264486128D02*
X314755826Y-264628985D01*
X316327255Y-265843271D02*
X316255827Y-265914700D01*
X316255827Y-265914700D02*
X316041541Y-265986128D01*
X316041541Y-265986128D02*
X315898684Y-265986128D01*
X315898684Y-265986128D02*
X315684398Y-265914700D01*
X315684398Y-265914700D02*
X315541541Y-265771842D01*
X315541541Y-265771842D02*
X315470112Y-265628985D01*
X315470112Y-265628985D02*
X315398684Y-265343271D01*
X315398684Y-265343271D02*
X315398684Y-265128985D01*
X315398684Y-265128985D02*
X315470112Y-264843271D01*
X315470112Y-264843271D02*
X315541541Y-264700414D01*
X315541541Y-264700414D02*
X315684398Y-264557557D01*
X315684398Y-264557557D02*
X315898684Y-264486128D01*
X315898684Y-264486128D02*
X316041541Y-264486128D01*
X316041541Y-264486128D02*
X316255827Y-264557557D01*
X316255827Y-264557557D02*
X316327255Y-264628985D01*
X317612970Y-265986128D02*
X317612970Y-265200414D01*
X317612970Y-265200414D02*
X317541541Y-265057557D01*
X317541541Y-265057557D02*
X317398684Y-264986128D01*
X317398684Y-264986128D02*
X317112970Y-264986128D01*
X317112970Y-264986128D02*
X316970112Y-265057557D01*
X317612970Y-265914700D02*
X317470112Y-265986128D01*
X317470112Y-265986128D02*
X317112970Y-265986128D01*
X317112970Y-265986128D02*
X316970112Y-265914700D01*
X316970112Y-265914700D02*
X316898684Y-265771842D01*
X316898684Y-265771842D02*
X316898684Y-265628985D01*
X316898684Y-265628985D02*
X316970112Y-265486128D01*
X316970112Y-265486128D02*
X317112970Y-265414700D01*
X317112970Y-265414700D02*
X317470112Y-265414700D01*
X317470112Y-265414700D02*
X317612970Y-265343271D01*
X318970113Y-265986128D02*
X318970113Y-264486128D01*
X318970113Y-265914700D02*
X318827255Y-265986128D01*
X318827255Y-265986128D02*
X318541541Y-265986128D01*
X318541541Y-265986128D02*
X318398684Y-265914700D01*
X318398684Y-265914700D02*
X318327255Y-265843271D01*
X318327255Y-265843271D02*
X318255827Y-265700414D01*
X318255827Y-265700414D02*
X318255827Y-265271842D01*
X318255827Y-265271842D02*
X318327255Y-265128985D01*
X318327255Y-265128985D02*
X318398684Y-265057557D01*
X318398684Y-265057557D02*
X318541541Y-264986128D01*
X318541541Y-264986128D02*
X318827255Y-264986128D01*
X318827255Y-264986128D02*
X318970113Y-265057557D01*
X320827255Y-265200414D02*
X321327255Y-265200414D01*
X321541541Y-265986128D02*
X320827255Y-265986128D01*
X320827255Y-265986128D02*
X320827255Y-264486128D01*
X320827255Y-264486128D02*
X321541541Y-264486128D01*
X322184398Y-265843271D02*
X322255827Y-265914700D01*
X322255827Y-265914700D02*
X322184398Y-265986128D01*
X322184398Y-265986128D02*
X322112970Y-265914700D01*
X322112970Y-265914700D02*
X322184398Y-265843271D01*
X322184398Y-265843271D02*
X322184398Y-265986128D01*
X322898684Y-265986128D02*
X322898684Y-264486128D01*
X322898684Y-264486128D02*
X323255827Y-264486128D01*
X323255827Y-264486128D02*
X323470113Y-264557557D01*
X323470113Y-264557557D02*
X323612970Y-264700414D01*
X323612970Y-264700414D02*
X323684399Y-264843271D01*
X323684399Y-264843271D02*
X323755827Y-265128985D01*
X323755827Y-265128985D02*
X323755827Y-265343271D01*
X323755827Y-265343271D02*
X323684399Y-265628985D01*
X323684399Y-265628985D02*
X323612970Y-265771842D01*
X323612970Y-265771842D02*
X323470113Y-265914700D01*
X323470113Y-265914700D02*
X323255827Y-265986128D01*
X323255827Y-265986128D02*
X322898684Y-265986128D01*
X324398684Y-265843271D02*
X324470113Y-265914700D01*
X324470113Y-265914700D02*
X324398684Y-265986128D01*
X324398684Y-265986128D02*
X324327256Y-265914700D01*
X324327256Y-265914700D02*
X324398684Y-265843271D01*
X324398684Y-265843271D02*
X324398684Y-265986128D01*
X325041542Y-265557557D02*
X325755828Y-265557557D01*
X324898685Y-265986128D02*
X325398685Y-264486128D01*
X325398685Y-264486128D02*
X325898685Y-265986128D01*
X326398684Y-265843271D02*
X326470113Y-265914700D01*
X326470113Y-265914700D02*
X326398684Y-265986128D01*
X326398684Y-265986128D02*
X326327256Y-265914700D01*
X326327256Y-265914700D02*
X326398684Y-265843271D01*
X326398684Y-265843271D02*
X326398684Y-265986128D01*
X328327256Y-265986128D02*
X328612970Y-265986128D01*
X328612970Y-265986128D02*
X328755827Y-265914700D01*
X328755827Y-265914700D02*
X328827256Y-265843271D01*
X328827256Y-265843271D02*
X328970113Y-265628985D01*
X328970113Y-265628985D02*
X329041542Y-265343271D01*
X329041542Y-265343271D02*
X329041542Y-264771842D01*
X329041542Y-264771842D02*
X328970113Y-264628985D01*
X328970113Y-264628985D02*
X328898685Y-264557557D01*
X328898685Y-264557557D02*
X328755827Y-264486128D01*
X328755827Y-264486128D02*
X328470113Y-264486128D01*
X328470113Y-264486128D02*
X328327256Y-264557557D01*
X328327256Y-264557557D02*
X328255827Y-264628985D01*
X328255827Y-264628985D02*
X328184399Y-264771842D01*
X328184399Y-264771842D02*
X328184399Y-265128985D01*
X328184399Y-265128985D02*
X328255827Y-265271842D01*
X328255827Y-265271842D02*
X328327256Y-265343271D01*
X328327256Y-265343271D02*
X328470113Y-265414700D01*
X328470113Y-265414700D02*
X328755827Y-265414700D01*
X328755827Y-265414700D02*
X328898685Y-265343271D01*
X328898685Y-265343271D02*
X328970113Y-265271842D01*
X328970113Y-265271842D02*
X329041542Y-265128985D01*
X329684398Y-265843271D02*
X329755827Y-265914700D01*
X329755827Y-265914700D02*
X329684398Y-265986128D01*
X329684398Y-265986128D02*
X329612970Y-265914700D01*
X329612970Y-265914700D02*
X329684398Y-265843271D01*
X329684398Y-265843271D02*
X329684398Y-265986128D01*
X330684399Y-264486128D02*
X330827256Y-264486128D01*
X330827256Y-264486128D02*
X330970113Y-264557557D01*
X330970113Y-264557557D02*
X331041542Y-264628985D01*
X331041542Y-264628985D02*
X331112970Y-264771842D01*
X331112970Y-264771842D02*
X331184399Y-265057557D01*
X331184399Y-265057557D02*
X331184399Y-265414700D01*
X331184399Y-265414700D02*
X331112970Y-265700414D01*
X331112970Y-265700414D02*
X331041542Y-265843271D01*
X331041542Y-265843271D02*
X330970113Y-265914700D01*
X330970113Y-265914700D02*
X330827256Y-265986128D01*
X330827256Y-265986128D02*
X330684399Y-265986128D01*
X330684399Y-265986128D02*
X330541542Y-265914700D01*
X330541542Y-265914700D02*
X330470113Y-265843271D01*
X330470113Y-265843271D02*
X330398684Y-265700414D01*
X330398684Y-265700414D02*
X330327256Y-265414700D01*
X330327256Y-265414700D02*
X330327256Y-265057557D01*
X330327256Y-265057557D02*
X330398684Y-264771842D01*
X330398684Y-264771842D02*
X330470113Y-264628985D01*
X330470113Y-264628985D02*
X330541542Y-264557557D01*
X330541542Y-264557557D02*
X330684399Y-264486128D01*
X331827255Y-265843271D02*
X331898684Y-265914700D01*
X331898684Y-265914700D02*
X331827255Y-265986128D01*
X331827255Y-265986128D02*
X331755827Y-265914700D01*
X331755827Y-265914700D02*
X331827255Y-265843271D01*
X331827255Y-265843271D02*
X331827255Y-265986128D01*
X332612970Y-265986128D02*
X332898684Y-265986128D01*
X332898684Y-265986128D02*
X333041541Y-265914700D01*
X333041541Y-265914700D02*
X333112970Y-265843271D01*
X333112970Y-265843271D02*
X333255827Y-265628985D01*
X333255827Y-265628985D02*
X333327256Y-265343271D01*
X333327256Y-265343271D02*
X333327256Y-264771842D01*
X333327256Y-264771842D02*
X333255827Y-264628985D01*
X333255827Y-264628985D02*
X333184399Y-264557557D01*
X333184399Y-264557557D02*
X333041541Y-264486128D01*
X333041541Y-264486128D02*
X332755827Y-264486128D01*
X332755827Y-264486128D02*
X332612970Y-264557557D01*
X332612970Y-264557557D02*
X332541541Y-264628985D01*
X332541541Y-264628985D02*
X332470113Y-264771842D01*
X332470113Y-264771842D02*
X332470113Y-265128985D01*
X332470113Y-265128985D02*
X332541541Y-265271842D01*
X332541541Y-265271842D02*
X332612970Y-265343271D01*
X332612970Y-265343271D02*
X332755827Y-265414700D01*
X332755827Y-265414700D02*
X333041541Y-265414700D01*
X333041541Y-265414700D02*
X333184399Y-265343271D01*
X333184399Y-265343271D02*
X333255827Y-265271842D01*
X333255827Y-265271842D02*
X333327256Y-265128985D01*
D10*
D11*
X311800000Y-260900000D02*
X419800000Y-260900000D01*
D10*
D12*
X399211653Y-263178328D02*
X398711653Y-262464042D01*
X398354510Y-263178328D02*
X398354510Y-261678328D01*
X398354510Y-261678328D02*
X398925939Y-261678328D01*
X398925939Y-261678328D02*
X399068796Y-261749757D01*
X399068796Y-261749757D02*
X399140225Y-261821185D01*
X399140225Y-261821185D02*
X399211653Y-261964042D01*
X399211653Y-261964042D02*
X399211653Y-262178328D01*
X399211653Y-262178328D02*
X399140225Y-262321185D01*
X399140225Y-262321185D02*
X399068796Y-262392614D01*
X399068796Y-262392614D02*
X398925939Y-262464042D01*
X398925939Y-262464042D02*
X398354510Y-262464042D01*
X400425939Y-263106900D02*
X400283082Y-263178328D01*
X400283082Y-263178328D02*
X399997368Y-263178328D01*
X399997368Y-263178328D02*
X399854510Y-263106900D01*
X399854510Y-263106900D02*
X399783082Y-262964042D01*
X399783082Y-262964042D02*
X399783082Y-262392614D01*
X399783082Y-262392614D02*
X399854510Y-262249757D01*
X399854510Y-262249757D02*
X399997368Y-262178328D01*
X399997368Y-262178328D02*
X400283082Y-262178328D01*
X400283082Y-262178328D02*
X400425939Y-262249757D01*
X400425939Y-262249757D02*
X400497368Y-262392614D01*
X400497368Y-262392614D02*
X400497368Y-262535471D01*
X400497368Y-262535471D02*
X399783082Y-262678328D01*
X400997367Y-262178328D02*
X401354510Y-263178328D01*
X401354510Y-263178328D02*
X401711653Y-262178328D01*
X402283081Y-263035471D02*
X402354510Y-263106900D01*
X402354510Y-263106900D02*
X402283081Y-263178328D01*
X402283081Y-263178328D02*
X402211653Y-263106900D01*
X402211653Y-263106900D02*
X402283081Y-263035471D01*
X402283081Y-263035471D02*
X402283081Y-263178328D01*
X402283081Y-262249757D02*
X402354510Y-262321185D01*
X402354510Y-262321185D02*
X402283081Y-262392614D01*
X402283081Y-262392614D02*
X402211653Y-262321185D01*
X402211653Y-262321185D02*
X402283081Y-262249757D01*
X402283081Y-262249757D02*
X402283081Y-262392614D01*
D10*
D11*
X313184398Y-263114700D02*
X313398684Y-263186128D01*
X313398684Y-263186128D02*
X313755826Y-263186128D01*
X313755826Y-263186128D02*
X313898684Y-263114700D01*
X313898684Y-263114700D02*
X313970112Y-263043271D01*
X313970112Y-263043271D02*
X314041541Y-262900414D01*
X314041541Y-262900414D02*
X314041541Y-262757557D01*
X314041541Y-262757557D02*
X313970112Y-262614700D01*
X313970112Y-262614700D02*
X313898684Y-262543271D01*
X313898684Y-262543271D02*
X313755826Y-262471842D01*
X313755826Y-262471842D02*
X313470112Y-262400414D01*
X313470112Y-262400414D02*
X313327255Y-262328985D01*
X313327255Y-262328985D02*
X313255826Y-262257557D01*
X313255826Y-262257557D02*
X313184398Y-262114700D01*
X313184398Y-262114700D02*
X313184398Y-261971842D01*
X313184398Y-261971842D02*
X313255826Y-261828985D01*
X313255826Y-261828985D02*
X313327255Y-261757557D01*
X313327255Y-261757557D02*
X313470112Y-261686128D01*
X313470112Y-261686128D02*
X313827255Y-261686128D01*
X313827255Y-261686128D02*
X314041541Y-261757557D01*
X314684397Y-263186128D02*
X314684397Y-262186128D01*
X314684397Y-261686128D02*
X314612969Y-261757557D01*
X314612969Y-261757557D02*
X314684397Y-261828985D01*
X314684397Y-261828985D02*
X314755826Y-261757557D01*
X314755826Y-261757557D02*
X314684397Y-261686128D01*
X314684397Y-261686128D02*
X314684397Y-261828985D01*
X315255826Y-262186128D02*
X316041541Y-262186128D01*
X316041541Y-262186128D02*
X315255826Y-263186128D01*
X315255826Y-263186128D02*
X316041541Y-263186128D01*
X317184398Y-263114700D02*
X317041541Y-263186128D01*
X317041541Y-263186128D02*
X316755827Y-263186128D01*
X316755827Y-263186128D02*
X316612969Y-263114700D01*
X316612969Y-263114700D02*
X316541541Y-262971842D01*
X316541541Y-262971842D02*
X316541541Y-262400414D01*
X316541541Y-262400414D02*
X316612969Y-262257557D01*
X316612969Y-262257557D02*
X316755827Y-262186128D01*
X316755827Y-262186128D02*
X317041541Y-262186128D01*
X317041541Y-262186128D02*
X317184398Y-262257557D01*
X317184398Y-262257557D02*
X317255827Y-262400414D01*
X317255827Y-262400414D02*
X317255827Y-262543271D01*
X317255827Y-262543271D02*
X316541541Y-262686128D01*
X317898683Y-263043271D02*
X317970112Y-263114700D01*
X317970112Y-263114700D02*
X317898683Y-263186128D01*
X317898683Y-263186128D02*
X317827255Y-263114700D01*
X317827255Y-263114700D02*
X317898683Y-263043271D01*
X317898683Y-263043271D02*
X317898683Y-263186128D01*
X317898683Y-262257557D02*
X317970112Y-262328985D01*
X317970112Y-262328985D02*
X317898683Y-262400414D01*
X317898683Y-262400414D02*
X317827255Y-262328985D01*
X317827255Y-262328985D02*
X317898683Y-262257557D01*
X317898683Y-262257557D02*
X317898683Y-262400414D01*
X320255826Y-262400414D02*
X320470112Y-262471842D01*
X320470112Y-262471842D02*
X320541541Y-262543271D01*
X320541541Y-262543271D02*
X320612969Y-262686128D01*
X320612969Y-262686128D02*
X320612969Y-262900414D01*
X320612969Y-262900414D02*
X320541541Y-263043271D01*
X320541541Y-263043271D02*
X320470112Y-263114700D01*
X320470112Y-263114700D02*
X320327255Y-263186128D01*
X320327255Y-263186128D02*
X319755826Y-263186128D01*
X319755826Y-263186128D02*
X319755826Y-261686128D01*
X319755826Y-261686128D02*
X320255826Y-261686128D01*
X320255826Y-261686128D02*
X320398684Y-261757557D01*
X320398684Y-261757557D02*
X320470112Y-261828985D01*
X320470112Y-261828985D02*
X320541541Y-261971842D01*
X320541541Y-261971842D02*
X320541541Y-262114700D01*
X320541541Y-262114700D02*
X320470112Y-262257557D01*
X320470112Y-262257557D02*
X320398684Y-262328985D01*
X320398684Y-262328985D02*
X320255826Y-262400414D01*
X320255826Y-262400414D02*
X319755826Y-262400414D01*
D10*
D11*
X398255826Y-265986128D02*
X398255826Y-264486128D01*
X399612970Y-265986128D02*
X399612970Y-264486128D01*
X399612970Y-265914700D02*
X399470112Y-265986128D01*
X399470112Y-265986128D02*
X399184398Y-265986128D01*
X399184398Y-265986128D02*
X399041541Y-265914700D01*
X399041541Y-265914700D02*
X398970112Y-265843271D01*
X398970112Y-265843271D02*
X398898684Y-265700414D01*
X398898684Y-265700414D02*
X398898684Y-265271842D01*
X398898684Y-265271842D02*
X398970112Y-265128985D01*
X398970112Y-265128985D02*
X399041541Y-265057557D01*
X399041541Y-265057557D02*
X399184398Y-264986128D01*
X399184398Y-264986128D02*
X399470112Y-264986128D01*
X399470112Y-264986128D02*
X399612970Y-265057557D01*
X400327255Y-265843271D02*
X400398684Y-265914700D01*
X400398684Y-265914700D02*
X400327255Y-265986128D01*
X400327255Y-265986128D02*
X400255827Y-265914700D01*
X400255827Y-265914700D02*
X400327255Y-265843271D01*
X400327255Y-265843271D02*
X400327255Y-265986128D01*
X400327255Y-265057557D02*
X400398684Y-265128985D01*
X400398684Y-265128985D02*
X400327255Y-265200414D01*
X400327255Y-265200414D02*
X400255827Y-265128985D01*
X400255827Y-265128985D02*
X400327255Y-265057557D01*
X400327255Y-265057557D02*
X400327255Y-265200414D01*
X402970113Y-265986128D02*
X402112970Y-265986128D01*
X402541541Y-265986128D02*
X402541541Y-264486128D01*
X402541541Y-264486128D02*
X402398684Y-264700414D01*
X402398684Y-264700414D02*
X402255827Y-264843271D01*
X402255827Y-264843271D02*
X402112970Y-264914700D01*
X404398684Y-265986128D02*
X403541541Y-265986128D01*
X403970112Y-265986128D02*
X403970112Y-264486128D01*
X403970112Y-264486128D02*
X403827255Y-264700414D01*
X403827255Y-264700414D02*
X403684398Y-264843271D01*
X403684398Y-264843271D02*
X403541541Y-264914700D01*
X406112969Y-264414700D02*
X404827255Y-266343271D01*
X407398684Y-265986128D02*
X406541541Y-265986128D01*
X406970112Y-265986128D02*
X406970112Y-264486128D01*
X406970112Y-264486128D02*
X406827255Y-264700414D01*
X406827255Y-264700414D02*
X406684398Y-264843271D01*
X406684398Y-264843271D02*
X406541541Y-264914700D01*
X408255826Y-265128985D02*
X408112969Y-265057557D01*
X408112969Y-265057557D02*
X408041540Y-264986128D01*
X408041540Y-264986128D02*
X407970112Y-264843271D01*
X407970112Y-264843271D02*
X407970112Y-264771842D01*
X407970112Y-264771842D02*
X408041540Y-264628985D01*
X408041540Y-264628985D02*
X408112969Y-264557557D01*
X408112969Y-264557557D02*
X408255826Y-264486128D01*
X408255826Y-264486128D02*
X408541540Y-264486128D01*
X408541540Y-264486128D02*
X408684398Y-264557557D01*
X408684398Y-264557557D02*
X408755826Y-264628985D01*
X408755826Y-264628985D02*
X408827255Y-264771842D01*
X408827255Y-264771842D02*
X408827255Y-264843271D01*
X408827255Y-264843271D02*
X408755826Y-264986128D01*
X408755826Y-264986128D02*
X408684398Y-265057557D01*
X408684398Y-265057557D02*
X408541540Y-265128985D01*
X408541540Y-265128985D02*
X408255826Y-265128985D01*
X408255826Y-265128985D02*
X408112969Y-265200414D01*
X408112969Y-265200414D02*
X408041540Y-265271842D01*
X408041540Y-265271842D02*
X407970112Y-265414700D01*
X407970112Y-265414700D02*
X407970112Y-265700414D01*
X407970112Y-265700414D02*
X408041540Y-265843271D01*
X408041540Y-265843271D02*
X408112969Y-265914700D01*
X408112969Y-265914700D02*
X408255826Y-265986128D01*
X408255826Y-265986128D02*
X408541540Y-265986128D01*
X408541540Y-265986128D02*
X408684398Y-265914700D01*
X408684398Y-265914700D02*
X408755826Y-265843271D01*
X408755826Y-265843271D02*
X408827255Y-265700414D01*
X408827255Y-265700414D02*
X408827255Y-265414700D01*
X408827255Y-265414700D02*
X408755826Y-265271842D01*
X408755826Y-265271842D02*
X408684398Y-265200414D01*
X408684398Y-265200414D02*
X408541540Y-265128985D01*
D10*
D11*
X311800000Y-256900000D02*
X419800000Y-256900000D01*
D10*
D13*
X313491728Y-257604438D02*
X314634585Y-257604438D01*
X313813157Y-259604438D02*
X314063157Y-257604438D01*
X315051252Y-259604438D02*
X315217919Y-258271104D01*
X315301252Y-257604438D02*
X315194109Y-257699676D01*
X315194109Y-257699676D02*
X315277443Y-257794914D01*
X315277443Y-257794914D02*
X315384586Y-257699676D01*
X315384586Y-257699676D02*
X315301252Y-257604438D01*
X315301252Y-257604438D02*
X315277443Y-257794914D01*
X315884586Y-258271104D02*
X316646490Y-258271104D01*
X316253633Y-257604438D02*
X316039348Y-259318723D01*
X316039348Y-259318723D02*
X316110776Y-259509200D01*
X316110776Y-259509200D02*
X316289348Y-259604438D01*
X316289348Y-259604438D02*
X316479824Y-259604438D01*
X317432205Y-259604438D02*
X317253633Y-259509200D01*
X317253633Y-259509200D02*
X317182205Y-259318723D01*
X317182205Y-259318723D02*
X317396490Y-257604438D01*
X318967919Y-259509200D02*
X318765538Y-259604438D01*
X318765538Y-259604438D02*
X318384585Y-259604438D01*
X318384585Y-259604438D02*
X318206014Y-259509200D01*
X318206014Y-259509200D02*
X318134585Y-259318723D01*
X318134585Y-259318723D02*
X318229824Y-258556819D01*
X318229824Y-258556819D02*
X318348871Y-258366342D01*
X318348871Y-258366342D02*
X318551252Y-258271104D01*
X318551252Y-258271104D02*
X318932204Y-258271104D01*
X318932204Y-258271104D02*
X319110776Y-258366342D01*
X319110776Y-258366342D02*
X319182204Y-258556819D01*
X319182204Y-258556819D02*
X319158395Y-258747295D01*
X319158395Y-258747295D02*
X318182204Y-258937771D01*
X319932205Y-259413961D02*
X320015538Y-259509200D01*
X320015538Y-259509200D02*
X319908395Y-259604438D01*
X319908395Y-259604438D02*
X319825062Y-259509200D01*
X319825062Y-259509200D02*
X319932205Y-259413961D01*
X319932205Y-259413961D02*
X319908395Y-259604438D01*
X320063157Y-258366342D02*
X320146490Y-258461580D01*
X320146490Y-258461580D02*
X320039348Y-258556819D01*
X320039348Y-258556819D02*
X319956014Y-258461580D01*
X319956014Y-258461580D02*
X320063157Y-258366342D01*
X320063157Y-258366342D02*
X320039348Y-258556819D01*
D10*
D11*
X313755826Y-255000414D02*
X313255826Y-255000414D01*
X313255826Y-255786128D02*
X313255826Y-254286128D01*
X313255826Y-254286128D02*
X313970112Y-254286128D01*
X314541540Y-255786128D02*
X314541540Y-254786128D01*
X314541540Y-254286128D02*
X314470112Y-254357557D01*
X314470112Y-254357557D02*
X314541540Y-254428985D01*
X314541540Y-254428985D02*
X314612969Y-254357557D01*
X314612969Y-254357557D02*
X314541540Y-254286128D01*
X314541540Y-254286128D02*
X314541540Y-254428985D01*
X315470112Y-255786128D02*
X315327255Y-255714700D01*
X315327255Y-255714700D02*
X315255826Y-255571842D01*
X315255826Y-255571842D02*
X315255826Y-254286128D01*
X316612969Y-255714700D02*
X316470112Y-255786128D01*
X316470112Y-255786128D02*
X316184398Y-255786128D01*
X316184398Y-255786128D02*
X316041540Y-255714700D01*
X316041540Y-255714700D02*
X315970112Y-255571842D01*
X315970112Y-255571842D02*
X315970112Y-255000414D01*
X315970112Y-255000414D02*
X316041540Y-254857557D01*
X316041540Y-254857557D02*
X316184398Y-254786128D01*
X316184398Y-254786128D02*
X316470112Y-254786128D01*
X316470112Y-254786128D02*
X316612969Y-254857557D01*
X316612969Y-254857557D02*
X316684398Y-255000414D01*
X316684398Y-255000414D02*
X316684398Y-255143271D01*
X316684398Y-255143271D02*
X315970112Y-255286128D01*
X317327254Y-255643271D02*
X317398683Y-255714700D01*
X317398683Y-255714700D02*
X317327254Y-255786128D01*
X317327254Y-255786128D02*
X317255826Y-255714700D01*
X317255826Y-255714700D02*
X317327254Y-255643271D01*
X317327254Y-255643271D02*
X317327254Y-255786128D01*
X317327254Y-254857557D02*
X317398683Y-254928985D01*
X317398683Y-254928985D02*
X317327254Y-255000414D01*
X317327254Y-255000414D02*
X317255826Y-254928985D01*
X317255826Y-254928985D02*
X317327254Y-254857557D01*
X317327254Y-254857557D02*
X317327254Y-255000414D01*
X319184397Y-254786128D02*
X319184397Y-256286128D01*
X319184397Y-254857557D02*
X319327255Y-254786128D01*
X319327255Y-254786128D02*
X319612969Y-254786128D01*
X319612969Y-254786128D02*
X319755826Y-254857557D01*
X319755826Y-254857557D02*
X319827255Y-254928985D01*
X319827255Y-254928985D02*
X319898683Y-255071842D01*
X319898683Y-255071842D02*
X319898683Y-255500414D01*
X319898683Y-255500414D02*
X319827255Y-255643271D01*
X319827255Y-255643271D02*
X319755826Y-255714700D01*
X319755826Y-255714700D02*
X319612969Y-255786128D01*
X319612969Y-255786128D02*
X319327255Y-255786128D01*
X319327255Y-255786128D02*
X319184397Y-255714700D01*
X320470112Y-255714700D02*
X320612969Y-255786128D01*
X320612969Y-255786128D02*
X320898683Y-255786128D01*
X320898683Y-255786128D02*
X321041540Y-255714700D01*
X321041540Y-255714700D02*
X321112969Y-255571842D01*
X321112969Y-255571842D02*
X321112969Y-255500414D01*
X321112969Y-255500414D02*
X321041540Y-255357557D01*
X321041540Y-255357557D02*
X320898683Y-255286128D01*
X320898683Y-255286128D02*
X320684398Y-255286128D01*
X320684398Y-255286128D02*
X320541540Y-255214700D01*
X320541540Y-255214700D02*
X320470112Y-255071842D01*
X320470112Y-255071842D02*
X320470112Y-255000414D01*
X320470112Y-255000414D02*
X320541540Y-254857557D01*
X320541540Y-254857557D02*
X320684398Y-254786128D01*
X320684398Y-254786128D02*
X320898683Y-254786128D01*
X320898683Y-254786128D02*
X321041540Y-254857557D01*
X322398684Y-255714700D02*
X322255826Y-255786128D01*
X322255826Y-255786128D02*
X321970112Y-255786128D01*
X321970112Y-255786128D02*
X321827255Y-255714700D01*
X321827255Y-255714700D02*
X321755826Y-255643271D01*
X321755826Y-255643271D02*
X321684398Y-255500414D01*
X321684398Y-255500414D02*
X321684398Y-255071842D01*
X321684398Y-255071842D02*
X321755826Y-254928985D01*
X321755826Y-254928985D02*
X321827255Y-254857557D01*
X321827255Y-254857557D02*
X321970112Y-254786128D01*
X321970112Y-254786128D02*
X322255826Y-254786128D01*
X322255826Y-254786128D02*
X322398684Y-254857557D01*
X322684398Y-255928985D02*
X323827255Y-255928985D01*
X324827255Y-255786128D02*
X324827255Y-254286128D01*
X324827255Y-255714700D02*
X324684397Y-255786128D01*
X324684397Y-255786128D02*
X324398683Y-255786128D01*
X324398683Y-255786128D02*
X324255826Y-255714700D01*
X324255826Y-255714700D02*
X324184397Y-255643271D01*
X324184397Y-255643271D02*
X324112969Y-255500414D01*
X324112969Y-255500414D02*
X324112969Y-255071842D01*
X324112969Y-255071842D02*
X324184397Y-254928985D01*
X324184397Y-254928985D02*
X324255826Y-254857557D01*
X324255826Y-254857557D02*
X324398683Y-254786128D01*
X324398683Y-254786128D02*
X324684397Y-254786128D01*
X324684397Y-254786128D02*
X324827255Y-254857557D01*
X326184398Y-255786128D02*
X326184398Y-255000414D01*
X326184398Y-255000414D02*
X326112969Y-254857557D01*
X326112969Y-254857557D02*
X325970112Y-254786128D01*
X325970112Y-254786128D02*
X325684398Y-254786128D01*
X325684398Y-254786128D02*
X325541540Y-254857557D01*
X326184398Y-255714700D02*
X326041540Y-255786128D01*
X326041540Y-255786128D02*
X325684398Y-255786128D01*
X325684398Y-255786128D02*
X325541540Y-255714700D01*
X325541540Y-255714700D02*
X325470112Y-255571842D01*
X325470112Y-255571842D02*
X325470112Y-255428985D01*
X325470112Y-255428985D02*
X325541540Y-255286128D01*
X325541540Y-255286128D02*
X325684398Y-255214700D01*
X325684398Y-255214700D02*
X326041540Y-255214700D01*
X326041540Y-255214700D02*
X326184398Y-255143271D01*
X327541541Y-254786128D02*
X327541541Y-255786128D01*
X326898683Y-254786128D02*
X326898683Y-255571842D01*
X326898683Y-255571842D02*
X326970112Y-255714700D01*
X326970112Y-255714700D02*
X327112969Y-255786128D01*
X327112969Y-255786128D02*
X327327255Y-255786128D01*
X327327255Y-255786128D02*
X327470112Y-255714700D01*
X327470112Y-255714700D02*
X327541541Y-255643271D01*
X328898684Y-254786128D02*
X328898684Y-256000414D01*
X328898684Y-256000414D02*
X328827255Y-256143271D01*
X328827255Y-256143271D02*
X328755826Y-256214700D01*
X328755826Y-256214700D02*
X328612969Y-256286128D01*
X328612969Y-256286128D02*
X328398684Y-256286128D01*
X328398684Y-256286128D02*
X328255826Y-256214700D01*
X328898684Y-255714700D02*
X328755826Y-255786128D01*
X328755826Y-255786128D02*
X328470112Y-255786128D01*
X328470112Y-255786128D02*
X328327255Y-255714700D01*
X328327255Y-255714700D02*
X328255826Y-255643271D01*
X328255826Y-255643271D02*
X328184398Y-255500414D01*
X328184398Y-255500414D02*
X328184398Y-255071842D01*
X328184398Y-255071842D02*
X328255826Y-254928985D01*
X328255826Y-254928985D02*
X328327255Y-254857557D01*
X328327255Y-254857557D02*
X328470112Y-254786128D01*
X328470112Y-254786128D02*
X328755826Y-254786128D01*
X328755826Y-254786128D02*
X328898684Y-254857557D01*
X329612969Y-255786128D02*
X329612969Y-254286128D01*
X330255827Y-255786128D02*
X330255827Y-255000414D01*
X330255827Y-255000414D02*
X330184398Y-254857557D01*
X330184398Y-254857557D02*
X330041541Y-254786128D01*
X330041541Y-254786128D02*
X329827255Y-254786128D01*
X329827255Y-254786128D02*
X329684398Y-254857557D01*
X329684398Y-254857557D02*
X329612969Y-254928985D01*
X330755827Y-254786128D02*
X331327255Y-254786128D01*
X330970112Y-254286128D02*
X330970112Y-255571842D01*
X330970112Y-255571842D02*
X331041541Y-255714700D01*
X331041541Y-255714700D02*
X331184398Y-255786128D01*
X331184398Y-255786128D02*
X331327255Y-255786128D01*
X332398684Y-255714700D02*
X332255827Y-255786128D01*
X332255827Y-255786128D02*
X331970113Y-255786128D01*
X331970113Y-255786128D02*
X331827255Y-255714700D01*
X331827255Y-255714700D02*
X331755827Y-255571842D01*
X331755827Y-255571842D02*
X331755827Y-255000414D01*
X331755827Y-255000414D02*
X331827255Y-254857557D01*
X331827255Y-254857557D02*
X331970113Y-254786128D01*
X331970113Y-254786128D02*
X332255827Y-254786128D01*
X332255827Y-254786128D02*
X332398684Y-254857557D01*
X332398684Y-254857557D02*
X332470113Y-255000414D01*
X332470113Y-255000414D02*
X332470113Y-255143271D01*
X332470113Y-255143271D02*
X331755827Y-255286128D01*
X333112969Y-255786128D02*
X333112969Y-254786128D01*
X333112969Y-255071842D02*
X333184398Y-254928985D01*
X333184398Y-254928985D02*
X333255827Y-254857557D01*
X333255827Y-254857557D02*
X333398684Y-254786128D01*
X333398684Y-254786128D02*
X333541541Y-254786128D01*
X333684398Y-255928985D02*
X334827255Y-255928985D01*
X335184397Y-255786128D02*
X335184397Y-254286128D01*
X335184397Y-254857557D02*
X335327255Y-254786128D01*
X335327255Y-254786128D02*
X335612969Y-254786128D01*
X335612969Y-254786128D02*
X335755826Y-254857557D01*
X335755826Y-254857557D02*
X335827255Y-254928985D01*
X335827255Y-254928985D02*
X335898683Y-255071842D01*
X335898683Y-255071842D02*
X335898683Y-255500414D01*
X335898683Y-255500414D02*
X335827255Y-255643271D01*
X335827255Y-255643271D02*
X335755826Y-255714700D01*
X335755826Y-255714700D02*
X335612969Y-255786128D01*
X335612969Y-255786128D02*
X335327255Y-255786128D01*
X335327255Y-255786128D02*
X335184397Y-255714700D01*
X336541540Y-255786128D02*
X336541540Y-254786128D01*
X336541540Y-255071842D02*
X336612969Y-254928985D01*
X336612969Y-254928985D02*
X336684398Y-254857557D01*
X336684398Y-254857557D02*
X336827255Y-254786128D01*
X336827255Y-254786128D02*
X336970112Y-254786128D01*
X338112969Y-255786128D02*
X338112969Y-254286128D01*
X338112969Y-255714700D02*
X337970111Y-255786128D01*
X337970111Y-255786128D02*
X337684397Y-255786128D01*
X337684397Y-255786128D02*
X337541540Y-255714700D01*
X337541540Y-255714700D02*
X337470111Y-255643271D01*
X337470111Y-255643271D02*
X337398683Y-255500414D01*
X337398683Y-255500414D02*
X337398683Y-255071842D01*
X337398683Y-255071842D02*
X337470111Y-254928985D01*
X337470111Y-254928985D02*
X337541540Y-254857557D01*
X337541540Y-254857557D02*
X337684397Y-254786128D01*
X337684397Y-254786128D02*
X337970111Y-254786128D01*
X337970111Y-254786128D02*
X338112969Y-254857557D01*
X338827254Y-255643271D02*
X338898683Y-255714700D01*
X338898683Y-255714700D02*
X338827254Y-255786128D01*
X338827254Y-255786128D02*
X338755826Y-255714700D01*
X338755826Y-255714700D02*
X338827254Y-255643271D01*
X338827254Y-255643271D02*
X338827254Y-255786128D01*
X339541540Y-255786128D02*
X339541540Y-254286128D01*
X339684398Y-255214700D02*
X340112969Y-255786128D01*
X340112969Y-254786128D02*
X339541540Y-255357557D01*
X340755826Y-255786128D02*
X340755826Y-254786128D01*
X340755826Y-254286128D02*
X340684398Y-254357557D01*
X340684398Y-254357557D02*
X340755826Y-254428985D01*
X340755826Y-254428985D02*
X340827255Y-254357557D01*
X340827255Y-254357557D02*
X340755826Y-254286128D01*
X340755826Y-254286128D02*
X340755826Y-254428985D01*
X342112970Y-255714700D02*
X341970112Y-255786128D01*
X341970112Y-255786128D02*
X341684398Y-255786128D01*
X341684398Y-255786128D02*
X341541541Y-255714700D01*
X341541541Y-255714700D02*
X341470112Y-255643271D01*
X341470112Y-255643271D02*
X341398684Y-255500414D01*
X341398684Y-255500414D02*
X341398684Y-255071842D01*
X341398684Y-255071842D02*
X341470112Y-254928985D01*
X341470112Y-254928985D02*
X341541541Y-254857557D01*
X341541541Y-254857557D02*
X341684398Y-254786128D01*
X341684398Y-254786128D02*
X341970112Y-254786128D01*
X341970112Y-254786128D02*
X342112970Y-254857557D01*
X343398684Y-255786128D02*
X343398684Y-255000414D01*
X343398684Y-255000414D02*
X343327255Y-254857557D01*
X343327255Y-254857557D02*
X343184398Y-254786128D01*
X343184398Y-254786128D02*
X342898684Y-254786128D01*
X342898684Y-254786128D02*
X342755826Y-254857557D01*
X343398684Y-255714700D02*
X343255826Y-255786128D01*
X343255826Y-255786128D02*
X342898684Y-255786128D01*
X342898684Y-255786128D02*
X342755826Y-255714700D01*
X342755826Y-255714700D02*
X342684398Y-255571842D01*
X342684398Y-255571842D02*
X342684398Y-255428985D01*
X342684398Y-255428985D02*
X342755826Y-255286128D01*
X342755826Y-255286128D02*
X342898684Y-255214700D01*
X342898684Y-255214700D02*
X343255826Y-255214700D01*
X343255826Y-255214700D02*
X343398684Y-255143271D01*
X344755827Y-255786128D02*
X344755827Y-254286128D01*
X344755827Y-255714700D02*
X344612969Y-255786128D01*
X344612969Y-255786128D02*
X344327255Y-255786128D01*
X344327255Y-255786128D02*
X344184398Y-255714700D01*
X344184398Y-255714700D02*
X344112969Y-255643271D01*
X344112969Y-255643271D02*
X344041541Y-255500414D01*
X344041541Y-255500414D02*
X344041541Y-255071842D01*
X344041541Y-255071842D02*
X344112969Y-254928985D01*
X344112969Y-254928985D02*
X344184398Y-254857557D01*
X344184398Y-254857557D02*
X344327255Y-254786128D01*
X344327255Y-254786128D02*
X344612969Y-254786128D01*
X344612969Y-254786128D02*
X344755827Y-254857557D01*
X345112970Y-255928985D02*
X346255827Y-255928985D01*
X346612969Y-254786128D02*
X346612969Y-256286128D01*
X346612969Y-254857557D02*
X346755827Y-254786128D01*
X346755827Y-254786128D02*
X347041541Y-254786128D01*
X347041541Y-254786128D02*
X347184398Y-254857557D01*
X347184398Y-254857557D02*
X347255827Y-254928985D01*
X347255827Y-254928985D02*
X347327255Y-255071842D01*
X347327255Y-255071842D02*
X347327255Y-255500414D01*
X347327255Y-255500414D02*
X347255827Y-255643271D01*
X347255827Y-255643271D02*
X347184398Y-255714700D01*
X347184398Y-255714700D02*
X347041541Y-255786128D01*
X347041541Y-255786128D02*
X346755827Y-255786128D01*
X346755827Y-255786128D02*
X346612969Y-255714700D01*
X348612970Y-255714700D02*
X348470112Y-255786128D01*
X348470112Y-255786128D02*
X348184398Y-255786128D01*
X348184398Y-255786128D02*
X348041541Y-255714700D01*
X348041541Y-255714700D02*
X347970112Y-255643271D01*
X347970112Y-255643271D02*
X347898684Y-255500414D01*
X347898684Y-255500414D02*
X347898684Y-255071842D01*
X347898684Y-255071842D02*
X347970112Y-254928985D01*
X347970112Y-254928985D02*
X348041541Y-254857557D01*
X348041541Y-254857557D02*
X348184398Y-254786128D01*
X348184398Y-254786128D02*
X348470112Y-254786128D01*
X348470112Y-254786128D02*
X348612970Y-254857557D01*
X349255826Y-255786128D02*
X349255826Y-254286128D01*
X349255826Y-254857557D02*
X349398684Y-254786128D01*
X349398684Y-254786128D02*
X349684398Y-254786128D01*
X349684398Y-254786128D02*
X349827255Y-254857557D01*
X349827255Y-254857557D02*
X349898684Y-254928985D01*
X349898684Y-254928985D02*
X349970112Y-255071842D01*
X349970112Y-255071842D02*
X349970112Y-255500414D01*
X349970112Y-255500414D02*
X349898684Y-255643271D01*
X349898684Y-255643271D02*
X349827255Y-255714700D01*
X349827255Y-255714700D02*
X349684398Y-255786128D01*
X349684398Y-255786128D02*
X349398684Y-255786128D01*
X349398684Y-255786128D02*
X349255826Y-255714700D01*
D10*
D11*
X311800000Y-250900000D02*
X419800000Y-250900000D01*
D10*
D11*
X313184398Y-253014700D02*
X313398684Y-253086128D01*
X313398684Y-253086128D02*
X313755826Y-253086128D01*
X313755826Y-253086128D02*
X313898684Y-253014700D01*
X313898684Y-253014700D02*
X313970112Y-252943271D01*
X313970112Y-252943271D02*
X314041541Y-252800414D01*
X314041541Y-252800414D02*
X314041541Y-252657557D01*
X314041541Y-252657557D02*
X313970112Y-252514700D01*
X313970112Y-252514700D02*
X313898684Y-252443271D01*
X313898684Y-252443271D02*
X313755826Y-252371842D01*
X313755826Y-252371842D02*
X313470112Y-252300414D01*
X313470112Y-252300414D02*
X313327255Y-252228985D01*
X313327255Y-252228985D02*
X313255826Y-252157557D01*
X313255826Y-252157557D02*
X313184398Y-252014700D01*
X313184398Y-252014700D02*
X313184398Y-251871842D01*
X313184398Y-251871842D02*
X313255826Y-251728985D01*
X313255826Y-251728985D02*
X313327255Y-251657557D01*
X313327255Y-251657557D02*
X313470112Y-251586128D01*
X313470112Y-251586128D02*
X313827255Y-251586128D01*
X313827255Y-251586128D02*
X314041541Y-251657557D01*
X314684397Y-253086128D02*
X314684397Y-251586128D01*
X315327255Y-253086128D02*
X315327255Y-252300414D01*
X315327255Y-252300414D02*
X315255826Y-252157557D01*
X315255826Y-252157557D02*
X315112969Y-252086128D01*
X315112969Y-252086128D02*
X314898683Y-252086128D01*
X314898683Y-252086128D02*
X314755826Y-252157557D01*
X314755826Y-252157557D02*
X314684397Y-252228985D01*
X316612969Y-253014700D02*
X316470112Y-253086128D01*
X316470112Y-253086128D02*
X316184398Y-253086128D01*
X316184398Y-253086128D02*
X316041540Y-253014700D01*
X316041540Y-253014700D02*
X315970112Y-252871842D01*
X315970112Y-252871842D02*
X315970112Y-252300414D01*
X315970112Y-252300414D02*
X316041540Y-252157557D01*
X316041540Y-252157557D02*
X316184398Y-252086128D01*
X316184398Y-252086128D02*
X316470112Y-252086128D01*
X316470112Y-252086128D02*
X316612969Y-252157557D01*
X316612969Y-252157557D02*
X316684398Y-252300414D01*
X316684398Y-252300414D02*
X316684398Y-252443271D01*
X316684398Y-252443271D02*
X315970112Y-252586128D01*
X317898683Y-253014700D02*
X317755826Y-253086128D01*
X317755826Y-253086128D02*
X317470112Y-253086128D01*
X317470112Y-253086128D02*
X317327254Y-253014700D01*
X317327254Y-253014700D02*
X317255826Y-252871842D01*
X317255826Y-252871842D02*
X317255826Y-252300414D01*
X317255826Y-252300414D02*
X317327254Y-252157557D01*
X317327254Y-252157557D02*
X317470112Y-252086128D01*
X317470112Y-252086128D02*
X317755826Y-252086128D01*
X317755826Y-252086128D02*
X317898683Y-252157557D01*
X317898683Y-252157557D02*
X317970112Y-252300414D01*
X317970112Y-252300414D02*
X317970112Y-252443271D01*
X317970112Y-252443271D02*
X317255826Y-252586128D01*
X318398683Y-252086128D02*
X318970111Y-252086128D01*
X318612968Y-251586128D02*
X318612968Y-252871842D01*
X318612968Y-252871842D02*
X318684397Y-253014700D01*
X318684397Y-253014700D02*
X318827254Y-253086128D01*
X318827254Y-253086128D02*
X318970111Y-253086128D01*
X319470111Y-252943271D02*
X319541540Y-253014700D01*
X319541540Y-253014700D02*
X319470111Y-253086128D01*
X319470111Y-253086128D02*
X319398683Y-253014700D01*
X319398683Y-253014700D02*
X319470111Y-252943271D01*
X319470111Y-252943271D02*
X319470111Y-253086128D01*
X319470111Y-252157557D02*
X319541540Y-252228985D01*
X319541540Y-252228985D02*
X319470111Y-252300414D01*
X319470111Y-252300414D02*
X319398683Y-252228985D01*
X319398683Y-252228985D02*
X319470111Y-252157557D01*
X319470111Y-252157557D02*
X319470111Y-252300414D01*
D10*
D11*
X331800000Y-260900000D02*
X331800000Y-263900000D01*
D10*
D11*
X395800000Y-260900000D02*
X395800000Y-267400000D01*
D14*
%TO.C,D4*%
X146343049Y-55277501D02*
X146043049Y-55277501D01*
X146043049Y-54677501D01*
X146343049Y-54677501D01*
X146343049Y-55277501D01*
G36*
X146343049Y-55277501D02*
G01*
X146043049Y-55277501D01*
X146043049Y-54677501D01*
X146343049Y-54677501D01*
X146343049Y-55277501D01*
G37*
X147043049Y-55277501D02*
X146743049Y-55277501D01*
X146743049Y-54677501D01*
X147043049Y-54677501D01*
X147043049Y-55277501D01*
G36*
X147043049Y-55277501D02*
G01*
X146743049Y-55277501D01*
X146743049Y-54677501D01*
X147043049Y-54677501D01*
X147043049Y-55277501D01*
G37*
D15*
%TO.C,U37*%
G36*
X146723550Y-96163501D02*
G01*
X145223549Y-96163501D01*
X145223549Y-94563501D01*
X146723550Y-94563501D01*
X146723550Y-96163501D01*
G37*
G36*
X148423551Y-96163501D02*
G01*
X146923550Y-96163501D01*
X146923550Y-94563501D01*
X148423551Y-94563501D01*
X148423551Y-96163501D01*
G37*
%TO.C,U31*%
G36*
X156969001Y-96145000D02*
G01*
X155469000Y-96145000D01*
X155469000Y-94545000D01*
X156969001Y-94545000D01*
X156969001Y-96145000D01*
G37*
G36*
X158669002Y-96145000D02*
G01*
X157169001Y-96145000D01*
X157169001Y-94545000D01*
X158669002Y-94545000D01*
X158669002Y-96145000D01*
G37*
D14*
%TO.C,D7*%
X154655000Y-119583150D02*
X154355000Y-119583150D01*
X154355000Y-118983150D01*
X154655000Y-118983150D01*
X154655000Y-119583150D01*
G36*
X154655000Y-119583150D02*
G01*
X154355000Y-119583150D01*
X154355000Y-118983150D01*
X154655000Y-118983150D01*
X154655000Y-119583150D01*
G37*
X155355000Y-119583150D02*
X155055000Y-119583150D01*
X155055000Y-118983150D01*
X155355000Y-118983150D01*
X155355000Y-119583150D01*
G36*
X155355000Y-119583150D02*
G01*
X155055000Y-119583150D01*
X155055000Y-118983150D01*
X155355000Y-118983150D01*
X155355000Y-119583150D01*
G37*
%TO.C,D2*%
X168555000Y-119700000D02*
X168255000Y-119700000D01*
X168255000Y-119100000D01*
X168555000Y-119100000D01*
X168555000Y-119700000D01*
G36*
X168555000Y-119700000D02*
G01*
X168255000Y-119700000D01*
X168255000Y-119100000D01*
X168555000Y-119100000D01*
X168555000Y-119700000D01*
G37*
X169255000Y-119700000D02*
X168955000Y-119700000D01*
X168955000Y-119100000D01*
X169255000Y-119100000D01*
X169255000Y-119700000D01*
G36*
X169255000Y-119700000D02*
G01*
X168955000Y-119700000D01*
X168955000Y-119100000D01*
X169255000Y-119100000D01*
X169255000Y-119700000D01*
G37*
%TO.C,D3*%
X175485000Y-119715000D02*
X175185000Y-119715000D01*
X175185000Y-119115000D01*
X175485000Y-119115000D01*
X175485000Y-119715000D01*
G36*
X175485000Y-119715000D02*
G01*
X175185000Y-119715000D01*
X175185000Y-119115000D01*
X175485000Y-119115000D01*
X175485000Y-119715000D01*
G37*
X176185000Y-119715000D02*
X175885000Y-119715000D01*
X175885000Y-119115000D01*
X176185000Y-119115000D01*
X176185000Y-119715000D01*
G36*
X176185000Y-119715000D02*
G01*
X175885000Y-119715000D01*
X175885000Y-119115000D01*
X176185000Y-119115000D01*
X176185000Y-119715000D01*
G37*
%TO.C,D5*%
X156588500Y-55259000D02*
X156288500Y-55259000D01*
X156288500Y-54659000D01*
X156588500Y-54659000D01*
X156588500Y-55259000D01*
G36*
X156588500Y-55259000D02*
G01*
X156288500Y-55259000D01*
X156288500Y-54659000D01*
X156588500Y-54659000D01*
X156588500Y-55259000D01*
G37*
X157288500Y-55259000D02*
X156988500Y-55259000D01*
X156988500Y-54659000D01*
X157288500Y-54659000D01*
X157288500Y-55259000D01*
G36*
X157288500Y-55259000D02*
G01*
X156988500Y-55259000D01*
X156988500Y-54659000D01*
X157288500Y-54659000D01*
X157288500Y-55259000D01*
G37*
%TO.C,D6*%
X161620000Y-119658150D02*
X161320000Y-119658150D01*
X161320000Y-119058150D01*
X161620000Y-119058150D01*
X161620000Y-119658150D01*
G36*
X161620000Y-119658150D02*
G01*
X161320000Y-119658150D01*
X161320000Y-119058150D01*
X161620000Y-119058150D01*
X161620000Y-119658150D01*
G37*
X162320000Y-119658150D02*
X162020000Y-119658150D01*
X162020000Y-119058150D01*
X162320000Y-119058150D01*
X162320000Y-119658150D01*
G36*
X162320000Y-119658150D02*
G01*
X162020000Y-119658150D01*
X162020000Y-119058150D01*
X162320000Y-119058150D01*
X162320000Y-119658150D01*
G37*
%TD*%
D16*
%TO.C,U39*%
X143240000Y-166063800D03*
X144510000Y-166063800D03*
X145780000Y-166063800D03*
X147050000Y-166063800D03*
X147050000Y-161136200D03*
X145780000Y-161136200D03*
X144510000Y-161136200D03*
X143240000Y-161136200D03*
%TD*%
D17*
%TO.C,R60*%
X144890000Y-109704000D03*
X146540000Y-109704000D03*
%TD*%
D18*
%TO.C,C78*%
X161295000Y-120458150D03*
X162255000Y-120458150D03*
%TD*%
D19*
%TO.C,C107*%
X153830000Y-122183150D03*
X155862000Y-122183150D03*
D20*
X154846000Y-122868950D03*
X154846000Y-121497350D03*
%TD*%
D21*
%TO.C,R23*%
X163275000Y-120468150D03*
X163275000Y-119448150D03*
%TD*%
D22*
%TO.C,R36*%
X157613500Y-60659000D03*
X155963500Y-60659000D03*
%TD*%
D23*
%TO.C,U14*%
X177745000Y-126015000D03*
X176475000Y-126015000D03*
X175205000Y-126015000D03*
X173935000Y-126015000D03*
X173935000Y-130965000D03*
X175205000Y-130965000D03*
X176475000Y-130965000D03*
X177745000Y-130965000D03*
%TD*%
D24*
%TO.C,U19*%
X156805000Y-136848150D03*
X155535000Y-136848150D03*
X154265000Y-136848150D03*
X152995000Y-136848150D03*
X152995000Y-141798150D03*
X154265000Y-141798150D03*
X155535000Y-141798150D03*
X156805000Y-141798150D03*
%TD*%
D25*
%TO.C,R41*%
X161209000Y-72294000D03*
X161209000Y-70644000D03*
%TD*%
D26*
%TO.C,R27*%
X162330000Y-144173150D03*
X161310000Y-144173150D03*
%TD*%
D27*
%TO.C,C141*%
X157490500Y-91289000D03*
X156530500Y-91289000D03*
%TD*%
D28*
%TO.C,C60*%
X170650000Y-150930000D03*
X170650000Y-149380000D03*
%TD*%
D26*
%TO.C,R72*%
X151150000Y-157250000D03*
X150130000Y-157250000D03*
%TD*%
D21*
%TO.C,R4*%
X169385000Y-134535000D03*
X169385000Y-133515000D03*
%TD*%
D26*
%TO.C,R21*%
X176345000Y-144365000D03*
X175325000Y-144365000D03*
%TD*%
D29*
%TO.C,R44*%
X158161000Y-70644000D03*
X158161000Y-72294000D03*
%TD*%
%TO.C,R37*%
X143343549Y-70662501D03*
X143343549Y-72312501D03*
%TD*%
D27*
%TO.C,C176*%
X147245049Y-91307501D03*
X146285049Y-91307501D03*
%TD*%
D28*
%TO.C,C62*%
X159340000Y-157835000D03*
X159340000Y-156285000D03*
%TD*%
D26*
%TO.C,R33*%
X155365000Y-144098150D03*
X154345000Y-144098150D03*
%TD*%
%TO.C,R71*%
X151209100Y-147750001D03*
X150189100Y-147750001D03*
%TD*%
D17*
%TO.C,R59*%
X148001000Y-109704000D03*
X149651000Y-109704000D03*
%TD*%
D30*
%TO.C,U4*%
X144170549Y-74408501D03*
X144170549Y-75678501D03*
X144170549Y-76948501D03*
X144170549Y-78218501D03*
X149120549Y-78218501D03*
X149120549Y-76948501D03*
X149120549Y-75678501D03*
X149120549Y-74408501D03*
%TD*%
D31*
%TO.C,C85*%
X160830000Y-134473150D03*
X160830000Y-133513150D03*
%TD*%
D18*
%TO.C,C50*%
X170321000Y-103125000D03*
X171281000Y-103125000D03*
%TD*%
D32*
%TO.C,TP2*%
X143600000Y-45100000D03*
%TD*%
D33*
%TO.C,R12*%
X164781000Y-109380000D03*
X164781000Y-110400000D03*
%TD*%
%TO.C,R5*%
X168385000Y-133515000D03*
X168385000Y-134535000D03*
%TD*%
D34*
%TO.C,U41*%
X152863801Y-169741200D03*
X152463799Y-169741200D03*
X152063800Y-169741200D03*
X151663801Y-169741200D03*
X151263799Y-169741200D03*
D35*
X151136700Y-170515900D03*
D34*
X151263799Y-171290600D03*
X151663801Y-171290600D03*
X152063800Y-171290600D03*
X152463799Y-171290600D03*
X152863801Y-171290600D03*
D35*
X152990900Y-170515900D03*
%TD*%
D30*
%TO.C,U3*%
X168401000Y-94720000D03*
X168401000Y-95990000D03*
X168401000Y-97260000D03*
X168401000Y-98530000D03*
X173351000Y-98530000D03*
X173351000Y-97260000D03*
X173351000Y-95990000D03*
X173351000Y-94720000D03*
%TD*%
D18*
%TO.C,C88*%
X154330000Y-120383150D03*
X155290000Y-120383150D03*
%TD*%
D31*
%TO.C,C120*%
X150455549Y-81774501D03*
X150455549Y-80814501D03*
%TD*%
D33*
%TO.C,R32*%
X154865000Y-133398150D03*
X154865000Y-134418150D03*
%TD*%
D26*
%TO.C,R3*%
X169275000Y-124025000D03*
X168255000Y-124025000D03*
%TD*%
D36*
%TO.C,C188*%
X143100000Y-143750000D03*
X144650000Y-143750000D03*
%TD*%
D28*
%TO.C,C112*%
X159685000Y-72244000D03*
X159685000Y-70694000D03*
%TD*%
%TO.C,C109*%
X144867549Y-72262501D03*
X144867549Y-70712501D03*
%TD*%
D25*
%TO.C,R78*%
X154478000Y-104496000D03*
X154478000Y-102846000D03*
%TD*%
D37*
%TO.C,U5*%
X167918500Y-86200000D03*
X167918500Y-86850000D03*
X167918500Y-87500000D03*
X167918500Y-88150000D03*
X167918500Y-88800000D03*
X167918500Y-89450000D03*
X167918500Y-90100000D03*
X167918500Y-90750000D03*
X167918500Y-91400000D03*
X167918500Y-92050000D03*
X173643500Y-92050000D03*
X173643500Y-91400000D03*
X173643500Y-90750000D03*
X173643500Y-90100000D03*
X173643500Y-89450000D03*
X173643500Y-88800000D03*
X173643500Y-88150000D03*
X173643500Y-87500000D03*
X173643500Y-86850000D03*
X173643500Y-86200000D03*
%TD*%
D27*
%TO.C,C131*%
X155085000Y-111355000D03*
X154125000Y-111355000D03*
%TD*%
%TO.C,C140*%
X159453500Y-91289000D03*
X158493500Y-91289000D03*
%TD*%
D16*
%TO.C,U40*%
X143240000Y-154913800D03*
X144510000Y-154913800D03*
X145780000Y-154913800D03*
X147050000Y-154913800D03*
X147050000Y-149986200D03*
X145780000Y-149986200D03*
X144510000Y-149986200D03*
X143240000Y-149986200D03*
%TD*%
D25*
%TO.C,R10*%
X173700997Y-54790000D03*
X173700997Y-53140000D03*
%TD*%
D33*
%TO.C,R79*%
X153970000Y-100175000D03*
X153970000Y-101195000D03*
%TD*%
D24*
%TO.C,U2*%
X170705000Y-136965000D03*
X169435000Y-136965000D03*
X168165000Y-136965000D03*
X166895000Y-136965000D03*
X166895000Y-141915000D03*
X168165000Y-141915000D03*
X169435000Y-141915000D03*
X170705000Y-141915000D03*
%TD*%
D21*
%TO.C,R11*%
X170800000Y-116200000D03*
X170800000Y-115180000D03*
%TD*%
D26*
%TO.C,R50*%
X157147000Y-111357000D03*
X156127000Y-111357000D03*
%TD*%
D29*
%TO.C,R63*%
X154859000Y-80106000D03*
X154859000Y-81756000D03*
%TD*%
D23*
%TO.C,U27*%
X158673494Y-63279000D03*
X157403494Y-63279000D03*
X156133494Y-63279000D03*
X154863494Y-63279000D03*
X154863494Y-68229000D03*
X156133494Y-68229000D03*
X157403494Y-68229000D03*
X158673494Y-68229000D03*
%TD*%
D25*
%TO.C,R51*%
X146137549Y-81774501D03*
X146137549Y-80124501D03*
%TD*%
D26*
%TO.C,R66*%
X144220000Y-158450000D03*
X143200000Y-158450000D03*
%TD*%
D29*
%TO.C,R38*%
X153589000Y-70644000D03*
X153589000Y-72294000D03*
%TD*%
D38*
%TO.C,CR6*%
X146198200Y-146550000D03*
X146198200Y-147049999D03*
X146198200Y-147549998D03*
X147900000Y-147549998D03*
X147900000Y-147049999D03*
X147900000Y-146550000D03*
%TD*%
D39*
%TO.C,C168*%
X162987000Y-101195000D03*
X162987000Y-102155000D03*
%TD*%
D19*
%TO.C,C105*%
X160795000Y-122258150D03*
X162827000Y-122258150D03*
D20*
X161811000Y-122943950D03*
X161811000Y-121572350D03*
%TD*%
D29*
%TO.C,R47*%
X149185549Y-80124501D03*
X149185549Y-81774501D03*
%TD*%
D26*
%TO.C,R30*%
X155375000Y-123908150D03*
X154355000Y-123908150D03*
%TD*%
D28*
%TO.C,C110*%
X155113000Y-72244000D03*
X155113000Y-70694000D03*
%TD*%
D27*
%TO.C,C177*%
X145245049Y-91307501D03*
X144285049Y-91307501D03*
%TD*%
D25*
%TO.C,R77*%
X146434549Y-72302501D03*
X146434549Y-70652501D03*
%TD*%
D26*
%TO.C,R6*%
X169265000Y-144215000D03*
X168245000Y-144215000D03*
%TD*%
D31*
%TO.C,C8*%
X167385000Y-134515000D03*
X167385000Y-133555000D03*
%TD*%
D21*
%TO.C,R55*%
X145207000Y-55602000D03*
X145207000Y-54582000D03*
%TD*%
%TO.C,R1*%
X167210000Y-120520000D03*
X167210000Y-119500000D03*
%TD*%
D39*
%TO.C,C122*%
X143343549Y-80814501D03*
X143343549Y-81774501D03*
%TD*%
D34*
%TO.C,U38*%
X144700000Y-171400000D03*
X145100002Y-171400000D03*
X145500001Y-171400000D03*
X145900000Y-171400000D03*
X146300002Y-171400000D03*
D35*
X146427101Y-170625300D03*
D34*
X146300002Y-169850600D03*
X145900000Y-169850600D03*
X145500001Y-169850600D03*
X145100002Y-169850600D03*
X144700000Y-169850600D03*
D35*
X144572901Y-170625300D03*
%TD*%
D21*
%TO.C,R29*%
X156310000Y-120393150D03*
X156310000Y-119373150D03*
%TD*%
D26*
%TO.C,R64*%
X148300549Y-90273801D03*
X147280549Y-90273801D03*
%TD*%
D31*
%TO.C,C75*%
X174585000Y-134525000D03*
X174585000Y-133565000D03*
%TD*%
D40*
%TO.C,R61*%
X145790000Y-103850000D03*
X146810000Y-103850000D03*
%TD*%
D26*
%TO.C,R75*%
X158544000Y-107672000D03*
X157524000Y-107672000D03*
%TD*%
D41*
%TO.C,U10*%
X172890997Y-62415000D03*
X174160997Y-62415000D03*
X175430997Y-62415000D03*
X176700997Y-62415000D03*
X176700997Y-57465000D03*
X175430997Y-57465000D03*
X174160997Y-57465000D03*
X172890997Y-57465000D03*
%TD*%
D25*
%TO.C,R39*%
X150963549Y-72312501D03*
X150963549Y-70662501D03*
%TD*%
D26*
%TO.C,R67*%
X144239100Y-147834100D03*
X143219100Y-147834100D03*
%TD*%
D21*
%TO.C,R19*%
X176585000Y-134555000D03*
X176585000Y-133535000D03*
%TD*%
D26*
%TO.C,R68*%
X144230000Y-157200000D03*
X143210000Y-157200000D03*
%TD*%
D42*
%TO.C,U35*%
X146660000Y-105649998D03*
D43*
X146660000Y-106599999D03*
X146660000Y-107550000D03*
X149280000Y-107550000D03*
X149280000Y-105649998D03*
%TD*%
D31*
%TO.C,C128*%
X160701000Y-81756000D03*
X160701000Y-80796000D03*
%TD*%
D26*
%TO.C,R76*%
X158544000Y-109704000D03*
X157524000Y-109704000D03*
%TD*%
D41*
%TO.C,U11*%
X166770997Y-62465000D03*
X168040997Y-62465000D03*
X169310997Y-62465000D03*
X170580997Y-62465000D03*
X170580997Y-57515000D03*
X169310997Y-57515000D03*
X168040997Y-57515000D03*
X166770997Y-57515000D03*
%TD*%
D36*
%TO.C,C100*%
X149150000Y-125400000D03*
X150700000Y-125400000D03*
%TD*%
D21*
%TO.C,R31*%
X155865000Y-134418150D03*
X155865000Y-133398150D03*
%TD*%
%TO.C,R22*%
X160275000Y-120478150D03*
X160275000Y-119458150D03*
%TD*%
D38*
%TO.C,CR7*%
X153279100Y-157765900D03*
X153279100Y-158265899D03*
X153279100Y-158765898D03*
X154980900Y-158765898D03*
X154980900Y-158265899D03*
X154980900Y-157765900D03*
%TD*%
D25*
%TO.C,R46*%
X157907000Y-81756000D03*
X157907000Y-80106000D03*
%TD*%
D27*
%TO.C,C151*%
X147018049Y-59277501D03*
X146058049Y-59277501D03*
%TD*%
D25*
%TO.C,R35*%
X156680000Y-72284000D03*
X156680000Y-70634000D03*
%TD*%
D33*
%TO.C,R26*%
X161830000Y-133473150D03*
X161830000Y-134493150D03*
%TD*%
D44*
%TO.C,U12*%
X170781000Y-112617500D03*
D45*
X172051000Y-113125500D03*
X173321000Y-113125500D03*
D46*
X174781500Y-111665000D03*
X174781500Y-110395000D03*
X174781500Y-109125000D03*
X174781500Y-107855000D03*
X174781500Y-106585000D03*
D45*
X173321000Y-105124500D03*
X172051000Y-105124500D03*
X170781000Y-105124500D03*
X169511000Y-105124500D03*
X168241000Y-105124500D03*
D46*
X166780500Y-106585000D03*
X166780500Y-107855000D03*
X166780500Y-109125000D03*
X166780500Y-110395000D03*
X166780500Y-111665000D03*
D45*
X168241000Y-113125500D03*
X169511000Y-113125500D03*
%TD*%
D28*
%TO.C,C61*%
X164150000Y-150905000D03*
X164150000Y-149355000D03*
%TD*%
D33*
%TO.C,R80*%
X161844000Y-101193000D03*
X161844000Y-102213000D03*
%TD*%
D29*
%TO.C,R84*%
X166797000Y-184952000D03*
X166797000Y-186602000D03*
%TD*%
D18*
%TO.C,C1*%
X168230000Y-120500000D03*
X169190000Y-120500000D03*
%TD*%
D33*
%TO.C,R82*%
X163749000Y-98143000D03*
X163749000Y-99163000D03*
%TD*%
D27*
%TO.C,C132*%
X158514000Y-108688000D03*
X157554000Y-108688000D03*
%TD*%
D18*
%TO.C,C170*%
X145790000Y-102650003D03*
X146750000Y-102650003D03*
%TD*%
D32*
%TO.C,TP3*%
X177000000Y-45000000D03*
%TD*%
D47*
%TO.C,C38*%
X157779500Y-57173200D03*
X155747500Y-57173200D03*
D48*
X156763500Y-56487400D03*
X156763500Y-57859000D03*
%TD*%
D27*
%TO.C,C51*%
X169261000Y-103125000D03*
X168301000Y-103125000D03*
%TD*%
D47*
%TO.C,C35*%
X147534049Y-57191701D03*
X145502049Y-57191701D03*
D48*
X146518049Y-56505901D03*
X146518049Y-57877501D03*
%TD*%
D29*
%TO.C,R48*%
X159431000Y-80106000D03*
X159431000Y-81756000D03*
%TD*%
D25*
%TO.C,R81*%
X156002000Y-104497000D03*
X156002000Y-102847000D03*
%TD*%
D41*
%TO.C,U6*%
X169158497Y-82100000D03*
X170428497Y-82100000D03*
X171698497Y-82100000D03*
X172968497Y-82100000D03*
X172968497Y-77150000D03*
X171698497Y-77150000D03*
X170428497Y-77150000D03*
X169158497Y-77150000D03*
%TD*%
D21*
%TO.C,R13*%
X173375000Y-116235000D03*
X173375000Y-115215000D03*
%TD*%
D49*
%TO.C,C153*%
X146510000Y-113006000D03*
X144960000Y-113006000D03*
%TD*%
D41*
%TO.C,U7*%
X172941500Y-70940000D03*
X174211500Y-70940000D03*
X175481500Y-70940000D03*
X176751500Y-70940000D03*
X176751500Y-65990000D03*
X175481500Y-65990000D03*
X174211500Y-65990000D03*
X172941500Y-65990000D03*
%TD*%
D50*
%TO.C,U20*%
X145810000Y-128090000D03*
X146750000Y-128090000D03*
X145810000Y-127250000D03*
X146750000Y-127250000D03*
D51*
X145280000Y-129820000D03*
X145780000Y-129820000D03*
X146280000Y-129820000D03*
X146780000Y-129820000D03*
X147280000Y-129820000D03*
X147280000Y-125520000D03*
X146780000Y-125520000D03*
X146280000Y-125520000D03*
X145780000Y-125520000D03*
X145280000Y-125520000D03*
%TD*%
D16*
%TO.C,U43*%
X150160000Y-154913800D03*
X151430000Y-154913800D03*
X152700000Y-154913800D03*
X153970000Y-154913800D03*
X153970000Y-149986200D03*
X152700000Y-149986200D03*
X151430000Y-149986200D03*
X150160000Y-149986200D03*
%TD*%
D52*
%TO.C,U13*%
X161730000Y-155380000D03*
X161730000Y-155880000D03*
X161730000Y-156380000D03*
X161730000Y-156880000D03*
X161730000Y-157380000D03*
X161730000Y-157880000D03*
X161730000Y-158380000D03*
X161730000Y-158880000D03*
X161730000Y-159380000D03*
X161730000Y-159880000D03*
X161730000Y-160380000D03*
X161730000Y-160880000D03*
X161730000Y-161380000D03*
X161730000Y-161880000D03*
X161730000Y-162380000D03*
X161730000Y-162880000D03*
D53*
X163650000Y-164800000D03*
X164150000Y-164800000D03*
X164650000Y-164800000D03*
X165150000Y-164800000D03*
X165650000Y-164800000D03*
X166150000Y-164800000D03*
X166650000Y-164800000D03*
X167150000Y-164800000D03*
X167650000Y-164800000D03*
X168150000Y-164800000D03*
X168650000Y-164800000D03*
X169150000Y-164800000D03*
X169650000Y-164800000D03*
X170150000Y-164800000D03*
X170650000Y-164800000D03*
X171150000Y-164800000D03*
D52*
X173070000Y-162880000D03*
X173070000Y-162380000D03*
X173070000Y-161880000D03*
X173070000Y-161380000D03*
X173070000Y-160880000D03*
X173070000Y-160380000D03*
X173070000Y-159880000D03*
X173070000Y-159380000D03*
X173070000Y-158880000D03*
X173070000Y-158380000D03*
X173070000Y-157880000D03*
X173070000Y-157380000D03*
X173070000Y-156880000D03*
X173070000Y-156380000D03*
X173070000Y-155880000D03*
X173070000Y-155380000D03*
D53*
X171150000Y-153460000D03*
X170650000Y-153460000D03*
X170150000Y-153460000D03*
X169650000Y-153460000D03*
X169150000Y-153460000D03*
X168650000Y-153460000D03*
X168150000Y-153460000D03*
X167650000Y-153460000D03*
X167150000Y-153460000D03*
X166650000Y-153460000D03*
X166150000Y-153460000D03*
X165650000Y-153460000D03*
X165150000Y-153460000D03*
X164650000Y-153460000D03*
X164150000Y-153460000D03*
X163650000Y-153460000D03*
D54*
X167400000Y-159130000D03*
%TD*%
D33*
%TO.C,R20*%
X175585000Y-133545000D03*
X175585000Y-134565000D03*
%TD*%
D55*
%TO.C,D10*%
X164892000Y-189866500D03*
X164892000Y-188291500D03*
%TD*%
D25*
%TO.C,R45*%
X147661549Y-81774501D03*
X147661549Y-80124501D03*
%TD*%
D36*
%TO.C,C195*%
X150300000Y-143800000D03*
X151850000Y-143800000D03*
%TD*%
D22*
%TO.C,R56*%
X147368049Y-60677501D03*
X145718049Y-60677501D03*
%TD*%
D38*
%TO.C,CR5*%
X146550000Y-157750002D03*
X146550000Y-158250001D03*
X146550000Y-158750000D03*
X148251800Y-158750000D03*
X148251800Y-158250001D03*
X148251800Y-157750002D03*
%TD*%
D26*
%TO.C,R70*%
X151150000Y-158500000D03*
X150130000Y-158500000D03*
%TD*%
D29*
%TO.C,R62*%
X144613549Y-80124501D03*
X144613549Y-81774501D03*
%TD*%
D56*
%TO.C,TP4*%
X155748000Y-187050000D03*
%TD*%
D57*
%TO.C,C167*%
X164511000Y-101309000D03*
X164511000Y-102859000D03*
%TD*%
D21*
%TO.C,R28*%
X153310000Y-120403150D03*
X153310000Y-119383150D03*
%TD*%
D18*
%TO.C,C27*%
X169291000Y-73625000D03*
X170251000Y-73625000D03*
%TD*%
D25*
%TO.C,R9*%
X171700997Y-54790000D03*
X171700997Y-53140000D03*
%TD*%
D39*
%TO.C,C129*%
X153589000Y-80796000D03*
X153589000Y-81756000D03*
%TD*%
D19*
%TO.C,C103*%
X174685000Y-122300800D03*
X176717000Y-122300800D03*
D20*
X175701000Y-122986600D03*
X175701000Y-121615000D03*
%TD*%
D49*
%TO.C,C160*%
X146510000Y-111355000D03*
X144960000Y-111355000D03*
%TD*%
D21*
%TO.C,R42*%
X158161000Y-55559000D03*
X158161000Y-54539000D03*
%TD*%
D58*
%TO.C,U23*%
X156916400Y-114996999D03*
X156916400Y-114347001D03*
X156916400Y-113696999D03*
X156916400Y-113047001D03*
X152573000Y-113047001D03*
X152573000Y-113696999D03*
X152573000Y-114347001D03*
X152573000Y-114996999D03*
%TD*%
D33*
%TO.C,R83*%
X154986000Y-100177000D03*
X154986000Y-101197000D03*
%TD*%
D30*
%TO.C,U8*%
X154416000Y-74390000D03*
X154416000Y-75660000D03*
X154416000Y-76930000D03*
X154416000Y-78200000D03*
X159366000Y-78200000D03*
X159366000Y-76930000D03*
X159366000Y-75660000D03*
X159366000Y-74390000D03*
%TD*%
D16*
%TO.C,U42*%
X150160000Y-166063800D03*
X151430000Y-166063800D03*
X152700000Y-166063800D03*
X153970000Y-166063800D03*
X153970000Y-161136200D03*
X152700000Y-161136200D03*
X151430000Y-161136200D03*
X150160000Y-161136200D03*
%TD*%
D33*
%TO.C,R15*%
X164781000Y-111625000D03*
X164781000Y-112645000D03*
%TD*%
D18*
%TO.C,C186*%
X143120000Y-145250000D03*
X144080000Y-145250000D03*
%TD*%
D42*
%TO.C,U24*%
X155915000Y-109765001D03*
D43*
X155915000Y-108815000D03*
X155915000Y-107864999D03*
X153295000Y-107864999D03*
X153295000Y-109765001D03*
%TD*%
D26*
%TO.C,R34*%
X150010000Y-124075000D03*
X148990000Y-124075000D03*
%TD*%
D23*
%TO.C,U1*%
X170670000Y-126050000D03*
X169400000Y-126050000D03*
X168130000Y-126050000D03*
X166860000Y-126050000D03*
X166860000Y-131000000D03*
X168130000Y-131000000D03*
X169400000Y-131000000D03*
X170670000Y-131000000D03*
%TD*%
D27*
%TO.C,C21*%
X171143500Y-84565200D03*
X170183500Y-84565200D03*
%TD*%
D59*
%TO.C,U37*%
X148398551Y-93911101D03*
X147948552Y-93911101D03*
X147498550Y-93911101D03*
X147048551Y-93911101D03*
X146598549Y-93911101D03*
X146148550Y-93911101D03*
X145698551Y-93911101D03*
X145248549Y-93911101D03*
X145248549Y-96815901D03*
X145698548Y-96815901D03*
X146148550Y-96815901D03*
X146598549Y-96815901D03*
X147048551Y-96815901D03*
X147498550Y-96815901D03*
X147948549Y-96815901D03*
X148398551Y-96815901D03*
D60*
X146823550Y-95363501D03*
%TD*%
D21*
%TO.C,R54*%
X147874000Y-55577501D03*
X147874000Y-54557501D03*
%TD*%
D26*
%TO.C,R52*%
X158546000Y-90255300D03*
X157526000Y-90255300D03*
%TD*%
D40*
%TO.C,R53*%
X155496000Y-90255300D03*
X156516000Y-90255300D03*
%TD*%
D18*
%TO.C,C26*%
X171281000Y-73625000D03*
X172241000Y-73625000D03*
%TD*%
D61*
%TO.C,U26*%
X154399500Y-84177000D03*
X154399500Y-85447000D03*
X154399500Y-86717000D03*
X154399500Y-87987000D03*
X159733500Y-87987000D03*
X159733500Y-86717000D03*
X159733500Y-85447000D03*
X159733500Y-84177000D03*
%TD*%
D49*
%TO.C,C52*%
X169056000Y-101625000D03*
X167506000Y-101625000D03*
%TD*%
D27*
%TO.C,C142*%
X155490500Y-91289000D03*
X154530500Y-91289000D03*
%TD*%
D29*
%TO.C,R57*%
X164892000Y-184952000D03*
X164892000Y-186602000D03*
%TD*%
D26*
%TO.C,R69*%
X144189100Y-146584100D03*
X143169100Y-146584100D03*
%TD*%
D21*
%TO.C,R2*%
X170210000Y-120510000D03*
X170210000Y-119490000D03*
%TD*%
D59*
%TO.C,U31*%
X158644002Y-93892600D03*
X158194003Y-93892600D03*
X157744001Y-93892600D03*
X157294002Y-93892600D03*
X156844000Y-93892600D03*
X156394001Y-93892600D03*
X155944002Y-93892600D03*
X155494000Y-93892600D03*
X155494000Y-96797400D03*
X155943999Y-96797400D03*
X156394001Y-96797400D03*
X156844000Y-96797400D03*
X157294002Y-96797400D03*
X157744001Y-96797400D03*
X158194000Y-96797400D03*
X158644002Y-96797400D03*
D60*
X157069001Y-95345000D03*
%TD*%
D62*
%TO.C,U32*%
X145870000Y-119850000D03*
X147140000Y-119850000D03*
X148410000Y-119850000D03*
D63*
X149290000Y-117700000D03*
D62*
X148410000Y-115550000D03*
X147140000Y-115550000D03*
X145870000Y-115550000D03*
D64*
X145390000Y-117700000D03*
%TD*%
D26*
%TO.C,R73*%
X151209100Y-146500001D03*
X150189100Y-146500001D03*
%TD*%
D21*
%TO.C,R25*%
X162830000Y-134493150D03*
X162830000Y-133473150D03*
%TD*%
D18*
%TO.C,C148*%
X145320000Y-123575000D03*
X146280000Y-123575000D03*
%TD*%
D23*
%TO.C,U16*%
X163735000Y-126008150D03*
X162465000Y-126008150D03*
X161195000Y-126008150D03*
X159925000Y-126008150D03*
X159925000Y-130958150D03*
X161195000Y-130958150D03*
X162465000Y-130958150D03*
X163735000Y-130958150D03*
%TD*%
D31*
%TO.C,C95*%
X153865000Y-134398150D03*
X153865000Y-133438150D03*
%TD*%
D36*
%TO.C,C147*%
X145325000Y-122275000D03*
X146875000Y-122275000D03*
%TD*%
D38*
%TO.C,CR8*%
X153150000Y-146500002D03*
X153150000Y-147000001D03*
X153150000Y-147500000D03*
X154851800Y-147500000D03*
X154851800Y-147000001D03*
X154851800Y-146500002D03*
%TD*%
D26*
%TO.C,R18*%
X176345000Y-124065000D03*
X175325000Y-124065000D03*
%TD*%
D36*
%TO.C,C155*%
X148128000Y-113006000D03*
X149678000Y-113006000D03*
%TD*%
D26*
%TO.C,R24*%
X162340000Y-123983150D03*
X161320000Y-123983150D03*
%TD*%
D25*
%TO.C,R58*%
X156383000Y-81756000D03*
X156383000Y-80106000D03*
%TD*%
D21*
%TO.C,R17*%
X177185000Y-120535000D03*
X177185000Y-119515000D03*
%TD*%
D27*
%TO.C,C116*%
X157263500Y-59259000D03*
X156303500Y-59259000D03*
%TD*%
D40*
%TO.C,R65*%
X145250549Y-90273801D03*
X146270549Y-90273801D03*
%TD*%
D28*
%TO.C,C63*%
X167650000Y-150905000D03*
X167650000Y-149355000D03*
%TD*%
D65*
%TO.C,D1*%
X175930900Y-101500000D03*
D66*
X173069100Y-101500000D03*
%TD*%
D33*
%TO.C,R49*%
X164935000Y-98107000D03*
X164935000Y-99127000D03*
%TD*%
D27*
%TO.C,C138*%
X149208049Y-91307501D03*
X148248049Y-91307501D03*
%TD*%
D21*
%TO.C,R43*%
X155367000Y-55559000D03*
X155367000Y-54539000D03*
%TD*%
D36*
%TO.C,C166*%
X146015000Y-101250001D03*
X147565000Y-101250001D03*
%TD*%
D23*
%TO.C,U18*%
X156770000Y-125933150D03*
X155500000Y-125933150D03*
X154230000Y-125933150D03*
X152960000Y-125933150D03*
X152960000Y-130883150D03*
X154230000Y-130883150D03*
X155500000Y-130883150D03*
X156770000Y-130883150D03*
%TD*%
D26*
%TO.C,R8*%
X170301000Y-74625000D03*
X169281000Y-74625000D03*
%TD*%
D19*
%TO.C,C101*%
X167730000Y-122300000D03*
X169762000Y-122300000D03*
D20*
X168746000Y-122985800D03*
X168746000Y-121614200D03*
%TD*%
D67*
%TO.C,U22*%
X159939000Y-101750000D03*
D68*
X158988999Y-101750000D03*
X158038998Y-101750000D03*
X158038998Y-104370000D03*
X159939000Y-104370000D03*
%TD*%
D26*
%TO.C,R14*%
X175525000Y-115250000D03*
X174505000Y-115250000D03*
%TD*%
%TO.C,R74*%
X158542000Y-106656000D03*
X157522000Y-106656000D03*
%TD*%
D23*
%TO.C,U33*%
X148428043Y-63297501D03*
X147158043Y-63297501D03*
X145888043Y-63297501D03*
X144618043Y-63297501D03*
X144618043Y-68247501D03*
X145888043Y-68247501D03*
X147158043Y-68247501D03*
X148428043Y-68247501D03*
%TD*%
D24*
%TO.C,U15*%
X177890000Y-136965000D03*
X176620000Y-136965000D03*
X175350000Y-136965000D03*
X174080000Y-136965000D03*
X174080000Y-141915000D03*
X175350000Y-141915000D03*
X176620000Y-141915000D03*
X177890000Y-141915000D03*
%TD*%
D18*
%TO.C,C193*%
X150240000Y-145250000D03*
X151200000Y-145250000D03*
%TD*%
D28*
%TO.C,C111*%
X149439549Y-72262501D03*
X149439549Y-70712501D03*
%TD*%
D36*
%TO.C,C157*%
X148102000Y-111355000D03*
X149652000Y-111355000D03*
%TD*%
D41*
%TO.C,U9*%
X166770997Y-71075000D03*
X168040997Y-71075000D03*
X169310997Y-71075000D03*
X170580997Y-71075000D03*
X170580997Y-66125000D03*
X169310997Y-66125000D03*
X168040997Y-66125000D03*
X166770997Y-66125000D03*
%TD*%
D56*
%TO.C,TP5*%
X161971000Y-115673000D03*
%TD*%
D24*
%TO.C,U17*%
X163770000Y-136923150D03*
X162500000Y-136923150D03*
X161230000Y-136923150D03*
X159960000Y-136923150D03*
X159960000Y-141873150D03*
X161230000Y-141873150D03*
X162500000Y-141873150D03*
X163770000Y-141873150D03*
%TD*%
D21*
%TO.C,R16*%
X174185000Y-120535000D03*
X174185000Y-119515000D03*
%TD*%
D36*
%TO.C,C59*%
X175700000Y-157930000D03*
X177250000Y-157930000D03*
%TD*%
D61*
%TO.C,U21*%
X144154049Y-84195501D03*
X144154049Y-85465501D03*
X144154049Y-86735501D03*
X144154049Y-88005501D03*
X149488049Y-88005501D03*
X149488049Y-86735501D03*
X149488049Y-85465501D03*
X149488049Y-84195501D03*
%TD*%
D26*
%TO.C,R7*%
X172291000Y-74625000D03*
X171271000Y-74625000D03*
%TD*%
D55*
%TO.C,D11*%
X166797000Y-189866500D03*
X166797000Y-188291500D03*
%TD*%
D27*
%TO.C,C124*%
X155085000Y-116647999D03*
X154125000Y-116647999D03*
%TD*%
D29*
%TO.C,R40*%
X147915549Y-70662501D03*
X147915549Y-72312501D03*
%TD*%
D18*
%TO.C,C68*%
X175205000Y-120515000D03*
X176165000Y-120515000D03*
%TD*%
M02*
