%TF.GenerationSoftware,KiCad,Pcbnew,9.0.9-9.0.9~ubuntu22.04.1*%
%TF.CreationDate,2026-09-02T08:00:36-04:00*%
%TF.ProjectId,psc_daughter_brd,7073635f-6461-4756-9768-7465725f6272,rev?*%
%TF.SameCoordinates,Original*%
%TF.FileFunction,Soldermask,Top*%
%TF.FilePolarity,Negative*%
%FSLAX46Y46*%
G04 Gerber Fmt 4.6, Leading zero omitted, Abs format (unit mm)*
G04 Created by KiCad (PCBNEW 9.0.9-9.0.9~ubuntu22.04.1) date 2026-09-02 08:00:36*
%MOMM*%
%LPD*%
G01*
G04 APERTURE LIST*
G04 Aperture macros list*
%AMRoundRect*
0 Rectangle with rounded corners*
0 $1 Rounding radius*
0 $2 $3 $4 $5 $6 $7 $8 $9 X,Y pos of 4 corners*
0 Add a 4 corners polygon primitive as box body*
4,1,4,$2,$3,$4,$5,$6,$7,$8,$9,$2,$3,0*
0 Add four circle primitives for the rounded corners*
1,1,$1+$1,$2,$3*
1,1,$1+$1,$4,$5*
1,1,$1+$1,$6,$7*
1,1,$1+$1,$8,$9*
0 Add four rect primitives between the rounded corners*
20,1,$1+$1,$2,$3,$4,$5,0*
20,1,$1+$1,$4,$5,$6,$7,0*
20,1,$1+$1,$6,$7,$8,$9,0*
20,1,$1+$1,$8,$9,$2,$3,0*%
G04 Aperture macros list end*
%ADD10C,0.010000*%
%ADD11RoundRect,0.140000X0.140000X0.170000X-0.140000X0.170000X-0.140000X-0.170000X0.140000X-0.170000X0*%
%ADD12RoundRect,0.135000X0.185000X-0.135000X0.185000X0.135000X-0.185000X0.135000X-0.185000X-0.135000X0*%
%ADD13RoundRect,0.127000X0.228600X0.127000X-0.228600X0.127000X-0.228600X-0.127000X0.228600X-0.127000X0*%
%ADD14RoundRect,0.190500X0.190500X0.571500X-0.190500X0.571500X-0.190500X-0.571500X0.190500X-0.571500X0*%
%ADD15RoundRect,0.200000X0.200000X0.275000X-0.200000X0.275000X-0.200000X-0.275000X0.200000X-0.275000X0*%
%ADD16R,0.558800X1.981200*%
%ADD17RoundRect,0.200000X-0.200000X-0.275000X0.200000X-0.275000X0.200000X0.275000X-0.200000X0.275000X0*%
%ADD18RoundRect,0.140000X-0.140000X-0.170000X0.140000X-0.170000X0.140000X0.170000X-0.140000X0.170000X0*%
%ADD19RoundRect,0.190500X-0.190500X-0.571500X0.190500X-0.571500X0.190500X0.571500X-0.190500X0.571500X0*%
%ADD20RoundRect,0.127000X-0.228600X-0.127000X0.228600X-0.127000X0.228600X0.127000X-0.228600X0.127000X0*%
%ADD21RoundRect,0.102000X-0.300000X0.985000X-0.300000X-0.985000X0.300000X-0.985000X0.300000X0.985000X0*%
%ADD22RoundRect,0.150000X-0.150000X0.825000X-0.150000X-0.825000X0.150000X-0.825000X0.150000X0.825000X0*%
%ADD23RoundRect,0.200000X0.275000X-0.200000X0.275000X0.200000X-0.275000X0.200000X-0.275000X-0.200000X0*%
%ADD24RoundRect,0.135000X0.135000X0.185000X-0.135000X0.185000X-0.135000X-0.185000X0.135000X-0.185000X0*%
%ADD25RoundRect,0.225000X0.250000X-0.225000X0.250000X0.225000X-0.250000X0.225000X-0.250000X-0.225000X0*%
%ADD26RoundRect,0.200000X-0.275000X0.200000X-0.275000X-0.200000X0.275000X-0.200000X0.275000X0.200000X0*%
%ADD27RoundRect,0.150000X-0.825000X-0.150000X0.825000X-0.150000X0.825000X0.150000X-0.825000X0.150000X0*%
%ADD28C,3.600000*%
%ADD29C,6.400000*%
%ADD30RoundRect,0.140000X0.170000X-0.140000X0.170000X0.140000X-0.170000X0.140000X-0.170000X-0.140000X0*%
%ADD31RoundRect,0.222222X0.577778X-1.552778X0.577778X1.552778X-0.577778X1.552778X-0.577778X-1.552778X0*%
%ADD32RoundRect,0.135000X-0.185000X0.135000X-0.185000X-0.135000X0.185000X-0.135000X0.185000X0.135000X0*%
%ADD33R,0.203200X0.863600*%
%ADD34R,0.863600X0.203200*%
%ADD35RoundRect,0.225000X-0.225000X-0.250000X0.225000X-0.250000X0.225000X0.250000X-0.225000X0.250000X0*%
%ADD36RoundRect,0.100000X-0.637500X-0.100000X0.637500X-0.100000X0.637500X0.100000X-0.637500X0.100000X0*%
%ADD37R,0.609600X0.228600*%
%ADD38RoundRect,0.140000X-0.170000X0.140000X-0.170000X-0.140000X0.170000X-0.140000X0.170000X0.140000X0*%
%ADD39RoundRect,0.135000X-0.135000X-0.185000X0.135000X-0.185000X0.135000X0.185000X-0.135000X0.185000X0*%
%ADD40RoundRect,0.150000X0.150000X-0.825000X0.150000X0.825000X-0.150000X0.825000X-0.150000X-0.825000X0*%
%ADD41R,1.219200X0.457200*%
%ADD42O,1.219200X0.457200*%
%ADD43R,0.685800X2.717800*%
%ADD44R,0.685800X1.701800*%
%ADD45R,1.701800X0.685800*%
%ADD46RoundRect,0.225000X0.225000X0.250000X-0.225000X0.250000X-0.225000X-0.250000X0.225000X-0.250000X0*%
%ADD47RoundRect,0.075000X0.075000X-0.650000X0.075000X0.650000X-0.075000X0.650000X-0.075000X-0.650000X0*%
%ADD48R,1.880000X1.680000*%
%ADD49RoundRect,0.035000X-0.750000X-0.105000X0.750000X-0.105000X0.750000X0.105000X-0.750000X0.105000X0*%
%ADD50RoundRect,0.035000X-0.105000X-0.750000X0.105000X-0.750000X0.105000X0.750000X-0.105000X0.750000X0*%
%ADD51RoundRect,0.102000X-4.000000X-4.000000X4.000000X-4.000000X4.000000X4.000000X-4.000000X4.000000X0*%
%ADD52RoundRect,0.218750X0.256250X-0.218750X0.256250X0.218750X-0.256250X0.218750X-0.256250X-0.218750X0*%
%ADD53RoundRect,0.222222X-1.552778X-0.577778X1.552778X-0.577778X1.552778X0.577778X-1.552778X0.577778X0*%
%ADD54RoundRect,0.225000X-0.250000X0.225000X-0.250000X-0.225000X0.250000X-0.225000X0.250000X0.225000X0*%
%ADD55R,1.524000X0.457200*%
%ADD56R,0.229200X0.804800*%
%ADD57C,0.500000*%
%ADD58R,3.400001X1.800000*%
%ADD59R,1.549400X0.609600*%
%ADD60R,2.387600X1.498600*%
%ADD61R,1.244600X1.498600*%
%ADD62R,0.457200X1.219200*%
%ADD63O,0.457200X1.219200*%
%ADD64C,0.830000*%
%ADD65C,1.230000*%
G04 APERTURE END LIST*
D10*
%TO.C,D4*%
X147051049Y-53292800D02*
X147053049Y-53292800D01*
X147056049Y-53293800D01*
X147058049Y-53293800D01*
X147061049Y-53294800D01*
X147063049Y-53295800D01*
X147066049Y-53296800D01*
X147068049Y-53298800D01*
X147070049Y-53299800D01*
X147072049Y-53301800D01*
X147074049Y-53302800D01*
X147076049Y-53304800D01*
X147078049Y-53306800D01*
X147080049Y-53308800D01*
X147082049Y-53310800D01*
X147083049Y-53312800D01*
X147085049Y-53314800D01*
X147086049Y-53316800D01*
X147088049Y-53318800D01*
X147089049Y-53321800D01*
X147090049Y-53323800D01*
X147091049Y-53326800D01*
X147091049Y-53328800D01*
X147092049Y-53331800D01*
X147092049Y-53333800D01*
X147093049Y-53336800D01*
X147093049Y-53338800D01*
X147093049Y-53341800D01*
X147093049Y-53941800D01*
X147093049Y-53944800D01*
X147093049Y-53946800D01*
X147092049Y-53949800D01*
X147092049Y-53951800D01*
X147091049Y-53954800D01*
X147091049Y-53956800D01*
X147090049Y-53959800D01*
X147089049Y-53961800D01*
X147088049Y-53964800D01*
X147086049Y-53966800D01*
X147085049Y-53968800D01*
X147083049Y-53970800D01*
X147082049Y-53972800D01*
X147080049Y-53974800D01*
X147078049Y-53976800D01*
X147076049Y-53978800D01*
X147074049Y-53980800D01*
X147072049Y-53981800D01*
X147070049Y-53983800D01*
X147068049Y-53984800D01*
X147066049Y-53986800D01*
X147063049Y-53987800D01*
X147061049Y-53988800D01*
X147058049Y-53989800D01*
X147056049Y-53989800D01*
X147053049Y-53990800D01*
X147051049Y-53990800D01*
X147048049Y-53991800D01*
X147046049Y-53991800D01*
X147043049Y-53991800D01*
X146743049Y-53991800D01*
X146740049Y-53991800D01*
X146738049Y-53991800D01*
X146735049Y-53990800D01*
X146733049Y-53990800D01*
X146730049Y-53989800D01*
X146728049Y-53989800D01*
X146725049Y-53988800D01*
X146723049Y-53987800D01*
X146720049Y-53986800D01*
X146718049Y-53984800D01*
X146716049Y-53983800D01*
X146714049Y-53981800D01*
X146712049Y-53980800D01*
X146710049Y-53978800D01*
X146708049Y-53976800D01*
X146706049Y-53974800D01*
X146704049Y-53972800D01*
X146703049Y-53970800D01*
X146701049Y-53968800D01*
X146700049Y-53966800D01*
X146698049Y-53964800D01*
X146697049Y-53961800D01*
X146696049Y-53959800D01*
X146695049Y-53956800D01*
X146695049Y-53954800D01*
X146694049Y-53951800D01*
X146694049Y-53949800D01*
X146693049Y-53946800D01*
X146693049Y-53944800D01*
X146693049Y-53941800D01*
X146693049Y-53341800D01*
X146693049Y-53338800D01*
X146693049Y-53336800D01*
X146694049Y-53333800D01*
X146694049Y-53331800D01*
X146695049Y-53328800D01*
X146695049Y-53326800D01*
X146696049Y-53323800D01*
X146697049Y-53321800D01*
X146698049Y-53318800D01*
X146700049Y-53316800D01*
X146701049Y-53314800D01*
X146703049Y-53312800D01*
X146704049Y-53310800D01*
X146706049Y-53308800D01*
X146708049Y-53306800D01*
X146710049Y-53304800D01*
X146712049Y-53302800D01*
X146714049Y-53301800D01*
X146716049Y-53299800D01*
X146718049Y-53298800D01*
X146720049Y-53296800D01*
X146723049Y-53295800D01*
X146725049Y-53294800D01*
X146728049Y-53293800D01*
X146730049Y-53293800D01*
X146733049Y-53292800D01*
X146735049Y-53292800D01*
X146738049Y-53291800D01*
X146740049Y-53291800D01*
X146743049Y-53291800D01*
X147043049Y-53291800D01*
X147046049Y-53291800D01*
X147048049Y-53291800D01*
X147051049Y-53292800D01*
G36*
X147051049Y-53292800D02*
G01*
X147053049Y-53292800D01*
X147056049Y-53293800D01*
X147058049Y-53293800D01*
X147061049Y-53294800D01*
X147063049Y-53295800D01*
X147066049Y-53296800D01*
X147068049Y-53298800D01*
X147070049Y-53299800D01*
X147072049Y-53301800D01*
X147074049Y-53302800D01*
X147076049Y-53304800D01*
X147078049Y-53306800D01*
X147080049Y-53308800D01*
X147082049Y-53310800D01*
X147083049Y-53312800D01*
X147085049Y-53314800D01*
X147086049Y-53316800D01*
X147088049Y-53318800D01*
X147089049Y-53321800D01*
X147090049Y-53323800D01*
X147091049Y-53326800D01*
X147091049Y-53328800D01*
X147092049Y-53331800D01*
X147092049Y-53333800D01*
X147093049Y-53336800D01*
X147093049Y-53338800D01*
X147093049Y-53341800D01*
X147093049Y-53941800D01*
X147093049Y-53944800D01*
X147093049Y-53946800D01*
X147092049Y-53949800D01*
X147092049Y-53951800D01*
X147091049Y-53954800D01*
X147091049Y-53956800D01*
X147090049Y-53959800D01*
X147089049Y-53961800D01*
X147088049Y-53964800D01*
X147086049Y-53966800D01*
X147085049Y-53968800D01*
X147083049Y-53970800D01*
X147082049Y-53972800D01*
X147080049Y-53974800D01*
X147078049Y-53976800D01*
X147076049Y-53978800D01*
X147074049Y-53980800D01*
X147072049Y-53981800D01*
X147070049Y-53983800D01*
X147068049Y-53984800D01*
X147066049Y-53986800D01*
X147063049Y-53987800D01*
X147061049Y-53988800D01*
X147058049Y-53989800D01*
X147056049Y-53989800D01*
X147053049Y-53990800D01*
X147051049Y-53990800D01*
X147048049Y-53991800D01*
X147046049Y-53991800D01*
X147043049Y-53991800D01*
X146743049Y-53991800D01*
X146740049Y-53991800D01*
X146738049Y-53991800D01*
X146735049Y-53990800D01*
X146733049Y-53990800D01*
X146730049Y-53989800D01*
X146728049Y-53989800D01*
X146725049Y-53988800D01*
X146723049Y-53987800D01*
X146720049Y-53986800D01*
X146718049Y-53984800D01*
X146716049Y-53983800D01*
X146714049Y-53981800D01*
X146712049Y-53980800D01*
X146710049Y-53978800D01*
X146708049Y-53976800D01*
X146706049Y-53974800D01*
X146704049Y-53972800D01*
X146703049Y-53970800D01*
X146701049Y-53968800D01*
X146700049Y-53966800D01*
X146698049Y-53964800D01*
X146697049Y-53961800D01*
X146696049Y-53959800D01*
X146695049Y-53956800D01*
X146695049Y-53954800D01*
X146694049Y-53951800D01*
X146694049Y-53949800D01*
X146693049Y-53946800D01*
X146693049Y-53944800D01*
X146693049Y-53941800D01*
X146693049Y-53341800D01*
X146693049Y-53338800D01*
X146693049Y-53336800D01*
X146694049Y-53333800D01*
X146694049Y-53331800D01*
X146695049Y-53328800D01*
X146695049Y-53326800D01*
X146696049Y-53323800D01*
X146697049Y-53321800D01*
X146698049Y-53318800D01*
X146700049Y-53316800D01*
X146701049Y-53314800D01*
X146703049Y-53312800D01*
X146704049Y-53310800D01*
X146706049Y-53308800D01*
X146708049Y-53306800D01*
X146710049Y-53304800D01*
X146712049Y-53302800D01*
X146714049Y-53301800D01*
X146716049Y-53299800D01*
X146718049Y-53298800D01*
X146720049Y-53296800D01*
X146723049Y-53295800D01*
X146725049Y-53294800D01*
X146728049Y-53293800D01*
X146730049Y-53293800D01*
X146733049Y-53292800D01*
X146735049Y-53292800D01*
X146738049Y-53291800D01*
X146740049Y-53291800D01*
X146743049Y-53291800D01*
X147043049Y-53291800D01*
X147046049Y-53291800D01*
X147048049Y-53291800D01*
X147051049Y-53292800D01*
G37*
X146351049Y-53292800D02*
X146353049Y-53292800D01*
X146356049Y-53293800D01*
X146358049Y-53293800D01*
X146361049Y-53294800D01*
X146363049Y-53295800D01*
X146366049Y-53296800D01*
X146368049Y-53298800D01*
X146370049Y-53299800D01*
X146372049Y-53301800D01*
X146374049Y-53302800D01*
X146376049Y-53304800D01*
X146378049Y-53306800D01*
X146380049Y-53308800D01*
X146382049Y-53310800D01*
X146383049Y-53312800D01*
X146385049Y-53314800D01*
X146386049Y-53316800D01*
X146388049Y-53318800D01*
X146389049Y-53321800D01*
X146390049Y-53323800D01*
X146391049Y-53326800D01*
X146391049Y-53328800D01*
X146392049Y-53331800D01*
X146392049Y-53333800D01*
X146393049Y-53336800D01*
X146393049Y-53338800D01*
X146393049Y-53341800D01*
X146393049Y-53941800D01*
X146393049Y-53944800D01*
X146393049Y-53946800D01*
X146392049Y-53949800D01*
X146392049Y-53951800D01*
X146391049Y-53954800D01*
X146391049Y-53956800D01*
X146390049Y-53959800D01*
X146389049Y-53961800D01*
X146388049Y-53964800D01*
X146386049Y-53966800D01*
X146385049Y-53968800D01*
X146383049Y-53970800D01*
X146382049Y-53972800D01*
X146380049Y-53974800D01*
X146378049Y-53976800D01*
X146376049Y-53978800D01*
X146374049Y-53980800D01*
X146372049Y-53981800D01*
X146370049Y-53983800D01*
X146368049Y-53984800D01*
X146366049Y-53986800D01*
X146363049Y-53987800D01*
X146361049Y-53988800D01*
X146358049Y-53989800D01*
X146356049Y-53989800D01*
X146353049Y-53990800D01*
X146351049Y-53990800D01*
X146348049Y-53991800D01*
X146346049Y-53991800D01*
X146343049Y-53991800D01*
X146043049Y-53991800D01*
X146040049Y-53991800D01*
X146038049Y-53991800D01*
X146035049Y-53990800D01*
X146033049Y-53990800D01*
X146030049Y-53989800D01*
X146028049Y-53989800D01*
X146025049Y-53988800D01*
X146023049Y-53987800D01*
X146020049Y-53986800D01*
X146018049Y-53984800D01*
X146016049Y-53983800D01*
X146014049Y-53981800D01*
X146012049Y-53980800D01*
X146010049Y-53978800D01*
X146008049Y-53976800D01*
X146006049Y-53974800D01*
X146004049Y-53972800D01*
X146003049Y-53970800D01*
X146001049Y-53968800D01*
X146000049Y-53966800D01*
X145998049Y-53964800D01*
X145997049Y-53961800D01*
X145996049Y-53959800D01*
X145995049Y-53956800D01*
X145995049Y-53954800D01*
X145994049Y-53951800D01*
X145994049Y-53949800D01*
X145993049Y-53946800D01*
X145993049Y-53944800D01*
X145993049Y-53941800D01*
X145993049Y-53341800D01*
X145993049Y-53338800D01*
X145993049Y-53336800D01*
X145994049Y-53333800D01*
X145994049Y-53331800D01*
X145995049Y-53328800D01*
X145995049Y-53326800D01*
X145996049Y-53323800D01*
X145997049Y-53321800D01*
X145998049Y-53318800D01*
X146000049Y-53316800D01*
X146001049Y-53314800D01*
X146003049Y-53312800D01*
X146004049Y-53310800D01*
X146006049Y-53308800D01*
X146008049Y-53306800D01*
X146010049Y-53304800D01*
X146012049Y-53302800D01*
X146014049Y-53301800D01*
X146016049Y-53299800D01*
X146018049Y-53298800D01*
X146020049Y-53296800D01*
X146023049Y-53295800D01*
X146025049Y-53294800D01*
X146028049Y-53293800D01*
X146030049Y-53293800D01*
X146033049Y-53292800D01*
X146035049Y-53292800D01*
X146038049Y-53291800D01*
X146040049Y-53291800D01*
X146043049Y-53291800D01*
X146343049Y-53291800D01*
X146346049Y-53291800D01*
X146348049Y-53291800D01*
X146351049Y-53292800D01*
G36*
X146351049Y-53292800D02*
G01*
X146353049Y-53292800D01*
X146356049Y-53293800D01*
X146358049Y-53293800D01*
X146361049Y-53294800D01*
X146363049Y-53295800D01*
X146366049Y-53296800D01*
X146368049Y-53298800D01*
X146370049Y-53299800D01*
X146372049Y-53301800D01*
X146374049Y-53302800D01*
X146376049Y-53304800D01*
X146378049Y-53306800D01*
X146380049Y-53308800D01*
X146382049Y-53310800D01*
X146383049Y-53312800D01*
X146385049Y-53314800D01*
X146386049Y-53316800D01*
X146388049Y-53318800D01*
X146389049Y-53321800D01*
X146390049Y-53323800D01*
X146391049Y-53326800D01*
X146391049Y-53328800D01*
X146392049Y-53331800D01*
X146392049Y-53333800D01*
X146393049Y-53336800D01*
X146393049Y-53338800D01*
X146393049Y-53341800D01*
X146393049Y-53941800D01*
X146393049Y-53944800D01*
X146393049Y-53946800D01*
X146392049Y-53949800D01*
X146392049Y-53951800D01*
X146391049Y-53954800D01*
X146391049Y-53956800D01*
X146390049Y-53959800D01*
X146389049Y-53961800D01*
X146388049Y-53964800D01*
X146386049Y-53966800D01*
X146385049Y-53968800D01*
X146383049Y-53970800D01*
X146382049Y-53972800D01*
X146380049Y-53974800D01*
X146378049Y-53976800D01*
X146376049Y-53978800D01*
X146374049Y-53980800D01*
X146372049Y-53981800D01*
X146370049Y-53983800D01*
X146368049Y-53984800D01*
X146366049Y-53986800D01*
X146363049Y-53987800D01*
X146361049Y-53988800D01*
X146358049Y-53989800D01*
X146356049Y-53989800D01*
X146353049Y-53990800D01*
X146351049Y-53990800D01*
X146348049Y-53991800D01*
X146346049Y-53991800D01*
X146343049Y-53991800D01*
X146043049Y-53991800D01*
X146040049Y-53991800D01*
X146038049Y-53991800D01*
X146035049Y-53990800D01*
X146033049Y-53990800D01*
X146030049Y-53989800D01*
X146028049Y-53989800D01*
X146025049Y-53988800D01*
X146023049Y-53987800D01*
X146020049Y-53986800D01*
X146018049Y-53984800D01*
X146016049Y-53983800D01*
X146014049Y-53981800D01*
X146012049Y-53980800D01*
X146010049Y-53978800D01*
X146008049Y-53976800D01*
X146006049Y-53974800D01*
X146004049Y-53972800D01*
X146003049Y-53970800D01*
X146001049Y-53968800D01*
X146000049Y-53966800D01*
X145998049Y-53964800D01*
X145997049Y-53961800D01*
X145996049Y-53959800D01*
X145995049Y-53956800D01*
X145995049Y-53954800D01*
X145994049Y-53951800D01*
X145994049Y-53949800D01*
X145993049Y-53946800D01*
X145993049Y-53944800D01*
X145993049Y-53941800D01*
X145993049Y-53341800D01*
X145993049Y-53338800D01*
X145993049Y-53336800D01*
X145994049Y-53333800D01*
X145994049Y-53331800D01*
X145995049Y-53328800D01*
X145995049Y-53326800D01*
X145996049Y-53323800D01*
X145997049Y-53321800D01*
X145998049Y-53318800D01*
X146000049Y-53316800D01*
X146001049Y-53314800D01*
X146003049Y-53312800D01*
X146004049Y-53310800D01*
X146006049Y-53308800D01*
X146008049Y-53306800D01*
X146010049Y-53304800D01*
X146012049Y-53302800D01*
X146014049Y-53301800D01*
X146016049Y-53299800D01*
X146018049Y-53298800D01*
X146020049Y-53296800D01*
X146023049Y-53295800D01*
X146025049Y-53294800D01*
X146028049Y-53293800D01*
X146030049Y-53293800D01*
X146033049Y-53292800D01*
X146035049Y-53292800D01*
X146038049Y-53291800D01*
X146040049Y-53291800D01*
X146043049Y-53291800D01*
X146343049Y-53291800D01*
X146346049Y-53291800D01*
X146348049Y-53291800D01*
X146351049Y-53292800D01*
G37*
%TO.C,U32*%
X146640000Y-118050000D02*
X144140000Y-118050000D01*
X144140000Y-117350000D01*
X146640000Y-117350000D01*
X146640000Y-118050000D01*
G36*
X146640000Y-118050000D02*
G01*
X144140000Y-118050000D01*
X144140000Y-117350000D01*
X146640000Y-117350000D01*
X146640000Y-118050000D01*
G37*
X146220000Y-116300000D02*
X145520000Y-116300000D01*
X145520000Y-114800000D01*
X146220000Y-114800000D01*
X146220000Y-116300000D01*
G36*
X146220000Y-116300000D02*
G01*
X145520000Y-116300000D01*
X145520000Y-114800000D01*
X146220000Y-114800000D01*
X146220000Y-116300000D01*
G37*
X146220000Y-120600000D02*
X145520000Y-120600000D01*
X145520000Y-119100000D01*
X146220000Y-119100000D01*
X146220000Y-120600000D01*
G36*
X146220000Y-120600000D02*
G01*
X145520000Y-120600000D01*
X145520000Y-119100000D01*
X146220000Y-119100000D01*
X146220000Y-120600000D01*
G37*
X147490000Y-116300000D02*
X146790000Y-116300000D01*
X146790000Y-114800000D01*
X147490000Y-114800000D01*
X147490000Y-116300000D01*
G36*
X147490000Y-116300000D02*
G01*
X146790000Y-116300000D01*
X146790000Y-114800000D01*
X147490000Y-114800000D01*
X147490000Y-116300000D01*
G37*
X147490000Y-120600000D02*
X146790000Y-120600000D01*
X146790000Y-119100000D01*
X147490000Y-119100000D01*
X147490000Y-120600000D01*
G36*
X147490000Y-120600000D02*
G01*
X146790000Y-120600000D01*
X146790000Y-119100000D01*
X147490000Y-119100000D01*
X147490000Y-120600000D01*
G37*
X148760000Y-116300000D02*
X148060000Y-116300000D01*
X148060000Y-114800000D01*
X148760000Y-114800000D01*
X148760000Y-116300000D01*
G36*
X148760000Y-116300000D02*
G01*
X148060000Y-116300000D01*
X148060000Y-114800000D01*
X148760000Y-114800000D01*
X148760000Y-116300000D01*
G37*
X148760000Y-120600000D02*
X148060000Y-120600000D01*
X148060000Y-119100000D01*
X148760000Y-119100000D01*
X148760000Y-120600000D01*
G36*
X148760000Y-120600000D02*
G01*
X148060000Y-120600000D01*
X148060000Y-119100000D01*
X148760000Y-119100000D01*
X148760000Y-120600000D01*
G37*
X150040000Y-118050000D02*
X148540000Y-118050000D01*
X148540000Y-117350000D01*
X150040000Y-117350000D01*
X150040000Y-118050000D01*
G36*
X150040000Y-118050000D02*
G01*
X148540000Y-118050000D01*
X148540000Y-117350000D01*
X150040000Y-117350000D01*
X150040000Y-118050000D01*
G37*
%TO.C,D7*%
X154663000Y-118934150D02*
X154665000Y-118934150D01*
X154668000Y-118935150D01*
X154670000Y-118935150D01*
X154673000Y-118936150D01*
X154675000Y-118937150D01*
X154678000Y-118938150D01*
X154680000Y-118940150D01*
X154682000Y-118941150D01*
X154684000Y-118943150D01*
X154686000Y-118944150D01*
X154688000Y-118946150D01*
X154690000Y-118948150D01*
X154692000Y-118950150D01*
X154694000Y-118952150D01*
X154695000Y-118954150D01*
X154697000Y-118956150D01*
X154698000Y-118958150D01*
X154700000Y-118960150D01*
X154701000Y-118963150D01*
X154702000Y-118965150D01*
X154703000Y-118968150D01*
X154703000Y-118970150D01*
X154704000Y-118973150D01*
X154704000Y-118975150D01*
X154705000Y-118978150D01*
X154705000Y-118980150D01*
X154705000Y-118983150D01*
X154705000Y-119583150D01*
X154705000Y-119586150D01*
X154705000Y-119588150D01*
X154704000Y-119591150D01*
X154704000Y-119593150D01*
X154703000Y-119596150D01*
X154703000Y-119598150D01*
X154702000Y-119601150D01*
X154701000Y-119603150D01*
X154700000Y-119606150D01*
X154698000Y-119608150D01*
X154697000Y-119610150D01*
X154695000Y-119612150D01*
X154694000Y-119614150D01*
X154692000Y-119616150D01*
X154690000Y-119618150D01*
X154688000Y-119620150D01*
X154686000Y-119622150D01*
X154684000Y-119623150D01*
X154682000Y-119625150D01*
X154680000Y-119626150D01*
X154678000Y-119628150D01*
X154675000Y-119629150D01*
X154673000Y-119630150D01*
X154670000Y-119631150D01*
X154668000Y-119631150D01*
X154665000Y-119632150D01*
X154663000Y-119632150D01*
X154660000Y-119633150D01*
X154658000Y-119633150D01*
X154655000Y-119633150D01*
X154355000Y-119633150D01*
X154352000Y-119633150D01*
X154350000Y-119633150D01*
X154347000Y-119632150D01*
X154345000Y-119632150D01*
X154342000Y-119631150D01*
X154340000Y-119631150D01*
X154337000Y-119630150D01*
X154335000Y-119629150D01*
X154332000Y-119628150D01*
X154330000Y-119626150D01*
X154328000Y-119625150D01*
X154326000Y-119623150D01*
X154324000Y-119622150D01*
X154322000Y-119620150D01*
X154320000Y-119618150D01*
X154318000Y-119616150D01*
X154316000Y-119614150D01*
X154315000Y-119612150D01*
X154313000Y-119610150D01*
X154312000Y-119608150D01*
X154310000Y-119606150D01*
X154309000Y-119603150D01*
X154308000Y-119601150D01*
X154307000Y-119598150D01*
X154307000Y-119596150D01*
X154306000Y-119593150D01*
X154306000Y-119591150D01*
X154305000Y-119588150D01*
X154305000Y-119586150D01*
X154305000Y-119583150D01*
X154305000Y-118983150D01*
X154305000Y-118980150D01*
X154305000Y-118978150D01*
X154306000Y-118975150D01*
X154306000Y-118973150D01*
X154307000Y-118970150D01*
X154307000Y-118968150D01*
X154308000Y-118965150D01*
X154309000Y-118963150D01*
X154310000Y-118960150D01*
X154312000Y-118958150D01*
X154313000Y-118956150D01*
X154315000Y-118954150D01*
X154316000Y-118952150D01*
X154318000Y-118950150D01*
X154320000Y-118948150D01*
X154322000Y-118946150D01*
X154324000Y-118944150D01*
X154326000Y-118943150D01*
X154328000Y-118941150D01*
X154330000Y-118940150D01*
X154332000Y-118938150D01*
X154335000Y-118937150D01*
X154337000Y-118936150D01*
X154340000Y-118935150D01*
X154342000Y-118935150D01*
X154345000Y-118934150D01*
X154347000Y-118934150D01*
X154350000Y-118933150D01*
X154352000Y-118933150D01*
X154355000Y-118933150D01*
X154655000Y-118933150D01*
X154658000Y-118933150D01*
X154660000Y-118933150D01*
X154663000Y-118934150D01*
G36*
X154663000Y-118934150D02*
G01*
X154665000Y-118934150D01*
X154668000Y-118935150D01*
X154670000Y-118935150D01*
X154673000Y-118936150D01*
X154675000Y-118937150D01*
X154678000Y-118938150D01*
X154680000Y-118940150D01*
X154682000Y-118941150D01*
X154684000Y-118943150D01*
X154686000Y-118944150D01*
X154688000Y-118946150D01*
X154690000Y-118948150D01*
X154692000Y-118950150D01*
X154694000Y-118952150D01*
X154695000Y-118954150D01*
X154697000Y-118956150D01*
X154698000Y-118958150D01*
X154700000Y-118960150D01*
X154701000Y-118963150D01*
X154702000Y-118965150D01*
X154703000Y-118968150D01*
X154703000Y-118970150D01*
X154704000Y-118973150D01*
X154704000Y-118975150D01*
X154705000Y-118978150D01*
X154705000Y-118980150D01*
X154705000Y-118983150D01*
X154705000Y-119583150D01*
X154705000Y-119586150D01*
X154705000Y-119588150D01*
X154704000Y-119591150D01*
X154704000Y-119593150D01*
X154703000Y-119596150D01*
X154703000Y-119598150D01*
X154702000Y-119601150D01*
X154701000Y-119603150D01*
X154700000Y-119606150D01*
X154698000Y-119608150D01*
X154697000Y-119610150D01*
X154695000Y-119612150D01*
X154694000Y-119614150D01*
X154692000Y-119616150D01*
X154690000Y-119618150D01*
X154688000Y-119620150D01*
X154686000Y-119622150D01*
X154684000Y-119623150D01*
X154682000Y-119625150D01*
X154680000Y-119626150D01*
X154678000Y-119628150D01*
X154675000Y-119629150D01*
X154673000Y-119630150D01*
X154670000Y-119631150D01*
X154668000Y-119631150D01*
X154665000Y-119632150D01*
X154663000Y-119632150D01*
X154660000Y-119633150D01*
X154658000Y-119633150D01*
X154655000Y-119633150D01*
X154355000Y-119633150D01*
X154352000Y-119633150D01*
X154350000Y-119633150D01*
X154347000Y-119632150D01*
X154345000Y-119632150D01*
X154342000Y-119631150D01*
X154340000Y-119631150D01*
X154337000Y-119630150D01*
X154335000Y-119629150D01*
X154332000Y-119628150D01*
X154330000Y-119626150D01*
X154328000Y-119625150D01*
X154326000Y-119623150D01*
X154324000Y-119622150D01*
X154322000Y-119620150D01*
X154320000Y-119618150D01*
X154318000Y-119616150D01*
X154316000Y-119614150D01*
X154315000Y-119612150D01*
X154313000Y-119610150D01*
X154312000Y-119608150D01*
X154310000Y-119606150D01*
X154309000Y-119603150D01*
X154308000Y-119601150D01*
X154307000Y-119598150D01*
X154307000Y-119596150D01*
X154306000Y-119593150D01*
X154306000Y-119591150D01*
X154305000Y-119588150D01*
X154305000Y-119586150D01*
X154305000Y-119583150D01*
X154305000Y-118983150D01*
X154305000Y-118980150D01*
X154305000Y-118978150D01*
X154306000Y-118975150D01*
X154306000Y-118973150D01*
X154307000Y-118970150D01*
X154307000Y-118968150D01*
X154308000Y-118965150D01*
X154309000Y-118963150D01*
X154310000Y-118960150D01*
X154312000Y-118958150D01*
X154313000Y-118956150D01*
X154315000Y-118954150D01*
X154316000Y-118952150D01*
X154318000Y-118950150D01*
X154320000Y-118948150D01*
X154322000Y-118946150D01*
X154324000Y-118944150D01*
X154326000Y-118943150D01*
X154328000Y-118941150D01*
X154330000Y-118940150D01*
X154332000Y-118938150D01*
X154335000Y-118937150D01*
X154337000Y-118936150D01*
X154340000Y-118935150D01*
X154342000Y-118935150D01*
X154345000Y-118934150D01*
X154347000Y-118934150D01*
X154350000Y-118933150D01*
X154352000Y-118933150D01*
X154355000Y-118933150D01*
X154655000Y-118933150D01*
X154658000Y-118933150D01*
X154660000Y-118933150D01*
X154663000Y-118934150D01*
G37*
X155363000Y-118934150D02*
X155365000Y-118934150D01*
X155368000Y-118935150D01*
X155370000Y-118935150D01*
X155373000Y-118936150D01*
X155375000Y-118937150D01*
X155378000Y-118938150D01*
X155380000Y-118940150D01*
X155382000Y-118941150D01*
X155384000Y-118943150D01*
X155386000Y-118944150D01*
X155388000Y-118946150D01*
X155390000Y-118948150D01*
X155392000Y-118950150D01*
X155394000Y-118952150D01*
X155395000Y-118954150D01*
X155397000Y-118956150D01*
X155398000Y-118958150D01*
X155400000Y-118960150D01*
X155401000Y-118963150D01*
X155402000Y-118965150D01*
X155403000Y-118968150D01*
X155403000Y-118970150D01*
X155404000Y-118973150D01*
X155404000Y-118975150D01*
X155405000Y-118978150D01*
X155405000Y-118980150D01*
X155405000Y-118983150D01*
X155405000Y-119583150D01*
X155405000Y-119586150D01*
X155405000Y-119588150D01*
X155404000Y-119591150D01*
X155404000Y-119593150D01*
X155403000Y-119596150D01*
X155403000Y-119598150D01*
X155402000Y-119601150D01*
X155401000Y-119603150D01*
X155400000Y-119606150D01*
X155398000Y-119608150D01*
X155397000Y-119610150D01*
X155395000Y-119612150D01*
X155394000Y-119614150D01*
X155392000Y-119616150D01*
X155390000Y-119618150D01*
X155388000Y-119620150D01*
X155386000Y-119622150D01*
X155384000Y-119623150D01*
X155382000Y-119625150D01*
X155380000Y-119626150D01*
X155378000Y-119628150D01*
X155375000Y-119629150D01*
X155373000Y-119630150D01*
X155370000Y-119631150D01*
X155368000Y-119631150D01*
X155365000Y-119632150D01*
X155363000Y-119632150D01*
X155360000Y-119633150D01*
X155358000Y-119633150D01*
X155355000Y-119633150D01*
X155055000Y-119633150D01*
X155052000Y-119633150D01*
X155050000Y-119633150D01*
X155047000Y-119632150D01*
X155045000Y-119632150D01*
X155042000Y-119631150D01*
X155040000Y-119631150D01*
X155037000Y-119630150D01*
X155035000Y-119629150D01*
X155032000Y-119628150D01*
X155030000Y-119626150D01*
X155028000Y-119625150D01*
X155026000Y-119623150D01*
X155024000Y-119622150D01*
X155022000Y-119620150D01*
X155020000Y-119618150D01*
X155018000Y-119616150D01*
X155016000Y-119614150D01*
X155015000Y-119612150D01*
X155013000Y-119610150D01*
X155012000Y-119608150D01*
X155010000Y-119606150D01*
X155009000Y-119603150D01*
X155008000Y-119601150D01*
X155007000Y-119598150D01*
X155007000Y-119596150D01*
X155006000Y-119593150D01*
X155006000Y-119591150D01*
X155005000Y-119588150D01*
X155005000Y-119586150D01*
X155005000Y-119583150D01*
X155005000Y-118983150D01*
X155005000Y-118980150D01*
X155005000Y-118978150D01*
X155006000Y-118975150D01*
X155006000Y-118973150D01*
X155007000Y-118970150D01*
X155007000Y-118968150D01*
X155008000Y-118965150D01*
X155009000Y-118963150D01*
X155010000Y-118960150D01*
X155012000Y-118958150D01*
X155013000Y-118956150D01*
X155015000Y-118954150D01*
X155016000Y-118952150D01*
X155018000Y-118950150D01*
X155020000Y-118948150D01*
X155022000Y-118946150D01*
X155024000Y-118944150D01*
X155026000Y-118943150D01*
X155028000Y-118941150D01*
X155030000Y-118940150D01*
X155032000Y-118938150D01*
X155035000Y-118937150D01*
X155037000Y-118936150D01*
X155040000Y-118935150D01*
X155042000Y-118935150D01*
X155045000Y-118934150D01*
X155047000Y-118934150D01*
X155050000Y-118933150D01*
X155052000Y-118933150D01*
X155055000Y-118933150D01*
X155355000Y-118933150D01*
X155358000Y-118933150D01*
X155360000Y-118933150D01*
X155363000Y-118934150D01*
G36*
X155363000Y-118934150D02*
G01*
X155365000Y-118934150D01*
X155368000Y-118935150D01*
X155370000Y-118935150D01*
X155373000Y-118936150D01*
X155375000Y-118937150D01*
X155378000Y-118938150D01*
X155380000Y-118940150D01*
X155382000Y-118941150D01*
X155384000Y-118943150D01*
X155386000Y-118944150D01*
X155388000Y-118946150D01*
X155390000Y-118948150D01*
X155392000Y-118950150D01*
X155394000Y-118952150D01*
X155395000Y-118954150D01*
X155397000Y-118956150D01*
X155398000Y-118958150D01*
X155400000Y-118960150D01*
X155401000Y-118963150D01*
X155402000Y-118965150D01*
X155403000Y-118968150D01*
X155403000Y-118970150D01*
X155404000Y-118973150D01*
X155404000Y-118975150D01*
X155405000Y-118978150D01*
X155405000Y-118980150D01*
X155405000Y-118983150D01*
X155405000Y-119583150D01*
X155405000Y-119586150D01*
X155405000Y-119588150D01*
X155404000Y-119591150D01*
X155404000Y-119593150D01*
X155403000Y-119596150D01*
X155403000Y-119598150D01*
X155402000Y-119601150D01*
X155401000Y-119603150D01*
X155400000Y-119606150D01*
X155398000Y-119608150D01*
X155397000Y-119610150D01*
X155395000Y-119612150D01*
X155394000Y-119614150D01*
X155392000Y-119616150D01*
X155390000Y-119618150D01*
X155388000Y-119620150D01*
X155386000Y-119622150D01*
X155384000Y-119623150D01*
X155382000Y-119625150D01*
X155380000Y-119626150D01*
X155378000Y-119628150D01*
X155375000Y-119629150D01*
X155373000Y-119630150D01*
X155370000Y-119631150D01*
X155368000Y-119631150D01*
X155365000Y-119632150D01*
X155363000Y-119632150D01*
X155360000Y-119633150D01*
X155358000Y-119633150D01*
X155355000Y-119633150D01*
X155055000Y-119633150D01*
X155052000Y-119633150D01*
X155050000Y-119633150D01*
X155047000Y-119632150D01*
X155045000Y-119632150D01*
X155042000Y-119631150D01*
X155040000Y-119631150D01*
X155037000Y-119630150D01*
X155035000Y-119629150D01*
X155032000Y-119628150D01*
X155030000Y-119626150D01*
X155028000Y-119625150D01*
X155026000Y-119623150D01*
X155024000Y-119622150D01*
X155022000Y-119620150D01*
X155020000Y-119618150D01*
X155018000Y-119616150D01*
X155016000Y-119614150D01*
X155015000Y-119612150D01*
X155013000Y-119610150D01*
X155012000Y-119608150D01*
X155010000Y-119606150D01*
X155009000Y-119603150D01*
X155008000Y-119601150D01*
X155007000Y-119598150D01*
X155007000Y-119596150D01*
X155006000Y-119593150D01*
X155006000Y-119591150D01*
X155005000Y-119588150D01*
X155005000Y-119586150D01*
X155005000Y-119583150D01*
X155005000Y-118983150D01*
X155005000Y-118980150D01*
X155005000Y-118978150D01*
X155006000Y-118975150D01*
X155006000Y-118973150D01*
X155007000Y-118970150D01*
X155007000Y-118968150D01*
X155008000Y-118965150D01*
X155009000Y-118963150D01*
X155010000Y-118960150D01*
X155012000Y-118958150D01*
X155013000Y-118956150D01*
X155015000Y-118954150D01*
X155016000Y-118952150D01*
X155018000Y-118950150D01*
X155020000Y-118948150D01*
X155022000Y-118946150D01*
X155024000Y-118944150D01*
X155026000Y-118943150D01*
X155028000Y-118941150D01*
X155030000Y-118940150D01*
X155032000Y-118938150D01*
X155035000Y-118937150D01*
X155037000Y-118936150D01*
X155040000Y-118935150D01*
X155042000Y-118935150D01*
X155045000Y-118934150D01*
X155047000Y-118934150D01*
X155050000Y-118933150D01*
X155052000Y-118933150D01*
X155055000Y-118933150D01*
X155355000Y-118933150D01*
X155358000Y-118933150D01*
X155360000Y-118933150D01*
X155363000Y-118934150D01*
G37*
%TO.C,D2*%
X168563000Y-119051000D02*
X168565000Y-119051000D01*
X168568000Y-119052000D01*
X168570000Y-119052000D01*
X168573000Y-119053000D01*
X168575000Y-119054000D01*
X168578000Y-119055000D01*
X168580000Y-119057000D01*
X168582000Y-119058000D01*
X168584000Y-119060000D01*
X168586000Y-119061000D01*
X168588000Y-119063000D01*
X168590000Y-119065000D01*
X168592000Y-119067000D01*
X168594000Y-119069000D01*
X168595000Y-119071000D01*
X168597000Y-119073000D01*
X168598000Y-119075000D01*
X168600000Y-119077000D01*
X168601000Y-119080000D01*
X168602000Y-119082000D01*
X168603000Y-119085000D01*
X168603000Y-119087000D01*
X168604000Y-119090000D01*
X168604000Y-119092000D01*
X168605000Y-119095000D01*
X168605000Y-119097000D01*
X168605000Y-119100000D01*
X168605000Y-119700000D01*
X168605000Y-119703000D01*
X168605000Y-119705000D01*
X168604000Y-119708000D01*
X168604000Y-119710000D01*
X168603000Y-119713000D01*
X168603000Y-119715000D01*
X168602000Y-119718000D01*
X168601000Y-119720000D01*
X168600000Y-119723000D01*
X168598000Y-119725000D01*
X168597000Y-119727000D01*
X168595000Y-119729000D01*
X168594000Y-119731000D01*
X168592000Y-119733000D01*
X168590000Y-119735000D01*
X168588000Y-119737000D01*
X168586000Y-119739000D01*
X168584000Y-119740000D01*
X168582000Y-119742000D01*
X168580000Y-119743000D01*
X168578000Y-119745000D01*
X168575000Y-119746000D01*
X168573000Y-119747000D01*
X168570000Y-119748000D01*
X168568000Y-119748000D01*
X168565000Y-119749000D01*
X168563000Y-119749000D01*
X168560000Y-119750000D01*
X168558000Y-119750000D01*
X168555000Y-119750000D01*
X168255000Y-119750000D01*
X168252000Y-119750000D01*
X168250000Y-119750000D01*
X168247000Y-119749000D01*
X168245000Y-119749000D01*
X168242000Y-119748000D01*
X168240000Y-119748000D01*
X168237000Y-119747000D01*
X168235000Y-119746000D01*
X168232000Y-119745000D01*
X168230000Y-119743000D01*
X168228000Y-119742000D01*
X168226000Y-119740000D01*
X168224000Y-119739000D01*
X168222000Y-119737000D01*
X168220000Y-119735000D01*
X168218000Y-119733000D01*
X168216000Y-119731000D01*
X168215000Y-119729000D01*
X168213000Y-119727000D01*
X168212000Y-119725000D01*
X168210000Y-119723000D01*
X168209000Y-119720000D01*
X168208000Y-119718000D01*
X168207000Y-119715000D01*
X168207000Y-119713000D01*
X168206000Y-119710000D01*
X168206000Y-119708000D01*
X168205000Y-119705000D01*
X168205000Y-119703000D01*
X168205000Y-119700000D01*
X168205000Y-119100000D01*
X168205000Y-119097000D01*
X168205000Y-119095000D01*
X168206000Y-119092000D01*
X168206000Y-119090000D01*
X168207000Y-119087000D01*
X168207000Y-119085000D01*
X168208000Y-119082000D01*
X168209000Y-119080000D01*
X168210000Y-119077000D01*
X168212000Y-119075000D01*
X168213000Y-119073000D01*
X168215000Y-119071000D01*
X168216000Y-119069000D01*
X168218000Y-119067000D01*
X168220000Y-119065000D01*
X168222000Y-119063000D01*
X168224000Y-119061000D01*
X168226000Y-119060000D01*
X168228000Y-119058000D01*
X168230000Y-119057000D01*
X168232000Y-119055000D01*
X168235000Y-119054000D01*
X168237000Y-119053000D01*
X168240000Y-119052000D01*
X168242000Y-119052000D01*
X168245000Y-119051000D01*
X168247000Y-119051000D01*
X168250000Y-119050000D01*
X168252000Y-119050000D01*
X168255000Y-119050000D01*
X168555000Y-119050000D01*
X168558000Y-119050000D01*
X168560000Y-119050000D01*
X168563000Y-119051000D01*
G36*
X168563000Y-119051000D02*
G01*
X168565000Y-119051000D01*
X168568000Y-119052000D01*
X168570000Y-119052000D01*
X168573000Y-119053000D01*
X168575000Y-119054000D01*
X168578000Y-119055000D01*
X168580000Y-119057000D01*
X168582000Y-119058000D01*
X168584000Y-119060000D01*
X168586000Y-119061000D01*
X168588000Y-119063000D01*
X168590000Y-119065000D01*
X168592000Y-119067000D01*
X168594000Y-119069000D01*
X168595000Y-119071000D01*
X168597000Y-119073000D01*
X168598000Y-119075000D01*
X168600000Y-119077000D01*
X168601000Y-119080000D01*
X168602000Y-119082000D01*
X168603000Y-119085000D01*
X168603000Y-119087000D01*
X168604000Y-119090000D01*
X168604000Y-119092000D01*
X168605000Y-119095000D01*
X168605000Y-119097000D01*
X168605000Y-119100000D01*
X168605000Y-119700000D01*
X168605000Y-119703000D01*
X168605000Y-119705000D01*
X168604000Y-119708000D01*
X168604000Y-119710000D01*
X168603000Y-119713000D01*
X168603000Y-119715000D01*
X168602000Y-119718000D01*
X168601000Y-119720000D01*
X168600000Y-119723000D01*
X168598000Y-119725000D01*
X168597000Y-119727000D01*
X168595000Y-119729000D01*
X168594000Y-119731000D01*
X168592000Y-119733000D01*
X168590000Y-119735000D01*
X168588000Y-119737000D01*
X168586000Y-119739000D01*
X168584000Y-119740000D01*
X168582000Y-119742000D01*
X168580000Y-119743000D01*
X168578000Y-119745000D01*
X168575000Y-119746000D01*
X168573000Y-119747000D01*
X168570000Y-119748000D01*
X168568000Y-119748000D01*
X168565000Y-119749000D01*
X168563000Y-119749000D01*
X168560000Y-119750000D01*
X168558000Y-119750000D01*
X168555000Y-119750000D01*
X168255000Y-119750000D01*
X168252000Y-119750000D01*
X168250000Y-119750000D01*
X168247000Y-119749000D01*
X168245000Y-119749000D01*
X168242000Y-119748000D01*
X168240000Y-119748000D01*
X168237000Y-119747000D01*
X168235000Y-119746000D01*
X168232000Y-119745000D01*
X168230000Y-119743000D01*
X168228000Y-119742000D01*
X168226000Y-119740000D01*
X168224000Y-119739000D01*
X168222000Y-119737000D01*
X168220000Y-119735000D01*
X168218000Y-119733000D01*
X168216000Y-119731000D01*
X168215000Y-119729000D01*
X168213000Y-119727000D01*
X168212000Y-119725000D01*
X168210000Y-119723000D01*
X168209000Y-119720000D01*
X168208000Y-119718000D01*
X168207000Y-119715000D01*
X168207000Y-119713000D01*
X168206000Y-119710000D01*
X168206000Y-119708000D01*
X168205000Y-119705000D01*
X168205000Y-119703000D01*
X168205000Y-119700000D01*
X168205000Y-119100000D01*
X168205000Y-119097000D01*
X168205000Y-119095000D01*
X168206000Y-119092000D01*
X168206000Y-119090000D01*
X168207000Y-119087000D01*
X168207000Y-119085000D01*
X168208000Y-119082000D01*
X168209000Y-119080000D01*
X168210000Y-119077000D01*
X168212000Y-119075000D01*
X168213000Y-119073000D01*
X168215000Y-119071000D01*
X168216000Y-119069000D01*
X168218000Y-119067000D01*
X168220000Y-119065000D01*
X168222000Y-119063000D01*
X168224000Y-119061000D01*
X168226000Y-119060000D01*
X168228000Y-119058000D01*
X168230000Y-119057000D01*
X168232000Y-119055000D01*
X168235000Y-119054000D01*
X168237000Y-119053000D01*
X168240000Y-119052000D01*
X168242000Y-119052000D01*
X168245000Y-119051000D01*
X168247000Y-119051000D01*
X168250000Y-119050000D01*
X168252000Y-119050000D01*
X168255000Y-119050000D01*
X168555000Y-119050000D01*
X168558000Y-119050000D01*
X168560000Y-119050000D01*
X168563000Y-119051000D01*
G37*
X169263000Y-119051000D02*
X169265000Y-119051000D01*
X169268000Y-119052000D01*
X169270000Y-119052000D01*
X169273000Y-119053000D01*
X169275000Y-119054000D01*
X169278000Y-119055000D01*
X169280000Y-119057000D01*
X169282000Y-119058000D01*
X169284000Y-119060000D01*
X169286000Y-119061000D01*
X169288000Y-119063000D01*
X169290000Y-119065000D01*
X169292000Y-119067000D01*
X169294000Y-119069000D01*
X169295000Y-119071000D01*
X169297000Y-119073000D01*
X169298000Y-119075000D01*
X169300000Y-119077000D01*
X169301000Y-119080000D01*
X169302000Y-119082000D01*
X169303000Y-119085000D01*
X169303000Y-119087000D01*
X169304000Y-119090000D01*
X169304000Y-119092000D01*
X169305000Y-119095000D01*
X169305000Y-119097000D01*
X169305000Y-119100000D01*
X169305000Y-119700000D01*
X169305000Y-119703000D01*
X169305000Y-119705000D01*
X169304000Y-119708000D01*
X169304000Y-119710000D01*
X169303000Y-119713000D01*
X169303000Y-119715000D01*
X169302000Y-119718000D01*
X169301000Y-119720000D01*
X169300000Y-119723000D01*
X169298000Y-119725000D01*
X169297000Y-119727000D01*
X169295000Y-119729000D01*
X169294000Y-119731000D01*
X169292000Y-119733000D01*
X169290000Y-119735000D01*
X169288000Y-119737000D01*
X169286000Y-119739000D01*
X169284000Y-119740000D01*
X169282000Y-119742000D01*
X169280000Y-119743000D01*
X169278000Y-119745000D01*
X169275000Y-119746000D01*
X169273000Y-119747000D01*
X169270000Y-119748000D01*
X169268000Y-119748000D01*
X169265000Y-119749000D01*
X169263000Y-119749000D01*
X169260000Y-119750000D01*
X169258000Y-119750000D01*
X169255000Y-119750000D01*
X168955000Y-119750000D01*
X168952000Y-119750000D01*
X168950000Y-119750000D01*
X168947000Y-119749000D01*
X168945000Y-119749000D01*
X168942000Y-119748000D01*
X168940000Y-119748000D01*
X168937000Y-119747000D01*
X168935000Y-119746000D01*
X168932000Y-119745000D01*
X168930000Y-119743000D01*
X168928000Y-119742000D01*
X168926000Y-119740000D01*
X168924000Y-119739000D01*
X168922000Y-119737000D01*
X168920000Y-119735000D01*
X168918000Y-119733000D01*
X168916000Y-119731000D01*
X168915000Y-119729000D01*
X168913000Y-119727000D01*
X168912000Y-119725000D01*
X168910000Y-119723000D01*
X168909000Y-119720000D01*
X168908000Y-119718000D01*
X168907000Y-119715000D01*
X168907000Y-119713000D01*
X168906000Y-119710000D01*
X168906000Y-119708000D01*
X168905000Y-119705000D01*
X168905000Y-119703000D01*
X168905000Y-119700000D01*
X168905000Y-119100000D01*
X168905000Y-119097000D01*
X168905000Y-119095000D01*
X168906000Y-119092000D01*
X168906000Y-119090000D01*
X168907000Y-119087000D01*
X168907000Y-119085000D01*
X168908000Y-119082000D01*
X168909000Y-119080000D01*
X168910000Y-119077000D01*
X168912000Y-119075000D01*
X168913000Y-119073000D01*
X168915000Y-119071000D01*
X168916000Y-119069000D01*
X168918000Y-119067000D01*
X168920000Y-119065000D01*
X168922000Y-119063000D01*
X168924000Y-119061000D01*
X168926000Y-119060000D01*
X168928000Y-119058000D01*
X168930000Y-119057000D01*
X168932000Y-119055000D01*
X168935000Y-119054000D01*
X168937000Y-119053000D01*
X168940000Y-119052000D01*
X168942000Y-119052000D01*
X168945000Y-119051000D01*
X168947000Y-119051000D01*
X168950000Y-119050000D01*
X168952000Y-119050000D01*
X168955000Y-119050000D01*
X169255000Y-119050000D01*
X169258000Y-119050000D01*
X169260000Y-119050000D01*
X169263000Y-119051000D01*
G36*
X169263000Y-119051000D02*
G01*
X169265000Y-119051000D01*
X169268000Y-119052000D01*
X169270000Y-119052000D01*
X169273000Y-119053000D01*
X169275000Y-119054000D01*
X169278000Y-119055000D01*
X169280000Y-119057000D01*
X169282000Y-119058000D01*
X169284000Y-119060000D01*
X169286000Y-119061000D01*
X169288000Y-119063000D01*
X169290000Y-119065000D01*
X169292000Y-119067000D01*
X169294000Y-119069000D01*
X169295000Y-119071000D01*
X169297000Y-119073000D01*
X169298000Y-119075000D01*
X169300000Y-119077000D01*
X169301000Y-119080000D01*
X169302000Y-119082000D01*
X169303000Y-119085000D01*
X169303000Y-119087000D01*
X169304000Y-119090000D01*
X169304000Y-119092000D01*
X169305000Y-119095000D01*
X169305000Y-119097000D01*
X169305000Y-119100000D01*
X169305000Y-119700000D01*
X169305000Y-119703000D01*
X169305000Y-119705000D01*
X169304000Y-119708000D01*
X169304000Y-119710000D01*
X169303000Y-119713000D01*
X169303000Y-119715000D01*
X169302000Y-119718000D01*
X169301000Y-119720000D01*
X169300000Y-119723000D01*
X169298000Y-119725000D01*
X169297000Y-119727000D01*
X169295000Y-119729000D01*
X169294000Y-119731000D01*
X169292000Y-119733000D01*
X169290000Y-119735000D01*
X169288000Y-119737000D01*
X169286000Y-119739000D01*
X169284000Y-119740000D01*
X169282000Y-119742000D01*
X169280000Y-119743000D01*
X169278000Y-119745000D01*
X169275000Y-119746000D01*
X169273000Y-119747000D01*
X169270000Y-119748000D01*
X169268000Y-119748000D01*
X169265000Y-119749000D01*
X169263000Y-119749000D01*
X169260000Y-119750000D01*
X169258000Y-119750000D01*
X169255000Y-119750000D01*
X168955000Y-119750000D01*
X168952000Y-119750000D01*
X168950000Y-119750000D01*
X168947000Y-119749000D01*
X168945000Y-119749000D01*
X168942000Y-119748000D01*
X168940000Y-119748000D01*
X168937000Y-119747000D01*
X168935000Y-119746000D01*
X168932000Y-119745000D01*
X168930000Y-119743000D01*
X168928000Y-119742000D01*
X168926000Y-119740000D01*
X168924000Y-119739000D01*
X168922000Y-119737000D01*
X168920000Y-119735000D01*
X168918000Y-119733000D01*
X168916000Y-119731000D01*
X168915000Y-119729000D01*
X168913000Y-119727000D01*
X168912000Y-119725000D01*
X168910000Y-119723000D01*
X168909000Y-119720000D01*
X168908000Y-119718000D01*
X168907000Y-119715000D01*
X168907000Y-119713000D01*
X168906000Y-119710000D01*
X168906000Y-119708000D01*
X168905000Y-119705000D01*
X168905000Y-119703000D01*
X168905000Y-119700000D01*
X168905000Y-119100000D01*
X168905000Y-119097000D01*
X168905000Y-119095000D01*
X168906000Y-119092000D01*
X168906000Y-119090000D01*
X168907000Y-119087000D01*
X168907000Y-119085000D01*
X168908000Y-119082000D01*
X168909000Y-119080000D01*
X168910000Y-119077000D01*
X168912000Y-119075000D01*
X168913000Y-119073000D01*
X168915000Y-119071000D01*
X168916000Y-119069000D01*
X168918000Y-119067000D01*
X168920000Y-119065000D01*
X168922000Y-119063000D01*
X168924000Y-119061000D01*
X168926000Y-119060000D01*
X168928000Y-119058000D01*
X168930000Y-119057000D01*
X168932000Y-119055000D01*
X168935000Y-119054000D01*
X168937000Y-119053000D01*
X168940000Y-119052000D01*
X168942000Y-119052000D01*
X168945000Y-119051000D01*
X168947000Y-119051000D01*
X168950000Y-119050000D01*
X168952000Y-119050000D01*
X168955000Y-119050000D01*
X169255000Y-119050000D01*
X169258000Y-119050000D01*
X169260000Y-119050000D01*
X169263000Y-119051000D01*
G37*
%TO.C,D3*%
X175493000Y-119066000D02*
X175495000Y-119066000D01*
X175498000Y-119067000D01*
X175500000Y-119067000D01*
X175503000Y-119068000D01*
X175505000Y-119069000D01*
X175508000Y-119070000D01*
X175510000Y-119072000D01*
X175512000Y-119073000D01*
X175514000Y-119075000D01*
X175516000Y-119076000D01*
X175518000Y-119078000D01*
X175520000Y-119080000D01*
X175522000Y-119082000D01*
X175524000Y-119084000D01*
X175525000Y-119086000D01*
X175527000Y-119088000D01*
X175528000Y-119090000D01*
X175530000Y-119092000D01*
X175531000Y-119095000D01*
X175532000Y-119097000D01*
X175533000Y-119100000D01*
X175533000Y-119102000D01*
X175534000Y-119105000D01*
X175534000Y-119107000D01*
X175535000Y-119110000D01*
X175535000Y-119112000D01*
X175535000Y-119115000D01*
X175535000Y-119715000D01*
X175535000Y-119718000D01*
X175535000Y-119720000D01*
X175534000Y-119723000D01*
X175534000Y-119725000D01*
X175533000Y-119728000D01*
X175533000Y-119730000D01*
X175532000Y-119733000D01*
X175531000Y-119735000D01*
X175530000Y-119738000D01*
X175528000Y-119740000D01*
X175527000Y-119742000D01*
X175525000Y-119744000D01*
X175524000Y-119746000D01*
X175522000Y-119748000D01*
X175520000Y-119750000D01*
X175518000Y-119752000D01*
X175516000Y-119754000D01*
X175514000Y-119755000D01*
X175512000Y-119757000D01*
X175510000Y-119758000D01*
X175508000Y-119760000D01*
X175505000Y-119761000D01*
X175503000Y-119762000D01*
X175500000Y-119763000D01*
X175498000Y-119763000D01*
X175495000Y-119764000D01*
X175493000Y-119764000D01*
X175490000Y-119765000D01*
X175488000Y-119765000D01*
X175485000Y-119765000D01*
X175185000Y-119765000D01*
X175182000Y-119765000D01*
X175180000Y-119765000D01*
X175177000Y-119764000D01*
X175175000Y-119764000D01*
X175172000Y-119763000D01*
X175170000Y-119763000D01*
X175167000Y-119762000D01*
X175165000Y-119761000D01*
X175162000Y-119760000D01*
X175160000Y-119758000D01*
X175158000Y-119757000D01*
X175156000Y-119755000D01*
X175154000Y-119754000D01*
X175152000Y-119752000D01*
X175150000Y-119750000D01*
X175148000Y-119748000D01*
X175146000Y-119746000D01*
X175145000Y-119744000D01*
X175143000Y-119742000D01*
X175142000Y-119740000D01*
X175140000Y-119738000D01*
X175139000Y-119735000D01*
X175138000Y-119733000D01*
X175137000Y-119730000D01*
X175137000Y-119728000D01*
X175136000Y-119725000D01*
X175136000Y-119723000D01*
X175135000Y-119720000D01*
X175135000Y-119718000D01*
X175135000Y-119715000D01*
X175135000Y-119115000D01*
X175135000Y-119112000D01*
X175135000Y-119110000D01*
X175136000Y-119107000D01*
X175136000Y-119105000D01*
X175137000Y-119102000D01*
X175137000Y-119100000D01*
X175138000Y-119097000D01*
X175139000Y-119095000D01*
X175140000Y-119092000D01*
X175142000Y-119090000D01*
X175143000Y-119088000D01*
X175145000Y-119086000D01*
X175146000Y-119084000D01*
X175148000Y-119082000D01*
X175150000Y-119080000D01*
X175152000Y-119078000D01*
X175154000Y-119076000D01*
X175156000Y-119075000D01*
X175158000Y-119073000D01*
X175160000Y-119072000D01*
X175162000Y-119070000D01*
X175165000Y-119069000D01*
X175167000Y-119068000D01*
X175170000Y-119067000D01*
X175172000Y-119067000D01*
X175175000Y-119066000D01*
X175177000Y-119066000D01*
X175180000Y-119065000D01*
X175182000Y-119065000D01*
X175185000Y-119065000D01*
X175485000Y-119065000D01*
X175488000Y-119065000D01*
X175490000Y-119065000D01*
X175493000Y-119066000D01*
G36*
X175493000Y-119066000D02*
G01*
X175495000Y-119066000D01*
X175498000Y-119067000D01*
X175500000Y-119067000D01*
X175503000Y-119068000D01*
X175505000Y-119069000D01*
X175508000Y-119070000D01*
X175510000Y-119072000D01*
X175512000Y-119073000D01*
X175514000Y-119075000D01*
X175516000Y-119076000D01*
X175518000Y-119078000D01*
X175520000Y-119080000D01*
X175522000Y-119082000D01*
X175524000Y-119084000D01*
X175525000Y-119086000D01*
X175527000Y-119088000D01*
X175528000Y-119090000D01*
X175530000Y-119092000D01*
X175531000Y-119095000D01*
X175532000Y-119097000D01*
X175533000Y-119100000D01*
X175533000Y-119102000D01*
X175534000Y-119105000D01*
X175534000Y-119107000D01*
X175535000Y-119110000D01*
X175535000Y-119112000D01*
X175535000Y-119115000D01*
X175535000Y-119715000D01*
X175535000Y-119718000D01*
X175535000Y-119720000D01*
X175534000Y-119723000D01*
X175534000Y-119725000D01*
X175533000Y-119728000D01*
X175533000Y-119730000D01*
X175532000Y-119733000D01*
X175531000Y-119735000D01*
X175530000Y-119738000D01*
X175528000Y-119740000D01*
X175527000Y-119742000D01*
X175525000Y-119744000D01*
X175524000Y-119746000D01*
X175522000Y-119748000D01*
X175520000Y-119750000D01*
X175518000Y-119752000D01*
X175516000Y-119754000D01*
X175514000Y-119755000D01*
X175512000Y-119757000D01*
X175510000Y-119758000D01*
X175508000Y-119760000D01*
X175505000Y-119761000D01*
X175503000Y-119762000D01*
X175500000Y-119763000D01*
X175498000Y-119763000D01*
X175495000Y-119764000D01*
X175493000Y-119764000D01*
X175490000Y-119765000D01*
X175488000Y-119765000D01*
X175485000Y-119765000D01*
X175185000Y-119765000D01*
X175182000Y-119765000D01*
X175180000Y-119765000D01*
X175177000Y-119764000D01*
X175175000Y-119764000D01*
X175172000Y-119763000D01*
X175170000Y-119763000D01*
X175167000Y-119762000D01*
X175165000Y-119761000D01*
X175162000Y-119760000D01*
X175160000Y-119758000D01*
X175158000Y-119757000D01*
X175156000Y-119755000D01*
X175154000Y-119754000D01*
X175152000Y-119752000D01*
X175150000Y-119750000D01*
X175148000Y-119748000D01*
X175146000Y-119746000D01*
X175145000Y-119744000D01*
X175143000Y-119742000D01*
X175142000Y-119740000D01*
X175140000Y-119738000D01*
X175139000Y-119735000D01*
X175138000Y-119733000D01*
X175137000Y-119730000D01*
X175137000Y-119728000D01*
X175136000Y-119725000D01*
X175136000Y-119723000D01*
X175135000Y-119720000D01*
X175135000Y-119718000D01*
X175135000Y-119715000D01*
X175135000Y-119115000D01*
X175135000Y-119112000D01*
X175135000Y-119110000D01*
X175136000Y-119107000D01*
X175136000Y-119105000D01*
X175137000Y-119102000D01*
X175137000Y-119100000D01*
X175138000Y-119097000D01*
X175139000Y-119095000D01*
X175140000Y-119092000D01*
X175142000Y-119090000D01*
X175143000Y-119088000D01*
X175145000Y-119086000D01*
X175146000Y-119084000D01*
X175148000Y-119082000D01*
X175150000Y-119080000D01*
X175152000Y-119078000D01*
X175154000Y-119076000D01*
X175156000Y-119075000D01*
X175158000Y-119073000D01*
X175160000Y-119072000D01*
X175162000Y-119070000D01*
X175165000Y-119069000D01*
X175167000Y-119068000D01*
X175170000Y-119067000D01*
X175172000Y-119067000D01*
X175175000Y-119066000D01*
X175177000Y-119066000D01*
X175180000Y-119065000D01*
X175182000Y-119065000D01*
X175185000Y-119065000D01*
X175485000Y-119065000D01*
X175488000Y-119065000D01*
X175490000Y-119065000D01*
X175493000Y-119066000D01*
G37*
X176193000Y-119066000D02*
X176195000Y-119066000D01*
X176198000Y-119067000D01*
X176200000Y-119067000D01*
X176203000Y-119068000D01*
X176205000Y-119069000D01*
X176208000Y-119070000D01*
X176210000Y-119072000D01*
X176212000Y-119073000D01*
X176214000Y-119075000D01*
X176216000Y-119076000D01*
X176218000Y-119078000D01*
X176220000Y-119080000D01*
X176222000Y-119082000D01*
X176224000Y-119084000D01*
X176225000Y-119086000D01*
X176227000Y-119088000D01*
X176228000Y-119090000D01*
X176230000Y-119092000D01*
X176231000Y-119095000D01*
X176232000Y-119097000D01*
X176233000Y-119100000D01*
X176233000Y-119102000D01*
X176234000Y-119105000D01*
X176234000Y-119107000D01*
X176235000Y-119110000D01*
X176235000Y-119112000D01*
X176235000Y-119115000D01*
X176235000Y-119715000D01*
X176235000Y-119718000D01*
X176235000Y-119720000D01*
X176234000Y-119723000D01*
X176234000Y-119725000D01*
X176233000Y-119728000D01*
X176233000Y-119730000D01*
X176232000Y-119733000D01*
X176231000Y-119735000D01*
X176230000Y-119738000D01*
X176228000Y-119740000D01*
X176227000Y-119742000D01*
X176225000Y-119744000D01*
X176224000Y-119746000D01*
X176222000Y-119748000D01*
X176220000Y-119750000D01*
X176218000Y-119752000D01*
X176216000Y-119754000D01*
X176214000Y-119755000D01*
X176212000Y-119757000D01*
X176210000Y-119758000D01*
X176208000Y-119760000D01*
X176205000Y-119761000D01*
X176203000Y-119762000D01*
X176200000Y-119763000D01*
X176198000Y-119763000D01*
X176195000Y-119764000D01*
X176193000Y-119764000D01*
X176190000Y-119765000D01*
X176188000Y-119765000D01*
X176185000Y-119765000D01*
X175885000Y-119765000D01*
X175882000Y-119765000D01*
X175880000Y-119765000D01*
X175877000Y-119764000D01*
X175875000Y-119764000D01*
X175872000Y-119763000D01*
X175870000Y-119763000D01*
X175867000Y-119762000D01*
X175865000Y-119761000D01*
X175862000Y-119760000D01*
X175860000Y-119758000D01*
X175858000Y-119757000D01*
X175856000Y-119755000D01*
X175854000Y-119754000D01*
X175852000Y-119752000D01*
X175850000Y-119750000D01*
X175848000Y-119748000D01*
X175846000Y-119746000D01*
X175845000Y-119744000D01*
X175843000Y-119742000D01*
X175842000Y-119740000D01*
X175840000Y-119738000D01*
X175839000Y-119735000D01*
X175838000Y-119733000D01*
X175837000Y-119730000D01*
X175837000Y-119728000D01*
X175836000Y-119725000D01*
X175836000Y-119723000D01*
X175835000Y-119720000D01*
X175835000Y-119718000D01*
X175835000Y-119715000D01*
X175835000Y-119115000D01*
X175835000Y-119112000D01*
X175835000Y-119110000D01*
X175836000Y-119107000D01*
X175836000Y-119105000D01*
X175837000Y-119102000D01*
X175837000Y-119100000D01*
X175838000Y-119097000D01*
X175839000Y-119095000D01*
X175840000Y-119092000D01*
X175842000Y-119090000D01*
X175843000Y-119088000D01*
X175845000Y-119086000D01*
X175846000Y-119084000D01*
X175848000Y-119082000D01*
X175850000Y-119080000D01*
X175852000Y-119078000D01*
X175854000Y-119076000D01*
X175856000Y-119075000D01*
X175858000Y-119073000D01*
X175860000Y-119072000D01*
X175862000Y-119070000D01*
X175865000Y-119069000D01*
X175867000Y-119068000D01*
X175870000Y-119067000D01*
X175872000Y-119067000D01*
X175875000Y-119066000D01*
X175877000Y-119066000D01*
X175880000Y-119065000D01*
X175882000Y-119065000D01*
X175885000Y-119065000D01*
X176185000Y-119065000D01*
X176188000Y-119065000D01*
X176190000Y-119065000D01*
X176193000Y-119066000D01*
G36*
X176193000Y-119066000D02*
G01*
X176195000Y-119066000D01*
X176198000Y-119067000D01*
X176200000Y-119067000D01*
X176203000Y-119068000D01*
X176205000Y-119069000D01*
X176208000Y-119070000D01*
X176210000Y-119072000D01*
X176212000Y-119073000D01*
X176214000Y-119075000D01*
X176216000Y-119076000D01*
X176218000Y-119078000D01*
X176220000Y-119080000D01*
X176222000Y-119082000D01*
X176224000Y-119084000D01*
X176225000Y-119086000D01*
X176227000Y-119088000D01*
X176228000Y-119090000D01*
X176230000Y-119092000D01*
X176231000Y-119095000D01*
X176232000Y-119097000D01*
X176233000Y-119100000D01*
X176233000Y-119102000D01*
X176234000Y-119105000D01*
X176234000Y-119107000D01*
X176235000Y-119110000D01*
X176235000Y-119112000D01*
X176235000Y-119115000D01*
X176235000Y-119715000D01*
X176235000Y-119718000D01*
X176235000Y-119720000D01*
X176234000Y-119723000D01*
X176234000Y-119725000D01*
X176233000Y-119728000D01*
X176233000Y-119730000D01*
X176232000Y-119733000D01*
X176231000Y-119735000D01*
X176230000Y-119738000D01*
X176228000Y-119740000D01*
X176227000Y-119742000D01*
X176225000Y-119744000D01*
X176224000Y-119746000D01*
X176222000Y-119748000D01*
X176220000Y-119750000D01*
X176218000Y-119752000D01*
X176216000Y-119754000D01*
X176214000Y-119755000D01*
X176212000Y-119757000D01*
X176210000Y-119758000D01*
X176208000Y-119760000D01*
X176205000Y-119761000D01*
X176203000Y-119762000D01*
X176200000Y-119763000D01*
X176198000Y-119763000D01*
X176195000Y-119764000D01*
X176193000Y-119764000D01*
X176190000Y-119765000D01*
X176188000Y-119765000D01*
X176185000Y-119765000D01*
X175885000Y-119765000D01*
X175882000Y-119765000D01*
X175880000Y-119765000D01*
X175877000Y-119764000D01*
X175875000Y-119764000D01*
X175872000Y-119763000D01*
X175870000Y-119763000D01*
X175867000Y-119762000D01*
X175865000Y-119761000D01*
X175862000Y-119760000D01*
X175860000Y-119758000D01*
X175858000Y-119757000D01*
X175856000Y-119755000D01*
X175854000Y-119754000D01*
X175852000Y-119752000D01*
X175850000Y-119750000D01*
X175848000Y-119748000D01*
X175846000Y-119746000D01*
X175845000Y-119744000D01*
X175843000Y-119742000D01*
X175842000Y-119740000D01*
X175840000Y-119738000D01*
X175839000Y-119735000D01*
X175838000Y-119733000D01*
X175837000Y-119730000D01*
X175837000Y-119728000D01*
X175836000Y-119725000D01*
X175836000Y-119723000D01*
X175835000Y-119720000D01*
X175835000Y-119718000D01*
X175835000Y-119715000D01*
X175835000Y-119115000D01*
X175835000Y-119112000D01*
X175835000Y-119110000D01*
X175836000Y-119107000D01*
X175836000Y-119105000D01*
X175837000Y-119102000D01*
X175837000Y-119100000D01*
X175838000Y-119097000D01*
X175839000Y-119095000D01*
X175840000Y-119092000D01*
X175842000Y-119090000D01*
X175843000Y-119088000D01*
X175845000Y-119086000D01*
X175846000Y-119084000D01*
X175848000Y-119082000D01*
X175850000Y-119080000D01*
X175852000Y-119078000D01*
X175854000Y-119076000D01*
X175856000Y-119075000D01*
X175858000Y-119073000D01*
X175860000Y-119072000D01*
X175862000Y-119070000D01*
X175865000Y-119069000D01*
X175867000Y-119068000D01*
X175870000Y-119067000D01*
X175872000Y-119067000D01*
X175875000Y-119066000D01*
X175877000Y-119066000D01*
X175880000Y-119065000D01*
X175882000Y-119065000D01*
X175885000Y-119065000D01*
X176185000Y-119065000D01*
X176188000Y-119065000D01*
X176190000Y-119065000D01*
X176193000Y-119066000D01*
G37*
%TO.C,D5*%
X156596500Y-53271395D02*
X156598500Y-53271395D01*
X156601500Y-53272395D01*
X156603500Y-53272395D01*
X156606500Y-53273395D01*
X156608500Y-53274395D01*
X156611500Y-53275395D01*
X156613500Y-53277395D01*
X156615500Y-53278395D01*
X156617500Y-53280395D01*
X156619500Y-53281395D01*
X156621500Y-53283395D01*
X156623500Y-53285395D01*
X156625500Y-53287395D01*
X156627500Y-53289395D01*
X156628500Y-53291395D01*
X156630500Y-53293395D01*
X156631500Y-53295395D01*
X156633500Y-53297395D01*
X156634500Y-53300395D01*
X156635500Y-53302395D01*
X156636500Y-53305395D01*
X156636500Y-53307395D01*
X156637500Y-53310395D01*
X156637500Y-53312395D01*
X156638500Y-53315395D01*
X156638500Y-53317395D01*
X156638500Y-53320395D01*
X156638500Y-53920395D01*
X156638500Y-53923395D01*
X156638500Y-53925395D01*
X156637500Y-53928395D01*
X156637500Y-53930395D01*
X156636500Y-53933395D01*
X156636500Y-53935395D01*
X156635500Y-53938395D01*
X156634500Y-53940395D01*
X156633500Y-53943395D01*
X156631500Y-53945395D01*
X156630500Y-53947395D01*
X156628500Y-53949395D01*
X156627500Y-53951395D01*
X156625500Y-53953395D01*
X156623500Y-53955395D01*
X156621500Y-53957395D01*
X156619500Y-53959395D01*
X156617500Y-53960395D01*
X156615500Y-53962395D01*
X156613500Y-53963395D01*
X156611500Y-53965395D01*
X156608500Y-53966395D01*
X156606500Y-53967395D01*
X156603500Y-53968395D01*
X156601500Y-53968395D01*
X156598500Y-53969395D01*
X156596500Y-53969395D01*
X156593500Y-53970395D01*
X156591500Y-53970395D01*
X156588500Y-53970395D01*
X156288500Y-53970395D01*
X156285500Y-53970395D01*
X156283500Y-53970395D01*
X156280500Y-53969395D01*
X156278500Y-53969395D01*
X156275500Y-53968395D01*
X156273500Y-53968395D01*
X156270500Y-53967395D01*
X156268500Y-53966395D01*
X156265500Y-53965395D01*
X156263500Y-53963395D01*
X156261500Y-53962395D01*
X156259500Y-53960395D01*
X156257500Y-53959395D01*
X156255500Y-53957395D01*
X156253500Y-53955395D01*
X156251500Y-53953395D01*
X156249500Y-53951395D01*
X156248500Y-53949395D01*
X156246500Y-53947395D01*
X156245500Y-53945395D01*
X156243500Y-53943395D01*
X156242500Y-53940395D01*
X156241500Y-53938395D01*
X156240500Y-53935395D01*
X156240500Y-53933395D01*
X156239500Y-53930395D01*
X156239500Y-53928395D01*
X156238500Y-53925395D01*
X156238500Y-53923395D01*
X156238500Y-53920395D01*
X156238500Y-53320395D01*
X156238500Y-53317395D01*
X156238500Y-53315395D01*
X156239500Y-53312395D01*
X156239500Y-53310395D01*
X156240500Y-53307395D01*
X156240500Y-53305395D01*
X156241500Y-53302395D01*
X156242500Y-53300395D01*
X156243500Y-53297395D01*
X156245500Y-53295395D01*
X156246500Y-53293395D01*
X156248500Y-53291395D01*
X156249500Y-53289395D01*
X156251500Y-53287395D01*
X156253500Y-53285395D01*
X156255500Y-53283395D01*
X156257500Y-53281395D01*
X156259500Y-53280395D01*
X156261500Y-53278395D01*
X156263500Y-53277395D01*
X156265500Y-53275395D01*
X156268500Y-53274395D01*
X156270500Y-53273395D01*
X156273500Y-53272395D01*
X156275500Y-53272395D01*
X156278500Y-53271395D01*
X156280500Y-53271395D01*
X156283500Y-53270395D01*
X156285500Y-53270395D01*
X156288500Y-53270395D01*
X156588500Y-53270395D01*
X156591500Y-53270395D01*
X156593500Y-53270395D01*
X156596500Y-53271395D01*
G36*
X156596500Y-53271395D02*
G01*
X156598500Y-53271395D01*
X156601500Y-53272395D01*
X156603500Y-53272395D01*
X156606500Y-53273395D01*
X156608500Y-53274395D01*
X156611500Y-53275395D01*
X156613500Y-53277395D01*
X156615500Y-53278395D01*
X156617500Y-53280395D01*
X156619500Y-53281395D01*
X156621500Y-53283395D01*
X156623500Y-53285395D01*
X156625500Y-53287395D01*
X156627500Y-53289395D01*
X156628500Y-53291395D01*
X156630500Y-53293395D01*
X156631500Y-53295395D01*
X156633500Y-53297395D01*
X156634500Y-53300395D01*
X156635500Y-53302395D01*
X156636500Y-53305395D01*
X156636500Y-53307395D01*
X156637500Y-53310395D01*
X156637500Y-53312395D01*
X156638500Y-53315395D01*
X156638500Y-53317395D01*
X156638500Y-53320395D01*
X156638500Y-53920395D01*
X156638500Y-53923395D01*
X156638500Y-53925395D01*
X156637500Y-53928395D01*
X156637500Y-53930395D01*
X156636500Y-53933395D01*
X156636500Y-53935395D01*
X156635500Y-53938395D01*
X156634500Y-53940395D01*
X156633500Y-53943395D01*
X156631500Y-53945395D01*
X156630500Y-53947395D01*
X156628500Y-53949395D01*
X156627500Y-53951395D01*
X156625500Y-53953395D01*
X156623500Y-53955395D01*
X156621500Y-53957395D01*
X156619500Y-53959395D01*
X156617500Y-53960395D01*
X156615500Y-53962395D01*
X156613500Y-53963395D01*
X156611500Y-53965395D01*
X156608500Y-53966395D01*
X156606500Y-53967395D01*
X156603500Y-53968395D01*
X156601500Y-53968395D01*
X156598500Y-53969395D01*
X156596500Y-53969395D01*
X156593500Y-53970395D01*
X156591500Y-53970395D01*
X156588500Y-53970395D01*
X156288500Y-53970395D01*
X156285500Y-53970395D01*
X156283500Y-53970395D01*
X156280500Y-53969395D01*
X156278500Y-53969395D01*
X156275500Y-53968395D01*
X156273500Y-53968395D01*
X156270500Y-53967395D01*
X156268500Y-53966395D01*
X156265500Y-53965395D01*
X156263500Y-53963395D01*
X156261500Y-53962395D01*
X156259500Y-53960395D01*
X156257500Y-53959395D01*
X156255500Y-53957395D01*
X156253500Y-53955395D01*
X156251500Y-53953395D01*
X156249500Y-53951395D01*
X156248500Y-53949395D01*
X156246500Y-53947395D01*
X156245500Y-53945395D01*
X156243500Y-53943395D01*
X156242500Y-53940395D01*
X156241500Y-53938395D01*
X156240500Y-53935395D01*
X156240500Y-53933395D01*
X156239500Y-53930395D01*
X156239500Y-53928395D01*
X156238500Y-53925395D01*
X156238500Y-53923395D01*
X156238500Y-53920395D01*
X156238500Y-53320395D01*
X156238500Y-53317395D01*
X156238500Y-53315395D01*
X156239500Y-53312395D01*
X156239500Y-53310395D01*
X156240500Y-53307395D01*
X156240500Y-53305395D01*
X156241500Y-53302395D01*
X156242500Y-53300395D01*
X156243500Y-53297395D01*
X156245500Y-53295395D01*
X156246500Y-53293395D01*
X156248500Y-53291395D01*
X156249500Y-53289395D01*
X156251500Y-53287395D01*
X156253500Y-53285395D01*
X156255500Y-53283395D01*
X156257500Y-53281395D01*
X156259500Y-53280395D01*
X156261500Y-53278395D01*
X156263500Y-53277395D01*
X156265500Y-53275395D01*
X156268500Y-53274395D01*
X156270500Y-53273395D01*
X156273500Y-53272395D01*
X156275500Y-53272395D01*
X156278500Y-53271395D01*
X156280500Y-53271395D01*
X156283500Y-53270395D01*
X156285500Y-53270395D01*
X156288500Y-53270395D01*
X156588500Y-53270395D01*
X156591500Y-53270395D01*
X156593500Y-53270395D01*
X156596500Y-53271395D01*
G37*
X157296500Y-53271395D02*
X157298500Y-53271395D01*
X157301500Y-53272395D01*
X157303500Y-53272395D01*
X157306500Y-53273395D01*
X157308500Y-53274395D01*
X157311500Y-53275395D01*
X157313500Y-53277395D01*
X157315500Y-53278395D01*
X157317500Y-53280395D01*
X157319500Y-53281395D01*
X157321500Y-53283395D01*
X157323500Y-53285395D01*
X157325500Y-53287395D01*
X157327500Y-53289395D01*
X157328500Y-53291395D01*
X157330500Y-53293395D01*
X157331500Y-53295395D01*
X157333500Y-53297395D01*
X157334500Y-53300395D01*
X157335500Y-53302395D01*
X157336500Y-53305395D01*
X157336500Y-53307395D01*
X157337500Y-53310395D01*
X157337500Y-53312395D01*
X157338500Y-53315395D01*
X157338500Y-53317395D01*
X157338500Y-53320395D01*
X157338500Y-53920395D01*
X157338500Y-53923395D01*
X157338500Y-53925395D01*
X157337500Y-53928395D01*
X157337500Y-53930395D01*
X157336500Y-53933395D01*
X157336500Y-53935395D01*
X157335500Y-53938395D01*
X157334500Y-53940395D01*
X157333500Y-53943395D01*
X157331500Y-53945395D01*
X157330500Y-53947395D01*
X157328500Y-53949395D01*
X157327500Y-53951395D01*
X157325500Y-53953395D01*
X157323500Y-53955395D01*
X157321500Y-53957395D01*
X157319500Y-53959395D01*
X157317500Y-53960395D01*
X157315500Y-53962395D01*
X157313500Y-53963395D01*
X157311500Y-53965395D01*
X157308500Y-53966395D01*
X157306500Y-53967395D01*
X157303500Y-53968395D01*
X157301500Y-53968395D01*
X157298500Y-53969395D01*
X157296500Y-53969395D01*
X157293500Y-53970395D01*
X157291500Y-53970395D01*
X157288500Y-53970395D01*
X156988500Y-53970395D01*
X156985500Y-53970395D01*
X156983500Y-53970395D01*
X156980500Y-53969395D01*
X156978500Y-53969395D01*
X156975500Y-53968395D01*
X156973500Y-53968395D01*
X156970500Y-53967395D01*
X156968500Y-53966395D01*
X156965500Y-53965395D01*
X156963500Y-53963395D01*
X156961500Y-53962395D01*
X156959500Y-53960395D01*
X156957500Y-53959395D01*
X156955500Y-53957395D01*
X156953500Y-53955395D01*
X156951500Y-53953395D01*
X156949500Y-53951395D01*
X156948500Y-53949395D01*
X156946500Y-53947395D01*
X156945500Y-53945395D01*
X156943500Y-53943395D01*
X156942500Y-53940395D01*
X156941500Y-53938395D01*
X156940500Y-53935395D01*
X156940500Y-53933395D01*
X156939500Y-53930395D01*
X156939500Y-53928395D01*
X156938500Y-53925395D01*
X156938500Y-53923395D01*
X156938500Y-53920395D01*
X156938500Y-53320395D01*
X156938500Y-53317395D01*
X156938500Y-53315395D01*
X156939500Y-53312395D01*
X156939500Y-53310395D01*
X156940500Y-53307395D01*
X156940500Y-53305395D01*
X156941500Y-53302395D01*
X156942500Y-53300395D01*
X156943500Y-53297395D01*
X156945500Y-53295395D01*
X156946500Y-53293395D01*
X156948500Y-53291395D01*
X156949500Y-53289395D01*
X156951500Y-53287395D01*
X156953500Y-53285395D01*
X156955500Y-53283395D01*
X156957500Y-53281395D01*
X156959500Y-53280395D01*
X156961500Y-53278395D01*
X156963500Y-53277395D01*
X156965500Y-53275395D01*
X156968500Y-53274395D01*
X156970500Y-53273395D01*
X156973500Y-53272395D01*
X156975500Y-53272395D01*
X156978500Y-53271395D01*
X156980500Y-53271395D01*
X156983500Y-53270395D01*
X156985500Y-53270395D01*
X156988500Y-53270395D01*
X157288500Y-53270395D01*
X157291500Y-53270395D01*
X157293500Y-53270395D01*
X157296500Y-53271395D01*
G36*
X157296500Y-53271395D02*
G01*
X157298500Y-53271395D01*
X157301500Y-53272395D01*
X157303500Y-53272395D01*
X157306500Y-53273395D01*
X157308500Y-53274395D01*
X157311500Y-53275395D01*
X157313500Y-53277395D01*
X157315500Y-53278395D01*
X157317500Y-53280395D01*
X157319500Y-53281395D01*
X157321500Y-53283395D01*
X157323500Y-53285395D01*
X157325500Y-53287395D01*
X157327500Y-53289395D01*
X157328500Y-53291395D01*
X157330500Y-53293395D01*
X157331500Y-53295395D01*
X157333500Y-53297395D01*
X157334500Y-53300395D01*
X157335500Y-53302395D01*
X157336500Y-53305395D01*
X157336500Y-53307395D01*
X157337500Y-53310395D01*
X157337500Y-53312395D01*
X157338500Y-53315395D01*
X157338500Y-53317395D01*
X157338500Y-53320395D01*
X157338500Y-53920395D01*
X157338500Y-53923395D01*
X157338500Y-53925395D01*
X157337500Y-53928395D01*
X157337500Y-53930395D01*
X157336500Y-53933395D01*
X157336500Y-53935395D01*
X157335500Y-53938395D01*
X157334500Y-53940395D01*
X157333500Y-53943395D01*
X157331500Y-53945395D01*
X157330500Y-53947395D01*
X157328500Y-53949395D01*
X157327500Y-53951395D01*
X157325500Y-53953395D01*
X157323500Y-53955395D01*
X157321500Y-53957395D01*
X157319500Y-53959395D01*
X157317500Y-53960395D01*
X157315500Y-53962395D01*
X157313500Y-53963395D01*
X157311500Y-53965395D01*
X157308500Y-53966395D01*
X157306500Y-53967395D01*
X157303500Y-53968395D01*
X157301500Y-53968395D01*
X157298500Y-53969395D01*
X157296500Y-53969395D01*
X157293500Y-53970395D01*
X157291500Y-53970395D01*
X157288500Y-53970395D01*
X156988500Y-53970395D01*
X156985500Y-53970395D01*
X156983500Y-53970395D01*
X156980500Y-53969395D01*
X156978500Y-53969395D01*
X156975500Y-53968395D01*
X156973500Y-53968395D01*
X156970500Y-53967395D01*
X156968500Y-53966395D01*
X156965500Y-53965395D01*
X156963500Y-53963395D01*
X156961500Y-53962395D01*
X156959500Y-53960395D01*
X156957500Y-53959395D01*
X156955500Y-53957395D01*
X156953500Y-53955395D01*
X156951500Y-53953395D01*
X156949500Y-53951395D01*
X156948500Y-53949395D01*
X156946500Y-53947395D01*
X156945500Y-53945395D01*
X156943500Y-53943395D01*
X156942500Y-53940395D01*
X156941500Y-53938395D01*
X156940500Y-53935395D01*
X156940500Y-53933395D01*
X156939500Y-53930395D01*
X156939500Y-53928395D01*
X156938500Y-53925395D01*
X156938500Y-53923395D01*
X156938500Y-53920395D01*
X156938500Y-53320395D01*
X156938500Y-53317395D01*
X156938500Y-53315395D01*
X156939500Y-53312395D01*
X156939500Y-53310395D01*
X156940500Y-53307395D01*
X156940500Y-53305395D01*
X156941500Y-53302395D01*
X156942500Y-53300395D01*
X156943500Y-53297395D01*
X156945500Y-53295395D01*
X156946500Y-53293395D01*
X156948500Y-53291395D01*
X156949500Y-53289395D01*
X156951500Y-53287395D01*
X156953500Y-53285395D01*
X156955500Y-53283395D01*
X156957500Y-53281395D01*
X156959500Y-53280395D01*
X156961500Y-53278395D01*
X156963500Y-53277395D01*
X156965500Y-53275395D01*
X156968500Y-53274395D01*
X156970500Y-53273395D01*
X156973500Y-53272395D01*
X156975500Y-53272395D01*
X156978500Y-53271395D01*
X156980500Y-53271395D01*
X156983500Y-53270395D01*
X156985500Y-53270395D01*
X156988500Y-53270395D01*
X157288500Y-53270395D01*
X157291500Y-53270395D01*
X157293500Y-53270395D01*
X157296500Y-53271395D01*
G37*
%TO.C,D6*%
X161628000Y-119009150D02*
X161630000Y-119009150D01*
X161633000Y-119010150D01*
X161635000Y-119010150D01*
X161638000Y-119011150D01*
X161640000Y-119012150D01*
X161643000Y-119013150D01*
X161645000Y-119015150D01*
X161647000Y-119016150D01*
X161649000Y-119018150D01*
X161651000Y-119019150D01*
X161653000Y-119021150D01*
X161655000Y-119023150D01*
X161657000Y-119025150D01*
X161659000Y-119027150D01*
X161660000Y-119029150D01*
X161662000Y-119031150D01*
X161663000Y-119033150D01*
X161665000Y-119035150D01*
X161666000Y-119038150D01*
X161667000Y-119040150D01*
X161668000Y-119043150D01*
X161668000Y-119045150D01*
X161669000Y-119048150D01*
X161669000Y-119050150D01*
X161670000Y-119053150D01*
X161670000Y-119055150D01*
X161670000Y-119058150D01*
X161670000Y-119658150D01*
X161670000Y-119661150D01*
X161670000Y-119663150D01*
X161669000Y-119666150D01*
X161669000Y-119668150D01*
X161668000Y-119671150D01*
X161668000Y-119673150D01*
X161667000Y-119676150D01*
X161666000Y-119678150D01*
X161665000Y-119681150D01*
X161663000Y-119683150D01*
X161662000Y-119685150D01*
X161660000Y-119687150D01*
X161659000Y-119689150D01*
X161657000Y-119691150D01*
X161655000Y-119693150D01*
X161653000Y-119695150D01*
X161651000Y-119697150D01*
X161649000Y-119698150D01*
X161647000Y-119700150D01*
X161645000Y-119701150D01*
X161643000Y-119703150D01*
X161640000Y-119704150D01*
X161638000Y-119705150D01*
X161635000Y-119706150D01*
X161633000Y-119706150D01*
X161630000Y-119707150D01*
X161628000Y-119707150D01*
X161625000Y-119708150D01*
X161623000Y-119708150D01*
X161620000Y-119708150D01*
X161320000Y-119708150D01*
X161317000Y-119708150D01*
X161315000Y-119708150D01*
X161312000Y-119707150D01*
X161310000Y-119707150D01*
X161307000Y-119706150D01*
X161305000Y-119706150D01*
X161302000Y-119705150D01*
X161300000Y-119704150D01*
X161297000Y-119703150D01*
X161295000Y-119701150D01*
X161293000Y-119700150D01*
X161291000Y-119698150D01*
X161289000Y-119697150D01*
X161287000Y-119695150D01*
X161285000Y-119693150D01*
X161283000Y-119691150D01*
X161281000Y-119689150D01*
X161280000Y-119687150D01*
X161278000Y-119685150D01*
X161277000Y-119683150D01*
X161275000Y-119681150D01*
X161274000Y-119678150D01*
X161273000Y-119676150D01*
X161272000Y-119673150D01*
X161272000Y-119671150D01*
X161271000Y-119668150D01*
X161271000Y-119666150D01*
X161270000Y-119663150D01*
X161270000Y-119661150D01*
X161270000Y-119658150D01*
X161270000Y-119058150D01*
X161270000Y-119055150D01*
X161270000Y-119053150D01*
X161271000Y-119050150D01*
X161271000Y-119048150D01*
X161272000Y-119045150D01*
X161272000Y-119043150D01*
X161273000Y-119040150D01*
X161274000Y-119038150D01*
X161275000Y-119035150D01*
X161277000Y-119033150D01*
X161278000Y-119031150D01*
X161280000Y-119029150D01*
X161281000Y-119027150D01*
X161283000Y-119025150D01*
X161285000Y-119023150D01*
X161287000Y-119021150D01*
X161289000Y-119019150D01*
X161291000Y-119018150D01*
X161293000Y-119016150D01*
X161295000Y-119015150D01*
X161297000Y-119013150D01*
X161300000Y-119012150D01*
X161302000Y-119011150D01*
X161305000Y-119010150D01*
X161307000Y-119010150D01*
X161310000Y-119009150D01*
X161312000Y-119009150D01*
X161315000Y-119008150D01*
X161317000Y-119008150D01*
X161320000Y-119008150D01*
X161620000Y-119008150D01*
X161623000Y-119008150D01*
X161625000Y-119008150D01*
X161628000Y-119009150D01*
G36*
X161628000Y-119009150D02*
G01*
X161630000Y-119009150D01*
X161633000Y-119010150D01*
X161635000Y-119010150D01*
X161638000Y-119011150D01*
X161640000Y-119012150D01*
X161643000Y-119013150D01*
X161645000Y-119015150D01*
X161647000Y-119016150D01*
X161649000Y-119018150D01*
X161651000Y-119019150D01*
X161653000Y-119021150D01*
X161655000Y-119023150D01*
X161657000Y-119025150D01*
X161659000Y-119027150D01*
X161660000Y-119029150D01*
X161662000Y-119031150D01*
X161663000Y-119033150D01*
X161665000Y-119035150D01*
X161666000Y-119038150D01*
X161667000Y-119040150D01*
X161668000Y-119043150D01*
X161668000Y-119045150D01*
X161669000Y-119048150D01*
X161669000Y-119050150D01*
X161670000Y-119053150D01*
X161670000Y-119055150D01*
X161670000Y-119058150D01*
X161670000Y-119658150D01*
X161670000Y-119661150D01*
X161670000Y-119663150D01*
X161669000Y-119666150D01*
X161669000Y-119668150D01*
X161668000Y-119671150D01*
X161668000Y-119673150D01*
X161667000Y-119676150D01*
X161666000Y-119678150D01*
X161665000Y-119681150D01*
X161663000Y-119683150D01*
X161662000Y-119685150D01*
X161660000Y-119687150D01*
X161659000Y-119689150D01*
X161657000Y-119691150D01*
X161655000Y-119693150D01*
X161653000Y-119695150D01*
X161651000Y-119697150D01*
X161649000Y-119698150D01*
X161647000Y-119700150D01*
X161645000Y-119701150D01*
X161643000Y-119703150D01*
X161640000Y-119704150D01*
X161638000Y-119705150D01*
X161635000Y-119706150D01*
X161633000Y-119706150D01*
X161630000Y-119707150D01*
X161628000Y-119707150D01*
X161625000Y-119708150D01*
X161623000Y-119708150D01*
X161620000Y-119708150D01*
X161320000Y-119708150D01*
X161317000Y-119708150D01*
X161315000Y-119708150D01*
X161312000Y-119707150D01*
X161310000Y-119707150D01*
X161307000Y-119706150D01*
X161305000Y-119706150D01*
X161302000Y-119705150D01*
X161300000Y-119704150D01*
X161297000Y-119703150D01*
X161295000Y-119701150D01*
X161293000Y-119700150D01*
X161291000Y-119698150D01*
X161289000Y-119697150D01*
X161287000Y-119695150D01*
X161285000Y-119693150D01*
X161283000Y-119691150D01*
X161281000Y-119689150D01*
X161280000Y-119687150D01*
X161278000Y-119685150D01*
X161277000Y-119683150D01*
X161275000Y-119681150D01*
X161274000Y-119678150D01*
X161273000Y-119676150D01*
X161272000Y-119673150D01*
X161272000Y-119671150D01*
X161271000Y-119668150D01*
X161271000Y-119666150D01*
X161270000Y-119663150D01*
X161270000Y-119661150D01*
X161270000Y-119658150D01*
X161270000Y-119058150D01*
X161270000Y-119055150D01*
X161270000Y-119053150D01*
X161271000Y-119050150D01*
X161271000Y-119048150D01*
X161272000Y-119045150D01*
X161272000Y-119043150D01*
X161273000Y-119040150D01*
X161274000Y-119038150D01*
X161275000Y-119035150D01*
X161277000Y-119033150D01*
X161278000Y-119031150D01*
X161280000Y-119029150D01*
X161281000Y-119027150D01*
X161283000Y-119025150D01*
X161285000Y-119023150D01*
X161287000Y-119021150D01*
X161289000Y-119019150D01*
X161291000Y-119018150D01*
X161293000Y-119016150D01*
X161295000Y-119015150D01*
X161297000Y-119013150D01*
X161300000Y-119012150D01*
X161302000Y-119011150D01*
X161305000Y-119010150D01*
X161307000Y-119010150D01*
X161310000Y-119009150D01*
X161312000Y-119009150D01*
X161315000Y-119008150D01*
X161317000Y-119008150D01*
X161320000Y-119008150D01*
X161620000Y-119008150D01*
X161623000Y-119008150D01*
X161625000Y-119008150D01*
X161628000Y-119009150D01*
G37*
X162328000Y-119009150D02*
X162330000Y-119009150D01*
X162333000Y-119010150D01*
X162335000Y-119010150D01*
X162338000Y-119011150D01*
X162340000Y-119012150D01*
X162343000Y-119013150D01*
X162345000Y-119015150D01*
X162347000Y-119016150D01*
X162349000Y-119018150D01*
X162351000Y-119019150D01*
X162353000Y-119021150D01*
X162355000Y-119023150D01*
X162357000Y-119025150D01*
X162359000Y-119027150D01*
X162360000Y-119029150D01*
X162362000Y-119031150D01*
X162363000Y-119033150D01*
X162365000Y-119035150D01*
X162366000Y-119038150D01*
X162367000Y-119040150D01*
X162368000Y-119043150D01*
X162368000Y-119045150D01*
X162369000Y-119048150D01*
X162369000Y-119050150D01*
X162370000Y-119053150D01*
X162370000Y-119055150D01*
X162370000Y-119058150D01*
X162370000Y-119658150D01*
X162370000Y-119661150D01*
X162370000Y-119663150D01*
X162369000Y-119666150D01*
X162369000Y-119668150D01*
X162368000Y-119671150D01*
X162368000Y-119673150D01*
X162367000Y-119676150D01*
X162366000Y-119678150D01*
X162365000Y-119681150D01*
X162363000Y-119683150D01*
X162362000Y-119685150D01*
X162360000Y-119687150D01*
X162359000Y-119689150D01*
X162357000Y-119691150D01*
X162355000Y-119693150D01*
X162353000Y-119695150D01*
X162351000Y-119697150D01*
X162349000Y-119698150D01*
X162347000Y-119700150D01*
X162345000Y-119701150D01*
X162343000Y-119703150D01*
X162340000Y-119704150D01*
X162338000Y-119705150D01*
X162335000Y-119706150D01*
X162333000Y-119706150D01*
X162330000Y-119707150D01*
X162328000Y-119707150D01*
X162325000Y-119708150D01*
X162323000Y-119708150D01*
X162320000Y-119708150D01*
X162020000Y-119708150D01*
X162017000Y-119708150D01*
X162015000Y-119708150D01*
X162012000Y-119707150D01*
X162010000Y-119707150D01*
X162007000Y-119706150D01*
X162005000Y-119706150D01*
X162002000Y-119705150D01*
X162000000Y-119704150D01*
X161997000Y-119703150D01*
X161995000Y-119701150D01*
X161993000Y-119700150D01*
X161991000Y-119698150D01*
X161989000Y-119697150D01*
X161987000Y-119695150D01*
X161985000Y-119693150D01*
X161983000Y-119691150D01*
X161981000Y-119689150D01*
X161980000Y-119687150D01*
X161978000Y-119685150D01*
X161977000Y-119683150D01*
X161975000Y-119681150D01*
X161974000Y-119678150D01*
X161973000Y-119676150D01*
X161972000Y-119673150D01*
X161972000Y-119671150D01*
X161971000Y-119668150D01*
X161971000Y-119666150D01*
X161970000Y-119663150D01*
X161970000Y-119661150D01*
X161970000Y-119658150D01*
X161970000Y-119058150D01*
X161970000Y-119055150D01*
X161970000Y-119053150D01*
X161971000Y-119050150D01*
X161971000Y-119048150D01*
X161972000Y-119045150D01*
X161972000Y-119043150D01*
X161973000Y-119040150D01*
X161974000Y-119038150D01*
X161975000Y-119035150D01*
X161977000Y-119033150D01*
X161978000Y-119031150D01*
X161980000Y-119029150D01*
X161981000Y-119027150D01*
X161983000Y-119025150D01*
X161985000Y-119023150D01*
X161987000Y-119021150D01*
X161989000Y-119019150D01*
X161991000Y-119018150D01*
X161993000Y-119016150D01*
X161995000Y-119015150D01*
X161997000Y-119013150D01*
X162000000Y-119012150D01*
X162002000Y-119011150D01*
X162005000Y-119010150D01*
X162007000Y-119010150D01*
X162010000Y-119009150D01*
X162012000Y-119009150D01*
X162015000Y-119008150D01*
X162017000Y-119008150D01*
X162020000Y-119008150D01*
X162320000Y-119008150D01*
X162323000Y-119008150D01*
X162325000Y-119008150D01*
X162328000Y-119009150D01*
G36*
X162328000Y-119009150D02*
G01*
X162330000Y-119009150D01*
X162333000Y-119010150D01*
X162335000Y-119010150D01*
X162338000Y-119011150D01*
X162340000Y-119012150D01*
X162343000Y-119013150D01*
X162345000Y-119015150D01*
X162347000Y-119016150D01*
X162349000Y-119018150D01*
X162351000Y-119019150D01*
X162353000Y-119021150D01*
X162355000Y-119023150D01*
X162357000Y-119025150D01*
X162359000Y-119027150D01*
X162360000Y-119029150D01*
X162362000Y-119031150D01*
X162363000Y-119033150D01*
X162365000Y-119035150D01*
X162366000Y-119038150D01*
X162367000Y-119040150D01*
X162368000Y-119043150D01*
X162368000Y-119045150D01*
X162369000Y-119048150D01*
X162369000Y-119050150D01*
X162370000Y-119053150D01*
X162370000Y-119055150D01*
X162370000Y-119058150D01*
X162370000Y-119658150D01*
X162370000Y-119661150D01*
X162370000Y-119663150D01*
X162369000Y-119666150D01*
X162369000Y-119668150D01*
X162368000Y-119671150D01*
X162368000Y-119673150D01*
X162367000Y-119676150D01*
X162366000Y-119678150D01*
X162365000Y-119681150D01*
X162363000Y-119683150D01*
X162362000Y-119685150D01*
X162360000Y-119687150D01*
X162359000Y-119689150D01*
X162357000Y-119691150D01*
X162355000Y-119693150D01*
X162353000Y-119695150D01*
X162351000Y-119697150D01*
X162349000Y-119698150D01*
X162347000Y-119700150D01*
X162345000Y-119701150D01*
X162343000Y-119703150D01*
X162340000Y-119704150D01*
X162338000Y-119705150D01*
X162335000Y-119706150D01*
X162333000Y-119706150D01*
X162330000Y-119707150D01*
X162328000Y-119707150D01*
X162325000Y-119708150D01*
X162323000Y-119708150D01*
X162320000Y-119708150D01*
X162020000Y-119708150D01*
X162017000Y-119708150D01*
X162015000Y-119708150D01*
X162012000Y-119707150D01*
X162010000Y-119707150D01*
X162007000Y-119706150D01*
X162005000Y-119706150D01*
X162002000Y-119705150D01*
X162000000Y-119704150D01*
X161997000Y-119703150D01*
X161995000Y-119701150D01*
X161993000Y-119700150D01*
X161991000Y-119698150D01*
X161989000Y-119697150D01*
X161987000Y-119695150D01*
X161985000Y-119693150D01*
X161983000Y-119691150D01*
X161981000Y-119689150D01*
X161980000Y-119687150D01*
X161978000Y-119685150D01*
X161977000Y-119683150D01*
X161975000Y-119681150D01*
X161974000Y-119678150D01*
X161973000Y-119676150D01*
X161972000Y-119673150D01*
X161972000Y-119671150D01*
X161971000Y-119668150D01*
X161971000Y-119666150D01*
X161970000Y-119663150D01*
X161970000Y-119661150D01*
X161970000Y-119658150D01*
X161970000Y-119058150D01*
X161970000Y-119055150D01*
X161970000Y-119053150D01*
X161971000Y-119050150D01*
X161971000Y-119048150D01*
X161972000Y-119045150D01*
X161972000Y-119043150D01*
X161973000Y-119040150D01*
X161974000Y-119038150D01*
X161975000Y-119035150D01*
X161977000Y-119033150D01*
X161978000Y-119031150D01*
X161980000Y-119029150D01*
X161981000Y-119027150D01*
X161983000Y-119025150D01*
X161985000Y-119023150D01*
X161987000Y-119021150D01*
X161989000Y-119019150D01*
X161991000Y-119018150D01*
X161993000Y-119016150D01*
X161995000Y-119015150D01*
X161997000Y-119013150D01*
X162000000Y-119012150D01*
X162002000Y-119011150D01*
X162005000Y-119010150D01*
X162007000Y-119010150D01*
X162010000Y-119009150D01*
X162012000Y-119009150D01*
X162015000Y-119008150D01*
X162017000Y-119008150D01*
X162020000Y-119008150D01*
X162320000Y-119008150D01*
X162323000Y-119008150D01*
X162325000Y-119008150D01*
X162328000Y-119009150D01*
G37*
%TD*%
D11*
%TO.C,C116*%
X156303500Y-57761000D03*
X157263500Y-57761000D03*
%TD*%
D12*
%TO.C,R55*%
X145207000Y-53246299D03*
X145207000Y-54266299D03*
%TD*%
D11*
%TO.C,C151*%
X146058049Y-57761000D03*
X147018049Y-57761000D03*
%TD*%
D13*
%TO.C,C35*%
X146518049Y-56541800D03*
X146518049Y-55170200D03*
D14*
X145502049Y-55856000D03*
X147534049Y-55856000D03*
%TD*%
D12*
%TO.C,R54*%
X147874000Y-53221800D03*
X147874000Y-54241800D03*
%TD*%
D15*
%TO.C,R86*%
X157653000Y-59158000D03*
X156003000Y-59158000D03*
%TD*%
%TO.C,R85*%
X147366000Y-59158000D03*
X145716000Y-59158000D03*
%TD*%
D16*
%TO.C,U39*%
X143240000Y-166063800D03*
X144510000Y-166063800D03*
X145780000Y-166063800D03*
X147050000Y-166063800D03*
X147050000Y-161136200D03*
X145780000Y-161136200D03*
X144510000Y-161136200D03*
X143240000Y-161136200D03*
%TD*%
D17*
%TO.C,R60*%
X144890000Y-109704000D03*
X146540000Y-109704000D03*
%TD*%
D18*
%TO.C,C78*%
X161295000Y-120458150D03*
X162255000Y-120458150D03*
%TD*%
D19*
%TO.C,C107*%
X153830000Y-122183150D03*
X155862000Y-122183150D03*
D20*
X154846000Y-122868950D03*
X154846000Y-121497350D03*
%TD*%
D12*
%TO.C,R23*%
X163275000Y-120468150D03*
X163275000Y-119448150D03*
%TD*%
D15*
%TO.C,R36*%
X157613500Y-60659000D03*
X155963500Y-60659000D03*
%TD*%
D21*
%TO.C,U14*%
X177745000Y-126015000D03*
X176475000Y-126015000D03*
X175205000Y-126015000D03*
X173935000Y-126015000D03*
X173935000Y-130965000D03*
X175205000Y-130965000D03*
X176475000Y-130965000D03*
X177745000Y-130965000D03*
%TD*%
D22*
%TO.C,U19*%
X156805000Y-136848150D03*
X155535000Y-136848150D03*
X154265000Y-136848150D03*
X152995000Y-136848150D03*
X152995000Y-141798150D03*
X154265000Y-141798150D03*
X155535000Y-141798150D03*
X156805000Y-141798150D03*
%TD*%
D23*
%TO.C,R41*%
X161209000Y-72294000D03*
X161209000Y-70644000D03*
%TD*%
D24*
%TO.C,R27*%
X162330000Y-144173150D03*
X161310000Y-144173150D03*
%TD*%
D11*
%TO.C,C141*%
X157490500Y-91289000D03*
X156530500Y-91289000D03*
%TD*%
D25*
%TO.C,C60*%
X170650000Y-150930000D03*
X170650000Y-149380000D03*
%TD*%
D24*
%TO.C,R72*%
X151150000Y-157250000D03*
X150130000Y-157250000D03*
%TD*%
D12*
%TO.C,R4*%
X169385000Y-134535000D03*
X169385000Y-133515000D03*
%TD*%
D24*
%TO.C,R21*%
X176345000Y-144365000D03*
X175325000Y-144365000D03*
%TD*%
D26*
%TO.C,R44*%
X158161000Y-70644000D03*
X158161000Y-72294000D03*
%TD*%
%TO.C,R37*%
X143343549Y-70662501D03*
X143343549Y-72312501D03*
%TD*%
D11*
%TO.C,C176*%
X147245049Y-91307501D03*
X146285049Y-91307501D03*
%TD*%
D25*
%TO.C,C62*%
X159340000Y-157835000D03*
X159340000Y-156285000D03*
%TD*%
D24*
%TO.C,R33*%
X155365000Y-144098150D03*
X154345000Y-144098150D03*
%TD*%
%TO.C,R71*%
X151209100Y-147750001D03*
X150189100Y-147750001D03*
%TD*%
D17*
%TO.C,R59*%
X148001000Y-109704000D03*
X149651000Y-109704000D03*
%TD*%
D27*
%TO.C,U4*%
X144170549Y-74408501D03*
X144170549Y-75678501D03*
X144170549Y-76948501D03*
X144170549Y-78218501D03*
X149120549Y-78218501D03*
X149120549Y-76948501D03*
X149120549Y-75678501D03*
X149120549Y-74408501D03*
%TD*%
D28*
%TO.C,MT2*%
X145000000Y-187000000D03*
D29*
X145000000Y-187000000D03*
%TD*%
D30*
%TO.C,C85*%
X160830000Y-134473150D03*
X160830000Y-133513150D03*
%TD*%
D18*
%TO.C,C50*%
X170321000Y-103125000D03*
X171281000Y-103125000D03*
%TD*%
D31*
%TO.C,TP2*%
X143600000Y-45100000D03*
%TD*%
D32*
%TO.C,R12*%
X164781000Y-109380000D03*
X164781000Y-110400000D03*
%TD*%
%TO.C,R5*%
X168385000Y-133515000D03*
X168385000Y-134535000D03*
%TD*%
D33*
%TO.C,U41*%
X152863801Y-169741200D03*
X152463799Y-169741200D03*
X152063800Y-169741200D03*
X151663801Y-169741200D03*
X151263799Y-169741200D03*
D34*
X151136700Y-170515900D03*
D33*
X151263799Y-171290600D03*
X151663801Y-171290600D03*
X152063800Y-171290600D03*
X152463799Y-171290600D03*
X152863801Y-171290600D03*
D34*
X152990900Y-170515900D03*
%TD*%
D27*
%TO.C,U3*%
X168401000Y-94720000D03*
X168401000Y-95990000D03*
X168401000Y-97260000D03*
X168401000Y-98530000D03*
X173351000Y-98530000D03*
X173351000Y-97260000D03*
X173351000Y-95990000D03*
X173351000Y-94720000D03*
%TD*%
D18*
%TO.C,C88*%
X154330000Y-120383150D03*
X155290000Y-120383150D03*
%TD*%
D30*
%TO.C,C120*%
X150455549Y-81774501D03*
X150455549Y-80814501D03*
%TD*%
D32*
%TO.C,R32*%
X154865000Y-133398150D03*
X154865000Y-134418150D03*
%TD*%
D24*
%TO.C,R3*%
X169275000Y-124025000D03*
X168255000Y-124025000D03*
%TD*%
D35*
%TO.C,C188*%
X143100000Y-143750000D03*
X144650000Y-143750000D03*
%TD*%
D25*
%TO.C,C112*%
X159685000Y-72244000D03*
X159685000Y-70694000D03*
%TD*%
%TO.C,C109*%
X144867549Y-72262501D03*
X144867549Y-70712501D03*
%TD*%
D23*
%TO.C,R78*%
X154478000Y-104496000D03*
X154478000Y-102846000D03*
%TD*%
D36*
%TO.C,U5*%
X167918500Y-86200000D03*
X167918500Y-86850000D03*
X167918500Y-87500000D03*
X167918500Y-88150000D03*
X167918500Y-88800000D03*
X167918500Y-89450000D03*
X167918500Y-90100000D03*
X167918500Y-90750000D03*
X167918500Y-91400000D03*
X167918500Y-92050000D03*
X173643500Y-92050000D03*
X173643500Y-91400000D03*
X173643500Y-90750000D03*
X173643500Y-90100000D03*
X173643500Y-89450000D03*
X173643500Y-88800000D03*
X173643500Y-88150000D03*
X173643500Y-87500000D03*
X173643500Y-86850000D03*
X173643500Y-86200000D03*
%TD*%
D11*
%TO.C,C131*%
X155085000Y-111355000D03*
X154125000Y-111355000D03*
%TD*%
%TO.C,C140*%
X159453500Y-91289000D03*
X158493500Y-91289000D03*
%TD*%
D16*
%TO.C,U40*%
X143240000Y-154913800D03*
X144510000Y-154913800D03*
X145780000Y-154913800D03*
X147050000Y-154913800D03*
X147050000Y-149986200D03*
X145780000Y-149986200D03*
X144510000Y-149986200D03*
X143240000Y-149986200D03*
%TD*%
D23*
%TO.C,R10*%
X173700997Y-54790000D03*
X173700997Y-53140000D03*
%TD*%
D32*
%TO.C,R79*%
X153970000Y-100175000D03*
X153970000Y-101195000D03*
%TD*%
D22*
%TO.C,U2*%
X170705000Y-136965000D03*
X169435000Y-136965000D03*
X168165000Y-136965000D03*
X166895000Y-136965000D03*
X166895000Y-141915000D03*
X168165000Y-141915000D03*
X169435000Y-141915000D03*
X170705000Y-141915000D03*
%TD*%
D12*
%TO.C,R11*%
X170800000Y-116200000D03*
X170800000Y-115180000D03*
%TD*%
D24*
%TO.C,R50*%
X157147000Y-111357000D03*
X156127000Y-111357000D03*
%TD*%
D26*
%TO.C,R63*%
X154859000Y-80106000D03*
X154859000Y-81756000D03*
%TD*%
D21*
%TO.C,U27*%
X158673494Y-63279000D03*
X157403494Y-63279000D03*
X156133494Y-63279000D03*
X154863494Y-63279000D03*
X154863494Y-68229000D03*
X156133494Y-68229000D03*
X157403494Y-68229000D03*
X158673494Y-68229000D03*
%TD*%
D23*
%TO.C,R51*%
X146137549Y-81774501D03*
X146137549Y-80124501D03*
%TD*%
D24*
%TO.C,R66*%
X144220000Y-158450000D03*
X143200000Y-158450000D03*
%TD*%
D26*
%TO.C,R38*%
X153589000Y-70644000D03*
X153589000Y-72294000D03*
%TD*%
D37*
%TO.C,CR6*%
X146198200Y-146550000D03*
X146198200Y-147049999D03*
X146198200Y-147549998D03*
X147900000Y-147549998D03*
X147900000Y-147049999D03*
X147900000Y-146550000D03*
%TD*%
D38*
%TO.C,C168*%
X162987000Y-101195000D03*
X162987000Y-102155000D03*
%TD*%
D19*
%TO.C,C105*%
X160795000Y-122258150D03*
X162827000Y-122258150D03*
D20*
X161811000Y-122943950D03*
X161811000Y-121572350D03*
%TD*%
D26*
%TO.C,R47*%
X149185549Y-80124501D03*
X149185549Y-81774501D03*
%TD*%
D24*
%TO.C,R30*%
X155375000Y-123908150D03*
X154355000Y-123908150D03*
%TD*%
D25*
%TO.C,C110*%
X155113000Y-72244000D03*
X155113000Y-70694000D03*
%TD*%
D11*
%TO.C,C177*%
X145245049Y-91307501D03*
X144285049Y-91307501D03*
%TD*%
D23*
%TO.C,R77*%
X146434549Y-72302501D03*
X146434549Y-70652501D03*
%TD*%
D24*
%TO.C,R6*%
X169265000Y-144215000D03*
X168245000Y-144215000D03*
%TD*%
D30*
%TO.C,C8*%
X167385000Y-134515000D03*
X167385000Y-133555000D03*
%TD*%
D12*
%TO.C,R1*%
X167210000Y-120520000D03*
X167210000Y-119500000D03*
%TD*%
D38*
%TO.C,C122*%
X143343549Y-80814501D03*
X143343549Y-81774501D03*
%TD*%
D33*
%TO.C,U38*%
X144700000Y-171400000D03*
X145100002Y-171400000D03*
X145500001Y-171400000D03*
X145900000Y-171400000D03*
X146300002Y-171400000D03*
D34*
X146427101Y-170625300D03*
D33*
X146300002Y-169850600D03*
X145900000Y-169850600D03*
X145500001Y-169850600D03*
X145100002Y-169850600D03*
X144700000Y-169850600D03*
D34*
X144572901Y-170625300D03*
%TD*%
D12*
%TO.C,R29*%
X156310000Y-120393150D03*
X156310000Y-119373150D03*
%TD*%
D24*
%TO.C,R64*%
X148300549Y-90273801D03*
X147280549Y-90273801D03*
%TD*%
D30*
%TO.C,C75*%
X174585000Y-134525000D03*
X174585000Y-133565000D03*
%TD*%
D39*
%TO.C,R61*%
X145790000Y-103850000D03*
X146810000Y-103850000D03*
%TD*%
D24*
%TO.C,R75*%
X158544000Y-107672000D03*
X157524000Y-107672000D03*
%TD*%
D40*
%TO.C,U10*%
X172890997Y-62415000D03*
X174160997Y-62415000D03*
X175430997Y-62415000D03*
X176700997Y-62415000D03*
X176700997Y-57465000D03*
X175430997Y-57465000D03*
X174160997Y-57465000D03*
X172890997Y-57465000D03*
%TD*%
D23*
%TO.C,R39*%
X150963549Y-72312501D03*
X150963549Y-70662501D03*
%TD*%
D24*
%TO.C,R67*%
X144239100Y-147834100D03*
X143219100Y-147834100D03*
%TD*%
D12*
%TO.C,R19*%
X176585000Y-134555000D03*
X176585000Y-133535000D03*
%TD*%
D24*
%TO.C,R68*%
X144230000Y-157200000D03*
X143210000Y-157200000D03*
%TD*%
D41*
%TO.C,U35*%
X146660000Y-105649998D03*
D42*
X146660000Y-106599999D03*
X146660000Y-107550000D03*
X149280000Y-107550000D03*
X149280000Y-105649998D03*
%TD*%
D30*
%TO.C,C128*%
X160701000Y-81756000D03*
X160701000Y-80796000D03*
%TD*%
D24*
%TO.C,R76*%
X158544000Y-109704000D03*
X157524000Y-109704000D03*
%TD*%
D40*
%TO.C,U11*%
X166770997Y-62465000D03*
X168040997Y-62465000D03*
X169310997Y-62465000D03*
X170580997Y-62465000D03*
X170580997Y-57515000D03*
X169310997Y-57515000D03*
X168040997Y-57515000D03*
X166770997Y-57515000D03*
%TD*%
D35*
%TO.C,C100*%
X149150000Y-125400000D03*
X150700000Y-125400000D03*
%TD*%
D12*
%TO.C,R31*%
X155865000Y-134418150D03*
X155865000Y-133398150D03*
%TD*%
%TO.C,R22*%
X160275000Y-120478150D03*
X160275000Y-119458150D03*
%TD*%
D37*
%TO.C,CR7*%
X153279100Y-157765900D03*
X153279100Y-158265899D03*
X153279100Y-158765898D03*
X154980900Y-158765898D03*
X154980900Y-158265899D03*
X154980900Y-157765900D03*
%TD*%
D28*
%TO.C,MT4*%
X175000000Y-37000000D03*
D29*
X175000000Y-37000000D03*
%TD*%
D23*
%TO.C,R46*%
X157907000Y-81756000D03*
X157907000Y-80106000D03*
%TD*%
%TO.C,R35*%
X156680000Y-72284000D03*
X156680000Y-70634000D03*
%TD*%
D32*
%TO.C,R26*%
X161830000Y-133473150D03*
X161830000Y-134493150D03*
%TD*%
D43*
%TO.C,U12*%
X170781000Y-112617500D03*
D44*
X172051000Y-113125500D03*
X173321000Y-113125500D03*
D45*
X174781500Y-111665000D03*
X174781500Y-110395000D03*
X174781500Y-109125000D03*
X174781500Y-107855000D03*
X174781500Y-106585000D03*
D44*
X173321000Y-105124500D03*
X172051000Y-105124500D03*
X170781000Y-105124500D03*
X169511000Y-105124500D03*
X168241000Y-105124500D03*
D45*
X166780500Y-106585000D03*
X166780500Y-107855000D03*
X166780500Y-109125000D03*
X166780500Y-110395000D03*
X166780500Y-111665000D03*
D44*
X168241000Y-113125500D03*
X169511000Y-113125500D03*
%TD*%
D25*
%TO.C,C61*%
X164150000Y-150905000D03*
X164150000Y-149355000D03*
%TD*%
D32*
%TO.C,R80*%
X161844000Y-101193000D03*
X161844000Y-102213000D03*
%TD*%
D26*
%TO.C,R84*%
X166797000Y-184952000D03*
X166797000Y-186602000D03*
%TD*%
D18*
%TO.C,C1*%
X168230000Y-120500000D03*
X169190000Y-120500000D03*
%TD*%
D32*
%TO.C,R82*%
X163749000Y-98143000D03*
X163749000Y-99163000D03*
%TD*%
D11*
%TO.C,C132*%
X158514000Y-108688000D03*
X157554000Y-108688000D03*
%TD*%
D18*
%TO.C,C170*%
X145790000Y-102650003D03*
X146750000Y-102650003D03*
%TD*%
D31*
%TO.C,TP3*%
X177000000Y-45000000D03*
%TD*%
D14*
%TO.C,C38*%
X157779500Y-55834595D03*
X155747500Y-55834595D03*
D13*
X156763500Y-55148795D03*
X156763500Y-56520395D03*
%TD*%
D11*
%TO.C,C51*%
X169261000Y-103125000D03*
X168301000Y-103125000D03*
%TD*%
D26*
%TO.C,R48*%
X159431000Y-80106000D03*
X159431000Y-81756000D03*
%TD*%
D23*
%TO.C,R81*%
X156002000Y-104497000D03*
X156002000Y-102847000D03*
%TD*%
D40*
%TO.C,U6*%
X169158497Y-82100000D03*
X170428497Y-82100000D03*
X171698497Y-82100000D03*
X172968497Y-82100000D03*
X172968497Y-77150000D03*
X171698497Y-77150000D03*
X170428497Y-77150000D03*
X169158497Y-77150000D03*
%TD*%
D12*
%TO.C,R13*%
X173375000Y-116235000D03*
X173375000Y-115215000D03*
%TD*%
D46*
%TO.C,C153*%
X146510000Y-113006000D03*
X144960000Y-113006000D03*
%TD*%
D40*
%TO.C,U7*%
X172941500Y-70940000D03*
X174211500Y-70940000D03*
X175481500Y-70940000D03*
X176751500Y-70940000D03*
X176751500Y-65990000D03*
X175481500Y-65990000D03*
X174211500Y-65990000D03*
X172941500Y-65990000D03*
%TD*%
D47*
%TO.C,U20*%
X145280000Y-129820000D03*
X145780000Y-129820000D03*
X146280000Y-129820000D03*
X146780000Y-129820000D03*
X147280000Y-129820000D03*
X147280000Y-125520000D03*
X146780000Y-125520000D03*
X146280000Y-125520000D03*
X145780000Y-125520000D03*
X145280000Y-125520000D03*
D48*
X146280000Y-127670000D03*
%TD*%
D16*
%TO.C,U43*%
X150160000Y-154913800D03*
X151430000Y-154913800D03*
X152700000Y-154913800D03*
X153970000Y-154913800D03*
X153970000Y-149986200D03*
X152700000Y-149986200D03*
X151430000Y-149986200D03*
X150160000Y-149986200D03*
%TD*%
D49*
%TO.C,U13*%
X161730000Y-155380000D03*
X161730000Y-155880000D03*
X161730000Y-156380000D03*
X161730000Y-156880000D03*
X161730000Y-157380000D03*
X161730000Y-157880000D03*
X161730000Y-158380000D03*
X161730000Y-158880000D03*
X161730000Y-159380000D03*
X161730000Y-159880000D03*
X161730000Y-160380000D03*
X161730000Y-160880000D03*
X161730000Y-161380000D03*
X161730000Y-161880000D03*
X161730000Y-162380000D03*
X161730000Y-162880000D03*
D50*
X163650000Y-164800000D03*
X164150000Y-164800000D03*
X164650000Y-164800000D03*
X165150000Y-164800000D03*
X165650000Y-164800000D03*
X166150000Y-164800000D03*
X166650000Y-164800000D03*
X167150000Y-164800000D03*
X167650000Y-164800000D03*
X168150000Y-164800000D03*
X168650000Y-164800000D03*
X169150000Y-164800000D03*
X169650000Y-164800000D03*
X170150000Y-164800000D03*
X170650000Y-164800000D03*
X171150000Y-164800000D03*
D49*
X173070000Y-162880000D03*
X173070000Y-162380000D03*
X173070000Y-161880000D03*
X173070000Y-161380000D03*
X173070000Y-160880000D03*
X173070000Y-160380000D03*
X173070000Y-159880000D03*
X173070000Y-159380000D03*
X173070000Y-158880000D03*
X173070000Y-158380000D03*
X173070000Y-157880000D03*
X173070000Y-157380000D03*
X173070000Y-156880000D03*
X173070000Y-156380000D03*
X173070000Y-155880000D03*
X173070000Y-155380000D03*
D50*
X171150000Y-153460000D03*
X170650000Y-153460000D03*
X170150000Y-153460000D03*
X169650000Y-153460000D03*
X169150000Y-153460000D03*
X168650000Y-153460000D03*
X168150000Y-153460000D03*
X167650000Y-153460000D03*
X167150000Y-153460000D03*
X166650000Y-153460000D03*
X166150000Y-153460000D03*
X165650000Y-153460000D03*
X165150000Y-153460000D03*
X164650000Y-153460000D03*
X164150000Y-153460000D03*
X163650000Y-153460000D03*
D51*
X167400000Y-159130000D03*
%TD*%
D32*
%TO.C,R20*%
X175585000Y-133545000D03*
X175585000Y-134565000D03*
%TD*%
D52*
%TO.C,D10*%
X164892000Y-189866500D03*
X164892000Y-188291500D03*
%TD*%
D23*
%TO.C,R45*%
X147661549Y-81774501D03*
X147661549Y-80124501D03*
%TD*%
D35*
%TO.C,C195*%
X150300000Y-143800000D03*
X151850000Y-143800000D03*
%TD*%
D15*
%TO.C,R56*%
X147368049Y-60677501D03*
X145718049Y-60677501D03*
%TD*%
D37*
%TO.C,CR5*%
X146550000Y-157750002D03*
X146550000Y-158250001D03*
X146550000Y-158750000D03*
X148251800Y-158750000D03*
X148251800Y-158250001D03*
X148251800Y-157750002D03*
%TD*%
D24*
%TO.C,R70*%
X151150000Y-158500000D03*
X150130000Y-158500000D03*
%TD*%
D26*
%TO.C,R62*%
X144613549Y-80124501D03*
X144613549Y-81774501D03*
%TD*%
D53*
%TO.C,TP4*%
X155748000Y-187050000D03*
%TD*%
D54*
%TO.C,C167*%
X164511000Y-101309000D03*
X164511000Y-102859000D03*
%TD*%
D12*
%TO.C,R28*%
X153310000Y-120403150D03*
X153310000Y-119383150D03*
%TD*%
D18*
%TO.C,C27*%
X169291000Y-73625000D03*
X170251000Y-73625000D03*
%TD*%
D23*
%TO.C,R9*%
X171700997Y-54790000D03*
X171700997Y-53140000D03*
%TD*%
D38*
%TO.C,C129*%
X153589000Y-80796000D03*
X153589000Y-81756000D03*
%TD*%
D19*
%TO.C,C103*%
X174685000Y-122300800D03*
X176717000Y-122300800D03*
D20*
X175701000Y-122986600D03*
X175701000Y-121615000D03*
%TD*%
D46*
%TO.C,C160*%
X146510000Y-111355000D03*
X144960000Y-111355000D03*
%TD*%
D12*
%TO.C,R42*%
X158161000Y-54220395D03*
X158161000Y-53200395D03*
%TD*%
D55*
%TO.C,U23*%
X156916400Y-114996999D03*
X156916400Y-114347001D03*
X156916400Y-113696999D03*
X156916400Y-113047001D03*
X152573000Y-113047001D03*
X152573000Y-113696999D03*
X152573000Y-114347001D03*
X152573000Y-114996999D03*
%TD*%
D32*
%TO.C,R83*%
X154986000Y-100177000D03*
X154986000Y-101197000D03*
%TD*%
D27*
%TO.C,U8*%
X154416000Y-74390000D03*
X154416000Y-75660000D03*
X154416000Y-76930000D03*
X154416000Y-78200000D03*
X159366000Y-78200000D03*
X159366000Y-76930000D03*
X159366000Y-75660000D03*
X159366000Y-74390000D03*
%TD*%
D16*
%TO.C,U42*%
X150160000Y-166063800D03*
X151430000Y-166063800D03*
X152700000Y-166063800D03*
X153970000Y-166063800D03*
X153970000Y-161136200D03*
X152700000Y-161136200D03*
X151430000Y-161136200D03*
X150160000Y-161136200D03*
%TD*%
D32*
%TO.C,R15*%
X164781000Y-111625000D03*
X164781000Y-112645000D03*
%TD*%
D18*
%TO.C,C186*%
X143120000Y-145250000D03*
X144080000Y-145250000D03*
%TD*%
D41*
%TO.C,U24*%
X155915000Y-109765001D03*
D42*
X155915000Y-108815000D03*
X155915000Y-107864999D03*
X153295000Y-107864999D03*
X153295000Y-109765001D03*
%TD*%
D24*
%TO.C,R34*%
X150010000Y-124075000D03*
X148990000Y-124075000D03*
%TD*%
D21*
%TO.C,U1*%
X170670000Y-126050000D03*
X169400000Y-126050000D03*
X168130000Y-126050000D03*
X166860000Y-126050000D03*
X166860000Y-131000000D03*
X168130000Y-131000000D03*
X169400000Y-131000000D03*
X170670000Y-131000000D03*
%TD*%
D11*
%TO.C,C21*%
X171143500Y-84565200D03*
X170183500Y-84565200D03*
%TD*%
D56*
%TO.C,U37*%
X148398551Y-93911101D03*
X147948552Y-93911101D03*
X147498550Y-93911101D03*
X147048551Y-93911101D03*
X146598549Y-93911101D03*
X146148550Y-93911101D03*
X145698551Y-93911101D03*
X145248549Y-93911101D03*
X145248549Y-96815901D03*
X145698548Y-96815901D03*
X146148550Y-96815901D03*
X146598549Y-96815901D03*
X147048551Y-96815901D03*
X147498550Y-96815901D03*
X147948549Y-96815901D03*
X148398551Y-96815901D03*
D57*
X147823550Y-94963501D03*
X145823550Y-94963501D03*
X146823550Y-95363501D03*
D58*
X146823550Y-95363501D03*
D57*
X147823550Y-95763501D03*
X145823550Y-95763501D03*
%TD*%
D24*
%TO.C,R52*%
X158546000Y-90255300D03*
X157526000Y-90255300D03*
%TD*%
D39*
%TO.C,R53*%
X155496000Y-90255300D03*
X156516000Y-90255300D03*
%TD*%
D18*
%TO.C,C26*%
X171281000Y-73625000D03*
X172241000Y-73625000D03*
%TD*%
D59*
%TO.C,U26*%
X154399500Y-84177000D03*
X154399500Y-85447000D03*
X154399500Y-86717000D03*
X154399500Y-87987000D03*
X159733500Y-87987000D03*
X159733500Y-86717000D03*
X159733500Y-85447000D03*
X159733500Y-84177000D03*
%TD*%
D46*
%TO.C,C52*%
X169056000Y-101625000D03*
X167506000Y-101625000D03*
%TD*%
D11*
%TO.C,C142*%
X155490500Y-91289000D03*
X154530500Y-91289000D03*
%TD*%
D26*
%TO.C,R57*%
X164892000Y-184952000D03*
X164892000Y-186602000D03*
%TD*%
D24*
%TO.C,R69*%
X144189100Y-146584100D03*
X143169100Y-146584100D03*
%TD*%
D12*
%TO.C,R2*%
X170210000Y-120510000D03*
X170210000Y-119490000D03*
%TD*%
D56*
%TO.C,U31*%
X158644002Y-93892600D03*
X158194003Y-93892600D03*
X157744001Y-93892600D03*
X157294002Y-93892600D03*
X156844000Y-93892600D03*
X156394001Y-93892600D03*
X155944002Y-93892600D03*
X155494000Y-93892600D03*
X155494000Y-96797400D03*
X155943999Y-96797400D03*
X156394001Y-96797400D03*
X156844000Y-96797400D03*
X157294002Y-96797400D03*
X157744001Y-96797400D03*
X158194000Y-96797400D03*
X158644002Y-96797400D03*
D57*
X158069001Y-94945000D03*
X156069001Y-94945000D03*
X157069001Y-95345000D03*
D58*
X157069001Y-95345000D03*
D57*
X158069001Y-95745000D03*
X156069001Y-95745000D03*
%TD*%
D28*
%TO.C,MT3*%
X175000000Y-187000000D03*
D29*
X175000000Y-187000000D03*
%TD*%
D24*
%TO.C,R73*%
X151209100Y-146500001D03*
X150189100Y-146500001D03*
%TD*%
D12*
%TO.C,R25*%
X162830000Y-134493150D03*
X162830000Y-133473150D03*
%TD*%
D18*
%TO.C,C148*%
X145320000Y-123575000D03*
X146280000Y-123575000D03*
%TD*%
D21*
%TO.C,U16*%
X163735000Y-126008150D03*
X162465000Y-126008150D03*
X161195000Y-126008150D03*
X159925000Y-126008150D03*
X159925000Y-130958150D03*
X161195000Y-130958150D03*
X162465000Y-130958150D03*
X163735000Y-130958150D03*
%TD*%
D30*
%TO.C,C95*%
X153865000Y-134398150D03*
X153865000Y-133438150D03*
%TD*%
D35*
%TO.C,C147*%
X145325000Y-122275000D03*
X146875000Y-122275000D03*
%TD*%
D37*
%TO.C,CR8*%
X153150000Y-146500002D03*
X153150000Y-147000001D03*
X153150000Y-147500000D03*
X154851800Y-147500000D03*
X154851800Y-147000001D03*
X154851800Y-146500002D03*
%TD*%
D24*
%TO.C,R18*%
X176345000Y-124065000D03*
X175325000Y-124065000D03*
%TD*%
D35*
%TO.C,C155*%
X148128000Y-113006000D03*
X149678000Y-113006000D03*
%TD*%
D24*
%TO.C,R24*%
X162340000Y-123983150D03*
X161320000Y-123983150D03*
%TD*%
D23*
%TO.C,R58*%
X156383000Y-81756000D03*
X156383000Y-80106000D03*
%TD*%
D12*
%TO.C,R17*%
X177185000Y-120535000D03*
X177185000Y-119515000D03*
%TD*%
D39*
%TO.C,R65*%
X145250549Y-90273801D03*
X146270549Y-90273801D03*
%TD*%
D25*
%TO.C,C63*%
X167650000Y-150905000D03*
X167650000Y-149355000D03*
%TD*%
D60*
%TO.C,D1*%
X175930900Y-101500000D03*
D61*
X173069100Y-101500000D03*
%TD*%
D32*
%TO.C,R49*%
X164935000Y-98107000D03*
X164935000Y-99127000D03*
%TD*%
D11*
%TO.C,C138*%
X149208049Y-91307501D03*
X148248049Y-91307501D03*
%TD*%
D12*
%TO.C,R43*%
X155367000Y-54220395D03*
X155367000Y-53200395D03*
%TD*%
D35*
%TO.C,C166*%
X146015000Y-101250001D03*
X147565000Y-101250001D03*
%TD*%
D21*
%TO.C,U18*%
X156770000Y-125933150D03*
X155500000Y-125933150D03*
X154230000Y-125933150D03*
X152960000Y-125933150D03*
X152960000Y-130883150D03*
X154230000Y-130883150D03*
X155500000Y-130883150D03*
X156770000Y-130883150D03*
%TD*%
D24*
%TO.C,R8*%
X170301000Y-74625000D03*
X169281000Y-74625000D03*
%TD*%
D19*
%TO.C,C101*%
X167730000Y-122300000D03*
X169762000Y-122300000D03*
D20*
X168746000Y-122985800D03*
X168746000Y-121614200D03*
%TD*%
D62*
%TO.C,U22*%
X159939000Y-101750000D03*
D63*
X158988999Y-101750000D03*
X158038998Y-101750000D03*
X158038998Y-104370000D03*
X159939000Y-104370000D03*
%TD*%
D24*
%TO.C,R14*%
X175525000Y-115250000D03*
X174505000Y-115250000D03*
%TD*%
%TO.C,R74*%
X158542000Y-106656000D03*
X157522000Y-106656000D03*
%TD*%
D21*
%TO.C,U33*%
X148428043Y-63297501D03*
X147158043Y-63297501D03*
X145888043Y-63297501D03*
X144618043Y-63297501D03*
X144618043Y-68247501D03*
X145888043Y-68247501D03*
X147158043Y-68247501D03*
X148428043Y-68247501D03*
%TD*%
D22*
%TO.C,U15*%
X177890000Y-136965000D03*
X176620000Y-136965000D03*
X175350000Y-136965000D03*
X174080000Y-136965000D03*
X174080000Y-141915000D03*
X175350000Y-141915000D03*
X176620000Y-141915000D03*
X177890000Y-141915000D03*
%TD*%
D18*
%TO.C,C193*%
X150240000Y-145250000D03*
X151200000Y-145250000D03*
%TD*%
D25*
%TO.C,C111*%
X149439549Y-72262501D03*
X149439549Y-70712501D03*
%TD*%
D35*
%TO.C,C157*%
X148102000Y-111355000D03*
X149652000Y-111355000D03*
%TD*%
D40*
%TO.C,U9*%
X166770997Y-71075000D03*
X168040997Y-71075000D03*
X169310997Y-71075000D03*
X170580997Y-71075000D03*
X170580997Y-66125000D03*
X169310997Y-66125000D03*
X168040997Y-66125000D03*
X166770997Y-66125000D03*
%TD*%
D53*
%TO.C,TP5*%
X161971000Y-115673000D03*
%TD*%
D22*
%TO.C,U17*%
X163770000Y-136923150D03*
X162500000Y-136923150D03*
X161230000Y-136923150D03*
X159960000Y-136923150D03*
X159960000Y-141873150D03*
X161230000Y-141873150D03*
X162500000Y-141873150D03*
X163770000Y-141873150D03*
%TD*%
D12*
%TO.C,R16*%
X174185000Y-120535000D03*
X174185000Y-119515000D03*
%TD*%
D35*
%TO.C,C59*%
X175700000Y-157930000D03*
X177250000Y-157930000D03*
%TD*%
D59*
%TO.C,U21*%
X144154049Y-84195501D03*
X144154049Y-85465501D03*
X144154049Y-86735501D03*
X144154049Y-88005501D03*
X149488049Y-88005501D03*
X149488049Y-86735501D03*
X149488049Y-85465501D03*
X149488049Y-84195501D03*
%TD*%
D24*
%TO.C,R7*%
X172291000Y-74625000D03*
X171271000Y-74625000D03*
%TD*%
D52*
%TO.C,D11*%
X166797000Y-189866500D03*
X166797000Y-188291500D03*
%TD*%
D28*
%TO.C,MT1*%
X145000000Y-37000000D03*
D29*
X145000000Y-37000000D03*
%TD*%
D11*
%TO.C,C124*%
X155085000Y-116647999D03*
X154125000Y-116647999D03*
%TD*%
D26*
%TO.C,R40*%
X147915549Y-70662501D03*
X147915549Y-72312501D03*
%TD*%
D18*
%TO.C,C68*%
X175205000Y-120515000D03*
X176165000Y-120515000D03*
%TD*%
D64*
%TO.C,J1*%
X174100000Y-47000000D03*
D65*
X145900000Y-47000000D03*
%TD*%
D64*
%TO.C,J2*%
X174100000Y-177000000D03*
D65*
X145900000Y-177000000D03*
%TD*%
M02*
