%TF.GenerationSoftware,KiCad,Pcbnew,9.0.9-9.0.9~ubuntu22.04.1*%
%TF.CreationDate,2026-08-31T08:44:57-04:00*%
%TF.ProjectId,psc_daughter_brd,7073635f-6461-4756-9768-7465725f6272,rev?*%
%TF.SameCoordinates,Original*%
%TF.FileFunction,Copper,L10,Bot*%
%TF.FilePolarity,Positive*%
%FSLAX46Y46*%
G04 Gerber Fmt 4.6, Leading zero omitted, Abs format (unit mm)*
G04 Created by KiCad (PCBNEW 9.0.9-9.0.9~ubuntu22.04.1) date 2026-08-31 08:44:57*
%MOMM*%
%LPD*%
G01*
G04 APERTURE LIST*
G04 Aperture macros list*
%AMRoundRect*
0 Rectangle with rounded corners*
0 $1 Rounding radius*
0 $2 $3 $4 $5 $6 $7 $8 $9 X,Y pos of 4 corners*
0 Add a 4 corners polygon primitive as box body*
4,1,4,$2,$3,$4,$5,$6,$7,$8,$9,$2,$3,0*
0 Add four circle primitives for the rounded corners*
1,1,$1+$1,$2,$3*
1,1,$1+$1,$4,$5*
1,1,$1+$1,$6,$7*
1,1,$1+$1,$8,$9*
0 Add four rect primitives between the rounded corners*
20,1,$1+$1,$2,$3,$4,$5,0*
20,1,$1+$1,$4,$5,$6,$7,0*
20,1,$1+$1,$6,$7,$8,$9,0*
20,1,$1+$1,$8,$9,$2,$3,0*%
G04 Aperture macros list end*
%ADD10C,0.100000*%
%ADD11C,0.150000*%
%ADD12C,0.300000*%
%ADD13C,0.400000*%
%TA.AperFunction,ComponentPad*%
%ADD14C,3.600000*%
%TD*%
%TA.AperFunction,ConnectorPad*%
%ADD15C,6.400000*%
%TD*%
%TA.AperFunction,ComponentPad*%
%ADD16C,0.500000*%
%TD*%
%TA.AperFunction,SMDPad,CuDef*%
%ADD17RoundRect,0.225000X-0.250000X0.225000X-0.250000X-0.225000X0.250000X-0.225000X0.250000X0.225000X0*%
%TD*%
%TA.AperFunction,SMDPad,CuDef*%
%ADD18RoundRect,0.140000X-0.170000X0.140000X-0.170000X-0.140000X0.170000X-0.140000X0.170000X0.140000X0*%
%TD*%
%TA.AperFunction,SMDPad,CuDef*%
%ADD19RoundRect,0.140000X-0.140000X-0.170000X0.140000X-0.170000X0.140000X0.170000X-0.140000X0.170000X0*%
%TD*%
%TA.AperFunction,SMDPad,CuDef*%
%ADD20RoundRect,0.140000X0.140000X0.170000X-0.140000X0.170000X-0.140000X-0.170000X0.140000X-0.170000X0*%
%TD*%
%TA.AperFunction,SMDPad,CuDef*%
%ADD21RoundRect,0.225000X0.225000X0.250000X-0.225000X0.250000X-0.225000X-0.250000X0.225000X-0.250000X0*%
%TD*%
%TA.AperFunction,SMDPad,CuDef*%
%ADD22RoundRect,0.140000X0.170000X-0.140000X0.170000X0.140000X-0.170000X0.140000X-0.170000X-0.140000X0*%
%TD*%
%TA.AperFunction,SMDPad,CuDef*%
%ADD23RoundRect,0.225000X0.250000X-0.225000X0.250000X0.225000X-0.250000X0.225000X-0.250000X-0.225000X0*%
%TD*%
%TA.AperFunction,SMDPad,CuDef*%
%ADD24RoundRect,0.150000X-0.150000X0.587500X-0.150000X-0.587500X0.150000X-0.587500X0.150000X0.587500X0*%
%TD*%
%TA.AperFunction,SMDPad,CuDef*%
%ADD25RoundRect,0.225000X-0.225000X-0.250000X0.225000X-0.250000X0.225000X0.250000X-0.225000X0.250000X0*%
%TD*%
%TA.AperFunction,SMDPad,CuDef*%
%ADD26R,0.500000X2.000000*%
%TD*%
%TA.AperFunction,SMDPad,CuDef*%
%ADD27RoundRect,0.250000X-0.325000X-1.100000X0.325000X-1.100000X0.325000X1.100000X-0.325000X1.100000X0*%
%TD*%
%TA.AperFunction,ViaPad*%
%ADD28C,0.600000*%
%TD*%
%TA.AperFunction,Conductor*%
%ADD29C,0.300000*%
%TD*%
%TA.AperFunction,Conductor*%
%ADD30C,0.200000*%
%TD*%
%TA.AperFunction,Conductor*%
%ADD31C,0.150000*%
%TD*%
G04 APERTURE END LIST*
D10*
D11*
X311800000Y-235400000D02*
X419800000Y-235400000D01*
X419800000Y-267400000D01*
X311800000Y-267400000D01*
X311800000Y-235400000D01*
D10*
D11*
X10000000Y-10000000D02*
X421800000Y-10000000D01*
X421800000Y-269400000D01*
X10000000Y-269400000D01*
X10000000Y-10000000D01*
D10*
D11*
X12000000Y-12000000D02*
X419800000Y-12000000D01*
X419800000Y-267400000D01*
X12000000Y-267400000D01*
X12000000Y-12000000D01*
D10*
D11*
X60000000Y-12000000D02*
X60000000Y-10000000D01*
D10*
D11*
X110000000Y-12000000D02*
X110000000Y-10000000D01*
D10*
D11*
X160000000Y-12000000D02*
X160000000Y-10000000D01*
D10*
D11*
X210000000Y-12000000D02*
X210000000Y-10000000D01*
D10*
D11*
X260000000Y-12000000D02*
X260000000Y-10000000D01*
D10*
D11*
X310000000Y-12000000D02*
X310000000Y-10000000D01*
D10*
D11*
X360000000Y-12000000D02*
X360000000Y-10000000D01*
D10*
D11*
X410000000Y-12000000D02*
X410000000Y-10000000D01*
D10*
D11*
X36089160Y-11593604D02*
X35346303Y-11593604D01*
X35717731Y-11593604D02*
X35717731Y-10293604D01*
X35717731Y-10293604D02*
X35593922Y-10479319D01*
X35593922Y-10479319D02*
X35470112Y-10603128D01*
X35470112Y-10603128D02*
X35346303Y-10665033D01*
D10*
D11*
X85346303Y-10417414D02*
X85408207Y-10355509D01*
X85408207Y-10355509D02*
X85532017Y-10293604D01*
X85532017Y-10293604D02*
X85841541Y-10293604D01*
X85841541Y-10293604D02*
X85965350Y-10355509D01*
X85965350Y-10355509D02*
X86027255Y-10417414D01*
X86027255Y-10417414D02*
X86089160Y-10541223D01*
X86089160Y-10541223D02*
X86089160Y-10665033D01*
X86089160Y-10665033D02*
X86027255Y-10850747D01*
X86027255Y-10850747D02*
X85284398Y-11593604D01*
X85284398Y-11593604D02*
X86089160Y-11593604D01*
D10*
D11*
X135284398Y-10293604D02*
X136089160Y-10293604D01*
X136089160Y-10293604D02*
X135655826Y-10788842D01*
X135655826Y-10788842D02*
X135841541Y-10788842D01*
X135841541Y-10788842D02*
X135965350Y-10850747D01*
X135965350Y-10850747D02*
X136027255Y-10912652D01*
X136027255Y-10912652D02*
X136089160Y-11036461D01*
X136089160Y-11036461D02*
X136089160Y-11345985D01*
X136089160Y-11345985D02*
X136027255Y-11469795D01*
X136027255Y-11469795D02*
X135965350Y-11531700D01*
X135965350Y-11531700D02*
X135841541Y-11593604D01*
X135841541Y-11593604D02*
X135470112Y-11593604D01*
X135470112Y-11593604D02*
X135346303Y-11531700D01*
X135346303Y-11531700D02*
X135284398Y-11469795D01*
D10*
D11*
X185965350Y-10726938D02*
X185965350Y-11593604D01*
X185655826Y-10231700D02*
X185346303Y-11160271D01*
X185346303Y-11160271D02*
X186151064Y-11160271D01*
D10*
D11*
X236027255Y-10293604D02*
X235408207Y-10293604D01*
X235408207Y-10293604D02*
X235346303Y-10912652D01*
X235346303Y-10912652D02*
X235408207Y-10850747D01*
X235408207Y-10850747D02*
X235532017Y-10788842D01*
X235532017Y-10788842D02*
X235841541Y-10788842D01*
X235841541Y-10788842D02*
X235965350Y-10850747D01*
X235965350Y-10850747D02*
X236027255Y-10912652D01*
X236027255Y-10912652D02*
X236089160Y-11036461D01*
X236089160Y-11036461D02*
X236089160Y-11345985D01*
X236089160Y-11345985D02*
X236027255Y-11469795D01*
X236027255Y-11469795D02*
X235965350Y-11531700D01*
X235965350Y-11531700D02*
X235841541Y-11593604D01*
X235841541Y-11593604D02*
X235532017Y-11593604D01*
X235532017Y-11593604D02*
X235408207Y-11531700D01*
X235408207Y-11531700D02*
X235346303Y-11469795D01*
D10*
D11*
X285965350Y-10293604D02*
X285717731Y-10293604D01*
X285717731Y-10293604D02*
X285593922Y-10355509D01*
X285593922Y-10355509D02*
X285532017Y-10417414D01*
X285532017Y-10417414D02*
X285408207Y-10603128D01*
X285408207Y-10603128D02*
X285346303Y-10850747D01*
X285346303Y-10850747D02*
X285346303Y-11345985D01*
X285346303Y-11345985D02*
X285408207Y-11469795D01*
X285408207Y-11469795D02*
X285470112Y-11531700D01*
X285470112Y-11531700D02*
X285593922Y-11593604D01*
X285593922Y-11593604D02*
X285841541Y-11593604D01*
X285841541Y-11593604D02*
X285965350Y-11531700D01*
X285965350Y-11531700D02*
X286027255Y-11469795D01*
X286027255Y-11469795D02*
X286089160Y-11345985D01*
X286089160Y-11345985D02*
X286089160Y-11036461D01*
X286089160Y-11036461D02*
X286027255Y-10912652D01*
X286027255Y-10912652D02*
X285965350Y-10850747D01*
X285965350Y-10850747D02*
X285841541Y-10788842D01*
X285841541Y-10788842D02*
X285593922Y-10788842D01*
X285593922Y-10788842D02*
X285470112Y-10850747D01*
X285470112Y-10850747D02*
X285408207Y-10912652D01*
X285408207Y-10912652D02*
X285346303Y-11036461D01*
D10*
D11*
X335284398Y-10293604D02*
X336151064Y-10293604D01*
X336151064Y-10293604D02*
X335593922Y-11593604D01*
D10*
D11*
X385593922Y-10850747D02*
X385470112Y-10788842D01*
X385470112Y-10788842D02*
X385408207Y-10726938D01*
X385408207Y-10726938D02*
X385346303Y-10603128D01*
X385346303Y-10603128D02*
X385346303Y-10541223D01*
X385346303Y-10541223D02*
X385408207Y-10417414D01*
X385408207Y-10417414D02*
X385470112Y-10355509D01*
X385470112Y-10355509D02*
X385593922Y-10293604D01*
X385593922Y-10293604D02*
X385841541Y-10293604D01*
X385841541Y-10293604D02*
X385965350Y-10355509D01*
X385965350Y-10355509D02*
X386027255Y-10417414D01*
X386027255Y-10417414D02*
X386089160Y-10541223D01*
X386089160Y-10541223D02*
X386089160Y-10603128D01*
X386089160Y-10603128D02*
X386027255Y-10726938D01*
X386027255Y-10726938D02*
X385965350Y-10788842D01*
X385965350Y-10788842D02*
X385841541Y-10850747D01*
X385841541Y-10850747D02*
X385593922Y-10850747D01*
X385593922Y-10850747D02*
X385470112Y-10912652D01*
X385470112Y-10912652D02*
X385408207Y-10974557D01*
X385408207Y-10974557D02*
X385346303Y-11098366D01*
X385346303Y-11098366D02*
X385346303Y-11345985D01*
X385346303Y-11345985D02*
X385408207Y-11469795D01*
X385408207Y-11469795D02*
X385470112Y-11531700D01*
X385470112Y-11531700D02*
X385593922Y-11593604D01*
X385593922Y-11593604D02*
X385841541Y-11593604D01*
X385841541Y-11593604D02*
X385965350Y-11531700D01*
X385965350Y-11531700D02*
X386027255Y-11469795D01*
X386027255Y-11469795D02*
X386089160Y-11345985D01*
X386089160Y-11345985D02*
X386089160Y-11098366D01*
X386089160Y-11098366D02*
X386027255Y-10974557D01*
X386027255Y-10974557D02*
X385965350Y-10912652D01*
X385965350Y-10912652D02*
X385841541Y-10850747D01*
D10*
D11*
X60000000Y-267400000D02*
X60000000Y-269400000D01*
D10*
D11*
X110000000Y-267400000D02*
X110000000Y-269400000D01*
D10*
D11*
X160000000Y-267400000D02*
X160000000Y-269400000D01*
D10*
D11*
X210000000Y-267400000D02*
X210000000Y-269400000D01*
D10*
D11*
X260000000Y-267400000D02*
X260000000Y-269400000D01*
D10*
D11*
X310000000Y-267400000D02*
X310000000Y-269400000D01*
D10*
D11*
X360000000Y-267400000D02*
X360000000Y-269400000D01*
D10*
D11*
X410000000Y-267400000D02*
X410000000Y-269400000D01*
D10*
D11*
X36089160Y-268993604D02*
X35346303Y-268993604D01*
X35717731Y-268993604D02*
X35717731Y-267693604D01*
X35717731Y-267693604D02*
X35593922Y-267879319D01*
X35593922Y-267879319D02*
X35470112Y-268003128D01*
X35470112Y-268003128D02*
X35346303Y-268065033D01*
D10*
D11*
X85346303Y-267817414D02*
X85408207Y-267755509D01*
X85408207Y-267755509D02*
X85532017Y-267693604D01*
X85532017Y-267693604D02*
X85841541Y-267693604D01*
X85841541Y-267693604D02*
X85965350Y-267755509D01*
X85965350Y-267755509D02*
X86027255Y-267817414D01*
X86027255Y-267817414D02*
X86089160Y-267941223D01*
X86089160Y-267941223D02*
X86089160Y-268065033D01*
X86089160Y-268065033D02*
X86027255Y-268250747D01*
X86027255Y-268250747D02*
X85284398Y-268993604D01*
X85284398Y-268993604D02*
X86089160Y-268993604D01*
D10*
D11*
X135284398Y-267693604D02*
X136089160Y-267693604D01*
X136089160Y-267693604D02*
X135655826Y-268188842D01*
X135655826Y-268188842D02*
X135841541Y-268188842D01*
X135841541Y-268188842D02*
X135965350Y-268250747D01*
X135965350Y-268250747D02*
X136027255Y-268312652D01*
X136027255Y-268312652D02*
X136089160Y-268436461D01*
X136089160Y-268436461D02*
X136089160Y-268745985D01*
X136089160Y-268745985D02*
X136027255Y-268869795D01*
X136027255Y-268869795D02*
X135965350Y-268931700D01*
X135965350Y-268931700D02*
X135841541Y-268993604D01*
X135841541Y-268993604D02*
X135470112Y-268993604D01*
X135470112Y-268993604D02*
X135346303Y-268931700D01*
X135346303Y-268931700D02*
X135284398Y-268869795D01*
D10*
D11*
X185965350Y-268126938D02*
X185965350Y-268993604D01*
X185655826Y-267631700D02*
X185346303Y-268560271D01*
X185346303Y-268560271D02*
X186151064Y-268560271D01*
D10*
D11*
X236027255Y-267693604D02*
X235408207Y-267693604D01*
X235408207Y-267693604D02*
X235346303Y-268312652D01*
X235346303Y-268312652D02*
X235408207Y-268250747D01*
X235408207Y-268250747D02*
X235532017Y-268188842D01*
X235532017Y-268188842D02*
X235841541Y-268188842D01*
X235841541Y-268188842D02*
X235965350Y-268250747D01*
X235965350Y-268250747D02*
X236027255Y-268312652D01*
X236027255Y-268312652D02*
X236089160Y-268436461D01*
X236089160Y-268436461D02*
X236089160Y-268745985D01*
X236089160Y-268745985D02*
X236027255Y-268869795D01*
X236027255Y-268869795D02*
X235965350Y-268931700D01*
X235965350Y-268931700D02*
X235841541Y-268993604D01*
X235841541Y-268993604D02*
X235532017Y-268993604D01*
X235532017Y-268993604D02*
X235408207Y-268931700D01*
X235408207Y-268931700D02*
X235346303Y-268869795D01*
D10*
D11*
X285965350Y-267693604D02*
X285717731Y-267693604D01*
X285717731Y-267693604D02*
X285593922Y-267755509D01*
X285593922Y-267755509D02*
X285532017Y-267817414D01*
X285532017Y-267817414D02*
X285408207Y-268003128D01*
X285408207Y-268003128D02*
X285346303Y-268250747D01*
X285346303Y-268250747D02*
X285346303Y-268745985D01*
X285346303Y-268745985D02*
X285408207Y-268869795D01*
X285408207Y-268869795D02*
X285470112Y-268931700D01*
X285470112Y-268931700D02*
X285593922Y-268993604D01*
X285593922Y-268993604D02*
X285841541Y-268993604D01*
X285841541Y-268993604D02*
X285965350Y-268931700D01*
X285965350Y-268931700D02*
X286027255Y-268869795D01*
X286027255Y-268869795D02*
X286089160Y-268745985D01*
X286089160Y-268745985D02*
X286089160Y-268436461D01*
X286089160Y-268436461D02*
X286027255Y-268312652D01*
X286027255Y-268312652D02*
X285965350Y-268250747D01*
X285965350Y-268250747D02*
X285841541Y-268188842D01*
X285841541Y-268188842D02*
X285593922Y-268188842D01*
X285593922Y-268188842D02*
X285470112Y-268250747D01*
X285470112Y-268250747D02*
X285408207Y-268312652D01*
X285408207Y-268312652D02*
X285346303Y-268436461D01*
D10*
D11*
X335284398Y-267693604D02*
X336151064Y-267693604D01*
X336151064Y-267693604D02*
X335593922Y-268993604D01*
D10*
D11*
X385593922Y-268250747D02*
X385470112Y-268188842D01*
X385470112Y-268188842D02*
X385408207Y-268126938D01*
X385408207Y-268126938D02*
X385346303Y-268003128D01*
X385346303Y-268003128D02*
X385346303Y-267941223D01*
X385346303Y-267941223D02*
X385408207Y-267817414D01*
X385408207Y-267817414D02*
X385470112Y-267755509D01*
X385470112Y-267755509D02*
X385593922Y-267693604D01*
X385593922Y-267693604D02*
X385841541Y-267693604D01*
X385841541Y-267693604D02*
X385965350Y-267755509D01*
X385965350Y-267755509D02*
X386027255Y-267817414D01*
X386027255Y-267817414D02*
X386089160Y-267941223D01*
X386089160Y-267941223D02*
X386089160Y-268003128D01*
X386089160Y-268003128D02*
X386027255Y-268126938D01*
X386027255Y-268126938D02*
X385965350Y-268188842D01*
X385965350Y-268188842D02*
X385841541Y-268250747D01*
X385841541Y-268250747D02*
X385593922Y-268250747D01*
X385593922Y-268250747D02*
X385470112Y-268312652D01*
X385470112Y-268312652D02*
X385408207Y-268374557D01*
X385408207Y-268374557D02*
X385346303Y-268498366D01*
X385346303Y-268498366D02*
X385346303Y-268745985D01*
X385346303Y-268745985D02*
X385408207Y-268869795D01*
X385408207Y-268869795D02*
X385470112Y-268931700D01*
X385470112Y-268931700D02*
X385593922Y-268993604D01*
X385593922Y-268993604D02*
X385841541Y-268993604D01*
X385841541Y-268993604D02*
X385965350Y-268931700D01*
X385965350Y-268931700D02*
X386027255Y-268869795D01*
X386027255Y-268869795D02*
X386089160Y-268745985D01*
X386089160Y-268745985D02*
X386089160Y-268498366D01*
X386089160Y-268498366D02*
X386027255Y-268374557D01*
X386027255Y-268374557D02*
X385965350Y-268312652D01*
X385965350Y-268312652D02*
X385841541Y-268250747D01*
D10*
D11*
X10000000Y-60000000D02*
X12000000Y-60000000D01*
D10*
D11*
X10000000Y-110000000D02*
X12000000Y-110000000D01*
D10*
D11*
X10000000Y-160000000D02*
X12000000Y-160000000D01*
D10*
D11*
X10000000Y-210000000D02*
X12000000Y-210000000D01*
D10*
D11*
X10000000Y-260000000D02*
X12000000Y-260000000D01*
D10*
D11*
X10690476Y-35222176D02*
X11309523Y-35222176D01*
X10566666Y-35593604D02*
X10999999Y-34293604D01*
X10999999Y-34293604D02*
X11433333Y-35593604D01*
D10*
D11*
X11092857Y-84912652D02*
X11278571Y-84974557D01*
X11278571Y-84974557D02*
X11340476Y-85036461D01*
X11340476Y-85036461D02*
X11402380Y-85160271D01*
X11402380Y-85160271D02*
X11402380Y-85345985D01*
X11402380Y-85345985D02*
X11340476Y-85469795D01*
X11340476Y-85469795D02*
X11278571Y-85531700D01*
X11278571Y-85531700D02*
X11154761Y-85593604D01*
X11154761Y-85593604D02*
X10659523Y-85593604D01*
X10659523Y-85593604D02*
X10659523Y-84293604D01*
X10659523Y-84293604D02*
X11092857Y-84293604D01*
X11092857Y-84293604D02*
X11216666Y-84355509D01*
X11216666Y-84355509D02*
X11278571Y-84417414D01*
X11278571Y-84417414D02*
X11340476Y-84541223D01*
X11340476Y-84541223D02*
X11340476Y-84665033D01*
X11340476Y-84665033D02*
X11278571Y-84788842D01*
X11278571Y-84788842D02*
X11216666Y-84850747D01*
X11216666Y-84850747D02*
X11092857Y-84912652D01*
X11092857Y-84912652D02*
X10659523Y-84912652D01*
D10*
D11*
X11402380Y-135469795D02*
X11340476Y-135531700D01*
X11340476Y-135531700D02*
X11154761Y-135593604D01*
X11154761Y-135593604D02*
X11030952Y-135593604D01*
X11030952Y-135593604D02*
X10845238Y-135531700D01*
X10845238Y-135531700D02*
X10721428Y-135407890D01*
X10721428Y-135407890D02*
X10659523Y-135284080D01*
X10659523Y-135284080D02*
X10597619Y-135036461D01*
X10597619Y-135036461D02*
X10597619Y-134850747D01*
X10597619Y-134850747D02*
X10659523Y-134603128D01*
X10659523Y-134603128D02*
X10721428Y-134479319D01*
X10721428Y-134479319D02*
X10845238Y-134355509D01*
X10845238Y-134355509D02*
X11030952Y-134293604D01*
X11030952Y-134293604D02*
X11154761Y-134293604D01*
X11154761Y-134293604D02*
X11340476Y-134355509D01*
X11340476Y-134355509D02*
X11402380Y-134417414D01*
D10*
D11*
X10659523Y-185593604D02*
X10659523Y-184293604D01*
X10659523Y-184293604D02*
X10969047Y-184293604D01*
X10969047Y-184293604D02*
X11154761Y-184355509D01*
X11154761Y-184355509D02*
X11278571Y-184479319D01*
X11278571Y-184479319D02*
X11340476Y-184603128D01*
X11340476Y-184603128D02*
X11402380Y-184850747D01*
X11402380Y-184850747D02*
X11402380Y-185036461D01*
X11402380Y-185036461D02*
X11340476Y-185284080D01*
X11340476Y-185284080D02*
X11278571Y-185407890D01*
X11278571Y-185407890D02*
X11154761Y-185531700D01*
X11154761Y-185531700D02*
X10969047Y-185593604D01*
X10969047Y-185593604D02*
X10659523Y-185593604D01*
D10*
D11*
X10721428Y-234912652D02*
X11154762Y-234912652D01*
X11340476Y-235593604D02*
X10721428Y-235593604D01*
X10721428Y-235593604D02*
X10721428Y-234293604D01*
X10721428Y-234293604D02*
X11340476Y-234293604D01*
D10*
D11*
X421800000Y-60000000D02*
X419800000Y-60000000D01*
D10*
D11*
X421800000Y-110000000D02*
X419800000Y-110000000D01*
D10*
D11*
X421800000Y-160000000D02*
X419800000Y-160000000D01*
D10*
D11*
X421800000Y-210000000D02*
X419800000Y-210000000D01*
D10*
D11*
X421800000Y-260000000D02*
X419800000Y-260000000D01*
D10*
D11*
X420490476Y-35222176D02*
X421109523Y-35222176D01*
X420366666Y-35593604D02*
X420799999Y-34293604D01*
X420799999Y-34293604D02*
X421233333Y-35593604D01*
D10*
D11*
X420892857Y-84912652D02*
X421078571Y-84974557D01*
X421078571Y-84974557D02*
X421140476Y-85036461D01*
X421140476Y-85036461D02*
X421202380Y-85160271D01*
X421202380Y-85160271D02*
X421202380Y-85345985D01*
X421202380Y-85345985D02*
X421140476Y-85469795D01*
X421140476Y-85469795D02*
X421078571Y-85531700D01*
X421078571Y-85531700D02*
X420954761Y-85593604D01*
X420954761Y-85593604D02*
X420459523Y-85593604D01*
X420459523Y-85593604D02*
X420459523Y-84293604D01*
X420459523Y-84293604D02*
X420892857Y-84293604D01*
X420892857Y-84293604D02*
X421016666Y-84355509D01*
X421016666Y-84355509D02*
X421078571Y-84417414D01*
X421078571Y-84417414D02*
X421140476Y-84541223D01*
X421140476Y-84541223D02*
X421140476Y-84665033D01*
X421140476Y-84665033D02*
X421078571Y-84788842D01*
X421078571Y-84788842D02*
X421016666Y-84850747D01*
X421016666Y-84850747D02*
X420892857Y-84912652D01*
X420892857Y-84912652D02*
X420459523Y-84912652D01*
D10*
D11*
X421202380Y-135469795D02*
X421140476Y-135531700D01*
X421140476Y-135531700D02*
X420954761Y-135593604D01*
X420954761Y-135593604D02*
X420830952Y-135593604D01*
X420830952Y-135593604D02*
X420645238Y-135531700D01*
X420645238Y-135531700D02*
X420521428Y-135407890D01*
X420521428Y-135407890D02*
X420459523Y-135284080D01*
X420459523Y-135284080D02*
X420397619Y-135036461D01*
X420397619Y-135036461D02*
X420397619Y-134850747D01*
X420397619Y-134850747D02*
X420459523Y-134603128D01*
X420459523Y-134603128D02*
X420521428Y-134479319D01*
X420521428Y-134479319D02*
X420645238Y-134355509D01*
X420645238Y-134355509D02*
X420830952Y-134293604D01*
X420830952Y-134293604D02*
X420954761Y-134293604D01*
X420954761Y-134293604D02*
X421140476Y-134355509D01*
X421140476Y-134355509D02*
X421202380Y-134417414D01*
D10*
D11*
X420459523Y-185593604D02*
X420459523Y-184293604D01*
X420459523Y-184293604D02*
X420769047Y-184293604D01*
X420769047Y-184293604D02*
X420954761Y-184355509D01*
X420954761Y-184355509D02*
X421078571Y-184479319D01*
X421078571Y-184479319D02*
X421140476Y-184603128D01*
X421140476Y-184603128D02*
X421202380Y-184850747D01*
X421202380Y-184850747D02*
X421202380Y-185036461D01*
X421202380Y-185036461D02*
X421140476Y-185284080D01*
X421140476Y-185284080D02*
X421078571Y-185407890D01*
X421078571Y-185407890D02*
X420954761Y-185531700D01*
X420954761Y-185531700D02*
X420769047Y-185593604D01*
X420769047Y-185593604D02*
X420459523Y-185593604D01*
D10*
D11*
X420521428Y-234912652D02*
X420954762Y-234912652D01*
X421140476Y-235593604D02*
X420521428Y-235593604D01*
X420521428Y-235593604D02*
X420521428Y-234293604D01*
X420521428Y-234293604D02*
X421140476Y-234293604D01*
D10*
D11*
X335255826Y-263186128D02*
X335255826Y-261686128D01*
X335255826Y-261686128D02*
X335612969Y-261686128D01*
X335612969Y-261686128D02*
X335827255Y-261757557D01*
X335827255Y-261757557D02*
X335970112Y-261900414D01*
X335970112Y-261900414D02*
X336041541Y-262043271D01*
X336041541Y-262043271D02*
X336112969Y-262328985D01*
X336112969Y-262328985D02*
X336112969Y-262543271D01*
X336112969Y-262543271D02*
X336041541Y-262828985D01*
X336041541Y-262828985D02*
X335970112Y-262971842D01*
X335970112Y-262971842D02*
X335827255Y-263114700D01*
X335827255Y-263114700D02*
X335612969Y-263186128D01*
X335612969Y-263186128D02*
X335255826Y-263186128D01*
X337398684Y-263186128D02*
X337398684Y-262400414D01*
X337398684Y-262400414D02*
X337327255Y-262257557D01*
X337327255Y-262257557D02*
X337184398Y-262186128D01*
X337184398Y-262186128D02*
X336898684Y-262186128D01*
X336898684Y-262186128D02*
X336755826Y-262257557D01*
X337398684Y-263114700D02*
X337255826Y-263186128D01*
X337255826Y-263186128D02*
X336898684Y-263186128D01*
X336898684Y-263186128D02*
X336755826Y-263114700D01*
X336755826Y-263114700D02*
X336684398Y-262971842D01*
X336684398Y-262971842D02*
X336684398Y-262828985D01*
X336684398Y-262828985D02*
X336755826Y-262686128D01*
X336755826Y-262686128D02*
X336898684Y-262614700D01*
X336898684Y-262614700D02*
X337255826Y-262614700D01*
X337255826Y-262614700D02*
X337398684Y-262543271D01*
X337898684Y-262186128D02*
X338470112Y-262186128D01*
X338112969Y-261686128D02*
X338112969Y-262971842D01*
X338112969Y-262971842D02*
X338184398Y-263114700D01*
X338184398Y-263114700D02*
X338327255Y-263186128D01*
X338327255Y-263186128D02*
X338470112Y-263186128D01*
X339541541Y-263114700D02*
X339398684Y-263186128D01*
X339398684Y-263186128D02*
X339112970Y-263186128D01*
X339112970Y-263186128D02*
X338970112Y-263114700D01*
X338970112Y-263114700D02*
X338898684Y-262971842D01*
X338898684Y-262971842D02*
X338898684Y-262400414D01*
X338898684Y-262400414D02*
X338970112Y-262257557D01*
X338970112Y-262257557D02*
X339112970Y-262186128D01*
X339112970Y-262186128D02*
X339398684Y-262186128D01*
X339398684Y-262186128D02*
X339541541Y-262257557D01*
X339541541Y-262257557D02*
X339612970Y-262400414D01*
X339612970Y-262400414D02*
X339612970Y-262543271D01*
X339612970Y-262543271D02*
X338898684Y-262686128D01*
X340255826Y-263043271D02*
X340327255Y-263114700D01*
X340327255Y-263114700D02*
X340255826Y-263186128D01*
X340255826Y-263186128D02*
X340184398Y-263114700D01*
X340184398Y-263114700D02*
X340255826Y-263043271D01*
X340255826Y-263043271D02*
X340255826Y-263186128D01*
X340255826Y-262257557D02*
X340327255Y-262328985D01*
X340327255Y-262328985D02*
X340255826Y-262400414D01*
X340255826Y-262400414D02*
X340184398Y-262328985D01*
X340184398Y-262328985D02*
X340255826Y-262257557D01*
X340255826Y-262257557D02*
X340255826Y-262400414D01*
D10*
D11*
X311800000Y-263900000D02*
X419800000Y-263900000D01*
D10*
D11*
X313255826Y-265986128D02*
X313255826Y-264486128D01*
X314112969Y-265986128D02*
X313470112Y-265128985D01*
X314112969Y-264486128D02*
X313255826Y-265343271D01*
X314755826Y-265986128D02*
X314755826Y-264986128D01*
X314755826Y-264486128D02*
X314684398Y-264557557D01*
X314684398Y-264557557D02*
X314755826Y-264628985D01*
X314755826Y-264628985D02*
X314827255Y-264557557D01*
X314827255Y-264557557D02*
X314755826Y-264486128D01*
X314755826Y-264486128D02*
X314755826Y-264628985D01*
X316327255Y-265843271D02*
X316255827Y-265914700D01*
X316255827Y-265914700D02*
X316041541Y-265986128D01*
X316041541Y-265986128D02*
X315898684Y-265986128D01*
X315898684Y-265986128D02*
X315684398Y-265914700D01*
X315684398Y-265914700D02*
X315541541Y-265771842D01*
X315541541Y-265771842D02*
X315470112Y-265628985D01*
X315470112Y-265628985D02*
X315398684Y-265343271D01*
X315398684Y-265343271D02*
X315398684Y-265128985D01*
X315398684Y-265128985D02*
X315470112Y-264843271D01*
X315470112Y-264843271D02*
X315541541Y-264700414D01*
X315541541Y-264700414D02*
X315684398Y-264557557D01*
X315684398Y-264557557D02*
X315898684Y-264486128D01*
X315898684Y-264486128D02*
X316041541Y-264486128D01*
X316041541Y-264486128D02*
X316255827Y-264557557D01*
X316255827Y-264557557D02*
X316327255Y-264628985D01*
X317612970Y-265986128D02*
X317612970Y-265200414D01*
X317612970Y-265200414D02*
X317541541Y-265057557D01*
X317541541Y-265057557D02*
X317398684Y-264986128D01*
X317398684Y-264986128D02*
X317112970Y-264986128D01*
X317112970Y-264986128D02*
X316970112Y-265057557D01*
X317612970Y-265914700D02*
X317470112Y-265986128D01*
X317470112Y-265986128D02*
X317112970Y-265986128D01*
X317112970Y-265986128D02*
X316970112Y-265914700D01*
X316970112Y-265914700D02*
X316898684Y-265771842D01*
X316898684Y-265771842D02*
X316898684Y-265628985D01*
X316898684Y-265628985D02*
X316970112Y-265486128D01*
X316970112Y-265486128D02*
X317112970Y-265414700D01*
X317112970Y-265414700D02*
X317470112Y-265414700D01*
X317470112Y-265414700D02*
X317612970Y-265343271D01*
X318970113Y-265986128D02*
X318970113Y-264486128D01*
X318970113Y-265914700D02*
X318827255Y-265986128D01*
X318827255Y-265986128D02*
X318541541Y-265986128D01*
X318541541Y-265986128D02*
X318398684Y-265914700D01*
X318398684Y-265914700D02*
X318327255Y-265843271D01*
X318327255Y-265843271D02*
X318255827Y-265700414D01*
X318255827Y-265700414D02*
X318255827Y-265271842D01*
X318255827Y-265271842D02*
X318327255Y-265128985D01*
X318327255Y-265128985D02*
X318398684Y-265057557D01*
X318398684Y-265057557D02*
X318541541Y-264986128D01*
X318541541Y-264986128D02*
X318827255Y-264986128D01*
X318827255Y-264986128D02*
X318970113Y-265057557D01*
X320827255Y-265200414D02*
X321327255Y-265200414D01*
X321541541Y-265986128D02*
X320827255Y-265986128D01*
X320827255Y-265986128D02*
X320827255Y-264486128D01*
X320827255Y-264486128D02*
X321541541Y-264486128D01*
X322184398Y-265843271D02*
X322255827Y-265914700D01*
X322255827Y-265914700D02*
X322184398Y-265986128D01*
X322184398Y-265986128D02*
X322112970Y-265914700D01*
X322112970Y-265914700D02*
X322184398Y-265843271D01*
X322184398Y-265843271D02*
X322184398Y-265986128D01*
X322898684Y-265986128D02*
X322898684Y-264486128D01*
X322898684Y-264486128D02*
X323255827Y-264486128D01*
X323255827Y-264486128D02*
X323470113Y-264557557D01*
X323470113Y-264557557D02*
X323612970Y-264700414D01*
X323612970Y-264700414D02*
X323684399Y-264843271D01*
X323684399Y-264843271D02*
X323755827Y-265128985D01*
X323755827Y-265128985D02*
X323755827Y-265343271D01*
X323755827Y-265343271D02*
X323684399Y-265628985D01*
X323684399Y-265628985D02*
X323612970Y-265771842D01*
X323612970Y-265771842D02*
X323470113Y-265914700D01*
X323470113Y-265914700D02*
X323255827Y-265986128D01*
X323255827Y-265986128D02*
X322898684Y-265986128D01*
X324398684Y-265843271D02*
X324470113Y-265914700D01*
X324470113Y-265914700D02*
X324398684Y-265986128D01*
X324398684Y-265986128D02*
X324327256Y-265914700D01*
X324327256Y-265914700D02*
X324398684Y-265843271D01*
X324398684Y-265843271D02*
X324398684Y-265986128D01*
X325041542Y-265557557D02*
X325755828Y-265557557D01*
X324898685Y-265986128D02*
X325398685Y-264486128D01*
X325398685Y-264486128D02*
X325898685Y-265986128D01*
X326398684Y-265843271D02*
X326470113Y-265914700D01*
X326470113Y-265914700D02*
X326398684Y-265986128D01*
X326398684Y-265986128D02*
X326327256Y-265914700D01*
X326327256Y-265914700D02*
X326398684Y-265843271D01*
X326398684Y-265843271D02*
X326398684Y-265986128D01*
X328327256Y-265986128D02*
X328612970Y-265986128D01*
X328612970Y-265986128D02*
X328755827Y-265914700D01*
X328755827Y-265914700D02*
X328827256Y-265843271D01*
X328827256Y-265843271D02*
X328970113Y-265628985D01*
X328970113Y-265628985D02*
X329041542Y-265343271D01*
X329041542Y-265343271D02*
X329041542Y-264771842D01*
X329041542Y-264771842D02*
X328970113Y-264628985D01*
X328970113Y-264628985D02*
X328898685Y-264557557D01*
X328898685Y-264557557D02*
X328755827Y-264486128D01*
X328755827Y-264486128D02*
X328470113Y-264486128D01*
X328470113Y-264486128D02*
X328327256Y-264557557D01*
X328327256Y-264557557D02*
X328255827Y-264628985D01*
X328255827Y-264628985D02*
X328184399Y-264771842D01*
X328184399Y-264771842D02*
X328184399Y-265128985D01*
X328184399Y-265128985D02*
X328255827Y-265271842D01*
X328255827Y-265271842D02*
X328327256Y-265343271D01*
X328327256Y-265343271D02*
X328470113Y-265414700D01*
X328470113Y-265414700D02*
X328755827Y-265414700D01*
X328755827Y-265414700D02*
X328898685Y-265343271D01*
X328898685Y-265343271D02*
X328970113Y-265271842D01*
X328970113Y-265271842D02*
X329041542Y-265128985D01*
X329684398Y-265843271D02*
X329755827Y-265914700D01*
X329755827Y-265914700D02*
X329684398Y-265986128D01*
X329684398Y-265986128D02*
X329612970Y-265914700D01*
X329612970Y-265914700D02*
X329684398Y-265843271D01*
X329684398Y-265843271D02*
X329684398Y-265986128D01*
X330684399Y-264486128D02*
X330827256Y-264486128D01*
X330827256Y-264486128D02*
X330970113Y-264557557D01*
X330970113Y-264557557D02*
X331041542Y-264628985D01*
X331041542Y-264628985D02*
X331112970Y-264771842D01*
X331112970Y-264771842D02*
X331184399Y-265057557D01*
X331184399Y-265057557D02*
X331184399Y-265414700D01*
X331184399Y-265414700D02*
X331112970Y-265700414D01*
X331112970Y-265700414D02*
X331041542Y-265843271D01*
X331041542Y-265843271D02*
X330970113Y-265914700D01*
X330970113Y-265914700D02*
X330827256Y-265986128D01*
X330827256Y-265986128D02*
X330684399Y-265986128D01*
X330684399Y-265986128D02*
X330541542Y-265914700D01*
X330541542Y-265914700D02*
X330470113Y-265843271D01*
X330470113Y-265843271D02*
X330398684Y-265700414D01*
X330398684Y-265700414D02*
X330327256Y-265414700D01*
X330327256Y-265414700D02*
X330327256Y-265057557D01*
X330327256Y-265057557D02*
X330398684Y-264771842D01*
X330398684Y-264771842D02*
X330470113Y-264628985D01*
X330470113Y-264628985D02*
X330541542Y-264557557D01*
X330541542Y-264557557D02*
X330684399Y-264486128D01*
X331827255Y-265843271D02*
X331898684Y-265914700D01*
X331898684Y-265914700D02*
X331827255Y-265986128D01*
X331827255Y-265986128D02*
X331755827Y-265914700D01*
X331755827Y-265914700D02*
X331827255Y-265843271D01*
X331827255Y-265843271D02*
X331827255Y-265986128D01*
X332612970Y-265986128D02*
X332898684Y-265986128D01*
X332898684Y-265986128D02*
X333041541Y-265914700D01*
X333041541Y-265914700D02*
X333112970Y-265843271D01*
X333112970Y-265843271D02*
X333255827Y-265628985D01*
X333255827Y-265628985D02*
X333327256Y-265343271D01*
X333327256Y-265343271D02*
X333327256Y-264771842D01*
X333327256Y-264771842D02*
X333255827Y-264628985D01*
X333255827Y-264628985D02*
X333184399Y-264557557D01*
X333184399Y-264557557D02*
X333041541Y-264486128D01*
X333041541Y-264486128D02*
X332755827Y-264486128D01*
X332755827Y-264486128D02*
X332612970Y-264557557D01*
X332612970Y-264557557D02*
X332541541Y-264628985D01*
X332541541Y-264628985D02*
X332470113Y-264771842D01*
X332470113Y-264771842D02*
X332470113Y-265128985D01*
X332470113Y-265128985D02*
X332541541Y-265271842D01*
X332541541Y-265271842D02*
X332612970Y-265343271D01*
X332612970Y-265343271D02*
X332755827Y-265414700D01*
X332755827Y-265414700D02*
X333041541Y-265414700D01*
X333041541Y-265414700D02*
X333184399Y-265343271D01*
X333184399Y-265343271D02*
X333255827Y-265271842D01*
X333255827Y-265271842D02*
X333327256Y-265128985D01*
D10*
D11*
X311800000Y-260900000D02*
X419800000Y-260900000D01*
D10*
D12*
X399211653Y-263178328D02*
X398711653Y-262464042D01*
X398354510Y-263178328D02*
X398354510Y-261678328D01*
X398354510Y-261678328D02*
X398925939Y-261678328D01*
X398925939Y-261678328D02*
X399068796Y-261749757D01*
X399068796Y-261749757D02*
X399140225Y-261821185D01*
X399140225Y-261821185D02*
X399211653Y-261964042D01*
X399211653Y-261964042D02*
X399211653Y-262178328D01*
X399211653Y-262178328D02*
X399140225Y-262321185D01*
X399140225Y-262321185D02*
X399068796Y-262392614D01*
X399068796Y-262392614D02*
X398925939Y-262464042D01*
X398925939Y-262464042D02*
X398354510Y-262464042D01*
X400425939Y-263106900D02*
X400283082Y-263178328D01*
X400283082Y-263178328D02*
X399997368Y-263178328D01*
X399997368Y-263178328D02*
X399854510Y-263106900D01*
X399854510Y-263106900D02*
X399783082Y-262964042D01*
X399783082Y-262964042D02*
X399783082Y-262392614D01*
X399783082Y-262392614D02*
X399854510Y-262249757D01*
X399854510Y-262249757D02*
X399997368Y-262178328D01*
X399997368Y-262178328D02*
X400283082Y-262178328D01*
X400283082Y-262178328D02*
X400425939Y-262249757D01*
X400425939Y-262249757D02*
X400497368Y-262392614D01*
X400497368Y-262392614D02*
X400497368Y-262535471D01*
X400497368Y-262535471D02*
X399783082Y-262678328D01*
X400997367Y-262178328D02*
X401354510Y-263178328D01*
X401354510Y-263178328D02*
X401711653Y-262178328D01*
X402283081Y-263035471D02*
X402354510Y-263106900D01*
X402354510Y-263106900D02*
X402283081Y-263178328D01*
X402283081Y-263178328D02*
X402211653Y-263106900D01*
X402211653Y-263106900D02*
X402283081Y-263035471D01*
X402283081Y-263035471D02*
X402283081Y-263178328D01*
X402283081Y-262249757D02*
X402354510Y-262321185D01*
X402354510Y-262321185D02*
X402283081Y-262392614D01*
X402283081Y-262392614D02*
X402211653Y-262321185D01*
X402211653Y-262321185D02*
X402283081Y-262249757D01*
X402283081Y-262249757D02*
X402283081Y-262392614D01*
D10*
D11*
X313184398Y-263114700D02*
X313398684Y-263186128D01*
X313398684Y-263186128D02*
X313755826Y-263186128D01*
X313755826Y-263186128D02*
X313898684Y-263114700D01*
X313898684Y-263114700D02*
X313970112Y-263043271D01*
X313970112Y-263043271D02*
X314041541Y-262900414D01*
X314041541Y-262900414D02*
X314041541Y-262757557D01*
X314041541Y-262757557D02*
X313970112Y-262614700D01*
X313970112Y-262614700D02*
X313898684Y-262543271D01*
X313898684Y-262543271D02*
X313755826Y-262471842D01*
X313755826Y-262471842D02*
X313470112Y-262400414D01*
X313470112Y-262400414D02*
X313327255Y-262328985D01*
X313327255Y-262328985D02*
X313255826Y-262257557D01*
X313255826Y-262257557D02*
X313184398Y-262114700D01*
X313184398Y-262114700D02*
X313184398Y-261971842D01*
X313184398Y-261971842D02*
X313255826Y-261828985D01*
X313255826Y-261828985D02*
X313327255Y-261757557D01*
X313327255Y-261757557D02*
X313470112Y-261686128D01*
X313470112Y-261686128D02*
X313827255Y-261686128D01*
X313827255Y-261686128D02*
X314041541Y-261757557D01*
X314684397Y-263186128D02*
X314684397Y-262186128D01*
X314684397Y-261686128D02*
X314612969Y-261757557D01*
X314612969Y-261757557D02*
X314684397Y-261828985D01*
X314684397Y-261828985D02*
X314755826Y-261757557D01*
X314755826Y-261757557D02*
X314684397Y-261686128D01*
X314684397Y-261686128D02*
X314684397Y-261828985D01*
X315255826Y-262186128D02*
X316041541Y-262186128D01*
X316041541Y-262186128D02*
X315255826Y-263186128D01*
X315255826Y-263186128D02*
X316041541Y-263186128D01*
X317184398Y-263114700D02*
X317041541Y-263186128D01*
X317041541Y-263186128D02*
X316755827Y-263186128D01*
X316755827Y-263186128D02*
X316612969Y-263114700D01*
X316612969Y-263114700D02*
X316541541Y-262971842D01*
X316541541Y-262971842D02*
X316541541Y-262400414D01*
X316541541Y-262400414D02*
X316612969Y-262257557D01*
X316612969Y-262257557D02*
X316755827Y-262186128D01*
X316755827Y-262186128D02*
X317041541Y-262186128D01*
X317041541Y-262186128D02*
X317184398Y-262257557D01*
X317184398Y-262257557D02*
X317255827Y-262400414D01*
X317255827Y-262400414D02*
X317255827Y-262543271D01*
X317255827Y-262543271D02*
X316541541Y-262686128D01*
X317898683Y-263043271D02*
X317970112Y-263114700D01*
X317970112Y-263114700D02*
X317898683Y-263186128D01*
X317898683Y-263186128D02*
X317827255Y-263114700D01*
X317827255Y-263114700D02*
X317898683Y-263043271D01*
X317898683Y-263043271D02*
X317898683Y-263186128D01*
X317898683Y-262257557D02*
X317970112Y-262328985D01*
X317970112Y-262328985D02*
X317898683Y-262400414D01*
X317898683Y-262400414D02*
X317827255Y-262328985D01*
X317827255Y-262328985D02*
X317898683Y-262257557D01*
X317898683Y-262257557D02*
X317898683Y-262400414D01*
X320255826Y-262400414D02*
X320470112Y-262471842D01*
X320470112Y-262471842D02*
X320541541Y-262543271D01*
X320541541Y-262543271D02*
X320612969Y-262686128D01*
X320612969Y-262686128D02*
X320612969Y-262900414D01*
X320612969Y-262900414D02*
X320541541Y-263043271D01*
X320541541Y-263043271D02*
X320470112Y-263114700D01*
X320470112Y-263114700D02*
X320327255Y-263186128D01*
X320327255Y-263186128D02*
X319755826Y-263186128D01*
X319755826Y-263186128D02*
X319755826Y-261686128D01*
X319755826Y-261686128D02*
X320255826Y-261686128D01*
X320255826Y-261686128D02*
X320398684Y-261757557D01*
X320398684Y-261757557D02*
X320470112Y-261828985D01*
X320470112Y-261828985D02*
X320541541Y-261971842D01*
X320541541Y-261971842D02*
X320541541Y-262114700D01*
X320541541Y-262114700D02*
X320470112Y-262257557D01*
X320470112Y-262257557D02*
X320398684Y-262328985D01*
X320398684Y-262328985D02*
X320255826Y-262400414D01*
X320255826Y-262400414D02*
X319755826Y-262400414D01*
D10*
D11*
X398255826Y-265986128D02*
X398255826Y-264486128D01*
X399612970Y-265986128D02*
X399612970Y-264486128D01*
X399612970Y-265914700D02*
X399470112Y-265986128D01*
X399470112Y-265986128D02*
X399184398Y-265986128D01*
X399184398Y-265986128D02*
X399041541Y-265914700D01*
X399041541Y-265914700D02*
X398970112Y-265843271D01*
X398970112Y-265843271D02*
X398898684Y-265700414D01*
X398898684Y-265700414D02*
X398898684Y-265271842D01*
X398898684Y-265271842D02*
X398970112Y-265128985D01*
X398970112Y-265128985D02*
X399041541Y-265057557D01*
X399041541Y-265057557D02*
X399184398Y-264986128D01*
X399184398Y-264986128D02*
X399470112Y-264986128D01*
X399470112Y-264986128D02*
X399612970Y-265057557D01*
X400327255Y-265843271D02*
X400398684Y-265914700D01*
X400398684Y-265914700D02*
X400327255Y-265986128D01*
X400327255Y-265986128D02*
X400255827Y-265914700D01*
X400255827Y-265914700D02*
X400327255Y-265843271D01*
X400327255Y-265843271D02*
X400327255Y-265986128D01*
X400327255Y-265057557D02*
X400398684Y-265128985D01*
X400398684Y-265128985D02*
X400327255Y-265200414D01*
X400327255Y-265200414D02*
X400255827Y-265128985D01*
X400255827Y-265128985D02*
X400327255Y-265057557D01*
X400327255Y-265057557D02*
X400327255Y-265200414D01*
X402970113Y-265986128D02*
X402112970Y-265986128D01*
X402541541Y-265986128D02*
X402541541Y-264486128D01*
X402541541Y-264486128D02*
X402398684Y-264700414D01*
X402398684Y-264700414D02*
X402255827Y-264843271D01*
X402255827Y-264843271D02*
X402112970Y-264914700D01*
X403898684Y-264486128D02*
X404041541Y-264486128D01*
X404041541Y-264486128D02*
X404184398Y-264557557D01*
X404184398Y-264557557D02*
X404255827Y-264628985D01*
X404255827Y-264628985D02*
X404327255Y-264771842D01*
X404327255Y-264771842D02*
X404398684Y-265057557D01*
X404398684Y-265057557D02*
X404398684Y-265414700D01*
X404398684Y-265414700D02*
X404327255Y-265700414D01*
X404327255Y-265700414D02*
X404255827Y-265843271D01*
X404255827Y-265843271D02*
X404184398Y-265914700D01*
X404184398Y-265914700D02*
X404041541Y-265986128D01*
X404041541Y-265986128D02*
X403898684Y-265986128D01*
X403898684Y-265986128D02*
X403755827Y-265914700D01*
X403755827Y-265914700D02*
X403684398Y-265843271D01*
X403684398Y-265843271D02*
X403612969Y-265700414D01*
X403612969Y-265700414D02*
X403541541Y-265414700D01*
X403541541Y-265414700D02*
X403541541Y-265057557D01*
X403541541Y-265057557D02*
X403612969Y-264771842D01*
X403612969Y-264771842D02*
X403684398Y-264628985D01*
X403684398Y-264628985D02*
X403755827Y-264557557D01*
X403755827Y-264557557D02*
X403898684Y-264486128D01*
X406112969Y-264414700D02*
X404827255Y-266343271D01*
X407398684Y-265986128D02*
X406541541Y-265986128D01*
X406970112Y-265986128D02*
X406970112Y-264486128D01*
X406970112Y-264486128D02*
X406827255Y-264700414D01*
X406827255Y-264700414D02*
X406684398Y-264843271D01*
X406684398Y-264843271D02*
X406541541Y-264914700D01*
X408255826Y-265128985D02*
X408112969Y-265057557D01*
X408112969Y-265057557D02*
X408041540Y-264986128D01*
X408041540Y-264986128D02*
X407970112Y-264843271D01*
X407970112Y-264843271D02*
X407970112Y-264771842D01*
X407970112Y-264771842D02*
X408041540Y-264628985D01*
X408041540Y-264628985D02*
X408112969Y-264557557D01*
X408112969Y-264557557D02*
X408255826Y-264486128D01*
X408255826Y-264486128D02*
X408541540Y-264486128D01*
X408541540Y-264486128D02*
X408684398Y-264557557D01*
X408684398Y-264557557D02*
X408755826Y-264628985D01*
X408755826Y-264628985D02*
X408827255Y-264771842D01*
X408827255Y-264771842D02*
X408827255Y-264843271D01*
X408827255Y-264843271D02*
X408755826Y-264986128D01*
X408755826Y-264986128D02*
X408684398Y-265057557D01*
X408684398Y-265057557D02*
X408541540Y-265128985D01*
X408541540Y-265128985D02*
X408255826Y-265128985D01*
X408255826Y-265128985D02*
X408112969Y-265200414D01*
X408112969Y-265200414D02*
X408041540Y-265271842D01*
X408041540Y-265271842D02*
X407970112Y-265414700D01*
X407970112Y-265414700D02*
X407970112Y-265700414D01*
X407970112Y-265700414D02*
X408041540Y-265843271D01*
X408041540Y-265843271D02*
X408112969Y-265914700D01*
X408112969Y-265914700D02*
X408255826Y-265986128D01*
X408255826Y-265986128D02*
X408541540Y-265986128D01*
X408541540Y-265986128D02*
X408684398Y-265914700D01*
X408684398Y-265914700D02*
X408755826Y-265843271D01*
X408755826Y-265843271D02*
X408827255Y-265700414D01*
X408827255Y-265700414D02*
X408827255Y-265414700D01*
X408827255Y-265414700D02*
X408755826Y-265271842D01*
X408755826Y-265271842D02*
X408684398Y-265200414D01*
X408684398Y-265200414D02*
X408541540Y-265128985D01*
D10*
D11*
X311800000Y-256900000D02*
X419800000Y-256900000D01*
D10*
D13*
X313491728Y-257604438D02*
X314634585Y-257604438D01*
X313813157Y-259604438D02*
X314063157Y-257604438D01*
X315051252Y-259604438D02*
X315217919Y-258271104D01*
X315301252Y-257604438D02*
X315194109Y-257699676D01*
X315194109Y-257699676D02*
X315277443Y-257794914D01*
X315277443Y-257794914D02*
X315384586Y-257699676D01*
X315384586Y-257699676D02*
X315301252Y-257604438D01*
X315301252Y-257604438D02*
X315277443Y-257794914D01*
X315884586Y-258271104D02*
X316646490Y-258271104D01*
X316253633Y-257604438D02*
X316039348Y-259318723D01*
X316039348Y-259318723D02*
X316110776Y-259509200D01*
X316110776Y-259509200D02*
X316289348Y-259604438D01*
X316289348Y-259604438D02*
X316479824Y-259604438D01*
X317432205Y-259604438D02*
X317253633Y-259509200D01*
X317253633Y-259509200D02*
X317182205Y-259318723D01*
X317182205Y-259318723D02*
X317396490Y-257604438D01*
X318967919Y-259509200D02*
X318765538Y-259604438D01*
X318765538Y-259604438D02*
X318384585Y-259604438D01*
X318384585Y-259604438D02*
X318206014Y-259509200D01*
X318206014Y-259509200D02*
X318134585Y-259318723D01*
X318134585Y-259318723D02*
X318229824Y-258556819D01*
X318229824Y-258556819D02*
X318348871Y-258366342D01*
X318348871Y-258366342D02*
X318551252Y-258271104D01*
X318551252Y-258271104D02*
X318932204Y-258271104D01*
X318932204Y-258271104D02*
X319110776Y-258366342D01*
X319110776Y-258366342D02*
X319182204Y-258556819D01*
X319182204Y-258556819D02*
X319158395Y-258747295D01*
X319158395Y-258747295D02*
X318182204Y-258937771D01*
X319932205Y-259413961D02*
X320015538Y-259509200D01*
X320015538Y-259509200D02*
X319908395Y-259604438D01*
X319908395Y-259604438D02*
X319825062Y-259509200D01*
X319825062Y-259509200D02*
X319932205Y-259413961D01*
X319932205Y-259413961D02*
X319908395Y-259604438D01*
X320063157Y-258366342D02*
X320146490Y-258461580D01*
X320146490Y-258461580D02*
X320039348Y-258556819D01*
X320039348Y-258556819D02*
X319956014Y-258461580D01*
X319956014Y-258461580D02*
X320063157Y-258366342D01*
X320063157Y-258366342D02*
X320039348Y-258556819D01*
D10*
D11*
X313755826Y-255000414D02*
X313255826Y-255000414D01*
X313255826Y-255786128D02*
X313255826Y-254286128D01*
X313255826Y-254286128D02*
X313970112Y-254286128D01*
X314541540Y-255786128D02*
X314541540Y-254786128D01*
X314541540Y-254286128D02*
X314470112Y-254357557D01*
X314470112Y-254357557D02*
X314541540Y-254428985D01*
X314541540Y-254428985D02*
X314612969Y-254357557D01*
X314612969Y-254357557D02*
X314541540Y-254286128D01*
X314541540Y-254286128D02*
X314541540Y-254428985D01*
X315470112Y-255786128D02*
X315327255Y-255714700D01*
X315327255Y-255714700D02*
X315255826Y-255571842D01*
X315255826Y-255571842D02*
X315255826Y-254286128D01*
X316612969Y-255714700D02*
X316470112Y-255786128D01*
X316470112Y-255786128D02*
X316184398Y-255786128D01*
X316184398Y-255786128D02*
X316041540Y-255714700D01*
X316041540Y-255714700D02*
X315970112Y-255571842D01*
X315970112Y-255571842D02*
X315970112Y-255000414D01*
X315970112Y-255000414D02*
X316041540Y-254857557D01*
X316041540Y-254857557D02*
X316184398Y-254786128D01*
X316184398Y-254786128D02*
X316470112Y-254786128D01*
X316470112Y-254786128D02*
X316612969Y-254857557D01*
X316612969Y-254857557D02*
X316684398Y-255000414D01*
X316684398Y-255000414D02*
X316684398Y-255143271D01*
X316684398Y-255143271D02*
X315970112Y-255286128D01*
X317327254Y-255643271D02*
X317398683Y-255714700D01*
X317398683Y-255714700D02*
X317327254Y-255786128D01*
X317327254Y-255786128D02*
X317255826Y-255714700D01*
X317255826Y-255714700D02*
X317327254Y-255643271D01*
X317327254Y-255643271D02*
X317327254Y-255786128D01*
X317327254Y-254857557D02*
X317398683Y-254928985D01*
X317398683Y-254928985D02*
X317327254Y-255000414D01*
X317327254Y-255000414D02*
X317255826Y-254928985D01*
X317255826Y-254928985D02*
X317327254Y-254857557D01*
X317327254Y-254857557D02*
X317327254Y-255000414D01*
X319184397Y-254786128D02*
X319184397Y-256286128D01*
X319184397Y-254857557D02*
X319327255Y-254786128D01*
X319327255Y-254786128D02*
X319612969Y-254786128D01*
X319612969Y-254786128D02*
X319755826Y-254857557D01*
X319755826Y-254857557D02*
X319827255Y-254928985D01*
X319827255Y-254928985D02*
X319898683Y-255071842D01*
X319898683Y-255071842D02*
X319898683Y-255500414D01*
X319898683Y-255500414D02*
X319827255Y-255643271D01*
X319827255Y-255643271D02*
X319755826Y-255714700D01*
X319755826Y-255714700D02*
X319612969Y-255786128D01*
X319612969Y-255786128D02*
X319327255Y-255786128D01*
X319327255Y-255786128D02*
X319184397Y-255714700D01*
X320470112Y-255714700D02*
X320612969Y-255786128D01*
X320612969Y-255786128D02*
X320898683Y-255786128D01*
X320898683Y-255786128D02*
X321041540Y-255714700D01*
X321041540Y-255714700D02*
X321112969Y-255571842D01*
X321112969Y-255571842D02*
X321112969Y-255500414D01*
X321112969Y-255500414D02*
X321041540Y-255357557D01*
X321041540Y-255357557D02*
X320898683Y-255286128D01*
X320898683Y-255286128D02*
X320684398Y-255286128D01*
X320684398Y-255286128D02*
X320541540Y-255214700D01*
X320541540Y-255214700D02*
X320470112Y-255071842D01*
X320470112Y-255071842D02*
X320470112Y-255000414D01*
X320470112Y-255000414D02*
X320541540Y-254857557D01*
X320541540Y-254857557D02*
X320684398Y-254786128D01*
X320684398Y-254786128D02*
X320898683Y-254786128D01*
X320898683Y-254786128D02*
X321041540Y-254857557D01*
X322398684Y-255714700D02*
X322255826Y-255786128D01*
X322255826Y-255786128D02*
X321970112Y-255786128D01*
X321970112Y-255786128D02*
X321827255Y-255714700D01*
X321827255Y-255714700D02*
X321755826Y-255643271D01*
X321755826Y-255643271D02*
X321684398Y-255500414D01*
X321684398Y-255500414D02*
X321684398Y-255071842D01*
X321684398Y-255071842D02*
X321755826Y-254928985D01*
X321755826Y-254928985D02*
X321827255Y-254857557D01*
X321827255Y-254857557D02*
X321970112Y-254786128D01*
X321970112Y-254786128D02*
X322255826Y-254786128D01*
X322255826Y-254786128D02*
X322398684Y-254857557D01*
X322684398Y-255928985D02*
X323827255Y-255928985D01*
X324827255Y-255786128D02*
X324827255Y-254286128D01*
X324827255Y-255714700D02*
X324684397Y-255786128D01*
X324684397Y-255786128D02*
X324398683Y-255786128D01*
X324398683Y-255786128D02*
X324255826Y-255714700D01*
X324255826Y-255714700D02*
X324184397Y-255643271D01*
X324184397Y-255643271D02*
X324112969Y-255500414D01*
X324112969Y-255500414D02*
X324112969Y-255071842D01*
X324112969Y-255071842D02*
X324184397Y-254928985D01*
X324184397Y-254928985D02*
X324255826Y-254857557D01*
X324255826Y-254857557D02*
X324398683Y-254786128D01*
X324398683Y-254786128D02*
X324684397Y-254786128D01*
X324684397Y-254786128D02*
X324827255Y-254857557D01*
X326184398Y-255786128D02*
X326184398Y-255000414D01*
X326184398Y-255000414D02*
X326112969Y-254857557D01*
X326112969Y-254857557D02*
X325970112Y-254786128D01*
X325970112Y-254786128D02*
X325684398Y-254786128D01*
X325684398Y-254786128D02*
X325541540Y-254857557D01*
X326184398Y-255714700D02*
X326041540Y-255786128D01*
X326041540Y-255786128D02*
X325684398Y-255786128D01*
X325684398Y-255786128D02*
X325541540Y-255714700D01*
X325541540Y-255714700D02*
X325470112Y-255571842D01*
X325470112Y-255571842D02*
X325470112Y-255428985D01*
X325470112Y-255428985D02*
X325541540Y-255286128D01*
X325541540Y-255286128D02*
X325684398Y-255214700D01*
X325684398Y-255214700D02*
X326041540Y-255214700D01*
X326041540Y-255214700D02*
X326184398Y-255143271D01*
X327541541Y-254786128D02*
X327541541Y-255786128D01*
X326898683Y-254786128D02*
X326898683Y-255571842D01*
X326898683Y-255571842D02*
X326970112Y-255714700D01*
X326970112Y-255714700D02*
X327112969Y-255786128D01*
X327112969Y-255786128D02*
X327327255Y-255786128D01*
X327327255Y-255786128D02*
X327470112Y-255714700D01*
X327470112Y-255714700D02*
X327541541Y-255643271D01*
X328898684Y-254786128D02*
X328898684Y-256000414D01*
X328898684Y-256000414D02*
X328827255Y-256143271D01*
X328827255Y-256143271D02*
X328755826Y-256214700D01*
X328755826Y-256214700D02*
X328612969Y-256286128D01*
X328612969Y-256286128D02*
X328398684Y-256286128D01*
X328398684Y-256286128D02*
X328255826Y-256214700D01*
X328898684Y-255714700D02*
X328755826Y-255786128D01*
X328755826Y-255786128D02*
X328470112Y-255786128D01*
X328470112Y-255786128D02*
X328327255Y-255714700D01*
X328327255Y-255714700D02*
X328255826Y-255643271D01*
X328255826Y-255643271D02*
X328184398Y-255500414D01*
X328184398Y-255500414D02*
X328184398Y-255071842D01*
X328184398Y-255071842D02*
X328255826Y-254928985D01*
X328255826Y-254928985D02*
X328327255Y-254857557D01*
X328327255Y-254857557D02*
X328470112Y-254786128D01*
X328470112Y-254786128D02*
X328755826Y-254786128D01*
X328755826Y-254786128D02*
X328898684Y-254857557D01*
X329612969Y-255786128D02*
X329612969Y-254286128D01*
X330255827Y-255786128D02*
X330255827Y-255000414D01*
X330255827Y-255000414D02*
X330184398Y-254857557D01*
X330184398Y-254857557D02*
X330041541Y-254786128D01*
X330041541Y-254786128D02*
X329827255Y-254786128D01*
X329827255Y-254786128D02*
X329684398Y-254857557D01*
X329684398Y-254857557D02*
X329612969Y-254928985D01*
X330755827Y-254786128D02*
X331327255Y-254786128D01*
X330970112Y-254286128D02*
X330970112Y-255571842D01*
X330970112Y-255571842D02*
X331041541Y-255714700D01*
X331041541Y-255714700D02*
X331184398Y-255786128D01*
X331184398Y-255786128D02*
X331327255Y-255786128D01*
X332398684Y-255714700D02*
X332255827Y-255786128D01*
X332255827Y-255786128D02*
X331970113Y-255786128D01*
X331970113Y-255786128D02*
X331827255Y-255714700D01*
X331827255Y-255714700D02*
X331755827Y-255571842D01*
X331755827Y-255571842D02*
X331755827Y-255000414D01*
X331755827Y-255000414D02*
X331827255Y-254857557D01*
X331827255Y-254857557D02*
X331970113Y-254786128D01*
X331970113Y-254786128D02*
X332255827Y-254786128D01*
X332255827Y-254786128D02*
X332398684Y-254857557D01*
X332398684Y-254857557D02*
X332470113Y-255000414D01*
X332470113Y-255000414D02*
X332470113Y-255143271D01*
X332470113Y-255143271D02*
X331755827Y-255286128D01*
X333112969Y-255786128D02*
X333112969Y-254786128D01*
X333112969Y-255071842D02*
X333184398Y-254928985D01*
X333184398Y-254928985D02*
X333255827Y-254857557D01*
X333255827Y-254857557D02*
X333398684Y-254786128D01*
X333398684Y-254786128D02*
X333541541Y-254786128D01*
X333684398Y-255928985D02*
X334827255Y-255928985D01*
X335184397Y-255786128D02*
X335184397Y-254286128D01*
X335184397Y-254857557D02*
X335327255Y-254786128D01*
X335327255Y-254786128D02*
X335612969Y-254786128D01*
X335612969Y-254786128D02*
X335755826Y-254857557D01*
X335755826Y-254857557D02*
X335827255Y-254928985D01*
X335827255Y-254928985D02*
X335898683Y-255071842D01*
X335898683Y-255071842D02*
X335898683Y-255500414D01*
X335898683Y-255500414D02*
X335827255Y-255643271D01*
X335827255Y-255643271D02*
X335755826Y-255714700D01*
X335755826Y-255714700D02*
X335612969Y-255786128D01*
X335612969Y-255786128D02*
X335327255Y-255786128D01*
X335327255Y-255786128D02*
X335184397Y-255714700D01*
X336541540Y-255786128D02*
X336541540Y-254786128D01*
X336541540Y-255071842D02*
X336612969Y-254928985D01*
X336612969Y-254928985D02*
X336684398Y-254857557D01*
X336684398Y-254857557D02*
X336827255Y-254786128D01*
X336827255Y-254786128D02*
X336970112Y-254786128D01*
X338112969Y-255786128D02*
X338112969Y-254286128D01*
X338112969Y-255714700D02*
X337970111Y-255786128D01*
X337970111Y-255786128D02*
X337684397Y-255786128D01*
X337684397Y-255786128D02*
X337541540Y-255714700D01*
X337541540Y-255714700D02*
X337470111Y-255643271D01*
X337470111Y-255643271D02*
X337398683Y-255500414D01*
X337398683Y-255500414D02*
X337398683Y-255071842D01*
X337398683Y-255071842D02*
X337470111Y-254928985D01*
X337470111Y-254928985D02*
X337541540Y-254857557D01*
X337541540Y-254857557D02*
X337684397Y-254786128D01*
X337684397Y-254786128D02*
X337970111Y-254786128D01*
X337970111Y-254786128D02*
X338112969Y-254857557D01*
X338827254Y-255643271D02*
X338898683Y-255714700D01*
X338898683Y-255714700D02*
X338827254Y-255786128D01*
X338827254Y-255786128D02*
X338755826Y-255714700D01*
X338755826Y-255714700D02*
X338827254Y-255643271D01*
X338827254Y-255643271D02*
X338827254Y-255786128D01*
X339541540Y-255786128D02*
X339541540Y-254286128D01*
X339684398Y-255214700D02*
X340112969Y-255786128D01*
X340112969Y-254786128D02*
X339541540Y-255357557D01*
X340755826Y-255786128D02*
X340755826Y-254786128D01*
X340755826Y-254286128D02*
X340684398Y-254357557D01*
X340684398Y-254357557D02*
X340755826Y-254428985D01*
X340755826Y-254428985D02*
X340827255Y-254357557D01*
X340827255Y-254357557D02*
X340755826Y-254286128D01*
X340755826Y-254286128D02*
X340755826Y-254428985D01*
X342112970Y-255714700D02*
X341970112Y-255786128D01*
X341970112Y-255786128D02*
X341684398Y-255786128D01*
X341684398Y-255786128D02*
X341541541Y-255714700D01*
X341541541Y-255714700D02*
X341470112Y-255643271D01*
X341470112Y-255643271D02*
X341398684Y-255500414D01*
X341398684Y-255500414D02*
X341398684Y-255071842D01*
X341398684Y-255071842D02*
X341470112Y-254928985D01*
X341470112Y-254928985D02*
X341541541Y-254857557D01*
X341541541Y-254857557D02*
X341684398Y-254786128D01*
X341684398Y-254786128D02*
X341970112Y-254786128D01*
X341970112Y-254786128D02*
X342112970Y-254857557D01*
X343398684Y-255786128D02*
X343398684Y-255000414D01*
X343398684Y-255000414D02*
X343327255Y-254857557D01*
X343327255Y-254857557D02*
X343184398Y-254786128D01*
X343184398Y-254786128D02*
X342898684Y-254786128D01*
X342898684Y-254786128D02*
X342755826Y-254857557D01*
X343398684Y-255714700D02*
X343255826Y-255786128D01*
X343255826Y-255786128D02*
X342898684Y-255786128D01*
X342898684Y-255786128D02*
X342755826Y-255714700D01*
X342755826Y-255714700D02*
X342684398Y-255571842D01*
X342684398Y-255571842D02*
X342684398Y-255428985D01*
X342684398Y-255428985D02*
X342755826Y-255286128D01*
X342755826Y-255286128D02*
X342898684Y-255214700D01*
X342898684Y-255214700D02*
X343255826Y-255214700D01*
X343255826Y-255214700D02*
X343398684Y-255143271D01*
X344755827Y-255786128D02*
X344755827Y-254286128D01*
X344755827Y-255714700D02*
X344612969Y-255786128D01*
X344612969Y-255786128D02*
X344327255Y-255786128D01*
X344327255Y-255786128D02*
X344184398Y-255714700D01*
X344184398Y-255714700D02*
X344112969Y-255643271D01*
X344112969Y-255643271D02*
X344041541Y-255500414D01*
X344041541Y-255500414D02*
X344041541Y-255071842D01*
X344041541Y-255071842D02*
X344112969Y-254928985D01*
X344112969Y-254928985D02*
X344184398Y-254857557D01*
X344184398Y-254857557D02*
X344327255Y-254786128D01*
X344327255Y-254786128D02*
X344612969Y-254786128D01*
X344612969Y-254786128D02*
X344755827Y-254857557D01*
X345112970Y-255928985D02*
X346255827Y-255928985D01*
X346612969Y-254786128D02*
X346612969Y-256286128D01*
X346612969Y-254857557D02*
X346755827Y-254786128D01*
X346755827Y-254786128D02*
X347041541Y-254786128D01*
X347041541Y-254786128D02*
X347184398Y-254857557D01*
X347184398Y-254857557D02*
X347255827Y-254928985D01*
X347255827Y-254928985D02*
X347327255Y-255071842D01*
X347327255Y-255071842D02*
X347327255Y-255500414D01*
X347327255Y-255500414D02*
X347255827Y-255643271D01*
X347255827Y-255643271D02*
X347184398Y-255714700D01*
X347184398Y-255714700D02*
X347041541Y-255786128D01*
X347041541Y-255786128D02*
X346755827Y-255786128D01*
X346755827Y-255786128D02*
X346612969Y-255714700D01*
X348612970Y-255714700D02*
X348470112Y-255786128D01*
X348470112Y-255786128D02*
X348184398Y-255786128D01*
X348184398Y-255786128D02*
X348041541Y-255714700D01*
X348041541Y-255714700D02*
X347970112Y-255643271D01*
X347970112Y-255643271D02*
X347898684Y-255500414D01*
X347898684Y-255500414D02*
X347898684Y-255071842D01*
X347898684Y-255071842D02*
X347970112Y-254928985D01*
X347970112Y-254928985D02*
X348041541Y-254857557D01*
X348041541Y-254857557D02*
X348184398Y-254786128D01*
X348184398Y-254786128D02*
X348470112Y-254786128D01*
X348470112Y-254786128D02*
X348612970Y-254857557D01*
X349255826Y-255786128D02*
X349255826Y-254286128D01*
X349255826Y-254857557D02*
X349398684Y-254786128D01*
X349398684Y-254786128D02*
X349684398Y-254786128D01*
X349684398Y-254786128D02*
X349827255Y-254857557D01*
X349827255Y-254857557D02*
X349898684Y-254928985D01*
X349898684Y-254928985D02*
X349970112Y-255071842D01*
X349970112Y-255071842D02*
X349970112Y-255500414D01*
X349970112Y-255500414D02*
X349898684Y-255643271D01*
X349898684Y-255643271D02*
X349827255Y-255714700D01*
X349827255Y-255714700D02*
X349684398Y-255786128D01*
X349684398Y-255786128D02*
X349398684Y-255786128D01*
X349398684Y-255786128D02*
X349255826Y-255714700D01*
D10*
D11*
X311800000Y-250900000D02*
X419800000Y-250900000D01*
D10*
D11*
X313184398Y-253014700D02*
X313398684Y-253086128D01*
X313398684Y-253086128D02*
X313755826Y-253086128D01*
X313755826Y-253086128D02*
X313898684Y-253014700D01*
X313898684Y-253014700D02*
X313970112Y-252943271D01*
X313970112Y-252943271D02*
X314041541Y-252800414D01*
X314041541Y-252800414D02*
X314041541Y-252657557D01*
X314041541Y-252657557D02*
X313970112Y-252514700D01*
X313970112Y-252514700D02*
X313898684Y-252443271D01*
X313898684Y-252443271D02*
X313755826Y-252371842D01*
X313755826Y-252371842D02*
X313470112Y-252300414D01*
X313470112Y-252300414D02*
X313327255Y-252228985D01*
X313327255Y-252228985D02*
X313255826Y-252157557D01*
X313255826Y-252157557D02*
X313184398Y-252014700D01*
X313184398Y-252014700D02*
X313184398Y-251871842D01*
X313184398Y-251871842D02*
X313255826Y-251728985D01*
X313255826Y-251728985D02*
X313327255Y-251657557D01*
X313327255Y-251657557D02*
X313470112Y-251586128D01*
X313470112Y-251586128D02*
X313827255Y-251586128D01*
X313827255Y-251586128D02*
X314041541Y-251657557D01*
X314684397Y-253086128D02*
X314684397Y-251586128D01*
X315327255Y-253086128D02*
X315327255Y-252300414D01*
X315327255Y-252300414D02*
X315255826Y-252157557D01*
X315255826Y-252157557D02*
X315112969Y-252086128D01*
X315112969Y-252086128D02*
X314898683Y-252086128D01*
X314898683Y-252086128D02*
X314755826Y-252157557D01*
X314755826Y-252157557D02*
X314684397Y-252228985D01*
X316612969Y-253014700D02*
X316470112Y-253086128D01*
X316470112Y-253086128D02*
X316184398Y-253086128D01*
X316184398Y-253086128D02*
X316041540Y-253014700D01*
X316041540Y-253014700D02*
X315970112Y-252871842D01*
X315970112Y-252871842D02*
X315970112Y-252300414D01*
X315970112Y-252300414D02*
X316041540Y-252157557D01*
X316041540Y-252157557D02*
X316184398Y-252086128D01*
X316184398Y-252086128D02*
X316470112Y-252086128D01*
X316470112Y-252086128D02*
X316612969Y-252157557D01*
X316612969Y-252157557D02*
X316684398Y-252300414D01*
X316684398Y-252300414D02*
X316684398Y-252443271D01*
X316684398Y-252443271D02*
X315970112Y-252586128D01*
X317898683Y-253014700D02*
X317755826Y-253086128D01*
X317755826Y-253086128D02*
X317470112Y-253086128D01*
X317470112Y-253086128D02*
X317327254Y-253014700D01*
X317327254Y-253014700D02*
X317255826Y-252871842D01*
X317255826Y-252871842D02*
X317255826Y-252300414D01*
X317255826Y-252300414D02*
X317327254Y-252157557D01*
X317327254Y-252157557D02*
X317470112Y-252086128D01*
X317470112Y-252086128D02*
X317755826Y-252086128D01*
X317755826Y-252086128D02*
X317898683Y-252157557D01*
X317898683Y-252157557D02*
X317970112Y-252300414D01*
X317970112Y-252300414D02*
X317970112Y-252443271D01*
X317970112Y-252443271D02*
X317255826Y-252586128D01*
X318398683Y-252086128D02*
X318970111Y-252086128D01*
X318612968Y-251586128D02*
X318612968Y-252871842D01*
X318612968Y-252871842D02*
X318684397Y-253014700D01*
X318684397Y-253014700D02*
X318827254Y-253086128D01*
X318827254Y-253086128D02*
X318970111Y-253086128D01*
X319470111Y-252943271D02*
X319541540Y-253014700D01*
X319541540Y-253014700D02*
X319470111Y-253086128D01*
X319470111Y-253086128D02*
X319398683Y-253014700D01*
X319398683Y-253014700D02*
X319470111Y-252943271D01*
X319470111Y-252943271D02*
X319470111Y-253086128D01*
X319470111Y-252157557D02*
X319541540Y-252228985D01*
X319541540Y-252228985D02*
X319470111Y-252300414D01*
X319470111Y-252300414D02*
X319398683Y-252228985D01*
X319398683Y-252228985D02*
X319470111Y-252157557D01*
X319470111Y-252157557D02*
X319470111Y-252300414D01*
D10*
D11*
X331800000Y-260900000D02*
X331800000Y-263900000D01*
D10*
D11*
X395800000Y-260900000D02*
X395800000Y-267400000D01*
D14*
%TO.P,MT2,1,1*%
%TO.N,GND*%
X145000000Y-187000000D03*
D15*
X145000000Y-187000000D03*
%TD*%
D14*
%TO.P,MT4,1,1*%
%TO.N,GND*%
X175000000Y-37000000D03*
D15*
X175000000Y-37000000D03*
%TD*%
D16*
%TO.P,U37,17,GND*%
%TO.N,GND*%
X147823550Y-94963501D03*
X145823550Y-94963501D03*
X146823550Y-95363501D03*
X147823550Y-95763501D03*
X145823550Y-95763501D03*
%TD*%
%TO.P,U31,17,GND*%
%TO.N,GND*%
X158069001Y-94945000D03*
X156069001Y-94945000D03*
X157069001Y-95345000D03*
X158069001Y-95745000D03*
X156069001Y-95745000D03*
%TD*%
D14*
%TO.P,MT3,1,1*%
%TO.N,GND*%
X175000000Y-187000000D03*
D15*
X175000000Y-187000000D03*
%TD*%
D14*
%TO.P,MT1,1,1*%
%TO.N,GND*%
X145000000Y-37000000D03*
D15*
X145000000Y-37000000D03*
%TD*%
D17*
%TO.P,C169,1*%
%TO.N,/DCCT ADCs/adc_vref*%
X142921000Y-93435000D03*
%TO.P,C169,2*%
%TO.N,GND*%
X142921000Y-94985000D03*
%TD*%
D18*
%TO.P,C196,1*%
%TO.N,/DCCT ADCs/adc_vref*%
X144191000Y-93250000D03*
%TO.P,C196,2*%
%TO.N,GND*%
X144191000Y-94210000D03*
%TD*%
D19*
%TO.P,C87,1*%
%TO.N,+15V*%
X163765000Y-131608150D03*
%TO.P,C87,2*%
%TO.N,GND*%
X164725000Y-131608150D03*
%TD*%
%TO.P,C58,1*%
%TO.N,+5.0V*%
X175375000Y-156900000D03*
%TO.P,C58,2*%
%TO.N,GND*%
X176335000Y-156900000D03*
%TD*%
%TO.P,C146,1*%
%TO.N,+1.8V*%
X158824000Y-97021999D03*
%TO.P,C146,2*%
%TO.N,GND*%
X159784000Y-97021999D03*
%TD*%
D20*
%TO.P,C47,1*%
%TO.N,+15V*%
X168061500Y-56925000D03*
%TO.P,C47,2*%
%TO.N,GND*%
X167101500Y-56925000D03*
%TD*%
D19*
%TO.P,C76,1*%
%TO.N,-15V*%
X174105000Y-136415000D03*
%TO.P,C76,2*%
%TO.N,GND*%
X175065000Y-136415000D03*
%TD*%
D21*
%TO.P,C40,1*%
%TO.N,-15V*%
X177056500Y-61725000D03*
%TO.P,C40,2*%
%TO.N,GND*%
X175506500Y-61725000D03*
%TD*%
D18*
%TO.P,C163,1*%
%TO.N,+15V*%
X161209000Y-105160000D03*
%TO.P,C163,2*%
%TO.N,GND*%
X161209000Y-106120000D03*
%TD*%
D19*
%TO.P,C115,1*%
%TO.N,-5.3VA*%
X153617000Y-77692000D03*
%TO.P,C115,2*%
%TO.N,GND*%
X154577000Y-77692000D03*
%TD*%
D21*
%TO.P,C23,1*%
%TO.N,+15V*%
X170356500Y-78025000D03*
%TO.P,C23,2*%
%TO.N,GND*%
X168806500Y-78025000D03*
%TD*%
D20*
%TO.P,C99,1*%
%TO.N,-15V*%
X161680000Y-153880000D03*
%TO.P,C99,2*%
%TO.N,GND*%
X160720000Y-153880000D03*
%TD*%
%TO.P,C37,1*%
%TO.N,+15V*%
X174241500Y-65425000D03*
%TO.P,C37,2*%
%TO.N,GND*%
X173281500Y-65425000D03*
%TD*%
D22*
%TO.P,C149,1*%
%TO.N,-5.3VA*%
X146772549Y-86600501D03*
%TO.P,C149,2*%
%TO.N,GND*%
X146772549Y-85640501D03*
%TD*%
D23*
%TO.P,C32,1*%
%TO.N,+15V*%
X169464000Y-114543000D03*
%TO.P,C32,2*%
%TO.N,GND*%
X169464000Y-112993000D03*
%TD*%
D19*
%TO.P,C20,1*%
%TO.N,+15V*%
X169915000Y-88775000D03*
%TO.P,C20,2*%
%TO.N,GND*%
X170875000Y-88775000D03*
%TD*%
%TO.P,C67,1*%
%TO.N,+3.3V*%
X167690000Y-165150000D03*
%TO.P,C67,2*%
%TO.N,GND*%
X168650000Y-165150000D03*
%TD*%
D17*
%TO.P,C162,1*%
%TO.N,+5.3VA*%
X146518549Y-74255501D03*
%TO.P,C162,2*%
%TO.N,GND*%
X146518549Y-75805501D03*
%TD*%
D23*
%TO.P,C7,1*%
%TO.N,+15V*%
X170680000Y-130300000D03*
%TO.P,C7,2*%
%TO.N,GND*%
X170680000Y-128750000D03*
%TD*%
D19*
%TO.P,C191,1*%
%TO.N,+5.0V*%
X154490000Y-169750000D03*
%TO.P,C191,2*%
%TO.N,GND*%
X155450000Y-169750000D03*
%TD*%
D18*
%TO.P,C97,1*%
%TO.N,+15V*%
X157125000Y-133315000D03*
%TO.P,C97,2*%
%TO.N,GND*%
X157125000Y-134275000D03*
%TD*%
D22*
%TO.P,C134,1*%
%TO.N,+15V*%
X154224000Y-108688000D03*
%TO.P,C134,2*%
%TO.N,GND*%
X154224000Y-107728000D03*
%TD*%
D19*
%TO.P,C173,1*%
%TO.N,+5.3VA*%
X157935000Y-73501000D03*
%TO.P,C173,2*%
%TO.N,GND*%
X158895000Y-73501000D03*
%TD*%
D18*
%TO.P,C13,1*%
%TO.N,-15V*%
X167925000Y-98690000D03*
%TO.P,C13,2*%
%TO.N,GND*%
X167925000Y-99650000D03*
%TD*%
D24*
%TO.P,D8,1,A*%
%TO.N,-5.3VA*%
X145695549Y-62460000D03*
%TO.P,D8,2,K*%
%TO.N,+5.3VA*%
X147595549Y-62460000D03*
%TO.P,D8,3,COM*%
%TO.N,Net-(D8-COM)*%
X146645549Y-64335000D03*
%TD*%
D17*
%TO.P,C15,1*%
%TO.N,+3.3V*%
X169775000Y-91500000D03*
%TO.P,C15,2*%
%TO.N,GND*%
X169775000Y-93050000D03*
%TD*%
D19*
%TO.P,C86,1*%
%TO.N,-15V*%
X159915000Y-131558150D03*
%TO.P,C86,2*%
%TO.N,GND*%
X160875000Y-131558150D03*
%TD*%
%TO.P,C179,1*%
%TO.N,+2.5V*%
X148070549Y-93575000D03*
%TO.P,C179,2*%
%TO.N,GND*%
X149030549Y-93575000D03*
%TD*%
D22*
%TO.P,C150,1*%
%TO.N,/DCCT ADCs/DCCT Channel 1/drv_vref*%
X156129000Y-84022000D03*
%TO.P,C150,2*%
%TO.N,GND*%
X156129000Y-83062000D03*
%TD*%
D23*
%TO.P,C89,1*%
%TO.N,-15V*%
X152980000Y-130133150D03*
%TO.P,C89,2*%
%TO.N,GND*%
X152980000Y-128583150D03*
%TD*%
D22*
%TO.P,C65,1*%
%TO.N,+5.0V*%
X159340000Y-156900000D03*
%TO.P,C65,2*%
%TO.N,GND*%
X159340000Y-155940000D03*
%TD*%
D23*
%TO.P,C3,1*%
%TO.N,+15V*%
X169415000Y-141065000D03*
%TO.P,C3,2*%
%TO.N,GND*%
X169415000Y-139515000D03*
%TD*%
D25*
%TO.P,C17,1*%
%TO.N,-15V*%
X176375000Y-86275000D03*
%TO.P,C17,2*%
%TO.N,GND*%
X177925000Y-86275000D03*
%TD*%
D18*
%TO.P,C126,1*%
%TO.N,+15V*%
X153970000Y-115269200D03*
%TO.P,C126,2*%
%TO.N,GND*%
X153970000Y-116229200D03*
%TD*%
D23*
%TO.P,C84,1*%
%TO.N,+15V*%
X163745000Y-130258150D03*
%TO.P,C84,2*%
%TO.N,GND*%
X163745000Y-128708150D03*
%TD*%
D21*
%TO.P,C43,1*%
%TO.N,+15V*%
X168056500Y-58225000D03*
%TO.P,C43,2*%
%TO.N,GND*%
X166506500Y-58225000D03*
%TD*%
D17*
%TO.P,C49,1*%
%TO.N,Net-(U12-BUF_INP)*%
X170781000Y-107151000D03*
%TO.P,C49,2*%
%TO.N,GND*%
X170781000Y-108701000D03*
%TD*%
D22*
%TO.P,C55,1*%
%TO.N,+5.0V*%
X166320000Y-151230000D03*
%TO.P,C55,2*%
%TO.N,GND*%
X166320000Y-150270000D03*
%TD*%
D20*
%TO.P,C117,1*%
%TO.N,-15V*%
X154902000Y-67078000D03*
%TO.P,C117,2*%
%TO.N,GND*%
X153942000Y-67078000D03*
%TD*%
D19*
%TO.P,C102,1*%
%TO.N,+5.0V*%
X144990000Y-156370000D03*
%TO.P,C102,2*%
%TO.N,GND*%
X145950000Y-156370000D03*
%TD*%
D25*
%TO.P,C22,1*%
%TO.N,-15V*%
X174806500Y-80825000D03*
%TO.P,C22,2*%
%TO.N,GND*%
X176356500Y-80825000D03*
%TD*%
D19*
%TO.P,C91,1*%
%TO.N,-15V*%
X152950000Y-131483150D03*
%TO.P,C91,2*%
%TO.N,GND*%
X153910000Y-131483150D03*
%TD*%
D17*
%TO.P,C187,1*%
%TO.N,Net-(U39-VISO)*%
X143250000Y-162150000D03*
%TO.P,C187,2*%
%TO.N,GND*%
X143250000Y-163700000D03*
%TD*%
D22*
%TO.P,C184,1*%
%TO.N,+5.0V*%
X148600000Y-154160000D03*
%TO.P,C184,2*%
%TO.N,GND*%
X148600000Y-153200000D03*
%TD*%
D19*
%TO.P,C71,1*%
%TO.N,-15V*%
X173905000Y-131515000D03*
%TO.P,C71,2*%
%TO.N,GND*%
X174865000Y-131515000D03*
%TD*%
D20*
%TO.P,C190,1*%
%TO.N,+5.0V*%
X150160000Y-166578150D03*
%TO.P,C190,2*%
%TO.N,GND*%
X149200000Y-166578150D03*
%TD*%
D25*
%TO.P,C180,1*%
%TO.N,+1.8V*%
X149004000Y-95734000D03*
%TO.P,C180,2*%
%TO.N,GND*%
X150554000Y-95734000D03*
%TD*%
D21*
%TO.P,C30,1*%
%TO.N,-15V*%
X170556500Y-70425000D03*
%TO.P,C30,2*%
%TO.N,GND*%
X169006500Y-70425000D03*
%TD*%
D23*
%TO.P,C2,1*%
%TO.N,-15V*%
X166880000Y-130250000D03*
%TO.P,C2,2*%
%TO.N,GND*%
X166880000Y-128700000D03*
%TD*%
D18*
%TO.P,C72,1*%
%TO.N,+15V*%
X177800000Y-133375000D03*
%TO.P,C72,2*%
%TO.N,GND*%
X177800000Y-134335000D03*
%TD*%
D23*
%TO.P,C80,1*%
%TO.N,+15V*%
X162480000Y-141023150D03*
%TO.P,C80,2*%
%TO.N,GND*%
X162480000Y-139473150D03*
%TD*%
D19*
%TO.P,C4,1*%
%TO.N,-15V*%
X166885000Y-136415000D03*
%TO.P,C4,2*%
%TO.N,GND*%
X167845000Y-136415000D03*
%TD*%
D20*
%TO.P,C34,1*%
%TO.N,-15V*%
X176761500Y-71525000D03*
%TO.P,C34,2*%
%TO.N,GND*%
X175801500Y-71525000D03*
%TD*%
D19*
%TO.P,C164,1*%
%TO.N,+5.3VA*%
X148520000Y-103900000D03*
%TO.P,C164,2*%
%TO.N,GND*%
X149480000Y-103900000D03*
%TD*%
%TO.P,C16,1*%
%TO.N,+3.3V*%
X169925000Y-89975000D03*
%TO.P,C16,2*%
%TO.N,GND*%
X170885000Y-89975000D03*
%TD*%
D26*
%TO.P,J1,1,1*%
%TO.N,/Isolated Digital IO/din_iso_gnd*%
X148400000Y-44800000D03*
%TO.P,J1,2,2*%
%TO.N,/Isolated Digital IO/dout3_iso*%
X148400000Y-49200000D03*
%TO.P,J1,3,3*%
%TO.N,/Isolated Digital IO/din_iso_gnd*%
X149200000Y-44800000D03*
%TO.P,J1,4,4*%
%TO.N,/Isolated Digital IO/dout2_iso*%
X149200000Y-49200000D03*
%TO.P,J1,5,5*%
%TO.N,/Isolated Digital IO/din_iso_gnd*%
X150000000Y-44800000D03*
%TO.P,J1,6,6*%
%TO.N,/Isolated Digital IO/dout1_iso*%
X150000000Y-49200000D03*
%TO.P,J1,7,7*%
%TO.N,/Isolated Digital IO/din_iso_gnd*%
X150800000Y-44800000D03*
%TO.P,J1,8,8*%
%TO.N,/Isolated Digital IO/dout0_iso*%
X150800000Y-49200000D03*
%TO.P,J1,9,9*%
%TO.N,/Isolated Digital IO/dout_iso_gnd*%
X151600000Y-44800000D03*
%TO.P,J1,10,10*%
%TO.N,/Isolated Digital IO/din3_iso*%
X151600000Y-49200000D03*
%TO.P,J1,11,11*%
%TO.N,/Isolated Digital IO/dout_iso_gnd*%
X152400000Y-44800000D03*
%TO.P,J1,12,12*%
%TO.N,/Isolated Digital IO/din2_iso*%
X152400000Y-49200000D03*
%TO.P,J1,13,13*%
%TO.N,/Isolated Digital IO/dout_iso_gnd*%
X153200000Y-44800000D03*
%TO.P,J1,14,14*%
%TO.N,/Isolated Digital IO/din1_iso*%
X153200000Y-49200000D03*
%TO.P,J1,15,15*%
%TO.N,/Isolated Digital IO/dout_iso_gnd*%
X154000000Y-44800000D03*
%TO.P,J1,16,16*%
%TO.N,/Isolated Digital IO/din0_iso*%
X154000000Y-49200000D03*
%TO.P,J1,17,17*%
%TO.N,GND*%
X154800000Y-44800000D03*
%TO.P,J1,18,18*%
X154800000Y-49200000D03*
%TO.P,J1,19,19*%
X155600000Y-44800000D03*
%TO.P,J1,20,20*%
%TO.N,/Monitor ADCs/monitor_spare+*%
X155600000Y-49200000D03*
%TO.P,J1,21,21*%
%TO.N,GND*%
X156400000Y-44800000D03*
%TO.P,J1,22,22*%
%TO.N,/Monitor ADCs/monitor_spare-*%
X156400000Y-49200000D03*
%TO.P,J1,23,23*%
%TO.N,GND*%
X157200000Y-44800000D03*
%TO.P,J1,24,24*%
X157200000Y-49200000D03*
%TO.P,J1,25,25*%
X158000000Y-44800000D03*
%TO.P,J1,26,26*%
%TO.N,/Monitor ADCs/monitor_ignd+*%
X158000000Y-49200000D03*
%TO.P,J1,27,27*%
%TO.N,+15V*%
X158800000Y-44800000D03*
%TO.P,J1,28,28*%
%TO.N,/Monitor ADCs/monitor_ignd-*%
X158800000Y-49200000D03*
%TO.P,J1,29,29*%
%TO.N,+15V*%
X159600000Y-44800000D03*
%TO.P,J1,30,30*%
%TO.N,GND*%
X159600000Y-49200000D03*
%TO.P,J1,31,31*%
X160400000Y-44800000D03*
%TO.P,J1,32,32*%
%TO.N,/Monitor ADCs/monitor_vout+*%
X160400000Y-49200000D03*
%TO.P,J1,33,33*%
%TO.N,GND*%
X161200000Y-44800000D03*
%TO.P,J1,34,34*%
%TO.N,/Monitor ADCs/monitor_vout-*%
X161200000Y-49200000D03*
%TO.P,J1,35,35*%
%TO.N,-15V*%
X162000000Y-44800000D03*
%TO.P,J1,36,36*%
%TO.N,GND*%
X162000000Y-49200000D03*
%TO.P,J1,37,37*%
%TO.N,-15V*%
X162800000Y-44800000D03*
%TO.P,J1,38,38*%
%TO.N,GND*%
X162800000Y-49200000D03*
%TO.P,J1,39,39*%
X163600000Y-44800000D03*
%TO.P,J1,40,40*%
%TO.N,/DAC/dac_vout+*%
X163600000Y-49200000D03*
%TO.P,J1,41,41*%
%TO.N,GND*%
X164400000Y-44800000D03*
%TO.P,J1,42,42*%
%TO.N,/DAC/dac_vout-*%
X164400000Y-49200000D03*
%TO.P,J1,43,43*%
%TO.N,+5.3VA*%
X165200000Y-44800000D03*
%TO.P,J1,44,44*%
%TO.N,GND*%
X165200000Y-49200000D03*
%TO.P,J1,45,45*%
%TO.N,+5.3VA*%
X166000000Y-44800000D03*
%TO.P,J1,46,46*%
%TO.N,GND*%
X166000000Y-49200000D03*
%TO.P,J1,47,47*%
X166800000Y-44800000D03*
%TO.P,J1,48,48*%
%TO.N,/DCCT ADCs/dcct0+*%
X166800000Y-49200000D03*
%TO.P,J1,49,49*%
%TO.N,GND*%
X167600000Y-44800000D03*
%TO.P,J1,50,50*%
%TO.N,/DCCT ADCs/dcct0-*%
X167600000Y-49200000D03*
%TO.P,J1,51,51*%
%TO.N,-5.3VA*%
X168400000Y-44800000D03*
%TO.P,J1,52,52*%
%TO.N,GND*%
X168400000Y-49200000D03*
%TO.P,J1,53,53*%
%TO.N,-5.3VA*%
X169200000Y-44800000D03*
%TO.P,J1,54,54*%
%TO.N,GND*%
X169200000Y-49200000D03*
%TO.P,J1,55,55*%
X170000000Y-44800000D03*
%TO.P,J1,56,56*%
%TO.N,/DCCT ADCs/dcct1+*%
X170000000Y-49200000D03*
%TO.P,J1,57,57*%
%TO.N,GND*%
X170800000Y-44800000D03*
%TO.P,J1,58,58*%
%TO.N,/DCCT ADCs/dcct1-*%
X170800000Y-49200000D03*
%TO.P,J1,59,59*%
%TO.N,GND*%
X171600000Y-44800000D03*
%TO.P,J1,60,60*%
X171600000Y-49200000D03*
%TD*%
D17*
%TO.P,C6,1*%
%TO.N,-15V*%
X167015000Y-137715000D03*
%TO.P,C6,2*%
%TO.N,GND*%
X167015000Y-139265000D03*
%TD*%
D19*
%TO.P,C9,1*%
%TO.N,-15V*%
X166850000Y-131600000D03*
%TO.P,C9,2*%
%TO.N,GND*%
X167810000Y-131600000D03*
%TD*%
D17*
%TO.P,C127,1*%
%TO.N,+5.3VA*%
X153970000Y-87217000D03*
%TO.P,C127,2*%
%TO.N,GND*%
X153970000Y-88767000D03*
%TD*%
D21*
%TO.P,C28,1*%
%TO.N,-15V*%
X176756500Y-70225000D03*
%TO.P,C28,2*%
%TO.N,GND*%
X175206500Y-70225000D03*
%TD*%
D25*
%TO.P,C121,1*%
%TO.N,+15V*%
X158712000Y-65300000D03*
%TO.P,C121,2*%
%TO.N,GND*%
X160262000Y-65300000D03*
%TD*%
D19*
%TO.P,C181,1*%
%TO.N,+1.8V*%
X148918000Y-97040500D03*
%TO.P,C181,2*%
%TO.N,GND*%
X149878000Y-97040500D03*
%TD*%
D25*
%TO.P,C106,1*%
%TO.N,+15V*%
X145345000Y-129140000D03*
%TO.P,C106,2*%
%TO.N,GND*%
X146895000Y-129140000D03*
%TD*%
D17*
%TO.P,C125,1*%
%TO.N,+15V*%
X155367000Y-115491999D03*
%TO.P,C125,2*%
%TO.N,GND*%
X155367000Y-117041999D03*
%TD*%
%TO.P,C194,1*%
%TO.N,Net-(U42-VISO)*%
X150250000Y-162050000D03*
%TO.P,C194,2*%
%TO.N,GND*%
X150250000Y-163600000D03*
%TD*%
D20*
%TO.P,C104,1*%
%TO.N,+5.0V*%
X143250000Y-166700000D03*
%TO.P,C104,2*%
%TO.N,GND*%
X142290000Y-166700000D03*
%TD*%
D19*
%TO.P,C5,1*%
%TO.N,+15V*%
X170700000Y-131650000D03*
%TO.P,C5,2*%
%TO.N,GND*%
X171660000Y-131650000D03*
%TD*%
D23*
%TO.P,C90,1*%
%TO.N,+15V*%
X155515000Y-140948150D03*
%TO.P,C90,2*%
%TO.N,GND*%
X155515000Y-139398150D03*
%TD*%
%TO.P,C94,1*%
%TO.N,+15V*%
X156780000Y-130183150D03*
%TO.P,C94,2*%
%TO.N,GND*%
X156780000Y-128633150D03*
%TD*%
D19*
%TO.P,C82,1*%
%TO.N,+15V*%
X162450000Y-142373150D03*
%TO.P,C82,2*%
%TO.N,GND*%
X163410000Y-142373150D03*
%TD*%
D25*
%TO.P,C143,1*%
%TO.N,+2.5V*%
X159291000Y-92562600D03*
%TO.P,C143,2*%
%TO.N,GND*%
X160841000Y-92562600D03*
%TD*%
D17*
%TO.P,C73,1*%
%TO.N,-15V*%
X174085000Y-137715000D03*
%TO.P,C73,2*%
%TO.N,GND*%
X174085000Y-139265000D03*
%TD*%
D20*
%TO.P,C39,1*%
%TO.N,+15V*%
X168041500Y-65525000D03*
%TO.P,C39,2*%
%TO.N,GND*%
X167081500Y-65525000D03*
%TD*%
D21*
%TO.P,C42,1*%
%TO.N,+15V*%
X174156500Y-58125000D03*
%TO.P,C42,2*%
%TO.N,GND*%
X172606500Y-58125000D03*
%TD*%
%TO.P,C33,1*%
%TO.N,+15V*%
X168056500Y-66825000D03*
%TO.P,C33,2*%
%TO.N,GND*%
X166506500Y-66825000D03*
%TD*%
D22*
%TO.P,C159,1*%
%TO.N,/DCCT ADCs/DCCT Channel 1/drv_vref*%
X145842000Y-84022000D03*
%TO.P,C159,2*%
%TO.N,GND*%
X145842000Y-83062000D03*
%TD*%
D19*
%TO.P,C64,1*%
%TO.N,+15V*%
X173045000Y-153825000D03*
%TO.P,C64,2*%
%TO.N,GND*%
X174005000Y-153825000D03*
%TD*%
D25*
%TO.P,C118,1*%
%TO.N,-5.3VA*%
X153589000Y-79089000D03*
%TO.P,C118,2*%
%TO.N,GND*%
X155139000Y-79089000D03*
%TD*%
%TO.P,C172,1*%
%TO.N,-5.3VA*%
X159024000Y-87344000D03*
%TO.P,C172,2*%
%TO.N,GND*%
X160574000Y-87344000D03*
%TD*%
D20*
%TO.P,C25,1*%
%TO.N,+15V*%
X170361500Y-76725000D03*
%TO.P,C25,2*%
%TO.N,GND*%
X169401500Y-76725000D03*
%TD*%
D24*
%TO.P,D9,1,A*%
%TO.N,-5.3VA*%
X155941000Y-62460000D03*
%TO.P,D9,2,K*%
%TO.N,+5.3VA*%
X157841000Y-62460000D03*
%TO.P,D9,3,COM*%
%TO.N,Net-(D9-COM)*%
X156891000Y-64335000D03*
%TD*%
D25*
%TO.P,C139,1*%
%TO.N,-5.3VA*%
X148778549Y-87362501D03*
%TO.P,C139,2*%
%TO.N,GND*%
X150328549Y-87362501D03*
%TD*%
%TO.P,C11,1*%
%TO.N,-15V*%
X169275000Y-98650000D03*
%TO.P,C11,2*%
%TO.N,GND*%
X170825000Y-98650000D03*
%TD*%
D19*
%TO.P,C92,1*%
%TO.N,+15V*%
X155485000Y-142298150D03*
%TO.P,C92,2*%
%TO.N,GND*%
X156445000Y-142298150D03*
%TD*%
D23*
%TO.P,C70,1*%
%TO.N,+15V*%
X177785000Y-130165000D03*
%TO.P,C70,2*%
%TO.N,GND*%
X177785000Y-128615000D03*
%TD*%
D25*
%TO.P,C145,1*%
%TO.N,+1.8V*%
X159164000Y-95734000D03*
%TO.P,C145,2*%
%TO.N,GND*%
X160714000Y-95734000D03*
%TD*%
D19*
%TO.P,C144,1*%
%TO.N,+2.5V*%
X158316000Y-93821000D03*
%TO.P,C144,2*%
%TO.N,GND*%
X159276000Y-93821000D03*
%TD*%
D25*
%TO.P,C57,1*%
%TO.N,+15V*%
X173050000Y-152425000D03*
%TO.P,C57,2*%
%TO.N,GND*%
X174600000Y-152425000D03*
%TD*%
D19*
%TO.P,C189,1*%
%TO.N,+1.8V*%
X154520000Y-171300000D03*
%TO.P,C189,2*%
%TO.N,GND*%
X155480000Y-171300000D03*
%TD*%
D18*
%TO.P,C137,1*%
%TO.N,+5.3VA*%
X144994549Y-87235501D03*
%TO.P,C137,2*%
%TO.N,GND*%
X144994549Y-88195501D03*
%TD*%
D17*
%TO.P,C136,1*%
%TO.N,+5.3VA*%
X143724549Y-87235501D03*
%TO.P,C136,2*%
%TO.N,GND*%
X143724549Y-88785501D03*
%TD*%
D25*
%TO.P,C114,1*%
%TO.N,-5.3VA*%
X143343549Y-79107501D03*
%TO.P,C114,2*%
%TO.N,GND*%
X144893549Y-79107501D03*
%TD*%
%TO.P,C18,1*%
%TO.N,+15V*%
X169900000Y-87425000D03*
%TO.P,C18,2*%
%TO.N,GND*%
X171450000Y-87425000D03*
%TD*%
D19*
%TO.P,C77,1*%
%TO.N,+15V*%
X176605000Y-142465000D03*
%TO.P,C77,2*%
%TO.N,GND*%
X177565000Y-142465000D03*
%TD*%
D22*
%TO.P,C53,1*%
%TO.N,+5.0V*%
X165100000Y-151210000D03*
%TO.P,C53,2*%
%TO.N,GND*%
X165100000Y-150250000D03*
%TD*%
D20*
%TO.P,C192,1*%
%TO.N,Net-(U42-VISO)*%
X150222500Y-160627750D03*
%TO.P,C192,2*%
%TO.N,GND*%
X149262500Y-160627750D03*
%TD*%
D17*
%TO.P,C93,1*%
%TO.N,-15V*%
X153115000Y-137598150D03*
%TO.P,C93,2*%
%TO.N,GND*%
X153115000Y-139148150D03*
%TD*%
D21*
%TO.P,C154,1*%
%TO.N,-15V*%
X144598043Y-65318501D03*
%TO.P,C154,2*%
%TO.N,GND*%
X143048043Y-65318501D03*
%TD*%
D20*
%TO.P,C183,1*%
%TO.N,+5.0V*%
X143180000Y-169800000D03*
%TO.P,C183,2*%
%TO.N,GND*%
X142220000Y-169800000D03*
%TD*%
D19*
%TO.P,C158,1*%
%TO.N,+15V*%
X148466549Y-67096501D03*
%TO.P,C158,2*%
%TO.N,GND*%
X149426549Y-67096501D03*
%TD*%
%TO.P,C10,1*%
%TO.N,+15V*%
X169385000Y-142415000D03*
%TO.P,C10,2*%
%TO.N,GND*%
X170345000Y-142415000D03*
%TD*%
D20*
%TO.P,C185,1*%
%TO.N,Net-(U39-VISO)*%
X143186600Y-160621850D03*
%TO.P,C185,2*%
%TO.N,GND*%
X142226600Y-160621850D03*
%TD*%
D18*
%TO.P,C54,1*%
%TO.N,+5.0V*%
X160350000Y-162910000D03*
%TO.P,C54,2*%
%TO.N,GND*%
X160350000Y-163870000D03*
%TD*%
D21*
%TO.P,C31,1*%
%TO.N,+15V*%
X174231500Y-66725000D03*
%TO.P,C31,2*%
%TO.N,GND*%
X172681500Y-66725000D03*
%TD*%
D19*
%TO.P,C19,1*%
%TO.N,-15V*%
X176345000Y-87650000D03*
%TO.P,C19,2*%
%TO.N,GND*%
X177305000Y-87650000D03*
%TD*%
%TO.P,C165,1*%
%TO.N,+5.3VA*%
X147689549Y-73519501D03*
%TO.P,C165,2*%
%TO.N,GND*%
X148649549Y-73519501D03*
%TD*%
D25*
%TO.P,C66,1*%
%TO.N,+3.3V*%
X167725000Y-167730000D03*
%TO.P,C66,2*%
%TO.N,GND*%
X169275000Y-167730000D03*
%TD*%
D20*
%TO.P,C46,1*%
%TO.N,+15V*%
X174161500Y-56825000D03*
%TO.P,C46,2*%
%TO.N,GND*%
X173201500Y-56825000D03*
%TD*%
%TO.P,C44,1*%
%TO.N,-15V*%
X177081500Y-63025000D03*
%TO.P,C44,2*%
%TO.N,GND*%
X176121500Y-63025000D03*
%TD*%
D17*
%TO.P,C171,1*%
%TO.N,+5.3VA*%
X156764000Y-74237000D03*
%TO.P,C171,2*%
%TO.N,GND*%
X156764000Y-75787000D03*
%TD*%
D23*
%TO.P,C133,1*%
%TO.N,+15V*%
X152700000Y-108434000D03*
%TO.P,C133,2*%
%TO.N,GND*%
X152700000Y-106884000D03*
%TD*%
D25*
%TO.P,C156,1*%
%TO.N,+15V*%
X148466549Y-65318501D03*
%TO.P,C156,2*%
%TO.N,GND*%
X150016549Y-65318501D03*
%TD*%
D22*
%TO.P,C56,1*%
%TO.N,+5.0V*%
X169675000Y-151210000D03*
%TO.P,C56,2*%
%TO.N,GND*%
X169675000Y-150250000D03*
%TD*%
%TO.P,C174,1*%
%TO.N,-5.3VA*%
X157018000Y-86582000D03*
%TO.P,C174,2*%
%TO.N,GND*%
X157018000Y-85622000D03*
%TD*%
D19*
%TO.P,C123,1*%
%TO.N,+15V*%
X158712000Y-67078000D03*
%TO.P,C123,2*%
%TO.N,GND*%
X159672000Y-67078000D03*
%TD*%
%TO.P,C14,1*%
%TO.N,+15V*%
X175895000Y-94725000D03*
%TO.P,C14,2*%
%TO.N,GND*%
X176855000Y-94725000D03*
%TD*%
D20*
%TO.P,C182,1*%
%TO.N,+1.8V*%
X143150000Y-171534100D03*
%TO.P,C182,2*%
%TO.N,GND*%
X142190000Y-171534100D03*
%TD*%
D19*
%TO.P,C108,1*%
%TO.N,+15V*%
X145290000Y-130430000D03*
%TO.P,C108,2*%
%TO.N,GND*%
X146250000Y-130430000D03*
%TD*%
D21*
%TO.P,C98,1*%
%TO.N,-15V*%
X161650000Y-152525000D03*
%TO.P,C98,2*%
%TO.N,GND*%
X160100000Y-152525000D03*
%TD*%
D19*
%TO.P,C113,1*%
%TO.N,-5.3VA*%
X143371549Y-77710501D03*
%TO.P,C113,2*%
%TO.N,GND*%
X144331549Y-77710501D03*
%TD*%
D23*
%TO.P,C79,1*%
%TO.N,-15V*%
X159945000Y-130208150D03*
%TO.P,C79,2*%
%TO.N,GND*%
X159945000Y-128658150D03*
%TD*%
D18*
%TO.P,C130,1*%
%TO.N,+5.3VA*%
X155240000Y-87217000D03*
%TO.P,C130,2*%
%TO.N,GND*%
X155240000Y-88177000D03*
%TD*%
D25*
%TO.P,C178,1*%
%TO.N,+2.5V*%
X149045549Y-92305000D03*
%TO.P,C178,2*%
%TO.N,GND*%
X150595549Y-92305000D03*
%TD*%
D17*
%TO.P,C83,1*%
%TO.N,-15V*%
X160080000Y-137673150D03*
%TO.P,C83,2*%
%TO.N,GND*%
X160080000Y-139223150D03*
%TD*%
D23*
%TO.P,C69,1*%
%TO.N,-15V*%
X173935000Y-130215000D03*
%TO.P,C69,2*%
%TO.N,GND*%
X173935000Y-128665000D03*
%TD*%
D26*
%TO.P,J2,1,1*%
%TO.N,/FPGA connector/dout0*%
X148400000Y-174800000D03*
%TO.P,J2,2,2*%
%TO.N,GND*%
X148400000Y-179200000D03*
%TO.P,J2,3,3*%
%TO.N,/FPGA connector/dout1*%
X149200000Y-174800000D03*
%TO.P,J2,4,4*%
%TO.N,GND*%
X149200000Y-179200000D03*
%TO.P,J2,5,5*%
%TO.N,/FPGA connector/dout2*%
X150000000Y-174800000D03*
%TO.P,J2,6,6*%
%TO.N,+1.8V*%
X150000000Y-179200000D03*
%TO.P,J2,7,7*%
%TO.N,/FPGA connector/dout3*%
X150800000Y-174800000D03*
%TO.P,J2,8,8*%
%TO.N,+1.8V*%
X150800000Y-179200000D03*
%TO.P,J2,9,9*%
%TO.N,/FPGA connector/din0*%
X151600000Y-174800000D03*
%TO.P,J2,10,10*%
%TO.N,+1.8V*%
X151600000Y-179200000D03*
%TO.P,J2,11,11*%
%TO.N,/FPGA connector/din1*%
X152400000Y-174800000D03*
%TO.P,J2,12,12*%
%TO.N,GND*%
X152400000Y-179200000D03*
%TO.P,J2,13,13*%
%TO.N,/FPGA connector/din2*%
X153200000Y-174800000D03*
%TO.P,J2,14,14*%
%TO.N,GND*%
X153200000Y-179200000D03*
%TO.P,J2,15,15*%
%TO.N,/FPGA connector/din3*%
X154000000Y-174800000D03*
%TO.P,J2,16,16*%
%TO.N,GND*%
X154000000Y-179200000D03*
%TO.P,J2,17,17*%
X154800000Y-174800000D03*
%TO.P,J2,18,18*%
X154800000Y-179200000D03*
%TO.P,J2,19,19*%
%TO.N,/DAC/sclk*%
X155600000Y-174800000D03*
%TO.P,J2,20,20*%
%TO.N,GND*%
X155600000Y-179200000D03*
%TO.P,J2,21,21*%
%TO.N,/DAC/sdin*%
X156400000Y-174800000D03*
%TO.P,J2,22,22*%
%TO.N,+3.3V*%
X156400000Y-179200000D03*
%TO.P,J2,23,23*%
%TO.N,/DAC/syncn*%
X157200000Y-174800000D03*
%TO.P,J2,24,24*%
%TO.N,+3.3V*%
X157200000Y-179200000D03*
%TO.P,J2,25,25*%
%TO.N,GND*%
X158000000Y-174800000D03*
%TO.P,J2,26,26*%
%TO.N,+3.3V*%
X158000000Y-179200000D03*
%TO.P,J2,27,27*%
%TO.N,/FPGA connector/mon_reset*%
X158800000Y-174800000D03*
%TO.P,J2,28,28*%
%TO.N,GND*%
X158800000Y-179200000D03*
%TO.P,J2,29,29*%
%TO.N,/FPGA connector/mon_convert*%
X159600000Y-174800000D03*
%TO.P,J2,30,30*%
%TO.N,GND*%
X159600000Y-179200000D03*
%TO.P,J2,31,31*%
%TO.N,/FPGA connector/mon_busy*%
X160400000Y-174800000D03*
%TO.P,J2,32,32*%
%TO.N,GND*%
X160400000Y-179200000D03*
%TO.P,J2,33,33*%
%TO.N,/FPGA connector/mon_fs*%
X161200000Y-174800000D03*
%TO.P,J2,34,34*%
%TO.N,GND*%
X161200000Y-179200000D03*
%TO.P,J2,35,35*%
%TO.N,/FPGA connector/mon_sdo*%
X162000000Y-174800000D03*
%TO.P,J2,36,36*%
%TO.N,GND*%
X162000000Y-179200000D03*
%TO.P,J2,37,37*%
%TO.N,/FPGA connector/mon_sclk*%
X162800000Y-174800000D03*
%TO.P,J2,38,38*%
%TO.N,GND*%
X162800000Y-179200000D03*
%TO.P,J2,39,39*%
X163600000Y-174800000D03*
%TO.P,J2,40,40*%
X163600000Y-179200000D03*
%TO.P,J2,41,41*%
%TO.N,/DCCT ADCs/dcct_cnv*%
X164400000Y-174800000D03*
%TO.P,J2,42,42*%
%TO.N,+5.0V*%
X164400000Y-179200000D03*
%TO.P,J2,43,43*%
%TO.N,/DCCT ADCs/dcct_busy*%
X165200000Y-174800000D03*
%TO.P,J2,44,44*%
%TO.N,+5.0V*%
X165200000Y-179200000D03*
%TO.P,J2,45,45*%
%TO.N,/DCCT ADCs/dcct_sck*%
X166000000Y-174800000D03*
%TO.P,J2,46,46*%
%TO.N,+5.0V*%
X166000000Y-179200000D03*
%TO.P,J2,47,47*%
%TO.N,/DCCT ADCs/dcct0_sdo*%
X166800000Y-174800000D03*
%TO.P,J2,48,48*%
%TO.N,GND*%
X166800000Y-179200000D03*
%TO.P,J2,49,49*%
%TO.N,/DCCT ADCs/dcct1_sdo*%
X167600000Y-174800000D03*
%TO.P,J2,50,50*%
%TO.N,GND*%
X167600000Y-179200000D03*
%TO.P,J2,51,51*%
X168400000Y-174800000D03*
%TO.P,J2,52,52*%
X168400000Y-179200000D03*
%TO.P,J2,53,53*%
X169200000Y-174800000D03*
%TO.P,J2,54,54*%
X169200000Y-179200000D03*
%TO.P,J2,55,55*%
X170000000Y-174800000D03*
%TO.P,J2,56,56*%
%TO.N,+2.5V*%
X170000000Y-179200000D03*
%TO.P,J2,57,57*%
%TO.N,Net-(J2-Pad57)*%
X170800000Y-174800000D03*
%TO.P,J2,58,58*%
%TO.N,+2.5V*%
X170800000Y-179200000D03*
%TO.P,J2,59,59*%
%TO.N,Net-(J2-Pad59)*%
X171600000Y-174800000D03*
%TO.P,J2,60,60*%
%TO.N,+2.5V*%
X171600000Y-179200000D03*
%TD*%
D25*
%TO.P,C12,1*%
%TO.N,+15V*%
X175925000Y-96125000D03*
%TO.P,C12,2*%
%TO.N,GND*%
X177475000Y-96125000D03*
%TD*%
D19*
%TO.P,C24,1*%
%TO.N,-15V*%
X174821500Y-82125000D03*
%TO.P,C24,2*%
%TO.N,GND*%
X175781500Y-82125000D03*
%TD*%
D18*
%TO.P,C175,1*%
%TO.N,/DCCT ADCs/adc_vref*%
X156383000Y-93448000D03*
%TO.P,C175,2*%
%TO.N,GND*%
X156383000Y-94408000D03*
%TD*%
D20*
%TO.P,C45,1*%
%TO.N,-15V*%
X170981500Y-63125000D03*
%TO.P,C45,2*%
%TO.N,GND*%
X170021500Y-63125000D03*
%TD*%
%TO.P,C29,1*%
%TO.N,+3.3V*%
X168420000Y-93448000D03*
%TO.P,C29,2*%
%TO.N,GND*%
X167460000Y-93448000D03*
%TD*%
D27*
%TO.P,C135,1*%
%TO.N,GND*%
X149369000Y-101449000D03*
%TO.P,C135,2*%
%TO.N,Net-(C135-Pad2)*%
X152319000Y-101449000D03*
%TD*%
D21*
%TO.P,C41,1*%
%TO.N,-15V*%
X170856500Y-61725000D03*
%TO.P,C41,2*%
%TO.N,GND*%
X169306500Y-61725000D03*
%TD*%
%TO.P,C119,1*%
%TO.N,-15V*%
X154843494Y-65300000D03*
%TO.P,C119,2*%
%TO.N,GND*%
X153293494Y-65300000D03*
%TD*%
D23*
%TO.P,C74,1*%
%TO.N,+15V*%
X176585000Y-141115000D03*
%TO.P,C74,2*%
%TO.N,GND*%
X176585000Y-139565000D03*
%TD*%
D20*
%TO.P,C36,1*%
%TO.N,-15V*%
X170561500Y-71725000D03*
%TO.P,C36,2*%
%TO.N,GND*%
X169601500Y-71725000D03*
%TD*%
D19*
%TO.P,C81,1*%
%TO.N,-15V*%
X159950000Y-136373150D03*
%TO.P,C81,2*%
%TO.N,GND*%
X160910000Y-136373150D03*
%TD*%
%TO.P,C96,1*%
%TO.N,-15V*%
X152985000Y-136298150D03*
%TO.P,C96,2*%
%TO.N,GND*%
X153945000Y-136298150D03*
%TD*%
D20*
%TO.P,C152,1*%
%TO.N,-15V*%
X144656549Y-67096501D03*
%TO.P,C152,2*%
%TO.N,GND*%
X143696549Y-67096501D03*
%TD*%
D22*
%TO.P,C48,1*%
%TO.N,+15V*%
X168200000Y-114022000D03*
%TO.P,C48,2*%
%TO.N,GND*%
X168200000Y-113062000D03*
%TD*%
D21*
%TO.P,C161,1*%
%TO.N,/DCCT ADCs/adc_vref*%
X154224000Y-92686000D03*
%TO.P,C161,2*%
%TO.N,GND*%
X152674000Y-92686000D03*
%TD*%
D28*
%TO.N,GND*%
X164250000Y-159000000D03*
X174675000Y-161375000D03*
X165175000Y-47625000D03*
X169981500Y-64125000D03*
X176481500Y-82125000D03*
X143800000Y-111229000D03*
X153970000Y-152730000D03*
X165581500Y-66825000D03*
X146772549Y-84822501D03*
X164881500Y-106625000D03*
X170250000Y-156000000D03*
X167650000Y-180800000D03*
X160910000Y-135343150D03*
X160750000Y-154725000D03*
X168250000Y-156000000D03*
X166797000Y-190984000D03*
X153945000Y-135268150D03*
X171450000Y-86325000D03*
X168130000Y-128700000D03*
X163600000Y-180800000D03*
X166725000Y-90750000D03*
X150000000Y-123200000D03*
X150244549Y-67096501D03*
X162800000Y-180850000D03*
X155600000Y-43000000D03*
X147050000Y-152750000D03*
X170480000Y-167730000D03*
X175275000Y-135400000D03*
X154800000Y-173250000D03*
X170360000Y-143420000D03*
X169175000Y-47575000D03*
X155450000Y-170650000D03*
X168600000Y-152150000D03*
X175180000Y-89450000D03*
X147080000Y-156580000D03*
X154224000Y-90519000D03*
X146180549Y-66588501D03*
X151950000Y-145000000D03*
X170250000Y-160500000D03*
X160490000Y-67078000D03*
X174510000Y-155880000D03*
X177950000Y-85225000D03*
X159340000Y-155120000D03*
X165514000Y-102859000D03*
X148400000Y-121600000D03*
X149652000Y-114022000D03*
X170150000Y-166300000D03*
X145502549Y-77710501D03*
X178125000Y-87625000D03*
X164981500Y-107825000D03*
X154097000Y-117578000D03*
X158850000Y-180750000D03*
X156450000Y-143230000D03*
X144800000Y-145250000D03*
X156400000Y-43075000D03*
X167432000Y-113006000D03*
X167845000Y-135385000D03*
X171781500Y-66725000D03*
X164250000Y-162000000D03*
X157018000Y-83034000D03*
X164750000Y-108625000D03*
X171550000Y-47600000D03*
X156426000Y-66570000D03*
X142200000Y-172300000D03*
X165160000Y-149370000D03*
X161971000Y-115673000D03*
X152865000Y-140098150D03*
X170775000Y-42775000D03*
X163410000Y-143410000D03*
X170250000Y-157500000D03*
X146391549Y-78980501D03*
X175375000Y-98525000D03*
X164892000Y-190984000D03*
X155918000Y-76668000D03*
X161209000Y-106783000D03*
X172581500Y-59225000D03*
X144994549Y-89013501D03*
X156891000Y-76803000D03*
X168380000Y-109100000D03*
X177825000Y-135225000D03*
X170850000Y-99850000D03*
X174150000Y-116250000D03*
X172004000Y-108688000D03*
X162000000Y-180700000D03*
X152954000Y-88741000D03*
X168250000Y-162000000D03*
X145775000Y-127275000D03*
X143300000Y-170650000D03*
X175681500Y-60525000D03*
X174825000Y-153825000D03*
X154224000Y-106783000D03*
X168250000Y-157500000D03*
X166925000Y-99650000D03*
X143978549Y-90537501D03*
X160714000Y-96890000D03*
X159784000Y-97921000D03*
X156665000Y-139398150D03*
X168670000Y-166210000D03*
X146200000Y-131200000D03*
X166800000Y-180750000D03*
X148600000Y-152400000D03*
X161175000Y-43050000D03*
X143375000Y-117700000D03*
X164400000Y-43000000D03*
X161975000Y-47325000D03*
X178700000Y-45000000D03*
X177185000Y-118665000D03*
X147280000Y-131170000D03*
X146518049Y-57190501D03*
X147675000Y-102650000D03*
X149500000Y-103100000D03*
X161006000Y-78200000D03*
X169500000Y-149390000D03*
X170675000Y-148535000D03*
X168250000Y-159000000D03*
X147650000Y-170650000D03*
X177825000Y-94750000D03*
X173281500Y-64425000D03*
X165075000Y-166750000D03*
X160955000Y-88360000D03*
X150760549Y-78218501D03*
X157175000Y-43050000D03*
X147575000Y-100125000D03*
X149200000Y-167550000D03*
X166000000Y-47725000D03*
X153150000Y-181650000D03*
X166250000Y-162000000D03*
X149693549Y-93839501D03*
X177125000Y-156900000D03*
X175625000Y-152425000D03*
X154050000Y-170550000D03*
X161811000Y-122293950D03*
X164150000Y-148525000D03*
X145756549Y-78472501D03*
X166250000Y-159000000D03*
X163175000Y-166350000D03*
X150595549Y-93445501D03*
X156763500Y-57172000D03*
X148400000Y-180950000D03*
X166775000Y-42775000D03*
X164250000Y-160500000D03*
X156637000Y-78962000D03*
X169481500Y-60625000D03*
X152108000Y-65300000D03*
X170565000Y-139515000D03*
X166650000Y-166200000D03*
X160841000Y-93427000D03*
X156916400Y-112244000D03*
X161195000Y-128658150D03*
X148250000Y-160600000D03*
X169181500Y-69225000D03*
X154775000Y-47725000D03*
X148110000Y-129190000D03*
X149350000Y-116775000D03*
X166250000Y-157500000D03*
X168400000Y-180800000D03*
X150541000Y-111355000D03*
X151006549Y-65318501D03*
X146825000Y-127275000D03*
X146280000Y-127670000D03*
X170250000Y-159000000D03*
X175056500Y-86850000D03*
X177500000Y-97325000D03*
X159558000Y-90519000D03*
X145750000Y-128075000D03*
X155367000Y-117811000D03*
X170250000Y-162000000D03*
X157130000Y-135080000D03*
X161195000Y-132508150D03*
X169281500Y-75525000D03*
X147175000Y-123500000D03*
X142200000Y-169000000D03*
X159600000Y-47550000D03*
X158000000Y-173250000D03*
X166765000Y-140215000D03*
X148950000Y-163600000D03*
X146576000Y-83062000D03*
X170000000Y-173150000D03*
X163368000Y-102846000D03*
X160400000Y-180750000D03*
X161300000Y-163880000D03*
X167575000Y-42800000D03*
X154500000Y-167900000D03*
X168130000Y-132550000D03*
X149200000Y-177600000D03*
X159600000Y-180800000D03*
X142708549Y-88759501D03*
X149312549Y-90537501D03*
X159939000Y-93821000D03*
X164845000Y-130708150D03*
X166320000Y-149390000D03*
X159812000Y-73501000D03*
X166250000Y-160500000D03*
X165045000Y-128708150D03*
X168425000Y-47175000D03*
X144650000Y-142650000D03*
X167081500Y-105025000D03*
X169975000Y-42775000D03*
X169200000Y-176650000D03*
X155675000Y-128625000D03*
X172850000Y-139500000D03*
X175235000Y-132565000D03*
X153124000Y-67078000D03*
X158000000Y-43075000D03*
X166381500Y-101625000D03*
X152573000Y-93702000D03*
X164250000Y-157500000D03*
X171575000Y-42725000D03*
X166250000Y-156000000D03*
X170950000Y-93050000D03*
X163630000Y-139473150D03*
X159050000Y-100560000D03*
X167381500Y-103125000D03*
X171881500Y-56825000D03*
X168746000Y-122335800D03*
X160375000Y-43050000D03*
X151850000Y-142550000D03*
X144191000Y-95099000D03*
X154846000Y-122218950D03*
X170081500Y-72725000D03*
X154825000Y-46600000D03*
X142921000Y-95861000D03*
X175685000Y-122290000D03*
X167081500Y-64525000D03*
X142878549Y-67096501D03*
X177685000Y-139565000D03*
X154230000Y-128583150D03*
X168400000Y-173150000D03*
X167081500Y-55925000D03*
X161200000Y-180700000D03*
X149566549Y-73519501D03*
X163600000Y-43025000D03*
X171780000Y-130750000D03*
X176181500Y-63925000D03*
X170885000Y-90935000D03*
X154000000Y-180850000D03*
X150922000Y-88495000D03*
X145200000Y-106575000D03*
X177250000Y-158800000D03*
X161252000Y-65300000D03*
X146645549Y-76821501D03*
X158348000Y-187100000D03*
X141800000Y-45100000D03*
X165481500Y-58225000D03*
X175135000Y-128665000D03*
X152400000Y-181050000D03*
X156002000Y-78454000D03*
X155240000Y-88995000D03*
X154800000Y-180700000D03*
X174620000Y-162880000D03*
X167981500Y-78025000D03*
X149398000Y-115292000D03*
X146250000Y-124300000D03*
X166670000Y-93448000D03*
X150300000Y-126600000D03*
X150795000Y-97004000D03*
X143850000Y-112854000D03*
X155748000Y-77692000D03*
X172181500Y-72825000D03*
X167650000Y-148535000D03*
X155450000Y-169050000D03*
X141400000Y-166700000D03*
X171980000Y-128750000D03*
X142200000Y-159800000D03*
X143683000Y-109831000D03*
X162775000Y-47475000D03*
X159830000Y-140173150D03*
X155600000Y-180750000D03*
X145672549Y-76686501D03*
X176665000Y-106585000D03*
X176675000Y-128650000D03*
X169200000Y-180700000D03*
X157200000Y-47650000D03*
X160370000Y-156150000D03*
X175281500Y-69125000D03*
X156764000Y-108815000D03*
X146800000Y-128100000D03*
X177281500Y-80825000D03*
X157018000Y-84804000D03*
X175781500Y-72525000D03*
X147550000Y-167900000D03*
X168250000Y-160500000D03*
X150050000Y-170550000D03*
X154478000Y-102084000D03*
X141850000Y-163700000D03*
X164250000Y-156000000D03*
X159900000Y-153525000D03*
X154230000Y-132433150D03*
X163600000Y-173100000D03*
X177685000Y-143465000D03*
X143048000Y-64238000D03*
X169464000Y-111609000D03*
X170800000Y-117050000D03*
%TO.N,-15V*%
X177081500Y-63925000D03*
X152930000Y-132483150D03*
X173981500Y-82125000D03*
X152865000Y-135248150D03*
X170781500Y-64125000D03*
X166830000Y-132600000D03*
X174100000Y-135350000D03*
X170981500Y-72625000D03*
X166650000Y-98525000D03*
X162800000Y-46275000D03*
X176781500Y-72525000D03*
X176375000Y-85200000D03*
X166765000Y-135365000D03*
X159895000Y-132558150D03*
X173835000Y-132615000D03*
X154902000Y-66316000D03*
X144656549Y-66334501D03*
X175175000Y-87700000D03*
X162000000Y-46300000D03*
X159830000Y-135323150D03*
X161725000Y-154725000D03*
%TO.N,+15V*%
X163795000Y-132558150D03*
X164781000Y-113594000D03*
X158712000Y-66062000D03*
X177750000Y-132525000D03*
X174161500Y-55845000D03*
X161082000Y-104370000D03*
X148466549Y-66080501D03*
X162530000Y-143273150D03*
X168031500Y-64475000D03*
X168061500Y-55845000D03*
X169465000Y-143315000D03*
X156830000Y-132483150D03*
X174181500Y-64425000D03*
X170730000Y-132600000D03*
X175000000Y-94750000D03*
X168241000Y-115041000D03*
X148000000Y-125550000D03*
X170381500Y-75725000D03*
X169200000Y-88750000D03*
X176635000Y-143465000D03*
X173050000Y-154675000D03*
X153970000Y-114276000D03*
X154351000Y-109704000D03*
X158800000Y-46400000D03*
X159625000Y-46512500D03*
X145300000Y-131125000D03*
X155565000Y-143198150D03*
X176000000Y-99500000D03*
%TO.N,+3.3V*%
X156350000Y-181600000D03*
X167675000Y-166275000D03*
X171500000Y-101500000D03*
X157950000Y-181650000D03*
X160370000Y-160680000D03*
X157150000Y-181550000D03*
X169175000Y-90125000D03*
X160342902Y-159128077D03*
X168448000Y-92686000D03*
%TO.N,+5.0V*%
X143250000Y-167850000D03*
X143936079Y-156399252D03*
X153700000Y-169750000D03*
X150150000Y-167800000D03*
X165950000Y-181350000D03*
X148650000Y-154900000D03*
X160360000Y-162000000D03*
X165150000Y-152100000D03*
X165150000Y-181300000D03*
X164350000Y-181250000D03*
X174520000Y-156880000D03*
X143900000Y-169850000D03*
X160290000Y-156930000D03*
X169650000Y-152075000D03*
X166650000Y-151970000D03*
%TO.N,Net-(C109-Pad2)*%
X150963549Y-69582501D03*
X143343549Y-69582501D03*
%TO.N,/DAC/syncn*%
X157175000Y-172625000D03*
X179200000Y-167375000D03*
X175960000Y-90100000D03*
%TO.N,/Isolated Digital IO/dout_iso_gnd*%
X148050000Y-161400000D03*
X152400000Y-42750000D03*
X154000000Y-42750000D03*
X151600000Y-42700000D03*
X153200000Y-42750000D03*
X148700000Y-150000000D03*
%TO.N,/Isolated Digital IO/dout0_iso*%
X145600000Y-157250000D03*
X145060000Y-159350000D03*
%TO.N,/Isolated Digital IO/dout1_iso*%
X148832600Y-159600000D03*
X142300000Y-132900000D03*
X143550000Y-132950000D03*
X145800000Y-133350000D03*
%TO.N,/Isolated Digital IO/dout2_iso*%
X141800000Y-135850000D03*
X144650000Y-136100000D03*
X146198200Y-145498200D03*
X144770000Y-147600000D03*
%TO.N,/Isolated Digital IO/dout3_iso*%
X147200000Y-145400000D03*
X141600000Y-137900000D03*
X145300000Y-138650000D03*
%TO.N,/Isolated Digital IO/din_iso_gnd*%
X143900000Y-152000000D03*
X150000000Y-47100000D03*
X148400000Y-47100000D03*
X150850000Y-47100000D03*
X141050000Y-162450000D03*
X154050000Y-162750000D03*
X149250000Y-47100000D03*
%TO.N,/Isolated Digital IO/din1_iso*%
X155561700Y-159650000D03*
X148175000Y-134150000D03*
X153175000Y-47650000D03*
%TO.N,/Isolated Digital IO/din0_iso*%
X153974528Y-47677570D03*
X152150000Y-157250000D03*
X147100000Y-132800000D03*
X151850000Y-163300000D03*
%TO.N,/Isolated Digital IO/din3_iso*%
X151627245Y-47729199D03*
X148750000Y-137075505D03*
X155550000Y-148150000D03*
%TO.N,/Isolated Digital IO/din2_iso*%
X152374220Y-47442784D03*
X151790000Y-148440000D03*
X152200000Y-146200000D03*
X149100000Y-135650000D03*
%TO.N,/DAC/sclk*%
X178400000Y-168925000D03*
X155600000Y-172275000D03*
X175056500Y-90750000D03*
%TO.N,/DAC/sdin*%
X177675000Y-170175000D03*
X175381500Y-91625000D03*
X156450000Y-171450000D03*
%TO.N,/FPGA connector/dout1*%
X145650000Y-173300000D03*
%TO.N,/FPGA connector/din3*%
X154100000Y-177600000D03*
%TO.N,/FPGA connector/dout3*%
X147400000Y-171500000D03*
%TO.N,/FPGA connector/mon_reset*%
X160275000Y-159875000D03*
%TO.N,/FPGA connector/din1*%
X152350000Y-172900000D03*
%TO.N,/FPGA connector/mon_fs*%
X159710000Y-161370000D03*
%TO.N,/FPGA connector/dout2*%
X146250000Y-172550000D03*
%TO.N,/FPGA connector/din0*%
X151875000Y-176425000D03*
%TO.N,/FPGA connector/mon_convert*%
X176275000Y-172475000D03*
X175375000Y-159475000D03*
X159525000Y-172475000D03*
%TO.N,/DCCT ADCs/dcct_sck*%
X160525000Y-168350000D03*
X165950000Y-168475000D03*
X150160000Y-98892000D03*
X157399000Y-98655000D03*
%TO.N,/FPGA connector/mon_sdo*%
X164175000Y-166475000D03*
%TO.N,/FPGA connector/din2*%
X153250000Y-176250000D03*
%TO.N,/DCCT ADCs/dcct_cnv*%
X159750000Y-168975000D03*
X164275000Y-168975000D03*
X155494000Y-99180000D03*
X150795000Y-99417000D03*
%TO.N,/FPGA connector/mon_busy*%
X175179000Y-173077000D03*
X160574000Y-172950000D03*
X175625000Y-162000000D03*
%TO.N,/FPGA connector/mon_sclk*%
X166075000Y-167000000D03*
%TO.N,/DCCT ADCs/dcct_busy*%
X146223000Y-98147000D03*
X156500000Y-170475000D03*
X165225000Y-170125000D03*
%TO.N,/FPGA connector/dout0*%
X144925001Y-172750000D03*
%TO.N,/Monitor ADCs/monitor_ignd+*%
X167045000Y-118675000D03*
%TO.N,/Monitor ADCs/monitor_ignd-*%
X170445000Y-118675000D03*
%TO.N,/DAC/dac_vout-*%
X164400000Y-51050000D03*
%TO.N,/Monitor ADCs/monitor_spare+*%
X160110000Y-118633150D03*
%TO.N,/Monitor ADCs/monitor_spare-*%
X163510000Y-118633150D03*
%TO.N,/Monitor ADCs/monitor_vout+*%
X161209197Y-110999155D03*
%TO.N,/Monitor ADCs/monitor_vout-*%
X161971000Y-111101000D03*
%TO.N,Net-(U12-BUF_INP)*%
X163368000Y-107225000D03*
X172081500Y-106825000D03*
%TO.N,+5.3VA*%
X149820549Y-62724501D03*
X147534549Y-74281501D03*
X157780000Y-74263000D03*
X160066000Y-62706000D03*
X147788549Y-85584501D03*
X165225000Y-46325000D03*
X156002000Y-86582000D03*
X145461000Y-86735501D03*
X147800000Y-104000000D03*
X158034000Y-85566000D03*
X166000000Y-46350000D03*
%TO.N,-5.3VA*%
X152700000Y-78200000D03*
X158034000Y-86709000D03*
X169225000Y-46375000D03*
X143216549Y-62724501D03*
X148128000Y-86735501D03*
X142794000Y-78218501D03*
X153462000Y-62706000D03*
X168450000Y-46350000D03*
%TO.N,+2.5V*%
X148001000Y-92781952D03*
X170000000Y-181200000D03*
X170800000Y-181200000D03*
X171600000Y-181200000D03*
X158288000Y-92805000D03*
%TO.N,+1.8V*%
X153700000Y-171300000D03*
X158288000Y-97758000D03*
X143900000Y-171550000D03*
X150800000Y-181150000D03*
X150000000Y-181100000D03*
X151600000Y-181000000D03*
X149017000Y-97893000D03*
%TO.N,/DCCT ADCs/dcct1-*%
X170850000Y-50925000D03*
%TO.N,/DCCT ADCs/dcct1+*%
X170000000Y-47625000D03*
%TO.N,/DCCT ADCs/DCCT Channel 1/drv_vref*%
X145842000Y-84939000D03*
X152065000Y-84558000D03*
X156129000Y-84939000D03*
%TO.N,Net-(U39-VISO)*%
X143240000Y-159400000D03*
%TO.N,Net-(U42-VISO)*%
X150160000Y-159530000D03*
%TO.N,/DCCT ADCs/dcct0-*%
X167650000Y-47700000D03*
%TO.N,/DCCT ADCs/dcct0+*%
X166825000Y-47625000D03*
%TO.N,/DCCT ADCs/dcct1_sdo*%
X158161000Y-99163000D03*
X161250000Y-167775000D03*
X166510000Y-167775000D03*
%TO.N,/DCCT ADCs/dcct0_sdo*%
X166625000Y-169725000D03*
X147747000Y-98401000D03*
X158900000Y-169125000D03*
%TO.N,Net-(U38-B4Y)*%
X145750000Y-153050000D03*
X147250000Y-169300000D03*
%TO.N,Net-(U38-B3Y)*%
X146550000Y-168500000D03*
X144450000Y-153200000D03*
%TO.N,Net-(U41-A3)*%
X151400000Y-153050000D03*
X151000000Y-168300000D03*
%TO.N,Net-(U41-A4)*%
X150100000Y-169000000D03*
X152750000Y-153200000D03*
%TO.N,Net-(C110-Pad2)*%
X161209000Y-69564000D03*
X153589000Y-69564000D03*
%TO.N,Net-(C111-Pad2)*%
X149820549Y-69582501D03*
X150582549Y-75678501D03*
%TO.N,Net-(C112-Pad2)*%
X160828000Y-75660000D03*
X160066000Y-69564000D03*
%TO.N,Net-(D8-COM)*%
X147153549Y-66280501D03*
%TO.N,Net-(D9-COM)*%
X157399000Y-66262000D03*
%TO.N,Net-(C135-Pad2)*%
X153335000Y-101830000D03*
%TO.N,Net-(U22-+)*%
X155621000Y-101197000D03*
X152319000Y-104243000D03*
%TO.N,/DAC/dac_vout+*%
X163600000Y-51075000D03*
%TO.N,/DCCT ADCs/adc_vref*%
X145461000Y-92686000D03*
X155494000Y-93041000D03*
X153335000Y-94337000D03*
%TO.N,Net-(J2-Pad59)*%
X166797000Y-183872000D03*
%TO.N,Net-(J2-Pad57)*%
X165019000Y-183745000D03*
%TD*%
D29*
%TO.N,GND*%
X150328549Y-87997501D02*
X150328549Y-87362501D01*
X142226600Y-159826600D02*
X142200000Y-159800000D01*
X155367000Y-117811000D02*
X155367000Y-117041999D01*
X156764000Y-76676000D02*
X156891000Y-76803000D01*
D30*
X155450000Y-169750000D02*
X155450000Y-169050000D01*
D29*
X144331549Y-77710501D02*
X145502549Y-77710501D01*
X154800000Y-179200000D02*
X154800000Y-180700000D01*
X177800000Y-134335000D02*
X177800000Y-135200000D01*
X149480000Y-103900000D02*
X149480000Y-103120000D01*
X161209000Y-106120000D02*
X161209000Y-106783000D01*
X153115000Y-139848150D02*
X152865000Y-140098150D01*
X142734549Y-88785501D02*
X142708549Y-88759501D01*
X171475000Y-88175000D02*
X171450000Y-88150000D01*
X155139000Y-79089000D02*
X155367000Y-79089000D01*
X150554000Y-96763000D02*
X150795000Y-97004000D01*
X148250000Y-160600000D02*
X148277750Y-160627750D01*
X159784000Y-97921000D02*
X159784000Y-97021999D01*
X158850000Y-179200000D02*
X158850000Y-180750000D01*
X174600000Y-152425000D02*
X175625000Y-152425000D01*
X152674000Y-92686000D02*
X152674000Y-93601000D01*
X167081500Y-65525000D02*
X167081500Y-64525000D01*
X149878000Y-97040500D02*
X150758500Y-97040500D01*
X168200000Y-113062000D02*
X167488000Y-113062000D01*
X160400000Y-179200000D02*
X160400000Y-180750000D01*
X160010000Y-65526000D02*
X160236000Y-65300000D01*
X176855000Y-94725000D02*
X177800000Y-94725000D01*
X174865000Y-132195000D02*
X175235000Y-132565000D01*
X172606500Y-59200000D02*
X172581500Y-59225000D01*
X171575000Y-49475000D02*
X171575000Y-47625000D01*
X154800000Y-49600000D02*
X154800000Y-47750000D01*
X170680000Y-128750000D02*
X171980000Y-128750000D01*
X169200000Y-174800000D02*
X169200000Y-176650000D01*
X149262500Y-160627750D02*
X148277750Y-160627750D01*
X154800000Y-44800000D02*
X154800000Y-46575000D01*
X167460000Y-93448000D02*
X166670000Y-93448000D01*
X146870000Y-156370000D02*
X147080000Y-156580000D01*
X170825000Y-99825000D02*
X170850000Y-99850000D01*
X153293494Y-65300000D02*
X152108000Y-65300000D01*
X149369000Y-101449000D02*
X149369000Y-102969000D01*
X152801000Y-106783000D02*
X152700000Y-106884000D01*
X143696549Y-67096501D02*
X142878549Y-67096501D01*
X167650000Y-179250000D02*
X167650000Y-180800000D01*
X174865000Y-131515000D02*
X174865000Y-132195000D01*
X153115000Y-139148150D02*
X153115000Y-139848150D01*
X169775000Y-93050000D02*
X170950000Y-93050000D01*
X159625000Y-49425000D02*
X159625000Y-47575000D01*
X161200000Y-179150000D02*
X161200000Y-180700000D01*
X163745000Y-128708150D02*
X165045000Y-128708150D01*
X175206500Y-69200000D02*
X175281500Y-69125000D01*
X156445000Y-143128150D02*
X156445000Y-142298150D01*
X155683150Y-128633150D02*
X155675000Y-128625000D01*
X170825000Y-98650000D02*
X170825000Y-99825000D01*
X162800000Y-179300000D02*
X162800000Y-180850000D01*
X143048043Y-64238043D02*
X143048000Y-64238000D01*
X157225000Y-49525000D02*
X157225000Y-47675000D01*
X177785000Y-128615000D02*
X176710000Y-128615000D01*
X150758500Y-97040500D02*
X150795000Y-97004000D01*
X149426549Y-67096501D02*
X150244549Y-67096501D01*
X169601500Y-72245000D02*
X170081500Y-72725000D01*
X166800000Y-44850000D02*
X166800000Y-42800000D01*
X148600000Y-153200000D02*
X148600000Y-152400000D01*
X156383000Y-94337000D02*
X156383000Y-94591000D01*
X144893549Y-79107501D02*
X145121549Y-79107501D01*
X156425000Y-45150000D02*
X156425000Y-43100000D01*
X167015000Y-139265000D02*
X167015000Y-139965000D01*
X166880000Y-128700000D02*
X168130000Y-128700000D01*
X171450000Y-87425000D02*
X171450000Y-86325000D01*
X171600000Y-44800000D02*
X171600000Y-42750000D01*
X175506500Y-61725000D02*
X175506500Y-60700000D01*
D30*
X176335000Y-156900000D02*
X177125000Y-156900000D01*
D29*
X170885000Y-90935000D02*
X170900000Y-90950000D01*
X148400000Y-179200000D02*
X148400000Y-180950000D01*
X168400000Y-179250000D02*
X168400000Y-180800000D01*
X169306500Y-60800000D02*
X169481500Y-60625000D01*
X169275000Y-167730000D02*
X170480000Y-167730000D01*
X162000000Y-179150000D02*
X162000000Y-180700000D01*
X145842000Y-83062000D02*
X146576000Y-83062000D01*
X172606500Y-58125000D02*
X172606500Y-59200000D01*
X145121549Y-79107501D02*
X145756549Y-78472501D01*
X167925000Y-99650000D02*
X166925000Y-99650000D01*
X160350000Y-163870000D02*
X161290000Y-163870000D01*
X175801500Y-71525000D02*
X175801500Y-72505000D01*
X162000000Y-47350000D02*
X161975000Y-47325000D01*
X166800000Y-179200000D02*
X166800000Y-180750000D01*
X170360000Y-143420000D02*
X170360000Y-143260000D01*
X154224000Y-107728000D02*
X154224000Y-106783000D01*
X160080000Y-139923150D02*
X159830000Y-140173150D01*
X170360000Y-143260000D02*
X170345000Y-143245000D01*
X154800000Y-174900000D02*
X154800000Y-173250000D01*
X170021500Y-63125000D02*
X170021500Y-64085000D01*
X161200000Y-45125000D02*
X161200000Y-43075000D01*
X175781500Y-82125000D02*
X176481500Y-82125000D01*
X170885000Y-89975000D02*
X170885000Y-90935000D01*
X172004000Y-108688000D02*
X171991000Y-108701000D01*
X169415000Y-139515000D02*
X170565000Y-139515000D01*
X173085000Y-139265000D02*
X172850000Y-139500000D01*
X174005000Y-153825000D02*
X174825000Y-153825000D01*
X146235000Y-131165000D02*
X146200000Y-131200000D01*
X163600000Y-179250000D02*
X163600000Y-180800000D01*
X160910000Y-136373150D02*
X160910000Y-135343150D01*
X175065000Y-136415000D02*
X175065000Y-135610000D01*
X155367000Y-79089000D02*
X156002000Y-78454000D01*
X167845000Y-136415000D02*
X167845000Y-135385000D01*
X149200000Y-166578150D02*
X149200000Y-167550000D01*
X146518549Y-76694501D02*
X146645549Y-76821501D01*
X177475000Y-96125000D02*
X177475000Y-97300000D01*
X156450000Y-143133150D02*
X156445000Y-143128150D01*
X167015000Y-139965000D02*
X166765000Y-140215000D01*
X160262000Y-65300000D02*
X161252000Y-65300000D01*
X178100000Y-87650000D02*
X178125000Y-87625000D01*
X144994549Y-88195501D02*
X144994549Y-89013501D01*
X176585000Y-139565000D02*
X177685000Y-139565000D01*
X142220000Y-169800000D02*
X142220000Y-169020000D01*
X149030549Y-93575000D02*
X149429048Y-93575000D01*
X160100000Y-153325000D02*
X159900000Y-153525000D01*
X163600000Y-174750000D02*
X163600000Y-173100000D01*
X157018000Y-85622000D02*
X157018000Y-84804000D01*
X156764000Y-75787000D02*
X156764000Y-76676000D01*
X166506500Y-58225000D02*
X165481500Y-58225000D01*
X169200000Y-49450000D02*
X169200000Y-47600000D01*
X169401500Y-75745000D02*
X169381500Y-75725000D01*
X161290000Y-163870000D02*
X161300000Y-163880000D01*
X169306500Y-61725000D02*
X169306500Y-60800000D01*
X168400000Y-47200000D02*
X168425000Y-47175000D01*
X149200000Y-179200000D02*
X149200000Y-177600000D01*
X170000000Y-174800000D02*
X170000000Y-173150000D01*
X176121500Y-63025000D02*
X176121500Y-63865000D01*
X173201500Y-56825000D02*
X171881500Y-56825000D01*
X169401500Y-75645000D02*
X169281500Y-75525000D01*
X169981500Y-64125000D02*
X170021500Y-64085000D01*
X168650000Y-166190000D02*
X168670000Y-166210000D01*
X154224000Y-106783000D02*
X152801000Y-106783000D01*
X171600000Y-42750000D02*
X171575000Y-42725000D01*
X159600000Y-179250000D02*
X159600000Y-180800000D01*
X167488000Y-113062000D02*
X167432000Y-113006000D01*
X165200000Y-49500000D02*
X165200000Y-47650000D01*
X150250000Y-163600000D02*
X148950000Y-163600000D01*
X169675000Y-149565000D02*
X169500000Y-149390000D01*
X142220000Y-169020000D02*
X142200000Y-169000000D01*
X160574000Y-87344000D02*
X160574000Y-87979000D01*
X146235000Y-130275000D02*
X146235000Y-131165000D01*
X156129000Y-83062000D02*
X156990000Y-83062000D01*
X155625000Y-45075000D02*
X155625000Y-43025000D01*
X153910000Y-131483150D02*
X153910000Y-132113150D01*
X156990000Y-83062000D02*
X157018000Y-83034000D01*
X177565000Y-142465000D02*
X177565000Y-143345000D01*
X167810000Y-132230000D02*
X168130000Y-132550000D01*
X160720000Y-154695000D02*
X160750000Y-154725000D01*
X150016549Y-65318501D02*
X151006549Y-65318501D01*
X160400000Y-45125000D02*
X160400000Y-43075000D01*
X168650000Y-165150000D02*
X168650000Y-166190000D01*
X177925000Y-85250000D02*
X177950000Y-85225000D01*
X165100000Y-149430000D02*
X165160000Y-149370000D01*
X150595549Y-92581101D02*
X150595549Y-93445501D01*
X158895000Y-73501000D02*
X159812000Y-73501000D01*
X142290000Y-166700000D02*
X141400000Y-166700000D01*
X143048043Y-65318501D02*
X143048043Y-64238043D01*
X176121500Y-63865000D02*
X176181500Y-63925000D01*
X156780000Y-128633150D02*
X155683150Y-128633150D01*
X160841000Y-93427000D02*
X160828000Y-93440000D01*
X146945000Y-129190000D02*
X146895000Y-129140000D01*
X164725000Y-130828150D02*
X164845000Y-130708150D01*
X144191000Y-95099000D02*
X144191000Y-94490000D01*
X149764549Y-65544501D02*
X149990549Y-65318501D01*
X160100000Y-152525000D02*
X160100000Y-153325000D01*
D30*
X155480000Y-170680000D02*
X155450000Y-170650000D01*
D29*
X167101500Y-55945000D02*
X167081500Y-55925000D01*
X167810000Y-131600000D02*
X167810000Y-132230000D01*
X160574000Y-87979000D02*
X160955000Y-88360000D01*
X175206500Y-70225000D02*
X175206500Y-69200000D01*
X162480000Y-139473150D02*
X163630000Y-139473150D01*
X170000000Y-44850000D02*
X170000000Y-42800000D01*
X159672000Y-67078000D02*
X160490000Y-67078000D01*
X155240000Y-88177000D02*
X155240000Y-88995000D01*
X172681500Y-66725000D02*
X171781500Y-66725000D01*
X167101500Y-56925000D02*
X167101500Y-55945000D01*
X150595549Y-93445501D02*
X150582549Y-93458501D01*
X173935000Y-128665000D02*
X175135000Y-128665000D01*
X159340000Y-155940000D02*
X159340000Y-155120000D01*
X149429048Y-93575000D02*
X149693549Y-93839501D01*
X171660000Y-130870000D02*
X171780000Y-130750000D01*
X169401500Y-76725000D02*
X169401500Y-75745000D01*
X160841000Y-92562600D02*
X160841000Y-93427000D01*
X155600000Y-179200000D02*
X155600000Y-180750000D01*
X153942000Y-67078000D02*
X153124000Y-67078000D01*
X159939000Y-93821000D02*
X159276000Y-93821000D01*
X169200000Y-179150000D02*
X169200000Y-180700000D01*
X152400000Y-179200000D02*
X152400000Y-181050000D01*
X143250000Y-163700000D02*
X141850000Y-163700000D01*
X164725000Y-131608150D02*
X164725000Y-130828150D01*
X142190000Y-172290000D02*
X142200000Y-172300000D01*
X177565000Y-143345000D02*
X177685000Y-143465000D01*
X168400000Y-174800000D02*
X168400000Y-173150000D01*
X154800000Y-46575000D02*
X154825000Y-46600000D01*
X160080000Y-139223150D02*
X160080000Y-139923150D01*
X157130000Y-135080000D02*
X157125000Y-135075000D01*
X170781000Y-108701000D02*
X171991000Y-108701000D01*
X158025000Y-45150000D02*
X158025000Y-43100000D01*
X176710000Y-128615000D02*
X176675000Y-128650000D01*
X170875000Y-88775000D02*
X171475000Y-88175000D01*
X171660000Y-131650000D02*
X171660000Y-130870000D01*
X153945000Y-135268150D02*
X153965000Y-135248150D01*
X152674000Y-93601000D02*
X152573000Y-93702000D01*
X175065000Y-135610000D02*
X175275000Y-135400000D01*
X160910000Y-135343150D02*
X160930000Y-135323150D01*
X153945000Y-136298150D02*
X153945000Y-135268150D01*
X152980000Y-128583150D02*
X154230000Y-128583150D01*
X171450000Y-88150000D02*
X171450000Y-87425000D01*
X175801500Y-72505000D02*
X175781500Y-72525000D01*
X153970000Y-116229200D02*
X153970000Y-117451000D01*
X177305000Y-87650000D02*
X178100000Y-87650000D01*
X169675000Y-150250000D02*
X169675000Y-149565000D01*
X156383000Y-94591000D02*
X157145000Y-95353000D01*
X175506500Y-60700000D02*
X175681500Y-60525000D01*
X168400000Y-49200000D02*
X168400000Y-47200000D01*
D30*
X177125000Y-156900000D02*
X177175000Y-156900000D01*
D29*
X157125000Y-134275000D02*
X157125000Y-135075000D01*
X163625000Y-45100000D02*
X163625000Y-43050000D01*
X154577000Y-77692000D02*
X155748000Y-77692000D01*
X150554000Y-95734000D02*
X150554000Y-96763000D01*
X141850000Y-163700000D02*
X141800000Y-163650000D01*
X167845000Y-135385000D02*
X167865000Y-135365000D01*
X160875000Y-131558150D02*
X160875000Y-132188150D01*
X153970000Y-88767000D02*
X152980000Y-88767000D01*
X154000000Y-179200000D02*
X154000000Y-180850000D01*
X165100000Y-150250000D02*
X165100000Y-149430000D01*
X159945000Y-128658150D02*
X161195000Y-128658150D01*
X142190000Y-171534100D02*
X142190000Y-172290000D01*
D30*
X155480000Y-171300000D02*
X155480000Y-170680000D01*
D29*
X170800000Y-44850000D02*
X170800000Y-42800000D01*
X152980000Y-88767000D02*
X152954000Y-88741000D01*
X157200000Y-45125000D02*
X157200000Y-43075000D01*
X148649549Y-73519501D02*
X149566549Y-73519501D01*
X177925000Y-86275000D02*
X177925000Y-85250000D01*
X153200000Y-181600000D02*
X153150000Y-181650000D01*
X148110000Y-129190000D02*
X146945000Y-129190000D01*
X170345000Y-143245000D02*
X170345000Y-142415000D01*
X142921000Y-94985000D02*
X142921000Y-95861000D01*
X164425000Y-45075000D02*
X164425000Y-43025000D01*
X166025000Y-49600000D02*
X166025000Y-47750000D01*
X169401500Y-75745000D02*
X169401500Y-75645000D01*
X163410000Y-143410000D02*
X163410000Y-142373150D01*
X162000000Y-49200000D02*
X162000000Y-47350000D01*
X146576000Y-83062000D02*
X146604000Y-83034000D01*
X149500000Y-103100000D02*
X149480000Y-103120000D01*
X150922000Y-88495000D02*
X150826048Y-88495000D01*
X169464000Y-112993000D02*
X169464000Y-111609000D01*
X176356500Y-80825000D02*
X177281500Y-80825000D01*
X168806500Y-78025000D02*
X167981500Y-78025000D01*
X177800000Y-94725000D02*
X177825000Y-94750000D01*
X169601500Y-71725000D02*
X169601500Y-72245000D01*
X146772549Y-85640501D02*
X146772549Y-84822501D01*
X145950000Y-156370000D02*
X146870000Y-156370000D01*
X158000000Y-174900000D02*
X158000000Y-173250000D01*
X177800000Y-135200000D02*
X177825000Y-135225000D01*
X169006500Y-70425000D02*
X169006500Y-69400000D01*
X149369000Y-102969000D02*
X149500000Y-103100000D01*
X169006500Y-69400000D02*
X169181500Y-69225000D01*
X155515000Y-139398150D02*
X156665000Y-139398150D01*
X162800000Y-49350000D02*
X162800000Y-47500000D01*
X173281500Y-65425000D02*
X173281500Y-64425000D01*
X143724549Y-88785501D02*
X142734549Y-88785501D01*
X146518549Y-75805501D02*
X146518549Y-76694501D01*
X142226600Y-160621850D02*
X142226600Y-159826600D01*
X160875000Y-132188150D02*
X161195000Y-132508150D01*
X153200000Y-179200000D02*
X153200000Y-181600000D01*
X167600000Y-44875000D02*
X167600000Y-42825000D01*
X160714000Y-96890000D02*
X160714000Y-95734000D01*
X177475000Y-97300000D02*
X177500000Y-97325000D01*
X153970000Y-117451000D02*
X154097000Y-117578000D01*
X160720000Y-153880000D02*
X160720000Y-154695000D01*
X150826048Y-88495000D02*
X150328549Y-87997501D01*
X174085000Y-139265000D02*
X173085000Y-139265000D01*
X166506500Y-66825000D02*
X165581500Y-66825000D01*
X153910000Y-132113150D02*
X154230000Y-132433150D01*
X168425000Y-49450000D02*
X168425000Y-47600000D01*
X166320000Y-150270000D02*
X166320000Y-149390000D01*
X156450000Y-143230000D02*
X156450000Y-143133150D01*
%TO.N,-15V*%
X162000000Y-44700000D02*
X162000000Y-46300000D01*
X176345000Y-87650000D02*
X175225000Y-87650000D01*
X170556500Y-70425000D02*
X170556500Y-71720000D01*
X166815000Y-98690000D02*
X166650000Y-98525000D01*
X176375000Y-86275000D02*
X176375000Y-85200000D01*
X177081500Y-61750000D02*
X177056500Y-61725000D01*
X159915000Y-131558150D02*
X159915000Y-132538150D01*
X176756500Y-71520000D02*
X176761500Y-71525000D01*
X175225000Y-87650000D02*
X175175000Y-87700000D01*
X170561500Y-72205000D02*
X170981500Y-72625000D01*
X166850000Y-130280000D02*
X166880000Y-130250000D01*
X166885000Y-136415000D02*
X166885000Y-137585000D01*
X159950000Y-136373150D02*
X159950000Y-137543150D01*
X176345000Y-86305000D02*
X176375000Y-86275000D01*
X152985000Y-136298150D02*
X152985000Y-135368150D01*
X174806500Y-80825000D02*
X174806500Y-82110000D01*
X169235000Y-98690000D02*
X169275000Y-98650000D01*
X161650000Y-152525000D02*
X161650000Y-153850000D01*
X170856500Y-61725000D02*
X170856500Y-61900000D01*
X166850000Y-131600000D02*
X166850000Y-130280000D01*
X161680000Y-154680000D02*
X161725000Y-154725000D01*
X176781500Y-72525000D02*
X176781500Y-71545000D01*
X154843494Y-65300000D02*
X154843494Y-66257494D01*
X159915000Y-130238150D02*
X159945000Y-130208150D01*
X174806500Y-82110000D02*
X174821500Y-82125000D01*
X176781500Y-71545000D02*
X176761500Y-71525000D01*
X176345000Y-87650000D02*
X176345000Y-86305000D01*
X170981500Y-63125000D02*
X170981500Y-63925000D01*
X159950000Y-136373150D02*
X159950000Y-135443150D01*
X154843494Y-66257494D02*
X154902000Y-66316000D01*
X176756500Y-70225000D02*
X176756500Y-71520000D01*
X170556500Y-71720000D02*
X170561500Y-71725000D01*
X170981500Y-62025000D02*
X170981500Y-63125000D01*
X152950000Y-131483150D02*
X152950000Y-130163150D01*
X166850000Y-131600000D02*
X166850000Y-132580000D01*
X154902000Y-67078000D02*
X154902000Y-66316000D01*
X152950000Y-132463150D02*
X152930000Y-132483150D01*
X166885000Y-137585000D02*
X167015000Y-137715000D01*
X167925000Y-98690000D02*
X169235000Y-98690000D01*
X162800000Y-44675000D02*
X162800000Y-46275000D01*
X177081500Y-63025000D02*
X177081500Y-61750000D01*
X144598043Y-65318501D02*
X144598043Y-66275995D01*
X166850000Y-132580000D02*
X166830000Y-132600000D01*
X174105000Y-137695000D02*
X174085000Y-137715000D01*
X174105000Y-136415000D02*
X174105000Y-135355000D01*
X173905000Y-131515000D02*
X173905000Y-132545000D01*
X161680000Y-153880000D02*
X161680000Y-154680000D01*
X152985000Y-136298150D02*
X152985000Y-137468150D01*
X159950000Y-137543150D02*
X160080000Y-137673150D01*
X152950000Y-130163150D02*
X152980000Y-130133150D01*
X152985000Y-137468150D02*
X153115000Y-137598150D01*
X159915000Y-131558150D02*
X159915000Y-130238150D01*
X161650000Y-153850000D02*
X161680000Y-153880000D01*
X170856500Y-61900000D02*
X170981500Y-62025000D01*
X173905000Y-132545000D02*
X173835000Y-132615000D01*
X177081500Y-63025000D02*
X177081500Y-63925000D01*
X174105000Y-136415000D02*
X174105000Y-137695000D01*
X173935000Y-130215000D02*
X173935000Y-131485000D01*
X167925000Y-98690000D02*
X166815000Y-98690000D01*
X173935000Y-131485000D02*
X173905000Y-131515000D01*
X159915000Y-132538150D02*
X159895000Y-132558150D01*
X170981500Y-63925000D02*
X170781500Y-64125000D01*
X144656549Y-67096501D02*
X144656549Y-66334501D01*
X144598043Y-66275995D02*
X144656549Y-66334501D01*
X152950000Y-131483150D02*
X152950000Y-132463150D01*
X166885000Y-136415000D02*
X166885000Y-135485000D01*
X170561500Y-71725000D02*
X170561500Y-72205000D01*
X174100000Y-135350000D02*
X174105000Y-135355000D01*
X174821500Y-82125000D02*
X173981500Y-82125000D01*
%TO.N,+15V*%
X174231500Y-66725000D02*
X174231500Y-65435000D01*
X163765000Y-131608150D02*
X163765000Y-130278150D01*
X176605000Y-142465000D02*
X176605000Y-143435000D01*
X176605000Y-143435000D02*
X176635000Y-143465000D01*
X174241500Y-64485000D02*
X174181500Y-64425000D01*
X170361500Y-76725000D02*
X170361500Y-78020000D01*
X158712000Y-67078000D02*
X158712000Y-66062000D01*
X169915000Y-88775000D02*
X169915000Y-87440000D01*
X173050000Y-152425000D02*
X173050000Y-153820000D01*
X169415000Y-142385000D02*
X169385000Y-142415000D01*
X169385000Y-143235000D02*
X169465000Y-143315000D01*
X155515000Y-140948150D02*
X155515000Y-142268150D01*
X145350000Y-130200000D02*
X145275000Y-130275000D01*
X155485000Y-142298150D02*
X155485000Y-143118150D01*
X168241000Y-115041000D02*
X168241000Y-114063000D01*
X158712000Y-65300000D02*
X158712000Y-66062000D01*
X170700000Y-130320000D02*
X170680000Y-130300000D01*
X155144201Y-115269200D02*
X155367000Y-115491999D01*
X174241500Y-65425000D02*
X174241500Y-64485000D01*
X169415000Y-141065000D02*
X169415000Y-142385000D01*
X174161500Y-56825000D02*
X174161500Y-55845000D01*
X148466549Y-67096501D02*
X148466549Y-66080501D01*
X177800000Y-130180000D02*
X177785000Y-130165000D01*
X170700000Y-131650000D02*
X170700000Y-132570000D01*
X168031500Y-64475000D02*
X167981500Y-64425000D01*
X173050000Y-153820000D02*
X173045000Y-153825000D01*
X173045000Y-153825000D02*
X173045000Y-154670000D01*
X161082000Y-104370000D02*
X161082000Y-105033000D01*
X174156500Y-56830000D02*
X174161500Y-56825000D01*
X175925000Y-94755000D02*
X175895000Y-94725000D01*
X162480000Y-141023150D02*
X162480000Y-142343150D01*
X176605000Y-142465000D02*
X176605000Y-141135000D01*
X162480000Y-142343150D02*
X162450000Y-142373150D01*
X154351000Y-108815000D02*
X154224000Y-108688000D01*
X157125000Y-132775000D02*
X157125000Y-133315000D01*
X156800000Y-130203150D02*
X156780000Y-130183150D01*
X175925000Y-96125000D02*
X175925000Y-94755000D01*
X145350000Y-128950000D02*
X145350000Y-130200000D01*
X168056500Y-56930000D02*
X168061500Y-56925000D01*
X145275000Y-130275000D02*
X145275000Y-131100000D01*
X163795000Y-132558150D02*
X163765000Y-132528150D01*
X162450000Y-142373150D02*
X162450000Y-143193150D01*
X176605000Y-141135000D02*
X176585000Y-141115000D01*
X168041500Y-64485000D02*
X168031500Y-64475000D01*
X170361500Y-76725000D02*
X170361500Y-75745000D01*
X168200000Y-114022000D02*
X168943000Y-114022000D01*
X170361500Y-78020000D02*
X170356500Y-78025000D01*
X168056500Y-65540000D02*
X168041500Y-65525000D01*
X156833150Y-132483150D02*
X157125000Y-132775000D01*
X177800000Y-133375000D02*
X177800000Y-132575000D01*
X173045000Y-154670000D02*
X173050000Y-154675000D01*
X156800000Y-132453150D02*
X156800000Y-130203150D01*
X168056500Y-66825000D02*
X168056500Y-65540000D01*
X163765000Y-131608150D02*
X163765000Y-132528150D01*
X174231500Y-65435000D02*
X174241500Y-65425000D01*
X145275000Y-131100000D02*
X145300000Y-131125000D01*
X168041500Y-65525000D02*
X168041500Y-64485000D01*
X170361500Y-75745000D02*
X170381500Y-75725000D01*
X175895000Y-94725000D02*
X175025000Y-94725000D01*
X169915000Y-87440000D02*
X169900000Y-87425000D01*
X175025000Y-94725000D02*
X175000000Y-94750000D01*
X155515000Y-142268150D02*
X155485000Y-142298150D01*
X168056500Y-58225000D02*
X168056500Y-56930000D01*
X154351000Y-109704000D02*
X154351000Y-108815000D01*
X170700000Y-131650000D02*
X170700000Y-130320000D01*
X169385000Y-142415000D02*
X169385000Y-143235000D01*
X156830000Y-132483150D02*
X156833150Y-132483150D01*
X168943000Y-114022000D02*
X169464000Y-114543000D01*
X159625000Y-44912500D02*
X159625000Y-46512500D01*
X168061500Y-56925000D02*
X168061500Y-55845000D01*
X155485000Y-143118150D02*
X155565000Y-143198150D01*
X153970000Y-115269200D02*
X153970000Y-114276000D01*
X163765000Y-130278150D02*
X163745000Y-130258150D01*
X168061500Y-55845000D02*
X168081500Y-55825000D01*
X174156500Y-58125000D02*
X174156500Y-56830000D01*
X174181500Y-55825000D02*
X174161500Y-55845000D01*
X169225000Y-88775000D02*
X169200000Y-88750000D01*
X168241000Y-114063000D02*
X168200000Y-114022000D01*
X170730000Y-132600000D02*
X170700000Y-132570000D01*
X177800000Y-132575000D02*
X177750000Y-132525000D01*
X169915000Y-88775000D02*
X169225000Y-88775000D01*
X162450000Y-143193150D02*
X162530000Y-143273150D01*
X177800000Y-133375000D02*
X177800000Y-130180000D01*
X153970000Y-115269200D02*
X155144201Y-115269200D01*
X158800000Y-44800000D02*
X158800000Y-46400000D01*
X161082000Y-105033000D02*
X161209000Y-105160000D01*
X156830000Y-132483150D02*
X156800000Y-132453150D01*
X154224000Y-108688000D02*
X152954000Y-108688000D01*
X152954000Y-108688000D02*
X152700000Y-108434000D01*
X148466549Y-65318501D02*
X148466549Y-66080501D01*
%TO.N,+3.3V*%
X169325000Y-89975000D02*
X169175000Y-90125000D01*
X156400000Y-179150000D02*
X156400000Y-181550000D01*
X167690000Y-165150000D02*
X167690000Y-166260000D01*
X157200000Y-179100000D02*
X157200000Y-181500000D01*
X167690000Y-166260000D02*
X167675000Y-166275000D01*
X158000000Y-179200000D02*
X158000000Y-181600000D01*
X169775000Y-91500000D02*
X169775000Y-90600000D01*
X168420000Y-93448000D02*
X168420000Y-92714000D01*
X168420000Y-92714000D02*
X168448000Y-92686000D01*
X167675000Y-167535000D02*
X167870000Y-167730000D01*
X169925000Y-89975000D02*
X169925000Y-90450000D01*
X169775000Y-90600000D02*
X169925000Y-90450000D01*
X167675000Y-166275000D02*
X167675000Y-167535000D01*
X169925000Y-89975000D02*
X169325000Y-89975000D01*
D30*
%TO.N,+5.0V*%
X169675000Y-152050000D02*
X169650000Y-152075000D01*
D29*
X164400000Y-178800000D02*
X164400000Y-181200000D01*
X166320000Y-151230000D02*
X166320000Y-151640000D01*
X143250000Y-166700000D02*
X143250000Y-167850000D01*
X165200000Y-178850000D02*
X165200000Y-181250000D01*
X150160000Y-167790000D02*
X150150000Y-167800000D01*
X148650000Y-154210000D02*
X148600000Y-154160000D01*
D31*
X143180000Y-169800000D02*
X143850000Y-169800000D01*
D29*
X150160000Y-166578150D02*
X150160000Y-167790000D01*
D31*
X143850000Y-169800000D02*
X143900000Y-169850000D01*
D29*
X166000000Y-178900000D02*
X166000000Y-181300000D01*
X144990000Y-156370000D02*
X143965331Y-156370000D01*
X160260000Y-156900000D02*
X160290000Y-156930000D01*
D30*
X165100000Y-151210000D02*
X165100000Y-152050000D01*
D29*
X160350000Y-162010000D02*
X160360000Y-162000000D01*
X160350000Y-162910000D02*
X160350000Y-162010000D01*
X166320000Y-151640000D02*
X166650000Y-151970000D01*
X148650000Y-154900000D02*
X148650000Y-154210000D01*
D30*
X175375000Y-156900000D02*
X174540000Y-156900000D01*
X169675000Y-151210000D02*
X169675000Y-152050000D01*
D29*
X159340000Y-156900000D02*
X160260000Y-156900000D01*
D30*
X174540000Y-156900000D02*
X174520000Y-156880000D01*
X165100000Y-152050000D02*
X165150000Y-152100000D01*
D29*
X143965331Y-156370000D02*
X143936079Y-156399252D01*
D30*
X154490000Y-169750000D02*
X153700000Y-169750000D01*
D29*
%TO.N,Net-(C109-Pad2)*%
X147788549Y-68947501D02*
X147153549Y-69582501D01*
X150328549Y-68947501D02*
X147788549Y-68947501D01*
X147153549Y-69582501D02*
X143343549Y-69582501D01*
X150963549Y-69582501D02*
X150328549Y-68947501D01*
D30*
%TO.N,/DAC/syncn*%
X179350000Y-93793500D02*
X179350000Y-166000000D01*
X175960000Y-90100000D02*
X175960000Y-90403500D01*
X179350000Y-166000000D02*
X179200000Y-166150000D01*
D31*
X157200000Y-172650000D02*
X157175000Y-172625000D01*
D30*
X179200000Y-166150000D02*
X179200000Y-167375000D01*
X175960000Y-90403500D02*
X179350000Y-93793500D01*
D31*
X157200000Y-174800000D02*
X157200000Y-172650000D01*
D29*
%TO.N,/Isolated Digital IO/dout_iso_gnd*%
X152400000Y-44800000D02*
X152400000Y-42750000D01*
X151600000Y-44800000D02*
X151600000Y-42700000D01*
X153200000Y-44800000D02*
X153200000Y-42750000D01*
X154000000Y-44800000D02*
X154000000Y-42750000D01*
D31*
%TO.N,/Isolated Digital IO/dout0_iso*%
X143300000Y-156577761D02*
X143300000Y-140600000D01*
X141901000Y-131001000D02*
X141901000Y-130950000D01*
D30*
X148700000Y-52500000D02*
X150800000Y-50400000D01*
D31*
X143972239Y-157250000D02*
X143300000Y-156577761D01*
X145060000Y-159350000D02*
X145060000Y-157790000D01*
X145060000Y-157790000D02*
X145600000Y-157250000D01*
D30*
X150800000Y-50400000D02*
X150800000Y-49200000D01*
X141901000Y-130950000D02*
X141901000Y-52733200D01*
X141901000Y-52733200D02*
X142134200Y-52500000D01*
D31*
X142950000Y-132050000D02*
X141901000Y-131001000D01*
X142950000Y-140250000D02*
X142950000Y-132050000D01*
D30*
X142134200Y-52500000D02*
X148700000Y-52500000D01*
D31*
X145600000Y-157250000D02*
X143972239Y-157250000D01*
X143300000Y-140600000D02*
X142950000Y-140250000D01*
D30*
%TO.N,/Isolated Digital IO/dout1_iso*%
X141501000Y-52900000D02*
X141501000Y-52566100D01*
X142300000Y-132900000D02*
X142100000Y-132900000D01*
D31*
X143950000Y-133350000D02*
X143550000Y-132950000D01*
D30*
X150000000Y-50400000D02*
X150000000Y-49200000D01*
X141500000Y-52901000D02*
X141501000Y-52900000D01*
D31*
X145800000Y-133350000D02*
X143950000Y-133350000D01*
D30*
X141500000Y-132300000D02*
X141500000Y-52901000D01*
X148300000Y-52100000D02*
X150000000Y-50400000D01*
X141967100Y-52100000D02*
X148300000Y-52100000D01*
X142100000Y-132900000D02*
X141500000Y-132300000D01*
X141501000Y-52566100D02*
X141967100Y-52100000D01*
%TO.N,/Isolated Digital IO/dout2_iso*%
X141100000Y-135150000D02*
X141100000Y-52400000D01*
D31*
X144650000Y-136100000D02*
X144650000Y-140700000D01*
X144650000Y-140700000D02*
X146198200Y-142248200D01*
D30*
X149200000Y-50400000D02*
X149200000Y-49200000D01*
D31*
X146198200Y-142248200D02*
X146198200Y-145498200D01*
X144770000Y-147600000D02*
X146198200Y-146171800D01*
D30*
X141100000Y-52400000D02*
X141900000Y-51600000D01*
D31*
X146198200Y-146171800D02*
X146198200Y-145498200D01*
D30*
X148000000Y-51600000D02*
X149200000Y-50400000D01*
X141900000Y-51600000D02*
X148000000Y-51600000D01*
X141800000Y-135850000D02*
X141100000Y-135150000D01*
%TO.N,/Isolated Digital IO/dout3_iso*%
X140700000Y-52200000D02*
X140700000Y-53100000D01*
X148400000Y-49200000D02*
X148400000Y-50400000D01*
X140700000Y-137000000D02*
X141600000Y-137900000D01*
X147600000Y-51200000D02*
X141700000Y-51200000D01*
X147800000Y-51000000D02*
X147600000Y-51200000D01*
X140700000Y-53100000D02*
X140700000Y-137000000D01*
X141600000Y-137900000D02*
X141600000Y-137950000D01*
D31*
X147200000Y-145400000D02*
X147200000Y-142400000D01*
X145300000Y-140500000D02*
X145300000Y-138650000D01*
D30*
X148400000Y-50400000D02*
X147800000Y-51000000D01*
D31*
X147200000Y-142400000D02*
X145500000Y-140700000D01*
X145500000Y-140700000D02*
X145300000Y-140500000D01*
D30*
X141700000Y-51200000D02*
X140700000Y-52200000D01*
D29*
%TO.N,/Isolated Digital IO/din_iso_gnd*%
X150000000Y-44800000D02*
X150000000Y-47100000D01*
X148400000Y-44800000D02*
X148400000Y-47100000D01*
X150800000Y-47050000D02*
X150850000Y-47100000D01*
X150800000Y-44800000D02*
X150800000Y-47050000D01*
X141050000Y-162450000D02*
X141050000Y-164200000D01*
X149200000Y-47050000D02*
X149250000Y-47100000D01*
X141450000Y-164600000D02*
X152200000Y-164600000D01*
X141050000Y-164200000D02*
X141450000Y-164600000D01*
X152200000Y-164600000D02*
X154050000Y-162750000D01*
X149200000Y-44800000D02*
X149200000Y-47050000D01*
D31*
%TO.N,/Isolated Digital IO/din1_iso*%
X148550000Y-144160000D02*
X155449000Y-151059000D01*
X155449000Y-151059000D02*
X155449000Y-151349001D01*
X148550000Y-141850000D02*
X148550000Y-144160000D01*
X155449000Y-151349001D02*
X155561700Y-151461701D01*
X148175000Y-141475000D02*
X148550000Y-141850000D01*
X148175000Y-134150000D02*
X148175000Y-141475000D01*
X155561700Y-151461701D02*
X155561700Y-159650000D01*
D30*
X153175000Y-49175000D02*
X153200000Y-49200000D01*
X153175000Y-47650000D02*
X153175000Y-49175000D01*
%TO.N,/Isolated Digital IO/din0_iso*%
X153974528Y-49174528D02*
X154000000Y-49200000D01*
X153974528Y-47677570D02*
X153974528Y-49174528D01*
D31*
%TO.N,/Isolated Digital IO/din3_iso*%
X148950000Y-143764588D02*
X153335412Y-148150000D01*
D30*
X151627245Y-47729199D02*
X151627245Y-49172755D01*
D31*
X148950000Y-140950000D02*
X148950000Y-143764588D01*
D30*
X151627245Y-49172755D02*
X151600000Y-49200000D01*
D31*
X148750000Y-140750000D02*
X148950000Y-140950000D01*
X153335412Y-148150000D02*
X155550000Y-148150000D01*
X148750000Y-137075505D02*
X148750000Y-140750000D01*
D30*
%TO.N,/Isolated Digital IO/din2_iso*%
X152374220Y-47442784D02*
X152374220Y-49174220D01*
D31*
X149350000Y-135900000D02*
X149100000Y-135650000D01*
X152135412Y-146200000D02*
X149350000Y-143414588D01*
X152200000Y-146200000D02*
X152135412Y-146200000D01*
D30*
X152374220Y-49174220D02*
X152400000Y-49200000D01*
D31*
X149350000Y-143414588D02*
X149350000Y-135900000D01*
D30*
%TO.N,/DAC/sclk*%
X175056500Y-90750000D02*
X175356443Y-90750000D01*
X175356443Y-90750000D02*
X178912000Y-94305557D01*
X178912000Y-94305557D02*
X178912000Y-165063000D01*
X178400000Y-168925000D02*
X178400000Y-168975000D01*
X178400000Y-165575000D02*
X178400000Y-168925000D01*
D31*
X155600000Y-174800000D02*
X155600000Y-172275000D01*
D30*
X178912000Y-165063000D02*
X178400000Y-165575000D01*
D31*
%TO.N,/DAC/sdin*%
X175381500Y-91625000D02*
X175514588Y-91625000D01*
X156400000Y-171500000D02*
X156450000Y-171450000D01*
X156400000Y-174800000D02*
X156400000Y-171500000D01*
X178536000Y-94646412D02*
X178536000Y-164139000D01*
X177675000Y-165000000D02*
X177675000Y-170175000D01*
D30*
X175381500Y-91625000D02*
X175549943Y-91625000D01*
D31*
X175514588Y-91625000D02*
X178536000Y-94646412D01*
X178536000Y-164139000D02*
X177675000Y-165000000D01*
D30*
%TO.N,/FPGA connector/dout1*%
X149200000Y-174800000D02*
X149200000Y-173600000D01*
X145800000Y-173150000D02*
X145650000Y-173300000D01*
X149200000Y-173600000D02*
X148750000Y-173150000D01*
X148750000Y-173150000D02*
X145800000Y-173150000D01*
D31*
%TO.N,/FPGA connector/din3*%
X154000000Y-174800000D02*
X154000000Y-177500000D01*
X154000000Y-177500000D02*
X154100000Y-177600000D01*
D30*
%TO.N,/FPGA connector/dout3*%
X149000000Y-171500000D02*
X147400000Y-171500000D01*
X150800000Y-174800000D02*
X150800000Y-173300000D01*
X150800000Y-173300000D02*
X149000000Y-171500000D01*
D31*
%TO.N,/FPGA connector/mon_reset*%
X161826000Y-167186000D02*
X159125000Y-164485000D01*
X161826000Y-168013588D02*
X161826000Y-167186000D01*
X158800000Y-174800000D02*
X158800000Y-171039588D01*
X159125000Y-160475000D02*
X159725000Y-159875000D01*
X160275000Y-159875000D02*
X160325000Y-159875000D01*
X159125000Y-164485000D02*
X159125000Y-160475000D01*
X159725000Y-159875000D02*
X160275000Y-159875000D01*
X158800000Y-171039588D02*
X161826000Y-168013588D01*
%TO.N,/FPGA connector/din1*%
X152400000Y-173000000D02*
X152400000Y-174800000D01*
X152350000Y-172950000D02*
X152400000Y-173000000D01*
X152350000Y-172900000D02*
X152350000Y-172950000D01*
%TO.N,/FPGA connector/mon_fs*%
X162275000Y-166935000D02*
X162275000Y-168250000D01*
X159525000Y-164185000D02*
X162275000Y-166935000D01*
X159710000Y-161370000D02*
X159710000Y-162056003D01*
X162275000Y-168250000D02*
X161200000Y-169325000D01*
X161200000Y-169325000D02*
X161200000Y-174800000D01*
X159525000Y-162241003D02*
X159525000Y-164185000D01*
X159710000Y-162056003D02*
X159525000Y-162241003D01*
D30*
%TO.N,/FPGA connector/dout2*%
X150000000Y-173700000D02*
X150000000Y-174800000D01*
X148850000Y-172550000D02*
X150000000Y-173700000D01*
X146250000Y-172550000D02*
X148850000Y-172550000D01*
D31*
%TO.N,/FPGA connector/din0*%
X151600000Y-174800000D02*
X151600000Y-176150000D01*
X151875000Y-176425000D02*
X151900000Y-176450000D01*
X151600000Y-176150000D02*
X151875000Y-176425000D01*
%TO.N,/FPGA connector/mon_convert*%
X176575000Y-166100000D02*
X176575000Y-160675000D01*
X176575000Y-166100000D02*
X176575000Y-172175000D01*
X176575000Y-160675000D02*
X175375000Y-159475000D01*
X176575000Y-172175000D02*
X176275000Y-172475000D01*
X159600000Y-172550000D02*
X159525000Y-172475000D01*
X159600000Y-174800000D02*
X159600000Y-172550000D01*
%TO.N,/DCCT ADCs/dcct_sck*%
X150160000Y-98892000D02*
X150270000Y-98782000D01*
X158175000Y-164950000D02*
X158175000Y-118380784D01*
X157636000Y-99380463D02*
X157636000Y-98945537D01*
X157636000Y-98945537D02*
X157662768Y-98918768D01*
X154732000Y-98655000D02*
X157399000Y-98655000D01*
X166000000Y-174800000D02*
X166000000Y-168525000D01*
X166000000Y-168525000D02*
X165950000Y-168475000D01*
X157662768Y-98918768D02*
X157399000Y-98655000D01*
X157780000Y-117985784D02*
X157780000Y-99524463D01*
X150270000Y-98782000D02*
X154605000Y-98782000D01*
X154605000Y-98782000D02*
X154732000Y-98655000D01*
X160525000Y-168350000D02*
X160525000Y-168375000D01*
X158175000Y-118380784D02*
X157780000Y-117985784D01*
X157780000Y-99524463D02*
X157636000Y-99380463D01*
X160525000Y-167300000D02*
X158175000Y-164950000D01*
X160525000Y-168350000D02*
X160525000Y-167300000D01*
%TO.N,/FPGA connector/mon_sdo*%
X162000000Y-174800000D02*
X162000000Y-173075000D01*
X164175000Y-167150000D02*
X164175000Y-166475000D01*
X162000000Y-169325000D02*
X164175000Y-167150000D01*
X162000000Y-173075000D02*
X162000000Y-169325000D01*
%TO.N,/FPGA connector/din2*%
X153200000Y-174800000D02*
X153200000Y-176200000D01*
X153200000Y-176200000D02*
X153250000Y-176250000D01*
%TO.N,/DCCT ADCs/dcct_cnv*%
X154648264Y-99163000D02*
X155477000Y-99163000D01*
X156256000Y-99942000D02*
X155494000Y-99180000D01*
X156256000Y-105513000D02*
X156256000Y-99942000D01*
X154619264Y-99192000D02*
X154648264Y-99163000D01*
X151020000Y-99192000D02*
X154619264Y-99192000D01*
X157825000Y-119023562D02*
X157825000Y-165575000D01*
X159750000Y-167500000D02*
X159750000Y-168975000D01*
X155477000Y-99163000D02*
X155494000Y-99180000D01*
X150795000Y-99417000D02*
X151020000Y-99192000D01*
X157825000Y-165575000D02*
X159750000Y-167500000D01*
X159750000Y-168975000D02*
X159750000Y-169025000D01*
X164400000Y-169100000D02*
X164400000Y-174800000D01*
X155494000Y-106275000D02*
X155494000Y-113895000D01*
X155494000Y-113895000D02*
X156381219Y-114782219D01*
X156256000Y-105513000D02*
X155494000Y-106275000D01*
X156381219Y-117579781D02*
X157825000Y-119023562D01*
X156381219Y-114782219D02*
X156381219Y-117579781D01*
X164275000Y-168975000D02*
X164400000Y-169100000D01*
%TO.N,/FPGA connector/mon_busy*%
X175175000Y-167075000D02*
X175900000Y-166350000D01*
X175175000Y-173039588D02*
X175175000Y-167075000D01*
X160400000Y-174800000D02*
X160400000Y-173124000D01*
X175900000Y-166350000D02*
X175900000Y-162275000D01*
X175900000Y-162275000D02*
X175625000Y-162000000D01*
X160400000Y-173124000D02*
X160574000Y-172950000D01*
D30*
%TO.N,/FPGA connector/mon_sclk*%
X165049057Y-167351000D02*
X162800000Y-169600057D01*
X162800000Y-169600057D02*
X162800000Y-172925000D01*
X166075000Y-167000000D02*
X165724000Y-167351000D01*
X165724000Y-167351000D02*
X165049057Y-167351000D01*
X162800000Y-174800000D02*
X162800000Y-172925000D01*
D31*
%TO.N,/DCCT ADCs/dcct_busy*%
X151430000Y-114149000D02*
X150541000Y-115038000D01*
X156137700Y-159411412D02*
X156137700Y-159888588D01*
X156100000Y-147885412D02*
X156126000Y-147911412D01*
X165250000Y-170150000D02*
X165250000Y-170475000D01*
X150541000Y-127101463D02*
X150541000Y-140316000D01*
X150825000Y-126382537D02*
X150825000Y-126817463D01*
X151003000Y-100938264D02*
X151003000Y-106272264D01*
X150541000Y-126098537D02*
X150825000Y-126382537D01*
X156100000Y-159373712D02*
X156137700Y-159411412D01*
X149419736Y-99844000D02*
X149908736Y-99844000D01*
X156126000Y-148388588D02*
X155800000Y-148714588D01*
X151430000Y-106699264D02*
X151430000Y-114149000D01*
X156100000Y-170075000D02*
X156500000Y-170475000D01*
X148992736Y-99417000D02*
X149419736Y-99844000D01*
X150541000Y-140316000D02*
X156550000Y-146325000D01*
X155800000Y-148714588D02*
X155800000Y-151203612D01*
X156100000Y-159926288D02*
X156100000Y-170075000D01*
X155800000Y-151203612D02*
X156100000Y-151503612D01*
X149908736Y-99844000D02*
X151003000Y-100938264D01*
X165225000Y-170125000D02*
X165250000Y-170150000D01*
X165250000Y-170475000D02*
X165200000Y-170525000D01*
X147493000Y-99417000D02*
X148992736Y-99417000D01*
X151003000Y-106272264D02*
X151430000Y-106699264D01*
X150541000Y-115038000D02*
X150541000Y-126098537D01*
X156137700Y-159888588D02*
X156100000Y-159926288D01*
X156100000Y-146775000D02*
X156100000Y-147885412D01*
X150825000Y-126817463D02*
X150541000Y-127101463D01*
X156126000Y-147911412D02*
X156126000Y-148388588D01*
X156550000Y-146325000D02*
X156100000Y-146775000D01*
X156100000Y-151503612D02*
X156100000Y-159373712D01*
X165200000Y-170525000D02*
X165200000Y-174800000D01*
X146223000Y-98147000D02*
X147493000Y-99417000D01*
D30*
%TO.N,/FPGA connector/dout0*%
X145800000Y-174800000D02*
X148400000Y-174800000D01*
X144950000Y-173950000D02*
X145800000Y-174800000D01*
X144925001Y-172925001D02*
X144950000Y-172950000D01*
X144925001Y-172750000D02*
X144925001Y-172925001D01*
X144950000Y-172950000D02*
X144950000Y-173950000D01*
%TO.N,/Monitor ADCs/monitor_ignd+*%
X160574000Y-52575000D02*
X159731802Y-52575000D01*
X159812000Y-103100000D02*
X162860000Y-100052000D01*
X167045000Y-118675000D02*
X166982900Y-118675000D01*
X162860000Y-100052000D02*
X162860000Y-54861000D01*
X159812000Y-111504100D02*
X159812000Y-103100000D01*
X158000000Y-49950000D02*
X158000000Y-49200000D01*
X162860000Y-54861000D02*
X160574000Y-52575000D01*
X159731802Y-52575000D02*
X158175000Y-51018198D01*
X158175000Y-51018198D02*
X158175000Y-50125000D01*
X166982900Y-118675000D02*
X159812000Y-111504100D01*
X158175000Y-50125000D02*
X158000000Y-49950000D01*
%TO.N,/Monitor ADCs/monitor_ignd-*%
X170445000Y-118675000D02*
X168795000Y-117025000D01*
X158800000Y-49950000D02*
X158800000Y-49200000D01*
X163210000Y-54634000D02*
X160701000Y-52125000D01*
X160701000Y-52125000D02*
X159918198Y-52125000D01*
X160193000Y-103354000D02*
X163210000Y-100337000D01*
X160193000Y-111318000D02*
X160193000Y-103354000D01*
X168795000Y-117025000D02*
X165900000Y-117025000D01*
X159918198Y-52125000D02*
X158625000Y-50831802D01*
X158625000Y-50831802D02*
X158625000Y-50125000D01*
X163210000Y-100337000D02*
X163210000Y-54634000D01*
X158625000Y-50125000D02*
X158800000Y-49950000D01*
X165900000Y-117025000D02*
X160193000Y-111318000D01*
D29*
%TO.N,/DAC/dac_vout-*%
X164400000Y-49200000D02*
X164400000Y-51050000D01*
D30*
%TO.N,/Monitor ADCs/monitor_spare+*%
X160954950Y-118620050D02*
X160954950Y-117897050D01*
X160954950Y-117897050D02*
X158724000Y-115666100D01*
X161971000Y-55837000D02*
X159685000Y-53551000D01*
X160110000Y-118633150D02*
X160941850Y-118633150D01*
X158725000Y-114625000D02*
X158725000Y-102790000D01*
X155775000Y-51718198D02*
X155775000Y-50875001D01*
X158724000Y-114626000D02*
X158725000Y-114625000D01*
X159685000Y-53551000D02*
X157607802Y-53551000D01*
X161971000Y-99544000D02*
X161971000Y-55837000D01*
X157607802Y-53551000D02*
X155775000Y-51718198D01*
X160941850Y-118633150D02*
X160954950Y-118620050D01*
X158724000Y-115666100D02*
X158724000Y-114626000D01*
X158725000Y-102790000D02*
X161971000Y-99544000D01*
X155600000Y-50700001D02*
X155600000Y-49200000D01*
X155775000Y-50875001D02*
X155600000Y-50700001D01*
%TO.N,/Monitor ADCs/monitor_spare-*%
X163510000Y-118633150D02*
X162310150Y-118633150D01*
X159151000Y-102872000D02*
X162321000Y-99702000D01*
X159939000Y-53150000D02*
X157843198Y-53150000D01*
X156225000Y-50875001D02*
X156400000Y-50700001D01*
X156225000Y-51531802D02*
X156225000Y-50875001D01*
X162321000Y-55532000D02*
X159939000Y-53150000D01*
X162321000Y-99702000D02*
X162321000Y-55532000D01*
X162310150Y-118633150D02*
X159151000Y-115474000D01*
X157843198Y-53150000D02*
X156225000Y-51531802D01*
X156400000Y-50700001D02*
X156400000Y-49200000D01*
X159151000Y-115474000D02*
X159151000Y-102872000D01*
%TO.N,/Monitor ADCs/monitor_vout+*%
X160400000Y-51110000D02*
X163780000Y-54490000D01*
X163780000Y-54490000D02*
X163780000Y-100910000D01*
X162352000Y-102338000D02*
X162352000Y-109856352D01*
X163780000Y-100910000D02*
X162352000Y-102338000D01*
X162352000Y-109856352D02*
X161209197Y-110999155D01*
X161209197Y-110999155D02*
X161082000Y-110871958D01*
X160400000Y-49200000D02*
X160400000Y-51110000D01*
%TO.N,/Monitor ADCs/monitor_vout-*%
X161250000Y-49250000D02*
X161200000Y-49200000D01*
X161971000Y-110847000D02*
X162733000Y-110085000D01*
X164130000Y-101195000D02*
X164130000Y-54332000D01*
X161200000Y-51402000D02*
X161200000Y-49200000D01*
X161971000Y-111101000D02*
X161971000Y-110847000D01*
X164130000Y-54332000D02*
X161200000Y-51402000D01*
X162733000Y-102592000D02*
X164130000Y-101195000D01*
X162733000Y-110085000D02*
X162733000Y-102592000D01*
D29*
%TO.N,Net-(U12-BUF_INP)*%
X172081500Y-106825000D02*
X171681500Y-107225000D01*
X171681500Y-107225000D02*
X163368000Y-107225000D01*
X163368000Y-107225000D02*
X163307000Y-107225000D01*
X172056500Y-106850000D02*
X172081500Y-106825000D01*
%TO.N,+5.3VA*%
X155240000Y-87217000D02*
X153970000Y-87217000D01*
X159987500Y-62784500D02*
X160066000Y-62706000D01*
X149742049Y-62803001D02*
X149820549Y-62724501D01*
X155748000Y-87217000D02*
X155240000Y-87217000D01*
X147900000Y-103900000D02*
X147800000Y-104000000D01*
X144994549Y-87201952D02*
X144994549Y-87235501D01*
X145461000Y-86735501D02*
X144994549Y-87201952D01*
X147595549Y-62803001D02*
X149742049Y-62803001D01*
X146544549Y-74281501D02*
X146518549Y-74255501D01*
X147534549Y-74281501D02*
X146544549Y-74281501D01*
X166000000Y-44750000D02*
X166000000Y-46350000D01*
X165225000Y-44725000D02*
X165225000Y-46325000D01*
X157780000Y-74263000D02*
X156790000Y-74263000D01*
X148520000Y-103900000D02*
X147900000Y-103900000D01*
X157780000Y-74263000D02*
X157780000Y-73656000D01*
X147534549Y-73674501D02*
X147689549Y-73519501D01*
X147534549Y-74281501D02*
X147534549Y-73674501D01*
X156790000Y-74263000D02*
X156764000Y-74237000D01*
X157780000Y-73656000D02*
X157935000Y-73501000D01*
X156002000Y-86963000D02*
X155748000Y-87217000D01*
X157841000Y-62784500D02*
X159987500Y-62784500D01*
X144994549Y-87235501D02*
X143724549Y-87235501D01*
X156002000Y-86582000D02*
X156002000Y-86963000D01*
%TO.N,-5.3VA*%
X153208000Y-77692000D02*
X152700000Y-78200000D01*
X148042549Y-87362501D02*
X149045549Y-87362501D01*
X145695549Y-62803001D02*
X143295049Y-62803001D01*
X168450000Y-44750000D02*
X168450000Y-46350000D01*
X143343549Y-77738501D02*
X143371549Y-77710501D01*
X153589000Y-79089000D02*
X153589000Y-77720000D01*
X146899549Y-86727501D02*
X146772549Y-86600501D01*
X148128000Y-86735501D02*
X148120000Y-86727501D01*
X147788549Y-87074952D02*
X147788549Y-87108501D01*
X147788549Y-87108501D02*
X148042549Y-87362501D01*
X153617000Y-77692000D02*
X153208000Y-77692000D01*
X169225000Y-44775000D02*
X169225000Y-46375000D01*
X142794000Y-78218501D02*
X142794000Y-77879050D01*
X148120000Y-86727501D02*
X146899549Y-86727501D01*
X148128000Y-86735501D02*
X147788549Y-87074952D01*
X158034000Y-87090000D02*
X158288000Y-87344000D01*
X143295049Y-62803001D02*
X143216549Y-62724501D01*
X155941000Y-62784500D02*
X153540500Y-62784500D01*
X157145000Y-86709000D02*
X157018000Y-86582000D01*
X142794000Y-77879050D02*
X142962549Y-77710501D01*
X158288000Y-87344000D02*
X159291000Y-87344000D01*
X153589000Y-77720000D02*
X153617000Y-77692000D01*
X153540500Y-62784500D02*
X153462000Y-62706000D01*
X143343549Y-79107501D02*
X143343549Y-77738501D01*
X158034000Y-86709000D02*
X158034000Y-87090000D01*
X142962549Y-77710501D02*
X143371549Y-77710501D01*
X158034000Y-86709000D02*
X157145000Y-86709000D01*
%TO.N,+2.5V*%
X148477952Y-92305000D02*
X148001000Y-92781952D01*
X159291000Y-92562600D02*
X158530400Y-92562600D01*
X170800000Y-179200000D02*
X170800000Y-181200000D01*
X158316000Y-93821000D02*
X158316000Y-92833000D01*
X148070549Y-93575000D02*
X148070549Y-92851501D01*
X171600000Y-179200000D02*
X171600000Y-181200000D01*
X170000000Y-179200000D02*
X170000000Y-181200000D01*
X149045549Y-92305000D02*
X148477952Y-92305000D01*
X148070549Y-92851501D02*
X148001000Y-92781952D01*
X158530400Y-92562600D02*
X158288000Y-92805000D01*
X158316000Y-92833000D02*
X158288000Y-92805000D01*
X148001000Y-92781952D02*
X148084098Y-92781952D01*
%TO.N,+1.8V*%
X148918000Y-97794000D02*
X149017000Y-97893000D01*
X158402000Y-97872000D02*
X158288000Y-97758000D01*
D31*
X143884100Y-171534100D02*
X143900000Y-171550000D01*
D30*
X154520000Y-171300000D02*
X153700000Y-171300000D01*
D29*
X150800000Y-179150000D02*
X150800000Y-181150000D01*
X158288000Y-97258000D02*
X158288000Y-97758000D01*
X151600000Y-179000000D02*
X151600000Y-181000000D01*
X158824000Y-97021999D02*
X158824000Y-96595000D01*
X158824000Y-97021999D02*
X158524001Y-97021999D01*
X148918000Y-97040500D02*
X148918000Y-97794000D01*
X158524001Y-97021999D02*
X158288000Y-97258000D01*
X158824000Y-96595000D02*
X159164000Y-96255000D01*
X150000000Y-179100000D02*
X150000000Y-181100000D01*
X159164000Y-96255000D02*
X159164000Y-95734000D01*
X158286001Y-97756001D02*
X158288000Y-97758000D01*
X148918000Y-97040500D02*
X148918000Y-95820000D01*
D31*
X143150000Y-171534100D02*
X143884100Y-171534100D01*
D29*
X148918000Y-95820000D02*
X149004000Y-95734000D01*
%TO.N,/DCCT ADCs/dcct1-*%
X170800000Y-50875000D02*
X170850000Y-50925000D01*
X170800000Y-49200000D02*
X170800000Y-50875000D01*
%TO.N,/DCCT ADCs/dcct1+*%
X170000000Y-49200000D02*
X170000000Y-47625000D01*
%TO.N,/DCCT ADCs/DCCT Channel 1/drv_vref*%
X145842000Y-84904521D02*
X146524020Y-84222501D01*
X156129000Y-84022000D02*
X156129000Y-84939000D01*
X156129000Y-84939000D02*
X152446000Y-84939000D01*
X146524020Y-84222501D02*
X151729501Y-84222501D01*
X152446000Y-84939000D02*
X152065000Y-84558000D01*
X145842000Y-84939000D02*
X145842000Y-84904521D01*
X145842000Y-84022000D02*
X145842000Y-84939000D01*
X151729501Y-84222501D02*
X152065000Y-84558000D01*
D31*
%TO.N,Net-(U39-VISO)*%
X143240000Y-159400000D02*
X143240000Y-160568450D01*
D29*
X143186600Y-160621850D02*
X143186600Y-162086600D01*
D31*
X143240000Y-160568450D02*
X143186600Y-160621850D01*
D29*
X143186600Y-162086600D02*
X143250000Y-162150000D01*
%TO.N,Net-(U42-VISO)*%
X150222500Y-160627750D02*
X150222500Y-162022500D01*
D30*
X150160000Y-160565250D02*
X150222500Y-160627750D01*
X150222500Y-159592500D02*
X150160000Y-159530000D01*
D29*
X150222500Y-162022500D02*
X150250000Y-162050000D01*
D30*
X150222500Y-160627750D02*
X150222500Y-159592500D01*
D29*
%TO.N,/DCCT ADCs/dcct0-*%
X167600000Y-47750000D02*
X167650000Y-47700000D01*
X167600000Y-49200000D02*
X167600000Y-47750000D01*
%TO.N,/DCCT ADCs/dcct0+*%
X166800000Y-47650000D02*
X166825000Y-47625000D01*
X166800000Y-49200000D02*
X166800000Y-47650000D01*
D31*
%TO.N,/DCCT ADCs/dcct1_sdo*%
X167600000Y-174800000D02*
X167276000Y-174476000D01*
X161250000Y-167775000D02*
X161250000Y-167300000D01*
X167276000Y-173574000D02*
X167160000Y-173574000D01*
X167160000Y-169180000D02*
X166510000Y-168530000D01*
X158161000Y-99163000D02*
X158200000Y-99202000D01*
X158200000Y-117909396D02*
X158200000Y-99202000D01*
X167160000Y-173574000D02*
X167160000Y-169180000D01*
X166510000Y-168530000D02*
X166510000Y-167775000D01*
X167276000Y-174476000D02*
X167276000Y-173574000D01*
X158550000Y-164600000D02*
X158550000Y-118259396D01*
X161250000Y-167300000D02*
X158550000Y-164600000D01*
X158550000Y-118259396D02*
X158200000Y-117909396D01*
%TO.N,/DCCT ADCs/dcct0_sdo*%
X151811000Y-115432000D02*
X151925000Y-115546000D01*
X151925000Y-115546000D02*
X151925000Y-140372738D01*
X157350000Y-166350000D02*
X158900000Y-167900000D01*
X148763000Y-98763000D02*
X149544000Y-99544000D01*
X147747000Y-98401000D02*
X148509000Y-98401000D01*
X151811000Y-106656000D02*
X151811000Y-115432000D01*
X151303000Y-100814000D02*
X151303000Y-106148000D01*
X148509000Y-98401000D02*
X148763000Y-98655000D01*
X166800000Y-174800000D02*
X166800000Y-169900000D01*
X166800000Y-169900000D02*
X166625000Y-169725000D01*
X149544000Y-99544000D02*
X150033000Y-99544000D01*
X151925000Y-140372738D02*
X157350000Y-145797738D01*
X158900000Y-167900000D02*
X158900000Y-169125000D01*
X150033000Y-99544000D02*
X151303000Y-100814000D01*
X148763000Y-98655000D02*
X148763000Y-98763000D01*
X151303000Y-106148000D02*
X151811000Y-106656000D01*
X157350000Y-145797738D02*
X157350000Y-166350000D01*
D29*
%TO.N,Net-(C110-Pad2)*%
X161209000Y-69564000D02*
X160574000Y-68929000D01*
X160574000Y-68929000D02*
X158034000Y-68929000D01*
X157399000Y-69564000D02*
X153589000Y-69564000D01*
X158034000Y-68929000D02*
X157399000Y-69564000D01*
%TO.N,Net-(C111-Pad2)*%
X150582549Y-75297501D02*
X150328549Y-75043501D01*
X150582549Y-75678501D02*
X150582549Y-75297501D01*
X150328549Y-75043501D02*
X150328549Y-70090501D01*
X150328549Y-70090501D02*
X149820549Y-69582501D01*
%TO.N,Net-(C112-Pad2)*%
X160574000Y-70072000D02*
X160066000Y-69564000D01*
X160828000Y-75279000D02*
X160574000Y-75025000D01*
X160828000Y-75660000D02*
X160828000Y-75279000D01*
X160574000Y-75025000D02*
X160574000Y-70072000D01*
%TO.N,Net-(D8-COM)*%
X147153549Y-66280501D02*
X146645549Y-65772501D01*
X146645549Y-65772501D02*
X146645549Y-64678001D01*
%TO.N,Net-(D9-COM)*%
X156891000Y-65754000D02*
X156891000Y-64659500D01*
X157399000Y-66262000D02*
X156891000Y-65754000D01*
%TO.N,Net-(C135-Pad2)*%
X152954000Y-101449000D02*
X153335000Y-101830000D01*
X152319000Y-101449000D02*
X152954000Y-101449000D01*
%TO.N,Net-(U22-+)*%
X155621000Y-101197000D02*
X155621000Y-101789529D01*
X155621000Y-101789529D02*
X153167529Y-104243000D01*
X153167529Y-104243000D02*
X152319000Y-104243000D01*
%TO.N,/DAC/dac_vout+*%
X163600000Y-49200000D02*
X163600000Y-51075000D01*
%TO.N,/DCCT ADCs/adc_vref*%
X153232499Y-94439501D02*
X147998916Y-94439501D01*
X155494000Y-93041000D02*
X155494000Y-92940000D01*
X155901000Y-93448000D02*
X156383000Y-93448000D01*
X145461000Y-92686000D02*
X144445000Y-92686000D01*
X147998916Y-94439501D02*
X146245415Y-92686000D01*
X146245415Y-92686000D02*
X145461000Y-92686000D01*
X155494000Y-92940000D02*
X155240000Y-92686000D01*
X143106000Y-93250000D02*
X142921000Y-93435000D01*
X155240000Y-92686000D02*
X154224000Y-92686000D01*
X144445000Y-92686000D02*
X144191000Y-92940000D01*
X155494000Y-93041000D02*
X155901000Y-93448000D01*
X144191000Y-93250000D02*
X143106000Y-93250000D01*
X153335000Y-94337000D02*
X153232499Y-94439501D01*
D31*
%TO.N,Net-(J2-Pad59)*%
X171242000Y-183618000D02*
X173401000Y-181459000D01*
X166797000Y-183872000D02*
X167051000Y-183618000D01*
X167051000Y-183618000D02*
X171242000Y-183618000D01*
X173401000Y-181459000D02*
X173401000Y-177522000D01*
X171600000Y-175721000D02*
X171600000Y-174800000D01*
X173401000Y-177522000D02*
X171600000Y-175721000D01*
%TO.N,Net-(J2-Pad57)*%
X172893000Y-181332000D02*
X172893000Y-177793000D01*
X171136632Y-183088368D02*
X172893000Y-181332000D01*
X165802632Y-183088368D02*
X171136632Y-183088368D01*
X165019000Y-183745000D02*
X165146000Y-183745000D01*
X165146000Y-183745000D02*
X165802632Y-183088368D01*
X172893000Y-177793000D02*
X170800000Y-175700000D01*
X170800000Y-175700000D02*
X170800000Y-174800000D01*
%TD*%
M02*
