%TF.GenerationSoftware,KiCad,Pcbnew,9.0.9-9.0.9~ubuntu22.04.1*%
%TF.CreationDate,2026-09-02T08:00:34-04:00*%
%TF.ProjectId,psc_daughter_brd,7073635f-6461-4756-9768-7465725f6272,rev?*%
%TF.SameCoordinates,Original*%
%TF.FileFunction,Copper,L1,Top*%
%TF.FilePolarity,Positive*%
%FSLAX46Y46*%
G04 Gerber Fmt 4.6, Leading zero omitted, Abs format (unit mm)*
G04 Created by KiCad (PCBNEW 9.0.9-9.0.9~ubuntu22.04.1) date 2026-09-02 08:00:34*
%MOMM*%
%LPD*%
G01*
G04 APERTURE LIST*
G04 Aperture macros list*
%AMRoundRect*
0 Rectangle with rounded corners*
0 $1 Rounding radius*
0 $2 $3 $4 $5 $6 $7 $8 $9 X,Y pos of 4 corners*
0 Add a 4 corners polygon primitive as box body*
4,1,4,$2,$3,$4,$5,$6,$7,$8,$9,$2,$3,0*
0 Add four circle primitives for the rounded corners*
1,1,$1+$1,$2,$3*
1,1,$1+$1,$4,$5*
1,1,$1+$1,$6,$7*
1,1,$1+$1,$8,$9*
0 Add four rect primitives between the rounded corners*
20,1,$1+$1,$2,$3,$4,$5,0*
20,1,$1+$1,$4,$5,$6,$7,0*
20,1,$1+$1,$6,$7,$8,$9,0*
20,1,$1+$1,$8,$9,$2,$3,0*%
G04 Aperture macros list end*
%TA.AperFunction,SMDPad,CuDef*%
%ADD10RoundRect,0.140000X0.140000X0.170000X-0.140000X0.170000X-0.140000X-0.170000X0.140000X-0.170000X0*%
%TD*%
%TA.AperFunction,SMDPad,CuDef*%
%ADD11R,0.325000X0.650000*%
%TD*%
%TA.AperFunction,SMDPad,CuDef*%
%ADD12RoundRect,0.135000X0.185000X-0.135000X0.185000X0.135000X-0.185000X0.135000X-0.185000X-0.135000X0*%
%TD*%
%TA.AperFunction,SMDPad,CuDef*%
%ADD13RoundRect,0.127000X0.228600X0.127000X-0.228600X0.127000X-0.228600X-0.127000X0.228600X-0.127000X0*%
%TD*%
%TA.AperFunction,SMDPad,CuDef*%
%ADD14RoundRect,0.190500X0.190500X0.571500X-0.190500X0.571500X-0.190500X-0.571500X0.190500X-0.571500X0*%
%TD*%
%TA.AperFunction,SMDPad,CuDef*%
%ADD15RoundRect,0.200000X0.200000X0.275000X-0.200000X0.275000X-0.200000X-0.275000X0.200000X-0.275000X0*%
%TD*%
%TA.AperFunction,SMDPad,CuDef*%
%ADD16R,0.558800X1.981200*%
%TD*%
%TA.AperFunction,SMDPad,CuDef*%
%ADD17RoundRect,0.200000X-0.200000X-0.275000X0.200000X-0.275000X0.200000X0.275000X-0.200000X0.275000X0*%
%TD*%
%TA.AperFunction,SMDPad,CuDef*%
%ADD18RoundRect,0.140000X-0.140000X-0.170000X0.140000X-0.170000X0.140000X0.170000X-0.140000X0.170000X0*%
%TD*%
%TA.AperFunction,SMDPad,CuDef*%
%ADD19RoundRect,0.190500X-0.190500X-0.571500X0.190500X-0.571500X0.190500X0.571500X-0.190500X0.571500X0*%
%TD*%
%TA.AperFunction,SMDPad,CuDef*%
%ADD20RoundRect,0.127000X-0.228600X-0.127000X0.228600X-0.127000X0.228600X0.127000X-0.228600X0.127000X0*%
%TD*%
%TA.AperFunction,SMDPad,CuDef*%
%ADD21R,0.600000X1.970000*%
%TD*%
%TA.AperFunction,SMDPad,CuDef*%
%ADD22RoundRect,0.150000X-0.150000X0.825000X-0.150000X-0.825000X0.150000X-0.825000X0.150000X0.825000X0*%
%TD*%
%TA.AperFunction,SMDPad,CuDef*%
%ADD23RoundRect,0.200000X0.275000X-0.200000X0.275000X0.200000X-0.275000X0.200000X-0.275000X-0.200000X0*%
%TD*%
%TA.AperFunction,SMDPad,CuDef*%
%ADD24RoundRect,0.135000X0.135000X0.185000X-0.135000X0.185000X-0.135000X-0.185000X0.135000X-0.185000X0*%
%TD*%
%TA.AperFunction,SMDPad,CuDef*%
%ADD25RoundRect,0.225000X0.250000X-0.225000X0.250000X0.225000X-0.250000X0.225000X-0.250000X-0.225000X0*%
%TD*%
%TA.AperFunction,SMDPad,CuDef*%
%ADD26RoundRect,0.200000X-0.275000X0.200000X-0.275000X-0.200000X0.275000X-0.200000X0.275000X0.200000X0*%
%TD*%
%TA.AperFunction,SMDPad,CuDef*%
%ADD27RoundRect,0.150000X-0.825000X-0.150000X0.825000X-0.150000X0.825000X0.150000X-0.825000X0.150000X0*%
%TD*%
%TA.AperFunction,ComponentPad*%
%ADD28C,3.600000*%
%TD*%
%TA.AperFunction,ConnectorPad*%
%ADD29C,6.400000*%
%TD*%
%TA.AperFunction,SMDPad,CuDef*%
%ADD30RoundRect,0.140000X0.170000X-0.140000X0.170000X0.140000X-0.170000X0.140000X-0.170000X-0.140000X0*%
%TD*%
%TA.AperFunction,SMDPad,CuDef*%
%ADD31RoundRect,0.222222X0.577778X-1.552778X0.577778X1.552778X-0.577778X1.552778X-0.577778X-1.552778X0*%
%TD*%
%TA.AperFunction,SMDPad,CuDef*%
%ADD32RoundRect,0.135000X-0.185000X0.135000X-0.185000X-0.135000X0.185000X-0.135000X0.185000X0.135000X0*%
%TD*%
%TA.AperFunction,SMDPad,CuDef*%
%ADD33R,0.203200X0.863600*%
%TD*%
%TA.AperFunction,SMDPad,CuDef*%
%ADD34R,0.863600X0.203200*%
%TD*%
%TA.AperFunction,SMDPad,CuDef*%
%ADD35RoundRect,0.225000X-0.225000X-0.250000X0.225000X-0.250000X0.225000X0.250000X-0.225000X0.250000X0*%
%TD*%
%TA.AperFunction,SMDPad,CuDef*%
%ADD36RoundRect,0.100000X-0.637500X-0.100000X0.637500X-0.100000X0.637500X0.100000X-0.637500X0.100000X0*%
%TD*%
%TA.AperFunction,SMDPad,CuDef*%
%ADD37R,0.609600X0.228600*%
%TD*%
%TA.AperFunction,SMDPad,CuDef*%
%ADD38RoundRect,0.140000X-0.170000X0.140000X-0.170000X-0.140000X0.170000X-0.140000X0.170000X0.140000X0*%
%TD*%
%TA.AperFunction,SMDPad,CuDef*%
%ADD39RoundRect,0.135000X-0.135000X-0.185000X0.135000X-0.185000X0.135000X0.185000X-0.135000X0.185000X0*%
%TD*%
%TA.AperFunction,SMDPad,CuDef*%
%ADD40RoundRect,0.150000X0.150000X-0.825000X0.150000X0.825000X-0.150000X0.825000X-0.150000X-0.825000X0*%
%TD*%
%TA.AperFunction,SMDPad,CuDef*%
%ADD41R,1.219200X0.457200*%
%TD*%
%TA.AperFunction,SMDPad,CuDef*%
%ADD42O,1.219200X0.457200*%
%TD*%
%TA.AperFunction,SMDPad,CuDef*%
%ADD43R,0.685800X2.717800*%
%TD*%
%TA.AperFunction,SMDPad,CuDef*%
%ADD44R,0.685800X1.701800*%
%TD*%
%TA.AperFunction,SMDPad,CuDef*%
%ADD45R,1.701800X0.685800*%
%TD*%
%TA.AperFunction,SMDPad,CuDef*%
%ADD46RoundRect,0.225000X0.225000X0.250000X-0.225000X0.250000X-0.225000X-0.250000X0.225000X-0.250000X0*%
%TD*%
%TA.AperFunction,SMDPad,CuDef*%
%ADD47RoundRect,0.075000X0.075000X-0.650000X0.075000X0.650000X-0.075000X0.650000X-0.075000X-0.650000X0*%
%TD*%
%TA.AperFunction,HeatsinkPad*%
%ADD48R,1.880000X1.680000*%
%TD*%
%TA.AperFunction,SMDPad,CuDef*%
%ADD49RoundRect,0.035000X-0.750000X-0.105000X0.750000X-0.105000X0.750000X0.105000X-0.750000X0.105000X0*%
%TD*%
%TA.AperFunction,SMDPad,CuDef*%
%ADD50RoundRect,0.035000X-0.105000X-0.750000X0.105000X-0.750000X0.105000X0.750000X-0.105000X0.750000X0*%
%TD*%
%TA.AperFunction,SMDPad,CuDef*%
%ADD51R,8.000000X8.000000*%
%TD*%
%TA.AperFunction,SMDPad,CuDef*%
%ADD52RoundRect,0.218750X0.256250X-0.218750X0.256250X0.218750X-0.256250X0.218750X-0.256250X-0.218750X0*%
%TD*%
%TA.AperFunction,SMDPad,CuDef*%
%ADD53RoundRect,0.222222X-1.552778X-0.577778X1.552778X-0.577778X1.552778X0.577778X-1.552778X0.577778X0*%
%TD*%
%TA.AperFunction,SMDPad,CuDef*%
%ADD54RoundRect,0.225000X-0.250000X0.225000X-0.250000X-0.225000X0.250000X-0.225000X0.250000X0.225000X0*%
%TD*%
%TA.AperFunction,SMDPad,CuDef*%
%ADD55R,1.524000X0.457200*%
%TD*%
%TA.AperFunction,SMDPad,CuDef*%
%ADD56R,0.229200X0.804800*%
%TD*%
%TA.AperFunction,ComponentPad*%
%ADD57C,0.500000*%
%TD*%
%TA.AperFunction,SMDPad,CuDef*%
%ADD58R,3.400001X1.800000*%
%TD*%
%TA.AperFunction,SMDPad,CuDef*%
%ADD59R,1.549400X0.609600*%
%TD*%
%TA.AperFunction,SMDPad,CuDef*%
%ADD60R,0.700000X1.500000*%
%TD*%
%TA.AperFunction,SMDPad,CuDef*%
%ADD61R,1.500000X0.700000*%
%TD*%
%TA.AperFunction,SMDPad,CuDef*%
%ADD62R,2.500000X0.700000*%
%TD*%
%TA.AperFunction,SMDPad,CuDef*%
%ADD63R,2.387600X1.498600*%
%TD*%
%TA.AperFunction,SMDPad,CuDef*%
%ADD64R,1.244600X1.498600*%
%TD*%
%TA.AperFunction,SMDPad,CuDef*%
%ADD65R,0.457200X1.219200*%
%TD*%
%TA.AperFunction,SMDPad,CuDef*%
%ADD66O,0.457200X1.219200*%
%TD*%
%TA.AperFunction,ViaPad*%
%ADD67C,0.600000*%
%TD*%
%TA.AperFunction,Conductor*%
%ADD68C,0.300000*%
%TD*%
%TA.AperFunction,Conductor*%
%ADD69C,0.200000*%
%TD*%
%TA.AperFunction,Conductor*%
%ADD70C,0.150000*%
%TD*%
G04 APERTURE END LIST*
D10*
%TO.P,C116,2*%
%TO.N,Net-(D5-A1)*%
X156303500Y-57761000D03*
%TO.P,C116,1*%
%TO.N,Net-(D5-A2)*%
X157263500Y-57761000D03*
%TD*%
D11*
%TO.P,D4,2,A2*%
%TO.N,Net-(D4-A2)*%
X146868049Y-53641800D03*
%TO.P,D4,1,A1*%
%TO.N,Net-(D4-A1)*%
X146218049Y-53641800D03*
%TD*%
D12*
%TO.P,R55,2*%
%TO.N,/DCCT ADCs/dcct0+*%
X145207000Y-53246299D03*
%TO.P,R55,1*%
%TO.N,Net-(D4-A1)*%
X145207000Y-54266299D03*
%TD*%
D10*
%TO.P,C151,2*%
%TO.N,Net-(D4-A1)*%
X146058049Y-57761000D03*
%TO.P,C151,1*%
%TO.N,Net-(D4-A2)*%
X147018049Y-57761000D03*
%TD*%
D13*
%TO.P,C35,4*%
%TO.N,GND*%
X146518049Y-56541800D03*
%TO.P,C35,3*%
X146518049Y-55170200D03*
D14*
%TO.P,C35,2*%
%TO.N,Net-(D4-A1)*%
X145502049Y-55856000D03*
%TO.P,C35,1*%
%TO.N,Net-(D4-A2)*%
X147534049Y-55856000D03*
%TD*%
D12*
%TO.P,R54,2*%
%TO.N,/DCCT ADCs/dcct0-*%
X147874000Y-53221800D03*
%TO.P,R54,1*%
%TO.N,Net-(D4-A2)*%
X147874000Y-54241800D03*
%TD*%
D15*
%TO.P,R86,1*%
%TO.N,Net-(R36-Pad1)*%
X157653000Y-59158000D03*
%TO.P,R86,2*%
%TO.N,Net-(R36-Pad2)*%
X156003000Y-59158000D03*
%TD*%
%TO.P,R85,1*%
%TO.N,Net-(R56-Pad1)*%
X147366000Y-59158000D03*
%TO.P,R85,2*%
%TO.N,Net-(R56-Pad2)*%
X145716000Y-59158000D03*
%TD*%
D16*
%TO.P,U39,1,VDD*%
%TO.N,+5.0V*%
X143240000Y-166063800D03*
%TO.P,U39,2,VIA*%
%TO.N,Net-(U38-B1Y)*%
X144510000Y-166063800D03*
%TO.P,U39,3,VIB*%
%TO.N,Net-(U38-B2Y)*%
X145780000Y-166063800D03*
%TO.P,U39,4,GND*%
%TO.N,GND*%
X147050000Y-166063800D03*
%TO.P,U39,5,GNDISO*%
%TO.N,/Isolated Digital IO/dout_iso_gnd*%
X147050000Y-161136200D03*
%TO.P,U39,6,VOB*%
%TO.N,/Isolated Digital IO/dout1_iso*%
X145780000Y-161136200D03*
%TO.P,U39,7,VOA*%
%TO.N,/Isolated Digital IO/dout0_iso*%
X144510000Y-161136200D03*
%TO.P,U39,8,VISO*%
%TO.N,Net-(U39-VISO)*%
X143240000Y-161136200D03*
%TD*%
D17*
%TO.P,R60,1*%
%TO.N,GND*%
X144890000Y-109704000D03*
%TO.P,R60,2*%
%TO.N,Net-(U35-+)*%
X146540000Y-109704000D03*
%TD*%
D18*
%TO.P,C78,1*%
%TO.N,Net-(D6-A2)*%
X161295000Y-120458150D03*
%TO.P,C78,2*%
%TO.N,Net-(D6-A1)*%
X162255000Y-120458150D03*
%TD*%
D19*
%TO.P,C107,1*%
%TO.N,Net-(D7-A2)*%
X153830000Y-122183150D03*
%TO.P,C107,2*%
%TO.N,Net-(D7-A1)*%
X155862000Y-122183150D03*
D20*
%TO.P,C107,3*%
%TO.N,GND*%
X154846000Y-122868950D03*
%TO.P,C107,4*%
X154846000Y-121497350D03*
%TD*%
D12*
%TO.P,R23,1*%
%TO.N,Net-(D6-A1)*%
X163275000Y-120468150D03*
%TO.P,R23,2*%
%TO.N,/Monitor ADCs/monitor_spare-*%
X163275000Y-119448150D03*
%TD*%
D15*
%TO.P,R36,1*%
%TO.N,Net-(R36-Pad1)*%
X157613500Y-60659000D03*
%TO.P,R36,2*%
%TO.N,Net-(R36-Pad2)*%
X155963500Y-60659000D03*
%TD*%
D21*
%TO.P,U14,1,-*%
%TO.N,Net-(D3-A1)*%
X177745000Y-126015000D03*
%TO.P,U14,2,Rg*%
%TO.N,Net-(R18-Pad1)*%
X176475000Y-126015000D03*
%TO.P,U14,3,Rg*%
%TO.N,Net-(R18-Pad2)*%
X175205000Y-126015000D03*
%TO.P,U14,4,+*%
%TO.N,Net-(D3-A2)*%
X173935000Y-126015000D03*
%TO.P,U14,5,Vs-*%
%TO.N,-15V*%
X173935000Y-130965000D03*
%TO.P,U14,6,Ref*%
%TO.N,GND*%
X175205000Y-130965000D03*
%TO.P,U14,7*%
%TO.N,Net-(R19-Pad2)*%
X176475000Y-130965000D03*
%TO.P,U14,8,Vs+*%
%TO.N,+15V*%
X177745000Y-130965000D03*
%TD*%
D22*
%TO.P,U19,1*%
%TO.N,N/C*%
X156805000Y-136848150D03*
%TO.P,U19,2,-*%
%TO.N,Net-(U19--)*%
X155535000Y-136848150D03*
%TO.P,U19,3,+*%
%TO.N,GND*%
X154265000Y-136848150D03*
%TO.P,U19,4,V-*%
%TO.N,-15V*%
X152995000Y-136848150D03*
%TO.P,U19,5*%
%TO.N,N/C*%
X152995000Y-141798150D03*
%TO.P,U19,6*%
%TO.N,Net-(C95-Pad2)*%
X154265000Y-141798150D03*
%TO.P,U19,7,V+*%
%TO.N,+15V*%
X155535000Y-141798150D03*
%TO.P,U19,8*%
%TO.N,N/C*%
X156805000Y-141798150D03*
%TD*%
D23*
%TO.P,R41,1*%
%TO.N,Net-(U8B--)*%
X161209000Y-72294000D03*
%TO.P,R41,2*%
%TO.N,Net-(C110-Pad2)*%
X161209000Y-70644000D03*
%TD*%
D24*
%TO.P,R27,1*%
%TO.N,/Monitor ADCs/monitor_spare/mon_out*%
X162330000Y-144173150D03*
%TO.P,R27,2*%
%TO.N,Net-(C85-Pad2)*%
X161310000Y-144173150D03*
%TD*%
D10*
%TO.P,C141,1*%
%TO.N,Net-(U31-IN+)*%
X157490500Y-91289000D03*
%TO.P,C141,2*%
%TO.N,Net-(U31-IN-)*%
X156530500Y-91289000D03*
%TD*%
D25*
%TO.P,C60,1*%
%TO.N,Net-(U13-REFBP)*%
X170650000Y-150930000D03*
%TO.P,C60,2*%
%TO.N,GND*%
X170650000Y-149380000D03*
%TD*%
D24*
%TO.P,R72,1*%
%TO.N,/Isolated Digital IO/din1_iso*%
X151150000Y-157250000D03*
%TO.P,R72,2*%
%TO.N,Net-(U42-VISO)*%
X150130000Y-157250000D03*
%TD*%
D12*
%TO.P,R4,1*%
%TO.N,Net-(U2--)*%
X169385000Y-134535000D03*
%TO.P,R4,2*%
%TO.N,Net-(R4-Pad2)*%
X169385000Y-133515000D03*
%TD*%
D24*
%TO.P,R21,1*%
%TO.N,/Monitor ADCs/monitor_dac/mon_out*%
X176345000Y-144365000D03*
%TO.P,R21,2*%
%TO.N,Net-(C75-Pad2)*%
X175325000Y-144365000D03*
%TD*%
D26*
%TO.P,R44,1*%
%TO.N,Net-(C112-Pad2)*%
X158161000Y-70644000D03*
%TO.P,R44,2*%
%TO.N,Net-(U8B--)*%
X158161000Y-72294000D03*
%TD*%
%TO.P,R37,1*%
%TO.N,Net-(C109-Pad2)*%
X143343549Y-70662501D03*
%TO.P,R37,2*%
%TO.N,Net-(U4A--)*%
X143343549Y-72312501D03*
%TD*%
D10*
%TO.P,C176,1*%
%TO.N,Net-(U37-IN+)*%
X147245049Y-91307501D03*
%TO.P,C176,2*%
%TO.N,Net-(U37-IN-)*%
X146285049Y-91307501D03*
%TD*%
D25*
%TO.P,C62,1*%
%TO.N,Net-(U13-REFDP)*%
X159340000Y-157835000D03*
%TO.P,C62,2*%
%TO.N,GND*%
X159340000Y-156285000D03*
%TD*%
D24*
%TO.P,R33,1*%
%TO.N,/Monitor ADCs/monitor_vout/mon_out*%
X155365000Y-144098150D03*
%TO.P,R33,2*%
%TO.N,Net-(C95-Pad2)*%
X154345000Y-144098150D03*
%TD*%
%TO.P,R71,1*%
%TO.N,/Isolated Digital IO/din2_iso*%
X151209100Y-147750001D03*
%TO.P,R71,2*%
%TO.N,Net-(U43-VISO)*%
X150189100Y-147750001D03*
%TD*%
D17*
%TO.P,R59,1*%
%TO.N,Net-(U35-+)*%
X148001000Y-109704000D03*
%TO.P,R59,2*%
%TO.N,/DCCT ADCs/adc_vref*%
X149651000Y-109704000D03*
%TD*%
D27*
%TO.P,U4,1*%
%TO.N,Net-(C109-Pad2)*%
X144170549Y-74408501D03*
%TO.P,U4,2,-*%
%TO.N,Net-(U4A--)*%
X144170549Y-75678501D03*
%TO.P,U4,3,+*%
%TO.N,GND*%
X144170549Y-76948501D03*
%TO.P,U4,4,V-*%
%TO.N,-5.3VA*%
X144170549Y-78218501D03*
%TO.P,U4,5,+*%
%TO.N,GND*%
X149120549Y-78218501D03*
%TO.P,U4,6,-*%
%TO.N,Net-(U4B--)*%
X149120549Y-76948501D03*
%TO.P,U4,7*%
%TO.N,Net-(C111-Pad2)*%
X149120549Y-75678501D03*
%TO.P,U4,8,V+*%
%TO.N,+5.3VA*%
X149120549Y-74408501D03*
%TD*%
D28*
%TO.P,MT2,1,1*%
%TO.N,GND*%
X145000000Y-187000000D03*
D29*
X145000000Y-187000000D03*
%TD*%
D30*
%TO.P,C85,1*%
%TO.N,Net-(U17--)*%
X160830000Y-134473150D03*
%TO.P,C85,2*%
%TO.N,Net-(C85-Pad2)*%
X160830000Y-133513150D03*
%TD*%
D18*
%TO.P,C50,1*%
%TO.N,Net-(U12-BUF_F)*%
X170321000Y-103125000D03*
%TO.P,C50,2*%
%TO.N,Net-(U12-BUF_S)*%
X171281000Y-103125000D03*
%TD*%
D31*
%TO.P,TP2,1,1*%
%TO.N,GND*%
X143600000Y-45100000D03*
%TD*%
D32*
%TO.P,R12,1*%
%TO.N,GND*%
X164781000Y-109380000D03*
%TO.P,R12,2*%
%TO.N,Net-(U12-HTR_ILIM)*%
X164781000Y-110400000D03*
%TD*%
%TO.P,R5,1*%
%TO.N,Net-(C8-Pad2)*%
X168385000Y-133515000D03*
%TO.P,R5,2*%
%TO.N,Net-(U2--)*%
X168385000Y-134535000D03*
%TD*%
D33*
%TO.P,U41,1,VCCA*%
%TO.N,+5.0V*%
X152863801Y-169741200D03*
%TO.P,U41,2,A1*%
%TO.N,Net-(U41-A1)*%
X152463799Y-169741200D03*
%TO.P,U41,3,A2*%
%TO.N,Net-(U41-A2)*%
X152063800Y-169741200D03*
%TO.P,U41,4,A3*%
%TO.N,Net-(U41-A3)*%
X151663801Y-169741200D03*
%TO.P,U41,5,A4*%
%TO.N,Net-(U41-A4)*%
X151263799Y-169741200D03*
D34*
%TO.P,U41,6,GND*%
%TO.N,GND*%
X151136700Y-170515900D03*
D33*
%TO.P,U41,7,B4Y*%
%TO.N,/FPGA connector/din3*%
X151263799Y-171290600D03*
%TO.P,U41,8,B3Y*%
%TO.N,/FPGA connector/din2*%
X151663801Y-171290600D03*
%TO.P,U41,9,B2Y*%
%TO.N,/FPGA connector/din1*%
X152063800Y-171290600D03*
%TO.P,U41,10,B1Y*%
%TO.N,/FPGA connector/din0*%
X152463799Y-171290600D03*
%TO.P,U41,11,VCCB*%
%TO.N,+1.8V*%
X152863801Y-171290600D03*
D34*
%TO.P,U41,12,~OE*%
%TO.N,GND*%
X152990900Y-170515900D03*
%TD*%
D27*
%TO.P,U3,1*%
%TO.N,Net-(U5-V_{REFPF})*%
X168401000Y-94720000D03*
%TO.P,U3,2,-*%
%TO.N,Net-(U3A--)*%
X168401000Y-95990000D03*
%TO.P,U3,3,+*%
%TO.N,/DAC/dac_vref*%
X168401000Y-97260000D03*
%TO.P,U3,4,V-*%
%TO.N,-15V*%
X168401000Y-98530000D03*
%TO.P,U3,5,+*%
%TO.N,GND*%
X173351000Y-98530000D03*
%TO.P,U3,6,-*%
%TO.N,Net-(U3B--)*%
X173351000Y-97260000D03*
%TO.P,U3,7*%
%TO.N,Net-(U5-V_{REFNF})*%
X173351000Y-95990000D03*
%TO.P,U3,8,V+*%
%TO.N,+15V*%
X173351000Y-94720000D03*
%TD*%
D18*
%TO.P,C88,1*%
%TO.N,Net-(D7-A2)*%
X154330000Y-120383150D03*
%TO.P,C88,2*%
%TO.N,Net-(D7-A1)*%
X155290000Y-120383150D03*
%TD*%
D30*
%TO.P,C120,1*%
%TO.N,Net-(U21-IN+)*%
X150455549Y-81774501D03*
%TO.P,C120,2*%
%TO.N,Net-(U21-OUT-)*%
X150455549Y-80814501D03*
%TD*%
D32*
%TO.P,R32,1*%
%TO.N,Net-(C95-Pad2)*%
X154865000Y-133398150D03*
%TO.P,R32,2*%
%TO.N,Net-(U19--)*%
X154865000Y-134418150D03*
%TD*%
D24*
%TO.P,R3,1*%
%TO.N,Net-(R3-Pad1)*%
X169275000Y-124025000D03*
%TO.P,R3,2*%
%TO.N,Net-(R3-Pad2)*%
X168255000Y-124025000D03*
%TD*%
D35*
%TO.P,C188,1*%
%TO.N,Net-(U40-VISO)*%
X143100000Y-143750000D03*
%TO.P,C188,2*%
%TO.N,GND*%
X144650000Y-143750000D03*
%TD*%
D25*
%TO.P,C112,1*%
%TO.N,Net-(U8B--)*%
X159685000Y-72244000D03*
%TO.P,C112,2*%
%TO.N,Net-(C112-Pad2)*%
X159685000Y-70694000D03*
%TD*%
%TO.P,C109,1*%
%TO.N,Net-(U4A--)*%
X144867549Y-72262501D03*
%TO.P,C109,2*%
%TO.N,Net-(C109-Pad2)*%
X144867549Y-70712501D03*
%TD*%
D23*
%TO.P,R78,1*%
%TO.N,Net-(U22--)*%
X154478000Y-104496000D03*
%TO.P,R78,2*%
%TO.N,GND*%
X154478000Y-102846000D03*
%TD*%
D36*
%TO.P,U5,1,INV*%
%TO.N,Net-(U5-INV)*%
X167918500Y-86200000D03*
%TO.P,U5,2,V_{OUT}*%
%TO.N,Net-(U5-V_{OUT})*%
X167918500Y-86850000D03*
%TO.P,U5,3,V_{REFPS}*%
%TO.N,Net-(U3A--)*%
X167918500Y-87500000D03*
%TO.P,U5,4,V_{REFPF}*%
%TO.N,Net-(U5-V_{REFPF})*%
X167918500Y-88150000D03*
%TO.P,U5,5,V_{DD}*%
%TO.N,+15V*%
X167918500Y-88800000D03*
%TO.P,U5,6,~{RESET}*%
%TO.N,+3.3V*%
X167918500Y-89450000D03*
%TO.P,U5,7,~{CLR}*%
X167918500Y-90100000D03*
%TO.P,U5,8,~{LDAC}*%
%TO.N,GND*%
X167918500Y-90750000D03*
%TO.P,U5,9,V_{CC}*%
%TO.N,+3.3V*%
X167918500Y-91400000D03*
%TO.P,U5,10,IOV_{CC}*%
X167918500Y-92050000D03*
%TO.P,U5,11,SDO*%
%TO.N,unconnected-(U5-SDO-Pad11)*%
X173643500Y-92050000D03*
%TO.P,U5,12,SDIN*%
%TO.N,/DAC/sdin*%
X173643500Y-91400000D03*
%TO.P,U5,13,SCLK*%
%TO.N,/DAC/sclk*%
X173643500Y-90750000D03*
%TO.P,U5,14,~{SYNC}*%
%TO.N,/DAC/syncn*%
X173643500Y-90100000D03*
%TO.P,U5,15,DGND*%
%TO.N,GND*%
X173643500Y-89450000D03*
%TO.P,U5,16,V_{REFNF}*%
%TO.N,Net-(U5-V_{REFNF})*%
X173643500Y-88800000D03*
%TO.P,U5,17,V_{REFNS}*%
%TO.N,Net-(U3B--)*%
X173643500Y-88150000D03*
%TO.P,U5,18,V_{SS}*%
%TO.N,-15V*%
X173643500Y-87500000D03*
%TO.P,U5,19,AGND*%
%TO.N,GND*%
X173643500Y-86850000D03*
%TO.P,U5,20,R_{FB}*%
%TO.N,Net-(U5-R_{FB})*%
X173643500Y-86200000D03*
%TD*%
D10*
%TO.P,C131,1*%
%TO.N,Net-(U23--)*%
X155085000Y-111355000D03*
%TO.P,C131,2*%
%TO.N,Net-(U24-+)*%
X154125000Y-111355000D03*
%TD*%
%TO.P,C140,1*%
%TO.N,GND*%
X159453500Y-91289000D03*
%TO.P,C140,2*%
%TO.N,Net-(U31-IN+)*%
X158493500Y-91289000D03*
%TD*%
D16*
%TO.P,U40,1,VDD*%
%TO.N,+5.0V*%
X143240000Y-154913800D03*
%TO.P,U40,2,VIA*%
%TO.N,Net-(U38-B3Y)*%
X144510000Y-154913800D03*
%TO.P,U40,3,VIB*%
%TO.N,Net-(U38-B4Y)*%
X145780000Y-154913800D03*
%TO.P,U40,4,GND*%
%TO.N,GND*%
X147050000Y-154913800D03*
%TO.P,U40,5,GNDISO*%
%TO.N,/Isolated Digital IO/dout_iso_gnd*%
X147050000Y-149986200D03*
%TO.P,U40,6,VOB*%
%TO.N,/Isolated Digital IO/dout3_iso*%
X145780000Y-149986200D03*
%TO.P,U40,7,VOA*%
%TO.N,/Isolated Digital IO/dout2_iso*%
X144510000Y-149986200D03*
%TO.P,U40,8,VISO*%
%TO.N,Net-(U40-VISO)*%
X143240000Y-149986200D03*
%TD*%
D23*
%TO.P,R10,1*%
%TO.N,Net-(U7--)*%
X173700997Y-54790000D03*
%TO.P,R10,2*%
%TO.N,/DAC/dac_vout-*%
X173700997Y-53140000D03*
%TD*%
D32*
%TO.P,R79,1*%
%TO.N,/DCCT ADCs/adc_vref*%
X153970000Y-100175000D03*
%TO.P,R79,2*%
%TO.N,Net-(C135-Pad2)*%
X153970000Y-101195000D03*
%TD*%
D22*
%TO.P,U2,1*%
%TO.N,N/C*%
X170705000Y-136965000D03*
%TO.P,U2,2,-*%
%TO.N,Net-(U2--)*%
X169435000Y-136965000D03*
%TO.P,U2,3,+*%
%TO.N,GND*%
X168165000Y-136965000D03*
%TO.P,U2,4,V-*%
%TO.N,-15V*%
X166895000Y-136965000D03*
%TO.P,U2,5*%
%TO.N,N/C*%
X166895000Y-141915000D03*
%TO.P,U2,6*%
%TO.N,Net-(C8-Pad2)*%
X168165000Y-141915000D03*
%TO.P,U2,7,V+*%
%TO.N,+15V*%
X169435000Y-141915000D03*
%TO.P,U2,8*%
%TO.N,N/C*%
X170705000Y-141915000D03*
%TD*%
D12*
%TO.P,R11,1*%
%TO.N,GND*%
X170800000Y-116200000D03*
%TO.P,R11,2*%
%TO.N,Net-(U12-ISET)*%
X170800000Y-115180000D03*
%TD*%
D24*
%TO.P,R50,1*%
%TO.N,Net-(C135-Pad2)*%
X157147000Y-111357000D03*
%TO.P,R50,2*%
%TO.N,Net-(U23--)*%
X156127000Y-111357000D03*
%TD*%
D26*
%TO.P,R63,1*%
%TO.N,Net-(U26-OUT+)*%
X154859000Y-80106000D03*
%TO.P,R63,2*%
%TO.N,Net-(U26-IN-)*%
X154859000Y-81756000D03*
%TD*%
D21*
%TO.P,U27,1,-*%
%TO.N,Net-(D5-A2)*%
X158673494Y-63279000D03*
%TO.P,U27,2,Rg*%
%TO.N,Net-(R36-Pad1)*%
X157403494Y-63279000D03*
%TO.P,U27,3,Rg*%
%TO.N,Net-(R36-Pad2)*%
X156133494Y-63279000D03*
%TO.P,U27,4,+*%
%TO.N,Net-(D5-A1)*%
X154863494Y-63279000D03*
%TO.P,U27,5,Vs-*%
%TO.N,-15V*%
X154863494Y-68229000D03*
%TO.P,U27,6,Ref*%
%TO.N,GND*%
X156133494Y-68229000D03*
%TO.P,U27,7*%
%TO.N,Net-(D9-COM)*%
X157403494Y-68229000D03*
%TO.P,U27,8,Vs+*%
%TO.N,+15V*%
X158673494Y-68229000D03*
%TD*%
D23*
%TO.P,R51,1*%
%TO.N,Net-(U21-IN-)*%
X146137549Y-81774501D03*
%TO.P,R51,2*%
%TO.N,GND*%
X146137549Y-80124501D03*
%TD*%
D24*
%TO.P,R66,1*%
%TO.N,/Isolated Digital IO/dout0_iso*%
X144220000Y-158450000D03*
%TO.P,R66,2*%
%TO.N,Net-(U39-VISO)*%
X143200000Y-158450000D03*
%TD*%
D26*
%TO.P,R38,1*%
%TO.N,Net-(C110-Pad2)*%
X153589000Y-70644000D03*
%TO.P,R38,2*%
%TO.N,Net-(U8A--)*%
X153589000Y-72294000D03*
%TD*%
D37*
%TO.P,CR6,1,1*%
%TO.N,/Isolated Digital IO/dout2_iso*%
X146198200Y-146550000D03*
%TO.P,CR6,2,2*%
%TO.N,/Isolated Digital IO/dout_iso_gnd*%
X146198200Y-147049999D03*
%TO.P,CR6,3,3*%
%TO.N,unconnected-(CR6-Pad3)*%
X146198200Y-147549998D03*
%TO.P,CR6,4,4*%
%TO.N,/Isolated Digital IO/dout_iso_gnd*%
X147900000Y-147549998D03*
%TO.P,CR6,5,5*%
%TO.N,/Isolated Digital IO/dout3_iso*%
X147900000Y-147049999D03*
%TO.P,CR6,6,6*%
%TO.N,unconnected-(CR6-Pad6)*%
X147900000Y-146550000D03*
%TD*%
D38*
%TO.P,C168,1*%
%TO.N,Net-(C167-Pad1)*%
X162987000Y-101195000D03*
%TO.P,C168,2*%
%TO.N,GND*%
X162987000Y-102155000D03*
%TD*%
D19*
%TO.P,C105,1*%
%TO.N,Net-(D6-A2)*%
X160795000Y-122258150D03*
%TO.P,C105,2*%
%TO.N,Net-(D6-A1)*%
X162827000Y-122258150D03*
D20*
%TO.P,C105,3*%
%TO.N,GND*%
X161811000Y-122943950D03*
%TO.P,C105,4*%
X161811000Y-121572350D03*
%TD*%
D26*
%TO.P,R47,1*%
%TO.N,Net-(U21-OUT-)*%
X149185549Y-80124501D03*
%TO.P,R47,2*%
%TO.N,Net-(U21-IN+)*%
X149185549Y-81774501D03*
%TD*%
D24*
%TO.P,R30,1*%
%TO.N,Net-(R30-Pad1)*%
X155375000Y-123908150D03*
%TO.P,R30,2*%
%TO.N,Net-(R30-Pad2)*%
X154355000Y-123908150D03*
%TD*%
D25*
%TO.P,C110,1*%
%TO.N,Net-(U8A--)*%
X155113000Y-72244000D03*
%TO.P,C110,2*%
%TO.N,Net-(C110-Pad2)*%
X155113000Y-70694000D03*
%TD*%
D10*
%TO.P,C177,1*%
%TO.N,Net-(U37-IN-)*%
X145245049Y-91307501D03*
%TO.P,C177,2*%
%TO.N,GND*%
X144285049Y-91307501D03*
%TD*%
D23*
%TO.P,R77,1*%
%TO.N,Net-(U4A--)*%
X146434549Y-72302501D03*
%TO.P,R77,2*%
%TO.N,Net-(D8-COM)*%
X146434549Y-70652501D03*
%TD*%
D24*
%TO.P,R6,1*%
%TO.N,/Monitor ADCs/monitor_ignd/mon_out*%
X169265000Y-144215000D03*
%TO.P,R6,2*%
%TO.N,Net-(C8-Pad2)*%
X168245000Y-144215000D03*
%TD*%
D30*
%TO.P,C8,1*%
%TO.N,Net-(U2--)*%
X167385000Y-134515000D03*
%TO.P,C8,2*%
%TO.N,Net-(C8-Pad2)*%
X167385000Y-133555000D03*
%TD*%
D12*
%TO.P,R1,1*%
%TO.N,Net-(D2-A2)*%
X167210000Y-120520000D03*
%TO.P,R1,2*%
%TO.N,/Monitor ADCs/monitor_ignd+*%
X167210000Y-119500000D03*
%TD*%
D38*
%TO.P,C122,1*%
%TO.N,Net-(U21-OUT+)*%
X143343549Y-80814501D03*
%TO.P,C122,2*%
%TO.N,Net-(U21-IN-)*%
X143343549Y-81774501D03*
%TD*%
D33*
%TO.P,U38,1,VCCA*%
%TO.N,+1.8V*%
X144700000Y-171400000D03*
%TO.P,U38,2,A1*%
%TO.N,/FPGA connector/dout0*%
X145100002Y-171400000D03*
%TO.P,U38,3,A2*%
%TO.N,/FPGA connector/dout1*%
X145500001Y-171400000D03*
%TO.P,U38,4,A3*%
%TO.N,/FPGA connector/dout2*%
X145900000Y-171400000D03*
%TO.P,U38,5,A4*%
%TO.N,/FPGA connector/dout3*%
X146300002Y-171400000D03*
D34*
%TO.P,U38,6,GND*%
%TO.N,GND*%
X146427101Y-170625300D03*
D33*
%TO.P,U38,7,B4Y*%
%TO.N,Net-(U38-B4Y)*%
X146300002Y-169850600D03*
%TO.P,U38,8,B3Y*%
%TO.N,Net-(U38-B3Y)*%
X145900000Y-169850600D03*
%TO.P,U38,9,B2Y*%
%TO.N,Net-(U38-B2Y)*%
X145500001Y-169850600D03*
%TO.P,U38,10,B1Y*%
%TO.N,Net-(U38-B1Y)*%
X145100002Y-169850600D03*
%TO.P,U38,11,VCCB*%
%TO.N,+5.0V*%
X144700000Y-169850600D03*
D34*
%TO.P,U38,12,~OE*%
%TO.N,GND*%
X144572901Y-170625300D03*
%TD*%
D12*
%TO.P,R29,1*%
%TO.N,Net-(D7-A1)*%
X156310000Y-120393150D03*
%TO.P,R29,2*%
%TO.N,/Monitor ADCs/monitor_vout-*%
X156310000Y-119373150D03*
%TD*%
D24*
%TO.P,R64,1*%
%TO.N,Net-(U37-IN+)*%
X148300549Y-90273801D03*
%TO.P,R64,2*%
%TO.N,Net-(U21-OUT-)*%
X147280549Y-90273801D03*
%TD*%
D30*
%TO.P,C75,1*%
%TO.N,Net-(U15--)*%
X174585000Y-134525000D03*
%TO.P,C75,2*%
%TO.N,Net-(C75-Pad2)*%
X174585000Y-133565000D03*
%TD*%
D39*
%TO.P,R61,1*%
%TO.N,/DCCT ADCs/DCCT Channel 1/drv_vref*%
X145790000Y-103850000D03*
%TO.P,R61,2*%
%TO.N,Net-(U35--)*%
X146810000Y-103850000D03*
%TD*%
D24*
%TO.P,R75,1*%
%TO.N,Net-(C132-Pad1)*%
X158544000Y-107672000D03*
%TO.P,R75,2*%
%TO.N,Net-(U24--)*%
X157524000Y-107672000D03*
%TD*%
D40*
%TO.P,U10,1,BW*%
%TO.N,unconnected-(U10-BW-Pad1)*%
X172890997Y-62415000D03*
%TO.P,U10,2,NC*%
%TO.N,unconnected-(U10-NC-Pad2)*%
X174160997Y-62415000D03*
%TO.P,U10,3,V_{IN}*%
%TO.N,Net-(U10-V_{IN})*%
X175430997Y-62415000D03*
%TO.P,U10,4,V-*%
%TO.N,-15V*%
X176700997Y-62415000D03*
%TO.P,U10,5,NC*%
%TO.N,unconnected-(U10-NC-Pad5)*%
X176700997Y-57465000D03*
%TO.P,U10,6*%
%TO.N,Net-(U7--)*%
X175430997Y-57465000D03*
%TO.P,U10,7,V+*%
%TO.N,+15V*%
X174160997Y-57465000D03*
%TO.P,U10,8,NC*%
%TO.N,unconnected-(U10-NC-Pad8)*%
X172890997Y-57465000D03*
%TD*%
D23*
%TO.P,R39,1*%
%TO.N,Net-(U4B--)*%
X150963549Y-72312501D03*
%TO.P,R39,2*%
%TO.N,Net-(C109-Pad2)*%
X150963549Y-70662501D03*
%TD*%
D24*
%TO.P,R67,1*%
%TO.N,/Isolated Digital IO/dout2_iso*%
X144239100Y-147834100D03*
%TO.P,R67,2*%
%TO.N,Net-(U40-VISO)*%
X143219100Y-147834100D03*
%TD*%
D12*
%TO.P,R19,1*%
%TO.N,Net-(U15--)*%
X176585000Y-134555000D03*
%TO.P,R19,2*%
%TO.N,Net-(R19-Pad2)*%
X176585000Y-133535000D03*
%TD*%
D24*
%TO.P,R68,1*%
%TO.N,/Isolated Digital IO/dout1_iso*%
X144230000Y-157200000D03*
%TO.P,R68,2*%
%TO.N,Net-(U39-VISO)*%
X143210000Y-157200000D03*
%TD*%
D41*
%TO.P,U35,1*%
%TO.N,Net-(U35--)*%
X146660000Y-105649998D03*
D42*
%TO.P,U35,2,V-*%
%TO.N,GND*%
X146660000Y-106599999D03*
%TO.P,U35,3,+*%
%TO.N,Net-(U35-+)*%
X146660000Y-107550000D03*
%TO.P,U35,4,-*%
%TO.N,Net-(U35--)*%
X149280000Y-107550000D03*
%TO.P,U35,5,V+*%
%TO.N,+5.3VA*%
X149280000Y-105649998D03*
%TD*%
D30*
%TO.P,C128,1*%
%TO.N,Net-(U26-IN+)*%
X160701000Y-81756000D03*
%TO.P,C128,2*%
%TO.N,Net-(U26-OUT-)*%
X160701000Y-80796000D03*
%TD*%
D24*
%TO.P,R76,1*%
%TO.N,Net-(C135-Pad2)*%
X158544000Y-109704000D03*
%TO.P,R76,2*%
%TO.N,Net-(C132-Pad2)*%
X157524000Y-109704000D03*
%TD*%
D40*
%TO.P,U11,1,BW*%
%TO.N,unconnected-(U11-BW-Pad1)*%
X166770997Y-62465000D03*
%TO.P,U11,2,NC*%
%TO.N,unconnected-(U11-NC-Pad2)*%
X168040997Y-62465000D03*
%TO.P,U11,3,V_{IN}*%
%TO.N,Net-(U11-V_{IN})*%
X169310997Y-62465000D03*
%TO.P,U11,4,V-*%
%TO.N,-15V*%
X170580997Y-62465000D03*
%TO.P,U11,5,NC*%
%TO.N,unconnected-(U11-NC-Pad5)*%
X170580997Y-57515000D03*
%TO.P,U11,6*%
%TO.N,Net-(U9--)*%
X169310997Y-57515000D03*
%TO.P,U11,7,V+*%
%TO.N,+15V*%
X168040997Y-57515000D03*
%TO.P,U11,8,NC*%
%TO.N,unconnected-(U11-NC-Pad8)*%
X166770997Y-57515000D03*
%TD*%
D35*
%TO.P,C100,1*%
%TO.N,Net-(U20-SET)*%
X149150000Y-125400000D03*
%TO.P,C100,2*%
%TO.N,GND*%
X150700000Y-125400000D03*
%TD*%
D12*
%TO.P,R31,1*%
%TO.N,Net-(U19--)*%
X155865000Y-134418150D03*
%TO.P,R31,2*%
%TO.N,Net-(R31-Pad2)*%
X155865000Y-133398150D03*
%TD*%
%TO.P,R22,1*%
%TO.N,Net-(D6-A2)*%
X160275000Y-120478150D03*
%TO.P,R22,2*%
%TO.N,/Monitor ADCs/monitor_spare+*%
X160275000Y-119458150D03*
%TD*%
D37*
%TO.P,CR7,1,1*%
%TO.N,/Isolated Digital IO/din0_iso*%
X153279100Y-157765900D03*
%TO.P,CR7,2,2*%
%TO.N,/Isolated Digital IO/din_iso_gnd*%
X153279100Y-158265899D03*
%TO.P,CR7,3,3*%
%TO.N,unconnected-(CR7-Pad3)*%
X153279100Y-158765898D03*
%TO.P,CR7,4,4*%
%TO.N,/Isolated Digital IO/din_iso_gnd*%
X154980900Y-158765898D03*
%TO.P,CR7,5,5*%
%TO.N,/Isolated Digital IO/din1_iso*%
X154980900Y-158265899D03*
%TO.P,CR7,6,6*%
%TO.N,unconnected-(CR7-Pad6)*%
X154980900Y-157765900D03*
%TD*%
D28*
%TO.P,MT4,1,1*%
%TO.N,GND*%
X175000000Y-37000000D03*
D29*
X175000000Y-37000000D03*
%TD*%
D23*
%TO.P,R46,1*%
%TO.N,Net-(U26-IN+)*%
X157907000Y-81756000D03*
%TO.P,R46,2*%
%TO.N,Net-(C112-Pad2)*%
X157907000Y-80106000D03*
%TD*%
%TO.P,R35,1*%
%TO.N,Net-(U8A--)*%
X156680000Y-72284000D03*
%TO.P,R35,2*%
%TO.N,Net-(D9-COM)*%
X156680000Y-70634000D03*
%TD*%
D32*
%TO.P,R26,1*%
%TO.N,Net-(C85-Pad2)*%
X161830000Y-133473150D03*
%TO.P,R26,2*%
%TO.N,Net-(U17--)*%
X161830000Y-134493150D03*
%TD*%
D43*
%TO.P,U12,1,ISET*%
%TO.N,Net-(U12-ISET)*%
X170781000Y-112617500D03*
D44*
%TO.P,U12,2,NC*%
%TO.N,unconnected-(U12-NC-Pad2)*%
X172051000Y-113125500D03*
%TO.P,U12,3,TSET*%
%TO.N,Net-(U12-TSET)*%
X173321000Y-113125500D03*
D45*
%TO.P,U12,4,REF6P6_F*%
%TO.N,Net-(U12-REF6P6_F)*%
X174781500Y-111665000D03*
%TO.P,U12,5,REF6P6_S*%
X174781500Y-110395000D03*
%TO.P,U12,6,VDIN*%
X174781500Y-109125000D03*
%TO.P,U12,7,INV2*%
%TO.N,Net-(U12-BUF_S)*%
X174781500Y-107855000D03*
%TO.P,U12,8,INV1*%
%TO.N,GND*%
X174781500Y-106585000D03*
D44*
%TO.P,U12,9,BUF_S*%
%TO.N,Net-(U12-BUF_S)*%
X173321000Y-105124500D03*
%TO.P,U12,10,VDOUT*%
%TO.N,Net-(U12-BUF_INP)*%
X172051000Y-105124500D03*
%TO.P,U12,11,BUF_INP*%
X170781000Y-105124500D03*
%TO.P,U12,12,BUF_F*%
%TO.N,Net-(U12-BUF_F)*%
X169511000Y-105124500D03*
%TO.P,U12,13,BUF_GND*%
%TO.N,GND*%
X168241000Y-105124500D03*
D45*
%TO.P,U12,14,REF_GND*%
X166780500Y-106585000D03*
%TO.P,U12,15,REF_GND*%
X166780500Y-107855000D03*
%TO.P,U12,16,HTR_GND*%
X166780500Y-109125000D03*
%TO.P,U12,17,HTR_ILIM*%
%TO.N,Net-(U12-HTR_ILIM)*%
X166780500Y-110395000D03*
%TO.P,U12,18,HTR_IN*%
%TO.N,Net-(U12-HTR_IN)*%
X166780500Y-111665000D03*
D44*
%TO.P,U12,19,VIN*%
%TO.N,+15V*%
X168241000Y-113125500D03*
%TO.P,U12,20,PWRGD*%
%TO.N,unconnected-(U12-PWRGD-Pad20)*%
X169511000Y-113125500D03*
%TD*%
D25*
%TO.P,C61,1*%
%TO.N,Net-(U13-REFCP)*%
X164150000Y-150905000D03*
%TO.P,C61,2*%
%TO.N,GND*%
X164150000Y-149355000D03*
%TD*%
D32*
%TO.P,R80,1*%
%TO.N,Net-(C167-Pad1)*%
X161844000Y-101193000D03*
%TO.P,R80,2*%
%TO.N,Net-(R80-Pad2)*%
X161844000Y-102213000D03*
%TD*%
D26*
%TO.P,R84,1*%
%TO.N,Net-(J2-Pad59)*%
X166797000Y-184952000D03*
%TO.P,R84,2*%
%TO.N,Net-(D11-A)*%
X166797000Y-186602000D03*
%TD*%
D18*
%TO.P,C1,1*%
%TO.N,Net-(D2-A2)*%
X168230000Y-120500000D03*
%TO.P,C1,2*%
%TO.N,Net-(D2-A1)*%
X169190000Y-120500000D03*
%TD*%
D32*
%TO.P,R82,1*%
%TO.N,/DAC/dac_vref*%
X163749000Y-98143000D03*
%TO.P,R82,2*%
%TO.N,Net-(C167-Pad1)*%
X163749000Y-99163000D03*
%TD*%
D10*
%TO.P,C132,1*%
%TO.N,Net-(C132-Pad1)*%
X158514000Y-108688000D03*
%TO.P,C132,2*%
%TO.N,Net-(C132-Pad2)*%
X157554000Y-108688000D03*
%TD*%
D18*
%TO.P,C170,1*%
%TO.N,/DCCT ADCs/DCCT Channel 1/drv_vref*%
X145790000Y-102650003D03*
%TO.P,C170,2*%
%TO.N,GND*%
X146750000Y-102650003D03*
%TD*%
D31*
%TO.P,TP3,1,1*%
%TO.N,GND*%
X177000000Y-45000000D03*
%TD*%
D14*
%TO.P,C38,1*%
%TO.N,Net-(D5-A2)*%
X157779500Y-55834595D03*
%TO.P,C38,2*%
%TO.N,Net-(D5-A1)*%
X155747500Y-55834595D03*
D13*
%TO.P,C38,3*%
%TO.N,GND*%
X156763500Y-55148795D03*
%TO.P,C38,4*%
X156763500Y-56520395D03*
%TD*%
D10*
%TO.P,C51,1*%
%TO.N,Net-(U12-BUF_F)*%
X169261000Y-103125000D03*
%TO.P,C51,2*%
%TO.N,GND*%
X168301000Y-103125000D03*
%TD*%
D26*
%TO.P,R48,1*%
%TO.N,Net-(U26-OUT-)*%
X159431000Y-80106000D03*
%TO.P,R48,2*%
%TO.N,Net-(U26-IN+)*%
X159431000Y-81756000D03*
%TD*%
D23*
%TO.P,R81,1*%
%TO.N,Net-(U22--)*%
X156002000Y-104497000D03*
%TO.P,R81,2*%
%TO.N,Net-(R80-Pad2)*%
X156002000Y-102847000D03*
%TD*%
D40*
%TO.P,U6,1,BAL*%
%TO.N,unconnected-(U6-BAL-Pad1)*%
X169158497Y-82100000D03*
%TO.P,U6,2,-*%
%TO.N,Net-(U5-INV)*%
X170428497Y-82100000D03*
%TO.P,U6,3,+*%
%TO.N,Net-(U5-V_{OUT})*%
X171698497Y-82100000D03*
%TO.P,U6,4,V-*%
%TO.N,-15V*%
X172968497Y-82100000D03*
%TO.P,U6,5,COMP*%
%TO.N,unconnected-(U6-COMP-Pad5)*%
X172968497Y-77150000D03*
%TO.P,U6,6*%
%TO.N,Net-(U5-R_{FB})*%
X171698497Y-77150000D03*
%TO.P,U6,7,V+*%
%TO.N,+15V*%
X170428497Y-77150000D03*
%TO.P,U6,8,C/B*%
%TO.N,unconnected-(U6-C{slash}B-Pad8)*%
X169158497Y-77150000D03*
%TD*%
D12*
%TO.P,R13,1*%
%TO.N,GND*%
X173375000Y-116235000D03*
%TO.P,R13,2*%
%TO.N,Net-(U12-TSET)*%
X173375000Y-115215000D03*
%TD*%
D46*
%TO.P,C153,1*%
%TO.N,Net-(U22-+)*%
X146510000Y-113006000D03*
%TO.P,C153,2*%
%TO.N,GND*%
X144960000Y-113006000D03*
%TD*%
D40*
%TO.P,U7,1*%
%TO.N,N/C*%
X172941500Y-70940000D03*
%TO.P,U7,2,-*%
%TO.N,Net-(U7--)*%
X174211500Y-70940000D03*
%TO.P,U7,3,+*%
%TO.N,GND*%
X175481500Y-70940000D03*
%TO.P,U7,4,V-*%
%TO.N,-15V*%
X176751500Y-70940000D03*
%TO.P,U7,5*%
%TO.N,N/C*%
X176751500Y-65990000D03*
%TO.P,U7,6*%
%TO.N,Net-(U10-V_{IN})*%
X175481500Y-65990000D03*
%TO.P,U7,7,V+*%
%TO.N,+15V*%
X174211500Y-65990000D03*
%TO.P,U7,8*%
%TO.N,N/C*%
X172941500Y-65990000D03*
%TD*%
D47*
%TO.P,U20,1,IN*%
%TO.N,+15V*%
X145280000Y-129820000D03*
%TO.P,U20,2,IN*%
X145780000Y-129820000D03*
%TO.P,U20,3,EN/UV*%
X146280000Y-129820000D03*
%TO.P,U20,4,PG*%
%TO.N,unconnected-(U20-PG-Pad4)*%
X146780000Y-129820000D03*
%TO.P,U20,5,ILIM*%
%TO.N,GND*%
X147280000Y-129820000D03*
%TO.P,U20,6,PGFB*%
%TO.N,+15V*%
X147280000Y-125520000D03*
%TO.P,U20,7,SET*%
%TO.N,Net-(U20-SET)*%
X146780000Y-125520000D03*
%TO.P,U20,8,GND*%
%TO.N,GND*%
X146280000Y-125520000D03*
%TO.P,U20,9,OUTS*%
%TO.N,Net-(U20-OUT)*%
X145780000Y-125520000D03*
%TO.P,U20,10,OUT*%
X145280000Y-125520000D03*
D48*
%TO.P,U20,11,GND*%
%TO.N,GND*%
X146280000Y-127670000D03*
%TD*%
D16*
%TO.P,U43,1,VDD*%
%TO.N,+5.0V*%
X150160000Y-154913800D03*
%TO.P,U43,2,VOA*%
%TO.N,Net-(U41-A3)*%
X151430000Y-154913800D03*
%TO.P,U43,3,VOB*%
%TO.N,Net-(U41-A4)*%
X152700000Y-154913800D03*
%TO.P,U43,4,GND*%
%TO.N,GND*%
X153970000Y-154913800D03*
%TO.P,U43,5,GNDISO*%
%TO.N,/Isolated Digital IO/din_iso_gnd*%
X153970000Y-149986200D03*
%TO.P,U43,6,VIB*%
%TO.N,/Isolated Digital IO/din3_iso*%
X152700000Y-149986200D03*
%TO.P,U43,7,VIA*%
%TO.N,/Isolated Digital IO/din2_iso*%
X151430000Y-149986200D03*
%TO.P,U43,8,VISO*%
%TO.N,Net-(U43-VISO)*%
X150160000Y-149986200D03*
%TD*%
D49*
%TO.P,U13,1,HVSS*%
%TO.N,-15V*%
X161730000Y-155380000D03*
%TO.P,U13,2,CH_D1*%
%TO.N,GND*%
X161730000Y-155880000D03*
%TO.P,U13,3,REFDN*%
X161730000Y-156380000D03*
%TO.P,U13,4,AVDD*%
%TO.N,+5.0V*%
X161730000Y-156880000D03*
%TO.P,U13,5,AGND*%
%TO.N,GND*%
X161730000Y-157380000D03*
%TO.P,U13,6,REFDP*%
%TO.N,Net-(U13-REFDP)*%
X161730000Y-157880000D03*
%TO.P,U13,7,CH_D0*%
%TO.N,/Monitor ADCs/monitor_vout/mon_out*%
X161730000Y-158380000D03*
%TO.P,U13,8,~{PAR}/SER*%
%TO.N,+3.3V*%
X161730000Y-158880000D03*
%TO.P,U13,9,~{STBY}*%
X161730000Y-159380000D03*
%TO.P,U13,10,RESET*%
%TO.N,/FPGA connector/mon_reset*%
X161730000Y-159880000D03*
%TO.P,U13,11,REFEN/~{WR}*%
%TO.N,+3.3V*%
X161730000Y-160380000D03*
%TO.P,U13,12,~{RD}*%
%TO.N,GND*%
X161730000Y-160880000D03*
%TO.P,U13,13,~{CS}/FS*%
%TO.N,/FPGA connector/mon_fs*%
X161730000Y-161380000D03*
%TO.P,U13,14,AVDD*%
%TO.N,+5.0V*%
X161730000Y-161880000D03*
%TO.P,U13,15,AGND*%
%TO.N,GND*%
X161730000Y-162380000D03*
%TO.P,U13,16,DB15/SDO_D*%
X161730000Y-162880000D03*
D50*
%TO.P,U13,17,DB14/SDO_C*%
X163650000Y-164800000D03*
%TO.P,U13,18,DB13/SDO_B*%
X164150000Y-164800000D03*
%TO.P,U13,19,DB12/SDO_A*%
%TO.N,/FPGA connector/mon_sdo*%
X164650000Y-164800000D03*
%TO.P,U13,20,DB11/~{REFBUFEN}*%
%TO.N,GND*%
X165150000Y-164800000D03*
%TO.P,U13,21,DB10/SCLK*%
%TO.N,/FPGA connector/mon_sclk*%
X165650000Y-164800000D03*
%TO.P,U13,22,DB9/SDI*%
%TO.N,GND*%
X166150000Y-164800000D03*
%TO.P,U13,23,DB8/DCEN*%
X166650000Y-164800000D03*
%TO.P,U13,24,DGND*%
X167150000Y-164800000D03*
%TO.P,U13,25,DVDD*%
%TO.N,+3.3V*%
X167650000Y-164800000D03*
%TO.P,U13,26,DB7*%
%TO.N,GND*%
X168150000Y-164800000D03*
%TO.P,U13,27,DB6/SEL_B*%
X168650000Y-164800000D03*
%TO.P,U13,28,DB5/SEL_CD*%
X169150000Y-164800000D03*
%TO.P,U13,29,DB4*%
X169650000Y-164800000D03*
%TO.P,U13,30,DB3/DCIN_A*%
X170150000Y-164800000D03*
%TO.P,U13,31,DB2/DCIN_B*%
X170650000Y-164800000D03*
%TO.P,U13,32,DB1/DCIN_C*%
X171150000Y-164800000D03*
D49*
%TO.P,U13,33,DB0/DCIN_D*%
X173070000Y-162880000D03*
%TO.P,U13,34,RANGE/XCLK*%
X173070000Y-162380000D03*
%TO.P,U13,35,BUSY/INT*%
%TO.N,/FPGA connector/mon_busy*%
X173070000Y-161880000D03*
%TO.P,U13,36,ASLEEP*%
%TO.N,GND*%
X173070000Y-161380000D03*
%TO.P,U13,37,CONVST_A*%
%TO.N,/FPGA connector/mon_convert*%
X173070000Y-160880000D03*
%TO.P,U13,38,CONVST_B*%
X173070000Y-160380000D03*
%TO.P,U13,39,CONVST_C*%
X173070000Y-159880000D03*
%TO.P,U13,40,CONVST_D*%
X173070000Y-159380000D03*
%TO.P,U13,41,~{HW}/SW*%
%TO.N,GND*%
X173070000Y-158880000D03*
%TO.P,U13,42,CH_A0*%
%TO.N,/Monitor ADCs/monitor_dac/mon_out*%
X173070000Y-158380000D03*
%TO.P,U13,43,REFAP*%
%TO.N,Net-(U13-REFAP)*%
X173070000Y-157880000D03*
%TO.P,U13,44,AGND*%
%TO.N,GND*%
X173070000Y-157380000D03*
%TO.P,U13,45,AVDD*%
%TO.N,+5.0V*%
X173070000Y-156880000D03*
%TO.P,U13,46,REFAN*%
%TO.N,GND*%
X173070000Y-156380000D03*
%TO.P,U13,47,CH_A1*%
X173070000Y-155880000D03*
%TO.P,U13,48,HVDD*%
%TO.N,+15V*%
X173070000Y-155380000D03*
D50*
%TO.P,U13,49,CH_B0*%
%TO.N,/Monitor ADCs/monitor_ignd/mon_out*%
X171150000Y-153460000D03*
%TO.P,U13,50,REFBP*%
%TO.N,Net-(U13-REFBP)*%
X170650000Y-153460000D03*
%TO.P,U13,51,AGND*%
%TO.N,GND*%
X170150000Y-153460000D03*
%TO.P,U13,52,AVDD*%
%TO.N,+5.0V*%
X169650000Y-153460000D03*
%TO.P,U13,53,REFBN*%
%TO.N,GND*%
X169150000Y-153460000D03*
%TO.P,U13,54,CH_B1*%
X168650000Y-153460000D03*
%TO.P,U13,55,REFN*%
X168150000Y-153460000D03*
%TO.P,U13,56,REFIO*%
%TO.N,Net-(U13-REFIO)*%
X167650000Y-153460000D03*
%TO.P,U13,57,AVDD*%
%TO.N,+5.0V*%
X167150000Y-153460000D03*
%TO.P,U13,58,AGND*%
%TO.N,GND*%
X166650000Y-153460000D03*
%TO.P,U13,59,CH_C1*%
X166150000Y-153460000D03*
%TO.P,U13,60,REFCN*%
X165650000Y-153460000D03*
%TO.P,U13,61,AVDD*%
%TO.N,+5.0V*%
X165150000Y-153460000D03*
%TO.P,U13,62,AGND*%
%TO.N,GND*%
X164650000Y-153460000D03*
%TO.P,U13,63,REFCP*%
%TO.N,Net-(U13-REFCP)*%
X164150000Y-153460000D03*
%TO.P,U13,64,CH_C0*%
%TO.N,/Monitor ADCs/monitor_spare/mon_out*%
X163650000Y-153460000D03*
D51*
%TO.P,U13,65,THPAD*%
%TO.N,GND*%
X167400000Y-159130000D03*
%TD*%
D32*
%TO.P,R20,1*%
%TO.N,Net-(C75-Pad2)*%
X175585000Y-133545000D03*
%TO.P,R20,2*%
%TO.N,Net-(U15--)*%
X175585000Y-134565000D03*
%TD*%
D52*
%TO.P,D10,1,K*%
%TO.N,GND*%
X164892000Y-189866500D03*
%TO.P,D10,2,A*%
%TO.N,Net-(D10-A)*%
X164892000Y-188291500D03*
%TD*%
D23*
%TO.P,R45,1*%
%TO.N,Net-(U21-IN+)*%
X147661549Y-81774501D03*
%TO.P,R45,2*%
%TO.N,Net-(C111-Pad2)*%
X147661549Y-80124501D03*
%TD*%
D35*
%TO.P,C195,1*%
%TO.N,Net-(U43-VISO)*%
X150300000Y-143800000D03*
%TO.P,C195,2*%
%TO.N,GND*%
X151850000Y-143800000D03*
%TD*%
D15*
%TO.P,R56,1*%
%TO.N,Net-(R56-Pad1)*%
X147368049Y-60677501D03*
%TO.P,R56,2*%
%TO.N,Net-(R56-Pad2)*%
X145718049Y-60677501D03*
%TD*%
D37*
%TO.P,CR5,1,1*%
%TO.N,/Isolated Digital IO/dout0_iso*%
X146550000Y-157750002D03*
%TO.P,CR5,2,2*%
%TO.N,/Isolated Digital IO/dout_iso_gnd*%
X146550000Y-158250001D03*
%TO.P,CR5,3,3*%
%TO.N,unconnected-(CR5-Pad3)*%
X146550000Y-158750000D03*
%TO.P,CR5,4,4*%
%TO.N,/Isolated Digital IO/dout_iso_gnd*%
X148251800Y-158750000D03*
%TO.P,CR5,5,5*%
%TO.N,/Isolated Digital IO/dout1_iso*%
X148251800Y-158250001D03*
%TO.P,CR5,6,6*%
%TO.N,unconnected-(CR5-Pad6)*%
X148251800Y-157750002D03*
%TD*%
D24*
%TO.P,R70,1*%
%TO.N,/Isolated Digital IO/din0_iso*%
X151150000Y-158500000D03*
%TO.P,R70,2*%
%TO.N,Net-(U42-VISO)*%
X150130000Y-158500000D03*
%TD*%
D26*
%TO.P,R62,1*%
%TO.N,Net-(U21-OUT+)*%
X144613549Y-80124501D03*
%TO.P,R62,2*%
%TO.N,Net-(U21-IN-)*%
X144613549Y-81774501D03*
%TD*%
D53*
%TO.P,TP4,1,1*%
%TO.N,GND*%
X155748000Y-187050000D03*
%TD*%
D54*
%TO.P,C167,1*%
%TO.N,Net-(C167-Pad1)*%
X164511000Y-101309000D03*
%TO.P,C167,2*%
%TO.N,GND*%
X164511000Y-102859000D03*
%TD*%
D12*
%TO.P,R28,1*%
%TO.N,Net-(D7-A2)*%
X153310000Y-120403150D03*
%TO.P,R28,2*%
%TO.N,/Monitor ADCs/monitor_vout+*%
X153310000Y-119383150D03*
%TD*%
D18*
%TO.P,C27,1*%
%TO.N,/DAC/dac_mon*%
X169291000Y-73625000D03*
%TO.P,C27,2*%
%TO.N,GND*%
X170251000Y-73625000D03*
%TD*%
D23*
%TO.P,R9,1*%
%TO.N,Net-(U9--)*%
X171700997Y-54790000D03*
%TO.P,R9,2*%
%TO.N,/DAC/dac_vout+*%
X171700997Y-53140000D03*
%TD*%
D38*
%TO.P,C129,1*%
%TO.N,Net-(U26-OUT+)*%
X153589000Y-80796000D03*
%TO.P,C129,2*%
%TO.N,Net-(U26-IN-)*%
X153589000Y-81756000D03*
%TD*%
D19*
%TO.P,C103,1*%
%TO.N,Net-(D3-A2)*%
X174685000Y-122300800D03*
%TO.P,C103,2*%
%TO.N,Net-(D3-A1)*%
X176717000Y-122300800D03*
D20*
%TO.P,C103,3*%
%TO.N,GND*%
X175701000Y-122986600D03*
%TO.P,C103,4*%
X175701000Y-121615000D03*
%TD*%
D46*
%TO.P,C160,1*%
%TO.N,Net-(U35-+)*%
X146510000Y-111355000D03*
%TO.P,C160,2*%
%TO.N,GND*%
X144960000Y-111355000D03*
%TD*%
D12*
%TO.P,R42,1*%
%TO.N,Net-(D5-A2)*%
X158161000Y-54220395D03*
%TO.P,R42,2*%
%TO.N,/DCCT ADCs/dcct1-*%
X158161000Y-53200395D03*
%TD*%
D55*
%TO.P,U23,1,\u002ASD*%
%TO.N,Net-(U23-\u002ASD)*%
X156916400Y-114996999D03*
%TO.P,U23,2,-*%
%TO.N,Net-(U23--)*%
X156916400Y-114347001D03*
%TO.P,U23,3,+*%
%TO.N,Net-(U12-BUF_INP)*%
X156916400Y-113696999D03*
%TO.P,U23,4,V-*%
%TO.N,GND*%
X156916400Y-113047001D03*
%TO.P,U23,5,NC*%
%TO.N,unconnected-(U23-NC-Pad5)*%
X152573000Y-113047001D03*
%TO.P,U23,6*%
%TO.N,Net-(U24-+)*%
X152573000Y-113696999D03*
%TO.P,U23,7,V+*%
%TO.N,+15V*%
X152573000Y-114347001D03*
%TO.P,U23,8,SDC*%
%TO.N,Net-(U23-SDC)*%
X152573000Y-114996999D03*
%TD*%
D32*
%TO.P,R83,1*%
%TO.N,/DCCT ADCs/adc_vref*%
X154986000Y-100177000D03*
%TO.P,R83,2*%
%TO.N,Net-(U22-+)*%
X154986000Y-101197000D03*
%TD*%
D27*
%TO.P,U8,1*%
%TO.N,Net-(C110-Pad2)*%
X154416000Y-74390000D03*
%TO.P,U8,2,-*%
%TO.N,Net-(U8A--)*%
X154416000Y-75660000D03*
%TO.P,U8,3,+*%
%TO.N,GND*%
X154416000Y-76930000D03*
%TO.P,U8,4,V-*%
%TO.N,-5.3VA*%
X154416000Y-78200000D03*
%TO.P,U8,5,+*%
%TO.N,GND*%
X159366000Y-78200000D03*
%TO.P,U8,6,-*%
%TO.N,Net-(U8B--)*%
X159366000Y-76930000D03*
%TO.P,U8,7*%
%TO.N,Net-(C112-Pad2)*%
X159366000Y-75660000D03*
%TO.P,U8,8,V+*%
%TO.N,+5.3VA*%
X159366000Y-74390000D03*
%TD*%
D16*
%TO.P,U42,1,VDD*%
%TO.N,+5.0V*%
X150160000Y-166063800D03*
%TO.P,U42,2,VOA*%
%TO.N,Net-(U41-A1)*%
X151430000Y-166063800D03*
%TO.P,U42,3,VOB*%
%TO.N,Net-(U41-A2)*%
X152700000Y-166063800D03*
%TO.P,U42,4,GND*%
%TO.N,GND*%
X153970000Y-166063800D03*
%TO.P,U42,5,GNDISO*%
%TO.N,/Isolated Digital IO/din_iso_gnd*%
X153970000Y-161136200D03*
%TO.P,U42,6,VIB*%
%TO.N,/Isolated Digital IO/din1_iso*%
X152700000Y-161136200D03*
%TO.P,U42,7,VIA*%
%TO.N,/Isolated Digital IO/din0_iso*%
X151430000Y-161136200D03*
%TO.P,U42,8,VISO*%
%TO.N,Net-(U42-VISO)*%
X150160000Y-161136200D03*
%TD*%
D32*
%TO.P,R15,1*%
%TO.N,Net-(U12-HTR_IN)*%
X164781000Y-111625000D03*
%TO.P,R15,2*%
%TO.N,+15V*%
X164781000Y-112645000D03*
%TD*%
D18*
%TO.P,C186,1*%
%TO.N,Net-(U40-VISO)*%
X143120000Y-145250000D03*
%TO.P,C186,2*%
%TO.N,GND*%
X144080000Y-145250000D03*
%TD*%
D41*
%TO.P,U24,1*%
%TO.N,Net-(C132-Pad2)*%
X155915000Y-109765001D03*
D42*
%TO.P,U24,2,V-*%
%TO.N,GND*%
X155915000Y-108815000D03*
%TO.P,U24,3,+*%
%TO.N,Net-(U24-+)*%
X155915000Y-107864999D03*
%TO.P,U24,4,-*%
%TO.N,Net-(U24--)*%
X153295000Y-107864999D03*
%TO.P,U24,5,V+*%
%TO.N,+15V*%
X153295000Y-109765001D03*
%TD*%
D24*
%TO.P,R34,1*%
%TO.N,GND*%
X150010000Y-124075000D03*
%TO.P,R34,2*%
%TO.N,Net-(U20-SET)*%
X148990000Y-124075000D03*
%TD*%
D21*
%TO.P,U1,1,-*%
%TO.N,Net-(D2-A1)*%
X170670000Y-126050000D03*
%TO.P,U1,2,Rg*%
%TO.N,Net-(R3-Pad1)*%
X169400000Y-126050000D03*
%TO.P,U1,3,Rg*%
%TO.N,Net-(R3-Pad2)*%
X168130000Y-126050000D03*
%TO.P,U1,4,+*%
%TO.N,Net-(D2-A2)*%
X166860000Y-126050000D03*
%TO.P,U1,5,Vs-*%
%TO.N,-15V*%
X166860000Y-131000000D03*
%TO.P,U1,6,Ref*%
%TO.N,GND*%
X168130000Y-131000000D03*
%TO.P,U1,7*%
%TO.N,Net-(R4-Pad2)*%
X169400000Y-131000000D03*
%TO.P,U1,8,Vs+*%
%TO.N,+15V*%
X170670000Y-131000000D03*
%TD*%
D10*
%TO.P,C21,1*%
%TO.N,Net-(U5-R_{FB})*%
X171143500Y-84565200D03*
%TO.P,C21,2*%
%TO.N,Net-(U5-INV)*%
X170183500Y-84565200D03*
%TD*%
D56*
%TO.P,U37,1,CHAIN*%
%TO.N,GND*%
X148398551Y-93911101D03*
%TO.P,U37,2,VDD*%
%TO.N,+2.5V*%
X147948552Y-93911101D03*
%TO.P,U37,3,GND*%
%TO.N,GND*%
X147498550Y-93911101D03*
%TO.P,U37,4,IN+*%
%TO.N,Net-(U37-IN+)*%
X147048551Y-93911101D03*
%TO.P,U37,5,IN-*%
%TO.N,Net-(U37-IN-)*%
X146598549Y-93911101D03*
%TO.P,U37,6,GND*%
%TO.N,GND*%
X146148550Y-93911101D03*
%TO.P,U37,7,REF*%
%TO.N,/DCCT ADCs/adc_vref*%
X145698551Y-93911101D03*
%TO.P,U37,8,REF/\u002ADGC*%
X145248549Y-93911101D03*
%TO.P,U37,9,CNV*%
%TO.N,/DCCT ADCs/dcct_cnv*%
X145248549Y-96815901D03*
%TO.P,U37,10,GND*%
%TO.N,GND*%
X145698548Y-96815901D03*
%TO.P,U37,11,BUSY*%
%TO.N,/DCCT ADCs/dcct_busy*%
X146148550Y-96815901D03*
%TO.P,U37,12,RDL/SDI*%
%TO.N,GND*%
X146598549Y-96815901D03*
%TO.P,U37,13,SCK*%
%TO.N,/DCCT ADCs/dcct_sck*%
X147048551Y-96815901D03*
%TO.P,U37,14,SDO*%
%TO.N,/DCCT ADCs/dcct0_sdo*%
X147498550Y-96815901D03*
%TO.P,U37,15,OVDD*%
%TO.N,+1.8V*%
X147948549Y-96815901D03*
%TO.P,U37,16,GND*%
%TO.N,GND*%
X148398551Y-96815901D03*
D57*
%TO.P,U37,17,GND*%
X147823550Y-94963501D03*
X145823550Y-94963501D03*
X146823550Y-95363501D03*
D58*
X146823550Y-95363501D03*
D57*
X147823550Y-95763501D03*
X145823550Y-95763501D03*
%TD*%
D24*
%TO.P,R52,1*%
%TO.N,Net-(U31-IN+)*%
X158546000Y-90255300D03*
%TO.P,R52,2*%
%TO.N,Net-(U26-OUT-)*%
X157526000Y-90255300D03*
%TD*%
D39*
%TO.P,R53,1*%
%TO.N,Net-(U31-IN-)*%
X155496000Y-90255300D03*
%TO.P,R53,2*%
%TO.N,Net-(U26-OUT+)*%
X156516000Y-90255300D03*
%TD*%
D18*
%TO.P,C26,1*%
%TO.N,Net-(C26-Pad1)*%
X171281000Y-73625000D03*
%TO.P,C26,2*%
%TO.N,GND*%
X172241000Y-73625000D03*
%TD*%
D59*
%TO.P,U26,1,IN-*%
%TO.N,Net-(U26-IN-)*%
X154399500Y-84177000D03*
%TO.P,U26,2,VOCM*%
%TO.N,/DCCT ADCs/DCCT Channel 1/drv_vref*%
X154399500Y-85447000D03*
%TO.P,U26,3,VS+*%
%TO.N,+5.3VA*%
X154399500Y-86717000D03*
%TO.P,U26,4,OUT+*%
%TO.N,Net-(U26-OUT+)*%
X154399500Y-87987000D03*
%TO.P,U26,5,OUT-*%
%TO.N,Net-(U26-OUT-)*%
X159733500Y-87987000D03*
%TO.P,U26,6,VS-*%
%TO.N,-5.3VA*%
X159733500Y-86717000D03*
%TO.P,U26,7,PD\u002A*%
%TO.N,+5.3VA*%
X159733500Y-85447000D03*
%TO.P,U26,8,IN+*%
%TO.N,Net-(U26-IN+)*%
X159733500Y-84177000D03*
%TD*%
D46*
%TO.P,C52,1*%
%TO.N,Net-(U12-BUF_F)*%
X169056000Y-101625000D03*
%TO.P,C52,2*%
%TO.N,GND*%
X167506000Y-101625000D03*
%TD*%
D10*
%TO.P,C142,1*%
%TO.N,Net-(U31-IN-)*%
X155490500Y-91289000D03*
%TO.P,C142,2*%
%TO.N,GND*%
X154530500Y-91289000D03*
%TD*%
D26*
%TO.P,R57,1*%
%TO.N,Net-(J2-Pad57)*%
X164892000Y-184952000D03*
%TO.P,R57,2*%
%TO.N,Net-(D10-A)*%
X164892000Y-186602000D03*
%TD*%
D24*
%TO.P,R69,1*%
%TO.N,/Isolated Digital IO/dout3_iso*%
X144189100Y-146584100D03*
%TO.P,R69,2*%
%TO.N,Net-(U40-VISO)*%
X143169100Y-146584100D03*
%TD*%
D12*
%TO.P,R2,1*%
%TO.N,Net-(D2-A1)*%
X170210000Y-120510000D03*
%TO.P,R2,2*%
%TO.N,/Monitor ADCs/monitor_ignd-*%
X170210000Y-119490000D03*
%TD*%
D56*
%TO.P,U31,1,CHAIN*%
%TO.N,GND*%
X158644002Y-93892600D03*
%TO.P,U31,2,VDD*%
%TO.N,+2.5V*%
X158194003Y-93892600D03*
%TO.P,U31,3,GND*%
%TO.N,GND*%
X157744001Y-93892600D03*
%TO.P,U31,4,IN+*%
%TO.N,Net-(U31-IN+)*%
X157294002Y-93892600D03*
%TO.P,U31,5,IN-*%
%TO.N,Net-(U31-IN-)*%
X156844000Y-93892600D03*
%TO.P,U31,6,GND*%
%TO.N,GND*%
X156394001Y-93892600D03*
%TO.P,U31,7,REF*%
%TO.N,/DCCT ADCs/adc_vref*%
X155944002Y-93892600D03*
%TO.P,U31,8,REF/\u002ADGC*%
X155494000Y-93892600D03*
%TO.P,U31,9,CNV*%
%TO.N,/DCCT ADCs/dcct_cnv*%
X155494000Y-96797400D03*
%TO.P,U31,10,GND*%
%TO.N,GND*%
X155943999Y-96797400D03*
%TO.P,U31,11,BUSY*%
%TO.N,/DCCT ADCs/DCCT Channel 2/busy*%
X156394001Y-96797400D03*
%TO.P,U31,12,RDL/SDI*%
%TO.N,GND*%
X156844000Y-96797400D03*
%TO.P,U31,13,SCK*%
%TO.N,/DCCT ADCs/dcct_sck*%
X157294002Y-96797400D03*
%TO.P,U31,14,SDO*%
%TO.N,/DCCT ADCs/dcct1_sdo*%
X157744001Y-96797400D03*
%TO.P,U31,15,OVDD*%
%TO.N,+1.8V*%
X158194000Y-96797400D03*
%TO.P,U31,16,GND*%
%TO.N,GND*%
X158644002Y-96797400D03*
D57*
%TO.P,U31,17,GND*%
X158069001Y-94945000D03*
X156069001Y-94945000D03*
X157069001Y-95345000D03*
D58*
X157069001Y-95345000D03*
D57*
X158069001Y-95745000D03*
X156069001Y-95745000D03*
%TD*%
D28*
%TO.P,MT3,1,1*%
%TO.N,GND*%
X175000000Y-187000000D03*
D29*
X175000000Y-187000000D03*
%TD*%
D60*
%TO.P,U32,1,IN*%
%TO.N,Net-(U20-OUT)*%
X145870000Y-119850000D03*
%TO.P,U32,2,~SHDN*%
X147140000Y-119850000D03*
%TO.P,U32,3,GND*%
%TO.N,GND*%
X148410000Y-119850000D03*
D61*
%TO.P,U32,4,GND*%
X149290000Y-117700000D03*
D60*
%TO.P,U32,5,GND*%
X148410000Y-115550000D03*
%TO.P,U32,6,VOUT_S*%
%TO.N,Net-(U22-+)*%
X147140000Y-115550000D03*
%TO.P,U32,7,VOUT_F*%
X145870000Y-115550000D03*
D62*
%TO.P,U32,8,GND*%
%TO.N,GND*%
X145390000Y-117700000D03*
%TD*%
D24*
%TO.P,R73,1*%
%TO.N,/Isolated Digital IO/din3_iso*%
X151209100Y-146500001D03*
%TO.P,R73,2*%
%TO.N,Net-(U43-VISO)*%
X150189100Y-146500001D03*
%TD*%
D12*
%TO.P,R25,1*%
%TO.N,Net-(U17--)*%
X162830000Y-134493150D03*
%TO.P,R25,2*%
%TO.N,Net-(R25-Pad2)*%
X162830000Y-133473150D03*
%TD*%
D18*
%TO.P,C148,1*%
%TO.N,Net-(U20-OUT)*%
X145320000Y-123575000D03*
%TO.P,C148,2*%
%TO.N,GND*%
X146280000Y-123575000D03*
%TD*%
D11*
%TO.P,D7,1,A1*%
%TO.N,Net-(D7-A1)*%
X155180000Y-119283150D03*
%TO.P,D7,2,A2*%
%TO.N,Net-(D7-A2)*%
X154530000Y-119283150D03*
%TD*%
D21*
%TO.P,U16,1,-*%
%TO.N,Net-(D6-A1)*%
X163735000Y-126008150D03*
%TO.P,U16,2,Rg*%
%TO.N,Net-(R24-Pad1)*%
X162465000Y-126008150D03*
%TO.P,U16,3,Rg*%
%TO.N,Net-(R24-Pad2)*%
X161195000Y-126008150D03*
%TO.P,U16,4,+*%
%TO.N,Net-(D6-A2)*%
X159925000Y-126008150D03*
%TO.P,U16,5,Vs-*%
%TO.N,-15V*%
X159925000Y-130958150D03*
%TO.P,U16,6,Ref*%
%TO.N,GND*%
X161195000Y-130958150D03*
%TO.P,U16,7*%
%TO.N,Net-(R25-Pad2)*%
X162465000Y-130958150D03*
%TO.P,U16,8,Vs+*%
%TO.N,+15V*%
X163735000Y-130958150D03*
%TD*%
D30*
%TO.P,C95,1*%
%TO.N,Net-(U19--)*%
X153865000Y-134398150D03*
%TO.P,C95,2*%
%TO.N,Net-(C95-Pad2)*%
X153865000Y-133438150D03*
%TD*%
D35*
%TO.P,C147,1*%
%TO.N,Net-(U20-OUT)*%
X145325000Y-122275000D03*
%TO.P,C147,2*%
%TO.N,GND*%
X146875000Y-122275000D03*
%TD*%
D37*
%TO.P,CR8,1,1*%
%TO.N,/Isolated Digital IO/din2_iso*%
X153150000Y-146500002D03*
%TO.P,CR8,2,2*%
%TO.N,/Isolated Digital IO/din_iso_gnd*%
X153150000Y-147000001D03*
%TO.P,CR8,3,3*%
%TO.N,unconnected-(CR8-Pad3)*%
X153150000Y-147500000D03*
%TO.P,CR8,4,4*%
%TO.N,/Isolated Digital IO/din_iso_gnd*%
X154851800Y-147500000D03*
%TO.P,CR8,5,5*%
%TO.N,/Isolated Digital IO/din3_iso*%
X154851800Y-147000001D03*
%TO.P,CR8,6,6*%
%TO.N,unconnected-(CR8-Pad6)*%
X154851800Y-146500002D03*
%TD*%
D24*
%TO.P,R18,1*%
%TO.N,Net-(R18-Pad1)*%
X176345000Y-124065000D03*
%TO.P,R18,2*%
%TO.N,Net-(R18-Pad2)*%
X175325000Y-124065000D03*
%TD*%
D35*
%TO.P,C155,1*%
%TO.N,Net-(U22-+)*%
X148128000Y-113006000D03*
%TO.P,C155,2*%
%TO.N,GND*%
X149678000Y-113006000D03*
%TD*%
D24*
%TO.P,R24,1*%
%TO.N,Net-(R24-Pad1)*%
X162340000Y-123983150D03*
%TO.P,R24,2*%
%TO.N,Net-(R24-Pad2)*%
X161320000Y-123983150D03*
%TD*%
D23*
%TO.P,R58,1*%
%TO.N,Net-(U26-IN-)*%
X156383000Y-81756000D03*
%TO.P,R58,2*%
%TO.N,GND*%
X156383000Y-80106000D03*
%TD*%
D12*
%TO.P,R17,1*%
%TO.N,Net-(D3-A1)*%
X177185000Y-120535000D03*
%TO.P,R17,2*%
%TO.N,GND*%
X177185000Y-119515000D03*
%TD*%
D39*
%TO.P,R65,1*%
%TO.N,Net-(U37-IN-)*%
X145250549Y-90273801D03*
%TO.P,R65,2*%
%TO.N,Net-(U21-OUT+)*%
X146270549Y-90273801D03*
%TD*%
D11*
%TO.P,D2,1,A1*%
%TO.N,Net-(D2-A1)*%
X169080000Y-119400000D03*
%TO.P,D2,2,A2*%
%TO.N,Net-(D2-A2)*%
X168430000Y-119400000D03*
%TD*%
%TO.P,D3,1,A1*%
%TO.N,Net-(D3-A1)*%
X176010000Y-119415000D03*
%TO.P,D3,2,A2*%
%TO.N,Net-(D3-A2)*%
X175360000Y-119415000D03*
%TD*%
D25*
%TO.P,C63,1*%
%TO.N,Net-(U13-REFIO)*%
X167650000Y-150905000D03*
%TO.P,C63,2*%
%TO.N,GND*%
X167650000Y-149355000D03*
%TD*%
D63*
%TO.P,D1,1,K*%
%TO.N,+15V*%
X175930900Y-101500000D03*
D64*
%TO.P,D1,2,A*%
%TO.N,+3.3V*%
X173069100Y-101500000D03*
%TD*%
D32*
%TO.P,R49,1*%
%TO.N,/DAC/dac_vref*%
X164935000Y-98107000D03*
%TO.P,R49,2*%
%TO.N,Net-(U12-BUF_F)*%
X164935000Y-99127000D03*
%TD*%
D10*
%TO.P,C138,1*%
%TO.N,GND*%
X149208049Y-91307501D03*
%TO.P,C138,2*%
%TO.N,Net-(U37-IN+)*%
X148248049Y-91307501D03*
%TD*%
D12*
%TO.P,R43,1*%
%TO.N,Net-(D5-A1)*%
X155367000Y-54220395D03*
%TO.P,R43,2*%
%TO.N,/DCCT ADCs/dcct1+*%
X155367000Y-53200395D03*
%TD*%
D35*
%TO.P,C166,1*%
%TO.N,/DCCT ADCs/DCCT Channel 1/drv_vref*%
X146015000Y-101250001D03*
%TO.P,C166,2*%
%TO.N,GND*%
X147565000Y-101250001D03*
%TD*%
D21*
%TO.P,U18,1,-*%
%TO.N,Net-(D7-A1)*%
X156770000Y-125933150D03*
%TO.P,U18,2,Rg*%
%TO.N,Net-(R30-Pad1)*%
X155500000Y-125933150D03*
%TO.P,U18,3,Rg*%
%TO.N,Net-(R30-Pad2)*%
X154230000Y-125933150D03*
%TO.P,U18,4,+*%
%TO.N,Net-(D7-A2)*%
X152960000Y-125933150D03*
%TO.P,U18,5,Vs-*%
%TO.N,-15V*%
X152960000Y-130883150D03*
%TO.P,U18,6,Ref*%
%TO.N,GND*%
X154230000Y-130883150D03*
%TO.P,U18,7*%
%TO.N,Net-(R31-Pad2)*%
X155500000Y-130883150D03*
%TO.P,U18,8,Vs+*%
%TO.N,+15V*%
X156770000Y-130883150D03*
%TD*%
D24*
%TO.P,R8,1*%
%TO.N,Net-(C26-Pad1)*%
X170301000Y-74625000D03*
%TO.P,R8,2*%
%TO.N,/DAC/dac_mon*%
X169281000Y-74625000D03*
%TD*%
D19*
%TO.P,C101,1*%
%TO.N,Net-(D2-A2)*%
X167730000Y-122300000D03*
%TO.P,C101,2*%
%TO.N,Net-(D2-A1)*%
X169762000Y-122300000D03*
D20*
%TO.P,C101,3*%
%TO.N,GND*%
X168746000Y-122985800D03*
%TO.P,C101,4*%
X168746000Y-121614200D03*
%TD*%
D65*
%TO.P,U22,1*%
%TO.N,Net-(R80-Pad2)*%
X159939000Y-101750000D03*
D66*
%TO.P,U22,2,V-*%
%TO.N,GND*%
X158988999Y-101750000D03*
%TO.P,U22,3,+*%
%TO.N,Net-(U22-+)*%
X158038998Y-101750000D03*
%TO.P,U22,4,-*%
%TO.N,Net-(U22--)*%
X158038998Y-104370000D03*
%TO.P,U22,5,V+*%
%TO.N,+15V*%
X159939000Y-104370000D03*
%TD*%
D11*
%TO.P,D5,1,A1*%
%TO.N,Net-(D5-A1)*%
X156463500Y-53620395D03*
%TO.P,D5,2,A2*%
%TO.N,Net-(D5-A2)*%
X157113500Y-53620395D03*
%TD*%
D24*
%TO.P,R14,1*%
%TO.N,Net-(U12-REF6P6_F)*%
X175525000Y-115250000D03*
%TO.P,R14,2*%
%TO.N,Net-(U12-TSET)*%
X174505000Y-115250000D03*
%TD*%
%TO.P,R74,1*%
%TO.N,Net-(C135-Pad2)*%
X158542000Y-106656000D03*
%TO.P,R74,2*%
%TO.N,Net-(U24--)*%
X157522000Y-106656000D03*
%TD*%
D21*
%TO.P,U33,1,-*%
%TO.N,Net-(D4-A2)*%
X148428043Y-63297501D03*
%TO.P,U33,2,Rg*%
%TO.N,Net-(R56-Pad1)*%
X147158043Y-63297501D03*
%TO.P,U33,3,Rg*%
%TO.N,Net-(R56-Pad2)*%
X145888043Y-63297501D03*
%TO.P,U33,4,+*%
%TO.N,Net-(D4-A1)*%
X144618043Y-63297501D03*
%TO.P,U33,5,Vs-*%
%TO.N,-15V*%
X144618043Y-68247501D03*
%TO.P,U33,6,Ref*%
%TO.N,GND*%
X145888043Y-68247501D03*
%TO.P,U33,7*%
%TO.N,Net-(D8-COM)*%
X147158043Y-68247501D03*
%TO.P,U33,8,Vs+*%
%TO.N,+15V*%
X148428043Y-68247501D03*
%TD*%
D22*
%TO.P,U15,1*%
%TO.N,N/C*%
X177890000Y-136965000D03*
%TO.P,U15,2,-*%
%TO.N,Net-(U15--)*%
X176620000Y-136965000D03*
%TO.P,U15,3,+*%
%TO.N,GND*%
X175350000Y-136965000D03*
%TO.P,U15,4,V-*%
%TO.N,-15V*%
X174080000Y-136965000D03*
%TO.P,U15,5*%
%TO.N,N/C*%
X174080000Y-141915000D03*
%TO.P,U15,6*%
%TO.N,Net-(C75-Pad2)*%
X175350000Y-141915000D03*
%TO.P,U15,7,V+*%
%TO.N,+15V*%
X176620000Y-141915000D03*
%TO.P,U15,8*%
%TO.N,N/C*%
X177890000Y-141915000D03*
%TD*%
D18*
%TO.P,C193,1*%
%TO.N,Net-(U43-VISO)*%
X150240000Y-145250000D03*
%TO.P,C193,2*%
%TO.N,GND*%
X151200000Y-145250000D03*
%TD*%
D25*
%TO.P,C111,1*%
%TO.N,Net-(U4B--)*%
X149439549Y-72262501D03*
%TO.P,C111,2*%
%TO.N,Net-(C111-Pad2)*%
X149439549Y-70712501D03*
%TD*%
D35*
%TO.P,C157,1*%
%TO.N,Net-(U22-+)*%
X148102000Y-111355000D03*
%TO.P,C157,2*%
%TO.N,GND*%
X149652000Y-111355000D03*
%TD*%
D40*
%TO.P,U9,1*%
%TO.N,N/C*%
X166770997Y-71075000D03*
%TO.P,U9,2,-*%
%TO.N,Net-(U9--)*%
X168040997Y-71075000D03*
%TO.P,U9,3,+*%
%TO.N,/DAC/dac_mon*%
X169310997Y-71075000D03*
%TO.P,U9,4,V-*%
%TO.N,-15V*%
X170580997Y-71075000D03*
%TO.P,U9,5*%
%TO.N,N/C*%
X170580997Y-66125000D03*
%TO.P,U9,6*%
%TO.N,Net-(U11-V_{IN})*%
X169310997Y-66125000D03*
%TO.P,U9,7,V+*%
%TO.N,+15V*%
X168040997Y-66125000D03*
%TO.P,U9,8*%
%TO.N,N/C*%
X166770997Y-66125000D03*
%TD*%
D53*
%TO.P,TP5,1,1*%
%TO.N,GND*%
X161971000Y-115673000D03*
%TD*%
D22*
%TO.P,U17,1*%
%TO.N,N/C*%
X163770000Y-136923150D03*
%TO.P,U17,2,-*%
%TO.N,Net-(U17--)*%
X162500000Y-136923150D03*
%TO.P,U17,3,+*%
%TO.N,GND*%
X161230000Y-136923150D03*
%TO.P,U17,4,V-*%
%TO.N,-15V*%
X159960000Y-136923150D03*
%TO.P,U17,5*%
%TO.N,N/C*%
X159960000Y-141873150D03*
%TO.P,U17,6*%
%TO.N,Net-(C85-Pad2)*%
X161230000Y-141873150D03*
%TO.P,U17,7,V+*%
%TO.N,+15V*%
X162500000Y-141873150D03*
%TO.P,U17,8*%
%TO.N,N/C*%
X163770000Y-141873150D03*
%TD*%
D12*
%TO.P,R16,1*%
%TO.N,Net-(D3-A2)*%
X174185000Y-120535000D03*
%TO.P,R16,2*%
%TO.N,/DAC/dac_mon*%
X174185000Y-119515000D03*
%TD*%
D35*
%TO.P,C59,1*%
%TO.N,Net-(U13-REFAP)*%
X175700000Y-157930000D03*
%TO.P,C59,2*%
%TO.N,GND*%
X177250000Y-157930000D03*
%TD*%
D59*
%TO.P,U21,1,IN-*%
%TO.N,Net-(U21-IN-)*%
X144154049Y-84195501D03*
%TO.P,U21,2,VOCM*%
%TO.N,/DCCT ADCs/DCCT Channel 1/drv_vref*%
X144154049Y-85465501D03*
%TO.P,U21,3,VS+*%
%TO.N,+5.3VA*%
X144154049Y-86735501D03*
%TO.P,U21,4,OUT+*%
%TO.N,Net-(U21-OUT+)*%
X144154049Y-88005501D03*
%TO.P,U21,5,OUT-*%
%TO.N,Net-(U21-OUT-)*%
X149488049Y-88005501D03*
%TO.P,U21,6,VS-*%
%TO.N,-5.3VA*%
X149488049Y-86735501D03*
%TO.P,U21,7,PD\u002A*%
%TO.N,+5.3VA*%
X149488049Y-85465501D03*
%TO.P,U21,8,IN+*%
%TO.N,Net-(U21-IN+)*%
X149488049Y-84195501D03*
%TD*%
D11*
%TO.P,D6,1,A1*%
%TO.N,Net-(D6-A1)*%
X162145000Y-119358150D03*
%TO.P,D6,2,A2*%
%TO.N,Net-(D6-A2)*%
X161495000Y-119358150D03*
%TD*%
D24*
%TO.P,R7,1*%
%TO.N,Net-(U5-R_{FB})*%
X172291000Y-74625000D03*
%TO.P,R7,2*%
%TO.N,Net-(C26-Pad1)*%
X171271000Y-74625000D03*
%TD*%
D52*
%TO.P,D11,1,K*%
%TO.N,GND*%
X166797000Y-189866500D03*
%TO.P,D11,2,A*%
%TO.N,Net-(D11-A)*%
X166797000Y-188291500D03*
%TD*%
D28*
%TO.P,MT1,1,1*%
%TO.N,GND*%
X145000000Y-37000000D03*
D29*
X145000000Y-37000000D03*
%TD*%
D10*
%TO.P,C124,1*%
%TO.N,Net-(U23-\u002ASD)*%
X155085000Y-116647999D03*
%TO.P,C124,2*%
%TO.N,Net-(U23-SDC)*%
X154125000Y-116647999D03*
%TD*%
D26*
%TO.P,R40,1*%
%TO.N,Net-(C111-Pad2)*%
X147915549Y-70662501D03*
%TO.P,R40,2*%
%TO.N,Net-(U4B--)*%
X147915549Y-72312501D03*
%TD*%
D18*
%TO.P,C68,1*%
%TO.N,Net-(D3-A2)*%
X175205000Y-120515000D03*
%TO.P,C68,2*%
%TO.N,Net-(D3-A1)*%
X176165000Y-120515000D03*
%TD*%
D67*
%TO.N,GND*%
X146518049Y-55854800D03*
X164250000Y-159000000D03*
X174675000Y-161375000D03*
X165175000Y-47625000D03*
X169981500Y-64125000D03*
X176481500Y-82125000D03*
X143800000Y-111229000D03*
X153970000Y-152730000D03*
X165581500Y-66825000D03*
X146772549Y-84822501D03*
X164881500Y-106625000D03*
X170250000Y-156000000D03*
X167650000Y-180800000D03*
X160910000Y-135343150D03*
X160750000Y-154725000D03*
X168250000Y-156000000D03*
X166797000Y-190984000D03*
X153945000Y-135268150D03*
X171450000Y-86325000D03*
X168130000Y-128700000D03*
X163600000Y-180800000D03*
X166725000Y-90750000D03*
X150000000Y-123200000D03*
X150244549Y-67096501D03*
X162800000Y-180850000D03*
X155600000Y-43000000D03*
X147050000Y-152750000D03*
X170480000Y-167730000D03*
X175275000Y-135400000D03*
X154800000Y-173250000D03*
X170360000Y-143420000D03*
X169175000Y-47575000D03*
X155450000Y-170650000D03*
X168600000Y-152150000D03*
X175180000Y-89450000D03*
X147080000Y-156580000D03*
X154224000Y-90519000D03*
X146180549Y-66588501D03*
X151950000Y-145000000D03*
X170250000Y-160500000D03*
X160490000Y-67078000D03*
X174510000Y-155880000D03*
X177950000Y-85225000D03*
X159340000Y-155120000D03*
X165514000Y-102859000D03*
X148400000Y-121600000D03*
X149652000Y-114022000D03*
X170150000Y-166300000D03*
X145502549Y-77710501D03*
X178125000Y-87625000D03*
X164981500Y-107825000D03*
X154097000Y-117578000D03*
X158850000Y-180750000D03*
X156450000Y-143230000D03*
X144800000Y-145250000D03*
X156400000Y-43075000D03*
X167432000Y-113006000D03*
X167845000Y-135385000D03*
X171781500Y-66725000D03*
X164250000Y-162000000D03*
X157018000Y-83034000D03*
X164750000Y-108625000D03*
X171550000Y-47600000D03*
X156426000Y-66570000D03*
X142200000Y-172300000D03*
X165160000Y-149370000D03*
X161971000Y-115673000D03*
X152865000Y-140098150D03*
X170775000Y-42775000D03*
X163410000Y-143410000D03*
X170250000Y-157500000D03*
X146391549Y-78980501D03*
X175375000Y-98525000D03*
X164892000Y-190984000D03*
X155918000Y-76668000D03*
X161209000Y-106783000D03*
X172581500Y-59225000D03*
X144994549Y-89013501D03*
X156891000Y-76803000D03*
X168380000Y-109100000D03*
X177825000Y-135225000D03*
X170850000Y-99850000D03*
X174150000Y-116250000D03*
X172004000Y-108688000D03*
X162000000Y-180700000D03*
X152954000Y-88741000D03*
X168250000Y-162000000D03*
X145775000Y-127275000D03*
X143300000Y-170650000D03*
X175681500Y-60525000D03*
X174825000Y-153825000D03*
X154224000Y-106783000D03*
X168250000Y-157500000D03*
X166925000Y-99650000D03*
X143978549Y-90537501D03*
X160714000Y-96890000D03*
X159784000Y-97921000D03*
X156665000Y-139398150D03*
X168670000Y-166210000D03*
X146200000Y-131200000D03*
X166800000Y-180750000D03*
X148600000Y-152400000D03*
X161175000Y-43050000D03*
X143375000Y-117700000D03*
X164400000Y-43000000D03*
X161975000Y-47325000D03*
X178700000Y-45000000D03*
X177185000Y-118665000D03*
X147280000Y-131170000D03*
X147675000Y-102650000D03*
X149500000Y-103100000D03*
X161006000Y-78200000D03*
X169500000Y-149390000D03*
X170675000Y-148535000D03*
X168250000Y-159000000D03*
X147650000Y-170650000D03*
X177825000Y-94750000D03*
X173281500Y-64425000D03*
X165075000Y-166750000D03*
X160955000Y-88360000D03*
X150760549Y-78218501D03*
X157175000Y-43050000D03*
X147575000Y-100125000D03*
X149200000Y-167550000D03*
X166000000Y-47725000D03*
X153150000Y-181650000D03*
X166250000Y-162000000D03*
X149693549Y-93839501D03*
X177125000Y-156900000D03*
X175625000Y-152425000D03*
X154050000Y-170550000D03*
X161811000Y-122293950D03*
X164150000Y-148525000D03*
X145756549Y-78472501D03*
X166250000Y-159000000D03*
X163175000Y-166350000D03*
X150595549Y-93445501D03*
X156763500Y-55833395D03*
X148400000Y-180950000D03*
X166775000Y-42775000D03*
X164250000Y-160500000D03*
X156637000Y-78962000D03*
X169481500Y-60625000D03*
X152108000Y-65300000D03*
X170565000Y-139515000D03*
X166650000Y-166200000D03*
X160841000Y-93427000D03*
X156916400Y-112244000D03*
X161195000Y-128658150D03*
X148250000Y-160600000D03*
X169181500Y-69225000D03*
X154775000Y-47725000D03*
X148110000Y-129190000D03*
X149350000Y-116775000D03*
X166250000Y-157500000D03*
X168400000Y-180800000D03*
X150541000Y-111355000D03*
X151006549Y-65318501D03*
X146825000Y-127275000D03*
X146280000Y-127670000D03*
X170250000Y-159000000D03*
X175056500Y-86850000D03*
X177500000Y-97325000D03*
X159558000Y-90519000D03*
X145750000Y-128075000D03*
X155367000Y-117811000D03*
X170250000Y-162000000D03*
X157130000Y-135080000D03*
X161195000Y-132508150D03*
X169281500Y-75525000D03*
X147175000Y-123500000D03*
X142200000Y-169000000D03*
X159600000Y-47550000D03*
X158000000Y-173250000D03*
X166765000Y-140215000D03*
X148950000Y-163600000D03*
X146576000Y-83062000D03*
X170000000Y-173150000D03*
X163368000Y-102846000D03*
X160400000Y-180750000D03*
X161300000Y-163880000D03*
X167575000Y-42800000D03*
X154500000Y-167900000D03*
X168130000Y-132550000D03*
X149200000Y-177600000D03*
X159600000Y-180800000D03*
X142708549Y-88759501D03*
X149312549Y-90537501D03*
X159939000Y-93821000D03*
X164845000Y-130708150D03*
X166320000Y-149390000D03*
X159812000Y-73501000D03*
X166250000Y-160500000D03*
X165045000Y-128708150D03*
X168425000Y-47175000D03*
X144650000Y-142650000D03*
X167081500Y-105025000D03*
X169975000Y-42775000D03*
X169200000Y-176650000D03*
X155675000Y-128625000D03*
X172850000Y-139500000D03*
X175235000Y-132565000D03*
X153124000Y-67078000D03*
X158000000Y-43075000D03*
X166381500Y-101625000D03*
X152573000Y-93702000D03*
X164250000Y-157500000D03*
X171575000Y-42725000D03*
X166250000Y-156000000D03*
X170950000Y-93050000D03*
X163630000Y-139473150D03*
X159050000Y-100560000D03*
X167381500Y-103125000D03*
X171881500Y-56825000D03*
X168746000Y-122335800D03*
X160375000Y-43050000D03*
X151850000Y-142550000D03*
X144191000Y-95099000D03*
X154846000Y-122218950D03*
X170081500Y-72725000D03*
X154825000Y-46600000D03*
X142921000Y-95861000D03*
X175685000Y-122290000D03*
X167081500Y-64525000D03*
X142878549Y-67096501D03*
X177685000Y-139565000D03*
X154230000Y-128583150D03*
X168400000Y-173150000D03*
X167081500Y-55925000D03*
X161200000Y-180700000D03*
X149566549Y-73519501D03*
X163600000Y-43025000D03*
X171780000Y-130750000D03*
X176181500Y-63925000D03*
X170885000Y-90935000D03*
X154000000Y-180850000D03*
X150922000Y-88495000D03*
X145200000Y-106575000D03*
X177250000Y-158800000D03*
X161252000Y-65300000D03*
X146645549Y-76821501D03*
X158348000Y-187100000D03*
X141800000Y-45100000D03*
X165481500Y-58225000D03*
X175135000Y-128665000D03*
X152400000Y-181050000D03*
X156002000Y-78454000D03*
X155240000Y-88995000D03*
X154800000Y-180700000D03*
X174620000Y-162880000D03*
X167981500Y-78025000D03*
X149398000Y-115292000D03*
X146250000Y-124300000D03*
X166670000Y-93448000D03*
X150300000Y-126600000D03*
X150795000Y-97004000D03*
X143850000Y-112854000D03*
X155748000Y-77692000D03*
X172181500Y-72825000D03*
X167650000Y-148535000D03*
X155450000Y-169050000D03*
X141400000Y-166700000D03*
X171980000Y-128750000D03*
X142200000Y-159800000D03*
X143683000Y-109831000D03*
X162775000Y-47475000D03*
X159830000Y-140173150D03*
X155600000Y-180750000D03*
X145672549Y-76686501D03*
X176665000Y-106585000D03*
X176675000Y-128650000D03*
X169200000Y-180700000D03*
X157200000Y-47650000D03*
X160370000Y-156150000D03*
X175281500Y-69125000D03*
X156764000Y-108815000D03*
X146800000Y-128100000D03*
X177281500Y-80825000D03*
X157018000Y-84804000D03*
X175781500Y-72525000D03*
X147550000Y-167900000D03*
X168250000Y-160500000D03*
X150050000Y-170550000D03*
X154478000Y-102084000D03*
X141850000Y-163700000D03*
X164250000Y-156000000D03*
X159900000Y-153525000D03*
X154230000Y-132433150D03*
X163600000Y-173100000D03*
X177685000Y-143465000D03*
X143048000Y-64238000D03*
X169464000Y-111609000D03*
X170800000Y-117050000D03*
%TO.N,-15V*%
X177081500Y-63925000D03*
X152930000Y-132483150D03*
X173981500Y-82125000D03*
X152865000Y-135248150D03*
X170781500Y-64125000D03*
X166830000Y-132600000D03*
X174100000Y-135350000D03*
X170981500Y-72625000D03*
X166650000Y-98525000D03*
X162800000Y-46275000D03*
X176781500Y-72525000D03*
X176375000Y-85200000D03*
X166765000Y-135365000D03*
X159895000Y-132558150D03*
X173835000Y-132615000D03*
X154902000Y-66316000D03*
X144656549Y-66334501D03*
X175175000Y-87700000D03*
X162000000Y-46300000D03*
X159830000Y-135323150D03*
X161725000Y-154725000D03*
%TO.N,+15V*%
X163795000Y-132558150D03*
X164781000Y-113594000D03*
X158712000Y-66062000D03*
X177750000Y-132525000D03*
X174161500Y-55845000D03*
X161082000Y-104370000D03*
X148466549Y-66080501D03*
X162530000Y-143273150D03*
X168031500Y-64475000D03*
X168061500Y-55845000D03*
X169465000Y-143315000D03*
X156830000Y-132483150D03*
X174181500Y-64425000D03*
X170730000Y-132600000D03*
X175000000Y-94750000D03*
X168241000Y-115041000D03*
X148000000Y-125550000D03*
X170381500Y-75725000D03*
X169200000Y-88750000D03*
X176635000Y-143465000D03*
X173050000Y-154675000D03*
X153970000Y-114276000D03*
X154351000Y-109704000D03*
X158800000Y-46400000D03*
X159625000Y-46512500D03*
X145300000Y-131125000D03*
X155565000Y-143198150D03*
X176000000Y-99500000D03*
%TO.N,+3.3V*%
X156350000Y-181600000D03*
X167675000Y-166275000D03*
X171500000Y-101500000D03*
X157950000Y-181650000D03*
X160370000Y-160680000D03*
X157150000Y-181550000D03*
X169175000Y-90125000D03*
X160342902Y-159128077D03*
X168448000Y-92686000D03*
%TO.N,+5.0V*%
X143250000Y-167850000D03*
X143936079Y-156399252D03*
X153700000Y-169750000D03*
X150150000Y-167800000D03*
X165950000Y-181350000D03*
X148650000Y-154900000D03*
X160360000Y-162000000D03*
X165150000Y-152100000D03*
X165150000Y-181300000D03*
X164350000Y-181250000D03*
X174520000Y-156880000D03*
X143900000Y-169850000D03*
X160290000Y-156930000D03*
X169650000Y-152075000D03*
X166650000Y-151970000D03*
%TO.N,Net-(C109-Pad2)*%
X150963549Y-69582501D03*
X143343549Y-69582501D03*
%TO.N,/DAC/syncn*%
X157175000Y-172625000D03*
X179200000Y-167375000D03*
X175960000Y-90100000D03*
%TO.N,/Isolated Digital IO/dout_iso_gnd*%
X148050000Y-161400000D03*
X152400000Y-42750000D03*
X154000000Y-42750000D03*
X151600000Y-42700000D03*
X153200000Y-42750000D03*
X148700000Y-150000000D03*
%TO.N,/Isolated Digital IO/dout0_iso*%
X145600000Y-157250000D03*
X145060000Y-159350000D03*
%TO.N,/Isolated Digital IO/dout1_iso*%
X148832600Y-159600000D03*
X142300000Y-132900000D03*
X143550000Y-132950000D03*
X145800000Y-133350000D03*
%TO.N,/Isolated Digital IO/dout2_iso*%
X141800000Y-135850000D03*
X144650000Y-136100000D03*
X146198200Y-145498200D03*
X144770000Y-147600000D03*
%TO.N,/Isolated Digital IO/dout3_iso*%
X147200000Y-145400000D03*
X141600000Y-137900000D03*
X145300000Y-138650000D03*
%TO.N,/Isolated Digital IO/din_iso_gnd*%
X143900000Y-152000000D03*
X150000000Y-47100000D03*
X148400000Y-47100000D03*
X150850000Y-47100000D03*
X141050000Y-162450000D03*
X154050000Y-162750000D03*
X149250000Y-47100000D03*
%TO.N,/Isolated Digital IO/din1_iso*%
X155561700Y-159650000D03*
X148175000Y-134150000D03*
X153175000Y-47650000D03*
%TO.N,/Isolated Digital IO/din0_iso*%
X153974528Y-47677570D03*
X152150000Y-157250000D03*
X147100000Y-132800000D03*
X151850000Y-163300000D03*
%TO.N,/Isolated Digital IO/din3_iso*%
X151627245Y-47729199D03*
X148750000Y-137075505D03*
X155550000Y-148150000D03*
%TO.N,/Isolated Digital IO/din2_iso*%
X152374220Y-47442784D03*
X151790000Y-148440000D03*
X152200000Y-146200000D03*
X149100000Y-135650000D03*
%TO.N,/DAC/sclk*%
X178400000Y-168925000D03*
X155600000Y-172275000D03*
X175056500Y-90750000D03*
%TO.N,/DAC/sdin*%
X177675000Y-170175000D03*
X175381500Y-91625000D03*
X156450000Y-171450000D03*
%TO.N,/FPGA connector/dout1*%
X145650000Y-173300000D03*
%TO.N,/FPGA connector/din3*%
X154100000Y-177600000D03*
%TO.N,/FPGA connector/dout3*%
X147400000Y-171500000D03*
%TO.N,/FPGA connector/mon_reset*%
X160275000Y-159875000D03*
%TO.N,/FPGA connector/din1*%
X152350000Y-172900000D03*
%TO.N,/FPGA connector/mon_fs*%
X159710000Y-161370000D03*
%TO.N,/FPGA connector/dout2*%
X146250000Y-172550000D03*
%TO.N,/FPGA connector/din0*%
X151875000Y-176425000D03*
%TO.N,/FPGA connector/mon_convert*%
X176275000Y-172475000D03*
X175375000Y-159475000D03*
X159525000Y-172475000D03*
%TO.N,/DCCT ADCs/dcct_sck*%
X160525000Y-168350000D03*
X165950000Y-168475000D03*
X150160000Y-98892000D03*
X157399000Y-98655000D03*
%TO.N,/FPGA connector/mon_sdo*%
X164175000Y-166475000D03*
%TO.N,/FPGA connector/din2*%
X153250000Y-176250000D03*
%TO.N,/DCCT ADCs/dcct_cnv*%
X159750000Y-168975000D03*
X164275000Y-168975000D03*
X155494000Y-99180000D03*
X150795000Y-99417000D03*
%TO.N,/FPGA connector/mon_busy*%
X175179000Y-173077000D03*
X160574000Y-172950000D03*
X175625000Y-162000000D03*
%TO.N,/FPGA connector/mon_sclk*%
X166075000Y-167000000D03*
%TO.N,/DCCT ADCs/dcct_busy*%
X146223000Y-98147000D03*
X156500000Y-170475000D03*
X165225000Y-170125000D03*
%TO.N,/FPGA connector/dout0*%
X144925001Y-172750000D03*
%TO.N,/Monitor ADCs/monitor_ignd+*%
X167045000Y-118675000D03*
%TO.N,/Monitor ADCs/monitor_ignd-*%
X170445000Y-118675000D03*
%TO.N,/DAC/dac_vout-*%
X164400000Y-51050000D03*
%TO.N,/Monitor ADCs/monitor_spare+*%
X160110000Y-118633150D03*
%TO.N,/Monitor ADCs/monitor_spare-*%
X163510000Y-118633150D03*
%TO.N,/Monitor ADCs/monitor_vout+*%
X161209197Y-110999155D03*
%TO.N,/Monitor ADCs/monitor_vout-*%
X161971000Y-111101000D03*
%TO.N,Net-(U12-BUF_INP)*%
X163368000Y-107225000D03*
X172081500Y-106825000D03*
%TO.N,+5.3VA*%
X149820549Y-62724501D03*
X147534549Y-74281501D03*
X157780000Y-74263000D03*
X160066000Y-62706000D03*
X147788549Y-85584501D03*
X165225000Y-46325000D03*
X156002000Y-86582000D03*
X145461000Y-86735501D03*
X147800000Y-104000000D03*
X158034000Y-85566000D03*
X166000000Y-46350000D03*
%TO.N,-5.3VA*%
X152700000Y-78200000D03*
X158034000Y-86709000D03*
X169225000Y-46375000D03*
X143216549Y-62724501D03*
X148128000Y-86735501D03*
X142794000Y-78218501D03*
X153462000Y-62706000D03*
X168450000Y-46350000D03*
%TO.N,+2.5V*%
X148001000Y-92781952D03*
X170000000Y-181200000D03*
X170800000Y-181200000D03*
X171600000Y-181200000D03*
X158288000Y-92805000D03*
%TO.N,+1.8V*%
X153700000Y-171300000D03*
X158288000Y-97758000D03*
X143900000Y-171550000D03*
X150800000Y-181150000D03*
X150000000Y-181100000D03*
X151600000Y-181000000D03*
X149017000Y-97893000D03*
%TO.N,/DCCT ADCs/dcct1-*%
X170850000Y-50925000D03*
%TO.N,/DCCT ADCs/dcct1+*%
X170000000Y-47625000D03*
%TO.N,/DCCT ADCs/DCCT Channel 1/drv_vref*%
X145842000Y-84939000D03*
X152065000Y-84558000D03*
X156129000Y-84939000D03*
%TO.N,Net-(U39-VISO)*%
X143240000Y-159400000D03*
%TO.N,Net-(U42-VISO)*%
X150160000Y-159530000D03*
%TO.N,/DCCT ADCs/dcct0-*%
X167650000Y-47700000D03*
%TO.N,/DCCT ADCs/dcct0+*%
X166825000Y-47625000D03*
%TO.N,/DCCT ADCs/dcct1_sdo*%
X158161000Y-99163000D03*
X161250000Y-167775000D03*
X166510000Y-167775000D03*
%TO.N,/DCCT ADCs/dcct0_sdo*%
X166625000Y-169725000D03*
X147747000Y-98401000D03*
X158900000Y-169125000D03*
%TO.N,Net-(U38-B4Y)*%
X145750000Y-153050000D03*
X147250000Y-169300000D03*
%TO.N,Net-(U38-B3Y)*%
X146550000Y-168500000D03*
X144450000Y-153200000D03*
%TO.N,Net-(U41-A3)*%
X151400000Y-153050000D03*
X151000000Y-168300000D03*
%TO.N,Net-(U41-A4)*%
X150100000Y-169000000D03*
X152750000Y-153200000D03*
%TO.N,Net-(C110-Pad2)*%
X161209000Y-69564000D03*
X153589000Y-69564000D03*
%TO.N,Net-(C111-Pad2)*%
X149820549Y-69582501D03*
X150582549Y-75678501D03*
%TO.N,Net-(C112-Pad2)*%
X160828000Y-75660000D03*
X160066000Y-69564000D03*
%TO.N,Net-(D8-COM)*%
X147153549Y-66280501D03*
%TO.N,Net-(D9-COM)*%
X157399000Y-66262000D03*
%TO.N,Net-(C135-Pad2)*%
X153335000Y-101830000D03*
%TO.N,Net-(U22-+)*%
X155621000Y-101197000D03*
X152319000Y-104243000D03*
%TO.N,/DAC/dac_vout+*%
X163600000Y-51075000D03*
%TO.N,/DCCT ADCs/adc_vref*%
X145461000Y-92686000D03*
X155494000Y-93041000D03*
X153335000Y-94337000D03*
%TO.N,Net-(J2-Pad59)*%
X166797000Y-183872000D03*
%TO.N,Net-(J2-Pad57)*%
X165019000Y-183745000D03*
%TD*%
D68*
%TO.N,Net-(D5-A2)*%
X157263500Y-57761000D02*
X158038494Y-57761000D01*
X158038494Y-57761000D02*
X158673494Y-58396000D01*
X158673494Y-63279000D02*
X158673494Y-58396000D01*
%TO.N,Net-(D5-A1)*%
X155494000Y-57761000D02*
X154859000Y-58396000D01*
X156303500Y-57761000D02*
X155494000Y-57761000D01*
X154859000Y-58396000D02*
X154863494Y-58400494D01*
X154863494Y-58400494D02*
X154863494Y-63279000D01*
D69*
%TO.N,Net-(R36-Pad1)*%
X157613500Y-60659000D02*
X157613500Y-59197500D01*
X157613500Y-59197500D02*
X157653000Y-59158000D01*
%TO.N,Net-(R36-Pad2)*%
X155963500Y-60659000D02*
X155963500Y-59197500D01*
X155963500Y-59197500D02*
X156003000Y-59158000D01*
D68*
%TO.N,Net-(D5-A2)*%
X157779500Y-55834595D02*
X157779500Y-56618500D01*
X157779500Y-56618500D02*
X157263500Y-57134500D01*
X157263500Y-57134500D02*
X157263500Y-57761000D01*
%TO.N,Net-(D5-A1)*%
X155747500Y-55834595D02*
X155747500Y-56617500D01*
X155747500Y-56617500D02*
X156303500Y-57173500D01*
X156303500Y-57173500D02*
X156303500Y-57761000D01*
%TO.N,/DCCT ADCs/dcct1-*%
X157645396Y-50150000D02*
X156764000Y-51031396D01*
X156764000Y-51538000D02*
X158161000Y-52935000D01*
X168825000Y-50150000D02*
X157645396Y-50150000D01*
X156764000Y-51031396D02*
X156764000Y-51538000D01*
X169250000Y-49725000D02*
X168825000Y-50150000D01*
X169650000Y-49725000D02*
X169250000Y-49725000D01*
X170850000Y-50925000D02*
X169650000Y-49725000D01*
X158161000Y-52935000D02*
X158161000Y-53200395D01*
%TO.N,/DCCT ADCs/dcct1+*%
X170000000Y-47625000D02*
X170000000Y-48824000D01*
X169042480Y-49224000D02*
X168617480Y-49649000D01*
X170000000Y-48824000D02*
X169600000Y-49224000D01*
X169600000Y-49224000D02*
X169042480Y-49224000D01*
X168617480Y-49649000D02*
X157510000Y-49649000D01*
X157510000Y-49649000D02*
X155367000Y-51792000D01*
X155367000Y-51792000D02*
X155367000Y-53200395D01*
%TO.N,/DCCT ADCs/dcct0-*%
X147874000Y-53221800D02*
X147874000Y-52935000D01*
X147874000Y-52935000D02*
X146985000Y-52046000D01*
X146985000Y-52046000D02*
X146985000Y-51538000D01*
X146985000Y-51538000D02*
X147424000Y-51099000D01*
X147424000Y-51099000D02*
X154028000Y-51099000D01*
X154028000Y-51099000D02*
X156126000Y-49001000D01*
X156126000Y-49001000D02*
X166874000Y-49001000D01*
X166874000Y-49001000D02*
X167650000Y-48225000D01*
X167650000Y-48225000D02*
X167650000Y-47700000D01*
%TO.N,/DCCT ADCs/dcct0+*%
X166825000Y-47625000D02*
X166825000Y-47820654D01*
X166825000Y-47820654D02*
X166145654Y-48500000D01*
X166145654Y-48500000D02*
X155865000Y-48500000D01*
X155865000Y-48500000D02*
X153716000Y-50649000D01*
X146477000Y-51284000D02*
X146477000Y-51538000D01*
X153716000Y-50649000D02*
X147112000Y-50649000D01*
X147112000Y-50649000D02*
X146477000Y-51284000D01*
X146477000Y-51538000D02*
X145207000Y-52808000D01*
X145207000Y-52808000D02*
X145207000Y-53246299D01*
%TO.N,Net-(D4-A2)*%
X147534049Y-55856000D02*
X147534049Y-56830951D01*
X147534049Y-56830951D02*
X147018049Y-57346951D01*
X147018049Y-57346951D02*
X147018049Y-57761000D01*
%TO.N,Net-(D4-A1)*%
X145502049Y-55856000D02*
X145502049Y-56786049D01*
X145502049Y-56786049D02*
X146058049Y-57342049D01*
X146058049Y-57342049D02*
X146058049Y-57761000D01*
%TO.N,Net-(D4-A2)*%
X147018049Y-57761000D02*
X147493000Y-57761000D01*
X147493000Y-57761000D02*
X147874000Y-57761000D01*
X147874000Y-57761000D02*
X148428043Y-58315043D01*
X148428043Y-58315043D02*
X148428043Y-63297501D01*
%TO.N,Net-(D4-A1)*%
X146058049Y-57761000D02*
X145207000Y-57761000D01*
X145207000Y-57761000D02*
X144618043Y-58349957D01*
X144618043Y-58349957D02*
X144618043Y-63297501D01*
D69*
%TO.N,Net-(R56-Pad1)*%
X147368049Y-60677501D02*
X147368049Y-59160049D01*
X147368049Y-59160049D02*
X147366000Y-59158000D01*
%TO.N,Net-(R56-Pad2)*%
X145718049Y-60677501D02*
X145718049Y-59160049D01*
X145718049Y-59160049D02*
X145716000Y-59158000D01*
%TO.N,GND*%
X146518049Y-56541800D02*
X146518049Y-55854800D01*
X146518049Y-55854800D02*
X146518049Y-55170200D01*
D68*
%TO.N,Net-(D4-A1)*%
X145207000Y-54266299D02*
X145502049Y-54561348D01*
X146218049Y-53641800D02*
X146218049Y-53890250D01*
X145842000Y-54266299D02*
X145207000Y-54266299D01*
X145502049Y-54561348D02*
X145502049Y-55856000D01*
X146218049Y-53890250D02*
X145842000Y-54266299D01*
%TO.N,Net-(D4-A2)*%
X147214501Y-54241800D02*
X147874000Y-54241800D01*
X146868049Y-53641800D02*
X146868049Y-53895348D01*
X147874000Y-54520299D02*
X147534049Y-54860250D01*
X147874000Y-54241800D02*
X147874000Y-54520299D01*
X147534049Y-54860250D02*
X147534049Y-55856000D01*
X146868049Y-53895348D02*
X147214501Y-54241800D01*
%TO.N,GND*%
X170150000Y-153460000D02*
X170150000Y-155900000D01*
X150700000Y-125400000D02*
X150700000Y-126200000D01*
X174135000Y-116235000D02*
X174150000Y-116250000D01*
D69*
X154015900Y-170515900D02*
X154050000Y-170550000D01*
D68*
X150760549Y-78218501D02*
X149163549Y-78218501D01*
X170675000Y-149365000D02*
X170675000Y-148535000D01*
X147674997Y-102650003D02*
X147675000Y-102650000D01*
X154000000Y-166063800D02*
X154000000Y-167400000D01*
X161730000Y-157380000D02*
X164130000Y-157380000D01*
X175180000Y-89450000D02*
X175230000Y-89450000D01*
D69*
X158644002Y-96230402D02*
X157758600Y-95345000D01*
X145698548Y-96815901D02*
X145698548Y-96213501D01*
X165150000Y-166675000D02*
X165075000Y-166750000D01*
D68*
X175481500Y-72225000D02*
X175781500Y-72525000D01*
X149290000Y-117700000D02*
X149290000Y-116835000D01*
X158644002Y-95147817D02*
X158446819Y-95345000D01*
X147050000Y-166063800D02*
X147050000Y-167400000D01*
X154000000Y-167400000D02*
X154500000Y-167900000D01*
X155748000Y-187050000D02*
X158298000Y-187050000D01*
X161730000Y-162880000D02*
X161730000Y-162380000D01*
X168241000Y-105124500D02*
X167181000Y-105124500D01*
D69*
X174625000Y-162875000D02*
X174620000Y-162880000D01*
D68*
X173070000Y-156380000D02*
X170630000Y-156380000D01*
D69*
X173643500Y-86850000D02*
X175056500Y-86850000D01*
D68*
X166650000Y-155600000D02*
X166250000Y-156000000D01*
X164650000Y-153460000D02*
X164650000Y-155600000D01*
D69*
X165150000Y-164800000D02*
X165150000Y-163100000D01*
D68*
X144890000Y-109831000D02*
X143683000Y-109831000D01*
X168746000Y-121614200D02*
X168746000Y-122335800D01*
X154530500Y-91289000D02*
X154530500Y-90825500D01*
D69*
X173070000Y-161380000D02*
X171130000Y-161380000D01*
D68*
X168650000Y-152200000D02*
X168600000Y-152150000D01*
D69*
X171130000Y-162880000D02*
X170250000Y-162000000D01*
X163650000Y-164800000D02*
X163650000Y-165875000D01*
D68*
X155656000Y-76930000D02*
X154459000Y-76930000D01*
X165650000Y-155400000D02*
X166250000Y-156000000D01*
X175205000Y-132535000D02*
X175235000Y-132565000D01*
X160235000Y-156285000D02*
X160370000Y-156150000D01*
X145888043Y-68247501D02*
X145888043Y-66881007D01*
D69*
X175081500Y-86825000D02*
X175056500Y-86850000D01*
D68*
X146264549Y-79107501D02*
X146391549Y-78980501D01*
X175370000Y-98530000D02*
X175375000Y-98525000D01*
X146280000Y-124330000D02*
X146250000Y-124300000D01*
X144960000Y-111229000D02*
X143800000Y-111229000D01*
D69*
X169650000Y-164800000D02*
X170150000Y-164800000D01*
X165150000Y-163100000D02*
X166250000Y-162000000D01*
D68*
X175350000Y-135475000D02*
X175275000Y-135400000D01*
X159340000Y-156285000D02*
X160235000Y-156285000D01*
X163870000Y-156380000D02*
X164250000Y-156000000D01*
X158988999Y-101750000D02*
X158988999Y-100621001D01*
X161730000Y-160880000D02*
X163870000Y-160880000D01*
X164130000Y-157380000D02*
X164250000Y-157500000D01*
X163870000Y-160880000D02*
X164250000Y-160500000D01*
X158988999Y-100621001D02*
X159050000Y-100560000D01*
X154478000Y-102846000D02*
X154478000Y-102084000D01*
X144650000Y-143750000D02*
X144650000Y-142650000D01*
X169150000Y-153460000D02*
X169150000Y-155100000D01*
D69*
X166650000Y-162400000D02*
X166250000Y-162000000D01*
D68*
X154265000Y-135588150D02*
X153945000Y-135268150D01*
D69*
X156715448Y-94884340D02*
X156715448Y-94991447D01*
X156394001Y-94670000D02*
X157069001Y-95345000D01*
D68*
X173070000Y-158880000D02*
X170370000Y-158880000D01*
X156510000Y-79089000D02*
X156637000Y-78962000D01*
D69*
X146148550Y-93911101D02*
X146148550Y-94688501D01*
D68*
X159558000Y-90519000D02*
X159453500Y-90623500D01*
X149678000Y-113996000D02*
X149652000Y-114022000D01*
X143600000Y-45100000D02*
X141800000Y-45100000D01*
X167181000Y-105124500D02*
X167081500Y-105025000D01*
X144080000Y-145250000D02*
X144800000Y-145250000D01*
X168165000Y-136965000D02*
X168165000Y-135705000D01*
X145224999Y-106599999D02*
X145200000Y-106575000D01*
X174781500Y-106585000D02*
X176665000Y-106585000D01*
X168746000Y-122985800D02*
X168746000Y-122335800D01*
X159453500Y-91289000D02*
X159453500Y-90623500D01*
X148410000Y-119850000D02*
X148410000Y-121590000D01*
D69*
X147498550Y-94688501D02*
X146823550Y-95363501D01*
D68*
X156510000Y-80106000D02*
X156510000Y-79089000D01*
X154846000Y-122868950D02*
X154846000Y-122218950D01*
X170370000Y-157380000D02*
X170250000Y-157500000D01*
D70*
X149290000Y-116835000D02*
X149350000Y-116775000D01*
D69*
X170150000Y-164800000D02*
X170650000Y-164800000D01*
D68*
X166150000Y-155900000D02*
X166250000Y-156000000D01*
X168165000Y-135705000D02*
X167845000Y-135385000D01*
D70*
X150010000Y-124075000D02*
X150010000Y-123210000D01*
D69*
X147513149Y-95363501D02*
X146823550Y-95363501D01*
X166650000Y-166200000D02*
X166650000Y-166225000D01*
D68*
X161811000Y-121572350D02*
X161811000Y-122293950D01*
X173375000Y-116235000D02*
X174135000Y-116235000D01*
D70*
X146427101Y-170625300D02*
X147625300Y-170625300D01*
D68*
X168650000Y-153460000D02*
X168650000Y-152200000D01*
X167918500Y-90750000D02*
X166725000Y-90750000D01*
D69*
X163650000Y-165875000D02*
X163175000Y-166350000D01*
X164150000Y-164800000D02*
X164150000Y-162100000D01*
D68*
X162987000Y-102465000D02*
X163368000Y-102846000D01*
X168355000Y-109125000D02*
X168380000Y-109100000D01*
X147280000Y-129820000D02*
X147280000Y-131170000D01*
X151850000Y-143800000D02*
X151850000Y-142550000D01*
D69*
X148398551Y-93911101D02*
X148398551Y-94513501D01*
D68*
X144960000Y-112879000D02*
X143875000Y-112879000D01*
D69*
X157744001Y-94670000D02*
X157069001Y-95345000D01*
D68*
X147565000Y-100135000D02*
X147575000Y-100125000D01*
D69*
X156763500Y-55833395D02*
X156763500Y-55148795D01*
D70*
X147625300Y-170625300D02*
X147650000Y-170650000D01*
D69*
X170650000Y-164800000D02*
X171150000Y-164800000D01*
X155943999Y-96195000D02*
X156793999Y-95345000D01*
X156844000Y-95570001D02*
X157069001Y-95345000D01*
D68*
X170800000Y-116200000D02*
X170800000Y-117050000D01*
D70*
X150010000Y-123210000D02*
X150000000Y-123200000D01*
D68*
X176665000Y-106585000D02*
X176675000Y-106575000D01*
X146250000Y-123605000D02*
X146280000Y-123575000D01*
X145888043Y-66881007D02*
X146180549Y-66588501D01*
X158298000Y-187050000D02*
X158348000Y-187100000D01*
X177000000Y-45000000D02*
X178700000Y-45000000D01*
D69*
X164150000Y-162100000D02*
X164250000Y-162000000D01*
D68*
X173351000Y-98530000D02*
X175370000Y-98530000D01*
X144285049Y-90844001D02*
X143978549Y-90537501D01*
D69*
X168150000Y-164800000D02*
X168650000Y-164800000D01*
X156394001Y-93892600D02*
X156394001Y-94562893D01*
D68*
X175481500Y-70940000D02*
X175481500Y-72225000D01*
X144285049Y-91307501D02*
X144285049Y-90844001D01*
X177250000Y-157930000D02*
X177250000Y-158800000D01*
X149140000Y-115550000D02*
X149398000Y-115292000D01*
X145672549Y-76686501D02*
X145410549Y-76948501D01*
X153970000Y-154913800D02*
X153970000Y-152730000D01*
D69*
X173070000Y-162880000D02*
X174620000Y-162880000D01*
D68*
X149208049Y-91307501D02*
X149208049Y-90642001D01*
X156916400Y-112244000D02*
X156916400Y-113047001D01*
D69*
X146598549Y-95588502D02*
X146823550Y-95363501D01*
X174670000Y-161380000D02*
X174675000Y-161375000D01*
D68*
X161811000Y-122943950D02*
X161811000Y-122293950D01*
X146875000Y-122275000D02*
X146875000Y-123200000D01*
X156133494Y-68229000D02*
X156133494Y-66862506D01*
D69*
X147498550Y-93911101D02*
X147498550Y-94688501D01*
D68*
X167650000Y-149365000D02*
X167650000Y-148535000D01*
X175350000Y-136965000D02*
X175350000Y-135475000D01*
X146250000Y-124300000D02*
X146250000Y-123605000D01*
X146750000Y-102650003D02*
X147674997Y-102650003D01*
X175205000Y-130965000D02*
X175205000Y-132535000D01*
X148398551Y-96815901D02*
X148398551Y-95560684D01*
X146264549Y-80124501D02*
X146264549Y-79107501D01*
X149652000Y-111355000D02*
X150541000Y-111355000D01*
D69*
X156763500Y-56520395D02*
X156763500Y-55833395D01*
D68*
X148398551Y-95560684D02*
X148201368Y-95363501D01*
D69*
X146598549Y-96815901D02*
X146598549Y-95588502D01*
D68*
X166780500Y-109125000D02*
X168355000Y-109125000D01*
X175230000Y-89450000D02*
X175240000Y-89460000D01*
X163870000Y-162380000D02*
X164250000Y-162000000D01*
X170150000Y-155900000D02*
X170250000Y-156000000D01*
D69*
X168650000Y-164800000D02*
X168650000Y-162400000D01*
D68*
X175685000Y-121568400D02*
X175685000Y-122290000D01*
X166150000Y-153460000D02*
X166150000Y-155900000D01*
X155918000Y-76668000D02*
X155656000Y-76930000D01*
X173070000Y-155880000D02*
X174510000Y-155880000D01*
X170370000Y-158880000D02*
X170250000Y-159000000D01*
X148410000Y-121590000D02*
X148400000Y-121600000D01*
D69*
X171130000Y-161380000D02*
X170250000Y-160500000D01*
D68*
X151700000Y-145250000D02*
X151950000Y-145000000D01*
X149312549Y-90537501D02*
X149208049Y-90642001D01*
X144800000Y-145250000D02*
X144850000Y-145250000D01*
X154846000Y-121497350D02*
X154846000Y-122218950D01*
D69*
X157758600Y-95345000D02*
X157069001Y-95345000D01*
X168650000Y-164800000D02*
X169150000Y-164800000D01*
D68*
X164781000Y-108656000D02*
X164750000Y-108625000D01*
X156133494Y-66862506D02*
X156426000Y-66570000D01*
X151200000Y-145250000D02*
X151700000Y-145250000D01*
D69*
X145698548Y-96213501D02*
X146548548Y-95363501D01*
D68*
X164650000Y-155600000D02*
X164250000Y-156000000D01*
X168301000Y-103125000D02*
X167381500Y-103125000D01*
D69*
X166650000Y-164800000D02*
X166650000Y-166200000D01*
X147548551Y-95363501D02*
X146823550Y-95363501D01*
D68*
X170251000Y-73625000D02*
X170251000Y-72894500D01*
D69*
X156394001Y-94562893D02*
X156715448Y-94884340D01*
D68*
X158644002Y-93892600D02*
X158644002Y-95147817D01*
D69*
X166650000Y-164800000D02*
X166650000Y-162400000D01*
X166150000Y-164800000D02*
X166650000Y-164800000D01*
X157794002Y-95345000D02*
X157069001Y-95345000D01*
D68*
X155915000Y-108815000D02*
X156764000Y-108815000D01*
X161730000Y-155880000D02*
X164130000Y-155880000D01*
X161006000Y-78200000D02*
X159409000Y-78200000D01*
D69*
X158644002Y-96797400D02*
X158644002Y-96230402D01*
D68*
X169150000Y-155100000D02*
X168250000Y-156000000D01*
X168150000Y-153460000D02*
X168150000Y-155900000D01*
D69*
X173070000Y-162880000D02*
X171130000Y-162880000D01*
D68*
X156680092Y-94778273D02*
X156680092Y-94956091D01*
D70*
X166797000Y-189866500D02*
X166797000Y-190984000D01*
D68*
X162987000Y-102155000D02*
X162987000Y-102465000D01*
D69*
X156844000Y-96797400D02*
X156844000Y-95570001D01*
D68*
X161195000Y-130958150D02*
X161195000Y-132508150D01*
D69*
X146548548Y-95363501D02*
X146823550Y-95363501D01*
D68*
X164511000Y-102859000D02*
X165514000Y-102859000D01*
X148410000Y-115550000D02*
X149140000Y-115550000D01*
D69*
X146148550Y-94688501D02*
X146823550Y-95363501D01*
X173070000Y-162880000D02*
X173070000Y-162380000D01*
D70*
X164892000Y-189866500D02*
X164892000Y-190984000D01*
D68*
X168130000Y-131000000D02*
X168130000Y-132550000D01*
X168150000Y-155900000D02*
X168250000Y-156000000D01*
X145410549Y-76948501D02*
X144213549Y-76948501D01*
X143875000Y-112879000D02*
X143850000Y-112854000D01*
X146660000Y-106599999D02*
X145224999Y-106599999D01*
X147565000Y-101250001D02*
X147565000Y-100135000D01*
D70*
X143324700Y-170625300D02*
X143300000Y-170650000D01*
D68*
X172241000Y-73625000D02*
X172241000Y-72884500D01*
X165011500Y-107855000D02*
X164981500Y-107825000D01*
X177185000Y-119515000D02*
X177185000Y-118665000D01*
X154530500Y-90825500D02*
X154224000Y-90519000D01*
X147050000Y-167400000D02*
X147550000Y-167900000D01*
X147050000Y-154913800D02*
X147050000Y-152750000D01*
X161730000Y-162380000D02*
X163870000Y-162380000D01*
X166780500Y-106585000D02*
X164921500Y-106585000D01*
D69*
X148398551Y-94513501D02*
X147548551Y-95363501D01*
D68*
X154265000Y-136848150D02*
X154265000Y-135588150D01*
X166650000Y-153460000D02*
X166650000Y-155600000D01*
X164150000Y-149355000D02*
X164150000Y-148525000D01*
X147275000Y-131175000D02*
X147280000Y-131170000D01*
X165650000Y-153460000D02*
X165650000Y-155400000D01*
D69*
X173070000Y-161380000D02*
X174670000Y-161380000D01*
D68*
X161730000Y-156380000D02*
X163870000Y-156380000D01*
D69*
X165150000Y-164800000D02*
X165150000Y-166675000D01*
D68*
X145390000Y-117700000D02*
X143375000Y-117700000D01*
X170630000Y-156380000D02*
X170250000Y-156000000D01*
X161230000Y-135663150D02*
X160910000Y-135343150D01*
X146875000Y-123200000D02*
X147175000Y-123500000D01*
X154230000Y-130883150D02*
X154230000Y-132433150D01*
D69*
X156793999Y-95345000D02*
X157069001Y-95345000D01*
X155943999Y-96797400D02*
X155943999Y-96195000D01*
D68*
X172241000Y-72884500D02*
X172181500Y-72825000D01*
X173070000Y-156380000D02*
X173070000Y-155880000D01*
X164921500Y-106585000D02*
X164881500Y-106625000D01*
X164781000Y-109380000D02*
X164781000Y-108656000D01*
D69*
X168650000Y-162400000D02*
X168250000Y-162000000D01*
X151136700Y-170515900D02*
X150084100Y-170515900D01*
D68*
X175685000Y-122940000D02*
X175685000Y-122290000D01*
D69*
X157744001Y-93892600D02*
X157744001Y-94670000D01*
X150084100Y-170515900D02*
X150050000Y-170550000D01*
D68*
X173070000Y-157380000D02*
X170370000Y-157380000D01*
X170251000Y-72894500D02*
X170081500Y-72725000D01*
D69*
X169150000Y-164800000D02*
X169650000Y-164800000D01*
D68*
X165514000Y-102859000D02*
X165527000Y-102846000D01*
X149678000Y-113006000D02*
X149678000Y-113996000D01*
D69*
X164150000Y-164800000D02*
X163650000Y-164800000D01*
D68*
X146280000Y-125520000D02*
X146280000Y-124330000D01*
X164130000Y-155880000D02*
X164250000Y-156000000D01*
X166780500Y-107855000D02*
X165011500Y-107855000D01*
D69*
X152990900Y-170515900D02*
X154015900Y-170515900D01*
X170150000Y-164800000D02*
X170150000Y-166300000D01*
D68*
X167506000Y-101625000D02*
X166381500Y-101625000D01*
X161230000Y-136923150D02*
X161230000Y-135663150D01*
D70*
X144572901Y-170625300D02*
X143324700Y-170625300D01*
D68*
X150700000Y-126200000D02*
X150300000Y-126600000D01*
D69*
X167150000Y-164800000D02*
X166650000Y-164800000D01*
D68*
X173643500Y-89450000D02*
X175180000Y-89450000D01*
%TO.N,Net-(C8-Pad2)*%
X167765000Y-133555000D02*
X167075000Y-133555000D01*
X168165000Y-143825000D02*
X168280000Y-143940000D01*
X168165000Y-141915000D02*
X168165000Y-143825000D01*
D69*
X167425000Y-133515000D02*
X167385000Y-133555000D01*
X168385000Y-133515000D02*
X167425000Y-133515000D01*
D68*
X165965000Y-134665000D02*
X165965000Y-138465000D01*
X168165000Y-140665000D02*
X168165000Y-141915000D01*
X165965000Y-138465000D02*
X168165000Y-140665000D01*
X167075000Y-133555000D02*
X165965000Y-134665000D01*
%TO.N,/DAC/dac_mon*%
X174185000Y-119515000D02*
X174185000Y-118475000D01*
X170370000Y-69120000D02*
X169310997Y-70179003D01*
X171730000Y-71452846D02*
X171730000Y-69940000D01*
D69*
X169291000Y-73434500D02*
X169310997Y-73414503D01*
X169291000Y-73625000D02*
X169291000Y-73434500D01*
D68*
X178790000Y-113870000D02*
X178790000Y-78512846D01*
X174185000Y-118475000D02*
X178790000Y-113870000D01*
D69*
X169281000Y-73635000D02*
X169291000Y-73625000D01*
D68*
X170910000Y-69120000D02*
X170370000Y-69120000D01*
D69*
X169310997Y-73414503D02*
X169310997Y-71075000D01*
D68*
X178790000Y-78512846D02*
X171730000Y-71452846D01*
D69*
X169281000Y-74625000D02*
X169281000Y-73635000D01*
D68*
X169310997Y-70179003D02*
X169310997Y-71075000D01*
X171730000Y-69940000D02*
X170910000Y-69120000D01*
%TO.N,-15V*%
X166655000Y-98530000D02*
X166650000Y-98525000D01*
X173935000Y-130965000D02*
X173935000Y-132515000D01*
X174080000Y-135370000D02*
X174100000Y-135350000D01*
X161730000Y-155380000D02*
X161730000Y-154730000D01*
X152995000Y-136848150D02*
X152995000Y-135378150D01*
X174080000Y-136965000D02*
X174080000Y-135370000D01*
X166895000Y-136965000D02*
X166895000Y-135495000D01*
X144618043Y-66373007D02*
X144656549Y-66334501D01*
X154863494Y-68229000D02*
X154863494Y-66354506D01*
X161730000Y-154730000D02*
X161725000Y-154725000D01*
X152960000Y-132453150D02*
X152930000Y-132483150D01*
X170981500Y-72625000D02*
X170580997Y-72224497D01*
X174975000Y-87500000D02*
X175175000Y-87700000D01*
X166895000Y-135495000D02*
X166765000Y-135365000D01*
X173643500Y-87500000D02*
X174975000Y-87500000D01*
X168401000Y-98530000D02*
X166655000Y-98530000D01*
X152995000Y-135378150D02*
X152865000Y-135248150D01*
X176751500Y-72495000D02*
X176781500Y-72525000D01*
X159960000Y-135453150D02*
X159830000Y-135323150D01*
X173956500Y-82100000D02*
X173981500Y-82125000D01*
X172968497Y-82100000D02*
X173956500Y-82100000D01*
X154863494Y-66354506D02*
X154902000Y-66316000D01*
X159925000Y-130958150D02*
X159925000Y-132528150D01*
X159960000Y-136923150D02*
X159960000Y-135453150D01*
X170781500Y-63925000D02*
X170781500Y-64125000D01*
X170580997Y-72224497D02*
X170580997Y-71075000D01*
X152960000Y-130883150D02*
X152960000Y-132453150D01*
X144618043Y-68247501D02*
X144618043Y-66373007D01*
X177081500Y-63725000D02*
X177081500Y-63925000D01*
X176700997Y-62415000D02*
X176700997Y-63344497D01*
X159925000Y-132528150D02*
X159895000Y-132558150D01*
X170580997Y-62465000D02*
X170580997Y-63724497D01*
X173935000Y-132515000D02*
X173835000Y-132615000D01*
X170580997Y-63724497D02*
X170781500Y-63925000D01*
X166860000Y-132570000D02*
X166830000Y-132600000D01*
X176751500Y-70940000D02*
X176751500Y-72495000D01*
X176700997Y-63344497D02*
X177081500Y-63725000D01*
X166860000Y-131000000D02*
X166860000Y-132570000D01*
%TO.N,+15V*%
X145780000Y-129820000D02*
X145280000Y-129820000D01*
X146280000Y-129820000D02*
X145780000Y-129820000D01*
X159939000Y-104370000D02*
X161082000Y-104370000D01*
X164781000Y-112645000D02*
X164781000Y-113594000D01*
X152573000Y-114347001D02*
X153898999Y-114347001D01*
X173351000Y-94720000D02*
X174970000Y-94720000D01*
X153898999Y-114347001D02*
X153970000Y-114276000D01*
D69*
X147970000Y-125520000D02*
X148000000Y-125550000D01*
D68*
X176000000Y-99500000D02*
X175930900Y-99569100D01*
X168061500Y-57494497D02*
X168040997Y-57515000D01*
X162500000Y-143243150D02*
X162530000Y-143273150D01*
X155535000Y-143168150D02*
X155565000Y-143198150D01*
X148466549Y-66080501D02*
X148428043Y-66119007D01*
X168241000Y-115041000D02*
X168250000Y-115050000D01*
X175930900Y-101500000D02*
X175930900Y-99569100D01*
X169435000Y-141915000D02*
X169435000Y-143285000D01*
X164775000Y-113600000D02*
X164781000Y-113594000D01*
X174160997Y-55845503D02*
X174161500Y-55845000D01*
X158712000Y-66062000D02*
X158673494Y-66100506D01*
X155535000Y-141798150D02*
X155535000Y-143168150D01*
X169435000Y-143285000D02*
X169465000Y-143315000D01*
X173070000Y-154695000D02*
X173050000Y-154675000D01*
X168040997Y-66125000D02*
X168040997Y-64484497D01*
X176620000Y-143450000D02*
X176635000Y-143465000D01*
X174211500Y-65990000D02*
X174211500Y-64455000D01*
X156770000Y-132423150D02*
X156830000Y-132483150D01*
X156770000Y-130883150D02*
X156770000Y-132423150D01*
X145280000Y-131105000D02*
X145300000Y-131125000D01*
X145280000Y-129820000D02*
X145280000Y-131105000D01*
X177745000Y-130965000D02*
X177745000Y-132520000D01*
X170381500Y-77103003D02*
X170428497Y-77150000D01*
X170670000Y-131000000D02*
X170670000Y-132540000D01*
X176620000Y-141915000D02*
X176620000Y-143450000D01*
X177750000Y-132525000D02*
X177745000Y-132520000D01*
X170670000Y-132540000D02*
X170730000Y-132600000D01*
X168061500Y-55845000D02*
X168061500Y-57494497D01*
X163735000Y-132498150D02*
X163795000Y-132558150D01*
X173070000Y-155380000D02*
X173070000Y-154695000D01*
D69*
X147280000Y-125520000D02*
X147970000Y-125520000D01*
D68*
X163735000Y-130958150D02*
X163735000Y-132498150D01*
X170381500Y-75725000D02*
X170381500Y-77103003D01*
X162500000Y-141873150D02*
X162500000Y-143243150D01*
X174970000Y-94720000D02*
X175000000Y-94750000D01*
X168040997Y-64484497D02*
X168031500Y-64475000D01*
X167918500Y-88800000D02*
X169150000Y-88800000D01*
X174211500Y-64455000D02*
X174181500Y-64425000D01*
X153295000Y-109765001D02*
X154289999Y-109765001D01*
X168241000Y-113125500D02*
X168241000Y-115041000D01*
X154289999Y-109765001D02*
X154351000Y-109704000D01*
X169150000Y-88800000D02*
X169200000Y-88750000D01*
X174160997Y-57465000D02*
X174160997Y-55845503D01*
X148428043Y-68247501D02*
X148428043Y-66119007D01*
X158673494Y-68229000D02*
X158673494Y-66100506D01*
%TO.N,+3.3V*%
X169175000Y-91185000D02*
X168960000Y-91400000D01*
D69*
X160670000Y-160380000D02*
X160370000Y-160680000D01*
D68*
X167918500Y-92050000D02*
X167918500Y-92410500D01*
X173069100Y-101500000D02*
X171500000Y-101500000D01*
X167918500Y-90100000D02*
X167918500Y-89450000D01*
X169160000Y-90140000D02*
X169175000Y-90125000D01*
X168960000Y-91400000D02*
X167918500Y-91400000D01*
D69*
X160590979Y-158880000D02*
X160342902Y-159128077D01*
D68*
X167650000Y-166250000D02*
X167675000Y-166275000D01*
X168067000Y-92559000D02*
X168321000Y-92559000D01*
D69*
X161730000Y-158880000D02*
X161730000Y-159380000D01*
D68*
X167918500Y-90100000D02*
X169150000Y-90100000D01*
X167650000Y-164800000D02*
X167650000Y-166250000D01*
D69*
X161730000Y-158880000D02*
X160590979Y-158880000D01*
D68*
X167918500Y-92410500D02*
X168067000Y-92559000D01*
X169150000Y-90100000D02*
X169175000Y-90125000D01*
D69*
X161730000Y-160380000D02*
X160670000Y-160380000D01*
X161725000Y-159375000D02*
X161730000Y-159380000D01*
D68*
X168321000Y-92559000D02*
X168448000Y-92686000D01*
X169175000Y-90125000D02*
X169175000Y-91185000D01*
D69*
%TO.N,Net-(U2--)*%
X167405000Y-134535000D02*
X167385000Y-134515000D01*
X168385000Y-134535000D02*
X167405000Y-134535000D01*
D68*
X169435000Y-136965000D02*
X169435000Y-134585000D01*
X169435000Y-134585000D02*
X169385000Y-134535000D01*
D69*
X169385000Y-134535000D02*
X168385000Y-134535000D01*
D68*
%TO.N,Net-(U7--)*%
X174746500Y-54790000D02*
X175430997Y-55474497D01*
D69*
X174829997Y-68576503D02*
X174211500Y-69195000D01*
X174829997Y-58066000D02*
X174829997Y-68576503D01*
D68*
X175430997Y-55474497D02*
X175430997Y-57465000D01*
D69*
X174211500Y-69195000D02*
X174211500Y-70940000D01*
D68*
X173700997Y-54790000D02*
X174746500Y-54790000D01*
D69*
X175430997Y-57465000D02*
X174829997Y-58066000D01*
%TO.N,Net-(U5-INV)*%
X170428497Y-82100000D02*
X170428497Y-83378003D01*
X168141300Y-84565200D02*
X170183500Y-84565200D01*
X167918500Y-86200000D02*
X167918500Y-84788000D01*
X170183500Y-83627000D02*
X170183500Y-84565200D01*
X170181500Y-83625000D02*
X170183500Y-83627000D01*
X170428497Y-83378003D02*
X170181500Y-83625000D01*
X167918500Y-84788000D02*
X168141300Y-84565200D01*
%TO.N,Net-(U9--)*%
X169310997Y-59525000D02*
X169310997Y-57515000D01*
X168681500Y-60154497D02*
X168681500Y-68543994D01*
X168681500Y-68543994D02*
X168040997Y-69184497D01*
D68*
X169310997Y-55795503D02*
X169310997Y-57515000D01*
D69*
X168040997Y-71075000D02*
X168040997Y-69184497D01*
X169310997Y-59525000D02*
X168681500Y-60154497D01*
D68*
X171700997Y-54790000D02*
X170316500Y-54790000D01*
X170316500Y-54790000D02*
X169310997Y-55795503D01*
D69*
%TO.N,Net-(U12-BUF_F)*%
X169261000Y-102345500D02*
X169261000Y-103125000D01*
D68*
X169056000Y-101625000D02*
X169056000Y-100914000D01*
X169056000Y-100914000D02*
X168575000Y-100433000D01*
D69*
X169056000Y-101625000D02*
X169056000Y-102099500D01*
D68*
X168575000Y-100433000D02*
X165654000Y-100433000D01*
D69*
X169056000Y-102099500D02*
X169281500Y-102325000D01*
D68*
X169261000Y-103804500D02*
X169261000Y-103125000D01*
D69*
X169261000Y-103125000D02*
X170321000Y-103125000D01*
D68*
X169511000Y-105124500D02*
X169511000Y-104054500D01*
X164935000Y-99714000D02*
X164935000Y-99127000D01*
X169511000Y-104054500D02*
X169261000Y-103804500D01*
D69*
X169281500Y-102325000D02*
X169261000Y-102345500D01*
D68*
X165654000Y-100433000D02*
X164935000Y-99714000D01*
D69*
%TO.N,Net-(U5-R_{FB})*%
X172291000Y-74625000D02*
X172291000Y-74915500D01*
X173643500Y-84887000D02*
X173643500Y-86200000D01*
X171698497Y-79208003D02*
X172367497Y-79877003D01*
X171143500Y-84565200D02*
X172381500Y-84565200D01*
X171681500Y-75525000D02*
X171698497Y-75541997D01*
X173321700Y-84565200D02*
X173643500Y-84887000D01*
X172367497Y-79877003D02*
X172367497Y-84551197D01*
X171698497Y-79208003D02*
X171698497Y-77150000D01*
X172291000Y-74915500D02*
X171681500Y-75525000D01*
X172381500Y-84565200D02*
X173321700Y-84565200D01*
X171698497Y-75541997D02*
X171698497Y-77150000D01*
X171143500Y-84565200D02*
X171097497Y-84519197D01*
X172367497Y-84551197D02*
X172381500Y-84565200D01*
%TO.N,Net-(C26-Pad1)*%
X171271000Y-74625000D02*
X171271000Y-73635000D01*
X170301000Y-74625000D02*
X171271000Y-74625000D01*
X171271000Y-73635000D02*
X171281000Y-73625000D01*
%TO.N,Net-(U3A--)*%
X165581500Y-88557900D02*
X166639400Y-87500000D01*
X165581500Y-94292100D02*
X165581500Y-88557900D01*
X168401000Y-95990000D02*
X167279400Y-95990000D01*
X167279400Y-95990000D02*
X165581500Y-94292100D01*
X166639400Y-87500000D02*
X167918500Y-87500000D01*
D68*
%TO.N,Net-(U12-BUF_S)*%
X173321000Y-103864500D02*
X172581500Y-103125000D01*
X174781500Y-107855000D02*
X173655000Y-107855000D01*
X173321000Y-105124500D02*
X173321000Y-103864500D01*
X173655000Y-107855000D02*
X173325000Y-107525000D01*
X173321000Y-105124500D02*
X173325000Y-105128500D01*
X172581500Y-103125000D02*
X171281000Y-103125000D01*
X173325000Y-105128500D02*
X173325000Y-107525000D01*
%TO.N,+5.0V*%
X143240000Y-155703173D02*
X143936079Y-156399252D01*
X143240000Y-166063800D02*
X143240000Y-167840000D01*
D69*
X160290000Y-156930000D02*
X161680000Y-156930000D01*
D68*
X167150000Y-152470000D02*
X166650000Y-151970000D01*
D69*
X152863801Y-169741200D02*
X153691200Y-169741200D01*
X161680000Y-156930000D02*
X161730000Y-156880000D01*
D68*
X150160000Y-167790000D02*
X150150000Y-167800000D01*
D70*
X143900000Y-169850000D02*
X143900600Y-169850600D01*
D68*
X150160000Y-154913800D02*
X148663800Y-154913800D01*
D69*
X165150000Y-153460000D02*
X165150000Y-152100000D01*
D68*
X143240000Y-154913800D02*
X143240000Y-155703173D01*
D70*
X144700000Y-169850600D02*
X143900600Y-169850600D01*
D68*
X160480000Y-161880000D02*
X160360000Y-162000000D01*
X143240000Y-167840000D02*
X143250000Y-167850000D01*
X148650000Y-154900000D02*
X148663800Y-154913800D01*
X167150000Y-153460000D02*
X167150000Y-152470000D01*
D69*
X174525000Y-156875000D02*
X174520000Y-156880000D01*
X169650000Y-153460000D02*
X169650000Y-152075000D01*
X173070000Y-156880000D02*
X174520000Y-156880000D01*
D68*
X161730000Y-161880000D02*
X160480000Y-161880000D01*
X150160000Y-166063800D02*
X150160000Y-167790000D01*
D69*
%TO.N,Net-(U13-REFAP)*%
X173070000Y-157880000D02*
X175650000Y-157880000D01*
X175650000Y-157880000D02*
X175700000Y-157930000D01*
D68*
%TO.N,Net-(U13-REFBP)*%
X170650000Y-153460000D02*
X170650000Y-150930000D01*
%TO.N,Net-(U13-REFCP)*%
X164150000Y-153460000D02*
X164150000Y-150905000D01*
D69*
%TO.N,Net-(U13-REFDP)*%
X159395000Y-157880000D02*
X159375000Y-157900000D01*
X161730000Y-157880000D02*
X159395000Y-157880000D01*
D68*
%TO.N,Net-(U13-REFIO)*%
X167650000Y-153460000D02*
X167650000Y-150905000D01*
%TO.N,Net-(C75-Pad2)*%
X175325000Y-144365000D02*
X175325000Y-141940000D01*
X175350000Y-141915000D02*
X175350000Y-140380000D01*
X173085000Y-138115000D02*
X173085000Y-134755001D01*
X175325000Y-141940000D02*
X175350000Y-141915000D01*
X174605000Y-133545000D02*
X174585000Y-133565000D01*
X173085000Y-134755001D02*
X174275001Y-133565000D01*
X174275001Y-133565000D02*
X174585000Y-133565000D01*
X175350000Y-140380000D02*
X173085000Y-138115000D01*
X175585000Y-133545000D02*
X174605000Y-133545000D01*
D69*
%TO.N,Net-(C85-Pad2)*%
X161830000Y-133473150D02*
X160870000Y-133473150D01*
D68*
X161230000Y-141873150D02*
X161230000Y-143783150D01*
X161230000Y-143783150D02*
X161345000Y-143898150D01*
X159030000Y-134623150D02*
X159030000Y-138423150D01*
X160140000Y-133513150D02*
X159030000Y-134623150D01*
X161230000Y-140623150D02*
X161230000Y-141873150D01*
X160830000Y-133513150D02*
X160140000Y-133513150D01*
X159030000Y-138423150D02*
X161230000Y-140623150D01*
D69*
X160870000Y-133473150D02*
X160830000Y-133513150D01*
D68*
%TO.N,Net-(C95-Pad2)*%
X154265000Y-140548150D02*
X154265000Y-141798150D01*
X152065000Y-134548150D02*
X152065000Y-138348150D01*
X154265000Y-141798150D02*
X154265000Y-144018150D01*
D69*
X153905000Y-133398150D02*
X153865000Y-133438150D01*
D68*
X154265000Y-144018150D02*
X154345000Y-144098150D01*
X152065000Y-138348150D02*
X154265000Y-140548150D01*
D69*
X154865000Y-133398150D02*
X153905000Y-133398150D01*
D68*
X153175000Y-133438150D02*
X152065000Y-134548150D01*
X153865000Y-133438150D02*
X153175000Y-133438150D01*
%TO.N,Net-(C109-Pad2)*%
X142454549Y-73900501D02*
X142962549Y-74408501D01*
X142454549Y-70852501D02*
X142454549Y-73900501D01*
X142962549Y-74408501D02*
X144170549Y-74408501D01*
X144867549Y-70712501D02*
X143393549Y-70712501D01*
X150963549Y-70662501D02*
X150963549Y-69582501D01*
X143343549Y-70662501D02*
X142644549Y-70662501D01*
X142644549Y-70662501D02*
X142454549Y-70852501D01*
X143393549Y-70712501D02*
X143343549Y-70662501D01*
X143343549Y-70662501D02*
X143343549Y-69582501D01*
D69*
%TO.N,/DAC/syncn*%
X175960000Y-90100000D02*
X173643500Y-90100000D01*
D70*
X177542041Y-171725000D02*
X158125000Y-171725000D01*
D69*
X158125000Y-171725000D02*
X158075000Y-171725000D01*
D70*
X179200000Y-170067041D02*
X177542041Y-171725000D01*
D69*
X158075000Y-171725000D02*
X157175000Y-172625000D01*
D70*
X179200000Y-167375000D02*
X179200000Y-170067041D01*
%TO.N,/Isolated Digital IO/dout_iso_gnd*%
X147250002Y-147549998D02*
X147900000Y-147549998D01*
X147450000Y-158678900D02*
X147450000Y-158750000D01*
X147050000Y-147750000D02*
X147175000Y-147625000D01*
D68*
X147050000Y-149986200D02*
X148686200Y-149986200D01*
X147786200Y-161136200D02*
X148050000Y-161400000D01*
D70*
X147450000Y-159500000D02*
X147450000Y-158750000D01*
D68*
X147050000Y-161136200D02*
X147786200Y-161136200D01*
D70*
X146599999Y-147049999D02*
X147175000Y-147625000D01*
X147050000Y-161136200D02*
X147050000Y-159900000D01*
D68*
X148686200Y-149986200D02*
X148700000Y-150000000D01*
D70*
X147021101Y-158250001D02*
X147450000Y-158678900D01*
X147050000Y-149986200D02*
X147050000Y-147750000D01*
X146198200Y-147049999D02*
X146599999Y-147049999D01*
X146550000Y-158250001D02*
X147021101Y-158250001D01*
X147450000Y-158750000D02*
X148251800Y-158750000D01*
X147050000Y-159900000D02*
X147450000Y-159500000D01*
X147175000Y-147625000D02*
X147250002Y-147549998D01*
%TO.N,/Isolated Digital IO/dout0_iso*%
X146550000Y-157750002D02*
X146100002Y-157750002D01*
X146100002Y-157750002D02*
X145600000Y-157250000D01*
X144820000Y-158450000D02*
X144220000Y-158450000D01*
X144220000Y-159720000D02*
X144220000Y-158450000D01*
X144510000Y-160010000D02*
X144220000Y-159720000D01*
X144510000Y-161136200D02*
X144510000Y-160010000D01*
X145060000Y-159350000D02*
X145060000Y-158690000D01*
X145060000Y-158690000D02*
X144820000Y-158450000D01*
%TO.N,/Isolated Digital IO/dout1_iso*%
X148832600Y-158359700D02*
X148832600Y-159600000D01*
X148832600Y-162267400D02*
X148100000Y-163000000D01*
X148832600Y-159600000D02*
X148832600Y-162267400D01*
X143550000Y-132950000D02*
X142350000Y-132950000D01*
X144230000Y-157200000D02*
X144600000Y-157200000D01*
X145780000Y-158380000D02*
X145780000Y-158630000D01*
X148100000Y-163000000D02*
X146300000Y-163000000D01*
X146300000Y-163000000D02*
X145780000Y-162480000D01*
X148722901Y-158250001D02*
X148832600Y-158359700D01*
X142350000Y-132950000D02*
X142300000Y-132900000D01*
X145780000Y-162480000D02*
X145780000Y-161136200D01*
X145780000Y-158630000D02*
X145780000Y-161136200D01*
X148251800Y-158250001D02*
X148722901Y-158250001D01*
X144600000Y-157200000D02*
X145780000Y-158380000D01*
D68*
%TO.N,Net-(U15--)*%
X175585000Y-134565000D02*
X174625000Y-134565000D01*
X176585000Y-136930000D02*
X176620000Y-136965000D01*
X174625000Y-134565000D02*
X174585000Y-134525000D01*
X176585000Y-134555000D02*
X175595000Y-134555000D01*
X175595000Y-134555000D02*
X175585000Y-134565000D01*
X176585000Y-134555000D02*
X176585000Y-136930000D01*
D70*
%TO.N,/Isolated Digital IO/dout2_iso*%
X144239100Y-147834100D02*
X144535900Y-147834100D01*
X144770000Y-147600000D02*
X144780000Y-147590000D01*
D69*
X141800000Y-135850000D02*
X144400000Y-135850000D01*
D70*
X144510000Y-149986200D02*
X144510000Y-148510000D01*
X144535900Y-147834100D02*
X144770000Y-147600000D01*
X146198200Y-146550000D02*
X146198200Y-145498200D01*
X144510000Y-148510000D02*
X144239100Y-148239100D01*
X146198200Y-145498200D02*
X146150000Y-145450000D01*
X144239100Y-148239100D02*
X144239100Y-147834100D01*
D69*
X144400000Y-135850000D02*
X144650000Y-136100000D01*
%TO.N,Net-(U17--)*%
X162830000Y-134493150D02*
X161830000Y-134493150D01*
X162500000Y-135523150D02*
X162500000Y-136923150D01*
X160850000Y-134493150D02*
X160830000Y-134473150D01*
X161830000Y-134493150D02*
X160850000Y-134493150D01*
X162830000Y-135193150D02*
X162500000Y-135523150D01*
X162830000Y-134493150D02*
X162830000Y-135193150D01*
%TO.N,Net-(U19--)*%
X154865000Y-134418150D02*
X153885000Y-134418150D01*
X153885000Y-134418150D02*
X153865000Y-134398150D01*
X155865000Y-135118150D02*
X155535000Y-135448150D01*
X155535000Y-135448150D02*
X155535000Y-136848150D01*
X155865000Y-134418150D02*
X154865000Y-134418150D01*
X155865000Y-134418150D02*
X155865000Y-135118150D01*
D70*
%TO.N,/Isolated Digital IO/dout3_iso*%
X145365000Y-148565000D02*
X145780000Y-148980000D01*
X145220906Y-145660906D02*
X146031812Y-144850000D01*
X145220906Y-145660906D02*
X144924100Y-145957712D01*
X145365000Y-147025000D02*
X145365000Y-148565000D01*
X147428899Y-147049999D02*
X147200000Y-146821100D01*
X144189100Y-146584100D02*
X144924100Y-146584100D01*
X145780000Y-148980000D02*
X145780000Y-149986200D01*
X144924100Y-146584100D02*
X145365000Y-147025000D01*
D69*
X144550000Y-137900000D02*
X145300000Y-138650000D01*
D70*
X144924100Y-145957712D02*
X144924100Y-146584100D01*
X147200000Y-146821100D02*
X147200000Y-145400000D01*
X144189100Y-146584100D02*
X144297712Y-146584100D01*
X146031812Y-144850000D02*
X146650000Y-144850000D01*
X147900000Y-147049999D02*
X147428899Y-147049999D01*
D69*
X141600000Y-137900000D02*
X144550000Y-137900000D01*
D70*
X146650000Y-144850000D02*
X147200000Y-145400000D01*
%TO.N,/Isolated Digital IO/din_iso_gnd*%
X154384102Y-158765898D02*
X154980900Y-158765898D01*
X154250000Y-147500000D02*
X153970000Y-147780000D01*
D68*
X153970000Y-162670000D02*
X154050000Y-162750000D01*
D70*
X153150000Y-147000001D02*
X153750001Y-147000001D01*
D68*
X144350000Y-151550000D02*
X143900000Y-152000000D01*
D70*
X153279100Y-158265899D02*
X153884103Y-158265899D01*
X153750001Y-147000001D02*
X154250000Y-147500000D01*
X153884103Y-158265899D02*
X154384102Y-158765898D01*
X153970000Y-147780000D02*
X153970000Y-148100000D01*
X153970000Y-148100000D02*
X153970000Y-149986200D01*
D68*
X153850000Y-151550000D02*
X144350000Y-151550000D01*
X153970000Y-161136200D02*
X153970000Y-162670000D01*
D70*
X154250000Y-147500000D02*
X154851800Y-147500000D01*
D68*
X153970000Y-151430000D02*
X153970000Y-149986200D01*
X153850000Y-151550000D02*
X153970000Y-151430000D01*
D70*
X153970000Y-159180000D02*
X154384102Y-158765898D01*
X153970000Y-161136200D02*
X153970000Y-159180000D01*
%TO.N,/Isolated Digital IO/din1_iso*%
X152300000Y-158350000D02*
X152300000Y-159300000D01*
X155561700Y-162788300D02*
X154850000Y-163500000D01*
D69*
X141534550Y-50299650D02*
X142958200Y-48876000D01*
D70*
X155561700Y-159650000D02*
X155561700Y-162788300D01*
X151200000Y-157250000D02*
X152300000Y-158350000D01*
X154850000Y-163500000D02*
X152750000Y-163500000D01*
X155561700Y-158375598D02*
X155561700Y-159650000D01*
X152750000Y-163500000D02*
X152700000Y-163450000D01*
D69*
X153123487Y-47650000D02*
X153175000Y-47650000D01*
X151897487Y-48876000D02*
X153123487Y-47650000D01*
D70*
X151150000Y-157250000D02*
X151200000Y-157250000D01*
X155452001Y-158265899D02*
X155561700Y-158375598D01*
D69*
X141925000Y-133775000D02*
X142300000Y-134150000D01*
X141925000Y-133775000D02*
X141534550Y-133384550D01*
X141534550Y-133384550D02*
X141534550Y-50299650D01*
D70*
X152700000Y-159700000D02*
X152700000Y-161136200D01*
D69*
X142300000Y-134150000D02*
X148175000Y-134150000D01*
D70*
X154980900Y-158265899D02*
X155452001Y-158265899D01*
D69*
X142958200Y-48876000D02*
X151897487Y-48876000D01*
D70*
X152700000Y-163450000D02*
X152700000Y-161136200D01*
X152300000Y-159300000D02*
X152700000Y-159700000D01*
%TO.N,/Isolated Digital IO/din0_iso*%
X151150000Y-158500000D02*
X151150000Y-159149100D01*
X151150000Y-159149100D02*
X151500900Y-159500000D01*
X151500900Y-161065300D02*
X151430000Y-161136200D01*
D69*
X142000000Y-129650000D02*
X142000000Y-50475000D01*
D70*
X151430000Y-162880000D02*
X151850000Y-163300000D01*
D69*
X142000000Y-50475000D02*
X143075000Y-49400000D01*
D70*
X152515900Y-157765900D02*
X152150000Y-157400000D01*
X153279100Y-157765900D02*
X152515900Y-157765900D01*
D69*
X152274943Y-49400000D02*
X153974528Y-47700415D01*
D70*
X152150000Y-157400000D02*
X152150000Y-157250000D01*
D69*
X146450000Y-132150000D02*
X144500000Y-132150000D01*
X143075000Y-49400000D02*
X152274943Y-49400000D01*
X144500000Y-132150000D02*
X142000000Y-129650000D01*
D70*
X151430000Y-161136200D02*
X151430000Y-162880000D01*
X151500900Y-159500000D02*
X151500900Y-161065300D01*
D69*
X147100000Y-132800000D02*
X146450000Y-132150000D01*
X153974528Y-47700415D02*
X153974528Y-47677570D01*
D70*
%TO.N,/Isolated Digital IO/din3_iso*%
X151550001Y-146500001D02*
X152480000Y-147430000D01*
X151961412Y-145624000D02*
X154946898Y-145624000D01*
X155550000Y-146227102D02*
X155550000Y-148150000D01*
X151209100Y-146500001D02*
X151550001Y-146500001D01*
X154946898Y-145624000D02*
X155550000Y-146227102D01*
X154851800Y-147000001D02*
X155322901Y-147000001D01*
X152480000Y-147430000D02*
X152480000Y-148130000D01*
D69*
X148549495Y-136875000D02*
X148750000Y-137075505D01*
D70*
X151209100Y-146500001D02*
X151209100Y-146376312D01*
X155322901Y-147000001D02*
X155550000Y-147227100D01*
D69*
X151627245Y-47729199D02*
X151331444Y-48025000D01*
X142675000Y-48025000D02*
X140700000Y-50000000D01*
D70*
X152480000Y-148130000D02*
X152700000Y-148350000D01*
D69*
X140700000Y-135900000D02*
X141675000Y-136875000D01*
X140700000Y-50000000D02*
X140700000Y-135900000D01*
X141675000Y-136875000D02*
X148549495Y-136875000D01*
D70*
X151209100Y-146376312D02*
X151961412Y-145624000D01*
X152700000Y-148350000D02*
X152700000Y-149986200D01*
X155550000Y-147227100D02*
X155550000Y-148150000D01*
D69*
X151331444Y-48025000D02*
X142675000Y-48025000D01*
D68*
%TO.N,Net-(R18-Pad2)*%
X175325000Y-124525000D02*
X175205000Y-124645000D01*
X175325000Y-124065000D02*
X175325000Y-124525000D01*
X175325000Y-125975000D02*
X175285000Y-126015000D01*
X175205000Y-124645000D02*
X175205000Y-126015000D01*
%TO.N,Net-(R18-Pad1)*%
X176345000Y-124065000D02*
X176345000Y-124575000D01*
X176485000Y-124715000D02*
X176475000Y-124725000D01*
X176475000Y-124725000D02*
X176475000Y-126015000D01*
X176345000Y-124575000D02*
X176485000Y-124715000D01*
%TO.N,Net-(R19-Pad2)*%
X176555000Y-130965000D02*
X176555000Y-133505000D01*
X176555000Y-133505000D02*
X176585000Y-133535000D01*
D69*
%TO.N,/Isolated Digital IO/din2_iso*%
X151430000Y-148800000D02*
X151790000Y-148440000D01*
D70*
X152500002Y-146500002D02*
X153150000Y-146500002D01*
D69*
X141133550Y-134083550D02*
X141950000Y-134900000D01*
X151430000Y-148780000D02*
X151430000Y-149986200D01*
X152374220Y-47832167D02*
X151731387Y-48475000D01*
X151200000Y-148550000D02*
X151430000Y-148780000D01*
X151731387Y-48475000D02*
X142792100Y-48475000D01*
X141101000Y-52717450D02*
X141133550Y-52750000D01*
X151209100Y-147750001D02*
X151209100Y-148540900D01*
X142792100Y-48475000D02*
X141101000Y-50166100D01*
X148350000Y-134900000D02*
X149100000Y-135650000D01*
D70*
X152500002Y-146500002D02*
X152200000Y-146200000D01*
D69*
X151209100Y-148540900D02*
X151200000Y-148550000D01*
X141101000Y-50166100D02*
X141101000Y-52717450D01*
X152374220Y-47442784D02*
X152374220Y-47832167D01*
X151430000Y-149986200D02*
X151430000Y-148800000D01*
X141950000Y-134900000D02*
X148350000Y-134900000D01*
X141133550Y-52750000D02*
X141133550Y-134083550D01*
%TO.N,Net-(U20-SET)*%
X148990000Y-124075000D02*
X148990000Y-125240000D01*
X146780000Y-125520000D02*
X146780000Y-124761176D01*
X146780000Y-124761176D02*
X147466176Y-124075000D01*
X148990000Y-125240000D02*
X149150000Y-125400000D01*
X147466176Y-124075000D02*
X148990000Y-124075000D01*
%TO.N,Net-(R24-Pad1)*%
X162340000Y-123983150D02*
X162340000Y-124533150D01*
X162465000Y-124658150D02*
X162465000Y-126008150D01*
X162340000Y-124533150D02*
X162465000Y-124658150D01*
%TO.N,Net-(R24-Pad2)*%
X161320000Y-124603150D02*
X161320000Y-123983150D01*
X161195000Y-126008150D02*
X161195000Y-124728150D01*
X161195000Y-124728150D02*
X161320000Y-124603150D01*
%TO.N,Net-(R25-Pad2)*%
X162465000Y-132208150D02*
X162830000Y-132573150D01*
X162465000Y-130958150D02*
X162465000Y-132208150D01*
X162830000Y-132573150D02*
X162830000Y-133473150D01*
D68*
%TO.N,Net-(U20-OUT)*%
X145280000Y-125520000D02*
X145280000Y-123615000D01*
D69*
X145780000Y-125520000D02*
X145280000Y-125520000D01*
D68*
X145320000Y-123575000D02*
X145320000Y-122280000D01*
X145280000Y-123615000D02*
X145320000Y-123575000D01*
X145870000Y-119850000D02*
X147140000Y-119850000D01*
X145325000Y-122275000D02*
X145325000Y-121775000D01*
X145870000Y-121230000D02*
X145870000Y-119850000D01*
X145320000Y-122280000D02*
X145325000Y-122275000D01*
X145325000Y-121775000D02*
X145870000Y-121230000D01*
D69*
%TO.N,Net-(R30-Pad1)*%
X155375000Y-124458150D02*
X155500000Y-124583150D01*
X155500000Y-124583150D02*
X155500000Y-125933150D01*
X155375000Y-123908150D02*
X155375000Y-124458150D01*
%TO.N,Net-(R30-Pad2)*%
X154355000Y-124528150D02*
X154355000Y-123908150D01*
X154230000Y-125933150D02*
X154230000Y-124653150D01*
X154230000Y-124653150D02*
X154355000Y-124528150D01*
%TO.N,Net-(R31-Pad2)*%
X155500000Y-130883150D02*
X155500000Y-132133150D01*
X155500000Y-132133150D02*
X155865000Y-132498150D01*
X155865000Y-132498150D02*
X155865000Y-133398150D01*
D70*
%TO.N,/DAC/sclk*%
X177524942Y-171175000D02*
X178400000Y-170299943D01*
X178400000Y-170299943D02*
X178400000Y-168925000D01*
D69*
X156675000Y-172275000D02*
X157775000Y-171175000D01*
X173643500Y-90750000D02*
X175056500Y-90750000D01*
D70*
X157775000Y-171175000D02*
X177524942Y-171175000D01*
D69*
X155600000Y-172275000D02*
X156675000Y-172275000D01*
%TO.N,/DAC/sdin*%
X175106500Y-91400000D02*
X175156500Y-91400000D01*
X175156500Y-91400000D02*
X175381500Y-91625000D01*
D70*
X157374000Y-170701000D02*
X156625000Y-171450000D01*
X168900000Y-170175000D02*
X168374000Y-170701000D01*
X177675000Y-170175000D02*
X168900000Y-170175000D01*
X168374000Y-170701000D02*
X157374000Y-170701000D01*
X156625000Y-171450000D02*
X156450000Y-171450000D01*
D69*
X173643500Y-91400000D02*
X175106500Y-91400000D01*
D70*
%TO.N,/FPGA connector/dout1*%
X145650000Y-173300000D02*
X145500001Y-173150001D01*
X145500001Y-173150001D02*
X145500001Y-171400000D01*
%TO.N,/FPGA connector/din3*%
X150900000Y-174396389D02*
X150900000Y-172400000D01*
X150900000Y-172400000D02*
X151263799Y-172036201D01*
X151263799Y-172036201D02*
X151263799Y-171290600D01*
X154100000Y-177600000D02*
X151950000Y-177600000D01*
X150926806Y-174423194D02*
X150900000Y-174396389D01*
X151950000Y-177600000D02*
X150926806Y-176576806D01*
X150926806Y-176576806D02*
X150926806Y-174423194D01*
D69*
%TO.N,/FPGA connector/dout3*%
X146302600Y-171402598D02*
X146302600Y-171400000D01*
X147400000Y-171500000D02*
X146400002Y-171500000D01*
X146400002Y-171500000D02*
X146302600Y-171402598D01*
D70*
%TO.N,/FPGA connector/mon_reset*%
X160280000Y-159880000D02*
X160275000Y-159875000D01*
X161730000Y-159880000D02*
X160280000Y-159880000D01*
%TO.N,/FPGA connector/din1*%
X152063800Y-172613800D02*
X152350000Y-172900000D01*
X152063800Y-171290600D02*
X152063800Y-172613800D01*
%TO.N,/FPGA connector/mon_fs*%
X159720000Y-161380000D02*
X159710000Y-161370000D01*
X161730000Y-161380000D02*
X159720000Y-161380000D01*
%TO.N,/FPGA connector/dout2*%
X145900000Y-172350000D02*
X145900000Y-171400000D01*
X146250000Y-172550000D02*
X146100000Y-172550000D01*
X146100000Y-172550000D02*
X145900000Y-172350000D01*
%TO.N,/FPGA connector/din0*%
X152463799Y-171963799D02*
X153100000Y-172600000D01*
X153826000Y-176488588D02*
X153414588Y-176900000D01*
X153100000Y-172600000D02*
X153826000Y-173326000D01*
X152463799Y-171290600D02*
X152463799Y-171963799D01*
X153826000Y-173326000D02*
X153826000Y-176488588D01*
X152350000Y-176900000D02*
X151875000Y-176425000D01*
X153414588Y-176900000D02*
X152350000Y-176900000D01*
D69*
%TO.N,/FPGA connector/mon_convert*%
X174300000Y-159475000D02*
X174306000Y-159481000D01*
D70*
X175901000Y-172101000D02*
X176275000Y-172475000D01*
D69*
X175369000Y-159481000D02*
X175375000Y-159475000D01*
D70*
X159899000Y-172101000D02*
X175700000Y-172101000D01*
D69*
X173070000Y-159880000D02*
X173070000Y-160380000D01*
X174306000Y-159481000D02*
X175369000Y-159481000D01*
X173070000Y-159380000D02*
X173070000Y-159880000D01*
D70*
X159525000Y-172475000D02*
X159899000Y-172101000D01*
D69*
X173070000Y-160380000D02*
X173070000Y-160880000D01*
X173070000Y-159380000D02*
X174205000Y-159380000D01*
X174205000Y-159380000D02*
X174300000Y-159475000D01*
D70*
X175700000Y-172101000D02*
X175901000Y-172101000D01*
%TO.N,/DCCT ADCs/dcct_sck*%
X157294002Y-96797400D02*
X157294002Y-98550002D01*
X147048551Y-98464551D02*
X147510000Y-98926000D01*
X150126000Y-98926000D02*
X150160000Y-98892000D01*
X147510000Y-98926000D02*
X150126000Y-98926000D01*
X165825000Y-168350000D02*
X165950000Y-168475000D01*
X157294002Y-98550002D02*
X157399000Y-98655000D01*
X147048551Y-96815901D02*
X147048551Y-98464551D01*
X160525000Y-168350000D02*
X165825000Y-168350000D01*
D69*
%TO.N,/FPGA connector/mon_sdo*%
X164175000Y-166475000D02*
X164650000Y-166000000D01*
X164650000Y-166000000D02*
X164650000Y-164800000D01*
D70*
%TO.N,/FPGA connector/din2*%
X151663801Y-172736199D02*
X151663801Y-173363801D01*
X151663801Y-171290600D02*
X151663801Y-172736199D01*
X153250000Y-174950000D02*
X153250000Y-176250000D01*
X152550000Y-174250000D02*
X153250000Y-174950000D01*
X151663801Y-173363801D02*
X152550000Y-174250000D01*
%TO.N,/DCCT ADCs/dcct_cnv*%
X159750000Y-168975000D02*
X164275000Y-168975000D01*
X146750537Y-99417000D02*
X145248549Y-97915012D01*
X150795000Y-99417000D02*
X146750537Y-99417000D01*
X145248549Y-97915012D02*
X145248549Y-96815901D01*
X155494000Y-99180000D02*
X155494000Y-96797400D01*
%TO.N,/FPGA connector/mon_busy*%
X174577000Y-172475000D02*
X175179000Y-173077000D01*
X160574000Y-172950000D02*
X161049000Y-172475000D01*
X161049000Y-172475000D02*
X174577000Y-172475000D01*
D69*
X174450057Y-162000000D02*
X175625000Y-162000000D01*
X174330057Y-161880000D02*
X174450057Y-162000000D01*
X173070000Y-161880000D02*
X174330057Y-161880000D01*
%TO.N,/FPGA connector/mon_sclk*%
X165650000Y-166575000D02*
X166075000Y-167000000D01*
X166075000Y-167000000D02*
X165850000Y-166775000D01*
X165650000Y-164800000D02*
X165650000Y-166575000D01*
D70*
%TO.N,/DCCT ADCs/dcct_busy*%
X165225000Y-170125000D02*
X165001000Y-169901000D01*
D69*
X146148550Y-96815901D02*
X146148550Y-98072550D01*
D70*
X165225000Y-170125000D02*
X165250000Y-170150000D01*
X165001000Y-169901000D02*
X157074000Y-169901000D01*
X157074000Y-169901000D02*
X156500000Y-170475000D01*
D69*
X146148550Y-98072550D02*
X146223000Y-98147000D01*
D70*
%TO.N,/FPGA connector/dout0*%
X145050000Y-172625001D02*
X145050000Y-172600000D01*
X145100002Y-171400000D02*
X145100002Y-172149998D01*
X145100002Y-172149998D02*
X144925001Y-172324999D01*
X144925001Y-172324999D02*
X144925001Y-172750000D01*
X144925001Y-172750000D02*
X145050000Y-172625001D01*
D69*
%TO.N,/Monitor ADCs/monitor_ignd+*%
X167210000Y-119040000D02*
X167210000Y-119500000D01*
X167045000Y-118675000D02*
X167045000Y-118875000D01*
X167045000Y-118875000D02*
X167210000Y-119040000D01*
%TO.N,/Monitor ADCs/monitor_ignd-*%
X170210000Y-118910000D02*
X170210000Y-119490000D01*
X170445000Y-118675000D02*
X170210000Y-118910000D01*
%TO.N,Net-(R3-Pad2)*%
X168255000Y-124645000D02*
X168255000Y-124025000D01*
X168130000Y-126050000D02*
X168130000Y-124770000D01*
X168130000Y-124770000D02*
X168255000Y-124645000D01*
%TO.N,Net-(R3-Pad1)*%
X169400000Y-124700000D02*
X169400000Y-126050000D01*
X169275000Y-124025000D02*
X169275000Y-124575000D01*
X169275000Y-124575000D02*
X169400000Y-124700000D01*
D68*
%TO.N,Net-(R4-Pad2)*%
X169400000Y-133500000D02*
X169385000Y-133515000D01*
X169400000Y-131000000D02*
X169400000Y-133500000D01*
D69*
%TO.N,/Monitor ADCs/monitor_ignd/mon_out*%
X171150000Y-152150000D02*
X171150000Y-153460000D01*
X171426000Y-146376000D02*
X171426000Y-151874000D01*
X169265000Y-144215000D02*
X171426000Y-146376000D01*
X171426000Y-151874000D02*
X171150000Y-152150000D01*
D68*
%TO.N,/DAC/dac_vout-*%
X173700997Y-53140000D02*
X173700997Y-52425997D01*
X173700997Y-52425997D02*
X173000000Y-51725000D01*
X165050000Y-51725000D02*
X165050000Y-51700000D01*
X173000000Y-51725000D02*
X165050000Y-51725000D01*
X165050000Y-51700000D02*
X164400000Y-51050000D01*
%TO.N,Net-(U12-ISET)*%
X170800000Y-112636500D02*
X170781000Y-112617500D01*
X170800000Y-115180000D02*
X170800000Y-112636500D01*
%TO.N,Net-(U12-HTR_ILIM)*%
X166780500Y-110395000D02*
X164786000Y-110395000D01*
X164786000Y-110395000D02*
X164781000Y-110400000D01*
%TO.N,Net-(U12-TSET)*%
X174505000Y-115250000D02*
X173410000Y-115250000D01*
X173375000Y-113179500D02*
X173321000Y-113125500D01*
X173375000Y-115215000D02*
X173375000Y-113179500D01*
X173410000Y-115250000D02*
X173375000Y-115215000D01*
%TO.N,Net-(U12-REF6P6_F)*%
X175525000Y-113575000D02*
X175525000Y-115250000D01*
X174781500Y-111665000D02*
X174781500Y-112781500D01*
X175550000Y-113550000D02*
X175525000Y-113575000D01*
X174781500Y-110395000D02*
X174781500Y-111665000D01*
X174781500Y-112781500D02*
X175550000Y-113550000D01*
X174781500Y-109125000D02*
X174781500Y-110395000D01*
%TO.N,Net-(U12-HTR_IN)*%
X166780500Y-111665000D02*
X164821000Y-111665000D01*
X164821000Y-111665000D02*
X164781000Y-111625000D01*
D69*
%TO.N,/Monitor ADCs/monitor_dac/mon_out*%
X178440000Y-159060000D02*
X178470000Y-159060000D01*
X176345000Y-153915000D02*
X176345000Y-144365000D01*
X174940000Y-158770000D02*
X176270000Y-158770000D01*
X177070000Y-159570000D02*
X177910000Y-159570000D01*
X176270000Y-158770000D02*
X177070000Y-159570000D01*
X177910000Y-159570000D02*
X177920000Y-159580000D01*
X178470000Y-159060000D02*
X178470000Y-156040000D01*
X177920000Y-159580000D02*
X178440000Y-159060000D01*
X178470000Y-156040000D02*
X176345000Y-153915000D01*
X174550000Y-158380000D02*
X174940000Y-158770000D01*
X173070000Y-158380000D02*
X174550000Y-158380000D01*
%TO.N,/Monitor ADCs/monitor_spare+*%
X160110000Y-118633150D02*
X160110000Y-118833150D01*
X160110000Y-118833150D02*
X160275000Y-118998150D01*
X160275000Y-118998150D02*
X160275000Y-119458150D01*
%TO.N,/Monitor ADCs/monitor_spare-*%
X163275000Y-118868150D02*
X163275000Y-119448150D01*
X163510000Y-118633150D02*
X163275000Y-118868150D01*
%TO.N,/Monitor ADCs/monitor_spare/mon_out*%
X163650000Y-152100000D02*
X163650000Y-153460000D01*
X162330000Y-144173150D02*
X162330000Y-150780000D01*
X162330000Y-150780000D02*
X163650000Y-152100000D01*
%TO.N,/Monitor ADCs/monitor_vout+*%
X159304000Y-113019026D02*
X159208000Y-113115026D01*
X159208000Y-114947026D02*
X155794026Y-118361000D01*
X161209197Y-111015803D02*
X159304000Y-112921000D01*
X159304000Y-112921000D02*
X159304000Y-113019026D01*
X161209197Y-110999155D02*
X161209197Y-111015803D01*
X153310000Y-118915000D02*
X153310000Y-119383150D01*
X155794026Y-118361000D02*
X153864000Y-118361000D01*
X153864000Y-118361000D02*
X153310000Y-118915000D01*
X159208000Y-113115026D02*
X159208000Y-114947026D01*
%TO.N,/Monitor ADCs/monitor_vout-*%
X159558000Y-115092000D02*
X156310000Y-118340000D01*
X161971000Y-111101000D02*
X161526500Y-111545500D01*
X159558000Y-113260000D02*
X159558000Y-115092000D01*
X156310000Y-118340000D02*
X156310000Y-119373150D01*
X161272500Y-111545500D02*
X159558000Y-113260000D01*
X161526500Y-111545500D02*
X161272500Y-111545500D01*
%TO.N,/Monitor ADCs/monitor_vout/mon_out*%
X160160000Y-158380000D02*
X159770000Y-158770000D01*
X158760000Y-158770000D02*
X158260000Y-158270000D01*
X158260000Y-145260000D02*
X157098150Y-144098150D01*
X158260000Y-158270000D02*
X158260000Y-145260000D01*
X159770000Y-158770000D02*
X158760000Y-158770000D01*
X157098150Y-144098150D02*
X155365000Y-144098150D01*
X161730000Y-158380000D02*
X160160000Y-158380000D01*
%TO.N,Net-(U5-V_{REFPF})*%
X165981500Y-94125000D02*
X165981500Y-88725000D01*
X165981500Y-88725000D02*
X166556500Y-88150000D01*
X166576500Y-94720000D02*
X165981500Y-94125000D01*
X168401000Y-94720000D02*
X166576500Y-94720000D01*
X166556500Y-88150000D02*
X167918500Y-88150000D01*
%TO.N,Net-(U3B--)*%
X172016500Y-97260000D02*
X173351000Y-97260000D01*
X173643500Y-88150000D02*
X172689400Y-88150000D01*
X171250000Y-94225000D02*
X171250000Y-96493500D01*
X171924000Y-88915400D02*
X171924000Y-93551000D01*
X171250000Y-96493500D02*
X172016500Y-97260000D01*
X172689400Y-88150000D02*
X171924000Y-88915400D01*
X171924000Y-93551000D02*
X171250000Y-94225000D01*
%TO.N,Net-(U5-V_{REFNF})*%
X171651000Y-95594500D02*
X172046500Y-95990000D01*
X172325000Y-89081500D02*
X172325000Y-93726000D01*
X172325000Y-93726000D02*
X171651000Y-94400000D01*
X172606500Y-88800000D02*
X172325000Y-89081500D01*
X172046500Y-95990000D02*
X173351000Y-95990000D01*
X173643500Y-88800000D02*
X172606500Y-88800000D01*
X171651000Y-94400000D02*
X171651000Y-95594500D01*
%TO.N,Net-(U5-V_{OUT})*%
X169827497Y-81084032D02*
X170087529Y-80824000D01*
X169747602Y-83458900D02*
X169827497Y-83379005D01*
X167918500Y-86850000D02*
X166906500Y-86850000D01*
X170087529Y-80824000D02*
X171397496Y-80824000D01*
X169827497Y-83379005D02*
X169827497Y-81084032D01*
X166880000Y-86823500D02*
X166880000Y-85259400D01*
X166880000Y-85259400D02*
X168680500Y-83458900D01*
X171698497Y-81125001D02*
X171698497Y-82100000D01*
X166906500Y-86850000D02*
X166880000Y-86823500D01*
X168680500Y-83458900D02*
X169747602Y-83458900D01*
X171397496Y-80824000D02*
X171698497Y-81125001D01*
D68*
%TO.N,Net-(U10-V_{IN})*%
X175335997Y-62510000D02*
X175430997Y-62415000D01*
X175430997Y-62415000D02*
X175430997Y-65895000D01*
X175430997Y-65895000D02*
X175335997Y-65990000D01*
%TO.N,Net-(U11-V_{IN})*%
X169310997Y-62465000D02*
X169310997Y-66125000D01*
%TO.N,Net-(U12-BUF_INP)*%
X156916400Y-113696999D02*
X157857002Y-113696999D01*
X172051000Y-105124500D02*
X172051000Y-106794500D01*
X172051000Y-106794500D02*
X172081500Y-106825000D01*
X158796000Y-111736000D02*
X163368000Y-107164000D01*
X158796000Y-112758001D02*
X158796000Y-111736000D01*
X172051000Y-105124500D02*
X170781000Y-105124500D01*
X157857002Y-113696999D02*
X158796000Y-112758001D01*
%TO.N,Net-(D5-A1)*%
X155451000Y-54220395D02*
X155748000Y-54517395D01*
X155537000Y-54220395D02*
X156137000Y-53620395D01*
X155367000Y-54220395D02*
X155537000Y-54220395D01*
X155367000Y-54220395D02*
X155451000Y-54220395D01*
X155747500Y-54517895D02*
X155747500Y-55834595D01*
X155748000Y-54517395D02*
X155747500Y-54517895D01*
X156137000Y-53620395D02*
X156463500Y-53620395D01*
%TO.N,Net-(D5-A2)*%
X158161000Y-54220395D02*
X157950000Y-54220395D01*
X157950000Y-54220395D02*
X157779500Y-54390895D01*
X157391000Y-53620395D02*
X157991000Y-54220395D01*
X157779500Y-54390895D02*
X157779500Y-55834595D01*
X157991000Y-54220395D02*
X158161000Y-54220395D01*
X157113500Y-53620395D02*
X157391000Y-53620395D01*
D69*
%TO.N,Net-(R36-Pad2)*%
X156133494Y-63279000D02*
X156133494Y-61705494D01*
X155963500Y-61535500D02*
X156133494Y-61705494D01*
X155963500Y-60659000D02*
X155963500Y-61535500D01*
D68*
%TO.N,+5.3VA*%
X147661549Y-74408501D02*
X147534549Y-74281501D01*
X157907000Y-74390000D02*
X157780000Y-74263000D01*
X149280000Y-104780000D02*
X148500000Y-104000000D01*
X148500000Y-104000000D02*
X147800000Y-104000000D01*
X149030849Y-85465501D02*
X147907549Y-85465501D01*
X159366000Y-74390000D02*
X157907000Y-74390000D01*
X149280000Y-105649998D02*
X149280000Y-105095000D01*
X154856700Y-86717000D02*
X155867000Y-86717000D01*
X159276300Y-85447000D02*
X158153000Y-85447000D01*
X149120549Y-74408501D02*
X147661549Y-74408501D01*
X158153000Y-85447000D02*
X158034000Y-85566000D01*
X147907549Y-85465501D02*
X147788549Y-85584501D01*
X149280000Y-105095000D02*
X149280000Y-104780000D01*
X145461000Y-86735501D02*
X144611249Y-86735501D01*
X155867000Y-86717000D02*
X156002000Y-86582000D01*
%TO.N,-5.3VA*%
X158034000Y-86709000D02*
X158042000Y-86717000D01*
X154416000Y-78200000D02*
X152700000Y-78200000D01*
X148128000Y-86735501D02*
X149030849Y-86735501D01*
X159276300Y-86717000D02*
X158042000Y-86717000D01*
X144170549Y-78218501D02*
X142794000Y-78218501D01*
D69*
%TO.N,+2.5V*%
X158194003Y-92898997D02*
X158288000Y-92805000D01*
X147948552Y-92917498D02*
X147948552Y-93911101D01*
X158194003Y-93892600D02*
X158194003Y-92898997D01*
X148001000Y-92781952D02*
X148001000Y-92865050D01*
X148001000Y-92865050D02*
X147948552Y-92917498D01*
%TO.N,+1.8V*%
X158194000Y-97664000D02*
X158288000Y-97758000D01*
D70*
X144250000Y-171400000D02*
X144700000Y-171400000D01*
X144100000Y-171550000D02*
X144250000Y-171400000D01*
D69*
X158194000Y-96797400D02*
X158194000Y-97664000D01*
D68*
X148323248Y-97893000D02*
X149017000Y-97893000D01*
D70*
X143900000Y-171550000D02*
X144100000Y-171550000D01*
D68*
X147948549Y-96815901D02*
X147948549Y-97518301D01*
D69*
X152863801Y-171290600D02*
X153690600Y-171290600D01*
D68*
X147948549Y-97518301D02*
X148323248Y-97893000D01*
D69*
%TO.N,Net-(R36-Pad1)*%
X157613500Y-60659000D02*
X157613500Y-61572500D01*
X157613500Y-61572500D02*
X157403494Y-61782506D01*
X157403494Y-61782506D02*
X157403494Y-63279000D01*
%TO.N,Net-(D2-A2)*%
X167210000Y-120520000D02*
X167210000Y-120730000D01*
X167730000Y-121250000D02*
X167730000Y-122300000D01*
X168230000Y-120500000D02*
X167230000Y-120500000D01*
X168230000Y-120500000D02*
X168230000Y-120250000D01*
X167210000Y-120730000D02*
X167730000Y-121250000D01*
X168430000Y-120050000D02*
X168430000Y-119400000D01*
X167730000Y-122300000D02*
X167730000Y-123370000D01*
X166860000Y-124240000D02*
X166860000Y-126050000D01*
X168230000Y-120250000D02*
X168430000Y-120050000D01*
X167230000Y-120500000D02*
X167210000Y-120520000D01*
X167730000Y-123370000D02*
X166860000Y-124240000D01*
D68*
%TO.N,/DCCT ADCs/DCCT Channel 1/drv_vref*%
X144611249Y-85465501D02*
X145315499Y-85465501D01*
X145790000Y-101475001D02*
X146015000Y-101250001D01*
X152065000Y-87987000D02*
X152065000Y-84558000D01*
X151522000Y-88530000D02*
X152065000Y-87987000D01*
X145315499Y-85465501D02*
X145842000Y-84939000D01*
X154856700Y-85447000D02*
X155621000Y-85447000D01*
X151430000Y-88835529D02*
X151522000Y-88743529D01*
X155621000Y-85447000D02*
X156129000Y-84939000D01*
X151430000Y-99671000D02*
X151430000Y-88835529D01*
X145790000Y-103850000D02*
X145790000Y-102650003D01*
X145790000Y-102650003D02*
X145790000Y-101475001D01*
X146015000Y-101250001D02*
X146790000Y-102025001D01*
X151522000Y-88743529D02*
X151522000Y-88530000D01*
X149075999Y-102025001D02*
X151430000Y-99671000D01*
X146790000Y-102025001D02*
X149075999Y-102025001D01*
D69*
%TO.N,Net-(U31-IN-)*%
X156844000Y-93892600D02*
X156844000Y-91602500D01*
D68*
X155490500Y-91289000D02*
X156530500Y-91289000D01*
X155496000Y-90255300D02*
X155496000Y-91283500D01*
D69*
X156844000Y-91602500D02*
X156530500Y-91289000D01*
D68*
X155496000Y-91283500D02*
X155490500Y-91289000D01*
%TO.N,Net-(U31-IN+)*%
X157490500Y-91289000D02*
X158493500Y-91289000D01*
D69*
X157294002Y-91485498D02*
X157490500Y-91289000D01*
X157294002Y-93892600D02*
X157294002Y-91485498D01*
D68*
X158546000Y-90255300D02*
X158546000Y-91236500D01*
X158546000Y-91236500D02*
X158493500Y-91289000D01*
D69*
%TO.N,Net-(D2-A1)*%
X169080000Y-119950000D02*
X169080000Y-119400000D01*
X170670000Y-124300000D02*
X170670000Y-126050000D01*
X169190000Y-120500000D02*
X169190000Y-120060000D01*
X169190000Y-120060000D02*
X169080000Y-119950000D01*
X169190000Y-120500000D02*
X170200000Y-120500000D01*
X169762000Y-123392000D02*
X170670000Y-124300000D01*
X170200000Y-120500000D02*
X170210000Y-120510000D01*
X170210000Y-120510000D02*
X170210000Y-120720000D01*
X170210000Y-120720000D02*
X169762000Y-121168000D01*
X169762000Y-122300000D02*
X169762000Y-123392000D01*
X169762000Y-121168000D02*
X169762000Y-122300000D01*
D68*
%TO.N,Net-(D3-A2)*%
X173935000Y-124265000D02*
X173935000Y-126015000D01*
X174185000Y-120815000D02*
X174685000Y-121315000D01*
X174685000Y-122300800D02*
X174685000Y-123515000D01*
X175185000Y-120535000D02*
X175205000Y-120515000D01*
X174685000Y-123515000D02*
X173935000Y-124265000D01*
X174185000Y-120535000D02*
X175185000Y-120535000D01*
X175205000Y-120515000D02*
X175205000Y-120145000D01*
X174185000Y-120535000D02*
X174185000Y-120815000D01*
X175360000Y-119990000D02*
X175360000Y-119415000D01*
X175205000Y-120145000D02*
X175360000Y-119990000D01*
X174685000Y-121315000D02*
X174685000Y-122300800D01*
%TO.N,Net-(U35-+)*%
X146510000Y-111276000D02*
X146510000Y-109782000D01*
X146540000Y-109831000D02*
X148192000Y-109831000D01*
X146510000Y-109782000D02*
X146540000Y-109752000D01*
X146540000Y-109831000D02*
X146540000Y-107670000D01*
X146540000Y-107670000D02*
X146660000Y-107550000D01*
D69*
%TO.N,Net-(U37-IN-)*%
X146598549Y-91621001D02*
X146285049Y-91307501D01*
D68*
X145250549Y-90273801D02*
X145250549Y-91302001D01*
X145250549Y-91302001D02*
X145245049Y-91307501D01*
X145245049Y-91307501D02*
X146285049Y-91307501D01*
D69*
X146598549Y-93911101D02*
X146598549Y-91621001D01*
D68*
%TO.N,Net-(U37-IN+)*%
X147245049Y-91307501D02*
X148248049Y-91307501D01*
D69*
X147048551Y-91503999D02*
X147245049Y-91307501D01*
X147048551Y-93911101D02*
X147048551Y-91503999D01*
D68*
X148300549Y-91255001D02*
X148248049Y-91307501D01*
X148300549Y-90273801D02*
X148300549Y-91255001D01*
D70*
%TO.N,Net-(U39-VISO)*%
X143200000Y-158450000D02*
X143200000Y-157210000D01*
X143240000Y-158490000D02*
X143200000Y-158450000D01*
X143200000Y-157210000D02*
X143210000Y-157200000D01*
X143200000Y-159010000D02*
X143200000Y-158450000D01*
X143240000Y-159050000D02*
X143200000Y-159010000D01*
X143240000Y-159400000D02*
X143240000Y-159050000D01*
X143240000Y-159050000D02*
X143240000Y-158974102D01*
X143240000Y-161136200D02*
X143240000Y-159400000D01*
%TO.N,Net-(U40-VISO)*%
X143240000Y-149986200D02*
X143240000Y-147855000D01*
X143120000Y-143770000D02*
X143100000Y-143750000D01*
X143169100Y-146584100D02*
X143169100Y-145299100D01*
X143219100Y-146634100D02*
X143169100Y-146584100D01*
X143120000Y-145250000D02*
X143120000Y-143770000D01*
X143240000Y-147855000D02*
X143219100Y-147834100D01*
X143169100Y-145299100D02*
X143120000Y-145250000D01*
X143219100Y-147834100D02*
X143219100Y-146634100D01*
D69*
%TO.N,Net-(U42-VISO)*%
X150160000Y-159530000D02*
X150160000Y-159400000D01*
X150160000Y-161136200D02*
X150160000Y-159530000D01*
X150160000Y-159400000D02*
X150130000Y-159370000D01*
X150160000Y-158530000D02*
X150130000Y-158500000D01*
X150130000Y-159370000D02*
X150130000Y-158500000D01*
D70*
X150130000Y-157250000D02*
X150130000Y-158500000D01*
%TO.N,Net-(U43-VISO)*%
X150240000Y-143860000D02*
X150300000Y-143800000D01*
X150189100Y-145300900D02*
X150240000Y-145250000D01*
X150189100Y-146500001D02*
X150189100Y-145300900D01*
X150240000Y-145250000D02*
X150240000Y-143860000D01*
X150160000Y-147779101D02*
X150189100Y-147750001D01*
X150189100Y-147750001D02*
X150189100Y-146500001D01*
X150160000Y-149986200D02*
X150160000Y-147779101D01*
D68*
%TO.N,Net-(D3-A1)*%
X177185000Y-120535000D02*
X177185000Y-120765000D01*
X176717000Y-123297000D02*
X177735000Y-124315000D01*
X176185000Y-120535000D02*
X176165000Y-120515000D01*
X177735000Y-124315000D02*
X177735000Y-124565000D01*
X176165000Y-120145000D02*
X176010000Y-119990000D01*
X176165000Y-120515000D02*
X176165000Y-120145000D01*
X176717000Y-121233000D02*
X176717000Y-122300800D01*
X176010000Y-119990000D02*
X176010000Y-119415000D01*
X176717000Y-122300800D02*
X176717000Y-123297000D01*
X177735000Y-124565000D02*
X177745000Y-124575000D01*
X177745000Y-124575000D02*
X177745000Y-126015000D01*
X177185000Y-120535000D02*
X176185000Y-120535000D01*
X177185000Y-120765000D02*
X176717000Y-121233000D01*
D69*
%TO.N,Net-(R56-Pad1)*%
X147158043Y-61801007D02*
X147158043Y-63297501D01*
X147368049Y-61591001D02*
X147158043Y-61801007D01*
X147368049Y-60677501D02*
X147368049Y-61591001D01*
%TO.N,Net-(R56-Pad2)*%
X145718049Y-60677501D02*
X145718049Y-61554001D01*
X145888043Y-63297501D02*
X145888043Y-61723995D01*
X145718049Y-61554001D02*
X145888043Y-61723995D01*
D68*
%TO.N,Net-(U35--)*%
X146660000Y-105649998D02*
X147379998Y-105649998D01*
X146810000Y-104565000D02*
X146810000Y-103850000D01*
X147379998Y-105649998D02*
X149280000Y-107550000D01*
X146660000Y-105649998D02*
X146660000Y-104715000D01*
X146660000Y-104715000D02*
X146810000Y-104565000D01*
D70*
%TO.N,/DCCT ADCs/dcct1_sdo*%
X157744001Y-97956464D02*
X158161000Y-98373463D01*
X157744001Y-96797400D02*
X157744001Y-97956464D01*
X158161000Y-98373463D02*
X158161000Y-99163000D01*
X166510000Y-167775000D02*
X161250000Y-167775000D01*
%TO.N,/DCCT ADCs/dcct0_sdo*%
X158900000Y-169125000D02*
X159325000Y-169550000D01*
X147476000Y-96838451D02*
X147498550Y-96815901D01*
X147476000Y-97983463D02*
X147476000Y-96838451D01*
X166625000Y-169725000D02*
X166700000Y-169725000D01*
X147747000Y-98254463D02*
X147476000Y-97983463D01*
X166450000Y-169550000D02*
X166625000Y-169725000D01*
X147747000Y-98401000D02*
X147747000Y-98254463D01*
X159325000Y-169550000D02*
X166450000Y-169550000D01*
D68*
%TO.N,Net-(U38-B4Y)*%
X145780000Y-153080000D02*
X145750000Y-153050000D01*
D70*
X146300002Y-169850600D02*
X146699400Y-169850600D01*
X146699400Y-169850600D02*
X147250000Y-169300000D01*
D68*
X145780000Y-154913800D02*
X145780000Y-153080000D01*
D70*
%TO.N,Net-(U38-B2Y)*%
X145500001Y-168099999D02*
X145500001Y-169850600D01*
X145780000Y-167820000D02*
X145500001Y-168099999D01*
X145780000Y-166063800D02*
X145780000Y-167820000D01*
%TO.N,Net-(U38-B1Y)*%
X145100002Y-169850600D02*
X145100002Y-168350002D01*
X145100002Y-168350002D02*
X144510000Y-167760000D01*
X144510000Y-167760000D02*
X144510000Y-166063800D01*
%TO.N,Net-(U38-B3Y)*%
X145900000Y-169150000D02*
X146550000Y-168500000D01*
X145900000Y-169850600D02*
X145900000Y-169150000D01*
D68*
X144510000Y-154913800D02*
X144510000Y-153260000D01*
X144510000Y-153260000D02*
X144450000Y-153200000D01*
D70*
%TO.N,Net-(U41-A1)*%
X153371300Y-164591300D02*
X153250000Y-164470000D01*
X151710000Y-164470000D02*
X151430000Y-164750000D01*
X152463799Y-169011001D02*
X153371300Y-168103500D01*
X153250000Y-164470000D02*
X151710000Y-164470000D01*
X153371300Y-168103500D02*
X153371300Y-165280000D01*
X152463799Y-169741200D02*
X152463799Y-169011001D01*
X151430000Y-164750000D02*
X151430000Y-166063800D01*
X153371300Y-165280000D02*
X153371300Y-164591300D01*
%TO.N,Net-(U41-A3)*%
X151430000Y-153080000D02*
X151400000Y-153050000D01*
X151663801Y-168963801D02*
X151000000Y-168300000D01*
X151663801Y-169741200D02*
X151663801Y-168963801D01*
X151430000Y-154913800D02*
X151430000Y-153080000D01*
%TO.N,Net-(U41-A4)*%
X150841200Y-169741200D02*
X150100000Y-169000000D01*
X151263799Y-169741200D02*
X150841200Y-169741200D01*
X152700000Y-154913800D02*
X152700000Y-153250000D01*
X152700000Y-153250000D02*
X152750000Y-153200000D01*
%TO.N,Net-(U41-A2)*%
X152063800Y-168086200D02*
X152425000Y-167725000D01*
X152815900Y-167334100D02*
X152425000Y-167725000D01*
X152063800Y-169741200D02*
X152063800Y-168086200D01*
X152815900Y-166069700D02*
X152815900Y-167334100D01*
D69*
%TO.N,Net-(D6-A2)*%
X161295000Y-120208150D02*
X161495000Y-120008150D01*
X161295000Y-120458150D02*
X160295000Y-120458150D01*
X160795000Y-123328150D02*
X159925000Y-124198150D01*
X159925000Y-124198150D02*
X159925000Y-126008150D01*
X161295000Y-120458150D02*
X161295000Y-120208150D01*
X160295000Y-120458150D02*
X160275000Y-120478150D01*
X160795000Y-122258150D02*
X160795000Y-123328150D01*
X160795000Y-121208150D02*
X160795000Y-122258150D01*
X160275000Y-120688150D02*
X160795000Y-121208150D01*
X161495000Y-120008150D02*
X161495000Y-119358150D01*
X160275000Y-120478150D02*
X160275000Y-120688150D01*
%TO.N,Net-(D6-A1)*%
X162255000Y-120458150D02*
X163265000Y-120458150D01*
X162827000Y-122258150D02*
X162827000Y-123350150D01*
X163275000Y-120468150D02*
X163275000Y-120678150D01*
X162255000Y-120018150D02*
X162145000Y-119908150D01*
X162255000Y-120458150D02*
X162255000Y-120018150D01*
X162827000Y-121126150D02*
X162827000Y-122258150D01*
X162827000Y-123350150D02*
X163735000Y-124258150D01*
X162145000Y-119908150D02*
X162145000Y-119358150D01*
X163735000Y-124258150D02*
X163735000Y-126008150D01*
X163265000Y-120458150D02*
X163275000Y-120468150D01*
X163275000Y-120678150D02*
X162827000Y-121126150D01*
%TO.N,Net-(D7-A1)*%
X156300000Y-120383150D02*
X156310000Y-120393150D01*
X155862000Y-122183150D02*
X155862000Y-123275150D01*
X155862000Y-123275150D02*
X156770000Y-124183150D01*
X156310000Y-120393150D02*
X156310000Y-120603150D01*
X155180000Y-119833150D02*
X155180000Y-119283150D01*
X156770000Y-124183150D02*
X156770000Y-125933150D01*
X155862000Y-121051150D02*
X155862000Y-122183150D01*
X155290000Y-119943150D02*
X155180000Y-119833150D01*
X155290000Y-120383150D02*
X155290000Y-119943150D01*
X155290000Y-120383150D02*
X156300000Y-120383150D01*
X156310000Y-120603150D02*
X155862000Y-121051150D01*
%TO.N,Net-(D7-A2)*%
X153310000Y-120403150D02*
X153310000Y-120613150D01*
X153330000Y-120383150D02*
X153310000Y-120403150D01*
X154530000Y-119933150D02*
X154530000Y-119283150D01*
X154330000Y-120133150D02*
X154530000Y-119933150D01*
X154330000Y-120383150D02*
X154330000Y-120133150D01*
X153830000Y-123253150D02*
X152960000Y-124123150D01*
X153830000Y-122183150D02*
X153830000Y-123253150D01*
X153310000Y-120613150D02*
X153830000Y-121133150D01*
X154330000Y-120383150D02*
X153330000Y-120383150D01*
X153830000Y-121133150D02*
X153830000Y-122183150D01*
X152960000Y-124123150D02*
X152960000Y-125933150D01*
D68*
%TO.N,Net-(U4A--)*%
X144213549Y-75678501D02*
X145188548Y-75678501D01*
X143393549Y-72262501D02*
X143343549Y-72312501D01*
X146434549Y-72302501D02*
X146434549Y-74432500D01*
X144867549Y-72262501D02*
X143393549Y-72262501D01*
X144907549Y-72302501D02*
X144867549Y-72262501D01*
X146434549Y-72302501D02*
X144907549Y-72302501D01*
X145188548Y-75678501D02*
X145688548Y-75178500D01*
X146434549Y-74432500D02*
X145688548Y-75178500D01*
%TO.N,Net-(C110-Pad2)*%
X155113000Y-70694000D02*
X153639000Y-70694000D01*
X152890000Y-70644000D02*
X152700000Y-70834000D01*
X161209000Y-70644000D02*
X161209000Y-69564000D01*
X153589000Y-70644000D02*
X153589000Y-69564000D01*
X153589000Y-70644000D02*
X152890000Y-70644000D01*
X153208000Y-74390000D02*
X154416000Y-74390000D01*
X152700000Y-73882000D02*
X153208000Y-74390000D01*
X152700000Y-70834000D02*
X152700000Y-73882000D01*
X153639000Y-70694000D02*
X153589000Y-70644000D01*
%TO.N,Net-(U8A--)*%
X155433999Y-75660000D02*
X155933999Y-75159999D01*
X155153000Y-72284000D02*
X155113000Y-72244000D01*
X156680000Y-72284000D02*
X155153000Y-72284000D01*
X156680000Y-74413999D02*
X155933999Y-75159999D01*
X155113000Y-72244000D02*
X153639000Y-72244000D01*
X153639000Y-72244000D02*
X153589000Y-72294000D01*
X156680000Y-72284000D02*
X156680000Y-74413999D01*
X154459000Y-75660000D02*
X155433999Y-75660000D01*
%TO.N,Net-(U4B--)*%
X150963549Y-76948501D02*
X151344549Y-76567501D01*
D69*
X150913549Y-72262501D02*
X150963549Y-72312501D01*
D68*
X151344549Y-73773501D02*
X150963549Y-73392501D01*
X150963549Y-73392501D02*
X150963549Y-72312501D01*
D69*
X149439549Y-72262501D02*
X150913549Y-72262501D01*
D68*
X151344549Y-76567501D02*
X151344549Y-73773501D01*
X149120549Y-76948501D02*
X150963549Y-76948501D01*
D69*
X147915549Y-72312501D02*
X147915549Y-72376501D01*
X148029549Y-72262501D02*
X149439549Y-72262501D01*
X147915549Y-72376501D02*
X148029549Y-72262501D01*
D68*
%TO.N,Net-(C111-Pad2)*%
X149439549Y-69963501D02*
X149820549Y-69582501D01*
X149389549Y-70662501D02*
X149439549Y-70712501D01*
X147915549Y-75678501D02*
X147407549Y-76186501D01*
X147661549Y-80124501D02*
X147661549Y-79361501D01*
X149120549Y-75678501D02*
X147915549Y-75678501D01*
X149439549Y-70712501D02*
X149439549Y-69963501D01*
X147407549Y-76186501D02*
X147407549Y-79107501D01*
X149120549Y-75678501D02*
X150582549Y-75678501D01*
X147661549Y-79361501D02*
X147407549Y-79107501D01*
X147915549Y-70662501D02*
X149389549Y-70662501D01*
%TO.N,Net-(U8B--)*%
X161209000Y-73374000D02*
X161209000Y-72294000D01*
D69*
X158275000Y-72244000D02*
X159685000Y-72244000D01*
X158161000Y-72294000D02*
X158161000Y-72358000D01*
X159685000Y-72244000D02*
X161159000Y-72244000D01*
X161159000Y-72244000D02*
X161209000Y-72294000D01*
X158161000Y-72358000D02*
X158275000Y-72244000D01*
D68*
X161209000Y-76930000D02*
X161590000Y-76549000D01*
X161590000Y-76549000D02*
X161590000Y-73755000D01*
X159366000Y-76930000D02*
X161209000Y-76930000D01*
X161590000Y-73755000D02*
X161209000Y-73374000D01*
%TO.N,Net-(C112-Pad2)*%
X159366000Y-75660000D02*
X160828000Y-75660000D01*
X159685000Y-69945000D02*
X160066000Y-69564000D01*
X158161000Y-75660000D02*
X157653000Y-76168000D01*
X157653000Y-76168000D02*
X157653000Y-79089000D01*
X157907000Y-80106000D02*
X157907000Y-79343000D01*
X158161000Y-70644000D02*
X159635000Y-70644000D01*
X159685000Y-70694000D02*
X159685000Y-69945000D01*
X159366000Y-75660000D02*
X158161000Y-75660000D01*
X157907000Y-79343000D02*
X157653000Y-79089000D01*
X159635000Y-70644000D02*
X159685000Y-70694000D01*
%TO.N,Net-(U21-IN+)*%
X149185549Y-81774501D02*
X149185549Y-84040801D01*
X149185549Y-84040801D02*
X149030849Y-84195501D01*
X147661549Y-81774501D02*
X149185549Y-81774501D01*
X149185549Y-81774501D02*
X150455549Y-81774501D01*
%TO.N,Net-(U21-OUT-)*%
X147526549Y-88005501D02*
X147280549Y-88251501D01*
X147280549Y-88251501D02*
X147280549Y-90273801D01*
X151176000Y-87352000D02*
X151176000Y-86844000D01*
X150861501Y-80814501D02*
X151176000Y-81129000D01*
X150171501Y-80124501D02*
X150455549Y-80408549D01*
X150455549Y-80814501D02*
X150861501Y-80814501D01*
X149030849Y-88005501D02*
X147526549Y-88005501D01*
X151176000Y-81129000D02*
X151176000Y-86844000D01*
X149488049Y-88005501D02*
X150522499Y-88005501D01*
X149185549Y-80124501D02*
X150171501Y-80124501D01*
X150522499Y-88005501D02*
X151176000Y-87352000D01*
X150455549Y-80408549D02*
X150455549Y-80814501D01*
%TO.N,Net-(U21-IN-)*%
X144613549Y-81774501D02*
X143343549Y-81774501D01*
X144613549Y-81774501D02*
X144613549Y-84193201D01*
X146137549Y-81774501D02*
X144613549Y-81774501D01*
X144613549Y-84193201D02*
X144611249Y-84195501D01*
X144740549Y-84066201D02*
X144611249Y-84195501D01*
%TO.N,Net-(U21-OUT+)*%
X146018549Y-88005501D02*
X146270549Y-88257501D01*
X143343549Y-80814501D02*
X143343549Y-80452451D01*
X143343549Y-80452451D02*
X143671499Y-80124501D01*
X142854499Y-80814501D02*
X142667000Y-81002000D01*
X143066501Y-88005501D02*
X142667000Y-87606000D01*
X142667000Y-81002000D02*
X142667000Y-87098000D01*
X143343549Y-80814501D02*
X142854499Y-80814501D01*
X143671499Y-80124501D02*
X144613549Y-80124501D01*
X144611249Y-88005501D02*
X146018549Y-88005501D01*
X144154049Y-88005501D02*
X143066501Y-88005501D01*
X142667000Y-87606000D02*
X142667000Y-87098000D01*
X143574501Y-88005501D02*
X144611249Y-88005501D01*
X146270549Y-88257501D02*
X146270549Y-90273801D01*
%TO.N,Net-(U24--)*%
X153295000Y-107864999D02*
X154285001Y-107864999D01*
X154285001Y-107864999D02*
X155494000Y-106656000D01*
X155494000Y-106656000D02*
X157522000Y-106656000D01*
X157524000Y-107672000D02*
X157524000Y-106658000D01*
X157524000Y-106658000D02*
X157522000Y-106656000D01*
%TO.N,Net-(U26-IN+)*%
X159431000Y-81756000D02*
X159431000Y-84022300D01*
X157907000Y-81756000D02*
X159431000Y-81756000D01*
X159431000Y-81756000D02*
X160701000Y-81756000D01*
X159431000Y-84022300D02*
X159276300Y-84177000D01*
%TO.N,Net-(U26-OUT-)*%
X160320000Y-87987000D02*
X159276300Y-87987000D01*
X159431000Y-80106000D02*
X160440000Y-80106000D01*
X160701000Y-80367000D02*
X160701000Y-80796000D01*
X161336000Y-81002000D02*
X161336000Y-86971000D01*
X161336000Y-86971000D02*
X160320000Y-87987000D01*
X159276300Y-87987000D02*
X157772000Y-87987000D01*
X157526000Y-88233000D02*
X157526000Y-90255300D01*
X157772000Y-87987000D02*
X157526000Y-88233000D01*
X161130000Y-80796000D02*
X161336000Y-81002000D01*
X160701000Y-80796000D02*
X161130000Y-80796000D01*
X160440000Y-80106000D02*
X160701000Y-80367000D01*
%TO.N,Net-(U26-OUT+)*%
X153589000Y-80796000D02*
X153541000Y-80748000D01*
X154856700Y-87987000D02*
X156264000Y-87987000D01*
X156516000Y-88239000D02*
X156516000Y-90255300D01*
X153589000Y-80796000D02*
X153589000Y-80494000D01*
X156264000Y-87987000D02*
X156516000Y-88239000D01*
X153589000Y-80494000D02*
X153977000Y-80106000D01*
X153541000Y-80748000D02*
X153081000Y-80748000D01*
X153843000Y-87987000D02*
X154856700Y-87987000D01*
X153977000Y-80106000D02*
X154859000Y-80106000D01*
X152954000Y-80875000D02*
X152954000Y-87098000D01*
X152954000Y-87098000D02*
X153843000Y-87987000D01*
X153081000Y-80748000D02*
X152954000Y-80875000D01*
%TO.N,Net-(U26-IN-)*%
X154859000Y-81756000D02*
X153589000Y-81756000D01*
X156383000Y-81756000D02*
X154859000Y-81756000D01*
X154859000Y-81756000D02*
X154859000Y-84174700D01*
X154986000Y-84047700D02*
X154856700Y-84177000D01*
X154859000Y-84174700D02*
X154856700Y-84177000D01*
%TO.N,Net-(C132-Pad2)*%
X157524000Y-108718000D02*
X157554000Y-108688000D01*
X155976001Y-109704000D02*
X155915000Y-109765001D01*
X157524000Y-109704000D02*
X155976001Y-109704000D01*
X157524000Y-109704000D02*
X157524000Y-108718000D01*
%TO.N,Net-(C132-Pad1)*%
X158514000Y-108688000D02*
X158514000Y-107702000D01*
X158514000Y-107702000D02*
X158544000Y-107672000D01*
%TO.N,Net-(D8-COM)*%
X146434549Y-70047501D02*
X146434549Y-70652501D01*
X147158043Y-66284995D02*
X147153549Y-66280501D01*
X147158043Y-68247501D02*
X147158043Y-69324007D01*
X147158043Y-68247501D02*
X147158043Y-66284995D01*
X147158043Y-69324007D02*
X146434549Y-70047501D01*
%TO.N,Net-(D9-COM)*%
X157403494Y-68229000D02*
X157403494Y-69305506D01*
X156680000Y-70029000D02*
X156680000Y-70634000D01*
X157403494Y-68229000D02*
X157403494Y-66266494D01*
X157403494Y-66266494D02*
X157399000Y-66262000D01*
X157403494Y-69305506D02*
X156680000Y-70029000D01*
%TO.N,Net-(U22--)*%
X156002000Y-104497000D02*
X157911998Y-104497000D01*
X157911998Y-104497000D02*
X158038998Y-104370000D01*
X156001000Y-104496000D02*
X156002000Y-104497000D01*
X154478000Y-104496000D02*
X156001000Y-104496000D01*
%TO.N,Net-(R80-Pad2)*%
X160957000Y-102213000D02*
X160494000Y-101750000D01*
X159939000Y-102719000D02*
X159939000Y-101750000D01*
X156002000Y-102847000D02*
X159811000Y-102847000D01*
X161844000Y-102213000D02*
X160957000Y-102213000D01*
X160494000Y-101750000D02*
X159939000Y-101750000D01*
X159811000Y-102847000D02*
X159939000Y-102719000D01*
%TO.N,Net-(U23-\u002ASD)*%
X156916400Y-115901600D02*
X156916400Y-114996999D01*
X155085000Y-116647999D02*
X156170001Y-116647999D01*
X156170001Y-116647999D02*
X156916400Y-115901600D01*
%TO.N,Net-(U23-SDC)*%
X153166999Y-116647999D02*
X152573000Y-116054000D01*
X152573000Y-116054000D02*
X152573000Y-114996999D01*
X154125000Y-116647999D02*
X153166999Y-116647999D01*
%TO.N,Net-(U24-+)*%
X154951000Y-110120000D02*
X154125000Y-110946000D01*
X153406001Y-113696999D02*
X154125000Y-112978000D01*
X155736448Y-107864999D02*
X154951000Y-108650447D01*
X154951000Y-108650447D02*
X154951000Y-110120000D01*
X155915000Y-107864999D02*
X155736448Y-107864999D01*
X154125000Y-112978000D02*
X154125000Y-111355000D01*
X152573000Y-113696999D02*
X153406001Y-113696999D01*
X154125000Y-110946000D02*
X154125000Y-111355000D01*
%TO.N,Net-(U23--)*%
X155621000Y-112371000D02*
X155621000Y-113895000D01*
X156127000Y-111357000D02*
X156127000Y-111865000D01*
X156127000Y-111865000D02*
X155621000Y-112371000D01*
X155621000Y-113895000D02*
X156073001Y-114347001D01*
X156125000Y-111355000D02*
X156127000Y-111357000D01*
X155085000Y-111355000D02*
X156125000Y-111355000D01*
X156073001Y-114347001D02*
X156916400Y-114347001D01*
%TO.N,Net-(C135-Pad2)*%
X158544000Y-110464000D02*
X158544000Y-109704000D01*
X153970000Y-101195000D02*
X153335000Y-101830000D01*
X159177000Y-109704000D02*
X158544000Y-109704000D01*
X158923000Y-106656000D02*
X159431000Y-107164000D01*
X158542000Y-106656000D02*
X157780000Y-105894000D01*
X157651000Y-111357000D02*
X158544000Y-110464000D01*
X157780000Y-105894000D02*
X154097000Y-105894000D01*
X158542000Y-106656000D02*
X158923000Y-106656000D01*
X157147000Y-111357000D02*
X157651000Y-111357000D01*
X154097000Y-105894000D02*
X153208000Y-105005000D01*
X153335000Y-101830000D02*
X153208000Y-101957000D01*
X153208000Y-101957000D02*
X153208000Y-105005000D01*
X159431000Y-107164000D02*
X159431000Y-109450000D01*
X159431000Y-109450000D02*
X159177000Y-109704000D01*
%TO.N,Net-(U22-+)*%
X148623000Y-110479000D02*
X150063648Y-110479000D01*
X146510000Y-113585000D02*
X146510000Y-112879000D01*
X147140000Y-114215000D02*
X146510000Y-113585000D01*
X148102000Y-111355000D02*
X148102000Y-111000000D01*
X147140000Y-115550000D02*
X147140000Y-114215000D01*
X156385000Y-101197000D02*
X156938000Y-101750000D01*
X152319000Y-108223648D02*
X152319000Y-104243000D01*
X147140000Y-115550000D02*
X145870000Y-115550000D01*
X150063648Y-110479000D02*
X152319000Y-108223648D01*
X146510000Y-113006000D02*
X148128000Y-113006000D01*
X156938000Y-101750000D02*
X158038998Y-101750000D01*
X148102000Y-111000000D02*
X148623000Y-110479000D01*
X154986000Y-101197000D02*
X155621000Y-101197000D01*
X148128000Y-111381000D02*
X148102000Y-111355000D01*
X148128000Y-113006000D02*
X148128000Y-111381000D01*
X155621000Y-101197000D02*
X156385000Y-101197000D01*
%TO.N,Net-(C167-Pad1)*%
X164511000Y-101309000D02*
X164511000Y-100814000D01*
X162985000Y-101193000D02*
X162987000Y-101195000D01*
X161844000Y-101193000D02*
X162985000Y-101193000D01*
X164397000Y-101195000D02*
X164511000Y-101309000D01*
X163749000Y-100052000D02*
X163749000Y-99163000D01*
X162987000Y-101195000D02*
X164397000Y-101195000D01*
X164511000Y-100814000D02*
X163749000Y-100052000D01*
%TO.N,/DAC/dac_vout+*%
X163600000Y-51170654D02*
X163600000Y-51075000D01*
X171700997Y-52275997D02*
X171651000Y-52226000D01*
X164655346Y-52226000D02*
X163600000Y-51170654D01*
X171651000Y-52226000D02*
X164655346Y-52226000D01*
X171700997Y-53140000D02*
X171700997Y-52275997D01*
D69*
%TO.N,/DCCT ADCs/adc_vref*%
X145248549Y-92898451D02*
X145461000Y-92686000D01*
D68*
X153335000Y-94337000D02*
X153843000Y-93829000D01*
X153970000Y-94972000D02*
X153335000Y-94337000D01*
X155430400Y-93829000D02*
X155494000Y-93892600D01*
X154986000Y-100177000D02*
X153972000Y-100177000D01*
X153970000Y-100175000D02*
X152450000Y-100175000D01*
X155944002Y-93491002D02*
X155944002Y-93892600D01*
X150668000Y-101957000D02*
X150668000Y-109005000D01*
X152450000Y-100175000D02*
X150668000Y-101957000D01*
X155113000Y-93829000D02*
X155430400Y-93829000D01*
X150668000Y-109005000D02*
X149842000Y-109831000D01*
X155494000Y-93041000D02*
X155494000Y-93892600D01*
X155494000Y-93892600D02*
X155944002Y-93892600D01*
X153970000Y-100175000D02*
X153970000Y-94972000D01*
X153972000Y-100177000D02*
X153970000Y-100175000D01*
X153843000Y-93829000D02*
X155113000Y-93829000D01*
D69*
X145248549Y-93911101D02*
X145248549Y-92898451D01*
X145248549Y-93911101D02*
X145698551Y-93911101D01*
D68*
X155494000Y-93041000D02*
X155944002Y-93491002D01*
%TO.N,/DAC/dac_vref*%
X164935000Y-98107000D02*
X164935000Y-97977000D01*
X164935000Y-98107000D02*
X163785000Y-98107000D01*
X163785000Y-98107000D02*
X163749000Y-98143000D01*
X165652000Y-97260000D02*
X168401000Y-97260000D01*
X164935000Y-97977000D02*
X165652000Y-97260000D01*
D69*
X168401000Y-97260000D02*
X169375999Y-97260000D01*
D70*
%TO.N,Net-(D10-A)*%
X164892000Y-186602000D02*
X164892000Y-188291500D01*
%TO.N,Net-(D11-A)*%
X166797000Y-186602000D02*
X166797000Y-188291500D01*
%TO.N,Net-(J2-Pad59)*%
X166797000Y-184952000D02*
X166797000Y-183872000D01*
%TO.N,Net-(J2-Pad57)*%
X164892000Y-183872000D02*
X165019000Y-183745000D01*
X164892000Y-184952000D02*
X164892000Y-183872000D01*
%TD*%
M02*
