%TF.GenerationSoftware,KiCad,Pcbnew,9.0.9-9.0.9~ubuntu22.04.1*%
%TF.CreationDate,2026-08-31T08:44:57-04:00*%
%TF.ProjectId,psc_daughter_brd,7073635f-6461-4756-9768-7465725f6272,rev?*%
%TF.SameCoordinates,Original*%
%TF.FileFunction,Profile,NP*%
%FSLAX46Y46*%
G04 Gerber Fmt 4.6, Leading zero omitted, Abs format (unit mm)*
G04 Created by KiCad (PCBNEW 9.0.9-9.0.9~ubuntu22.04.1) date 2026-08-31 08:44:57*
%MOMM*%
%LPD*%
G01*
G04 APERTURE LIST*
%ADD10C,0.100000*%
%ADD11C,0.150000*%
%ADD12C,0.300000*%
%ADD13C,0.400000*%
%TA.AperFunction,Profile*%
%ADD14C,0.050000*%
%TD*%
G04 APERTURE END LIST*
D10*
D11*
X311800000Y-235400000D02*
X419800000Y-235400000D01*
X419800000Y-267400000D01*
X311800000Y-267400000D01*
X311800000Y-235400000D01*
D10*
D11*
X10000000Y-10000000D02*
X421800000Y-10000000D01*
X421800000Y-269400000D01*
X10000000Y-269400000D01*
X10000000Y-10000000D01*
D10*
D11*
X12000000Y-12000000D02*
X419800000Y-12000000D01*
X419800000Y-267400000D01*
X12000000Y-267400000D01*
X12000000Y-12000000D01*
D10*
D11*
X60000000Y-12000000D02*
X60000000Y-10000000D01*
D10*
D11*
X110000000Y-12000000D02*
X110000000Y-10000000D01*
D10*
D11*
X160000000Y-12000000D02*
X160000000Y-10000000D01*
D10*
D11*
X210000000Y-12000000D02*
X210000000Y-10000000D01*
D10*
D11*
X260000000Y-12000000D02*
X260000000Y-10000000D01*
D10*
D11*
X310000000Y-12000000D02*
X310000000Y-10000000D01*
D10*
D11*
X360000000Y-12000000D02*
X360000000Y-10000000D01*
D10*
D11*
X410000000Y-12000000D02*
X410000000Y-10000000D01*
D10*
D11*
X36089160Y-11593604D02*
X35346303Y-11593604D01*
X35717731Y-11593604D02*
X35717731Y-10293604D01*
X35717731Y-10293604D02*
X35593922Y-10479319D01*
X35593922Y-10479319D02*
X35470112Y-10603128D01*
X35470112Y-10603128D02*
X35346303Y-10665033D01*
D10*
D11*
X85346303Y-10417414D02*
X85408207Y-10355509D01*
X85408207Y-10355509D02*
X85532017Y-10293604D01*
X85532017Y-10293604D02*
X85841541Y-10293604D01*
X85841541Y-10293604D02*
X85965350Y-10355509D01*
X85965350Y-10355509D02*
X86027255Y-10417414D01*
X86027255Y-10417414D02*
X86089160Y-10541223D01*
X86089160Y-10541223D02*
X86089160Y-10665033D01*
X86089160Y-10665033D02*
X86027255Y-10850747D01*
X86027255Y-10850747D02*
X85284398Y-11593604D01*
X85284398Y-11593604D02*
X86089160Y-11593604D01*
D10*
D11*
X135284398Y-10293604D02*
X136089160Y-10293604D01*
X136089160Y-10293604D02*
X135655826Y-10788842D01*
X135655826Y-10788842D02*
X135841541Y-10788842D01*
X135841541Y-10788842D02*
X135965350Y-10850747D01*
X135965350Y-10850747D02*
X136027255Y-10912652D01*
X136027255Y-10912652D02*
X136089160Y-11036461D01*
X136089160Y-11036461D02*
X136089160Y-11345985D01*
X136089160Y-11345985D02*
X136027255Y-11469795D01*
X136027255Y-11469795D02*
X135965350Y-11531700D01*
X135965350Y-11531700D02*
X135841541Y-11593604D01*
X135841541Y-11593604D02*
X135470112Y-11593604D01*
X135470112Y-11593604D02*
X135346303Y-11531700D01*
X135346303Y-11531700D02*
X135284398Y-11469795D01*
D10*
D11*
X185965350Y-10726938D02*
X185965350Y-11593604D01*
X185655826Y-10231700D02*
X185346303Y-11160271D01*
X185346303Y-11160271D02*
X186151064Y-11160271D01*
D10*
D11*
X236027255Y-10293604D02*
X235408207Y-10293604D01*
X235408207Y-10293604D02*
X235346303Y-10912652D01*
X235346303Y-10912652D02*
X235408207Y-10850747D01*
X235408207Y-10850747D02*
X235532017Y-10788842D01*
X235532017Y-10788842D02*
X235841541Y-10788842D01*
X235841541Y-10788842D02*
X235965350Y-10850747D01*
X235965350Y-10850747D02*
X236027255Y-10912652D01*
X236027255Y-10912652D02*
X236089160Y-11036461D01*
X236089160Y-11036461D02*
X236089160Y-11345985D01*
X236089160Y-11345985D02*
X236027255Y-11469795D01*
X236027255Y-11469795D02*
X235965350Y-11531700D01*
X235965350Y-11531700D02*
X235841541Y-11593604D01*
X235841541Y-11593604D02*
X235532017Y-11593604D01*
X235532017Y-11593604D02*
X235408207Y-11531700D01*
X235408207Y-11531700D02*
X235346303Y-11469795D01*
D10*
D11*
X285965350Y-10293604D02*
X285717731Y-10293604D01*
X285717731Y-10293604D02*
X285593922Y-10355509D01*
X285593922Y-10355509D02*
X285532017Y-10417414D01*
X285532017Y-10417414D02*
X285408207Y-10603128D01*
X285408207Y-10603128D02*
X285346303Y-10850747D01*
X285346303Y-10850747D02*
X285346303Y-11345985D01*
X285346303Y-11345985D02*
X285408207Y-11469795D01*
X285408207Y-11469795D02*
X285470112Y-11531700D01*
X285470112Y-11531700D02*
X285593922Y-11593604D01*
X285593922Y-11593604D02*
X285841541Y-11593604D01*
X285841541Y-11593604D02*
X285965350Y-11531700D01*
X285965350Y-11531700D02*
X286027255Y-11469795D01*
X286027255Y-11469795D02*
X286089160Y-11345985D01*
X286089160Y-11345985D02*
X286089160Y-11036461D01*
X286089160Y-11036461D02*
X286027255Y-10912652D01*
X286027255Y-10912652D02*
X285965350Y-10850747D01*
X285965350Y-10850747D02*
X285841541Y-10788842D01*
X285841541Y-10788842D02*
X285593922Y-10788842D01*
X285593922Y-10788842D02*
X285470112Y-10850747D01*
X285470112Y-10850747D02*
X285408207Y-10912652D01*
X285408207Y-10912652D02*
X285346303Y-11036461D01*
D10*
D11*
X335284398Y-10293604D02*
X336151064Y-10293604D01*
X336151064Y-10293604D02*
X335593922Y-11593604D01*
D10*
D11*
X385593922Y-10850747D02*
X385470112Y-10788842D01*
X385470112Y-10788842D02*
X385408207Y-10726938D01*
X385408207Y-10726938D02*
X385346303Y-10603128D01*
X385346303Y-10603128D02*
X385346303Y-10541223D01*
X385346303Y-10541223D02*
X385408207Y-10417414D01*
X385408207Y-10417414D02*
X385470112Y-10355509D01*
X385470112Y-10355509D02*
X385593922Y-10293604D01*
X385593922Y-10293604D02*
X385841541Y-10293604D01*
X385841541Y-10293604D02*
X385965350Y-10355509D01*
X385965350Y-10355509D02*
X386027255Y-10417414D01*
X386027255Y-10417414D02*
X386089160Y-10541223D01*
X386089160Y-10541223D02*
X386089160Y-10603128D01*
X386089160Y-10603128D02*
X386027255Y-10726938D01*
X386027255Y-10726938D02*
X385965350Y-10788842D01*
X385965350Y-10788842D02*
X385841541Y-10850747D01*
X385841541Y-10850747D02*
X385593922Y-10850747D01*
X385593922Y-10850747D02*
X385470112Y-10912652D01*
X385470112Y-10912652D02*
X385408207Y-10974557D01*
X385408207Y-10974557D02*
X385346303Y-11098366D01*
X385346303Y-11098366D02*
X385346303Y-11345985D01*
X385346303Y-11345985D02*
X385408207Y-11469795D01*
X385408207Y-11469795D02*
X385470112Y-11531700D01*
X385470112Y-11531700D02*
X385593922Y-11593604D01*
X385593922Y-11593604D02*
X385841541Y-11593604D01*
X385841541Y-11593604D02*
X385965350Y-11531700D01*
X385965350Y-11531700D02*
X386027255Y-11469795D01*
X386027255Y-11469795D02*
X386089160Y-11345985D01*
X386089160Y-11345985D02*
X386089160Y-11098366D01*
X386089160Y-11098366D02*
X386027255Y-10974557D01*
X386027255Y-10974557D02*
X385965350Y-10912652D01*
X385965350Y-10912652D02*
X385841541Y-10850747D01*
D10*
D11*
X60000000Y-267400000D02*
X60000000Y-269400000D01*
D10*
D11*
X110000000Y-267400000D02*
X110000000Y-269400000D01*
D10*
D11*
X160000000Y-267400000D02*
X160000000Y-269400000D01*
D10*
D11*
X210000000Y-267400000D02*
X210000000Y-269400000D01*
D10*
D11*
X260000000Y-267400000D02*
X260000000Y-269400000D01*
D10*
D11*
X310000000Y-267400000D02*
X310000000Y-269400000D01*
D10*
D11*
X360000000Y-267400000D02*
X360000000Y-269400000D01*
D10*
D11*
X410000000Y-267400000D02*
X410000000Y-269400000D01*
D10*
D11*
X36089160Y-268993604D02*
X35346303Y-268993604D01*
X35717731Y-268993604D02*
X35717731Y-267693604D01*
X35717731Y-267693604D02*
X35593922Y-267879319D01*
X35593922Y-267879319D02*
X35470112Y-268003128D01*
X35470112Y-268003128D02*
X35346303Y-268065033D01*
D10*
D11*
X85346303Y-267817414D02*
X85408207Y-267755509D01*
X85408207Y-267755509D02*
X85532017Y-267693604D01*
X85532017Y-267693604D02*
X85841541Y-267693604D01*
X85841541Y-267693604D02*
X85965350Y-267755509D01*
X85965350Y-267755509D02*
X86027255Y-267817414D01*
X86027255Y-267817414D02*
X86089160Y-267941223D01*
X86089160Y-267941223D02*
X86089160Y-268065033D01*
X86089160Y-268065033D02*
X86027255Y-268250747D01*
X86027255Y-268250747D02*
X85284398Y-268993604D01*
X85284398Y-268993604D02*
X86089160Y-268993604D01*
D10*
D11*
X135284398Y-267693604D02*
X136089160Y-267693604D01*
X136089160Y-267693604D02*
X135655826Y-268188842D01*
X135655826Y-268188842D02*
X135841541Y-268188842D01*
X135841541Y-268188842D02*
X135965350Y-268250747D01*
X135965350Y-268250747D02*
X136027255Y-268312652D01*
X136027255Y-268312652D02*
X136089160Y-268436461D01*
X136089160Y-268436461D02*
X136089160Y-268745985D01*
X136089160Y-268745985D02*
X136027255Y-268869795D01*
X136027255Y-268869795D02*
X135965350Y-268931700D01*
X135965350Y-268931700D02*
X135841541Y-268993604D01*
X135841541Y-268993604D02*
X135470112Y-268993604D01*
X135470112Y-268993604D02*
X135346303Y-268931700D01*
X135346303Y-268931700D02*
X135284398Y-268869795D01*
D10*
D11*
X185965350Y-268126938D02*
X185965350Y-268993604D01*
X185655826Y-267631700D02*
X185346303Y-268560271D01*
X185346303Y-268560271D02*
X186151064Y-268560271D01*
D10*
D11*
X236027255Y-267693604D02*
X235408207Y-267693604D01*
X235408207Y-267693604D02*
X235346303Y-268312652D01*
X235346303Y-268312652D02*
X235408207Y-268250747D01*
X235408207Y-268250747D02*
X235532017Y-268188842D01*
X235532017Y-268188842D02*
X235841541Y-268188842D01*
X235841541Y-268188842D02*
X235965350Y-268250747D01*
X235965350Y-268250747D02*
X236027255Y-268312652D01*
X236027255Y-268312652D02*
X236089160Y-268436461D01*
X236089160Y-268436461D02*
X236089160Y-268745985D01*
X236089160Y-268745985D02*
X236027255Y-268869795D01*
X236027255Y-268869795D02*
X235965350Y-268931700D01*
X235965350Y-268931700D02*
X235841541Y-268993604D01*
X235841541Y-268993604D02*
X235532017Y-268993604D01*
X235532017Y-268993604D02*
X235408207Y-268931700D01*
X235408207Y-268931700D02*
X235346303Y-268869795D01*
D10*
D11*
X285965350Y-267693604D02*
X285717731Y-267693604D01*
X285717731Y-267693604D02*
X285593922Y-267755509D01*
X285593922Y-267755509D02*
X285532017Y-267817414D01*
X285532017Y-267817414D02*
X285408207Y-268003128D01*
X285408207Y-268003128D02*
X285346303Y-268250747D01*
X285346303Y-268250747D02*
X285346303Y-268745985D01*
X285346303Y-268745985D02*
X285408207Y-268869795D01*
X285408207Y-268869795D02*
X285470112Y-268931700D01*
X285470112Y-268931700D02*
X285593922Y-268993604D01*
X285593922Y-268993604D02*
X285841541Y-268993604D01*
X285841541Y-268993604D02*
X285965350Y-268931700D01*
X285965350Y-268931700D02*
X286027255Y-268869795D01*
X286027255Y-268869795D02*
X286089160Y-268745985D01*
X286089160Y-268745985D02*
X286089160Y-268436461D01*
X286089160Y-268436461D02*
X286027255Y-268312652D01*
X286027255Y-268312652D02*
X285965350Y-268250747D01*
X285965350Y-268250747D02*
X285841541Y-268188842D01*
X285841541Y-268188842D02*
X285593922Y-268188842D01*
X285593922Y-268188842D02*
X285470112Y-268250747D01*
X285470112Y-268250747D02*
X285408207Y-268312652D01*
X285408207Y-268312652D02*
X285346303Y-268436461D01*
D10*
D11*
X335284398Y-267693604D02*
X336151064Y-267693604D01*
X336151064Y-267693604D02*
X335593922Y-268993604D01*
D10*
D11*
X385593922Y-268250747D02*
X385470112Y-268188842D01*
X385470112Y-268188842D02*
X385408207Y-268126938D01*
X385408207Y-268126938D02*
X385346303Y-268003128D01*
X385346303Y-268003128D02*
X385346303Y-267941223D01*
X385346303Y-267941223D02*
X385408207Y-267817414D01*
X385408207Y-267817414D02*
X385470112Y-267755509D01*
X385470112Y-267755509D02*
X385593922Y-267693604D01*
X385593922Y-267693604D02*
X385841541Y-267693604D01*
X385841541Y-267693604D02*
X385965350Y-267755509D01*
X385965350Y-267755509D02*
X386027255Y-267817414D01*
X386027255Y-267817414D02*
X386089160Y-267941223D01*
X386089160Y-267941223D02*
X386089160Y-268003128D01*
X386089160Y-268003128D02*
X386027255Y-268126938D01*
X386027255Y-268126938D02*
X385965350Y-268188842D01*
X385965350Y-268188842D02*
X385841541Y-268250747D01*
X385841541Y-268250747D02*
X385593922Y-268250747D01*
X385593922Y-268250747D02*
X385470112Y-268312652D01*
X385470112Y-268312652D02*
X385408207Y-268374557D01*
X385408207Y-268374557D02*
X385346303Y-268498366D01*
X385346303Y-268498366D02*
X385346303Y-268745985D01*
X385346303Y-268745985D02*
X385408207Y-268869795D01*
X385408207Y-268869795D02*
X385470112Y-268931700D01*
X385470112Y-268931700D02*
X385593922Y-268993604D01*
X385593922Y-268993604D02*
X385841541Y-268993604D01*
X385841541Y-268993604D02*
X385965350Y-268931700D01*
X385965350Y-268931700D02*
X386027255Y-268869795D01*
X386027255Y-268869795D02*
X386089160Y-268745985D01*
X386089160Y-268745985D02*
X386089160Y-268498366D01*
X386089160Y-268498366D02*
X386027255Y-268374557D01*
X386027255Y-268374557D02*
X385965350Y-268312652D01*
X385965350Y-268312652D02*
X385841541Y-268250747D01*
D10*
D11*
X10000000Y-60000000D02*
X12000000Y-60000000D01*
D10*
D11*
X10000000Y-110000000D02*
X12000000Y-110000000D01*
D10*
D11*
X10000000Y-160000000D02*
X12000000Y-160000000D01*
D10*
D11*
X10000000Y-210000000D02*
X12000000Y-210000000D01*
D10*
D11*
X10000000Y-260000000D02*
X12000000Y-260000000D01*
D10*
D11*
X10690476Y-35222176D02*
X11309523Y-35222176D01*
X10566666Y-35593604D02*
X10999999Y-34293604D01*
X10999999Y-34293604D02*
X11433333Y-35593604D01*
D10*
D11*
X11092857Y-84912652D02*
X11278571Y-84974557D01*
X11278571Y-84974557D02*
X11340476Y-85036461D01*
X11340476Y-85036461D02*
X11402380Y-85160271D01*
X11402380Y-85160271D02*
X11402380Y-85345985D01*
X11402380Y-85345985D02*
X11340476Y-85469795D01*
X11340476Y-85469795D02*
X11278571Y-85531700D01*
X11278571Y-85531700D02*
X11154761Y-85593604D01*
X11154761Y-85593604D02*
X10659523Y-85593604D01*
X10659523Y-85593604D02*
X10659523Y-84293604D01*
X10659523Y-84293604D02*
X11092857Y-84293604D01*
X11092857Y-84293604D02*
X11216666Y-84355509D01*
X11216666Y-84355509D02*
X11278571Y-84417414D01*
X11278571Y-84417414D02*
X11340476Y-84541223D01*
X11340476Y-84541223D02*
X11340476Y-84665033D01*
X11340476Y-84665033D02*
X11278571Y-84788842D01*
X11278571Y-84788842D02*
X11216666Y-84850747D01*
X11216666Y-84850747D02*
X11092857Y-84912652D01*
X11092857Y-84912652D02*
X10659523Y-84912652D01*
D10*
D11*
X11402380Y-135469795D02*
X11340476Y-135531700D01*
X11340476Y-135531700D02*
X11154761Y-135593604D01*
X11154761Y-135593604D02*
X11030952Y-135593604D01*
X11030952Y-135593604D02*
X10845238Y-135531700D01*
X10845238Y-135531700D02*
X10721428Y-135407890D01*
X10721428Y-135407890D02*
X10659523Y-135284080D01*
X10659523Y-135284080D02*
X10597619Y-135036461D01*
X10597619Y-135036461D02*
X10597619Y-134850747D01*
X10597619Y-134850747D02*
X10659523Y-134603128D01*
X10659523Y-134603128D02*
X10721428Y-134479319D01*
X10721428Y-134479319D02*
X10845238Y-134355509D01*
X10845238Y-134355509D02*
X11030952Y-134293604D01*
X11030952Y-134293604D02*
X11154761Y-134293604D01*
X11154761Y-134293604D02*
X11340476Y-134355509D01*
X11340476Y-134355509D02*
X11402380Y-134417414D01*
D10*
D11*
X10659523Y-185593604D02*
X10659523Y-184293604D01*
X10659523Y-184293604D02*
X10969047Y-184293604D01*
X10969047Y-184293604D02*
X11154761Y-184355509D01*
X11154761Y-184355509D02*
X11278571Y-184479319D01*
X11278571Y-184479319D02*
X11340476Y-184603128D01*
X11340476Y-184603128D02*
X11402380Y-184850747D01*
X11402380Y-184850747D02*
X11402380Y-185036461D01*
X11402380Y-185036461D02*
X11340476Y-185284080D01*
X11340476Y-185284080D02*
X11278571Y-185407890D01*
X11278571Y-185407890D02*
X11154761Y-185531700D01*
X11154761Y-185531700D02*
X10969047Y-185593604D01*
X10969047Y-185593604D02*
X10659523Y-185593604D01*
D10*
D11*
X10721428Y-234912652D02*
X11154762Y-234912652D01*
X11340476Y-235593604D02*
X10721428Y-235593604D01*
X10721428Y-235593604D02*
X10721428Y-234293604D01*
X10721428Y-234293604D02*
X11340476Y-234293604D01*
D10*
D11*
X421800000Y-60000000D02*
X419800000Y-60000000D01*
D10*
D11*
X421800000Y-110000000D02*
X419800000Y-110000000D01*
D10*
D11*
X421800000Y-160000000D02*
X419800000Y-160000000D01*
D10*
D11*
X421800000Y-210000000D02*
X419800000Y-210000000D01*
D10*
D11*
X421800000Y-260000000D02*
X419800000Y-260000000D01*
D10*
D11*
X420490476Y-35222176D02*
X421109523Y-35222176D01*
X420366666Y-35593604D02*
X420799999Y-34293604D01*
X420799999Y-34293604D02*
X421233333Y-35593604D01*
D10*
D11*
X420892857Y-84912652D02*
X421078571Y-84974557D01*
X421078571Y-84974557D02*
X421140476Y-85036461D01*
X421140476Y-85036461D02*
X421202380Y-85160271D01*
X421202380Y-85160271D02*
X421202380Y-85345985D01*
X421202380Y-85345985D02*
X421140476Y-85469795D01*
X421140476Y-85469795D02*
X421078571Y-85531700D01*
X421078571Y-85531700D02*
X420954761Y-85593604D01*
X420954761Y-85593604D02*
X420459523Y-85593604D01*
X420459523Y-85593604D02*
X420459523Y-84293604D01*
X420459523Y-84293604D02*
X420892857Y-84293604D01*
X420892857Y-84293604D02*
X421016666Y-84355509D01*
X421016666Y-84355509D02*
X421078571Y-84417414D01*
X421078571Y-84417414D02*
X421140476Y-84541223D01*
X421140476Y-84541223D02*
X421140476Y-84665033D01*
X421140476Y-84665033D02*
X421078571Y-84788842D01*
X421078571Y-84788842D02*
X421016666Y-84850747D01*
X421016666Y-84850747D02*
X420892857Y-84912652D01*
X420892857Y-84912652D02*
X420459523Y-84912652D01*
D10*
D11*
X421202380Y-135469795D02*
X421140476Y-135531700D01*
X421140476Y-135531700D02*
X420954761Y-135593604D01*
X420954761Y-135593604D02*
X420830952Y-135593604D01*
X420830952Y-135593604D02*
X420645238Y-135531700D01*
X420645238Y-135531700D02*
X420521428Y-135407890D01*
X420521428Y-135407890D02*
X420459523Y-135284080D01*
X420459523Y-135284080D02*
X420397619Y-135036461D01*
X420397619Y-135036461D02*
X420397619Y-134850747D01*
X420397619Y-134850747D02*
X420459523Y-134603128D01*
X420459523Y-134603128D02*
X420521428Y-134479319D01*
X420521428Y-134479319D02*
X420645238Y-134355509D01*
X420645238Y-134355509D02*
X420830952Y-134293604D01*
X420830952Y-134293604D02*
X420954761Y-134293604D01*
X420954761Y-134293604D02*
X421140476Y-134355509D01*
X421140476Y-134355509D02*
X421202380Y-134417414D01*
D10*
D11*
X420459523Y-185593604D02*
X420459523Y-184293604D01*
X420459523Y-184293604D02*
X420769047Y-184293604D01*
X420769047Y-184293604D02*
X420954761Y-184355509D01*
X420954761Y-184355509D02*
X421078571Y-184479319D01*
X421078571Y-184479319D02*
X421140476Y-184603128D01*
X421140476Y-184603128D02*
X421202380Y-184850747D01*
X421202380Y-184850747D02*
X421202380Y-185036461D01*
X421202380Y-185036461D02*
X421140476Y-185284080D01*
X421140476Y-185284080D02*
X421078571Y-185407890D01*
X421078571Y-185407890D02*
X420954761Y-185531700D01*
X420954761Y-185531700D02*
X420769047Y-185593604D01*
X420769047Y-185593604D02*
X420459523Y-185593604D01*
D10*
D11*
X420521428Y-234912652D02*
X420954762Y-234912652D01*
X421140476Y-235593604D02*
X420521428Y-235593604D01*
X420521428Y-235593604D02*
X420521428Y-234293604D01*
X420521428Y-234293604D02*
X421140476Y-234293604D01*
D10*
D11*
X335255826Y-263186128D02*
X335255826Y-261686128D01*
X335255826Y-261686128D02*
X335612969Y-261686128D01*
X335612969Y-261686128D02*
X335827255Y-261757557D01*
X335827255Y-261757557D02*
X335970112Y-261900414D01*
X335970112Y-261900414D02*
X336041541Y-262043271D01*
X336041541Y-262043271D02*
X336112969Y-262328985D01*
X336112969Y-262328985D02*
X336112969Y-262543271D01*
X336112969Y-262543271D02*
X336041541Y-262828985D01*
X336041541Y-262828985D02*
X335970112Y-262971842D01*
X335970112Y-262971842D02*
X335827255Y-263114700D01*
X335827255Y-263114700D02*
X335612969Y-263186128D01*
X335612969Y-263186128D02*
X335255826Y-263186128D01*
X337398684Y-263186128D02*
X337398684Y-262400414D01*
X337398684Y-262400414D02*
X337327255Y-262257557D01*
X337327255Y-262257557D02*
X337184398Y-262186128D01*
X337184398Y-262186128D02*
X336898684Y-262186128D01*
X336898684Y-262186128D02*
X336755826Y-262257557D01*
X337398684Y-263114700D02*
X337255826Y-263186128D01*
X337255826Y-263186128D02*
X336898684Y-263186128D01*
X336898684Y-263186128D02*
X336755826Y-263114700D01*
X336755826Y-263114700D02*
X336684398Y-262971842D01*
X336684398Y-262971842D02*
X336684398Y-262828985D01*
X336684398Y-262828985D02*
X336755826Y-262686128D01*
X336755826Y-262686128D02*
X336898684Y-262614700D01*
X336898684Y-262614700D02*
X337255826Y-262614700D01*
X337255826Y-262614700D02*
X337398684Y-262543271D01*
X337898684Y-262186128D02*
X338470112Y-262186128D01*
X338112969Y-261686128D02*
X338112969Y-262971842D01*
X338112969Y-262971842D02*
X338184398Y-263114700D01*
X338184398Y-263114700D02*
X338327255Y-263186128D01*
X338327255Y-263186128D02*
X338470112Y-263186128D01*
X339541541Y-263114700D02*
X339398684Y-263186128D01*
X339398684Y-263186128D02*
X339112970Y-263186128D01*
X339112970Y-263186128D02*
X338970112Y-263114700D01*
X338970112Y-263114700D02*
X338898684Y-262971842D01*
X338898684Y-262971842D02*
X338898684Y-262400414D01*
X338898684Y-262400414D02*
X338970112Y-262257557D01*
X338970112Y-262257557D02*
X339112970Y-262186128D01*
X339112970Y-262186128D02*
X339398684Y-262186128D01*
X339398684Y-262186128D02*
X339541541Y-262257557D01*
X339541541Y-262257557D02*
X339612970Y-262400414D01*
X339612970Y-262400414D02*
X339612970Y-262543271D01*
X339612970Y-262543271D02*
X338898684Y-262686128D01*
X340255826Y-263043271D02*
X340327255Y-263114700D01*
X340327255Y-263114700D02*
X340255826Y-263186128D01*
X340255826Y-263186128D02*
X340184398Y-263114700D01*
X340184398Y-263114700D02*
X340255826Y-263043271D01*
X340255826Y-263043271D02*
X340255826Y-263186128D01*
X340255826Y-262257557D02*
X340327255Y-262328985D01*
X340327255Y-262328985D02*
X340255826Y-262400414D01*
X340255826Y-262400414D02*
X340184398Y-262328985D01*
X340184398Y-262328985D02*
X340255826Y-262257557D01*
X340255826Y-262257557D02*
X340255826Y-262400414D01*
D10*
D11*
X311800000Y-263900000D02*
X419800000Y-263900000D01*
D10*
D11*
X313255826Y-265986128D02*
X313255826Y-264486128D01*
X314112969Y-265986128D02*
X313470112Y-265128985D01*
X314112969Y-264486128D02*
X313255826Y-265343271D01*
X314755826Y-265986128D02*
X314755826Y-264986128D01*
X314755826Y-264486128D02*
X314684398Y-264557557D01*
X314684398Y-264557557D02*
X314755826Y-264628985D01*
X314755826Y-264628985D02*
X314827255Y-264557557D01*
X314827255Y-264557557D02*
X314755826Y-264486128D01*
X314755826Y-264486128D02*
X314755826Y-264628985D01*
X316327255Y-265843271D02*
X316255827Y-265914700D01*
X316255827Y-265914700D02*
X316041541Y-265986128D01*
X316041541Y-265986128D02*
X315898684Y-265986128D01*
X315898684Y-265986128D02*
X315684398Y-265914700D01*
X315684398Y-265914700D02*
X315541541Y-265771842D01*
X315541541Y-265771842D02*
X315470112Y-265628985D01*
X315470112Y-265628985D02*
X315398684Y-265343271D01*
X315398684Y-265343271D02*
X315398684Y-265128985D01*
X315398684Y-265128985D02*
X315470112Y-264843271D01*
X315470112Y-264843271D02*
X315541541Y-264700414D01*
X315541541Y-264700414D02*
X315684398Y-264557557D01*
X315684398Y-264557557D02*
X315898684Y-264486128D01*
X315898684Y-264486128D02*
X316041541Y-264486128D01*
X316041541Y-264486128D02*
X316255827Y-264557557D01*
X316255827Y-264557557D02*
X316327255Y-264628985D01*
X317612970Y-265986128D02*
X317612970Y-265200414D01*
X317612970Y-265200414D02*
X317541541Y-265057557D01*
X317541541Y-265057557D02*
X317398684Y-264986128D01*
X317398684Y-264986128D02*
X317112970Y-264986128D01*
X317112970Y-264986128D02*
X316970112Y-265057557D01*
X317612970Y-265914700D02*
X317470112Y-265986128D01*
X317470112Y-265986128D02*
X317112970Y-265986128D01*
X317112970Y-265986128D02*
X316970112Y-265914700D01*
X316970112Y-265914700D02*
X316898684Y-265771842D01*
X316898684Y-265771842D02*
X316898684Y-265628985D01*
X316898684Y-265628985D02*
X316970112Y-265486128D01*
X316970112Y-265486128D02*
X317112970Y-265414700D01*
X317112970Y-265414700D02*
X317470112Y-265414700D01*
X317470112Y-265414700D02*
X317612970Y-265343271D01*
X318970113Y-265986128D02*
X318970113Y-264486128D01*
X318970113Y-265914700D02*
X318827255Y-265986128D01*
X318827255Y-265986128D02*
X318541541Y-265986128D01*
X318541541Y-265986128D02*
X318398684Y-265914700D01*
X318398684Y-265914700D02*
X318327255Y-265843271D01*
X318327255Y-265843271D02*
X318255827Y-265700414D01*
X318255827Y-265700414D02*
X318255827Y-265271842D01*
X318255827Y-265271842D02*
X318327255Y-265128985D01*
X318327255Y-265128985D02*
X318398684Y-265057557D01*
X318398684Y-265057557D02*
X318541541Y-264986128D01*
X318541541Y-264986128D02*
X318827255Y-264986128D01*
X318827255Y-264986128D02*
X318970113Y-265057557D01*
X320827255Y-265200414D02*
X321327255Y-265200414D01*
X321541541Y-265986128D02*
X320827255Y-265986128D01*
X320827255Y-265986128D02*
X320827255Y-264486128D01*
X320827255Y-264486128D02*
X321541541Y-264486128D01*
X322184398Y-265843271D02*
X322255827Y-265914700D01*
X322255827Y-265914700D02*
X322184398Y-265986128D01*
X322184398Y-265986128D02*
X322112970Y-265914700D01*
X322112970Y-265914700D02*
X322184398Y-265843271D01*
X322184398Y-265843271D02*
X322184398Y-265986128D01*
X322898684Y-265986128D02*
X322898684Y-264486128D01*
X322898684Y-264486128D02*
X323255827Y-264486128D01*
X323255827Y-264486128D02*
X323470113Y-264557557D01*
X323470113Y-264557557D02*
X323612970Y-264700414D01*
X323612970Y-264700414D02*
X323684399Y-264843271D01*
X323684399Y-264843271D02*
X323755827Y-265128985D01*
X323755827Y-265128985D02*
X323755827Y-265343271D01*
X323755827Y-265343271D02*
X323684399Y-265628985D01*
X323684399Y-265628985D02*
X323612970Y-265771842D01*
X323612970Y-265771842D02*
X323470113Y-265914700D01*
X323470113Y-265914700D02*
X323255827Y-265986128D01*
X323255827Y-265986128D02*
X322898684Y-265986128D01*
X324398684Y-265843271D02*
X324470113Y-265914700D01*
X324470113Y-265914700D02*
X324398684Y-265986128D01*
X324398684Y-265986128D02*
X324327256Y-265914700D01*
X324327256Y-265914700D02*
X324398684Y-265843271D01*
X324398684Y-265843271D02*
X324398684Y-265986128D01*
X325041542Y-265557557D02*
X325755828Y-265557557D01*
X324898685Y-265986128D02*
X325398685Y-264486128D01*
X325398685Y-264486128D02*
X325898685Y-265986128D01*
X326398684Y-265843271D02*
X326470113Y-265914700D01*
X326470113Y-265914700D02*
X326398684Y-265986128D01*
X326398684Y-265986128D02*
X326327256Y-265914700D01*
X326327256Y-265914700D02*
X326398684Y-265843271D01*
X326398684Y-265843271D02*
X326398684Y-265986128D01*
X328327256Y-265986128D02*
X328612970Y-265986128D01*
X328612970Y-265986128D02*
X328755827Y-265914700D01*
X328755827Y-265914700D02*
X328827256Y-265843271D01*
X328827256Y-265843271D02*
X328970113Y-265628985D01*
X328970113Y-265628985D02*
X329041542Y-265343271D01*
X329041542Y-265343271D02*
X329041542Y-264771842D01*
X329041542Y-264771842D02*
X328970113Y-264628985D01*
X328970113Y-264628985D02*
X328898685Y-264557557D01*
X328898685Y-264557557D02*
X328755827Y-264486128D01*
X328755827Y-264486128D02*
X328470113Y-264486128D01*
X328470113Y-264486128D02*
X328327256Y-264557557D01*
X328327256Y-264557557D02*
X328255827Y-264628985D01*
X328255827Y-264628985D02*
X328184399Y-264771842D01*
X328184399Y-264771842D02*
X328184399Y-265128985D01*
X328184399Y-265128985D02*
X328255827Y-265271842D01*
X328255827Y-265271842D02*
X328327256Y-265343271D01*
X328327256Y-265343271D02*
X328470113Y-265414700D01*
X328470113Y-265414700D02*
X328755827Y-265414700D01*
X328755827Y-265414700D02*
X328898685Y-265343271D01*
X328898685Y-265343271D02*
X328970113Y-265271842D01*
X328970113Y-265271842D02*
X329041542Y-265128985D01*
X329684398Y-265843271D02*
X329755827Y-265914700D01*
X329755827Y-265914700D02*
X329684398Y-265986128D01*
X329684398Y-265986128D02*
X329612970Y-265914700D01*
X329612970Y-265914700D02*
X329684398Y-265843271D01*
X329684398Y-265843271D02*
X329684398Y-265986128D01*
X330684399Y-264486128D02*
X330827256Y-264486128D01*
X330827256Y-264486128D02*
X330970113Y-264557557D01*
X330970113Y-264557557D02*
X331041542Y-264628985D01*
X331041542Y-264628985D02*
X331112970Y-264771842D01*
X331112970Y-264771842D02*
X331184399Y-265057557D01*
X331184399Y-265057557D02*
X331184399Y-265414700D01*
X331184399Y-265414700D02*
X331112970Y-265700414D01*
X331112970Y-265700414D02*
X331041542Y-265843271D01*
X331041542Y-265843271D02*
X330970113Y-265914700D01*
X330970113Y-265914700D02*
X330827256Y-265986128D01*
X330827256Y-265986128D02*
X330684399Y-265986128D01*
X330684399Y-265986128D02*
X330541542Y-265914700D01*
X330541542Y-265914700D02*
X330470113Y-265843271D01*
X330470113Y-265843271D02*
X330398684Y-265700414D01*
X330398684Y-265700414D02*
X330327256Y-265414700D01*
X330327256Y-265414700D02*
X330327256Y-265057557D01*
X330327256Y-265057557D02*
X330398684Y-264771842D01*
X330398684Y-264771842D02*
X330470113Y-264628985D01*
X330470113Y-264628985D02*
X330541542Y-264557557D01*
X330541542Y-264557557D02*
X330684399Y-264486128D01*
X331827255Y-265843271D02*
X331898684Y-265914700D01*
X331898684Y-265914700D02*
X331827255Y-265986128D01*
X331827255Y-265986128D02*
X331755827Y-265914700D01*
X331755827Y-265914700D02*
X331827255Y-265843271D01*
X331827255Y-265843271D02*
X331827255Y-265986128D01*
X332612970Y-265986128D02*
X332898684Y-265986128D01*
X332898684Y-265986128D02*
X333041541Y-265914700D01*
X333041541Y-265914700D02*
X333112970Y-265843271D01*
X333112970Y-265843271D02*
X333255827Y-265628985D01*
X333255827Y-265628985D02*
X333327256Y-265343271D01*
X333327256Y-265343271D02*
X333327256Y-264771842D01*
X333327256Y-264771842D02*
X333255827Y-264628985D01*
X333255827Y-264628985D02*
X333184399Y-264557557D01*
X333184399Y-264557557D02*
X333041541Y-264486128D01*
X333041541Y-264486128D02*
X332755827Y-264486128D01*
X332755827Y-264486128D02*
X332612970Y-264557557D01*
X332612970Y-264557557D02*
X332541541Y-264628985D01*
X332541541Y-264628985D02*
X332470113Y-264771842D01*
X332470113Y-264771842D02*
X332470113Y-265128985D01*
X332470113Y-265128985D02*
X332541541Y-265271842D01*
X332541541Y-265271842D02*
X332612970Y-265343271D01*
X332612970Y-265343271D02*
X332755827Y-265414700D01*
X332755827Y-265414700D02*
X333041541Y-265414700D01*
X333041541Y-265414700D02*
X333184399Y-265343271D01*
X333184399Y-265343271D02*
X333255827Y-265271842D01*
X333255827Y-265271842D02*
X333327256Y-265128985D01*
D10*
D11*
X311800000Y-260900000D02*
X419800000Y-260900000D01*
D10*
D12*
X399211653Y-263178328D02*
X398711653Y-262464042D01*
X398354510Y-263178328D02*
X398354510Y-261678328D01*
X398354510Y-261678328D02*
X398925939Y-261678328D01*
X398925939Y-261678328D02*
X399068796Y-261749757D01*
X399068796Y-261749757D02*
X399140225Y-261821185D01*
X399140225Y-261821185D02*
X399211653Y-261964042D01*
X399211653Y-261964042D02*
X399211653Y-262178328D01*
X399211653Y-262178328D02*
X399140225Y-262321185D01*
X399140225Y-262321185D02*
X399068796Y-262392614D01*
X399068796Y-262392614D02*
X398925939Y-262464042D01*
X398925939Y-262464042D02*
X398354510Y-262464042D01*
X400425939Y-263106900D02*
X400283082Y-263178328D01*
X400283082Y-263178328D02*
X399997368Y-263178328D01*
X399997368Y-263178328D02*
X399854510Y-263106900D01*
X399854510Y-263106900D02*
X399783082Y-262964042D01*
X399783082Y-262964042D02*
X399783082Y-262392614D01*
X399783082Y-262392614D02*
X399854510Y-262249757D01*
X399854510Y-262249757D02*
X399997368Y-262178328D01*
X399997368Y-262178328D02*
X400283082Y-262178328D01*
X400283082Y-262178328D02*
X400425939Y-262249757D01*
X400425939Y-262249757D02*
X400497368Y-262392614D01*
X400497368Y-262392614D02*
X400497368Y-262535471D01*
X400497368Y-262535471D02*
X399783082Y-262678328D01*
X400997367Y-262178328D02*
X401354510Y-263178328D01*
X401354510Y-263178328D02*
X401711653Y-262178328D01*
X402283081Y-263035471D02*
X402354510Y-263106900D01*
X402354510Y-263106900D02*
X402283081Y-263178328D01*
X402283081Y-263178328D02*
X402211653Y-263106900D01*
X402211653Y-263106900D02*
X402283081Y-263035471D01*
X402283081Y-263035471D02*
X402283081Y-263178328D01*
X402283081Y-262249757D02*
X402354510Y-262321185D01*
X402354510Y-262321185D02*
X402283081Y-262392614D01*
X402283081Y-262392614D02*
X402211653Y-262321185D01*
X402211653Y-262321185D02*
X402283081Y-262249757D01*
X402283081Y-262249757D02*
X402283081Y-262392614D01*
D10*
D11*
X313184398Y-263114700D02*
X313398684Y-263186128D01*
X313398684Y-263186128D02*
X313755826Y-263186128D01*
X313755826Y-263186128D02*
X313898684Y-263114700D01*
X313898684Y-263114700D02*
X313970112Y-263043271D01*
X313970112Y-263043271D02*
X314041541Y-262900414D01*
X314041541Y-262900414D02*
X314041541Y-262757557D01*
X314041541Y-262757557D02*
X313970112Y-262614700D01*
X313970112Y-262614700D02*
X313898684Y-262543271D01*
X313898684Y-262543271D02*
X313755826Y-262471842D01*
X313755826Y-262471842D02*
X313470112Y-262400414D01*
X313470112Y-262400414D02*
X313327255Y-262328985D01*
X313327255Y-262328985D02*
X313255826Y-262257557D01*
X313255826Y-262257557D02*
X313184398Y-262114700D01*
X313184398Y-262114700D02*
X313184398Y-261971842D01*
X313184398Y-261971842D02*
X313255826Y-261828985D01*
X313255826Y-261828985D02*
X313327255Y-261757557D01*
X313327255Y-261757557D02*
X313470112Y-261686128D01*
X313470112Y-261686128D02*
X313827255Y-261686128D01*
X313827255Y-261686128D02*
X314041541Y-261757557D01*
X314684397Y-263186128D02*
X314684397Y-262186128D01*
X314684397Y-261686128D02*
X314612969Y-261757557D01*
X314612969Y-261757557D02*
X314684397Y-261828985D01*
X314684397Y-261828985D02*
X314755826Y-261757557D01*
X314755826Y-261757557D02*
X314684397Y-261686128D01*
X314684397Y-261686128D02*
X314684397Y-261828985D01*
X315255826Y-262186128D02*
X316041541Y-262186128D01*
X316041541Y-262186128D02*
X315255826Y-263186128D01*
X315255826Y-263186128D02*
X316041541Y-263186128D01*
X317184398Y-263114700D02*
X317041541Y-263186128D01*
X317041541Y-263186128D02*
X316755827Y-263186128D01*
X316755827Y-263186128D02*
X316612969Y-263114700D01*
X316612969Y-263114700D02*
X316541541Y-262971842D01*
X316541541Y-262971842D02*
X316541541Y-262400414D01*
X316541541Y-262400414D02*
X316612969Y-262257557D01*
X316612969Y-262257557D02*
X316755827Y-262186128D01*
X316755827Y-262186128D02*
X317041541Y-262186128D01*
X317041541Y-262186128D02*
X317184398Y-262257557D01*
X317184398Y-262257557D02*
X317255827Y-262400414D01*
X317255827Y-262400414D02*
X317255827Y-262543271D01*
X317255827Y-262543271D02*
X316541541Y-262686128D01*
X317898683Y-263043271D02*
X317970112Y-263114700D01*
X317970112Y-263114700D02*
X317898683Y-263186128D01*
X317898683Y-263186128D02*
X317827255Y-263114700D01*
X317827255Y-263114700D02*
X317898683Y-263043271D01*
X317898683Y-263043271D02*
X317898683Y-263186128D01*
X317898683Y-262257557D02*
X317970112Y-262328985D01*
X317970112Y-262328985D02*
X317898683Y-262400414D01*
X317898683Y-262400414D02*
X317827255Y-262328985D01*
X317827255Y-262328985D02*
X317898683Y-262257557D01*
X317898683Y-262257557D02*
X317898683Y-262400414D01*
X320255826Y-262400414D02*
X320470112Y-262471842D01*
X320470112Y-262471842D02*
X320541541Y-262543271D01*
X320541541Y-262543271D02*
X320612969Y-262686128D01*
X320612969Y-262686128D02*
X320612969Y-262900414D01*
X320612969Y-262900414D02*
X320541541Y-263043271D01*
X320541541Y-263043271D02*
X320470112Y-263114700D01*
X320470112Y-263114700D02*
X320327255Y-263186128D01*
X320327255Y-263186128D02*
X319755826Y-263186128D01*
X319755826Y-263186128D02*
X319755826Y-261686128D01*
X319755826Y-261686128D02*
X320255826Y-261686128D01*
X320255826Y-261686128D02*
X320398684Y-261757557D01*
X320398684Y-261757557D02*
X320470112Y-261828985D01*
X320470112Y-261828985D02*
X320541541Y-261971842D01*
X320541541Y-261971842D02*
X320541541Y-262114700D01*
X320541541Y-262114700D02*
X320470112Y-262257557D01*
X320470112Y-262257557D02*
X320398684Y-262328985D01*
X320398684Y-262328985D02*
X320255826Y-262400414D01*
X320255826Y-262400414D02*
X319755826Y-262400414D01*
D10*
D11*
X398255826Y-265986128D02*
X398255826Y-264486128D01*
X399612970Y-265986128D02*
X399612970Y-264486128D01*
X399612970Y-265914700D02*
X399470112Y-265986128D01*
X399470112Y-265986128D02*
X399184398Y-265986128D01*
X399184398Y-265986128D02*
X399041541Y-265914700D01*
X399041541Y-265914700D02*
X398970112Y-265843271D01*
X398970112Y-265843271D02*
X398898684Y-265700414D01*
X398898684Y-265700414D02*
X398898684Y-265271842D01*
X398898684Y-265271842D02*
X398970112Y-265128985D01*
X398970112Y-265128985D02*
X399041541Y-265057557D01*
X399041541Y-265057557D02*
X399184398Y-264986128D01*
X399184398Y-264986128D02*
X399470112Y-264986128D01*
X399470112Y-264986128D02*
X399612970Y-265057557D01*
X400327255Y-265843271D02*
X400398684Y-265914700D01*
X400398684Y-265914700D02*
X400327255Y-265986128D01*
X400327255Y-265986128D02*
X400255827Y-265914700D01*
X400255827Y-265914700D02*
X400327255Y-265843271D01*
X400327255Y-265843271D02*
X400327255Y-265986128D01*
X400327255Y-265057557D02*
X400398684Y-265128985D01*
X400398684Y-265128985D02*
X400327255Y-265200414D01*
X400327255Y-265200414D02*
X400255827Y-265128985D01*
X400255827Y-265128985D02*
X400327255Y-265057557D01*
X400327255Y-265057557D02*
X400327255Y-265200414D01*
X402970113Y-265986128D02*
X402112970Y-265986128D01*
X402541541Y-265986128D02*
X402541541Y-264486128D01*
X402541541Y-264486128D02*
X402398684Y-264700414D01*
X402398684Y-264700414D02*
X402255827Y-264843271D01*
X402255827Y-264843271D02*
X402112970Y-264914700D01*
X403827255Y-265128985D02*
X403684398Y-265057557D01*
X403684398Y-265057557D02*
X403612969Y-264986128D01*
X403612969Y-264986128D02*
X403541541Y-264843271D01*
X403541541Y-264843271D02*
X403541541Y-264771842D01*
X403541541Y-264771842D02*
X403612969Y-264628985D01*
X403612969Y-264628985D02*
X403684398Y-264557557D01*
X403684398Y-264557557D02*
X403827255Y-264486128D01*
X403827255Y-264486128D02*
X404112969Y-264486128D01*
X404112969Y-264486128D02*
X404255827Y-264557557D01*
X404255827Y-264557557D02*
X404327255Y-264628985D01*
X404327255Y-264628985D02*
X404398684Y-264771842D01*
X404398684Y-264771842D02*
X404398684Y-264843271D01*
X404398684Y-264843271D02*
X404327255Y-264986128D01*
X404327255Y-264986128D02*
X404255827Y-265057557D01*
X404255827Y-265057557D02*
X404112969Y-265128985D01*
X404112969Y-265128985D02*
X403827255Y-265128985D01*
X403827255Y-265128985D02*
X403684398Y-265200414D01*
X403684398Y-265200414D02*
X403612969Y-265271842D01*
X403612969Y-265271842D02*
X403541541Y-265414700D01*
X403541541Y-265414700D02*
X403541541Y-265700414D01*
X403541541Y-265700414D02*
X403612969Y-265843271D01*
X403612969Y-265843271D02*
X403684398Y-265914700D01*
X403684398Y-265914700D02*
X403827255Y-265986128D01*
X403827255Y-265986128D02*
X404112969Y-265986128D01*
X404112969Y-265986128D02*
X404255827Y-265914700D01*
X404255827Y-265914700D02*
X404327255Y-265843271D01*
X404327255Y-265843271D02*
X404398684Y-265700414D01*
X404398684Y-265700414D02*
X404398684Y-265414700D01*
X404398684Y-265414700D02*
X404327255Y-265271842D01*
X404327255Y-265271842D02*
X404255827Y-265200414D01*
X404255827Y-265200414D02*
X404112969Y-265128985D01*
X406112969Y-264414700D02*
X404827255Y-266343271D01*
X407398684Y-265986128D02*
X406541541Y-265986128D01*
X406970112Y-265986128D02*
X406970112Y-264486128D01*
X406970112Y-264486128D02*
X406827255Y-264700414D01*
X406827255Y-264700414D02*
X406684398Y-264843271D01*
X406684398Y-264843271D02*
X406541541Y-264914700D01*
X408255826Y-265128985D02*
X408112969Y-265057557D01*
X408112969Y-265057557D02*
X408041540Y-264986128D01*
X408041540Y-264986128D02*
X407970112Y-264843271D01*
X407970112Y-264843271D02*
X407970112Y-264771842D01*
X407970112Y-264771842D02*
X408041540Y-264628985D01*
X408041540Y-264628985D02*
X408112969Y-264557557D01*
X408112969Y-264557557D02*
X408255826Y-264486128D01*
X408255826Y-264486128D02*
X408541540Y-264486128D01*
X408541540Y-264486128D02*
X408684398Y-264557557D01*
X408684398Y-264557557D02*
X408755826Y-264628985D01*
X408755826Y-264628985D02*
X408827255Y-264771842D01*
X408827255Y-264771842D02*
X408827255Y-264843271D01*
X408827255Y-264843271D02*
X408755826Y-264986128D01*
X408755826Y-264986128D02*
X408684398Y-265057557D01*
X408684398Y-265057557D02*
X408541540Y-265128985D01*
X408541540Y-265128985D02*
X408255826Y-265128985D01*
X408255826Y-265128985D02*
X408112969Y-265200414D01*
X408112969Y-265200414D02*
X408041540Y-265271842D01*
X408041540Y-265271842D02*
X407970112Y-265414700D01*
X407970112Y-265414700D02*
X407970112Y-265700414D01*
X407970112Y-265700414D02*
X408041540Y-265843271D01*
X408041540Y-265843271D02*
X408112969Y-265914700D01*
X408112969Y-265914700D02*
X408255826Y-265986128D01*
X408255826Y-265986128D02*
X408541540Y-265986128D01*
X408541540Y-265986128D02*
X408684398Y-265914700D01*
X408684398Y-265914700D02*
X408755826Y-265843271D01*
X408755826Y-265843271D02*
X408827255Y-265700414D01*
X408827255Y-265700414D02*
X408827255Y-265414700D01*
X408827255Y-265414700D02*
X408755826Y-265271842D01*
X408755826Y-265271842D02*
X408684398Y-265200414D01*
X408684398Y-265200414D02*
X408541540Y-265128985D01*
D10*
D11*
X311800000Y-256900000D02*
X419800000Y-256900000D01*
D10*
D13*
X313491728Y-257604438D02*
X314634585Y-257604438D01*
X313813157Y-259604438D02*
X314063157Y-257604438D01*
X315051252Y-259604438D02*
X315217919Y-258271104D01*
X315301252Y-257604438D02*
X315194109Y-257699676D01*
X315194109Y-257699676D02*
X315277443Y-257794914D01*
X315277443Y-257794914D02*
X315384586Y-257699676D01*
X315384586Y-257699676D02*
X315301252Y-257604438D01*
X315301252Y-257604438D02*
X315277443Y-257794914D01*
X315884586Y-258271104D02*
X316646490Y-258271104D01*
X316253633Y-257604438D02*
X316039348Y-259318723D01*
X316039348Y-259318723D02*
X316110776Y-259509200D01*
X316110776Y-259509200D02*
X316289348Y-259604438D01*
X316289348Y-259604438D02*
X316479824Y-259604438D01*
X317432205Y-259604438D02*
X317253633Y-259509200D01*
X317253633Y-259509200D02*
X317182205Y-259318723D01*
X317182205Y-259318723D02*
X317396490Y-257604438D01*
X318967919Y-259509200D02*
X318765538Y-259604438D01*
X318765538Y-259604438D02*
X318384585Y-259604438D01*
X318384585Y-259604438D02*
X318206014Y-259509200D01*
X318206014Y-259509200D02*
X318134585Y-259318723D01*
X318134585Y-259318723D02*
X318229824Y-258556819D01*
X318229824Y-258556819D02*
X318348871Y-258366342D01*
X318348871Y-258366342D02*
X318551252Y-258271104D01*
X318551252Y-258271104D02*
X318932204Y-258271104D01*
X318932204Y-258271104D02*
X319110776Y-258366342D01*
X319110776Y-258366342D02*
X319182204Y-258556819D01*
X319182204Y-258556819D02*
X319158395Y-258747295D01*
X319158395Y-258747295D02*
X318182204Y-258937771D01*
X319932205Y-259413961D02*
X320015538Y-259509200D01*
X320015538Y-259509200D02*
X319908395Y-259604438D01*
X319908395Y-259604438D02*
X319825062Y-259509200D01*
X319825062Y-259509200D02*
X319932205Y-259413961D01*
X319932205Y-259413961D02*
X319908395Y-259604438D01*
X320063157Y-258366342D02*
X320146490Y-258461580D01*
X320146490Y-258461580D02*
X320039348Y-258556819D01*
X320039348Y-258556819D02*
X319956014Y-258461580D01*
X319956014Y-258461580D02*
X320063157Y-258366342D01*
X320063157Y-258366342D02*
X320039348Y-258556819D01*
D10*
D11*
X313755826Y-255000414D02*
X313255826Y-255000414D01*
X313255826Y-255786128D02*
X313255826Y-254286128D01*
X313255826Y-254286128D02*
X313970112Y-254286128D01*
X314541540Y-255786128D02*
X314541540Y-254786128D01*
X314541540Y-254286128D02*
X314470112Y-254357557D01*
X314470112Y-254357557D02*
X314541540Y-254428985D01*
X314541540Y-254428985D02*
X314612969Y-254357557D01*
X314612969Y-254357557D02*
X314541540Y-254286128D01*
X314541540Y-254286128D02*
X314541540Y-254428985D01*
X315470112Y-255786128D02*
X315327255Y-255714700D01*
X315327255Y-255714700D02*
X315255826Y-255571842D01*
X315255826Y-255571842D02*
X315255826Y-254286128D01*
X316612969Y-255714700D02*
X316470112Y-255786128D01*
X316470112Y-255786128D02*
X316184398Y-255786128D01*
X316184398Y-255786128D02*
X316041540Y-255714700D01*
X316041540Y-255714700D02*
X315970112Y-255571842D01*
X315970112Y-255571842D02*
X315970112Y-255000414D01*
X315970112Y-255000414D02*
X316041540Y-254857557D01*
X316041540Y-254857557D02*
X316184398Y-254786128D01*
X316184398Y-254786128D02*
X316470112Y-254786128D01*
X316470112Y-254786128D02*
X316612969Y-254857557D01*
X316612969Y-254857557D02*
X316684398Y-255000414D01*
X316684398Y-255000414D02*
X316684398Y-255143271D01*
X316684398Y-255143271D02*
X315970112Y-255286128D01*
X317327254Y-255643271D02*
X317398683Y-255714700D01*
X317398683Y-255714700D02*
X317327254Y-255786128D01*
X317327254Y-255786128D02*
X317255826Y-255714700D01*
X317255826Y-255714700D02*
X317327254Y-255643271D01*
X317327254Y-255643271D02*
X317327254Y-255786128D01*
X317327254Y-254857557D02*
X317398683Y-254928985D01*
X317398683Y-254928985D02*
X317327254Y-255000414D01*
X317327254Y-255000414D02*
X317255826Y-254928985D01*
X317255826Y-254928985D02*
X317327254Y-254857557D01*
X317327254Y-254857557D02*
X317327254Y-255000414D01*
X319184397Y-254786128D02*
X319184397Y-256286128D01*
X319184397Y-254857557D02*
X319327255Y-254786128D01*
X319327255Y-254786128D02*
X319612969Y-254786128D01*
X319612969Y-254786128D02*
X319755826Y-254857557D01*
X319755826Y-254857557D02*
X319827255Y-254928985D01*
X319827255Y-254928985D02*
X319898683Y-255071842D01*
X319898683Y-255071842D02*
X319898683Y-255500414D01*
X319898683Y-255500414D02*
X319827255Y-255643271D01*
X319827255Y-255643271D02*
X319755826Y-255714700D01*
X319755826Y-255714700D02*
X319612969Y-255786128D01*
X319612969Y-255786128D02*
X319327255Y-255786128D01*
X319327255Y-255786128D02*
X319184397Y-255714700D01*
X320470112Y-255714700D02*
X320612969Y-255786128D01*
X320612969Y-255786128D02*
X320898683Y-255786128D01*
X320898683Y-255786128D02*
X321041540Y-255714700D01*
X321041540Y-255714700D02*
X321112969Y-255571842D01*
X321112969Y-255571842D02*
X321112969Y-255500414D01*
X321112969Y-255500414D02*
X321041540Y-255357557D01*
X321041540Y-255357557D02*
X320898683Y-255286128D01*
X320898683Y-255286128D02*
X320684398Y-255286128D01*
X320684398Y-255286128D02*
X320541540Y-255214700D01*
X320541540Y-255214700D02*
X320470112Y-255071842D01*
X320470112Y-255071842D02*
X320470112Y-255000414D01*
X320470112Y-255000414D02*
X320541540Y-254857557D01*
X320541540Y-254857557D02*
X320684398Y-254786128D01*
X320684398Y-254786128D02*
X320898683Y-254786128D01*
X320898683Y-254786128D02*
X321041540Y-254857557D01*
X322398684Y-255714700D02*
X322255826Y-255786128D01*
X322255826Y-255786128D02*
X321970112Y-255786128D01*
X321970112Y-255786128D02*
X321827255Y-255714700D01*
X321827255Y-255714700D02*
X321755826Y-255643271D01*
X321755826Y-255643271D02*
X321684398Y-255500414D01*
X321684398Y-255500414D02*
X321684398Y-255071842D01*
X321684398Y-255071842D02*
X321755826Y-254928985D01*
X321755826Y-254928985D02*
X321827255Y-254857557D01*
X321827255Y-254857557D02*
X321970112Y-254786128D01*
X321970112Y-254786128D02*
X322255826Y-254786128D01*
X322255826Y-254786128D02*
X322398684Y-254857557D01*
X322684398Y-255928985D02*
X323827255Y-255928985D01*
X324827255Y-255786128D02*
X324827255Y-254286128D01*
X324827255Y-255714700D02*
X324684397Y-255786128D01*
X324684397Y-255786128D02*
X324398683Y-255786128D01*
X324398683Y-255786128D02*
X324255826Y-255714700D01*
X324255826Y-255714700D02*
X324184397Y-255643271D01*
X324184397Y-255643271D02*
X324112969Y-255500414D01*
X324112969Y-255500414D02*
X324112969Y-255071842D01*
X324112969Y-255071842D02*
X324184397Y-254928985D01*
X324184397Y-254928985D02*
X324255826Y-254857557D01*
X324255826Y-254857557D02*
X324398683Y-254786128D01*
X324398683Y-254786128D02*
X324684397Y-254786128D01*
X324684397Y-254786128D02*
X324827255Y-254857557D01*
X326184398Y-255786128D02*
X326184398Y-255000414D01*
X326184398Y-255000414D02*
X326112969Y-254857557D01*
X326112969Y-254857557D02*
X325970112Y-254786128D01*
X325970112Y-254786128D02*
X325684398Y-254786128D01*
X325684398Y-254786128D02*
X325541540Y-254857557D01*
X326184398Y-255714700D02*
X326041540Y-255786128D01*
X326041540Y-255786128D02*
X325684398Y-255786128D01*
X325684398Y-255786128D02*
X325541540Y-255714700D01*
X325541540Y-255714700D02*
X325470112Y-255571842D01*
X325470112Y-255571842D02*
X325470112Y-255428985D01*
X325470112Y-255428985D02*
X325541540Y-255286128D01*
X325541540Y-255286128D02*
X325684398Y-255214700D01*
X325684398Y-255214700D02*
X326041540Y-255214700D01*
X326041540Y-255214700D02*
X326184398Y-255143271D01*
X327541541Y-254786128D02*
X327541541Y-255786128D01*
X326898683Y-254786128D02*
X326898683Y-255571842D01*
X326898683Y-255571842D02*
X326970112Y-255714700D01*
X326970112Y-255714700D02*
X327112969Y-255786128D01*
X327112969Y-255786128D02*
X327327255Y-255786128D01*
X327327255Y-255786128D02*
X327470112Y-255714700D01*
X327470112Y-255714700D02*
X327541541Y-255643271D01*
X328898684Y-254786128D02*
X328898684Y-256000414D01*
X328898684Y-256000414D02*
X328827255Y-256143271D01*
X328827255Y-256143271D02*
X328755826Y-256214700D01*
X328755826Y-256214700D02*
X328612969Y-256286128D01*
X328612969Y-256286128D02*
X328398684Y-256286128D01*
X328398684Y-256286128D02*
X328255826Y-256214700D01*
X328898684Y-255714700D02*
X328755826Y-255786128D01*
X328755826Y-255786128D02*
X328470112Y-255786128D01*
X328470112Y-255786128D02*
X328327255Y-255714700D01*
X328327255Y-255714700D02*
X328255826Y-255643271D01*
X328255826Y-255643271D02*
X328184398Y-255500414D01*
X328184398Y-255500414D02*
X328184398Y-255071842D01*
X328184398Y-255071842D02*
X328255826Y-254928985D01*
X328255826Y-254928985D02*
X328327255Y-254857557D01*
X328327255Y-254857557D02*
X328470112Y-254786128D01*
X328470112Y-254786128D02*
X328755826Y-254786128D01*
X328755826Y-254786128D02*
X328898684Y-254857557D01*
X329612969Y-255786128D02*
X329612969Y-254286128D01*
X330255827Y-255786128D02*
X330255827Y-255000414D01*
X330255827Y-255000414D02*
X330184398Y-254857557D01*
X330184398Y-254857557D02*
X330041541Y-254786128D01*
X330041541Y-254786128D02*
X329827255Y-254786128D01*
X329827255Y-254786128D02*
X329684398Y-254857557D01*
X329684398Y-254857557D02*
X329612969Y-254928985D01*
X330755827Y-254786128D02*
X331327255Y-254786128D01*
X330970112Y-254286128D02*
X330970112Y-255571842D01*
X330970112Y-255571842D02*
X331041541Y-255714700D01*
X331041541Y-255714700D02*
X331184398Y-255786128D01*
X331184398Y-255786128D02*
X331327255Y-255786128D01*
X332398684Y-255714700D02*
X332255827Y-255786128D01*
X332255827Y-255786128D02*
X331970113Y-255786128D01*
X331970113Y-255786128D02*
X331827255Y-255714700D01*
X331827255Y-255714700D02*
X331755827Y-255571842D01*
X331755827Y-255571842D02*
X331755827Y-255000414D01*
X331755827Y-255000414D02*
X331827255Y-254857557D01*
X331827255Y-254857557D02*
X331970113Y-254786128D01*
X331970113Y-254786128D02*
X332255827Y-254786128D01*
X332255827Y-254786128D02*
X332398684Y-254857557D01*
X332398684Y-254857557D02*
X332470113Y-255000414D01*
X332470113Y-255000414D02*
X332470113Y-255143271D01*
X332470113Y-255143271D02*
X331755827Y-255286128D01*
X333112969Y-255786128D02*
X333112969Y-254786128D01*
X333112969Y-255071842D02*
X333184398Y-254928985D01*
X333184398Y-254928985D02*
X333255827Y-254857557D01*
X333255827Y-254857557D02*
X333398684Y-254786128D01*
X333398684Y-254786128D02*
X333541541Y-254786128D01*
X333684398Y-255928985D02*
X334827255Y-255928985D01*
X335184397Y-255786128D02*
X335184397Y-254286128D01*
X335184397Y-254857557D02*
X335327255Y-254786128D01*
X335327255Y-254786128D02*
X335612969Y-254786128D01*
X335612969Y-254786128D02*
X335755826Y-254857557D01*
X335755826Y-254857557D02*
X335827255Y-254928985D01*
X335827255Y-254928985D02*
X335898683Y-255071842D01*
X335898683Y-255071842D02*
X335898683Y-255500414D01*
X335898683Y-255500414D02*
X335827255Y-255643271D01*
X335827255Y-255643271D02*
X335755826Y-255714700D01*
X335755826Y-255714700D02*
X335612969Y-255786128D01*
X335612969Y-255786128D02*
X335327255Y-255786128D01*
X335327255Y-255786128D02*
X335184397Y-255714700D01*
X336541540Y-255786128D02*
X336541540Y-254786128D01*
X336541540Y-255071842D02*
X336612969Y-254928985D01*
X336612969Y-254928985D02*
X336684398Y-254857557D01*
X336684398Y-254857557D02*
X336827255Y-254786128D01*
X336827255Y-254786128D02*
X336970112Y-254786128D01*
X338112969Y-255786128D02*
X338112969Y-254286128D01*
X338112969Y-255714700D02*
X337970111Y-255786128D01*
X337970111Y-255786128D02*
X337684397Y-255786128D01*
X337684397Y-255786128D02*
X337541540Y-255714700D01*
X337541540Y-255714700D02*
X337470111Y-255643271D01*
X337470111Y-255643271D02*
X337398683Y-255500414D01*
X337398683Y-255500414D02*
X337398683Y-255071842D01*
X337398683Y-255071842D02*
X337470111Y-254928985D01*
X337470111Y-254928985D02*
X337541540Y-254857557D01*
X337541540Y-254857557D02*
X337684397Y-254786128D01*
X337684397Y-254786128D02*
X337970111Y-254786128D01*
X337970111Y-254786128D02*
X338112969Y-254857557D01*
X338827254Y-255643271D02*
X338898683Y-255714700D01*
X338898683Y-255714700D02*
X338827254Y-255786128D01*
X338827254Y-255786128D02*
X338755826Y-255714700D01*
X338755826Y-255714700D02*
X338827254Y-255643271D01*
X338827254Y-255643271D02*
X338827254Y-255786128D01*
X339541540Y-255786128D02*
X339541540Y-254286128D01*
X339684398Y-255214700D02*
X340112969Y-255786128D01*
X340112969Y-254786128D02*
X339541540Y-255357557D01*
X340755826Y-255786128D02*
X340755826Y-254786128D01*
X340755826Y-254286128D02*
X340684398Y-254357557D01*
X340684398Y-254357557D02*
X340755826Y-254428985D01*
X340755826Y-254428985D02*
X340827255Y-254357557D01*
X340827255Y-254357557D02*
X340755826Y-254286128D01*
X340755826Y-254286128D02*
X340755826Y-254428985D01*
X342112970Y-255714700D02*
X341970112Y-255786128D01*
X341970112Y-255786128D02*
X341684398Y-255786128D01*
X341684398Y-255786128D02*
X341541541Y-255714700D01*
X341541541Y-255714700D02*
X341470112Y-255643271D01*
X341470112Y-255643271D02*
X341398684Y-255500414D01*
X341398684Y-255500414D02*
X341398684Y-255071842D01*
X341398684Y-255071842D02*
X341470112Y-254928985D01*
X341470112Y-254928985D02*
X341541541Y-254857557D01*
X341541541Y-254857557D02*
X341684398Y-254786128D01*
X341684398Y-254786128D02*
X341970112Y-254786128D01*
X341970112Y-254786128D02*
X342112970Y-254857557D01*
X343398684Y-255786128D02*
X343398684Y-255000414D01*
X343398684Y-255000414D02*
X343327255Y-254857557D01*
X343327255Y-254857557D02*
X343184398Y-254786128D01*
X343184398Y-254786128D02*
X342898684Y-254786128D01*
X342898684Y-254786128D02*
X342755826Y-254857557D01*
X343398684Y-255714700D02*
X343255826Y-255786128D01*
X343255826Y-255786128D02*
X342898684Y-255786128D01*
X342898684Y-255786128D02*
X342755826Y-255714700D01*
X342755826Y-255714700D02*
X342684398Y-255571842D01*
X342684398Y-255571842D02*
X342684398Y-255428985D01*
X342684398Y-255428985D02*
X342755826Y-255286128D01*
X342755826Y-255286128D02*
X342898684Y-255214700D01*
X342898684Y-255214700D02*
X343255826Y-255214700D01*
X343255826Y-255214700D02*
X343398684Y-255143271D01*
X344755827Y-255786128D02*
X344755827Y-254286128D01*
X344755827Y-255714700D02*
X344612969Y-255786128D01*
X344612969Y-255786128D02*
X344327255Y-255786128D01*
X344327255Y-255786128D02*
X344184398Y-255714700D01*
X344184398Y-255714700D02*
X344112969Y-255643271D01*
X344112969Y-255643271D02*
X344041541Y-255500414D01*
X344041541Y-255500414D02*
X344041541Y-255071842D01*
X344041541Y-255071842D02*
X344112969Y-254928985D01*
X344112969Y-254928985D02*
X344184398Y-254857557D01*
X344184398Y-254857557D02*
X344327255Y-254786128D01*
X344327255Y-254786128D02*
X344612969Y-254786128D01*
X344612969Y-254786128D02*
X344755827Y-254857557D01*
X345112970Y-255928985D02*
X346255827Y-255928985D01*
X346612969Y-254786128D02*
X346612969Y-256286128D01*
X346612969Y-254857557D02*
X346755827Y-254786128D01*
X346755827Y-254786128D02*
X347041541Y-254786128D01*
X347041541Y-254786128D02*
X347184398Y-254857557D01*
X347184398Y-254857557D02*
X347255827Y-254928985D01*
X347255827Y-254928985D02*
X347327255Y-255071842D01*
X347327255Y-255071842D02*
X347327255Y-255500414D01*
X347327255Y-255500414D02*
X347255827Y-255643271D01*
X347255827Y-255643271D02*
X347184398Y-255714700D01*
X347184398Y-255714700D02*
X347041541Y-255786128D01*
X347041541Y-255786128D02*
X346755827Y-255786128D01*
X346755827Y-255786128D02*
X346612969Y-255714700D01*
X348612970Y-255714700D02*
X348470112Y-255786128D01*
X348470112Y-255786128D02*
X348184398Y-255786128D01*
X348184398Y-255786128D02*
X348041541Y-255714700D01*
X348041541Y-255714700D02*
X347970112Y-255643271D01*
X347970112Y-255643271D02*
X347898684Y-255500414D01*
X347898684Y-255500414D02*
X347898684Y-255071842D01*
X347898684Y-255071842D02*
X347970112Y-254928985D01*
X347970112Y-254928985D02*
X348041541Y-254857557D01*
X348041541Y-254857557D02*
X348184398Y-254786128D01*
X348184398Y-254786128D02*
X348470112Y-254786128D01*
X348470112Y-254786128D02*
X348612970Y-254857557D01*
X349255826Y-255786128D02*
X349255826Y-254286128D01*
X349255826Y-254857557D02*
X349398684Y-254786128D01*
X349398684Y-254786128D02*
X349684398Y-254786128D01*
X349684398Y-254786128D02*
X349827255Y-254857557D01*
X349827255Y-254857557D02*
X349898684Y-254928985D01*
X349898684Y-254928985D02*
X349970112Y-255071842D01*
X349970112Y-255071842D02*
X349970112Y-255500414D01*
X349970112Y-255500414D02*
X349898684Y-255643271D01*
X349898684Y-255643271D02*
X349827255Y-255714700D01*
X349827255Y-255714700D02*
X349684398Y-255786128D01*
X349684398Y-255786128D02*
X349398684Y-255786128D01*
X349398684Y-255786128D02*
X349255826Y-255714700D01*
D10*
D11*
X311800000Y-250900000D02*
X419800000Y-250900000D01*
D10*
D11*
X313184398Y-253014700D02*
X313398684Y-253086128D01*
X313398684Y-253086128D02*
X313755826Y-253086128D01*
X313755826Y-253086128D02*
X313898684Y-253014700D01*
X313898684Y-253014700D02*
X313970112Y-252943271D01*
X313970112Y-252943271D02*
X314041541Y-252800414D01*
X314041541Y-252800414D02*
X314041541Y-252657557D01*
X314041541Y-252657557D02*
X313970112Y-252514700D01*
X313970112Y-252514700D02*
X313898684Y-252443271D01*
X313898684Y-252443271D02*
X313755826Y-252371842D01*
X313755826Y-252371842D02*
X313470112Y-252300414D01*
X313470112Y-252300414D02*
X313327255Y-252228985D01*
X313327255Y-252228985D02*
X313255826Y-252157557D01*
X313255826Y-252157557D02*
X313184398Y-252014700D01*
X313184398Y-252014700D02*
X313184398Y-251871842D01*
X313184398Y-251871842D02*
X313255826Y-251728985D01*
X313255826Y-251728985D02*
X313327255Y-251657557D01*
X313327255Y-251657557D02*
X313470112Y-251586128D01*
X313470112Y-251586128D02*
X313827255Y-251586128D01*
X313827255Y-251586128D02*
X314041541Y-251657557D01*
X314684397Y-253086128D02*
X314684397Y-251586128D01*
X315327255Y-253086128D02*
X315327255Y-252300414D01*
X315327255Y-252300414D02*
X315255826Y-252157557D01*
X315255826Y-252157557D02*
X315112969Y-252086128D01*
X315112969Y-252086128D02*
X314898683Y-252086128D01*
X314898683Y-252086128D02*
X314755826Y-252157557D01*
X314755826Y-252157557D02*
X314684397Y-252228985D01*
X316612969Y-253014700D02*
X316470112Y-253086128D01*
X316470112Y-253086128D02*
X316184398Y-253086128D01*
X316184398Y-253086128D02*
X316041540Y-253014700D01*
X316041540Y-253014700D02*
X315970112Y-252871842D01*
X315970112Y-252871842D02*
X315970112Y-252300414D01*
X315970112Y-252300414D02*
X316041540Y-252157557D01*
X316041540Y-252157557D02*
X316184398Y-252086128D01*
X316184398Y-252086128D02*
X316470112Y-252086128D01*
X316470112Y-252086128D02*
X316612969Y-252157557D01*
X316612969Y-252157557D02*
X316684398Y-252300414D01*
X316684398Y-252300414D02*
X316684398Y-252443271D01*
X316684398Y-252443271D02*
X315970112Y-252586128D01*
X317898683Y-253014700D02*
X317755826Y-253086128D01*
X317755826Y-253086128D02*
X317470112Y-253086128D01*
X317470112Y-253086128D02*
X317327254Y-253014700D01*
X317327254Y-253014700D02*
X317255826Y-252871842D01*
X317255826Y-252871842D02*
X317255826Y-252300414D01*
X317255826Y-252300414D02*
X317327254Y-252157557D01*
X317327254Y-252157557D02*
X317470112Y-252086128D01*
X317470112Y-252086128D02*
X317755826Y-252086128D01*
X317755826Y-252086128D02*
X317898683Y-252157557D01*
X317898683Y-252157557D02*
X317970112Y-252300414D01*
X317970112Y-252300414D02*
X317970112Y-252443271D01*
X317970112Y-252443271D02*
X317255826Y-252586128D01*
X318398683Y-252086128D02*
X318970111Y-252086128D01*
X318612968Y-251586128D02*
X318612968Y-252871842D01*
X318612968Y-252871842D02*
X318684397Y-253014700D01*
X318684397Y-253014700D02*
X318827254Y-253086128D01*
X318827254Y-253086128D02*
X318970111Y-253086128D01*
X319470111Y-252943271D02*
X319541540Y-253014700D01*
X319541540Y-253014700D02*
X319470111Y-253086128D01*
X319470111Y-253086128D02*
X319398683Y-253014700D01*
X319398683Y-253014700D02*
X319470111Y-252943271D01*
X319470111Y-252943271D02*
X319470111Y-253086128D01*
X319470111Y-252157557D02*
X319541540Y-252228985D01*
X319541540Y-252228985D02*
X319470111Y-252300414D01*
X319470111Y-252300414D02*
X319398683Y-252228985D01*
X319398683Y-252228985D02*
X319470111Y-252157557D01*
X319470111Y-252157557D02*
X319470111Y-252300414D01*
D10*
D11*
X331800000Y-260900000D02*
X331800000Y-263900000D01*
D10*
D11*
X395800000Y-260900000D02*
X395800000Y-267400000D01*
D14*
X140000000Y-32000000D02*
X180000000Y-32000000D01*
X140000000Y-192000000D02*
X140000000Y-32000000D01*
X180000000Y-32000000D02*
X180000000Y-192000000D01*
X180000000Y-192000000D02*
X140000000Y-192000000D01*
M02*
